<?xml version="1.0" encoding="utf-8"?>
<!-- Generator: Adobe Illustrator 22.1.0, SVG Export Plug-In . SVG Version: 6.00 Build 0)  -->
<svg version="1.1" id="Capa_1" xmlns="http://www.w3.org/2000/svg" xmlns:xlink="http://www.w3.org/1999/xlink" x="0px" y="0px"
	 viewBox="0 0 429.8 429.8" style="enable-background:new 0 0 429.8 429.8;" xml:space="preserve">
<style type="text/css">
	.st0{fill:#FFFFFF;stroke:#000000;stroke-width:24;stroke-miterlimit:10;}
	.st1{fill:none;stroke:#000000;stroke-width:24;stroke-miterlimit:10;}
</style>
<path class="st0" d="M341,262.1l37.9-183.2c0-12.1,9.9-22,22-22h0.1c12.1,0,22,9.9,22,22l-37.9,183.2H341z"/>
<path class="st1" d="M276,428.4V310.9h74.5v117.5"/>
<path class="st0" d="M370,309.7H256.5c-9.9,0-18-8.1-18-18v-12.3c0-9.9,8.1-18,18-18H370c9.9,0,18,8.1,18,18v12.3
	C388,301.6,379.9,309.7,370,309.7z"/>
<path class="st1" d="M49.7,428.4V221H183v207.4"/>
<path class="st0" d="M202.5,219.8H30.2c-9.9,0-18-8.1-18-18v-12.3c0-9.9,8.1-18,18-18h172.2c9.9,0,18,8.1,18,18v12.3
	C220.5,211.7,212.4,219.8,202.5,219.8z"/>
</svg>
