<?xml version="1.0" encoding="utf-8"?>
<!-- Generator: Adobe Illustrator 22.1.0, SVG Export Plug-In . SVG Version: 6.00 Build 0)  -->
<svg version="1.1" id="Capa_1" xmlns="http://www.w3.org/2000/svg" xmlns:xlink="http://www.w3.org/1999/xlink" x="0px" y="0px"
	 viewBox="0 0 511 511" style="enable-background:new 0 0 511 511;" xml:space="preserve">
<style type="text/css">
	.st0{stroke:#000000;stroke-width:4;stroke-miterlimit:10;}
	.st1{fill:#FFFFFF;stroke:#000000;stroke-width:28;stroke-miterlimit:10;}
</style>
<path id="XMLID_111_" class="st0" d="M388.1,163.9V16.3c0-6.7,5.4-12,12-12c6.7,0,12,5.4,12,12v147.5c0,6.7-5.4,12-12,12
	C393.5,176,388.1,170.6,388.1,163.9z M354.9,176c6.7,0,12-5.4,12-12V16.3c0-6.7-5.4-12-12-12c-6.7,0-12,5.4-12,12v147.5
	C342.7,170.6,348.1,176,354.9,176z M162.4,299.9v168.8c0,21-17.3,38.3-38.3,38.3s-38.3-17.3-38.3-38.3V299.9
	c0-16.8,8.5-29.3,23.7-34.3v-34c-45.8-7.3-78.6-55.2-78.6-113.2c0-63.1,41.6-114.2,93.2-114.2c51.4,0,93.2,51.1,93.2,114.2
	c0,57.9-32.8,105.9-78.6,113.2v34C153.9,270.5,162.4,283.1,162.4,299.9z M124.2,208.1c38.1,0,69.1-40.4,69.1-90.1S162.2,28,124.2,28
	s-69.1,40.4-69.1,90.1S86,208.1,124.2,208.1z M138.1,299.9c0-7.8-6.4-12.2-14.2-12.2s-14.2,4.4-14.2,12.2v168.8
	c0,7.8,6.4,14.2,14.2,14.2s14.2-6.4,14.2-14.2V299.9z M415.6,299.9v168.8c0,21-17.3,38.3-38.3,38.3S339,489.7,339,468.7V299.9
	c0-16.8,8.5-29.3,23.7-34.3v-34c-38.4-5.8-65.4-39.1-65.4-79.3V16c0-6.7,5.4-12,12-12c6.7,0,12,5.4,12,12v136.2
	c0,30.9,25.1,55.9,55.7,55.9c0.1,0,0.1,0,0.4,0c30.9,0,55.7-25.2,55.7-55.9V16c0-6.7,5.4-12,12-12s12,5.4,12,12v136.2
	c0,40.1-26.9,73.3-65.4,79.3v34C407.2,270.5,415.6,283.1,415.6,299.9z M391.7,299.9c0-7.8-6.4-12.2-14.2-12.2
	c-7.8,0-14.2,4.4-14.2,12.2v168.8c0,7.8,6.4,14.2,14.2,14.2c7.8,0,14.2-6.4,14.2-14.2V299.9z"/>
<path class="st1" d="M126.4,499.8h-5.8c-23.4,0-42.6-19.2-42.6-42.6v-5.8c0-23.4,19.2-42.6,42.6-42.6h5.8
	c23.4,0,42.6,19.2,42.6,42.6v5.8C169,480.6,149.8,499.8,126.4,499.8z"/>
<path class="st1" d="M379.4,499.8h-5.8c-23.4,0-42.6-19.2-42.6-42.6v-5.8c0-23.4,19.2-42.6,42.6-42.6h5.8
	c23.4,0,42.6,19.2,42.6,42.6v5.8C422,480.6,402.8,499.8,379.4,499.8z"/>
</svg>
