<?xml version="1.0" encoding="utf-8"?>
<!-- Generator: Adobe Illustrator 22.1.0, SVG Export Plug-In . SVG Version: 6.00 Build 0)  -->
<svg version="1.1" id="Layer_1" xmlns="http://www.w3.org/2000/svg" xmlns:xlink="http://www.w3.org/1999/xlink" x="0px" y="0px"
	 viewBox="0 0 512 512" style="enable-background:new 0 0 512 512;" xml:space="preserve">
<style type="text/css">
	.st0{fill:none;stroke:#FFFFFF;stroke-width:40;stroke-linecap:round;stroke-miterlimit:10;}
	.st1{fill:none;stroke:#000000;stroke-width:24;stroke-linecap:round;stroke-linejoin:round;stroke-miterlimit:10;}
</style>
<g>
	<g>
		<path d="M249.7,399.8h134.8c6.3,0,11.4-5.1,11.4-11.4v-34.1l73.9,34.8c1.7,0.9,3.6,1.4,5.4,1.4c2,0,4.1-0.5,5.9-1.6
			c3.5-2.1,5.6-5.8,5.6-9.8v-153c0-4-2.2-7.7-5.6-9.8c-3.5-2.1-7.7-2.2-11.3-0.3l-73.9,34.8v-34.1c0-6.3-5.1-11.4-11.4-11.4h-18.6
			c23.2-18.8,38-47.5,38-79.6c0-56.4-45.9-102.4-102.4-102.4c-48.2,0-88.8,33.5-99.6,78.4c-14.2-17.1-35.6-28-59.5-28
			c-42.6,0-77.3,34.7-77.3,77.3c0,21.2,8.6,40.4,22.5,54.4H77.1c-6.3,0-11.4,5.1-11.4,11.4v51.9H31.8c-6.3,0-11.4,5.1-11.4,11.4V325
			c0,6.3,5.1,11.4,11.4,11.4h33.9v51.9c0,6.3,5.1,11.4,11.4,11.4L249.7,399.8z M65.7,313.6H43.2v-22.1h22.5V313.6z M301.5,46.2
			c43.9,0,79.6,35.7,79.6,79.6s-35.7,79.5-79.6,79.5s-79.6-35.7-79.6-79.6C221.9,81.9,257.6,46.2,301.5,46.2z M214.2,179.4
			c6.1,9.9,13.8,18.7,22.8,26h-39.9C204.5,198,210.3,189.2,214.2,179.4z M142.4,96.5c30,0,54.4,24.4,54.4,54.4s-24.4,54.4-54.4,54.4
			S88,180.9,88,150.9C88,121,112.4,96.5,142.4,96.5z M373,270v65.1v41.8H88.6V325v-44.9v-51.9H373V270z M463.8,359.8l-67.9-31.5
			v-51.5l67.9-31.5V359.8z"/>
	</g>
</g>
<g>
	<g>
		<path d="M301.5,75.9c-27.5,0-49.9,22.4-49.9,49.9s22.4,49.9,49.9,49.9s49.9-22.4,49.9-49.9C351.3,98.3,329,75.9,301.5,75.9z
			 M301.5,152.8c-14.9,0-27-12.1-27-27s12.1-27,27-27s27,12.1,27,27S316.4,152.8,301.5,152.8z"/>
	</g>
</g>
<g>
	<g>
		<path d="M257.7,261.4H133.4c-6,0-10.9,4.9-10.9,10.9v60.5c0,6,4.9,10.9,10.9,10.9h124.3c6,0,10.9-4.9,10.9-10.9v-60.5
			C268.6,266.3,263.7,261.4,257.7,261.4z M246.8,322H144.3v-38.8h102.5V322L246.8,322z"/>
	</g>
</g>
<g>
	<g>
		<path d="M335.4,261.4h-36.8c-6,0-10.9,4.9-10.9,10.9v60.5c0,6,4.9,10.9,10.9,10.9h36.8c6,0,10.9-4.9,10.9-10.9v-60.5
			C346.3,266.3,341.4,261.4,335.4,261.4z M324.5,322h-15v-38.8h15V322L324.5,322z"/>
	</g>
</g>
<line class="st0" x1="26" y1="491.8" x2="492.4" y2="32.9"/>
<polygon class="st1" points="174,393 134.6,440.4 347.6,440.4 308.8,393 "/>
</svg>
