<?xml version="1.0" encoding="utf-8"?>
<!-- Generator: Adobe Illustrator 22.1.0, SVG Export Plug-In . SVG Version: 6.00 Build 0)  -->
<svg version="1.1" id="圖層_1" xmlns="http://www.w3.org/2000/svg" xmlns:xlink="http://www.w3.org/1999/xlink" x="0px" y="0px"
	 viewBox="0 0 511 511" style="enable-background:new 0 0 511 511;" xml:space="preserve">
<style type="text/css">
	.st0{stroke:#000000;stroke-width:4;stroke-miterlimit:10;}
	.st1{fill:#FFFFFF;}
	.st2{stroke:#000000;stroke-width:7;stroke-miterlimit:10;}
</style>
<path class="st0" d="M193.7,27.3h23.7v62h-23.7V27.3z M74.9,27.3h23.7v62H74.9V27.3z M193.6,413.7c6.6,0,11.9-5.3,11.9-11.9v-66.7
	c38.3-39.8,59.6-48.7,59.5-103.9v-46.8h11.9c6.6,0,11.9-5.3,11.9-11.9v-71.5c0-6.6-5.3-11.9-11.9-11.9H241V15.4
	c0-6.6-5.3-11.9-11.9-11.9h-47.6c-6.6,0-11.9,5.3-11.9,11.9v73.8h-47.6V15.4c0-6.6-5.3-11.9-11.9-11.9H62.9C56.3,3.5,51,8.8,51,15.4
	v73.8H15.4c-6.6,0-11.9,5.3-11.9,11.9v71.3c0,6.6,5.3,11.9,11.9,11.9h11.9v46.8c-0.1,55.1,21.2,64.1,59.5,103.9v66.7
	c0,6.6,5.3,11.9,11.9,11.9h11.9L193.6,413.7z M181.8,389.8h-71.3v-47.6h71.3V389.8z M241.3,231.1c0.1,49-18.7,52.1-52.6,87.4h-85.2
	C69.6,283,50.8,280.1,51,231.1v-46.8h190.3V231.1z M265.1,160.6H27.3V113h237.7V160.6z"/>
<path class="st1" d="M499.5,212.3h-89.1l51.5-121c1.5-4-0.5-8.4-4.4-10c-3-1.2-6.4-0.4-8.6,2.1L316.2,245.8
	c-2.8,3.2-2.5,8.1,0.7,10.9c1.5,1.3,3.3,1.9,5.1,1.9h89.4l-47.7,116.5c-1.5,4,0.6,8.4,4.6,9.9c3.1,1.1,6.4,0.2,8.5-2.4l128.6-157.7
	c2.7-3.3,2.3-8.2-1-10.9C503.1,213,501.3,212.3,499.5,212.3z"/>
<path id="XMLID_1_" class="st2" d="M160.5,404.3V465c0,6.2,5,11.1,11.1,11.1h307.5v22.3H479H171.6c-18.4,0-33.4-15-33.4-33.4v-60.7
	H160.5z"/>
</svg>
