<?xml version="1.0" encoding="iso-8859-1"?>
<!-- Generator: Adobe Illustrator 19.0.0, SVG Export Plug-In . SVG Version: 6.00 Build 0)  -->
<svg version="1.1" id="Capa_1" xmlns="http://www.w3.org/2000/svg" xmlns:xlink="http://www.w3.org/1999/xlink" x="0px" y="0px"
	 viewBox="0 0 512 512" style="enable-background:new 0 0 512 512;" xml:space="preserve">
<g>
	<g>
		<path d="M209.06,430.93c-1.86-1.86-4.44-2.93-7.07-2.93c-2.64,0-5.21,1.07-7.07,2.93c-1.87,1.86-2.93,4.44-2.93,7.07
			s1.06,5.21,2.93,7.07c1.86,1.86,4.43,2.93,7.07,2.93c2.63,0,5.21-1.07,7.07-2.93c1.86-1.86,2.93-4.44,2.93-7.07
			S210.92,432.79,209.06,430.93z"/>
	</g>
</g>
<g>
	<g>
		<path d="M440,0H136c-16.542,0-30,13.458-30,30v34H72c-16.542,0-30,13.458-30,30v388c0,16.542,13.458,30,30,30h304
			c16.542,0,30-13.458,30-30v-30.5c0-5.523-4.477-10-10-10s-10,4.477-10,10V482c0,5.514-4.486,10-10,10H72c-5.514,0-10-4.486-10-10
			V94c0-5.514,4.486-10,10-10h34v334c0,16.542,13.458,30,30,30h18.333c5.523,0,10-4.477,10-10s-4.477-10-10-10H136
			c-5.514,0-10-4.486-10-10V30c0-5.514,4.486-10,10-10h304c5.514,0,10,4.486,10,10v310h-34.25V231.168c0-5.523-4.477-10-10-10h-98
			c-5.523,0-10,4.477-10,10v156c0,5.523,4.477,10,10,10H362V428H244c-5.523,0-10,4.477-10,10s4.477,10,10,10h127.987
			c0.003,0,0.007,0,0.01,0c2.603,0,5.161-1.017,7.074-2.929l88-88c1.911-1.911,2.903-4.467,2.905-7.067
			c0.008-0.001,0.015-0.003,0.024-0.004V30C470,13.458,456.542,0,440,0z M362.008,377.168H317.75v-136h78v99.02
			C376.935,342.065,362.177,357.906,362.008,377.168z M382,413.858V377.5c0-9.649,7.851-17.5,17.5-17.5h36.358L382,413.858z"/>
	</g>
</g>
<g>
	<g>
		<path d="M223,64c-34.509,0-62.584,28.075-62.584,62.584c0,34.509,28.076,62.584,62.584,62.584
			c34.509,0,62.584-28.075,62.584-62.584C285.584,92.075,257.509,64,223,64z M223,169.168c-23.481,0-42.584-19.103-42.584-42.584
			S199.52,84,223,84c23.481,0,42.584,19.103,42.584,42.584S246.481,169.168,223,169.168z"/>
	</g>
</g>
<g>
	<g>
		<path d="M257.25,221.168h-87c-5.523,0-10,4.477-10,10c0,5.523,4.477,10,10,10h87c5.523,0,10-4.477,10-10
			C267.25,225.645,262.773,221.168,257.25,221.168z"/>
	</g>
</g>
<g>
	<g>
		<path d="M405.75,117.168h-87c-5.523,0-10,4.477-10,10c0,5.523,4.477,10,10,10h87c5.523,0,10-4.477,10-10
			C415.75,121.645,411.273,117.168,405.75,117.168z"/>
	</g>
</g>
<g>
	<g>
		<path d="M405.75,65.168h-49.667c-5.523,0-10,4.477-10,10c0,5.523,4.477,10,10,10h49.667c5.523,0,10-4.477,10-10
			C415.75,69.645,411.273,65.168,405.75,65.168z"/>
	</g>
</g>
<g>
	<g>
		<path d="M325.82,68.1c-1.86-1.86-4.44-2.93-7.07-2.93s-5.21,1.07-7.07,2.93c-1.86,1.86-2.93,4.43-2.93,7.07
			c0,2.63,1.07,5.21,2.93,7.07c1.86,1.86,4.44,2.93,7.07,2.93s5.21-1.07,7.07-2.93c1.86-1.86,2.93-4.44,2.93-7.07
			S327.68,69.96,325.82,68.1z"/>
	</g>
</g>
<g>
	<g>
		<path d="M405.75,169.168h-87c-5.523,0-10,4.477-10,10c0,5.523,4.477,10,10,10h87c5.523,0,10-4.477,10-10
			C415.75,173.645,411.273,169.168,405.75,169.168z"/>
	</g>
</g>
<g>
	<g>
		<path d="M257.25,273.168h-87c-5.523,0-10,4.477-10,10s4.477,10,10,10h87c5.523,0,10-4.477,10-10S262.773,273.168,257.25,273.168z"
			/>
	</g>
</g>
<g>
	<g>
		<path d="M257.25,325.168h-87c-5.523,0-10,4.477-10,10s4.477,10,10,10h87c5.523,0,10-4.477,10-10S262.773,325.168,257.25,325.168z"
			/>
	</g>
</g>
<g>
	<g>
		<path d="M257.25,377.168h-87c-5.523,0-10,4.477-10,10s4.477,10,10,10h87c5.523,0,10-4.477,10-10S262.773,377.168,257.25,377.168z"
			/>
	</g>
</g>
<g>
</g>
<g>
</g>
<g>
</g>
<g>
</g>
<g>
</g>
<g>
</g>
<g>
</g>
<g>
</g>
<g>
</g>
<g>
</g>
<g>
</g>
<g>
</g>
<g>
</g>
<g>
</g>
<g>
</g>
</svg>
