<?xml version="1.0" encoding="utf-8"?>
<!-- Generator: Adobe Illustrator 22.1.0, SVG Export Plug-In . SVG Version: 6.00 Build 0)  -->
<svg version="1.1" id="圖層_1" xmlns="http://www.w3.org/2000/svg" xmlns:xlink="http://www.w3.org/1999/xlink" x="0px" y="0px"
	 viewBox="0 0 511 511" style="enable-background:new 0 0 511 511;" xml:space="preserve">
<style type="text/css">
	.st0{fill:#FFFFFF;stroke:#000000;stroke-width:24;stroke-linecap:round;stroke-linejoin:round;stroke-miterlimit:10;}
</style>
<g id="surface1">
	<path d="M329.3,44.4c-2.3-2.5-5.6-3.9-8.9-3.9H113.9c-33,0-60,27-60,60v347.3c0,33,27,60,60,60h284.8c33,0,60-27,60-60V185.1
		c0-3.2-1.5-6.3-3.6-8.6L329.3,44.4z M332.8,84l84.3,88.5l-32.1,0.3c-42.4,0.5-56.1-21.6-53.2-60.5L332.8,84z M391.7,483H121
		c-23.1,0-42.5-19.1-42.5-42.3V107.4c0-23.1,19.3-42.3,42.5-42.3h187.1v74.2c0,32,25.9,57.9,57.9,57.9h68v243.5
		C434.1,464,415,483,391.7,483z"/>
	<path d="M357.9,418.3H155.1c-6.4,0-12,4.7-12.7,11.1c-0.7,7.3,5.1,13.6,12.3,13.6h202.9c6.4,0,12-4.7,12.7-11.1
		C371,424.5,365.2,418.3,357.9,418.3z"/>
</g>
<path class="st0" d="M221,12.5v285h-57c-7.7,7.7-7.7,10.1,0,17.8l77.9,77.9c7.7,7.7,20.3,7.7,27.9,0l77.9-77.9
	c7.7-7.7,7.7-10.1,0-17.8h-64.5v-285H221z"/>
</svg>
