<svg xmlns="http://www.w3.org/2000/svg" viewBox="0 0 475.55 109.74"><title>flight-text-after</title><g id="item-layer2"><path d="M198.68,56.86l-19.11-1.58A188.55,188.55,0,0,1,196.1,65.79l-5.86,5.73a161.87,161.87,0,0,0-17.63-12.11l4-4.38-20.13-1.67,5.31,5.15a127.53,127.53,0,0,1-21.84,9,50.1,50.1,0,0,0-4-6.41c6.15-1.74,14.26-5,19.08-7.9l-18.5-1.53.62-7.46,6.1.51L145,9.69a117,117,0,0,0,13.36-3.94l2.92,6.86c-2.93.78-6.19,1.33-9.3,1.89l-.31,6.12,7.73.64-.55,6.57-7.52-.62-.28,5.84,7.52.63L158,40.25l-7.32-.6-.27,5.71,35.38,2.93c.28-1.75.49-3.51.79-5.46l-6.85-.57.56-6.64,7.11.59c.23-1.89.46-3.85.69-5.81l-6.84-.57.55-6.64,7,.58c.17-2,.32-3.86.56-5.82l-7.8-.65.58-6.91,15.18,1.26c-1,12.06-2.6,27.15-4,37.27l5.89.49Zm-30.5-24.7c-.84,4.36-2.29,8.75-4.43,11.43a36.29,36.29,0,0,0-4.81-3.6c1.9-2.37,2.73-5.78,3.3-9.35Zm3.48-2.38-10.24-.85,1.87-22.5,6.84.57-.38,4.61,10.64.88-.55,6.65-10.64-.89-.41,4.95,7.52.62V24l2.58.21-1.43,17.15c-.23,2.78-.86,3.88-2.77,4.61s-4.47.45-7.79.18a21.45,21.45,0,0,0-1.35-5.1,32.48,32.48,0,0,0,4.33.43c.61.05.83-.07.88-.68Z" style="fill:#cacaca"/><path d="M16.53,50A47.78,47.78,0,0,1,6.46,63.58,45,45,0,0,0,0,58.76a31.58,31.58,0,0,0,9-11Zm17.4-2.72H.54V40.19H6.66V15H1.36V7.89h5.3V.68h7.28V7.89h8.43V.68h7.42V7.89h4.62V15H29.79V40.19h4.14ZM13.94,15v3.95h8.43V15Zm0,14.42h8.43V25.09H13.94Zm0,10.81h8.43V35.57H13.94Zm48,14.21c0,4-.75,6.12-3.13,7.42s-5.85,1.49-10.88,1.42a29.69,29.69,0,0,0-2.32-7.68c2.93.2,6.19.14,7.14.14s1.37-.34,1.37-1.43V40.87H43.73c-.75,8-2.45,16.53-6.12,22.65A23.42,23.42,0,0,0,31.22,59c.2-.41.47-.75.67-1.16L26.25,61A67.3,67.3,0,0,0,19,50.73l6.12-3.33a73.84,73.84,0,0,1,7.35,9.25c3.94-8.5,4.28-20,4.28-28.84V2.86H61.89ZM54.07,33.66V25.3h-9.8v2.51c0,1.77,0,3.74-.07,5.85ZM44.27,10.2v8h9.8v-8Z" style="fill:#cacaca"/><path d="M91.06,17.82a77.63,77.63,0,0,1-5.64,8.36V63.31H77.67V35.09a76.57,76.57,0,0,1-6.19,5.58,56.67,56.67,0,0,0-3.74-8.37c5.91-4.21,12.51-10.88,16.32-17.47ZM90,3.13a69.52,69.52,0,0,1-17.61,17,47,47,0,0,0-4-6.87c5.37-3.2,11.22-8.77,14-13.26Zm33.4,30.46h8.29v7.35h-8.29V55c0,4-.75,6-3.61,7.14s-6.73,1.29-12,1.22a31.89,31.89,0,0,0-2.51-7.55c3.4.21,7.27.21,8.36.14s1.43-.27,1.43-1.16V40.94H87.93V33.59h27.14V29.72h8.3Zm8.56-25.91V15.1H113.78v5.51h15.16V28H90.65V20.61h14.83V15.1H88.34V7.68h17.14V.2h8.3V7.68Zm-33.39,34a107.66,107.66,0,0,1,8.57,11.08l-7.14,4a93.77,93.77,0,0,0-8.09-11.63Z" style="fill:#cacaca"/><path d="M203.79,68a72.09,72.09,0,0,0,8.49-13.91l6.72,4a127.27,127.27,0,0,1-8.16,14.5ZM218,32.72c-1.83,1.32-3.66,2.57-5.4,3.7a46.56,46.56,0,0,0-3.93-7.15,54.86,54.86,0,0,0,18.21-16.11l6.74,3.36A64.4,64.4,0,0,1,227,24.58l-4,28.34-7.67-1.08Zm25.19,38.52c3.23.45,4-.34,5.2-6.69a24,24,0,0,0,6.94,3.87C253,77.7,250.42,79.68,242.74,78.6l-13-1.84C220.19,75.41,218,72.83,219,65.63l1.43-10.11,8.15,1.16-1.41,9.89c-.3,2.16.35,2.46,4.25,3Zm.74-33.9a45.69,45.69,0,0,1-11.57,12.38,59.58,59.58,0,0,0-5.26-5.55A31.46,31.46,0,0,0,237,34.24Zm-3.39-9.54a43.07,43.07,0,0,1-7.39,7.06A48.19,48.19,0,0,0,228,29a34.63,34.63,0,0,0,11.83-13.71l7.08,2.85c-.57,1.16-1.22,2.3-1.86,3.45l21.07,3,1.18,0,5.55,2a114.05,114.05,0,0,1-7,11.44l-6.6-2.38c.87-1.32,1.86-3,2.87-4.74ZM238.4,67.54c-1-3.37-4-8.81-6.85-12.71l6.61-2.57c2.92,3.64,6.17,8.84,7.38,12.38Zm13.13-10.78-7.61-1.08,3.56-25.11,7.61,1.07Zm9.37,2.77c2.34,5.27,4.68,12.06,5,16.57l-8,2c-.29-4.29-2.25-11.3-4.43-16.76Zm1.7-21.81a63.33,63.33,0,0,1,6.3,13.74l-7.23,2.61a76.17,76.17,0,0,0-5.89-14.22Z" style="fill:#cacaca"/><path d="M335.18,77.24l-7.68-1.08-.94,6.66c-.57,4-1.75,6.07-4.75,6.89s-6.92.39-12.58-.41a29.37,29.37,0,0,0-1.69-7.93c3.67.73,8,1.27,9.2,1.44s1.66-.11,1.83-1.26l.92-6.53-31.71-4.48L285.6,86l-8-1.12,2.18-15.42-7.68-1.09,1.05-7.41L280.88,62l3.49-24.71L304,40.07l.62-4.45-24.51-3.46,1-7.34L338.69,33l-1,7.34-25.05-3.54L312,41.2,332.05,44l-3.5,24.71,7.68,1.09ZM288.82,63.13l11.65,1.65.77-5.45-11.65-1.65Zm2.48-17.5-.74,5.25,11.65,1.64.74-5.25Zm29.24,22,.77-5.46-12.05-1.7-.77,5.45ZM311,48.41l-.74,5.25,12,1.7.74-5.25Z" style="fill:#cacaca"/><path d="M361,58.37c2,2.89,6.74,10.63,7.85,12.51l-5.51,5.88c-.7-2.3-2.21-5.74-3.66-9l-4,28L348,94.65l3.76-26.6c-3,5.63-6.33,10.78-9.75,14.08a39.58,39.58,0,0,0-2.71-8.08c5.13-4.7,10.33-13.3,13.62-21l-8.68-1.23,1.06-7.54L355,45.63l1.95-13.8,7.68,1.08-2,13.81,8.41,1.19L370,55.45l-8.42-1.19Zm45.44-15.83-8.24,58.24-8.08-1.14.49-3.43L374.78,94l-.54,3.84-7.68-1.09,8.3-58.65Zm-14.81,46.4,1.22-8.62L377,78.08l-1.22,8.62ZM379.27,62.25l-1.21,8.56L393.88,73l1.21-8.55Zm2.2-15.55-1.18,8.35,15.82,2.24,1.18-8.35Z" style="fill:#cacaca"/><path d="M450.51,47.05c-.39.36-.79.79-1.18,1.14,5.43,6.26,15.81,12.47,26.22,16.07a27.71,27.71,0,0,0-5.91,5.42c-1.3-.53-2.65-1.2-4-1.81l-2.45,17.38-46.8-6.62,2.4-17c-1.48.27-3,.54-4.36.69a43,43,0,0,0-3.43-6.8c12.8-1.15,25.57-5,32.81-12ZM419.83,81.38l39.6,5.6-3.22,22.76L448,108.58l.23-1.62-23.5-3.32-.25,1.82-7.88-1.11Zm43.5-14.72a75.89,75.89,0,0,1-8.57-5.41L454.51,63l-23.63-3.34.19-1.34a84.43,84.43,0,0,1-8.68,2.55Zm-34.88,8.73a27.37,27.37,0,0,0-1.3-7.33l5.39-.74-7.61-1.08-1.2,8.48ZM449,101.71l.38-2.69-23.5-3.32-.38,2.69Zm-22-14-.38,2.69,23.5,3.33.38-2.7Zm11.16-19.64-5.25-.75a30.77,30.77,0,0,1,1.68,7.52l-4.5.74,6.87,1ZM449.59,57a65.76,65.76,0,0,1-5-5.18c-2,1.24-4.12,2.44-6.34,3.57Zm-5,12-1.2,8.48,6.27.89-3.88-1.72a52.82,52.82,0,0,0,3.66-7Zm13.34,1.88-7-1,5.07,2c-1.72,2.5-3.38,4.94-4.72,6.68l5.46.77Z" style="fill:#cacaca"/></g></svg>