<?xml version="1.0" encoding="utf-8"?>
<!-- Generator: Adobe Illustrator 22.1.0, SVG Export Plug-In . SVG Version: 6.00 Build 0)  -->
<svg version="1.1" id="layer_1" xmlns="http://www.w3.org/2000/svg" xmlns:xlink="http://www.w3.org/1999/xlink" x="0px" y="0px"
	 viewBox="0 0 201.9 38" style="enable-background:new 0 0 201.9 38;" xml:space="preserve">
<g>
	<g>
		<path style="fill:#FFFFFF;" d="M183.4,30v-1.6h0.8c0.4,0,0.8,0.1,1.1,0.4c0.4,0.3,0.6,0.8,0.6,1.4v7.4h-1.6v-7.4v-0.1l0,0v0l0,0
			c0,0,0,0-0.1,0c0,0-0.1,0-0.1,0H183.4z"/>
		<path style="fill:#FFFFFF;" d="M187.2,31.3v-0.4c0-0.7,0.2-1.3,0.7-1.8c0.5-0.5,1.1-0.7,1.8-0.7h9.7c0.7,0,1.3,0.2,1.8,0.7
			c0.5,0.5,0.7,1.1,0.7,1.8v0.4c0,0.7-0.2,1.2-0.7,1.7c0.4,0.5,0.7,1,0.7,1.7v0.5c0,0.7-0.2,1.3-0.7,1.7c-0.5,0.5-1.1,0.7-1.8,0.7
			h-9.7c-0.7,0-1.3-0.2-1.8-0.7c-0.5-0.5-0.7-1.1-0.7-1.7v-0.5c0-0.6,0.2-1.2,0.7-1.7C187.4,32.5,187.2,31.9,187.2,31.3z
			 M200.3,30.9c0-0.2-0.1-0.5-0.3-0.6c-0.2-0.2-0.4-0.3-0.6-0.3h-9.7c-0.2,0-0.5,0.1-0.6,0.3c-0.2,0.2-0.3,0.4-0.3,0.6v0.4
			c0,0.2,0.1,0.5,0.3,0.6c0.2,0.2,0.4,0.3,0.6,0.3h9.7c0.2,0,0.5-0.1,0.6-0.3c0.2-0.2,0.3-0.4,0.3-0.6V30.9z M200.3,34.6
			c0-0.2-0.1-0.5-0.3-0.6c-0.2-0.2-0.4-0.3-0.6-0.3h-9.7c-0.2,0-0.5,0.1-0.6,0.3c-0.2,0.2-0.3,0.4-0.3,0.6v0.5
			c0,0.2,0.1,0.5,0.3,0.6c0.2,0.2,0.4,0.3,0.6,0.3h9.7c0.2,0,0.5-0.1,0.6-0.3c0.2-0.2,0.3-0.4,0.3-0.6V34.6z"/>
	</g>
	<path style="fill:#FFFFFF;" d="M11.1,26.2L22.3,14v23.1h-2.4V20.3l-8.7,9.5l-8.7-9.5v16.8h-2.4V14L11.1,26.2z"/>
	<path style="fill:#FFFFFF;" d="M33.9,18.4c2.7,0,4.9,0.9,6.8,2.8c1.9,1.9,2.8,4.1,2.8,6.8c0,2.6-0.9,4.9-2.8,6.8
		c-1.9,1.9-4.1,2.8-6.8,2.8c-2.6,0-4.9-0.9-6.8-2.8c-1.9-1.9-2.8-4.2-2.8-6.8c0-2.7,0.9-4.9,2.8-6.8C29,19.4,31.3,18.4,33.9,18.4z
		 M33.9,20.9c-2,0-3.7,0.7-5.1,2.1c-1.4,1.4-2.1,3.1-2.1,5.1c0,2,0.7,3.7,2.1,5.1c1.4,1.4,3.1,2.1,5.1,2.1c2,0,3.7-0.7,5.1-2.1
		c1.4-1.4,2.1-3.1,2.1-5.1c0-2-0.7-3.7-2.1-5.1C37.6,21.6,35.9,20.9,33.9,20.9z"/>
	<path style="fill:#FFFFFF;" d="M82,31.4l2.1,1.2c-0.8,1.5-2,2.7-3.5,3.7c-1.5,0.9-3.2,1.4-5,1.4c-2.6,0-4.9-0.9-6.8-2.8
		c-1.9-1.9-2.8-4.2-2.8-6.8c0-2.7,0.9-4.9,2.8-6.8c1.9-1.9,4.2-2.8,6.8-2.8c1.7,0,3.2,0.4,4.7,1.2c1.5,0.8,2.6,1.9,3.4,3.2l-12.4,11
		c1.2,0.9,2.7,1.4,4.3,1.4c1.4,0,2.6-0.3,3.7-1C80.5,33.5,81.4,32.6,82,31.4z M69.7,32l10.6-9.4c-1.3-1.2-2.9-1.7-4.7-1.7
		c-2,0-3.7,0.7-5.1,2.1c-1.4,1.4-2.1,3.1-2.1,5.1C68.5,29.5,68.9,30.8,69.7,32z"/>
	<path style="fill:#FFFFFF;" d="M154.1,31.4l2.1,1.2c-0.8,1.5-2,2.7-3.5,3.7c-1.5,0.9-3.2,1.4-5,1.4c-2.6,0-4.9-0.9-6.8-2.8
		c-1.9-1.9-2.8-4.2-2.8-6.8c0-2.7,0.9-4.9,2.8-6.8c1.9-1.9,4.2-2.8,6.8-2.8c1.7,0,3.2,0.4,4.7,1.2c1.5,0.8,2.6,1.9,3.4,3.2l-12.4,11
		c1.2,0.9,2.7,1.4,4.3,1.4c1.4,0,2.6-0.3,3.7-1C152.6,33.5,153.4,32.6,154.1,31.4z M141.8,32l10.6-9.4c-1.3-1.2-2.9-1.7-4.7-1.7
		c-2,0-3.7,0.7-5.1,2.1c-1.4,1.4-2.1,3.1-2.1,5.1C140.6,29.5,141,30.8,141.8,32z"/>
	<polygon style="fill:#FFFFFF;" points="136.6,14 131.1,30.1 125.8,14.3 120.4,30.1 115,14 112.4,14 120.4,37.7 125.8,21.9 
		131.1,37.7 139.2,14 	"/>
	<path style="fill:#FFFFFF;" d="M96.1,18.9c-0.8-0.3-1.6-0.5-2.6-0.5c-2,0-3.8,0.7-5.2,2.1c-1.4,1.4-2.1,3.1-2.1,5.2v11.4h2.4V25.7
		c0-1.4,0.5-2.5,1.4-3.4c0.9-0.9,2.1-1.4,3.4-1.4c0.6,0,1.1,0.1,1.6,0.3L96.1,18.9z"/>
	<path style="fill:#FFFFFF;" d="M110.2,20.5c-1.4-1.4-3.1-2.1-5.2-2.1c0,0,0,0,0,0h0h0h0c0,0,0,0,0,0c-2,0-3.8,0.7-5.2,2.1
		c-1.4,1.4-2.1,3.1-2.1,5.2v11.4h2.4V25.7c0-1.4,0.5-2.5,1.4-3.4c0.9-0.9,2.1-1.4,3.4-1.4h0c1.3,0,2.5,0.5,3.4,1.4
		c0.9,0.9,1.4,2.1,1.4,3.4v11.4h2.4V25.7C112.3,23.6,111.6,21.9,110.2,20.5z"/>
	<path style="fill:#FFFFFF;" d="M158.3,13.9V28c0-0.6,0.1-1.3,0.2-1.9c-0.1,0.6-0.2,1.2-0.2,1.9c0,2.6,0.9,4.9,2.8,6.8
		c1.9,1.9,4.1,2.8,6.8,2.8c2.6,0,4.9-0.9,6.8-2.8c1.9-1.9,2.8-4.2,2.8-6.8c0-2.7-1-4.9-2.8-6.8c-1.9-1.9-4.2-2.8-6.8-2.8
		c-2.7,0-4.9,0.9-6.8,2.8c-0.1,0.1-0.1,0.2-0.2,0.3c0,0-0.1,0.1-0.1,0.1v-7.7H158.3z M160.8,28c0-2,0.7-3.7,2.1-5.1
		c1.4-1.4,3.1-2.1,5.1-2.1c2,0,3.7,0.7,5.1,2.1c1.4,1.4,2.1,3.1,2.1,5.1c0,2-0.7,3.7-2.1,5.1c-1.4,1.4-3.1,2.1-5.1,2.1
		c-2,0-3.7-0.7-5.1-2.1C161.5,31.7,160.8,30,160.8,28z M159,24.6c0-0.1,0-0.1,0.1-0.2C159,24.5,159,24.6,159,24.6z"/>
	<path style="fill:#FFFFFF;" d="M65.8,9.4C65.9,8.9,66,8.3,66,7.8v0C66,4.7,64.7,2,62.8,1C61,2,59.7,4.7,59.7,7.8v0
		c0,0.6,0,1.1,0.1,1.6c-0.8,0.7-1.3,1.7-1.3,2.8c0,0.7,0.2,1.3,0.5,1.9c0.4-0.6,1.1-1.1,2-1.3c0.2,0.3,0.4,0.6,0.6,0.8v8
		c0-0.1-0.1-0.1-0.1-0.1c-0.1-0.1-0.1-0.2-0.2-0.3c-1.9-1.9-4.1-2.8-6.8-2.8c-2.6,0-4.9,0.9-6.8,2.8c-1.9,1.9-2.8,4.1-2.8,6.8
		c0,2.6,0.9,4.9,2.8,6.8c1.9,1.9,4.2,2.8,6.8,2.8c2.7,0,4.9-0.9,6.8-2.8c1.9-1.9,2.8-4.2,2.8-6.8c0-0.3,0-0.5,0-0.5v-14
		c0.2-0.2,0.4-0.5,0.6-0.8c0.8,0.3,1.5,0.8,2,1.3c0.3-0.6,0.5-1.2,0.5-1.9C67.1,11.1,66.6,10.1,65.8,9.4z M57.9,25.2
		c-0.5-0.3-1-0.4-1.6-0.4c-1.6,0-3,1.3-3,3c0,0.3,0,0.6,0.1,0.9c-0.8,0.3-1.4,1-1.4,1.9c0,0,0,0.1,0,0.1c-1.4,0.2-2.4,1.4-2.4,2.8
		c0,0,0,0.1,0,0.1c-0.1-0.1-0.2-0.2-0.4-0.3c-1.4-1.4-2.1-3.1-2.1-5.1c0-2,0.7-3.7,2.1-5.1c1.4-1.4,3.1-2.1,5.1-2.1
		c2,0,3.7,0.7,5.1,2.1c0.2,0.2,0.4,0.5,0.6,0.7C59.2,23.7,58.3,24.3,57.9,25.2z M62.8,7.3c-1,0-1.8-0.8-1.8-1.8c0-1,0.8-1.8,1.8-1.8
		c1,0,1.8,0.8,1.8,1.8C64.6,6.5,63.8,7.3,62.8,7.3z"/>
	<polygon style="fill:#FFFFFF;" points="180.8,30.3 179.7,30.3 180.3,27.3 182,27.3 	"/>
</g>
</svg>
