<?xml version="1.0" encoding="utf-8"?>
<!-- Generator: Adobe Illustrator 22.1.0, SVG Export Plug-In . SVG Version: 6.00 Build 0)  -->
<svg version="1.1" id="圖層_1" xmlns="http://www.w3.org/2000/svg" xmlns:xlink="http://www.w3.org/1999/xlink" x="0px" y="0px"
	 viewBox="0 0 439.9 90.9" style="enable-background:new 0 0 439.9 90.9;" xml:space="preserve">
<style type="text/css">
	.st0{fill:#FFFFFF;}
</style>
<g>
	<path class="st0" d="M27.7,62.5l27.7-30.3v57.3h-6.1V47.9L27.7,71.4L6.1,47.9v41.6H0V32.2L27.7,62.5z"/>
	<path class="st0" d="M84.1,43.2c6.6,0,12.2,2.3,16.9,6.9c4.6,4.6,6.9,10.3,6.9,16.9c0,6.5-2.3,12.1-6.9,16.8s-10.3,7.1-16.9,7.1
		c-6.5,0-12.1-2.4-16.8-7.1c-4.7-4.7-7.1-10.3-7.1-16.8c0-6.6,2.4-12.2,7.1-16.9C72.1,45.5,77.6,43.2,84.1,43.2z M84.1,49.3
		c-5,0-9.2,1.7-12.6,5.1c-3.4,3.4-5.1,7.6-5.1,12.6s1.7,9.2,5.1,12.6s7.6,5.1,12.6,5.1c4.9,0,9.1-1.7,12.6-5.2
		c3.5-3.4,5.2-7.6,5.2-12.6c0-4.9-1.7-9.1-5.2-12.6C93.2,51,89,49.3,84.1,49.3z"/>
	<path class="st0" d="M203.3,75.3l5.3,3c-2,3.7-4.8,6.8-8.6,9.1c-3.7,2.3-7.9,3.5-12.3,3.5c-6.5,0-12.1-2.4-16.8-7.1
		c-4.7-4.7-7.1-10.3-7.1-16.8c0-6.6,2.4-12.2,7.1-16.9c4.7-4.6,10.3-6.9,16.8-6.9c4.1,0,8,1,11.6,3.1c3.6,2.1,6.4,4.7,8.4,7.8
		l-30.8,27.1c3.1,2.4,6.6,3.5,10.7,3.5c3.4,0,6.4-0.8,9.2-2.5C199.6,80.5,201.7,78.2,203.3,75.3z M172.8,76.9l26.3-23.4
		c-3.3-2.9-7.2-4.3-11.6-4.3c-5,0-9.2,1.7-12.6,5.1c-3.4,3.4-5.1,7.6-5.1,12.6C169.9,70.6,170.9,73.9,172.8,76.9z"/>
	<path class="st0" d="M381.7,75.3l5.3,3c-2,3.7-4.8,6.8-8.6,9.1c-3.7,2.3-7.9,3.5-12.3,3.5c-6.5,0-12.1-2.4-16.8-7.1
		s-7.1-10.3-7.1-16.8c0-6.6,2.4-12.2,7.1-16.9c4.7-4.6,10.3-6.9,16.8-6.9c4.1,0,8,1,11.6,3.1c3.6,2.1,6.4,4.7,8.4,7.8l-30.8,27.1
		c3.1,2.4,6.7,3.5,10.7,3.5c3.4,0,6.4-0.8,9.2-2.5S380.1,78.2,381.7,75.3z M351.2,76.9l26.3-23.4c-3.3-2.9-7.2-4.3-11.6-4.3
		c-5,0-9.2,1.7-12.6,5.1c-3.4,3.4-5.1,7.6-5.1,12.6C348.2,70.6,349.2,73.9,351.2,76.9z"/>
	<polygon class="st0" points="338.3,32.2 324.8,72.1 311.6,33 298.4,72.1 284.8,32.2 278.4,32.2 298.4,90.9 311.6,51.9 324.8,90.9 
		344.7,32.2 	"/>
	<path class="st0" d="M238,44.4c-2-0.7-4.1-1.2-6.4-1.2c-5.1,0-9.3,1.7-12.8,5.2s-5.2,7.7-5.2,12.8v28.3h6.1V61.2
		c0-3.5,1.2-6.3,3.5-8.5s5.1-3.4,8.4-3.4c1.4,0,2.7,0.2,3.9,0.7L238,44.4z"/>
	<path class="st0" d="M273,48.4c-3.5-3.4-7.7-5.2-12.8-5.2l0,0l0,0l0,0l0,0l0,0c-5.1,0-9.3,1.7-12.8,5.2s-5.2,7.7-5.2,12.8v28.3h6.1
		V61.2c0-3.5,1.2-6.3,3.5-8.5s5.1-3.4,8.4-3.4l0,0c3.3,0,6.1,1.1,8.4,3.4c2.3,2.2,3.5,5.1,3.5,8.5v28.3h6.1V61.2
		C278.2,56.1,276.4,51.8,273,48.4z"/>
	<path class="st0" d="M392.2,32.1V67c0-1.6,0.1-3.1,0.4-4.6c-0.3,1.5-0.4,3-0.4,4.6c0,6.5,2.3,12.1,6.9,16.8
		c4.6,4.7,10.3,7.1,16.9,7.1c6.5,0,12.1-2.4,16.8-7.1s7.1-10.3,7.1-16.8c0-6.6-2.4-12.2-7.1-16.9c-4.7-4.6-10.3-6.9-16.8-6.9
		c-6.6,0-12.2,2.3-16.9,6.9c-0.2,0.2-0.3,0.4-0.5,0.6c-0.1,0.1-0.2,0.2-0.4,0.4v-19H392.2z M398.3,67c0-4.9,1.7-9.1,5.2-12.6
		s7.6-5.2,12.6-5.2s9.2,1.7,12.6,5.1c3.4,3.4,5.1,7.6,5.1,12.6s-1.7,9.2-5.1,12.6c-3.4,3.4-7.6,5.1-12.6,5.1
		c-4.9,0-9.1-1.7-12.6-5.2C400,76.1,398.3,71.9,398.3,67z M393.7,58.6c0.1-0.1,0.1-0.3,0.1-0.4C393.8,58.3,393.8,58.5,393.7,58.6z"
		/>
	<path class="st0" d="M163.1,20.8c0.2-1.3,0.3-2.5,0.3-3.9c0-7.7-3.2-14.3-7.7-16.9c-4.5,2.6-7.7,9.2-7.7,16.9c0,1.4,0.1,2.7,0.3,4
		c-2,1.8-3.2,4.2-3.2,6.9c0,1.7,0.5,3.3,1.3,4.7c1.1-1.4,2.8-2.6,4.8-3.3c0.5,0.8,1,1.5,1.6,2.1v19.8c-0.1-0.1-0.2-0.2-0.3-0.4
		c-0.2-0.2-0.3-0.4-0.5-0.6c-4.6-4.6-10.3-6.9-16.9-6.9c-6.5,0-12.1,2.3-16.8,6.9c-4.7,4.6-7.1,10.3-7.1,16.9
		c0,6.5,2.4,12.1,7.1,16.8c4.7,4.7,10.3,7.1,16.8,7.1c6.6,0,12.2-2.4,16.9-7.1c4.6-4.7,6.9-10.3,6.9-16.8c0-0.8,0-1.2,0-1.2V30.9
		c0.5-0.6,0.9-1.2,1.3-1.8c2.1,0.7,3.8,1.9,4.9,3.4c0.8-1.4,1.3-3,1.3-4.7C166.4,25,165.1,22.5,163.1,20.8z M143.6,60
		c-1.1-0.7-2.4-1.1-3.8-1.1c-4.1,0-7.4,3.3-7.4,7.4c0,0.7,0.1,1.5,0.3,2.2c-2,0.6-3.4,2.5-3.4,4.6c0,0.1,0,0.1,0,0.2
		c-3.5,0.4-6.1,3.4-6.1,6.9c0,0.1,0,0.2,0,0.2c-0.3-0.2-0.5-0.5-0.8-0.7c-3.4-3.4-5.1-7.6-5.1-12.6s1.7-9.2,5.1-12.6
		s7.6-5.1,12.6-5.1c4.9,0,9.1,1.7,12.6,5.2c0.5,0.5,1,1.1,1.4,1.6C146.6,56.4,144.6,57.9,143.6,60z M155.7,15.7
		c-2.4,0-4.4-2-4.4-4.4s2-4.4,4.4-4.4s4.4,2,4.4,4.4C160.1,13.7,158.1,15.7,155.7,15.7z"/>
</g>
</svg>
