<?xml version="1.0" encoding="utf-8"?>
<!-- Generator: Adobe Illustrator 22.1.0, SVG Export Plug-In . SVG Version: 6.00 Build 0)  -->
<svg version="1.0" id="圖層_1" xmlns="http://www.w3.org/2000/svg" xmlns:xlink="http://www.w3.org/1999/xlink" x="0px" y="0px"
	 viewBox="0 0 939.1 960.3" enable-background="new 0 0 939.1 960.3" xml:space="preserve">
<title>ta</title>
<g>
	<g id="_0-ta-bg">
		<path fill="#372A68" d="M86.6,462.8c0-81,16.1-142.3,57.5-205.3c11.5-17.6,39.3-31.2,53.4-46.7c13-14.3,15.1-37.7,30-50
			c12-9.9,21.4-24.5,34.6-33c21.7-14,34.4-20.8,58.7-30.4c7.8-3.1,43.4-5,51.5-7.6c25.2-8.1,34.3-20,61.4-23
			c60-6.7,120.8,0.3,177.7,20.2c10.8,3.8,21.5,8.1,31.8,12.8c15.2,6.9,30,21.1,44.1,29.7c14.8,9.1,29,12.8,42.4,23.8
			c9.2,7.5,17.9,24.6,26.4,32.9c19.3,18.7,37,30.1,52.3,52.4c14.4,21.1,23,46,33.3,69.8c8.3,19.4,19.1,37.3,24.3,58.1
			c4,15.8,1.4,31,3.4,47.5c2,16.1,12.2,42.2,12.2,58.9c0,12.2-10,18.1-11.1,30c-2.9,32.5-18.6,72.4-28.9,102.2
			c-9.9,28.8-17.5,41.3-33.3,66.7c-17.6,28.2-33.9,42.6-57.8,65.5c-9,8.7-42.4,38.8-52.2,46.7c-54.2,43.1-69.3,49.8-141.1,60
			c-3.6,0.5-51.9,15.1-55.5,15.6c-15.1,1.7-40.7-11.4-56.2-11.4c-121.8,0-196.2-41-260.3-123.4c-9.8-12.6-6.1-22.8-10.7-39.5
			c-6-22.3-24.4-38.4-29.1-47c-12.1-22-40-26.5-47.8-50.8c-4.3-13.2,3.9-29.6,1-43.4C93.1,517.4,86.6,491.2,86.6,462.8z"/>
		<path fill="#292254" d="M137.6,462.1c-0.1-98.3,41.9-192,115.5-257.3c7.6-6.8,15.5-13.2,23.7-19.3c13.8-10.3,28.5-19.5,43.7-27.6
			c28-14.9,47.7-31.5,79.6-38.2c10.3-2.2,31.3,1.6,41.9,0.4c13.1-1.5,31.2,5.2,44.7,5.2c21.7,0,47.2-9.4,67.8-5.5
			c29,5.4,51.8,26.7,77.8,38.9c24.7,11.6,52.2,15.4,73.3,32.2c25.1,20.1,33.6,44.9,52.2,71.1c12.8,18,30.8,31.9,40,52.2
			c5.7,12.6,10.2,27,14,41.9c2,7.8-1.1,19.1,0.5,27c1.7,8.6,8,13.7,9.4,21.7c3.1,18.7-1.6,38.7-1.6,58.2c0,23.5,4,45.6-0.4,67.8
			c-7.9,39-22,73.6-41.8,106.6c-8.6,14.2-24.6,26.9-34.4,40c-11,14.8-23.2,28.7-36.3,41.7c-6.7,6.6-18.6,6.8-25.9,12.8
			c-9.8,7.9-15.2,21.2-26,27.8c-6.8,4.2-23.3,14.1-30.6,17.7c-45.8,22.6-81,24.4-135.5,24.4c-9,0-24.9,4.4-33.7,3.7
			c-17.8-1.4-35.5-4.1-52.9-8.2c-9.1-2.2-14.6-7.1-23.4-9.9c-7.3-2.4-18-2.6-25.2-5.5c-13.7-5.5-27.1-11.9-40-19.1
			c-12.3-6.9-24.6-21.5-36-29.8c-21.4-15.7-40.4-26.8-57.6-47C166.8,623.5,137.5,544.1,137.6,462.1L137.6,462.1z"/>
		<circle fill="#15143A" cx="480.1" cy="462.1" r="288.8"/>
		<circle cx="480.1" cy="462.1" r="177.7"/>
	</g>
	<g id="_1-item">
		<path fill="#009695" d="M560.5,837.5c2.9,18.9,20.6,31.8,39.4,28.9c18.6-2.9,31.5-20.2,28.9-38.9c0,0,0-0.1-0.1-0.1
			c-0.2-0.2-0.5-0.4-0.7-0.6c-6-4.8-19.6-7-34.8-4.8c-14.9,2.1-27.1,7.7-31.8,13.9C561,836.4,560.7,836.9,560.5,837.5L560.5,837.5
			L560.5,837.5L560.5,837.5z"/>
		<path fill="#3ABA77" d="M599.5,866.7h0.2c18.9-2.8,31.9-20.3,29.1-39.2c0,0,0,0,0-0.1c0,0,0-0.1-0.1-0.1c-0.2-0.2-0.5-0.4-0.7-0.6
			c-6-4.8-19.6-7-34.8-4.8h-0.1L599.5,866.7z"/>
		<path fill="#FFFFFF" d="M599.4,853.1c-0.7-4.1,2.1-8,6.2-8.7c4.1-0.7,8,2.1,8.7,6.2c0.7,4.1-2,8-6.2,8.7
			C604,860,600.1,857.3,599.4,853.1L599.4,853.1z"/>
		<path fill="#5D5189" d="M277.6,118.5c0,0,34-15.6,34.8-15.6s7.1-4.7,17.7-5.6s35.2-6.4,38.1-6.4s11.5-1.4,11.5-1.4l-23-16.4
			c0,0-43.4-5-45.2-8.9S292,52.7,292,52.7l-21.6,4.4l-9.7,19.5c0,0-7.4,18.6-5,23s16.2,24.2,16.2,24.2L277.6,118.5z"/>
		<path opacity="0.3" enable-background="new    " d="M277.6,118.5c0,0,34-15.6,34.8-15.6s7.1-4.7,17.7-5.6s35.2-6.4,38.1-6.4
			s11.5-1.4,11.5-1.4l-11.4-8.1l-23-0.5c-4.9,4.2-10.8,7.1-17.1,8.5c-10.5,2.2-22.2,10.5-34.9,12.2c-6.8,1-19,2.1-19,2.1
			S256,99.9,256,100c1.1,1.9,3.6,5.8,6.4,9.9c4.5,6.7,9.6,14,9.6,14L277.6,118.5z"/>
		<path fill="#FFFFFF" d="M724.6,178.3c0,0.1-0.1,0.2-0.1,0.3c-0.1,0.1-0.2,0.1-0.2,0.2c-3.3,2.3-17.7-4.3-33.1-15.2
			c-16.2-11.5-27.4-23.4-25.1-26.7s17.3,3.4,33.5,14.8c15.1,10.7,25.6,21.7,25.1,25.8C724.5,177.8,724.7,178.1,724.6,178.3z"/>
		<path fill="#87A08D" d="M567.4,75.9c0,0,72.7,12,106.4-50.6l1.1-2c3.7-7.1,12.4-9.9,19.5-6.2s9.9,12.4,6.2,19.5
			c-0.1,0.1-0.1,0.3-0.2,0.4l-1,2c-33.8,62.6,21.7,119,21.7,119s-53.8-35.3-78.3-48.2S567.4,75.9,567.4,75.9z"/>
		<path fill="#1E9B32" d="M684.7,26.9l-3.8,7.2c-0.3,0.6-1,0.8-1.6,0.5l-0.2-0.1c-0.6-0.3-0.8-1-0.5-1.6l3.8-7.2
			c0.3-0.6,1-0.8,1.6-0.5l0.2,0.1C684.8,25.6,685,26.3,684.7,26.9z"/>
		<path fill="#1E9B32" d="M684.6,33l-7.2-3.8c-0.6-0.3-0.8-1-0.5-1.6l0.1-0.2c0.3-0.6,1-0.8,1.6-0.5l7.2,3.8c0.6,0.3,0.8,1,0.5,1.6
			l-0.1,0.2C685.9,33.1,685.1,33.3,684.6,33z"/>
		<path fill="#1E9B32" d="M685.4,56.3l-3.8,7.2c-0.3,0.6-1,0.8-1.6,0.5l-0.2-0.1c-0.6-0.3-0.8-1-0.5-1.6l3.8-7.2
			c0.3-0.6,1-0.8,1.6-0.5l0.2,0.1C685.5,55,685.7,55.7,685.4,56.3z"/>
		<path fill="#1E9B32" d="M685.3,62.3l-7.2-3.8c-0.6-0.3-0.8-1-0.5-1.6l0.1-0.2c0.3-0.6,1-0.8,1.6-0.5l7.2,3.8
			c0.6,0.3,0.8,1,0.5,1.6l-0.1,0.2C686.6,62.4,685.9,62.6,685.3,62.3z"/>
		<path fill="#1E9B32" d="M662.5,56.7l-3.8,7.2c-0.3,0.6-1,0.8-1.6,0.5l-0.2-0.1c-0.6-0.3-0.8-1-0.5-1.6l3.8-7.2
			c0.3-0.6,1-0.8,1.6-0.5l0.2,0.1C662.6,55.4,662.9,56.1,662.5,56.7z"/>
		<path fill="#1E9B32" d="M662.4,62.7l-7.2-3.8c-0.6-0.3-0.8-1-0.5-1.6l0.1-0.2c0.3-0.6,1-0.8,1.6-0.5l7.2,3.8
			c0.6,0.3,0.8,1,0.5,1.6l-0.1,0.2C663.7,62.8,663,63,662.4,62.7z"/>
		<path fill="#1E9B32" d="M661.9,81.5l-3.8,7.2c-0.3,0.6-1,0.8-1.6,0.5l-0.2-0.1c-0.6-0.3-0.8-1-0.5-1.6l3.8-7.2
			c0.3-0.6,1-0.8,1.6-0.5l0.2,0.1C662,80.2,662.2,80.9,661.9,81.5z"/>
		<path fill="#1E9B32" d="M661.8,87.6l-7.2-3.8c-0.6-0.3-0.8-1-0.5-1.6l0.1-0.2c0.3-0.6,1-0.8,1.6-0.5l7.2,3.8
			c0.6,0.3,0.8,1,0.5,1.6l-0.1,0.2C663.1,87.7,662.3,87.9,661.8,87.6z"/>
		<path fill="#1E9B32" d="M621.6,81.4l-3.8,7.2c-0.3,0.6-1,0.8-1.6,0.5L616,89c-0.6-0.3-0.8-1-0.5-1.6l3.8-7.2
			c0.3-0.6,1-0.8,1.6-0.5l0.2,0.1C621.7,80.1,622,80.9,621.6,81.4z"/>
		<path fill="#1E9B32" d="M621.5,87.5l-7.2-3.8c-0.6-0.3-0.8-1-0.5-1.6l0.1-0.2c0.3-0.6,1-0.8,1.6-0.5l7.2,3.8
			c0.6,0.3,0.8,1,0.5,1.6l-0.1,0.2C622.8,87.6,622.1,87.8,621.5,87.5z"/>
		<path fill="#1E9B32" d="M683.9,113.4l-3.8,7.2c-0.3,0.6-1,0.8-1.6,0.5l-0.2-0.1c-0.6-0.3-0.8-1-0.5-1.6l3.8-7.2
			c0.3-0.6,1-0.8,1.6-0.5l0.2,0.1C684,112.1,684.2,112.8,683.9,113.4z"/>
		<path fill="#1E9B32" d="M683.8,119.4l-7.2-3.8c-0.6-0.3-0.8-1-0.5-1.6l0.1-0.2c0.3-0.6,1-0.8,1.6-0.5l7.2,3.8
			c0.6,0.3,0.8,1,0.5,1.6l-0.1,0.2C685.1,119.5,684.4,119.8,683.8,119.4z"/>
		<path fill="#5D5189" d="M380.3,843.6l-43-11.7c-0.1,0.2-9.3,12.9-5.5,19.3s3.7,23.1,3.7,23.1s8.8,16.1,11.1,17.1
			s37.2,6.5,37.2,6.5l14.5,13.2l8.2,4.5l22.3,4.2l8.4-4.9l14-9.8l6.7-15.3l7.3-39.7L380.3,843.6z"/>
		<path opacity="0.3" enable-background="new    " d="M380.3,843.6l-43-11.7c-0.5,1.2-1.2,2.4-2,3.5c-0.9,1.2-1.6,2.4-2.1,3.8
			l8.6,0.9l11.2,14.8l22.1,5.3l25.3-5.2l14.7,6.8l21.9,13.6l22.7,4.1l5.4-29.3L380.3,843.6z"/>
		<path fill="#5D5189" d="M515.3,67.5c0,0,7.5-15.1,9.9-13.6s4.5-7.9,8.1-10.1s22.6,5.4,22.6,5.4l9.1,3.5l5.5,9.2l1.9,8.5l-2,6.7
			L515.3,67.5z"/>
		<path fill="#5D5189" d="M119.8,305.5c0,0-11.6-12.3-9.3-14s-5.8-7-6.6-11.2s12.9-19.3,12.9-19.3l6.5-7.3l10.5-1.9l8.6,1.2l5.6,4.2
			L119.8,305.5z"/>
		<path fill="#C5C5C5" d="M510.1,77.6l-19-1.1c-1.8-0.1-3.3,1.2-3.4,3l0,0l22.1,1.2L510.1,77.6z"/>
		<path fill="#A3A3A3" d="M510,80.8l-22.1-1.2c-0.1,1.8,1.2,3.3,3,3.4l0,0l19,1.1L510,80.8z"/>
		<path fill="#C5C5C5" d="M509.8,84l19,1.1c1.8,0.1,3.3-1.2,3.4-3L510,80.8L509.8,84z"/>
		<path fill="#FFFFFF" d="M510,80.8l22.1,1.3c0.1-1.8-1.2-3.3-3-3.4l-19-1.1L510,80.8z"/>
		<path fill="#EF4F4D" d="M524.7,70.7c0.4-7.8-5.5-14.4-13.3-14.9l0,0l-0.8,14.1L524.7,70.7z"/>
		<path fill="#A73935" d="M511.4,55.9c-7.8-0.4-14.4,5.5-14.9,13.3l0,0l14.1,0.8L511.4,55.9z"/>
		<polygon fill="#C5C5C5" points="478,48.9 476.8,49.3 467.2,22.6 474.7,16.1 475.5,17.1 468.7,23 		"/>
		
			<rect x="479.7" y="16.1" transform="matrix(0.7541 -0.6567 0.6567 0.7541 104.5406 320.3895)" fill="#A73935" width="1" height="8.9"/>
		<path fill="#A73935" d="M492.2,33.6l-16.9,14.8c-1.2,1.1-1.4,2.9-0.3,4.1l0,0l19.2-16.7L492.2,33.6z"/>
		<path fill="#7F2D2D" d="M494.2,35.8L475,52.5c1.1,1.2,2.9,1.3,4.1,0.3l0,0l17-14.8L494.2,35.8z"/>
		<path fill="#A73935" d="M474.1,12.7c-1.5,1.3-1.6,3.5-0.3,5s3.5,1.6,5,0.3l0,0L474.1,12.7z"/>
		<path fill="#C5C5C5" d="M499.7,59.3c4.1,4.7,11.2,5.2,15.9,1.1l0,0l-7.4-8.5L499.7,59.3z"/>
		<path fill="#C5C5C5" d="M481.7,21.5c-2.3,2-2.6,5.6-0.5,7.9l0,0l4.2-3.7L481.7,21.5z"/>
		<polygon fill="#C5C5C5" points="495.4,54.3 503.8,46.9 496.1,38 479.1,52.8 		"/>
		<polygon fill="#C5C5C5" points="483,31.6 487.3,27.9 492.2,33.6 482.6,41.9 		"/>
		
			<rect x="495" y="50.2" transform="matrix(0.7539 -0.657 0.657 0.7539 89.1376 341.6869)" fill="#A73935" width="11.2" height="3.3"/>
		
			<rect x="497.2" y="52.6" transform="matrix(0.7539 -0.657 0.657 0.7539 88.0811 343.6801)" fill="#7F2D2D" width="11.2" height="3.3"/>
		
			<rect x="481.4" y="27.3" transform="matrix(0.754 -0.6568 0.6568 0.754 100.2076 325.0918)" fill="#A73935" width="5.6" height="2.8"/>
		<polygon fill="#FFFFFF" points="509.3,21.6 509.9,20.5 484.8,7.3 477.3,13.8 478.2,14.8 485,8.8 		"/>
		
			<rect x="480.5" y="15.4" transform="matrix(0.7536 -0.6574 0.6574 0.7536 105.4888 321.0814)" fill="#EF4F4D" width="1" height="8.9"/>
		<path fill="#EF4F4D" d="M492.2,33.6l17-14.8c1.2-1.1,3.1-0.9,4.1,0.3l0,0l-19.2,16.7L492.2,33.6z"/>
		<path fill="#A73935" d="M494.2,35.8l19.2-16.7c1.1,1.2,0.9,3.1-0.3,4.1l0,0L496,38L494.2,35.8z"/>
		<path fill="#EF4F4D" d="M474.1,12.7c1.5-1.3,3.7-1.1,5,0.3s1.1,3.7-0.3,5L474.1,12.7z"/>
		<path fill="#FFFFFF" d="M516.6,44.5c4.1,4.7,3.6,11.8-1.1,15.9l-7.4-8.5L516.6,44.5z"/>
		<path fill="#FFFFFF" d="M481.7,21.5c2.3-2,5.9-1.8,7.9,0.5l0,0l-4.2,3.7L481.7,21.5z"/>
		<polygon fill="#FFFFFF" points="512.3,39.5 503.8,46.9 496.1,38 513,23.3 		"/>
		<polygon fill="#FFFFFF" points="491.5,24.2 487.3,27.9 492.2,33.6 501.8,25.2 		"/>
		
			<rect x="503.5" y="42.8" transform="matrix(0.7539 -0.657 0.657 0.7539 96.0857 345.4321)" fill="#EF4F4D" width="11.2" height="3.3"/>
		
			<rect x="505.7" y="45.3" transform="matrix(0.7539 -0.657 0.657 0.7539 94.9997 347.4857)" fill="#A73935" width="11.2" height="3.3"/>
		
			<rect x="485.6" y="23.6" transform="matrix(0.7539 -0.657 0.657 0.7539 103.7737 327.0493)" fill="#EF4F4D" width="5.6" height="2.8"/>
		
			<rect x="499.5" y="66.3" transform="matrix(5.669232e-02 -0.9984 0.9984 5.669232e-02 401.5933 571.7676)" fill="#7F2D2D" width="7.7" height="14.1"/>
		
			<rect x="513.5" y="67.2" transform="matrix(5.669232e-02 -0.9984 0.9984 5.669232e-02 413.908 586.5387)" fill="#A73935" width="7.7" height="14.1"/>
		<path fill="#FFFFFF" d="M500.2,74.7c0,0.7-0.6,1.2-1.3,1.1c-0.7,0-1.2-0.6-1.1-1.3c0-0.7,0.6-1.2,1.3-1.1l0,0
			C499.7,73.5,500.2,74.1,500.2,74.7L500.2,74.7z"/>
		<path fill="#FFFFFF" d="M504.4,75c0,0.7-0.5,1.2-1.2,1.2S502,75.7,502,75c0-0.1,0-0.1,0-0.2c0.1-0.7,0.7-1.1,1.3-1
			C504,73.9,504.4,74.4,504.4,75z"/>
		<path fill="#FFFFFF" d="M508.7,75.2c0,0.7-0.6,1.2-1.3,1.1c-0.7,0-1.2-0.6-1.1-1.3s0.6-1.2,1.3-1.1l0,0
			C508.2,74,508.7,74.6,508.7,75.2z"/>
		<path fill="#FFFFFF" d="M514.3,75.6c0,0.7-0.6,1.2-1.2,1.1l0,0c-0.7,0-1.2-0.6-1.1-1.3c0-0.7,0.6-1.2,1.3-1.1
			S514.3,74.9,514.3,75.6L514.3,75.6z"/>
		<path fill="#FFFFFF" d="M518.5,75.8c0,0.7-0.5,1.2-1.2,1.2s-1.2-0.5-1.2-1.2c0-0.1,0-0.1,0-0.2c0.1-0.7,0.7-1.1,1.3-1
			C518,74.7,518.5,75.2,518.5,75.8z"/>
		<path fill="#FFFFFF" d="M522.7,76c0,0.7-0.6,1.2-1.3,1.1c-0.7,0-1.2-0.6-1.1-1.3s0.6-1.2,1.3-1.1C522.3,74.8,522.8,75.4,522.7,76z
			"/>
		<path fill="#FFFFFF" d="M477.9,14.5c0,0.9-0.8,1.5-1.7,1.5c-0.9,0-1.6-0.7-1.6-1.6c0-0.9,0.7-1.6,1.6-1.6c0.1,0,0.1,0,0.2,0
			C477.3,12.8,477.9,13.6,477.9,14.5L477.9,14.5z"/>
		<path opacity="0.2" fill="#FFFFFF" enable-background="new    " d="M478.6,6.1c-5.8,0-10.8,4.1-12.1,9.8c0,0.6,0.5,1.1,1.1,1.1
			c0.5,0,1-0.4,1.1-0.9c1.1-4.5,5.1-7.8,9.7-7.8c0.6,0,1.1-0.4,1.2-0.9C479.6,6.7,479.2,6.1,478.6,6.1L478.6,6.1L478.6,6.1z"/>
		<path opacity="0.2" fill="#FFFFFF" enable-background="new    " d="M478.8,2c-7.9-0.1-14.7,5.4-16.2,13.1c-0.1,0.6,0.4,1.1,1,1.2
			l0,0c0.6,0,1.1-0.4,1.2-1c1.4-6.5,7.2-11.2,13.8-11.2c0.6,0,1.1-0.4,1.2-1C479.9,2.6,479.5,2,478.8,2C478.9,2,478.9,2,478.8,2
			L478.8,2z"/>
		<path fill="#EF4F4D" d="M37.8,348c0,0.4-0.2,0.8-0.6,1c-0.6,0.4-1.4,0.3-1.8-0.3l0,0l-0.1-0.1c-2.2-3.1-4.4-6.3-11.7-6.6
			c-0.7,0-1.3-0.5-1.4-1.2c0-0.7,0.5-1.3,1.2-1.4c0.1,0,0.1,0,0.2,0c8.6,0.3,11.4,4.4,13.7,7.7l0.1,0.1
			C37.8,347.4,37.8,347.7,37.8,348z"/>
		<polygon fill="#C5C5C5" points="15.2,328.7 13.2,350.2 44.4,336 45,315.6 		"/>
		<polygon fill="#AAAAAA" points="14.7,349.5 44.4,336 44.7,325.5 15.8,338.3 		"/>
		
			<rect x="17.3" y="383.7" transform="matrix(3.019100e-02 -0.9995 0.9995 3.019100e-02 -364.4761 393.1536)" fill="#2A2761" width="6.2" height="1.4"/>
		
			<rect x="13.3" y="363" transform="matrix(3.019100e-02 -0.9995 0.9995 3.019100e-02 -347.5165 377.7646)" fill="#3A3A77" width="15.3" height="9.9"/>
		<path fill="#EF4F4D" d="M45.1,314l-0.7,23.1c0,1.3,1,2.4,2.3,2.4l0,0l0.9-27.9C46.2,311.6,45.1,312.7,45.1,314L45.1,314z"/>
		<path fill="#A73935" d="M46.6,339.5c1.3,0,2.4-1,2.4-2.3l0.7-23.1c0-1.3-1-2.4-2.3-2.4L46.6,339.5z"/>
		<path fill="#EF4F4D" d="M14.7,378.4l11.7,0.4c1.7,0.1,3-1.2,3.1-2.9l0,0l-17.7-0.5C11.8,377,13.1,378.4,14.7,378.4L14.7,378.4z"/>
		<path fill="#A73935" d="M29.5,375.9c0.1-1.7-1.2-3.1-2.9-3.1c0,0,0,0-0.1,0l-11.7-0.3c-1.7-0.1-3.1,1.2-3.1,2.9c0,0,0,0,0,0.1
			L29.5,375.9z"/>
		<path fill="#EF4F4D" d="M15,369.5l11.7,0.4c1.7,0.1,3-1.2,3.1-2.9l0,0l-17.7-0.5C12,368.1,13.3,369.5,15,369.5L15,369.5z"/>
		<path fill="#A73935" d="M29.8,367c0.1-1.7-1.2-3.1-2.9-3.1c0,0,0,0-0.1,0l-11.7-0.3c-1.7-0.1-3.1,1.2-3.1,2.9c0,0,0,0,0,0.1
			L29.8,367z"/>
		<path fill="#57A6FF" d="M15.6,378.5c-0.1,2.7,2.1,5,4.8,5.1l0.1-5L15.6,378.5z"/>
		<path fill="#3469D3" d="M20.4,383.6c2.7,0.1,5-2.1,5.1-4.8l-5-0.2L20.4,383.6z"/>
		<path fill="#57A6FF" d="M12.3,357l0.8-25.6c0-1.6,1.4-2.9,3-2.9l11.9,0.4c1.6,0,2.9,1.4,2.9,3l-0.8,25.6c0,1.6-1.4,2.9-3,2.9
			L15.2,360C13.6,360,12.3,358.7,12.3,357z"/>
		<path fill="#FFFFFF" d="M13.1,331.4l-0.4,12.8l17.8,0.5l0.4-12.8c0-1.6-1.3-2.9-2.9-3l-11.9-0.4C14.6,328.6,13.2,329.8,13.1,331.4
			z"/>
		<g opacity="0.3">
			<path d="M17.1,331.6c0.8,0,1.5,0.7,1.4,1.5l0,0l-0.2,7c0,0.8-0.7,1.5-1.5,1.4l0,0l0,0c-0.8,0-1.5-0.7-1.4-1.5l0.2-7
				C15.6,332.2,16.3,331.6,17.1,331.6L17.1,331.6L17.1,331.6z"/>
			<path d="M22,331.7c0.8,0,1.4,0.7,1.4,1.5l0,0l-0.2,7c0,0.8-0.7,1.5-1.5,1.5l0,0l0,0c-0.8,0-1.4-0.7-1.4-1.5l0,0l0.2-7
				C20.5,332.4,21.2,331.7,22,331.7L22,331.7z"/>
			<path d="M27,331.9c0.8,0,1.5,0.7,1.4,1.5l0,0l-0.2,7c0,0.8-0.7,1.5-1.5,1.4l0,0c-0.8,0-1.4-0.7-1.4-1.5l0,0l0.2-7
				C25.5,332.5,26.2,331.9,27,331.9L27,331.9z"/>
		</g>
		<path fill="#FEEBB8" d="M16.4,353.3c0.8,0,1.5,0.7,1.4,1.5c0,0.8-0.7,1.5-1.5,1.4c-0.8,0-1.5-0.7-1.4-1.5l0,0
			C14.9,353.9,15.6,353.3,16.4,353.3z"/>
		<path fill="#FEEBB8" d="M21.4,353.5c0.8,0.1,1.4,0.8,1.3,1.6c-0.1,0.7-0.7,1.3-1.4,1.3c-0.8-0.1-1.4-0.8-1.3-1.6
			C20.1,354.1,20.6,353.5,21.4,353.5z"/>
		<path fill="#FEEBB8" d="M26.3,353.6c0.8,0,1.5,0.7,1.5,1.5s-0.7,1.5-1.5,1.5s-1.5-0.7-1.5-1.5S25.5,353.6,26.3,353.6L26.3,353.6z"
			/>
		
			<rect x="-7.9" y="341.5" transform="matrix(3.019100e-02 -0.9995 0.9995 3.019100e-02 -338.5967 339.0668)" fill="#EF4F4D" width="26.6" height="5.1"/>
		<path fill="#57A6FF" d="M8,359.8c0.7,0,1.2-0.5,1.2-1.1l0,0l0,0c0-0.7-0.5-1.2-1.2-1.2l-5.9-0.2c-0.7,0-1.2,0.5-1.2,1.2l0,0
			c0,0.7,0.5,1.2,1.1,1.2l0,0L8,359.8z"/>
		<path fill="#3469D3" d="M8.8,330.8c0.7,0,1.2-0.5,1.2-1.2l0,0c0-0.7-0.5-1.2-1.2-1.2L3,328.3c-0.7,0-1.2,0.5-1.2,1.2l0,0
			c0,0.7,0.5,1.2,1.2,1.2L8.8,330.8z"/>
		
			<rect x="-6.5" y="342.7" transform="matrix(3.019100e-02 -0.9995 0.9995 3.019100e-02 -337.256 340.4972)" fill="#A73935" width="26.6" height="2.6"/>
		
			<rect x="9.2" y="350.5" transform="matrix(3.019100e-02 -0.9995 0.9995 3.019100e-02 -342.9051 352.3206)" fill="#A73935" width="1.9" height="4.7"/>
		
			<rect x="9.7" y="333.1" transform="matrix(3.019100e-02 -0.9995 0.9995 3.019100e-02 -324.9778 335.9939)" fill="#A73935" width="1.9" height="4.7"/>
		<path fill="#EF4F4D" d="M20.4,386.2c1.5,0,2.7,1.3,2.6,2.8c0,1.5-1.3,2.7-2.8,2.6c-1.5,0-2.7-1.3-2.6-2.8
			C17.6,387.3,18.9,386.1,20.4,386.2z"/>
		<circle fill="#FFFFFF" cx="19.5" cy="389.6" r="0.9"/>
		
			<rect x="757.5" y="819.4" transform="matrix(0.7889 -0.6146 0.6146 0.7889 -347.2271 640.1334)" fill="#FBFF48" width="1.1" height="12.1"/>
		
			<rect x="741" y="832.1" transform="matrix(0.7889 -0.6146 0.6146 0.7889 -358.515 632.7179)" fill="#D3CE29" width="1.1" height="12.1"/>
		<path fill="#FBFF48" d="M742.9,810l9.3-7.3c0.4-0.3,0.9-0.2,1.2,0.1l5.4,6.9c0.3,0.4,0.2,0.9-0.1,1.2l-9.3,7.3
			c-0.4,0.3-0.9,0.2-1.2-0.1l-5.4-6.9C742.5,810.8,742.6,810.3,742.9,810z"/>
		<path fill="#D3CE29" d="M717.1,832.7l9.4-7.2c0.4-0.3,0.9-0.2,1.2,0.1l5.4,7c0.3,0.4,0.2,0.9-0.1,1.2l-9.4,7.2
			c-0.4,0.3-0.9,0.2-1.2-0.1l-5.4-7C716.7,833.5,716.8,832.9,717.1,832.7z"/>
		<path fill="#FBFF48" d="M726.5,774l-8.1-10.4c-1.5-1.9-4.3-2.3-6.2-0.8l0,0l10.8,13.8L726.5,774z"/>
		<path fill="#D3CE29" d="M723,776.7l-10.8-13.9c-1.9,1.5-2.3,4.3-0.8,6.2l0,0l8.1,10.4L723,776.7z"/>
		<path fill="#FBFF48" d="M706.5,789.6l-8.1-10.4c-1.5-1.9-4.3-2.3-6.2-0.8l0,0l10.8,13.9L706.5,789.6z"/>
		<path fill="#D3CE29" d="M703,792.3l-10.8-13.9c-1.9,1.5-2.3,4.3-0.8,6.2l8.1,10.4L703,792.3z"/>
		<path fill="#FBFF48" d="M716.5,781.8l-8.1-10.4c-1.5-1.9-4.3-2.3-6.2-0.8l0,0l10.8,13.9L716.5,781.8z"/>
		<path fill="#D3CE29" d="M713,784.5l-10.8-13.9c-1.9,1.5-2.3,4.3-0.8,6.2l0,0l8.1,10.4L713,784.5z"/>
		<path fill="#FFFFFF" d="M746.4,792.4c1.8-1.3,2.3-3.9,1-5.7s-3.9-2.3-5.7-1c-0.1,0.1-0.2,0.1-0.3,0.2L746.4,792.4z"/>
		
			<rect x="716.5" y="811" transform="matrix(0.7889 -0.6146 0.6146 0.7889 -347.1107 617.4106)" fill="#D3CE29" width="17.1" height="5.8"/>
		
			<rect x="723.2" y="814.4" transform="matrix(0.7889 -0.6146 0.6146 0.7889 -347.7396 620.8717)" fill="#2A2761" width="13" height="4.3"/>
		
			<rect x="730" y="800.5" transform="matrix(0.7889 -0.6146 0.6146 0.7889 -337.8004 623.488)" fill="#EAEA34" width="17.1" height="5.8"/>
		
			<rect x="703.7" y="779.7" transform="matrix(0.7889 -0.6146 0.6146 0.7889 -339.7862 606.1069)" fill="#C5C5C5" width="17.1" height="35.7"/>
		
			<rect x="717.2" y="769.2" transform="matrix(0.7889 -0.6146 0.6146 0.7889 -330.4759 612.1843)" fill="#FFFFFF" width="17.1" height="35.7"/>
		
			<rect x="733.5" y="806.5" transform="matrix(0.7889 -0.6146 0.6146 0.7889 -340.7212 625.4955)" fill="#3A3A77" width="13" height="4.3"/>
		<path fill="#C5C5C5" d="M749.7,831.6l-10.5-13.5l-3.1-3.9l-13.5,10.5l3.1,4C731.5,836.1,742.2,837.4,749.7,831.6z"/>
		<path fill="#FFFFFF" d="M752.7,807.6l-3.1-4l-13.5,10.5l3.1,3.9l10.5,13.5C757.1,825.8,758.4,815.1,752.7,807.6z"/>
		
			<ellipse transform="matrix(0.4936 -0.8697 0.8697 0.4936 -324.8778 1026.4932)" opacity="0.2" enable-background="new    " cx="719" cy="792.2" rx="13" ry="13.1"/>
		<path fill="#E2DE33" d="M711.4,798c3.2,4.2,9.2,5,13.3,1.7c0,0,0,0,0.1,0l-5.8-7.5L711.4,798z"/>
		<path fill="#FBFF48" d="M724.8,799.7c4.1-3.2,4.9-9.2,1.7-13.4l0,0l-7.5,5.9L724.8,799.7z"/>
		<path fill="#D3CE29" d="M726.5,786.3c-3.2-4.1-9.2-4.9-13.4-1.7l0,0l5.9,7.5L726.5,786.3z"/>
		<path fill="#BAB222" d="M719,792.2l-5.9-7.5c-4.1,3.2-4.9,9.2-1.7,13.4l0,0L719,792.2z"/>
		<path fill="#FBFF48" d="M728,775.9c-0.8-1-0.6-2.4,0.4-3.1l0,0l0,0c1-0.8,2.4-0.6,3.1,0.4l15,19.3c0.8,1,0.6,2.4-0.4,3.1l0,0
			c-1,0.8-2.4,0.6-3.1-0.4l0,0L728,775.9z"/>
		<path fill="#FBFF48" d="M720.8,771.7c0.8-0.6,1.9-0.5,2.5,0.3l0,0c1.2,1.5,3.4,1.8,4.9,0.6s1.8-3.4,0.6-4.9
			c-0.6-0.8-0.4-1.9,0.4-2.5c0.8-0.6,1.8-0.4,2.4,0.3c2.6,2.9,2.3,7.3-0.5,9.9s-7.3,2.3-9.9-0.5c-0.2-0.2-0.4-0.5-0.6-0.7
			C720,773.4,720.1,772.3,720.8,771.7z"/>
		<path fill="#C5C5C5" d="M712.4,818.9c-1.8,1.3-4.4,0.9-5.7-1c-1.2-1.7-0.9-4.1,0.7-5.5L712.4,818.9z"/>
		<path fill="#D3CE29" d="M701,797c-0.8-1-2.1-1.1-3.1-0.4l0,0l0,0c-1,0.8-1.1,2.1-0.4,3.1l15,19.3c0.8,1,2.2,1.1,3.1,0.4l0,0l0,0
			c1-0.8,1.1-2.1,0.4-3.1l0,0L701,797z"/>
		<path fill="#D3CE29" d="M690.3,795.4c0.8-0.6,1.9-0.5,2.5,0.3l0,0c1.2,1.5,3.4,1.7,4.9,0.4c1.4-1.2,1.7-3.2,0.6-4.7
			c-0.6-0.8-0.5-1.8,0.3-2.4l0,0c0.8-0.6,1.9-0.5,2.5,0.3c2.6,2.9,2.3,7.3-0.5,9.9c-2.9,2.6-7.3,2.3-9.9-0.5
			c-0.2-0.2-0.4-0.5-0.6-0.7C689.4,797.1,689.5,796,690.3,795.4z"/>
		<path fill="#57A6FF" d="M750,820.9c2.2-1.7,2.6-4.9,0.9-7.1l-5.4-6.9l-9.4,7.4l3.1,3.9l5.4,7L750,820.9z"/>
		<path fill="#3469D3" d="M739.2,829.3c-2.2,1.7-5.4,1.3-7.1-0.9l-5.4-6.9l9.4-7.3l3.1,3.9l5.4,7L739.2,829.3z"/>
		<path fill="#FFFFFF" d="M760.7,833.3c-0.9-1.2-0.7-2.9,0.5-3.8s2.9-0.7,3.8,0.5c0.9,1.2,0.7,2.9-0.5,3.8l0,0
			C763.3,834.7,761.6,834.5,760.7,833.3z"/>
		<path fill="#C5C5C5" d="M744.3,846.1c-0.9-1.2-0.7-2.9,0.5-3.8s2.9-0.7,3.8,0.5c0.9,1.2,0.7,2.9-0.5,3.8l0,0
			C747,847.5,745.3,847.2,744.3,846.1z"/>
		<path fill="#FFFFFF" d="M746.6,817.7c-0.6-0.8-0.5-1.9,0.3-2.5s1.9-0.5,2.5,0.3s0.5,1.9-0.3,2.5
			C748.4,818.7,747.3,818.5,746.6,817.7C746.7,817.8,746.6,817.7,746.6,817.7z"/>
		<path fill="#FFFFFF" d="M740.1,822.6c-1-1.3-0.8-3.2,0.5-4.2s3.2-0.8,4.2,0.5s0.8,3.2-0.5,4.2C743,824.2,741.1,823.9,740.1,822.6
			L740.1,822.6z"/>
		<path fill="#B8A3E4" d="M156.2,282.7l-34.5,8.4l-9.3,12.3l-10.1,12l-52.5-1.2L49,336.9l13.6,23l10.8,11.8l-6.5,15.5l10.7,12.2
			l20.9,9.5c0,0,23.6-60.8,27.1-68.5C129.1,332.7,156.2,282.7,156.2,282.7z"/>
		<path opacity="0.2" fill="#282828" enable-background="new    " d="M156.2,282.7l-14.4,3.3c0,0-4.6,16.1-7.6,17.9
			c-7.6,4.4-12.4,21.1-15.7,27.3c-6.5,12.3-6.7,26.7-13.4,28.9s-7.9,26.4-7.9,26.4s-4.5,11.1-5.5,12.7c-1,1.8-1.7,3.6-2.3,5.5
			l9.1,4.2c0,0,21.5-56,27.1-68.5C131.2,327.9,156.2,282.7,156.2,282.7z"/>
		<path fill="#7B65BF" d="M124.6,312.4c1.1-2.3,3.8-3.2,6.1-2.1l-3.7,8.1C124.7,317.5,123.6,314.8,124.6,312.4
			C124.6,312.5,124.6,312.5,124.6,312.4z"/>
		<path fill="#7B65BF" d="M107.2,355.9c1-2.2,4-3.1,6.7-1.9l-3.7,8.1C107.5,360.9,106.2,358.1,107.2,355.9z"/>
		<path fill="#7B65BF" d="M91.6,394.5c0.7-1.5,2.9-2.1,4.8-1.2l-2.6,5.6C92,398,90.9,396,91.6,394.5z"/>
		<path fill="#7B65BF" d="M85.5,379.6c1.1-2.3,3.8-3.2,6.1-2.1l-3.7,8.1C85.6,384.6,84.5,381.9,85.5,379.6z"/>
		<path fill="#7B65BF" d="M104.4,328.4c1-2.2,4.8-2.7,8.5-1l-3.7,8.1C105.5,333.8,103.4,330.7,104.4,328.4z"/>
		<path fill="#7B65BF" d="M72.3,329.1c1-2.2,4.8-2.7,8.5-1l-3.7,8.1C73.5,334.5,71.3,331.3,72.3,329.1z"/>
		<path fill="#7B65BF" d="M82.7,357.7c1-2.2,4.8-2.7,8.5-1l-3.7,8.1C83.8,363.1,81.6,359.9,82.7,357.7z"/>
		
			<rect x="144.7" y="707.1" transform="matrix(0.3623 -0.9321 0.9321 0.3623 -574.9228 592.6179)" fill="#3ABA77" width="1.8" height="18.8"/>
		<path fill="#3ABA77" d="M152,716.3c2.1-1.4,4.9-0.9,6.3,1.2c1.4,2.1,0.9,4.9-1.2,6.3c-2,1.4-4.9,0.9-6.3-1.1
			C149.4,720.5,149.9,717.7,152,716.3z"/>
		<path fill="#FFFFFF" d="M153.3,719.4c1-0.7,2.3-0.4,3,0.6s0.4,2.3-0.6,3s-2.3,0.4-3-0.5C152,721.4,152.3,720.1,153.3,719.4
			L153.3,719.4z"/>
		
			<rect x="58" y="703.9" transform="matrix(0.8246 -0.5657 0.5657 0.8246 -387.4164 159.8112)" fill="#3ABA77" width="12" height="1.6"/>
		<path fill="#FBFF48" d="M75.9,696.4l24.7,35.8c2.3,3.3,6.8,4.2,10.2,1.9l0,0L82,692.3L75.9,696.4z"/>
		<path fill="#D3CE29" d="M81.9,692.3l28.8,41.8c3.3-2.3,4.2-6.8,1.9-10.2l0,0L88,688.1L81.9,692.3z"/>
		<path fill="#3ABA77" d="M68.9,701.3c10.4,15.1,22,25.2,25.9,22.6l-18.9-27.4L68.9,701.3z"/>
		<path fill="#FBFF48" d="M136.6,725.7c12.2-8.4,7.3-36.8-11.1-63.4l-22.1,15.2L136.6,725.7z"/>
		<polygon fill="#3ABA77" points="149.4,744.2 103.4,677.5 88,688.1 112.6,723.9 		"/>
		<path fill="#3ABA77" d="M53.5,706.4c2.1-1.4,4.9-0.9,6.3,1.2c1.4,2.1,0.9,4.9-1.2,6.3c-2.1,1.4-4.9,0.9-6.3-1.2l0,0
			C50.9,710.6,51.4,707.8,53.5,706.4z"/>
		<path fill="#FFFFFF" d="M54.8,709.5c1-0.7,2.3-0.4,3,0.6s0.4,2.3-0.6,3s-2.3,0.4-3-0.5C53.5,711.6,53.8,710.2,54.8,709.5
			L54.8,709.5z"/>
		<path fill="#FFFFFF" d="M107.9,700.2c1.9-1.3,4.5-0.8,5.8,1.1c1.3,1.9,0.8,4.5-1.1,5.8s-4.5,0.8-5.8-1.1l0,0
			C105.6,704.1,106,701.5,107.9,700.2z"/>
		<path fill="#FFFFFF" d="M98.6,686.7c1.9-1.3,4.5-0.8,5.8,1.1c1.3,1.9,0.8,4.5-1.1,5.8s-4.5,0.8-5.8-1.1l0,0
			C96.2,690.5,96.7,688,98.6,686.7z"/>
		<path fill="#FFFFFF" d="M135.3,679.1c-2.8-5.9-6.1-11.5-9.8-16.9l-7.9,5.5C122.4,674.5,129.2,678.7,135.3,679.1z"/>
		
			<rect x="81.2" y="614.7" transform="matrix(1 -7.853659e-03 7.853659e-03 1 -4.8991 0.6641)" fill="#009695" width="1.8" height="18.8"/>
		<path fill="#EAEA34" d="M75.9,696.4l-24.7-35.8c-2.3-3.3-1.4-7.9,1.9-10.2l28.8,41.8L75.9,696.4z"/>
		<path fill="#D3CE29" d="M81.9,692.3l-28.8-41.8c3.3-2.3,7.9-1.4,10.2,1.9L88,688.1L81.9,692.3z"/>
		<path fill="#009695" d="M68.9,701.3C58.5,686.1,53.2,671.7,57,669l18.9,27.4L68.9,701.3z"/>
		<path fill="#EAEA34" d="M70.2,629.3c12.2-8.4,37,6.3,55.3,33l-22.1,15.2L70.2,629.3z"/>
		<polygon fill="#009695" points="57.5,610.7 103.4,677.5 88,688.1 63.3,652.3 		"/>
		<path fill="#009695" d="M84.5,618.3c2.1-1.4,2.6-4.2,1.2-6.3s-4.2-2.6-6.3-1.2c-2.1,1.4-2.6,4.2-1.2,6.3l0,0
			C79.6,619.2,82.4,619.7,84.5,618.3z"/>
		<path fill="#FFFFFF" d="M82,616c1-0.7,1.2-2,0.5-3s-2-1.2-3-0.5s-1.2,2-0.5,3C79.7,616.4,81,616.6,82,616L82,616z"/>
		<path fill="#D0D5D8" d="M74.5,651.7c1.9-1.3,2.3-3.9,1-5.8c-1.3-1.9-3.9-2.3-5.8-1s-2.3,3.9-1.1,5.7C70,652.5,72.6,653,74.5,651.7
			z"/>
		<path fill="#D0D5D8" d="M83.8,665.2c1.9-1.3,2.4-3.9,1.1-5.8s-3.9-2.4-5.8-1.1c-1.9,1.3-2.4,3.9-1.1,5.8
			C79.4,666,82,666.5,83.8,665.2z"/>
		<path fill="#D0D5D8" d="M93.1,678.7c1.9-1.3,2.4-3.9,1.1-5.8s-3.9-2.4-5.8-1.1c-1.9,1.3-2.4,3.9-1.1,5.8
			C88.7,679.6,91.2,680,93.1,678.7z"/>
		<path fill="#D0D5D8" d="M113.3,647.1c4.5,4.7,8.6,9.8,12.3,15.1l-7.9,5.5C112.9,660.8,111.5,653,113.3,647.1z"/>
		<polygon opacity="0.2" enable-background="new    " points="89.8,686.9 116.9,726.3 112.6,723.9 88,688.2 		"/>
		<polygon opacity="0.2" enable-background="new    " points="89.8,686.9 62.7,647.5 63.4,652.4 88,688.2 		"/>
		<path fill="#FFFFFF" d="M61.6,662.7c0.9-0.6,2.1-0.4,2.8,0.5c0,0,0,0,0,0.1l38.4,55.7c0.6,0.9,0.4,2.1-0.5,2.8c0,0,0,0-0.1,0l0,0
			c-0.9,0.6-2.1,0.4-2.8-0.5c0,0,0,0,0-0.1l-38.3-55.7C60.5,664.7,60.7,663.4,61.6,662.7C61.6,662.8,61.6,662.8,61.6,662.7
			L61.6,662.7z"/>
		<path opacity="0.2" enable-background="new    " d="M136.6,725.7c1.1-0.8,2.2-1.7,3-2.8l-32.8-47.7l-3.3,2.3L136.6,725.7z"/>
		<path opacity="0.2" enable-background="new    " d="M70.2,629.3c1.1-0.8,2.4-1.4,3.7-1.8l32.8,47.6l-3.3,2.3L70.2,629.3z"/>
		<path fill="#FFFFFF" d="M117.2,713.7c1.9-1.3,4.5-0.8,5.8,1.1c1.3,1.9,0.8,4.5-1.1,5.8s-4.5,0.8-5.8-1.1l0,0
			C114.9,717.6,115.4,715,117.2,713.7L117.2,713.7z"/>
		<polygon fill="#8E8E8E" points="308.7,802.8 310.3,803.6 304.4,815.3 301.1,813.5 		"/>
		<path fill="#606060" d="M308.1,800.7c-1,2-0.2,4.4,1.7,5.4c0,0,0,0,0.1,0l1.8-3.6L308.1,800.7z"/>
		<path fill="#D1D1D1" d="M309.9,806.2c2,1,4.4,0.2,5.4-1.7c0,0,0,0,0-0.1l-3.6-1.8L309.9,806.2z"/>
		<polygon fill="#606060" points="293.2,826.7 291.6,825.9 288.9,831.1 290.3,831.9 		"/>
		<path fill="#D1D1D1" d="M289.4,830.3c5.1,2.6,7.4,6.2,7.1,11.2s-1.4,16.5-4.7,23.1s-12.7,7.3-21.2,3L289.4,830.3z"/>
		<path fill="#D1D1D1" d="M291,827c4.8,2.4,11.6-1.3,14-6.1s-0.4-9-5.2-11.4L291,827z"/>
		<path fill="#292D36" d="M286.4,857.7c0.9,1.8,4.1,4.9,6.1,5.2c2-4.9,3-11.5,3.6-16.5c-3.4-1.5-9.4-3.4-11.4,0.6
			C282.8,850.6,284.3,853.5,286.4,857.7z"/>
		<path fill="#D1D1D1" d="M309.1,817.7l0.3,0.2c0.3,0.2,0.4,0.6,0.2,0.9l0,0c-0.2,0.3-0.6,0.4-0.9,0.2l0,0c-0.7-0.6-1.8-0.4-2.3,0.3
			l0,0l0.1,7.8c0,0.2-0.1,0.4-0.2,0.5s-0.3,0.2-0.5,0.2l-10.4-0.4c-0.4,0-0.6-0.3-0.6-0.6l0,0c0-0.4,0.3-0.6,0.7-0.6l9.7,0.4
			l-0.1-7.4c0-0.1,0-0.3,0.1-0.4C306,817.5,307.7,817,309.1,817.7z"/>
		<path fill="#D1D1D1" d="M271,820.4c-0.1,0.2-0.1,0.5,0.1,0.6c0,0,0.1,0,0.1,0.1c0.3,0.2,0.6,0.1,1.1,0c0.3,0,0.7-0.2,1.2-0.3
			c0.4-0.1,1.8-0.1,2.2-0.1h3c4.6,0.1,9.4,0.3,9.4,0.3c0.3-0.2,0.4-0.6,0.2-0.9l0,0c-0.2-0.3-1.2-0.7-1.6-0.4s-8.8-0.7-13.1-0.2
			c-0.5,0-1.1,0.1-1.6,0.3C271.6,819.9,271.3,820.1,271,820.4z"/>
		<polygon fill="#8E8E8E" points="300,798.3 298.3,797.5 292.5,809.2 295.8,810.9 		"/>
		<path fill="#D1D1D1" d="M301.9,797.6c-1,2-3.4,2.8-5.4,1.8c0,0,0,0-0.1,0l1.8-3.6L301.9,797.6z"/>
		<path fill="#606060" d="M296.5,799.4c-2-1-2.8-3.4-1.8-5.4c0,0,0,0,0-0.1l3.6,1.8L296.5,799.4z"/>
		<polygon fill="#606060" points="290,825.1 291.6,825.9 288.9,831.1 287.5,830.4 		"/>
		<path fill="#8E8E8E" d="M289.4,830.3c-5.1-2.6-9.4-2.3-13.3,1s-12.4,10.9-15.8,17.6s1.7,14.5,10.2,18.8L289.4,830.3z"/>
		<path fill="#8E8E8E" d="M291,827c-4.8-2.4-5.9-10.1-3.5-14.9s7.4-5,12.3-2.6L291,827z"/>
		<path fill="#292D36" d="M269,849c-2,0.3-6.4-0.4-7.8-1.8c2.7-4.5,7.4-9.3,11.1-12.7c3.2,1.8,8.3,5.6,6.3,9.5
			C276.9,847.6,273.7,848.2,269,849z"/>
		<path opacity="0.3" fill="#FFFFFF" enable-background="new    " d="M297.8,816.3c0.7-1.4,2.3-1.9,3.7-1.2s1.9,2.3,1.2,3.7
			c-0.7,1.4-2.3,1.9-3.7,1.2l0,0C297.6,819.3,297.1,817.6,297.8,816.3z"/>
		<path fill="#FBFF48" d="M288.1,851.9c0.7-1.3,2.3-1.9,3.6-1.2c1.3,0.7,1.9,2.3,1.2,3.6c-0.7,1.3-2.3,1.9-3.6,1.2l0,0
			C288,854.9,287.4,853.3,288.1,851.9z"/>
		<path fill="#FBFF48" d="M268.5,842.1c0.4-0.9,1.5-1.3,2.4-0.8c0.9,0.4,1.3,1.5,0.8,2.4c-0.4,0.9-1.5,1.3-2.4,0.8l0,0
			C268.4,844,268,843,268.5,842.1z"/>
		<path fill="#937BD6" d="M98.5,526.7l8.1,26.2c0,0-3,5.2-5.5,7.3c-2.4,0.5-7.9,0-9.2-2.6c-2.6-5-13.4-14.9-10.8-17s3.5-9.9,3.5-9.9
			S97.4,521.8,98.5,526.7z"/>
		<path fill="#6A5AAF" d="M93.3,534.8c-0.8-1.6,0.1-3.7,2-4.7l3,5.9C96.3,536.9,94.1,536.4,93.3,534.8z"/>
		<path fill="#6A5AAF" d="M88.2,540.9c-0.6-1.4,0.1-3,1.5-3.5l2.2,4.4C90.7,542.6,89,542.2,88.2,540.9z"/>
		<path fill="#6A5AAF" d="M92.6,552.4c-0.8-1.6,0.7-4,3.4-5.4l3,5.9C96.3,554.3,93.5,554,92.6,552.4z"/>
		<path opacity="0.2" enable-background="new    " d="M98.5,526.7l8.1,26.2c0,0-5.5-6.9-6.8-10.2s-6.4-13.4-7-16.5
			C95.5,525,98,524.6,98.5,526.7z"/>
		<path fill="#AAAAAA" d="M278.2,125.1l15.6-10.4C281.3,96,256,91,237.4,103.5l0,0l0,0C247.4,96.8,265.7,106.5,278.2,125.1z"/>
		<path fill="#FFFFFF" d="M237.4,103.5L237.4,103.5c-18.7,12.5-23.7,37.8-11.2,56.4l0,0l15.6-10.4
			C229.3,130.9,227.3,110.3,237.4,103.5z"/>
		<path fill="#C5C5C5" d="M278.2,125.1c-12.5-18.7-30.8-28.3-40.8-21.6l22.6,33.8L278.2,125.1z"/>
		<path fill="#E0E0E0" d="M237.4,103.5c-10,6.7-8,27.3,4.5,46l18.2-12.2L237.4,103.5z"/>
		<path fill="#3469D3" d="M297.3,112.4l-74.5,49.9c-2.4,1.6-3,4.9-1.4,7.2l83.2-55.7C302.9,111.4,299.7,110.8,297.3,112.4
			L297.3,112.4z"/>
		<path fill="#FFFFFF" d="M275,113.9c-1.3-1.9-0.8-4.6,1.2-5.9c1.9-1.3,4.6-0.8,5.9,1.2c1.3,1.9,0.8,4.6-1.2,5.9
			C279,116.4,276.3,115.9,275,113.9L275,113.9z"/>
		<circle fill="#FFFFFF" cx="271.4" cy="105.5" r="2.5"/>
		<polygon fill="#C5C5C5" points="246.8,80.6 247.5,79.6 224.5,63.5 216.3,69 217,70 224.5,65 		"/>
		
			<rect x="218.7" y="71.1" transform="matrix(0.8308 -0.5566 0.5566 0.8308 -4.9373 134.8019)" fill="#A73935" width="1" height="8.9"/>
		<path fill="#A73935" d="M228.5,90.3L247,77.9c1.3-0.9,3.2-0.5,4,0.8l-20.9,14L228.5,90.3z"/>
		<path fill="#7F2D2D" d="M230.1,92.7l20.9-14c0.9,1.3,0.5,3.2-0.8,4l-18.5,12.4L230.1,92.7z"/>
		<path fill="#A73935" d="M213.3,67.6c1.6-1.1,3.8-0.6,4.9,1c1.1,1.6,0.6,3.7-1,4.8L213.3,67.6z"/>
		<path fill="#C5C5C5" d="M219.7,77.1c2.6-1.7,6-1,7.7,1.5l0,0l-4.6,3.1L219.7,77.1z"/>
		<polygon fill="#C5C5C5" points="247.5,98.6 238.2,104.8 231.7,95.1 250.2,82.7 		"/>
		<polygon fill="#C5C5C5" points="228.9,81 224.3,84.1 228.5,90.3 238.9,83.3 		"/>
		
			<rect x="223.1" y="80" transform="matrix(0.8308 -0.5566 0.5566 0.8308 -7.065 139.5029)" fill="#A73935" width="5.6" height="2.8"/>
		<polygon fill="#FFFFFF" points="212.6,103.5 211.4,103.8 205.3,76.4 213.4,70.9 214.1,72 206.7,77 		"/>
		
			<rect x="217.8" y="71.6" transform="matrix(0.8308 -0.5566 0.5566 0.8308 -5.3938 134.3702)" fill="#EF4F4D" width="1" height="8.9"/>
		<path fill="#EF4F4D" d="M228.5,90.3L210,102.7c-1.3,0.9-1.7,2.7-0.8,4l20.9-14L228.5,90.3z"/>
		<path fill="#A73935" d="M230.1,92.7l-20.9,14c0.9,1.3,2.7,1.7,4,0.8l18.5-12.4L230.1,92.7z"/>
		<path fill="#EF4F4D" d="M213.3,67.6c-1.6,1.1-2.1,3.2-1,4.9s3.2,2.1,4.9,1l0,0L213.3,67.6z"/>
		<path fill="#FFFFFF" d="M219.7,77.1c-2.6,1.7-3.2,5.2-1.5,7.7l0,0l4.6-3.1L219.7,77.1z"/>
		<polygon fill="#FFFFFF" points="229,111 238.2,104.8 231.7,95.1 213.2,107.5 		"/>
		<polygon fill="#FFFFFF" points="219.7,87.2 224.3,84.1 228.5,90.3 218,97.3 		"/>
		
			<rect x="218.4" y="83.1" transform="matrix(0.8308 -0.5566 0.5566 0.8308 -9.6069 137.4269)" fill="#EF4F4D" width="5.6" height="2.8"/>
		<path fill="#FFFFFF" d="M213.9,71.6c0.8,0.2,1.7-0.4,1.9-1.2c0.2-0.8-0.4-1.7-1.2-1.9c-0.8-0.2-1.7,0.4-1.9,1.2l0,0
			C212.5,70.6,213,71.4,213.9,71.6z"/>
		<path opacity="0.2" fill="#FFFFFF" enable-background="new    " d="M205.7,70.2c1.5-5.5,6.7-9.3,12.4-9c0.6,0.1,1,0.6,0.9,1.2
			c-0.1,0.6-0.6,1-1.2,0.9c-4.6-0.2-8.7,2.8-10,7.2c-0.1,0.6-0.6,1-1.2,0.9S205.6,70.8,205.7,70.2L205.7,70.2L205.7,70.2z"/>
		<path opacity="0.2" fill="#FFFFFF" enable-background="new    " d="M201.8,69.3c0.9-3.6,3.1-6.9,6.1-9.1c3.1-2.2,6.8-3.3,10.6-3
			c0.6,0.1,1,0.6,0.9,1.2l0,0c-0.1,0.6-0.6,1-1.2,0.9c-6.6-0.3-12.6,4-14.3,10.3c-0.1,0.6-0.6,1-1.2,0.9
			C202,70.4,201.6,69.9,201.8,69.3C201.7,69.3,201.7,69.3,201.8,69.3L201.8,69.3z"/>
		
			<rect x="242.8" y="137.6" transform="matrix(0.829 -0.5593 0.5593 0.829 -35.9116 161.5196)" fill="#F8AB1F" width="6.6" height="3.7"/>
		
			<rect x="249.6" y="135.4" transform="matrix(0.8308 -0.5566 0.5566 0.8308 -33.8779 163.0627)" fill="#F8AB1F" width="3.3" height="3.7"/>
		<path fill="#EF4F4D" d="M250.1,128.7c0.8,1.2,0.5,2.9-0.7,3.7s-2.9,0.5-3.7-0.7s-0.5-2.9,0.7-3.7l0,0
			C247.6,127.2,249.2,127.5,250.1,128.7L250.1,128.7z"/>
		<path fill="#EF4F4D" d="M245.8,122.4c0.8,1.2,0.5,2.9-0.7,3.7c-1.2,0.8-2.9,0.5-3.7-0.7s-0.5-2.9,0.7-3.7
			C243.3,120.8,245,121.2,245.8,122.4z"/>
		<path fill="#EF4F4D" d="M241.5,116c0.8,1.2,0.5,2.9-0.7,3.7c-1.2,0.8-2.9,0.5-3.7-0.7s-0.5-2.9,0.7-3.7l0,0
			C239,114.4,240.7,114.8,241.5,116L241.5,116z"/>
		<polygon fill="#A73935" points="139.6,227.9 141.3,224.9 117.8,211.5 94.9,225.5 96.7,228.4 117.8,215.5 		"/>
		<polygon fill="#A73935" points="131.2,202.8 139.3,200.7 141.1,203 137,210.3 		"/>
		<path fill="#D1D1D1" d="M141.8,223.7l16.6-12.8c3.4-2.6,8.4-2,11,1.4L146.6,230L141.8,223.7z"/>
		
			<rect x="137.8" y="185.2" transform="matrix(0.7914 -0.6113 0.6113 0.7914 -87.9793 124.4213)" fill="#A5A5A5" width="1.1" height="11.9"/>
		
			<rect x="168.1" y="200.1" transform="matrix(0.7914 -0.6113 0.6113 0.7914 -90.7478 146.0728)" fill="#A5A5A5" width="1.1" height="11.9"/>
		<path fill="#A73935" d="M120.9,208.5c2.8,1.7,3.6,5.3,1.9,8.1s-5.3,3.6-8.1,1.9l0,0L120.9,208.5z"/>
		<path fill="#EF4F4D" d="M114.7,218.5c-2.8-1.7-3.6-5.3-1.9-8.1s5.3-3.6,8.1-1.9L114.7,218.5z"/>
		<path fill="#E0E0E0" d="M133.5,247l46.4-35.8c3.4-2.6,8.3-2,11,1.4L132.1,258C129.5,254.6,130.1,249.7,133.5,247L133.5,247z"/>
		<path fill="#AAAAAA" d="M190.9,212.6c2.6,3.4,2,8.3-1.4,11l-46.4,35.8c-3.4,2.6-8.4,2-11-1.4L190.9,212.6z"/>
		<path fill="#EF4F4D" d="M137.1,210.3c-1,0.8-2.5,0.6-3.4-0.4l-2.9-3.8c-0.8-1-0.6-2.5,0.4-3.4l0,0L137.1,210.3z"/>
		<path fill="#EF4F4D" d="M97.1,228.7c0.6-0.1,1.1-0.6,1.2-1.1c1.3-3.6-0.7-7.6-4.3-8.8c-3.6-1.3-7.6,0.7-8.8,4.3l0,0
			c-0.3,0.9,0.2,1.9,1.1,2.2s1.9-0.2,2.2-1.1c0.6-1.8,2.6-2.7,4.4-2.1c1.8,0.6,2.7,2.6,2.1,4.4l0,0c-0.3,0.9,0.2,1.9,1.1,2.2
			C96.4,228.7,96.7,228.8,97.1,228.7z"/>
		<path fill="#A73935" d="M99.4,238.8L99.4,238.8c3.8-1,5.9-4.9,4.9-8.5s-4.6-5.7-8.2-4.9l-0.3,0.1c-0.9,0.3-1.4,1.3-1.2,2.2
			c0.3,0.9,1.1,1.4,2,1.2h0.1c1.8-0.5,3.7,0.6,4.2,2.4c0.5,1.8-0.6,3.7-2.4,4.2c-0.9,0.2-1.5,1.2-1.3,2.1S98.5,239.1,99.4,238.8
			L99.4,238.8z"/>
		<path fill="#A73935" d="M151.9,222.9l16.6-12.8c3.4-2.6,8.3-2,11,1.4l-22.8,17.6L151.9,222.9z"/>
		<path fill="#F8AB1F" d="M151.9,222.9l-16.6,12.8c-3.4,2.6-4.1,7.6-1.4,11l22.8-17.6L151.9,222.9z"/>
		<path fill="#D1D1D1" d="M178,231.4c-2.7-3.5-2.1-8.6,1.5-11.4l5,6.4L178,231.4z"/>
		<path fill="#FFFFFF" d="M179.4,220c3.5-2.7,8.6-2.1,11.4,1.4l0,0l-6.4,5L179.4,220z"/>
		<path fill="#D1D1D1" d="M190.8,221.5c2.7,3.5,2.1,8.6-1.5,11.4l-5-6.4L190.8,221.5z"/>
		<path fill="#A5A5A5" d="M184.4,226.4l5,6.4c-3.5,2.7-8.6,2.1-11.4-1.5L184.4,226.4z"/>
		<path opacity="0.2" enable-background="new    " d="M186.7,229.4c1.7-1.3,2-3.7,0.7-5.3c-1.3-1.7-3.7-2-5.3-0.7
			c-1.7,1.3-2,3.7-0.7,5.3C182.7,230.4,185.1,230.7,186.7,229.4L186.7,229.4z"/>
		<path fill="#A73935" d="M181.8,228.4c1.1,1.4,3.1,1.7,4.5,0.6s1.7-3.1,0.6-4.5s-3.1-1.7-4.5-0.6l0,0
			C181,225,180.8,227,181.8,228.4z"/>
		<path fill="#D1D1D1" d="M159.4,245.7c-2.7-3.5-2-8.6,1.5-11.3l5,6.4L159.4,245.7z"/>
		<path fill="#FFFFFF" d="M160.8,234.4c3.5-2.7,8.6-2.1,11.4,1.5l-6.4,5L160.8,234.4z"/>
		<path fill="#D1D1D1" d="M172.2,235.9c2.7,3.5,2.1,8.6-1.5,11.4l-5-6.4L172.2,235.9z"/>
		<path fill="#A5A5A5" d="M165.8,240.8l5,6.4c-3.5,2.7-8.6,2.1-11.3-1.5l0,0L165.8,240.8z"/>
		<path opacity="0.2" enable-background="new    " d="M168.1,243.8c1.7-1.3,2-3.7,0.7-5.3c-1.3-1.7-3.7-2-5.3-0.7
			c-1.7,1.3-2,3.7-0.7,5.3C164.1,244.8,166.4,245.1,168.1,243.8z"/>
		<path fill="#A73935" d="M163.2,242.8c1.1,1.4,3.1,1.7,4.5,0.6c1.4-1.1,1.7-3.1,0.6-4.5s-3.1-1.7-4.5-0.6l0,0
			C162.4,239.4,162.2,241.4,163.2,242.8z"/>
		<path fill="#D1D1D1" d="M140.7,260.2c-2.7-3.5-2.1-8.6,1.5-11.4l5,6.4L140.7,260.2z"/>
		<path fill="#FFFFFF" d="M142.2,248.8c3.5-2.7,8.6-2.1,11.3,1.4l0,0l-6.4,5L142.2,248.8z"/>
		<path fill="#D1D1D1" d="M153.6,250.3c2.7,3.5,2.1,8.6-1.4,11.4l0,0l-5-6.4L153.6,250.3z"/>
		<path fill="#A5A5A5" d="M147.1,255.2l5,6.4c-3.5,2.7-8.6,2.1-11.4-1.5L147.1,255.2z"/>
		<path opacity="0.2" enable-background="new    " d="M149.5,258.2c1.7-1.3,2-3.7,0.7-5.3c-1.3-1.7-3.7-2-5.3-0.7
			c-1.7,1.3-2,3.7-0.7,5.3C145.4,259.2,147.8,259.5,149.5,258.2L149.5,258.2z"/>
		<path fill="#A73935" d="M144.6,257.2c1.1,1.4,3.1,1.7,4.5,0.6s1.7-3.1,0.6-4.5c-1.1-1.4-3.1-1.7-4.5-0.6l0,0
			C143.8,253.8,143.5,255.8,144.6,257.2z"/>
		
			<rect x="149.7" y="201.6" transform="matrix(0.7914 -0.6113 0.6113 0.7914 -95.5096 136.1321)" fill="#A73935" width="4" height="12.8"/>
		
			<rect x="137.4" y="193.3" transform="matrix(0.7914 -0.6113 0.6113 0.7914 -91.428 129.6093)" fill="#A73935" width="13.6" height="11"/>
		<path fill="#F8AB1F" d="M142.1,198.7c1,1.3,3,1.6,4.3,0.6l0,0l4.2-3.2l-4.4-5.7l-2.4,1.9l-4.2,3.3L142.1,198.7z"/>
		<path fill="#FFFFFF" d="M143.8,196.4c0.5,0.7,1.4,0.8,2.1,0.3c0.7-0.5,0.8-1.4,0.3-2.1c-0.5-0.7-1.4-0.8-2.1-0.3l0,0
			C143.5,194.8,143.3,195.7,143.8,196.4z"/>
		<polygon opacity="0.2" enable-background="new    " points="140.2,204.7 139.4,206.1 135.9,201.6 137.4,201.2 		"/>
		<path fill="#A5A5A5" d="M98.7,224.3c1.4,0.9,1.9,2.8,1,4.2s-2.8,1.9-4.2,1L98.7,224.3z"/>
		<path fill="#FFFFFF" d="M95.5,229.5c-1.4-0.9-1.9-2.8-1-4.2s2.8-1.9,4.2-1L95.5,229.5z"/>
		
			<rect x="146.4" y="202.7" transform="matrix(0.7914 -0.6113 0.6113 0.7914 -93.5601 133.2125)" opacity="0.2" enable-background="new    " width="4" height="2"/>
		<path opacity="0.2" enable-background="new    " d="M167.7,210.7l-17.4,13.4l-1.2-1.5l16.7-12.9
			C166.5,210,167.1,210.3,167.7,210.7z"/>
		<path fill="#A5A5A5" d="M138.4,219.4l5.2,6.7l1.5,2l-6.8,5.2l-1.5-2C134,227.6,134.7,222.3,138.4,219.4z"/>
		<path fill="#FFFFFF" d="M150.4,220.9l1.5,2l-6.8,5.2l-1.5-2l-5.2-6.7C142.2,216.5,147.5,217.2,150.4,220.9L150.4,220.9z"/>
		<path fill="#FFFFFF" d="M164.7,226.8c0.5,0.6,1.4,0.7,2,0.3l16.2-12.5c0.6-0.5,0.7-1.4,0.3-2l0,0c-0.5-0.6-1.4-0.7-2-0.3
			L165,224.8C164.3,225.3,164.2,226.2,164.7,226.8L164.7,226.8z"/>
		<path fill="#FFFFFF" d="M161.4,229.4c0.5,0.6,1.4,0.8,2,0.3s0.8-1.4,0.3-2s-1.4-0.8-2-0.3l0,0C161,227.9,160.9,228.8,161.4,229.4z
			"/>
		<path fill="#FFFFFF" d="M157.8,232.1c0.5,0.6,1.4,0.8,2,0.3s0.8-1.4,0.3-2s-1.4-0.8-2-0.3l0,0
			C157.5,230.6,157.4,231.5,157.8,232.1z"/>
		<path fill="#FFFFFF" d="M154.2,234.9c0.5,0.6,1.4,0.8,2,0.3s0.8-1.4,0.3-2s-1.4-0.8-2-0.3l0,0
			C153.9,233.4,153.8,234.3,154.2,234.9z"/>
		<path fill="#D1D1D1" d="M131.3,186.5c0.9,1.2,2.6,1.4,3.8,0.5s1.4-2.6,0.5-3.8s-2.6-1.4-3.7-0.5
			C130.7,183.6,130.4,185.3,131.3,186.5L131.3,186.5z"/>
		<path fill="#D1D1D1" d="M161.6,201.3c0.9,1.2,2.6,1.4,3.8,0.5s1.4-2.6,0.5-3.8s-2.6-1.4-3.8-0.5
			C160.9,198.5,160.7,200.2,161.6,201.3L161.6,201.3z"/>
		<path fill="#FFFFFF" d="M162.9,199.7c0.4,0.5,1.2,0.6,1.7,0.2c0.5-0.4,0.6-1.2,0.2-1.7c-0.4-0.5-1.2-0.6-1.7-0.2l0,0
			C162.6,198.4,162.5,199.2,162.9,199.7L162.9,199.7z"/>
		<path fill="#FFFFFF" d="M132.7,185c0.4,0.5,1.2,0.7,1.7,0.3s0.7-1.2,0.3-1.7c0,0,0,0-0.1-0.1c-0.4-0.5-1.2-0.6-1.7-0.2l0,0
			C132.4,183.7,132.3,184.5,132.7,185z"/>
		<polygon fill="#C5C5C5" points="388.1,77.4 384.2,75.3 367.7,106 373.8,104.2 		"/>
		<polygon fill="#AAAAAA" points="422.3,67 424.5,63 455.2,79.5 449.1,81.3 		"/>
		<polygon fill="#C5C5C5" points="409.3,93.4 413.6,92.1 403.5,58.7 400.5,64.4 		"/>
		<polygon fill="#57A6FF" points="389.7,16.2 387,17 393.4,38 395.3,34.5 		"/>
		<path fill="#EF4F4D" d="M380.8,43.6c0.7,2.2-0.6,4.6-2.8,5.2c-2.2,0.7-4.6-0.6-5.2-2.8c-0.7-2.2,0.6-4.6,2.8-5.2l0,0
			C377.8,40.1,380.2,41.4,380.8,43.6z"/>
		<path fill="#EF4F4D" d="M417.6,32.4c0.7,2.2-0.6,4.6-2.8,5.2c-2.2,0.7-4.6-0.6-5.2-2.8c-0.7-2.2,0.6-4.6,2.8-5.2l0,0
			C414.6,29,417,30.2,417.6,32.4z"/>
		<path fill="#FFFFFF" d="M375,64.6c4.3,14.1,19.2,22.1,33.3,17.8l0,0l-15.5-51.1C378.7,35.6,370.7,50.5,375,64.6z"/>
		<path fill="#C5C5C5" d="M392.8,31.3l15.5,51.1c14.1-4.3,22.1-19.2,17.8-33.3S407,27,392.8,31.3L392.8,31.3z"/>
		<path fill="#57A6FF" d="M399.8,54.5l-25.5,7.7c0.2,0.8,0.3,1.6,0.6,2.4c1.6,5.3,4.9,10,9.3,13.4l20.8-6.3L399.8,54.5z"/>
		<path fill="#3469D3" d="M405.1,71.7l20.8-6.4c1.8-5.3,1.9-11,0.3-16.3c-0.2-0.8-0.5-1.5-0.8-2.3l-25.5,7.7L405.1,71.7z"/>
		
			<rect x="391.1" y="58.3" transform="matrix(0.9569 -0.2904 0.2904 0.9569 -1.7272 118.0555)" fill="#FFFFFF" width="11.6" height="13.1"/>
		
			<rect x="402.2" y="54.9" transform="matrix(0.9569 -0.2904 0.2904 0.9569 -0.2604 121.1286)" fill="#C5C5C5" width="11.6" height="13.1"/>
		<path fill="#EF4F4D" d="M406.2,62c0.6,2.1-0.5,4.3-2.6,4.9s-4.3-0.5-4.9-2.6s0.5-4.3,2.6-4.9C403.4,58.7,405.6,59.9,406.2,62
			L406.2,62z"/>
		<circle fill="#57A6FF" cx="396.7" cy="44.2" r="4.2"/>
		<path fill="#EF4F4D" d="M391.4,14.7c0.5,1.8-0.5,3.7-2.3,4.3s-3.7-0.5-4.3-2.3c-0.5-1.8,0.5-3.7,2.3-4.3
			C388.9,11.9,390.8,12.9,391.4,14.7z"/>
		<path fill="#3469D3" d="M375.8,103.6c-0.7-2.5-3.3-3.8-5.8-3.1l0,0l1.3,4.4L375.8,103.6z"/>
		<path fill="#57A6FF" d="M370,100.5c-2.5,0.7-3.8,3.3-3.1,5.8l0,0l4.4-1.4L370,100.5z"/>
		<path fill="#3469D3" d="M415.9,91.4c-0.7-2.5-3.3-3.8-5.8-3.1l1.3,4.4L415.9,91.4z"/>
		<path fill="#57A6FF" d="M410.1,88.3c-2.5,0.7-3.8,3.3-3.1,5.8l4.5-1.4L410.1,88.3z"/>
		<path fill="#3469D3" d="M456,79.2c-0.8-2.5-3.3-3.8-5.8-3.1l1.3,4.5L456,79.2z"/>
		<path fill="#57A6FF" d="M450.2,76.1c-2.5,0.8-3.8,3.3-3.1,5.8l4.5-1.4L450.2,76.1z"/>
		<path fill="#FFFFFF" d="M384.5,65.5c0.4,1.5-0.4,3-1.9,3.5c-1.5,0.4-3-0.4-3.5-1.9c-0.4-1.5,0.4-3,1.8-3.4
			C382.5,63.2,384.1,64,384.5,65.5L384.5,65.5z"/>
		<path fill="#FFFFFF" d="M386.8,71c0.3,0.9-0.2,1.8-1.1,2.1c-0.9,0.3-1.8-0.2-2.1-1.1s0.2-1.8,1.1-2.1
			C385.6,69.6,386.6,70.1,386.8,71z"/>
		<path fill="#7A7A7A" d="M700.5,146.9c0,0,55.5,19.6,89.6-19.3l1.1-1.2c3.9-4.3,10.5-4.7,14.8-0.8c4.2,3.8,4.7,10.3,1,14.7
			l-1.1,1.2c-34.1,38.9,1.1,87.7,1.1,87.7s-22.2-17.6-46.2-35.2c-3.2-2.4-6.3-5.1-9.6-7.4C734.8,174.8,700.5,146.9,700.5,146.9z"/>
		<path fill="#87A08D" d="M760.1,193.3c0,0,62.3,48.6,120.7,8l1.8-1.3c6.4-4.8,15.4-3.5,20.2,2.9s3.5,15.4-2.9,20.2
			c-0.2,0.2-0.5,0.4-0.8,0.5l-1.8,1.3c-44.1,43.5-49.6,101-49.6,101S831,285.2,815,262.6S760.1,193.3,760.1,193.3z"/>
		<path fill="#1E9B32" d="M882.1,219.8l-6.7,4.7c-0.5,0.4-1.3,0.2-1.7-0.3l-0.1-0.2c-0.4-0.5-0.2-1.3,0.3-1.7l6.7-4.7
			c0.5-0.4,1.3-0.2,1.7,0.3l0.1,0.2C882.7,218.7,882.6,219.4,882.1,219.8z"/>
		<path fill="#1E9B32" d="M876.7,217l4.7,6.7c0.4,0.5,0.2,1.3-0.3,1.7l-0.2,0.1c-0.5,0.4-1.3,0.2-1.7-0.3l-4.7-6.7
			c-0.4-0.5-0.2-1.3,0.3-1.7l0.2-0.1C875.6,216.4,876.3,216.5,876.7,217z"/>
		<path fill="#1E9B32" d="M861.8,221.8l-6.7,4.7c-0.5,0.4-1.3,0.2-1.7-0.3l-0.1-0.2c-0.4-0.5-0.2-1.3,0.3-1.7l6.7-4.7
			c0.5-0.4,1.3-0.2,1.7,0.3l0.1,0.2C862.5,220.7,862.3,221.5,861.8,221.8z"/>
		<path fill="#1E9B32" d="M856.4,219l4.7,6.7c0.4,0.5,0.2,1.3-0.3,1.7l-0.2,0.1c-0.5,0.4-1.3,0.2-1.7-0.3l-4.7-6.7
			c-0.4-0.5-0.2-1.3,0.3-1.7l0.2-0.1C855.3,218.4,856,218.5,856.4,219z"/>
		<path fill="#1E9B32" d="M860.9,249.6l-6.7,4.7c-0.5,0.4-1.3,0.2-1.7-0.3l-0.1-0.2c-0.4-0.5-0.2-1.3,0.3-1.7l6.7-4.7
			c0.5-0.4,1.3-0.2,1.7,0.3l0.1,0.2C861.6,248.5,861.5,249.2,860.9,249.6z"/>
		<path fill="#1E9B32" d="M855.5,246.8l4.7,6.7c0.4,0.5,0.2,1.3-0.3,1.7l-0.2,0.1c-0.5,0.4-1.3,0.2-1.7-0.3l-4.7-6.7
			c-0.4-0.5-0.2-1.3,0.3-1.7l0.2-0.1C854.4,246.1,855.1,246.3,855.5,246.8z"/>
		<path fill="#1E9B32" d="M834.2,252.1l-6.7,4.7c-0.5,0.4-1.3,0.2-1.7-0.3l-0.1-0.2c-0.4-0.5-0.2-1.3,0.3-1.7l6.7-4.7
			c0.5-0.4,1.3-0.2,1.7,0.3l0.1,0.2C834.8,251,834.7,251.7,834.2,252.1z"/>
		<path fill="#1E9B32" d="M828.8,249.3l4.7,6.7c0.4,0.5,0.2,1.3-0.3,1.7l-0.2,0.1c-0.5,0.4-1.3,0.2-1.7-0.3l-4.7-6.7
			c-0.4-0.5-0.2-1.3,0.3-1.7l0.2-0.1C827.6,248.6,828.4,248.8,828.8,249.3z"/>
		<path fill="#1E9B32" d="M852.2,285.6l-6.7,4.7c-0.5,0.4-1.3,0.2-1.7-0.3l-0.1-0.2c-0.4-0.5-0.2-1.3,0.3-1.7l6.7-4.7
			c0.5-0.4,1.3-0.2,1.7,0.3l0.1,0.2C852.9,284.4,852.8,285.2,852.2,285.6z"/>
		<path fill="#1E9B32" d="M846.8,282.8l4.7,6.7c0.4,0.5,0.2,1.3-0.3,1.7l-0.2,0.1c-0.5,0.4-1.3,0.2-1.7-0.3l-4.7-6.7
			c-0.4-0.5-0.2-1.3,0.3-1.7l0.2-0.1C845.7,282.1,846.4,282.2,846.8,282.8z"/>
		<path fill="#1E9B32" d="M805.3,230.3l-6.7,4.7c-0.5,0.4-1.3,0.2-1.7-0.3l-0.1-0.2c-0.4-0.5-0.2-1.3,0.3-1.7l6.7-4.7
			c0.5-0.4,1.3-0.2,1.7,0.3l0.1,0.2C806,229.2,805.8,229.9,805.3,230.3z"/>
		<path fill="#1E9B32" d="M799.9,227.5l4.7,6.7c0.4,0.5,0.2,1.3-0.3,1.7l-0.2,0.1c-0.5,0.4-1.3,0.2-1.7-0.3l-4.7-6.7
			c-0.4-0.5-0.2-1.3,0.3-1.7l0.2-0.1C798.8,226.8,799.5,227,799.9,227.5z"/>
		<path fill="#29662E" d="M752.1,159.3l-6.1,5.4c-0.5,0.4-1.2,0.4-1.7-0.1l-0.2-0.2c-0.4-0.5-0.4-1.2,0.1-1.7l6.1-5.4
			c0.5-0.4,1.2-0.4,1.7,0.1l0.2,0.2C752.6,158.1,752.6,158.9,752.1,159.3z"/>
		<path fill="#29662E" d="M746.4,157.2l5.4,6.1c0.4,0.5,0.4,1.2-0.1,1.7l-0.2,0.2c-0.5,0.4-1.2,0.4-1.7-0.1l-5.4-6.1
			c-0.4-0.5-0.4-1.2,0.1-1.7l0.2-0.2C745.2,156.7,746,156.7,746.4,157.2z"/>
		<path fill="#29662E" d="M795.6,143.2l-6.1,5.4c-0.5,0.4-1.2,0.4-1.7-0.1l-0.2-0.2c-0.4-0.5-0.4-1.2,0.1-1.7l6.1-5.4
			c0.5-0.4,1.2-0.4,1.7,0.1l0.2,0.2C796.2,142,796.1,142.8,795.6,143.2z"/>
		<path fill="#29662E" d="M789.9,141.1l5.4,6.1c0.4,0.5,0.4,1.2-0.1,1.7L795,149c-0.5,0.4-1.2,0.4-1.7-0.1l-5.4-6.1
			c-0.4-0.5-0.4-1.2,0.1-1.7l0.2-0.2C788.7,140.5,789.5,140.6,789.9,141.1z"/>
		<path fill="#29662E" d="M778.6,162.6l-6.1,5.4c-0.5,0.4-1.2,0.4-1.7-0.1l-0.2-0.2c-0.4-0.5-0.4-1.2,0.1-1.7l6.1-5.4
			c0.5-0.4,1.2-0.4,1.7,0.1l0.2,0.2C779.2,161.4,779.1,162.1,778.6,162.6z"/>
		<path fill="#29662E" d="M772.9,160.4l5.4,6.1c0.4,0.5,0.4,1.2-0.1,1.7l-0.2,0.2c-0.5,0.4-1.2,0.4-1.7-0.1l-5.4-6.1
			c-0.4-0.5-0.4-1.2,0.1-1.7l0.2-0.2C771.8,159.9,772.5,160,772.9,160.4z"/>
		<path fill="#937BD6" d="M823.5,747.8l34.5-22.5l43.7-45.9c0,0,10-42.8,16.4-54.7s-23.6-90.2-23.6-90.2
			c0.1-16.9-22.5-37.6-22.5-37.6l-26,79.6c0,0-12.9,35.9-29.6,68.3c0,0-12.7,23.6-41.5,58.2c-16.3,19.6-38,43.5-38,43.5l24.4,10.1
			l30.2,0.2L823.5,747.8z"/>
		<path opacity="0.2" enable-background="new    " d="M882,528.7c0-16.9-9.9-31.8-9.9-31.8l-26,79.6c0,0-12.9,35.9-29.6,68.3
			c0,0-12.7,23.6-41.5,58.2c-16.3,19.6-38,43.5-38,43.5l24.4,10.1l25.2-20.7l13.6-40.8l31.9-52.7l18.2-32.2l11.3-50.8L882,528.7z"/>
		<path fill="#6A5AAF" d="M854,607.4c-0.9,2.4-3.5,3.6-5.9,2.7l2.9-8.4C853.5,602.4,854.8,605,854,607.4L854,607.4z"/>
		<path fill="#6A5AAF" d="M868.4,566.7c-0.8,2.3-3.7,3.4-6.5,2.5l2.9-8.5C867.6,561.7,869.2,564.4,868.4,566.7z"/>
		<path fill="#6A5AAF" d="M871.8,596.7c-0.8,2.3-4.6,3.1-8.4,1.8l2.9-8.4C870.1,591.5,872.6,594.4,871.8,596.7z"/>
		<path fill="#6A5AAF" d="M889.8,555.7c-0.8,2.3-4.6,3.1-8.4,1.8l2.9-8.4C888.2,550.4,890.6,553.4,889.8,555.7z"/>
		<path fill="#6A5AAF" d="M816.3,670.3c-1.2,2.2-3.9,3.1-6.2,2l3.8-8.1C816.2,665.3,817.3,668,816.3,670.3L816.3,670.3z"/>
		<path fill="#6A5AAF" d="M834.9,631.4c-1,2.2-4,3-6.7,1.8l3.8-8C834.7,626.4,836,629.2,834.9,631.4z"/>
		<path fill="#6A5AAF" d="M851.3,663.9c-1,2.2-4,3-6.7,1.8l3.8-8C851,658.9,852.3,661.7,851.3,663.9z"/>
		<path fill="#6A5AAF" d="M895.2,596.8c-1.1,2.2-4.1,3-6.7,1.8l3.8-8C895,591.7,896.3,594.6,895.2,596.8z"/>
		<path fill="#6A5AAF" d="M880,628.5c-1,2.2-4,3-6.7,1.8l3.8-8C879.7,623.4,881,626.3,880,628.5z"/>
		<path fill="#6A5AAF" d="M758.9,736.4c-1.5,1.9-4.7,2-6.9,0.1l5.7-6.9C759.9,731.5,760.4,734.6,758.9,736.4z"/>
		<path fill="#6A5AAF" d="M786.1,719.3c-1.5,1.9-5.4,1.4-8.5-1.2l5.7-6.9C786.4,713.7,787.6,717.4,786.1,719.3z"/>
		<path fill="#6A5AAF" d="M851.3,708.3c-1.6,1.9-4.5,2.1-6.4,0.5l0,0l5.7-6.9C852.5,703.4,852.9,706.2,851.3,708.3
			C851.4,708.2,851.4,708.3,851.3,708.3z"/>
		<path fill="#6A5AAF" d="M801.5,749.7c-1.9,1.7-4.7,1.6-6.5-0.2l6.4-6.2C803.3,745,803.3,747.9,801.5,749.7
			C801.6,749.7,801.5,749.7,801.5,749.7z"/>
		<path fill="#6A5AAF" d="M825.1,724.2c-1.8,1.7-4.8,1.4-6.9-0.7l6.4-6.2C826.7,719.4,826.9,722.5,825.1,724.2z"/>
		<path fill="#6A5AAF" d="M878.8,675c-1.6,1.9-4.7,1.9-6.9,0.1l5.7-6.9C879.8,670,880.4,673.1,878.8,675z"/>
		<path fill="#6A5AAF" d="M871.7,704.4c-1.6,1.9-5.4,1.4-8.5-1.2l5.7-6.9C872,698.9,873.3,702.5,871.7,704.4z"/>
		<path fill="#707070" d="M920.6,566.4c7.2-3.4,10.3-12,6.8-19.2c-3.4-7.2-12-10.3-19.2-6.8c-0.2,0.1-0.4,0.2-0.6,0.3
			c-8.9,4.5-13.9,4.5-13.9,4.5l7.5,14.9l7.5,14.9C908.7,574.9,911.6,570.9,920.6,566.4z"/>
		<path fill="#29662E" d="M922.1,551.1l-7.3,3.7c-0.6,0.3-1.3,0.1-1.6-0.5l-0.1-0.2c-0.3-0.6-0.1-1.3,0.5-1.6l7.3-3.7
			c0.6-0.3,1.3-0.1,1.6,0.5l0.1,0.2C923,550.1,922.7,550.8,922.1,551.1z"/>
		<path fill="#29662E" d="M914.9,548.9c-0.3-0.6-0.1-1.4,0.6-1.8l0,0c0.6-0.3,1.4-0.1,1.8,0.6l0,0l3.6,7c0.3,0.7,0.1,1.4-0.6,1.8
			l0,0c-0.7,0.3-1.4,0.1-1.8-0.6"/>
		<path fill="#A2A3A2" d="M917.8,658.6c7.3,3.2,15.8-0.2,19-7.5s-0.2-15.8-7.5-19c-9.2-4-12.4-7.8-12.4-7.8l-6.6,15.3l-6.6,15.3
			C903.7,654.9,908.7,654.7,917.8,658.6z"/>
		<path fill="#1E9B32" d="M930.5,650.2L923,647c-0.6-0.3-0.9-1-0.6-1.6l0.1-0.2c0.3-0.6,1-0.9,1.6-0.6l7.5,3.2
			c0.6,0.3,0.9,1,0.6,1.6l-0.1,0.2C931.8,650.1,931.1,650.4,930.5,650.2z"/>
		<path fill="#1E9B32" d="M924.4,650.5l3.2-7.5c0.3-0.6,1-0.9,1.6-0.6l0.2,0.1c0.6,0.3,0.9,1,0.6,1.6l-3.2,7.5
			c-0.3,0.6-1,0.9-1.6,0.6L925,652C924.4,651.8,924.2,651.1,924.4,650.5z"/>
		<path fill="#707070" d="M882.8,719.5c6.4,4.8,15.4,3.6,20.2-2.8c4.8-6.4,3.6-15.4-2.8-20.2c-0.1-0.1-0.2-0.1-0.2-0.2
			c-8-6-8.5-9.1-8.5-9.1s-8.4,7.6-11.7,12.1l-9.9,13.4C869.9,712.7,874.8,713.5,882.8,719.5z"/>
		<path fill="#29662E" d="M897.1,714.1l-6.6-4.9c-0.5-0.4-0.6-1.1-0.2-1.7l0.2-0.2c0.4-0.5,1.1-0.6,1.7-0.2l6.6,4.9
			c0.5,0.4,0.6,1.1,0.2,1.7l-0.2,0.2C898.4,714.4,897.7,714.5,897.1,714.1z"/>
		<path fill="#29662E" d="M891.1,713.1l4.9-6.6c0.4-0.5,1.1-0.6,1.7-0.2l0.2,0.2c0.5,0.4,0.6,1.1,0.2,1.7l-4.9,6.6
			c-0.4,0.5-1.1,0.6-1.7,0.2l-0.2-0.2C890.8,714.4,890.7,713.7,891.1,713.1z"/>
		<path fill="#A2A3A2" d="M901.8,692.9c7.3,3.2,15.8-0.2,19-7.5s-0.2-15.8-7.5-19c-9.2-4-10.3-6.9-10.3-6.9s-6.4,9.3-8.7,14.4
			l-6.6,15.3C887.7,689.2,892.6,688.9,901.8,692.9z"/>
		<path fill="#1E9B32" d="M914.4,684.4l-7.5-3.2c-0.6-0.3-0.9-1-0.6-1.6l0.1-0.2c0.3-0.6,1-0.9,1.6-0.6l7.5,3.2
			c0.6,0.3,0.9,1,0.6,1.6l-0.1,0.2C915.7,684.4,915,684.7,914.4,684.4z"/>
		<path fill="#1E9B32" d="M908.4,684.7l3.2-7.5c0.3-0.6,1-0.9,1.6-0.6l0.2,0.1c0.6,0.3,0.9,1,0.6,1.6l-3.2,7.5
			c-0.3,0.6-1,0.9-1.6,0.6l-0.2-0.1C908.4,686.1,908.1,685.4,908.4,684.7z"/>
		<path fill="#A2A3A2" d="M922.6,594.6c7.9-1.1,13.4-8.4,12.3-16.3c-1.1-7.9-8.4-13.4-16.3-12.3c-9.9,1.4-14.6-0.2-14.6-0.2
			s0.9,10.1,2.3,16.5s6.9,15.8,6.9,15.8S912.7,596,922.6,594.6z"/>
		<path fill="#1E9B32" d="M929.2,579.7l-8.1,1.1c-0.7,0.1-1.3-0.4-1.3-1v-0.3c-0.1-0.7,0.4-1.3,1-1.3l8.1-1.1c0.7-0.1,1.3,0.4,1.3,1
			v0.3C930.3,579,929.8,579.6,929.2,579.7z"/>
		<path fill="#1E9B32" d="M924.2,583.1L923,575c-0.1-0.7,0.4-1.3,1-1.3h0.3c0.7-0.1,1.3,0.4,1.3,1l1.1,8.1c0.1,0.7-0.4,1.3-1,1.3
			h-0.3C924.9,584.2,924.3,583.7,924.2,583.1z"/>
		
			<ellipse transform="matrix(0.8119 -0.5838 0.5838 0.8119 -341.4342 215.6874)" fill="#292254" cx="164" cy="637.7" rx="7.6" ry="41"/>
		<polygon fill="#FFFFFF" points="741.2,96.9 738.5,95 761.9,62.4 764.6,64.3 		"/>
		<path fill="#57A6FF" d="M759.2,65.8c2.1,2.7,6,3.1,8.6,1s3.1-6,1-8.6c-2.1-2.7-6-3.1-8.6-1C757.6,59.3,757.1,63.2,759.2,65.8
			L759.2,65.8z"/>
		<path fill="#FFFFFF" d="M764.8,59.6c0.5,0.6,1.4,0.8,2,0.3s0.8-1.4,0.3-2s-1.4-0.8-2-0.3l0,0C764.5,58.1,764.4,59,764.8,59.6z"/>
		<circle fill="#FFFFFF" cx="735.9" cy="100.9" r="36.7"/>
		<path fill="#E0E0E0" d="M766.1,121.7c-11.5,16.6-34.3,20.8-51,9.3c3.3-3.5,39-56.2,41.7-60.3C773.4,82.3,777.6,105.1,766.1,121.7z
			"/>
		
			<rect x="691.4" y="85.3" transform="matrix(0.5801 -0.8145 0.8145 0.5801 217.6623 605.3553)" fill="#EF4F4D" width="9.2" height="12.5"/>
		
			<rect x="684.8" y="94.5" transform="matrix(0.5801 -0.8145 0.8145 0.5801 207.3564 603.8423)" fill="#EF4F4D" width="9.2" height="12.5"/>
		
			<rect x="678.2" y="103.8" transform="matrix(0.5801 -0.8145 0.8145 0.5801 197.0633 602.3198)" fill="#EF4F4D" width="9.2" height="12.5"/>
		
			<rect x="671.7" y="113" transform="matrix(0.5801 -0.8145 0.8145 0.5801 186.835 600.9108)" fill="#EF4F4D" width="9.2" height="12.5"/>
		
			<rect x="665.1" y="122.2" transform="matrix(0.5801 -0.8145 0.8145 0.5801 176.5408 599.3959)" fill="#EF4F4D" width="9.2" height="12.5"/>
		<polygon fill="#FFFFFF" points="666,136.9 724.4,178.6 764,123.4 705.5,81.8 		"/>
		<path fill="#E0E0E0" d="M711.4,175.7c0,0,5.8,2.7,8.5,3.2c1,0.2,2,0.3,3,0.3c0.6,0,1.1-0.2,1.5-0.7l39.6-55.2l-9.9-7.1
			L711.4,175.7z"/>
		<path fill="#A73935" d="M770.3,122.7c1.4-1.9,0.9-4.5-1-5.9l0,0l-59.2-42.1c-1.9-1.4-4.5-0.9-5.9,1l0,0l0,0
			c-1.4,1.9-0.9,4.5,1,5.9l0,0l59.2,42.2C766.3,125,768.9,124.6,770.3,122.7L770.3,122.7z"/>
		<path fill="#EF4F4D" d="M769.3,116.7l-59.2-42.1c-1.9-1.4-4.5-0.9-5.9,1l0,0l66.1,47.1C771.6,120.8,771.2,118.1,769.3,116.7
			L769.3,116.7z"/>
		<path fill="#3469D3" d="M698,168.3c0,0-3.1-2-6.9-4.6c-3.5-2.4-7.4-5.4-10-7.5c-2.6-2.2-5.2-4.5-7.6-6.9c-2.3-2.3-3.8-4.1-3.8-4.1
			l37-51.6l29.8,21.2L698,168.3z"/>
		<polygon fill="#57A6FF" points="669.8,145.2 736.6,114.8 706.8,93.6 		"/>
		<path fill="#FFFFFF" d="M697.2,124.2c-0.9,1.2-2.6,1.5-3.9,0.6l0,0c-1.3-0.9-1.5-2.6-0.7-3.9l0,0l13.2-18.5
			c0.9-1.2,2.6-1.5,3.9-0.6l0,0c1.3,0.9,1.6,2.6,0.7,3.9l0,0L697.2,124.2z"/>
		<path fill="#FFFFFF" d="M692.7,130.5c-0.9,1.3-2.6,1.6-3.9,0.7c-1.3-0.9-1.6-2.6-0.7-3.9c0.9-1.3,2.6-1.6,3.9-0.7l0,0
			C693.3,127.5,693.6,129.2,692.7,130.5L692.7,130.5z"/>
		<polygon fill="#457F7E" points="368.1,239.2 371,249.1 381,252.1 371,255.1 368.1,265 365.1,255.1 355.2,252.1 365.1,249.1 		"/>
		<polygon fill="#457F7E" points="445.8,223.3 447.2,228 451.9,229.3 447.2,230.7 445.8,235.4 444.4,230.7 439.7,229.3 444.4,228 		
			"/>
		<polygon fill="#457F7E" points="308.6,287.4 310,292.1 314.7,293.5 310,294.9 308.6,299.6 307.2,294.9 302.5,293.5 307.2,292.1 		
			"/>
		<polygon fill="#457F7E" points="569.8,258.3 563.5,266.5 566.9,276.3 558.7,270 548.9,273.4 555.2,265.2 551.8,255.4 560,261.7 		
			"/>
		<polygon fill="#457F7E" points="712.7,359 709.6,362.9 711,367.3 707.2,364.6 702.5,366.4 705.7,362.5 704.3,358 708,360.8 		"/>
		<polygon fill="#457F7E" points="702,525.5 699,529.3 700.6,534 696.7,531 692.1,532.6 695.1,528.7 693.5,524.1 697.3,527.1 		"/>
		<polygon fill="#457F7E" points="614.2,678.8 611.2,682.6 612.8,687.3 609,684.3 604.3,685.9 607.3,682 605.7,677.4 609.6,680.4 		
			"/>
		<polygon fill="#457F7E" points="363.1,647.7 360.2,651.5 361.8,656.2 357.9,653.2 353.3,654.8 356.3,650.9 354.6,646.3 
			358.5,649.3 		"/>
		<polygon fill="#457F7E" points="225.4,426.6 222.4,430.4 224,435.1 220.2,432.1 215.5,433.7 218.5,429.8 216.9,425.2 220.8,428.2 
					"/>
		<polygon fill="#457F7E" points="665.6,337.8 662.4,341.8 663.8,346.2 660.1,343.5 655.4,345.2 658.5,341.3 657.1,336.9 
			660.9,339.6 		"/>
		<polygon fill="#457F7E" points="633.9,293.7 630.9,297.6 632.6,302.2 628.7,299.3 624.1,300.9 627,297 625.4,292.4 629.3,295.3 		
			"/>
		<path fill="#6D6B43" d="M303.6,196.5c-0.3-0.2-0.7-0.1-1,0.1l-6,3.7l-5.9-9.4c-0.3-0.5-0.9-0.6-1.4-0.3c-0.3,0.2-0.5,0.6-0.5,1
			l2.8,19.6c0.1,0.5,0.6,0.9,1.1,0.9c0.1,0,0.3-0.1,0.4-0.1l6-3.7l5.9,9.4c0.3,0.4,0.8,0.6,1.2,0.4l0.2-0.1c0.3-0.2,0.5-0.6,0.5-1
			l-2.8-19.6C304,196.9,303.9,196.6,303.6,196.5z"/>
		<path fill="#ADA88C" d="M303.6,196.5c-0.3-0.2-0.7-0.1-1,0.1l-6,3.7l-5.5-8.7l2.4,16.6c0,0.3,0.3,0.6,0.6,0.8
			c0.3,0.2,0.7,0.1,1-0.1l6-3.7l5.5,8.7l-2.4-16.6C304.1,196.9,303.9,196.6,303.6,196.5z"/>
		<path fill="#6D6B43" d="M669.9,208.7c0.1-0.3-0.1-0.7-0.3-0.9l-5.3-4.7l7.3-8.3c0.4-0.4,0.4-1-0.1-1.4c-0.3-0.3-0.7-0.3-1.1-0.2
			l-18,8.2c-0.3,0.1-0.5,0.4-0.6,0.8c-0.1,0.3,0.1,0.7,0.3,0.9l5.3,4.7l-7.3,8.3c-0.3,0.4-0.3,0.9-0.1,1.3l0.1,0.2
			c0.3,0.3,0.7,0.3,1.1,0.2l18-8.2C669.7,209.4,669.9,209.1,669.9,208.7z"/>
		<path fill="#ADA88C" d="M669.9,208.7c0.1-0.3-0.1-0.7-0.3-0.9l-5.3-4.7l6.8-7.7l-15.3,7c-0.3,0.1-0.5,0.4-0.6,0.8
			c-0.1,0.3,0.1,0.7,0.3,0.9l5.3,4.7l-6.8,7.7l15.3-7C669.7,209.4,669.9,209.1,669.9,208.7z"/>
		<path fill="#6D6B43" d="M783.8,549.6c0.3-0.1,0.5-0.4,0.6-0.7l1.4-6.9l10.8,2.1c0.5,0.1,1.1-0.2,1.2-0.8c0.1-0.4-0.1-0.8-0.4-1.1
			l-16.2-11.4c-0.3-0.2-0.6-0.2-1-0.1c-0.3,0.1-0.5,0.4-0.6,0.7l-1.4,6.9l-10.8-2.1c-0.5-0.1-0.9,0.2-1.1,0.6c0,0.1,0,0.1-0.1,0.2
			c-0.1,0.4,0.1,0.8,0.4,1l16.2,11.4C783.2,549.7,783.5,549.7,783.8,549.6z"/>
		<path fill="#ADA88C" d="M783.8,549.6c0.3-0.1,0.5-0.4,0.6-0.7l1.4-6.9l10.1,2l-13.7-9.7c-0.4-0.3-1.1-0.2-1.4,0.2
			c-0.1,0.1-0.1,0.3-0.2,0.4l-1.4,6.9l-10.1-2l13.8,9.7C783.2,549.7,783.5,549.8,783.8,549.6z"/>
		<path fill="#6D6B43" d="M563.4,762c0.2,0.3,0.5,0.5,0.8,0.5l7,0.3l-0.4,11c0,0.6,0.4,1,0.9,1.1c0.4,0,0.8-0.2,1-0.6l8.7-17.8
			c0.2-0.3,0.2-0.7,0-1s-0.5-0.5-0.8-0.5l-7-0.3l0.4-11c0-0.5-0.3-0.9-0.8-1H573c-0.4,0-0.8,0.2-1,0.6l-8.7,17.8
			C563.2,761.3,563.2,761.7,563.4,762z"/>
		<path fill="#ADA88C" d="M563.4,762c0.2,0.3,0.5,0.5,0.8,0.5l7,0.3l-0.4,10.3l7.4-15.1c0.2-0.3,0.2-0.7,0-1s-0.5-0.5-0.8-0.5
			l-7-0.3l0.4-10.3l-7.4,15.1C563.2,761.3,563.2,761.7,563.4,762z"/>
		<path fill="#6D6B43" d="M386.9,766.2c0.3,0.2,0.6,0.3,0.9,0.2l6.7-2.3l3.6,10.4c0.2,0.5,0.6,0.7,1.1,0.7c0.5-0.1,0.8-0.4,0.9-0.9
			l1.6-19.7c0-0.3-0.1-0.7-0.4-0.9s-0.7-0.3-1-0.2l-6.6,2.3l-3.6-10.4c-0.2-0.4-0.6-0.7-1.1-0.7h-0.2c-0.4,0.1-0.6,0.5-0.7,0.9
			l-1.6,19.7C386.4,765.7,386.6,766,386.9,766.2z"/>
		<path fill="#ADA88C" d="M386.9,766.2c0.3,0.2,0.6,0.3,0.9,0.2l6.7-2.3l3.4,9.7l1.4-16.7c0-0.6-0.4-1-0.9-1.1c-0.1,0-0.3,0-0.4,0.1
			l-6.6,2.3l-3.4-9.7l-1.4,16.7C386.5,765.7,386.7,766,386.9,766.2z"/>
		<path fill="#6D6B43" d="M187.2,594.3c-0.2,0.3-0.2,0.7,0,1l3.4,6.2l-9.7,5.3c-0.4,0.2-0.6,0.7-0.5,1.2s0.6,0.8,1,0.7l19.7-1.6
			c0.3,0,0.6-0.2,0.8-0.5s0.2-0.7,0-1l-3.4-6.2l9.7-5.3c0.4-0.2,0.6-0.7,0.5-1.2c0-0.1,0-0.1-0.1-0.2c-0.2-0.4-0.6-0.6-1-0.5
			l-19.7,1.6C187.6,593.8,187.3,594,187.2,594.3z"/>
		<path fill="#ADA88C" d="M187.2,594.3c-0.2,0.3-0.2,0.7,0,1l3.4,6.2l-9,4.9l16.7-1.4c0.3,0,0.6-0.2,0.8-0.5s0.2-0.7,0-1l-3.4-6.2
			l9-4.9l-16.7,1.3C187.6,593.8,187.3,594,187.2,594.3z"/>
		<path fill="#6D6B43" d="M176.9,356.4c-0.3,0.1-0.6,0.3-0.7,0.7l-2.3,6.7l-10.5-3.6c-0.5-0.2-1.1,0.1-1.3,0.6
			c-0.1,0.4,0,0.8,0.3,1.1l14.5,13.5c0.2,0.2,0.6,0.3,0.9,0.2c0.3-0.1,0.6-0.3,0.7-0.7l2.3-6.7l10.5,3.6c0.4,0.2,0.9,0,1.2-0.4
			c0-0.1,0.1-0.1,0.1-0.2c0.1-0.4,0-0.8-0.3-1.1l-14.5-13.5C177.6,356.4,177.3,356.3,176.9,356.4z"/>
		<path fill="#ADA88C" d="M176.9,356.4c-0.3,0.1-0.6,0.3-0.7,0.7l-2.3,6.7l-9.7-3.3l12.3,11.4c0.2,0.2,0.6,0.3,0.9,0.2
			c0.3-0.1,0.6-0.3,0.7-0.7l2.3-6.7l9.7,3.3l-12.3-11.4C177.6,356.4,177.3,356.3,176.9,356.4z"/>
		<g opacity="0.8">
			<g>
				<g>
					<defs>
						
							<ellipse id="SVGID_1_" transform="matrix(0.5681 -0.8229 0.8229 0.5681 -561.104 528.9634)" cx="223.4" cy="799.1" rx="51.7" ry="76.7"/>
					</defs>
					<clipPath id="SVGID_2_">
						<use xlink:href="#SVGID_1_"  overflow="visible"/>
					</clipPath>
					<g clip-path="url(#SVGID_2_)">
						<circle fill="#CFCFFF" cx="235.5" cy="779.8" r="54.4"/>
						<circle opacity="0.3" fill="#353E3F" enable-background="new    " cx="235.5" cy="779.8" r="54.4"/>
						<path opacity="0.1" fill="#353E3F" enable-background="new    " d="M190.7,748.8c17.1-24.7,51-31,75.7-13.9l0,0l-61.9,89.6
							C179.8,807.5,173.6,773.6,190.7,748.8L190.7,748.8z"/>
					</g>
				</g>
			</g>
		</g>
		<path fill="#FFFFFF" d="M203.1,745.9c0,0-28.7,20.1-8.6,52.8C194.5,798.6,182,771.1,203.1,745.9"/>
		<path fill="#3ABA77" d="M209.8,816.2c-7.5-5.2-15.5-9.8-23.8-13.7c4.1,8.9,10.6,16.6,18.7,22.1c7.9,5.5,17.2,8.8,26.8,9.4
			C224.8,827.5,217.6,821.5,209.8,816.2z"/>
		<polygon fill="#009695" points="198.3,833.7 200.1,835 207.3,826.4 203.7,823.9 		"/>
		<circle fill="#3ABA77" cx="199.5" cy="833.9" r="5"/>
		<circle fill="#FFFFFF" cx="197.5" cy="834.6" r="2.2"/>
		<path fill="#FBFF48" d="M228.3,771.7c-0.1,0.2,0,0.4,0.2,0.6c0.8,0.5,1,1.5,0.5,2.3c-0.3,0.4-0.7,0.7-1.1,0.7
			c-0.2,0-0.4,0.2-0.3,0.4c0,0.6,0.2,1.1,0.3,1.6c0.1,0.2,0.3,0.3,0.5,0.3c0.7-0.2,1.4,0.1,1.8,0.7c0.4,0.6,0.4,1.3,0,1.9
			c-0.1,0.2-0.1,0.4,0.1,0.6c0.4,0.4,0.9,0.7,1.4,0.9c0.2,0.1,0.4,0,0.5-0.2c0.4-0.6,1-0.9,1.7-0.8c0.7,0.1,1.2,0.7,1.3,1.4
			c0,0.2,0.2,0.4,0.5,0.3c0.6,0,1.1-0.2,1.6-0.3c0.2-0.1,0.3-0.3,0.3-0.5c-0.2-0.7,0.1-1.4,0.7-1.8c0.6-0.4,1.3-0.4,1.9,0
			c0.2,0.1,0.4,0.1,0.6-0.1c0.4-0.4,0.7-0.9,0.9-1.4c0.1-0.2,0-0.5-0.2-0.6c-0.8-0.5-1-1.5-0.5-2.3c0.3-0.4,0.7-0.7,1.1-0.7
			c0.2,0,0.4-0.2,0.4-0.5c-0.1-0.6-0.2-1.1-0.3-1.6c-0.1-0.2-0.3-0.3-0.5-0.3c-0.7,0.2-1.4-0.1-1.8-0.7c-0.4-0.6-0.4-1.3,0-1.9
			c0.1-0.2,0.1-0.4-0.1-0.6c-0.2-0.2-0.4-0.4-0.7-0.5c-0.2-0.1-0.5-0.3-0.7-0.4c-0.2-0.1-0.4,0-0.5,0.2c-0.4,0.6-1,0.9-1.7,0.8
			c-0.7-0.1-1.2-0.7-1.3-1.4c0-0.2-0.2-0.4-0.5-0.3c-0.6,0-1.1,0.2-1.7,0.3c-0.2,0.1-0.3,0.3-0.3,0.5c0.2,0.7-0.1,1.4-0.7,1.8
			c-0.6,0.4-1.3,0.4-1.8,0h-0.1c-0.2-0.1-0.4-0.1-0.6,0.1C228.9,770.8,228.6,771.2,228.3,771.7L228.3,771.7z M236.3,773
			c1.1,0.8,1.5,2.3,0.7,3.4c-0.8,1.1-2.3,1.5-3.4,0.7c-1.1-0.8-1.5-2.3-0.7-3.4l0,0C233.6,772.6,235.2,772.3,236.3,773L236.3,773z"
			/>
		
			<rect x="215.6" y="762.7" transform="matrix(0.5655 -0.8247 0.8247 0.5655 -533.5676 515.7665)" fill="#8E8E8E" width="14.2" height="3.2"/>
		
			<rect x="220.3" y="766.1" transform="matrix(0.5667 -0.8239 0.8239 0.5667 -533.98 519.9615)" fill="#8E8E8E" width="14.2" height="3.2"/>
		
			<rect x="239.9" y="779.3" transform="matrix(0.5657 -0.8246 0.8246 0.5657 -536.6301 542.8454)" fill="#8E8E8E" width="14.2" height="3.2"/>
		
			<rect x="244.5" y="782.6" transform="matrix(0.5661 -0.8243 0.8243 0.5661 -537.2909 547.6309)" fill="#8E8E8E" width="14.2" height="3.2"/>
		<path fill="#D1D1D1" d="M214.3,769.2c1.9-2.8,5.7-3.5,8.5-1.6l0,0l24.1,16.6c2.8,1.9,3.5,5.7,1.6,8.5l-9,13.1
			c-1.9,2.8-5.7,3.5-8.5,1.6l0,0L208.7,788c-2.8-1.9-3.5-5.7-1.6-8.5L214.3,769.2z"/>
		<path fill="#8E8E8E" d="M243.9,807.1c2.5-1.8,5.6-2.7,8.7-2.6c3,0.2,5,1.5,5.8,3.4c-2.5,1.8-5.6,2.7-8.7,2.6
			C246.7,810.3,244.6,809,243.9,807.1z"/>
		<path fill="#606060" d="M252.6,804.5c-3.1-0.1-6.2,0.8-8.7,2.6l14.5,0.8C257.6,806,255.6,804.7,252.6,804.5z"/>
		<path fill="#8E8E8E" d="M236.8,802.2c0.7-3,0.5-6.2-0.7-9c-1.2-2.7-3.2-4.2-5.3-4.2c-0.7,3-0.5,6.2,0.7,9
			C232.7,800.7,234.7,802.2,236.8,802.2z"/>
		<path fill="#606060" d="M236,793.1c1.2,2.8,1.5,6,0.7,9l-6-13.2C232.8,789,234.8,790.4,236,793.1z"/>
		<path fill="#C5C5C5" d="M248.4,821.7c0,0-0.3-7.9-4.1-10.9s3.8-5.5,3.8-5.5S256.9,814.6,248.4,821.7z"/>
		<path fill="#C5C5C5" d="M220.7,802.7c0,0,7.5-2.5,11.6-0.1s3.8-5.5,3.8-5.5S224.4,792.2,220.7,802.7z"/>
		<path fill="#D1D1D1" d="M238.7,790c1.9-2.8,5.7-3.5,8.5-1.6l0,0l5.5,3.8c2.8,1.9,3.5,5.7,1.6,8.5l0,0l-6.5,9.5
			c-1.9,2.8-5.7,3.5-8.5,1.6l0,0l-5.5-3.8c-2.8-1.9-3.5-5.7-1.6-8.5L238.7,790z"/>
		<path fill="#8E8E8E" d="M233.8,808l2.9,2l13.5-19.6l-2.8-1.9c-2.8-1.9-6.6-1.2-8.5,1.6l0,0l-6.5,9.5
			C230.4,802.3,231.1,806.1,233.8,808z"/>
		<path fill="#C5C5C5" d="M240.5,782.1c1.9-2.8,5.7-3.5,8.5-1.6l0,0l10.7,7.4c2.8,1.9,3.5,5.7,1.6,8.5l0,0l-1,1.4
			c-1.9,2.8-5.7,3.5-8.5,1.6l0,0L241,792c-2.8-1.9-3.5-5.7-1.6-8.5L240.5,782.1z"/>
		<path fill="#606060" d="M254.9,791.7c0.7-1,2.1-1.3,3.2-0.6c1,0.7,1.3,2.1,0.6,3.2c-0.7,1-2.1,1.3-3.2,0.6
			C254.4,794.2,254.2,792.8,254.9,791.7L254.9,791.7z"/>
		<path fill="#606060" d="M243.6,784.1c0.7-1.1,2.1-1.3,3.2-0.6c1.1,0.7,1.3,2.1,0.6,3.2c-0.7,1.1-2.1,1.3-3.2,0.6l0,0
			C243.2,786.5,242.9,785.1,243.6,784.1z"/>
		<path fill="#FBFF48" d="M243.9,802.5c0.4-0.6,1.2-0.7,1.8-0.3l0,0c0.6,0.4,0.7,1.3,0.2,1.8c-0.4,0.5-1.1,0.6-1.7,0.3
			C243.6,803.9,243.5,803.1,243.9,802.5L243.9,802.5z"/>
		<path fill="#FBFF48" d="M238.9,799.1c0.4-0.6,1.2-0.7,1.8-0.3s0.7,1.2,0.3,1.8s-1.2,0.7-1.8,0.3l0,0
			C238.6,800.5,238.5,799.7,238.9,799.1z"/>
		<path fill="#8E8E8E" d="M205.8,781.7l0.3,1.6c-1-0.8-2.3-1.2-3.5-0.8c-2.1,0.8-2.9,3.9-2.9,4l-1.1-0.3c0-0.2,1-3.8,3.6-4.8
			C203.5,780.8,204.1,780.5,205.8,781.7z"/>
		<path fill="#C5C5C5" d="M226.5,784.2c-3.8,2.2-6.9-1.4-9.6-1.3s-4.2-3.8-3.5-5.9s4.5-5.2,9.9-3.3S230.8,781.7,226.5,784.2z"/>
		<path fill="#C5C5C5" d="M222.3,797.3c1.5-0.8,3.4-1.4,1.6-4.8c-1.6-2.9-4.9-4.5-8.1-3.9c-1.4,0.5-2.6,1.4-3.3,2.7
			c0.9,0.8,7.5,6.5,8.4,7.2C221.2,798,221.7,797.6,222.3,797.3z"/>
		<path fill="#FBFF48" d="M198.7,783.8c1.2,0,2.2,1,2.2,2.2s-1,2.2-2.2,2.2s-2.2-1-2.2-2.2S197.4,783.8,198.7,783.8z"/>
		<path fill="#606060" d="M254.3,777.4c-0.4,0.8-0.1,1.8,0.7,2.2c0.7,0.3,1.5,0.2,2-0.4L254.3,777.4z"/>
		<path fill="#606060" d="M249.7,774.2c-0.4,0.8-0.1,1.8,0.6,2.2c0.7,0.4,1.5,0.2,2-0.4L249.7,774.2z"/>
		<path fill="#606060" d="M230,760.9c-0.5,0.8-0.2,1.8,0.6,2.2c0.7,0.4,1.6,0.2,2.1-0.4L230,760.9z"/>
		<path fill="#606060" d="M225.5,757.7c-0.4,0.8-0.1,1.8,0.7,2.2c0.7,0.4,1.5,0.2,2-0.4L225.5,757.7z"/>
		
			<rect x="489.2" y="926.9" transform="matrix(0.9995 -3.123669e-02 3.123669e-02 0.9995 -29.0177 15.8066)" fill="#3ABA77" width="4.4" height="19.5"/>
		<polygon fill="#3ABA77" points="474.6,887.6 474.9,909.4 505.9,908.5 505.6,886.7 		"/>
		<path fill="#3ABA77" d="M509,917.8l-36.5,1.1c-5.2,0.2-9.6-3.9-9.7-9.1l0,0l55.4-1.7C518.3,913.3,514.2,917.7,509,917.8L509,917.8
			z"/>
		<path fill="#009695" d="M462.7,909.8c-0.2-5.2,3.9-9.6,9.2-9.7l36.5-1.1c5.2-0.2,9.6,3.9,9.7,9.2L462.7,909.8z"/>
		<path fill="#57A6FF" d="M506.2,917.9c0.3,8.6-6.4,15.7-15,16l0,0l-0.5-15.5L506.2,917.9z"/>
		<path fill="#3469D3" d="M491.2,933.9c-8.6,0.3-15.7-6.4-16-15l0,0l15.5-0.5L491.2,933.9z"/>
		<path fill="#3ABA77" d="M491.5,942.1c-4.7,0.1-8.3,4-8.2,8.7c0.1,4.7,4,8.3,8.7,8.2s8.3-4,8.2-8.7l0,0
			C500,945.6,496.1,941.9,491.5,942.1L491.5,942.1z"/>
		<path fill="#FFFFFF" d="M493.9,950.1c-1.6,0.1-2.9,1.4-2.8,3s1.4,2.9,3,2.8c1.6-0.1,2.9-1.4,2.8-3
			C496.9,951.3,495.5,950,493.9,950.1L493.9,950.1z"/>
		<path fill="#AAAAAA" d="M440.2,787.7l-25.7,6.5l-14.9,10.5c1.5,48.5,42.1,86.6,90.6,85.1l0,0l0,0
			C464.1,890.6,441.7,836.2,440.2,787.7z"/>
		<path fill="#FFFFFF" d="M490.2,889.7L490.2,889.7c48.5-1.5,86.6-42.1,85.1-90.6l-7.8-8.1l-32.8-6.4
			C536.2,833.2,516.3,888.9,490.2,889.7z"/>
		<path fill="#C5C5C5" d="M440.2,787.7c1.5,48.5,23.9,102.9,50,102.1l-2.7-103.5L440.2,787.7z"/>
		<path fill="#E0E0E0" d="M490.2,889.7c26.1-0.8,46-56.5,44.5-105l-47.3,1.5L490.2,889.7z"/>
		
			<rect x="511.9" y="807.7" transform="matrix(0.9995 -3.123669e-02 3.123669e-02 0.9995 -25.0997 16.6093)" fill="#FFFFFF" width="14.3" height="7.9"/>
		
			<rect x="499.9" y="808.2" transform="matrix(0.9995 -3.123669e-02 3.123669e-02 0.9995 -25.1228 16.1238)" fill="#FFFFFF" width="7.2" height="7.9"/>
		<path fill="#FBFF48" d="M495.9,829c-0.1-3.2,2.4-5.9,5.6-6s5.9,2.4,6,5.6c0.1,3.2-2.4,5.9-5.6,6C498.7,834.7,496,832.2,495.9,829
			L495.9,829z"/>
		<path fill="#FBFF48" d="M496.4,845.6c-0.1-3.2,2.4-5.9,5.6-6s5.9,2.4,6,5.6c0.1,3.2-2.4,5.9-5.6,6
			C499.2,851.3,496.5,848.8,496.4,845.6L496.4,845.6z"/>
		<path fill="#FBFF48" d="M496.9,862.2c-0.1-3.2,2.4-5.9,5.6-6s5.9,2.4,6,5.6c0.1,3.2-2.4,5.9-5.6,6
			C499.7,868,497,865.5,496.9,862.2L496.9,862.2z"/>
		<path fill="#FFFFFF" d="M469.1,806.7c-0.1-2.7,2.1-5,4.8-5.1l0,0c2.7-0.1,5,2.1,5.1,4.8l1.1,36.7c0.1,2.7-2.1,5-4.8,5.1l0,0
			c-2.7,0.1-5-2.1-5.1-4.8L469.1,806.7z"/>
		<path fill="#006663" d="M396,800.7c0.5,2,1.9,3.6,3.8,4.3c10.7-9.7,45-15.2,86.8-16.6s77.2,2.2,88.8,10.9c2.4-0.9,3.9-3.2,3.8-5.7
			c-0.1-1.9-1-3.6-2.5-4.6c-9.2-9.8-46.3-13.9-90.5-12.4c-50.8,1.7-90.7,9.5-90.2,23.5c0,0,0,0.1,0,0.2
			C395.9,800.4,396,800.6,396,800.7z"/>
		<polygon fill="#457F7E" points="489.6,658.6 486.4,662.5 487.8,666.9 484,664.2 479.3,666 482.5,662.1 481.1,657.7 484.9,660.4 		
			"/>
		<polygon fill="#457F7E" points="277.3,539.9 274.3,543.8 275.9,548.4 272,545.4 267.4,547 270.4,543.1 268.8,538.5 272.6,541.5 		
			"/>
	</g>
</g>
</svg>
