<?xml version="1.0" encoding="utf-8"?>
<!-- Generator: Adobe Illustrator 22.1.0, SVG Export Plug-In . SVG Version: 6.00 Build 0)  -->
<svg version="1.1" id="圖層_1" xmlns="http://www.w3.org/2000/svg" xmlns:xlink="http://www.w3.org/1999/xlink" x="0px" y="0px"
	 viewBox="0 0 1920.5 810.3" style="enable-background:new 0 0 1920.5 810.3;" xml:space="preserve">
<style type="text/css">
	.st0{fill:#18052D;}
	.st1{fill:#390569;}
	.st2{opacity:0.41;}
	.st3{opacity:0.3;fill:#72EDFC;enable-background:new    ;}
	.st4{fill:#25CFE0;}
	.st5{fill:#72EDFC;}
	.st6{opacity:0.3;}
	.st7{fill:#3194A3;}
	.st8{fill:#5E3698;}
	.st9{opacity:0.5;}
	.st10{fill:#7F60A6;}
	.st11{fill:#6F5599;}
	.st12{fill:#B8A3E4;}
	.st13{fill:#A693D8;}
	.st14{fill:#541949;}
	.st15{fill:#5B1A48;}
	.st16{fill:#721C62;}
	.st17{opacity:0.4;}
	.st18{clip-path:url(#SVGID_2_);}
	.st19{fill:#FFFFFF;}
	.st20{opacity:0.25;}
	.st21{clip-path:url(#SVGID_4_);}
	.st22{fill:#FFAF3C;}
	.st23{clip-path:url(#SVGID_6_);}
	.st24{fill:#EC8B2C;}
	.st25{fill:#DD7D26;}
	.st26{fill:#F29E30;}
	.st27{fill:#8470AF;}
	.st28{fill:#1A6562;}
	.st29{opacity:0.7;fill:url(#SVGID_7_);enable-background:new    ;}
	.st30{opacity:0.7;fill:url(#SVGID_8_);enable-background:new    ;}
	.st31{opacity:0.7;fill:url(#SVGID_9_);enable-background:new    ;}
	.st32{fill:#A73935;}
	.st33{fill:#EF4F4D;}
	.st34{fill:#F8AB1F;}
	.st35{opacity:0.2;enable-background:new    ;}
	.st36{fill:#57A6FF;}
	.st37{fill:#3469D3;}
	.st38{fill:#C5C5C5;}
	.st39{fill:#FF6A1D;}
	.st40{fill:#2A508C;}
	.st41{fill:#7F2D2D;}
	.st42{fill:#330666;}
	.st43{fill:#541B86;}
	.st44{fill:#581F93;}
</style>
<title>ta_content</title>
<g id="_0-bg">
	<rect x="0.7" class="st0" width="1920" height="810.3"/>
</g>
<path class="st1" d="M164.4,334.7c-3.3,17.7-20.3,29.3-38,26s-29.3-20.3-26-38s20.3-29.3,38-26C156,300,167.7,317,164.4,334.7
	L164.4,334.7"/>
<path class="st1" d="M1899,441c-2.6,14.1-16.1,23.3-30.2,20.7c-14.1-2.6-23.3-16.1-20.7-30.2c2.6-14.1,16.1-23.3,30.2-20.7l0,0
	C1892.3,413.4,1901.6,427,1899,441"/>
<g class="st2">
	<path class="st3" d="M149.3,152.8c5-26.7,30.7-44.3,57.4-39.4c26.7,5,44.3,30.7,39.4,57.4s-30.7,44.3-57.4,39.4l0,0
		C162,205.2,144.4,179.5,149.3,152.8z"/>
	<path class="st4" d="M152.8,153.5c4.6-24.8,28.5-41.2,53.3-36.5c24.8,4.6,41.2,28.5,36.5,53.3c-4.6,24.8-28.5,41.2-53.3,36.5
		S148.2,178.3,152.8,153.5L152.8,153.5z"/>
	<path class="st5" d="M184,179.7L184,179.7c0.5-2.4-1.1-4.7-3.6-5.2l0,0l-4.1-0.8c-2.1-0.4-3.5-2.4-3.1-4.6l0,0
		c0.4-2.1,2.4-3.5,4.6-3.1l11.7,2.2c1.8,0.4,3.6-0.8,4-2.7l0,0l0,0c0.4-1.8-0.9-3.6-2.7-4l0,0l-25.9-4.8c-2-0.4-3.4-2.4-3-4.4l0,0
		c0.4-2,2.4-3.4,4.4-3l8.5,1.6c2.1,0.4,4-1,4.4-3l0,0c0.4-2-1-4-3-4.4l-18.5-3.4c-6.5,12-7.4,26.3-2.3,38.9l23.5,4.4
		C181.3,183.7,183.6,182.1,184,179.7z"/>
	<path class="st5" d="M195.6,141.1L195.6,141.1c-0.5,2.4,1.1,4.7,3.6,5.2l0,0l25.5,4.8c1.8,0.3,3.1,2.1,2.7,4l0,0l-0.2,1
		c-0.3,1.8-2.1,3.1-3.9,2.7c0,0,0,0-0.1,0l-13.5-2.5c-1.8-0.4-3.6,0.8-4,2.7l0,0l0,0c-0.4,1.8,0.8,3.6,2.6,4c0,0,0,0,0.1,0l26.9,5
		c1.8,0.3,3.1,2.1,2.7,3.9c0,0,0,0,0,0.1l-0.1,0.8c-0.3,1.8-2.1,3.1-4,2.7l0,0l-14.1-2.6c-2.1-0.4-4,1-4.4,3l0,0c-0.4,2,1,4,3,4.4
		l19.3,3.6c6.5-12,7.4-26.3,2.3-38.9l-39.2-7.3C198.3,137.2,196.1,138.7,195.6,141.1z"/>
	<g class="st6">
		<path class="st7" d="M229.5,129.1c11.7,25.4,0.5,55.5-24.9,67.2c-9.5,4.4-20.2,5.7-30.5,3.8c-0.8-0.1-1.5-0.3-2.2-0.5
			c20.8,14.2,49.3,8.9,63.5-11.9C248,169.3,245.5,144.6,229.5,129.1L229.5,129.1z"/>
	</g>
</g>
<path class="st8" d="M341.5,157.7l-1-4c-0.2-0.6-0.8-1-1.5-0.9l-8.4,2.1l-2.2-8.3c-0.2-0.6-0.8-1-1.5-0.9l-4,1
	c-0.6,0.2-1,0.8-0.8,1.4l2.2,8.3l-8.4,2.3c-0.6,0.2-1,0.8-0.9,1.4l1,4c0.2,0.6,0.8,1,1.4,0.9l0,0l8.4-2.2l2.2,8.3
	c0.2,0.6,0.8,1,1.5,0.9l4-1.1c0.6-0.2,1-0.8,0.9-1.4l-2.2-8.3l8.3-2.2C341.3,159,341.7,158.4,341.5,157.7L341.5,157.7z"/>
<path class="st8" d="M33.8,678.2l-1-4c-0.2-0.6-0.8-1-1.5-0.8l-8.3,2.2l-2.2-8.3c-0.2-0.6-0.8-1-1.5-0.8l-4,1
	c-0.6,0.2-1,0.8-0.9,1.5l2.2,8.3l-8.3,2.2c-0.6,0.2-1,0.8-0.8,1.5l1,4c0.2,0.6,0.8,1,1.4,0.8l8.3-2.2l2.2,8.3c0.2,0.6,0.8,1,1.5,0.8
	l4-1c0.6-0.2,1-0.8,0.8-1.5l-2.2-8.3l8.3-2.2C33.5,679.4,33.9,678.8,33.8,678.2z"/>
<path class="st8" d="M1360,678.2l-1-4c-0.2-0.6-0.8-1-1.4-0.8l-8.3,2.2l-2.2-8.3c-0.2-0.6-0.8-1-1.4-0.8l-4,1
	c-0.6,0.2-1,0.8-0.8,1.5l2.2,8.3l-8.3,2.2c-0.6,0.2-1,0.8-0.9,1.4l0,0l1,4c0.2,0.6,0.8,1,1.4,0.9l0,0l8.3-2.2l2.2,8.3
	c0.2,0.6,0.8,1,1.4,0.8l4-1c0.6-0.2,1-0.8,0.8-1.5l-2.2-8.3l8.3-2.2C1359.8,679.5,1360.2,678.9,1360,678.2L1360,678.2z"/>
<path class="st8" d="M893.5,391l-1-4c-0.2-0.6-0.8-1-1.5-0.9l-8.3,2.2l-2.2-8.3c-0.2-0.6-0.8-1-1.5-0.9l-4,1c-0.6,0.2-1,0.8-0.8,1.5
	l2.2,8.3l-8.3,2.2c-0.6,0.2-1,0.8-0.8,1.5l1,4c0.2,0.6,0.8,1,1.5,0.9l8.3-2.2l2.2,8.3c0.2,0.6,0.8,1,1.5,0.9l4-1
	c0.6-0.2,1-0.8,0.8-1.5l-2.2-8.3l8.3-2.2C893.3,392.3,893.7,391.6,893.5,391L893.5,391z"/>
<path class="st8" d="M1659.7,499.2l3.9,1.4c0.6,0.2,1.3-0.1,1.5-0.7l2.9-8.1l8.1,2.9c0.6,0.2,1.3-0.1,1.5-0.7l1.4-3.9
	c0.2-0.6-0.1-1.3-0.7-1.5l-8.1-2.9l2.9-8.1c0.2-0.6-0.1-1.3-0.7-1.5l0,0l-3.9-1.4c-0.6-0.2-1.3,0.1-1.5,0.7l0,0l-2.9,8.1l-8.1-2.9
	c-0.6-0.2-1.3,0.1-1.5,0.7l-1.4,3.9c-0.2,0.6,0.1,1.3,0.7,1.5l8.1,2.9l-2.9,8.1C1658.8,498.3,1659.1,499,1659.7,499.2z"/>
<path class="st8" d="M1811.4,70l3.5,2.2c0.6,0.3,1.3,0.2,1.6-0.4l4.6-7.3l7.3,4.6c0.6,0.3,1.3,0.2,1.6-0.4l2.2-3.5
	c0.3-0.6,0.2-1.3-0.4-1.6l-7.3-4.6l4.6-7.3c0.3-0.6,0.2-1.3-0.4-1.6l-3.5-2.2c-0.6-0.4-1.3-0.2-1.6,0.4l-4.6,7.3l-7.3-4.6
	c-0.6-0.3-1.3-0.2-1.6,0.4l0,0l-2.2,3.5c-0.3,0.6-0.2,1.3,0.4,1.6l7.3,4.6l-4.7,7.3C1810.7,69,1810.8,69.7,1811.4,70z"/>
<path class="st8" d="M55.8,390.8l-1.8-2.1c-0.3-0.3-0.7-0.4-1.1-0.1l0,0l-4,3.8l-3.8-4.4c-0.3-0.3-0.7-0.4-1.1-0.1l0,0l-1.9,1.8
	c-0.3,0.3-0.4,0.8-0.1,1.2l3.8,4.4l-4,3.8c-0.3,0.3-0.3,0.8,0,1.1l1.8,2.1c0.3,0.3,0.7,0.4,1.1,0.1l0,0l4-3.8l3.8,4.4
	c0.3,0.3,0.7,0.4,1.1,0.1l0,0l1.9-1.9c0.3-0.3,0.3-0.8,0-1.1l-3.8-4.4l4-3.8C56,391.6,56,391.1,55.8,390.8z"/>
<path class="st8" d="M110.1,755.9l-2-1.3c-0.3-0.2-0.7-0.1-0.9,0.2l-2.7,4.2l-4.1-2.7c-0.3-0.2-0.8-0.2-1,0.2l0,0l-1.3,2
	c-0.2,0.3-0.1,0.7,0.2,0.9l4.1,2.7l-2.7,4.1c-0.2,0.3-0.2,0.8,0.2,1l0,0l2,1.3c0.3,0.2,0.7,0.1,0.9-0.2l2.7-4.1l4.1,2.7
	c0.3,0.2,0.8,0.2,1-0.2l0,0l1.3-2c0.2-0.3,0.1-0.7-0.2-0.9l-4.1-2.8l2.7-4.1C110.4,756.5,110.4,756.1,110.1,755.9z"/>
<path class="st8" d="M970.3,255.7l-2-1.3c-0.3-0.2-0.7-0.1-0.9,0.2l0,0l-2.7,4.1l-4.1-2.7c-0.3-0.2-0.7-0.2-1,0.1c0,0,0,0,0,0.1
	l-1.3,2c-0.2,0.3-0.1,0.7,0.2,1l4.1,2.7l-2.7,4.1c-0.2,0.3-0.1,0.7,0.2,0.9l2,1.3c0.3,0.2,0.7,0.1,0.9-0.2l0,0l2.7-4.1l4.1,2.7
	c0.3,0.2,0.7,0.1,0.9-0.2l0,0l1.3-2c0.2-0.3,0.1-0.7-0.2-0.9l-4.1-2.7l2.7-4.1C970.7,256.3,970.6,255.9,970.3,255.7z"/>
<path class="st8" d="M659.6,768.5l-2-1.3c-0.3-0.2-0.7-0.2-1,0.1c0,0,0,0,0,0.1l-2.7,4.1l-4.1-2.7c-0.3-0.2-0.7-0.1-0.9,0.2l-1.3,2
	c-0.2,0.3-0.2,0.8,0.2,1l0,0l4.1,2.7l-2.7,4.1c-0.2,0.3-0.1,0.7,0.2,0.9l0,0l2,1.3c0.3,0.2,0.7,0.1,1-0.2l2.7-4.1l4.1,2.7
	c0.3,0.2,0.7,0.2,1-0.1c0,0,0,0,0-0.1l1.3-2c0.2-0.3,0.1-0.7-0.2-0.9l-4.1-2.7l2.7-4.1C660,769.2,660,768.8,659.6,768.5
	C659.6,768.6,659.6,768.5,659.6,768.5z"/>
<path class="st8" d="M1619,785.5l1.8-1.6c0.3-0.3,0.3-0.7,0-1l0,0l-3.3-3.7l3.7-3.3c0.3-0.2,0.3-0.7,0.1-0.9c0,0,0,0-0.1-0.1
	l-1.6-1.8c-0.3-0.3-0.7-0.3-1,0l0,0l-3.7,3.3l-3.3-3.7c-0.3-0.3-0.7-0.3-1,0l0,0l-1.8,1.6c-0.3,0.3-0.3,0.7,0,1l0,0l3.3,3.7
	l-3.7,3.3c-0.3,0.3-0.3,0.7,0,1l0,0l1.6,1.8c0.3,0.3,0.7,0.3,1,0l0,0l3.7-3.3l3.3,3.7C1618.3,785.8,1618.7,785.8,1619,785.5
	C1619,785.6,1619,785.5,1619,785.5z"/>
<path class="st8" d="M1004.7,803.5l1.8-1.6c0.3-0.3,0.3-0.7,0-1l0,0l-3.3-3.7l3.7-3.3c0.3-0.3,0.3-0.7,0-1l0,0l-1.6-1.8
	c-0.2-0.3-0.7-0.3-1-0.1l0,0l-3.7,3.3l-3.3-3.7c-0.2-0.3-0.7-0.3-0.9-0.1c0,0,0,0-0.1,0.1l-1.8,1.6c-0.3,0.3-0.3,0.7,0,1l0,0
	l3.3,3.7l-3.7,3.3c-0.3,0.3-0.3,0.7,0,1l0,0l1.6,1.8c0.2,0.3,0.7,0.3,1,0.1l0,0l3.7-3.3l3.3,3.7
	C1003.9,803.8,1004.3,803.8,1004.7,803.5C1004.6,803.6,1004.6,803.5,1004.7,803.5z"/>
<path class="st8" d="M1341.1,460.9l1.8-1.6c0.3-0.3,0.3-0.7,0-1l0,0l-3.3-3.6l3.7-3.3c0.3-0.3,0.3-0.7,0-1l0,0l-1.6-1.8
	c-0.2-0.3-0.7-0.3-0.9-0.1c0,0,0,0-0.1,0.1l-3.7,3.3l-3.3-3.6c-0.2-0.3-0.7-0.3-0.9-0.1c0,0,0,0-0.1,0.1l-1.8,1.6
	c-0.3,0.3-0.3,0.7,0,1l0,0l3.3,3.6l-3.7,3.4c-0.3,0.3-0.3,0.7,0,1l0,0l1.6,1.8c0.2,0.3,0.7,0.3,1,0.1l0,0l3.7-3.4l3.3,3.6
	C1340.3,461.2,1340.8,461.2,1341.1,460.9C1341,460.9,1341.1,460.9,1341.1,460.9z"/>
<path class="st8" d="M1818.9,570.2l3.1-0.6c0.5-0.1,0.8-0.5,0.7-1l-1.2-6.3l6.3-1.2c0.5-0.1,0.8-0.5,0.7-1l-0.6-3
	c-0.1-0.5-0.5-0.8-1-0.7l-6.3,1.2l-1.2-6.3c-0.1-0.5-0.5-0.8-1-0.7l-3,0.6c-0.5,0.1-0.8,0.5-0.7,1l1.2,6.3l-6.3,1.2
	c-0.5,0.1-0.8,0.5-0.7,1l0.6,3c0.1,0.5,0.5,0.8,1,0.7l6.3-1.2l1.2,6.3C1818,570,1818.4,570.3,1818.9,570.2z"/>
<path class="st8" d="M1873.1,333.8l2-0.4c0.3-0.1,0.5-0.3,0.5-0.7l0,0l-0.8-4.1l4.1-0.8c0.3,0,0.5-0.3,0.5-0.6l0,0l-0.4-2
	c0-0.3-0.3-0.5-0.6-0.5l0,0l-4.1,0.8l-0.8-4.1c0-0.3-0.3-0.5-0.6-0.5l0,0l-2,0.4c-0.3,0.1-0.5,0.4-0.5,0.7l0.8,4.1l-4.1,0.8
	c-0.3,0.1-0.5,0.4-0.5,0.7l0.4,2c0.1,0.3,0.4,0.5,0.7,0.5l4.1-0.8l0.8,4.1C1872.5,333.7,1872.8,333.9,1873.1,333.8L1873.1,333.8z"/>
<path class="st8" d="M1590,95.8l2.9-1.1c0.5-0.2,0.7-0.7,0.5-1.1l-2.3-6l6-2.3c0.5-0.2,0.7-0.7,0.5-1.1l0,0l-1.1-2.9
	c-0.2-0.5-0.7-0.7-1.1-0.5l0,0l-6,2.3l-2.3-6c-0.2-0.5-0.7-0.7-1.1-0.5l-2.9,1.1c-0.5,0.2-0.7,0.7-0.5,1.1l2.3,6l-6,2.3
	c-0.5,0.2-0.7,0.7-0.5,1.1l0,0l1.1,2.9c0.2,0.5,0.7,0.7,1.1,0.5l0,0l6-2.3l2.3,6C1589,95.7,1589.5,95.9,1590,95.8L1590,95.8z"/>
<g class="st9">
	<path class="st10" d="M1517.2,156.3c11.4,0.8,19.9,10.6,19.2,22s-10.6,19.9-22,19.2c-11.4-0.8-19.9-10.6-19.2-22v-0.1
		C1496,164.1,1505.9,155.5,1517.2,156.3"/>
	<path class="st11" d="M1501.5,162.1c11-2.9,22.3,3.6,25.2,14.6c1.9,7.2-0.2,14.9-5.6,20.1c11-2.9,17.6-14.2,14.7-25.2
		s-14.2-17.6-25.2-14.7C1507.1,157.8,1504,159.6,1501.5,162.1"/>
	<path class="st12" d="M1513.8,156.9c-0.6-0.1-1.2-0.2-1.7-0.3c-8.1,1.5-14.6,7.6-16.4,15.6c1,6.4,5.9,11.5,12.3,12.7
		c8.3,1.7,16.3-3.2,17.9-11S1522.1,158.5,1513.8,156.9"/>
	<path class="st13" d="M1507.8,157.9c0.5,0.1,0.9,0.1,1.4,0.2c8.3,1.7,13.7,9.4,12.1,17.2c-1,4.5-4,8.2-8.3,10
		c6.3-0.5,11.5-5.1,12.8-11.2c1.6-7.8-3.8-15.5-12.1-17.2c-0.6-0.1-1.2-0.2-1.7-0.3C1510.6,156.9,1509.2,157.3,1507.8,157.9"/>
</g>
<path class="st14" d="M657.7,319.6c11.4,0.8,19.9,10.6,19.2,22c-0.8,11.4-10.6,19.9-22,19.2c-11.4-0.8-19.9-10.6-19.2-22v-0.1
	C636.5,327.4,646.3,318.8,657.7,319.6"/>
<path class="st15" d="M641.9,325.4c2.2-0.6,4.5-0.8,6.8-0.7c11.4,0.9,19.9,10.7,19,22.1c-0.4,5.1-2.6,9.8-6.3,13.3
	c11-2.9,17.6-14.2,14.6-25.2s-14.2-17.6-25.2-14.6C647.5,321.2,644.4,322.9,641.9,325.4"/>
<path class="st16" d="M654.2,320.2c-0.6-0.1-1.1-0.2-1.7-0.3c-8.1,1.5-14.6,7.6-16.4,15.6c1,6.4,5.9,11.6,12.3,12.8
	c8.3,1.7,16.3-3.2,17.9-11S662.5,321.9,654.2,320.2"/>
<g class="st9">
	<g class="st17">
		<g>
			<g>
				<defs>
					
						<rect id="SVGID_1_" x="1147.9" y="598.7" transform="matrix(0.1831 -0.9831 0.9831 0.1831 348.8996 1619.6511)" width="2.3" height="2.4"/>
				</defs>
				<clipPath id="SVGID_2_">
					<use xlink:href="#SVGID_1_"  style="overflow:visible;"/>
				</clipPath>
				<g class="st18">
					<polygon class="st19" points="1149.3,598.8 1149.6,599.7 1150.3,599.9 1149.6,600.4 1149.6,601.2 1149,600.7 1148.2,601 
						1148.4,600.2 1148,599.5 1148.8,599.5 					"/>
				</g>
			</g>
		</g>
	</g>
	<g class="st20">
		<g>
			<g>
				<defs>
					
						<rect id="SVGID_3_" x="1109.3" y="533" transform="matrix(0.1831 -0.9831 0.9831 0.1831 374.8669 1605.7198)" width="88.6" height="88.6"/>
				</defs>
				<clipPath id="SVGID_4_">
					<use xlink:href="#SVGID_3_"  style="overflow:visible;"/>
				</clipPath>
				<g class="st21">
					<path class="st22" d="M1197.2,585.5c-4.5,24.1-27.6,39.9-51.7,35.4s-39.9-27.6-35.4-51.7c4.5-24.1,27.6-39.9,51.7-35.4l0,0
						C1185.8,538.3,1201.7,561.4,1197.2,585.5C1197.2,585.4,1197.2,585.5,1197.2,585.5"/>
				</g>
			</g>
		</g>
	</g>
	<g class="st20">
		<g>
			<g>
				<defs>
					
						<rect id="SVGID_5_" x="1116.2" y="539.9" transform="matrix(0.1831 -0.9831 0.9831 0.1831 374.8624 1605.7094)" width="74.8" height="74.8"/>
				</defs>
				<clipPath id="SVGID_6_">
					<use xlink:href="#SVGID_5_"  style="overflow:visible;"/>
				</clipPath>
				<g class="st23">
					<path class="st22" d="M1190.4,584.2c-3.8,20.3-23.3,33.7-43.6,29.9c-20.3-3.8-33.7-23.3-29.9-43.6s23.3-33.7,43.6-29.9l0,0
						C1180.8,544.4,1194.2,563.9,1190.4,584.2L1190.4,584.2"/>
				</g>
			</g>
		</g>
	</g>
	<path class="st24" d="M1183.4,582.9c-3.1,16.4-18.8,27.2-35.2,24.2c-16.4-3.1-27.2-18.8-24.2-35.2c3.1-16.4,18.8-27.2,35.2-24.2
		S1186.4,566.5,1183.4,582.9L1183.4,582.9"/>
	<path class="st25" d="M1177.6,559c2.5,16.5-8.8,31.9-25.2,34.4c-10.9,1.7-21.8-2.7-28.6-11.5c2.5,16.5,17.9,27.8,34.4,25.3
		s27.8-17.9,25.3-34.4C1182.8,567.8,1180.7,563.1,1177.6,559"/>
	<path class="st22" d="M1183.2,577.8c0.3-0.8,0.5-1.6,0.7-2.5c-0.8-12.1-8.7-22.5-20.1-26.5c-9,0.1-17.5,6.3-20.6,15.9
		c-3.9,11.8,2,24.3,13.1,28S1179.3,589.7,1183.2,577.8"/>
	<path class="st26" d="M1182.7,568.9c-0.2,0.7-0.3,1.4-0.6,2c-3.9,11.8-16,18.5-27,14.9c-6.4-2.1-11.3-7.2-13.2-13.7
		c0,9.3,5.4,17.7,14.2,20.6c11.1,3.6,23.2-3,27-14.9c0.3-0.8,0.5-1.6,0.7-2.5C1183.7,573.1,1183.3,570.9,1182.7,568.9"/>
	<path class="st22" d="M1146.4,565.7l-10.4-1.9c-0.9-0.2-1.4-1-1.3-1.9s1-1.4,1.9-1.3l10.4,1.9c0.9,0.2,1.4,1,1.3,1.9
		S1147.3,565.9,1146.4,565.7L1146.4,565.7"/>
	<path class="st24" d="M1156.7,557.1l-10.4-1.9c-0.9-0.2-1.4-1-1.3-1.9s1-1.4,1.9-1.3l0,0l10.4,1.9c0.9,0.2,1.4,1,1.3,1.9
		S1157.6,557.3,1156.7,557.1"/>
	<path class="st24" d="M1149.9,574.9l-10.4-1.9c-0.9-0.2-1.4-1-1.3-1.9s1-1.4,1.9-1.3l10.4,1.9c0.9,0.2,1.4,1,1.3,1.9
		S1150.7,575,1149.9,574.9L1149.9,574.9"/>
	<path class="st24" d="M1169.4,573.7l-10.4-2c-0.9-0.2-1.4-1.1-1.2-1.9c0.2-0.8,0.9-1.3,1.7-1.2l10.4,1.9c0.9,0.2,1.4,1,1.3,1.8
		C1171.1,573.3,1170.3,573.8,1169.4,573.7"/>
	<path class="st25" d="M1177.9,591.8l-10.4-2c-0.9-0.2-1.4-1-1.3-1.9s1-1.4,1.9-1.3l0,0l10.4,2c0.9,0.2,1.4,1,1.3,1.9
		S1178.8,592,1177.9,591.8"/>
	<path class="st26" d="M1151.8,590.5l-10.4-1.9c-0.9-0.2-1.4-1-1.3-1.9s1-1.4,1.9-1.3l10.4,1.9c0.9,0.2,1.4,1,1.3,1.9
		S1152.6,590.6,1151.8,590.5L1151.8,590.5"/>
	<path class="st22" d="M1138.2,581.2l-10.4-2c-0.9-0.1-1.5-0.9-1.4-1.8c0.1-0.9,0.9-1.5,1.8-1.4c0.1,0,0.1,0,0.2,0l10.4,1.9
		c0.9,0.2,1.4,1,1.3,1.9S1139,581.3,1138.2,581.2"/>
	<path class="st24" d="M1163.4,603.2l-10.4-1.9c-0.9-0.2-1.4-1-1.3-1.9s1-1.4,1.9-1.3l0,0l10.4,1.9c0.9,0.2,1.4,1,1.3,1.9
		S1164.3,603.3,1163.4,603.2"/>
	<path class="st24" d="M1144.2,599.3l-10.4-2c-0.9-0.2-1.4-1.1-1.2-1.9c0.2-0.8,0.9-1.3,1.7-1.2l10.4,1.9c0.9,0.2,1.4,1,1.3,1.8
		C1145.9,598.9,1145.1,599.5,1144.2,599.3"/>
</g>
<circle class="st27" cx="233.7" cy="636.2" r="4.8"/>
<circle class="st27" cx="1093.9" cy="135.9" r="4.8"/>
<circle class="st27" cx="783.2" cy="648.8" r="4.8"/>
<circle class="st27" cx="271.2" cy="269.1" r="4.8"/>
<circle class="st27" cx="719.4" cy="199.9" r="4.8"/>
<circle class="st27" cx="612.5" cy="184.9" r="4.8"/>
<circle class="st27" cx="1765.8" cy="174.2" r="4.8"/>
<circle class="st27" cx="1806.1" cy="258.2" r="4.8"/>
<circle class="st27" cx="1896.4" cy="226.3" r="4.8"/>
<circle class="st27" cx="1523.1" cy="658.8" r="4.8"/>
<circle class="st27" cx="908.8" cy="676.8" r="4.8"/>
<circle class="st27" cx="1245.2" cy="334.1" r="4.8"/>
<circle class="st27" cx="1365.2" cy="518.8" r="4.8"/>
<circle class="st28" cx="1819.3" cy="651.7" r="4.8"/>
<circle class="st28" cx="1730.7" cy="201.4" r="4.8"/>
<circle class="st28" cx="1632.4" cy="245.7" r="4.8"/>
<circle class="st28" cx="1545.9" cy="75.6" r="4.8"/>
<circle class="st28" cx="775.8" cy="124.2" r="4.8"/>
<circle class="st28" cx="530" cy="413.3" r="4.8"/>
<circle class="st28" cx="337.8" cy="520.9" r="4.8"/>
<linearGradient id="SVGID_7_" gradientUnits="userSpaceOnUse" x1="1553.0111" y1="512.7842" x2="1585.8695" y2="512.7842" gradientTransform="matrix(1 0 0 1 0 42)">
	<stop  offset="0" style="stop-color:#FFFFFF"/>
	<stop  offset="0.14" style="stop-color:#FFFFFF;stop-opacity:0.86"/>
	<stop  offset="0.56" style="stop-color:#FFFFFF;stop-opacity:0.46"/>
	<stop  offset="0.86" style="stop-color:#FFFFFF;stop-opacity:0.2"/>
	<stop  offset="1" style="stop-color:#FFFFFF;stop-opacity:0.1"/>
</linearGradient>
<path class="st29" d="M1582.3,569.2l-28.5-25.4c-0.8-0.7-0.9-2-0.2-2.8l0.3-0.4c0.7-0.8,2-0.9,2.8-0.2l28.5,25.4
	c0.8,0.7,0.9,2,0.2,2.8l0,0l-0.3,0.4C1584.4,569.8,1583.1,569.9,1582.3,569.2z"/>
<linearGradient id="SVGID_8_" gradientUnits="userSpaceOnUse" x1="1594.2539" y1="521.9313" x2="1612.2539" y2="539.1813" gradientTransform="matrix(1 0 0 1 0 42)">
	<stop  offset="0" style="stop-color:#FFFFFF"/>
	<stop  offset="0.14" style="stop-color:#FFFFFF;stop-opacity:0.86"/>
	<stop  offset="0.56" style="stop-color:#FFFFFF;stop-opacity:0.46"/>
	<stop  offset="0.86" style="stop-color:#FFFFFF;stop-opacity:0.2"/>
	<stop  offset="1" style="stop-color:#FFFFFF;stop-opacity:0.1"/>
</linearGradient>
<path class="st30" d="M1613.2,584.2l-28.5-25.4c-0.8-0.7-0.9-2-0.2-2.8l0.3-0.4c0.7-0.8,2-0.9,2.8-0.2l28.5,25.4
	c0.8,0.7,0.9,2,0.2,2.8l-0.3,0.4C1615.3,584.8,1614,584.9,1613.2,584.2z"/>
<linearGradient id="SVGID_9_" gradientUnits="userSpaceOnUse" x1="1600.589" y1="541.7374" x2="1613.109" y2="553.7374" gradientTransform="matrix(1 0 0 1 0 42)">
	<stop  offset="0" style="stop-color:#FFFFFF"/>
	<stop  offset="0.14" style="stop-color:#FFFFFF;stop-opacity:0.87"/>
	<stop  offset="0.74" style="stop-color:#FFFFFF;stop-opacity:0.32"/>
	<stop  offset="1" style="stop-color:#FFFFFF;stop-opacity:0.1"/>
</linearGradient>
<path class="st31" d="M1612.8,598l-18.8-17c-0.8-0.7-0.9-2-0.2-2.8l0.3-0.4c0.7-0.8,2-0.9,2.8-0.2l0,0l18.8,17
	c0.8,0.7,0.9,2,0.2,2.8l-0.3,0.4C1614.9,598.7,1613.6,598.7,1612.8,598L1612.8,598z"/>
<polygon class="st19" points="1551.5,559.5 1556.2,548.4 1545.1,539.2 1542.2,556.2 "/>
<rect x="1518.2" y="498.5" transform="matrix(0.668 -0.7442 0.7442 0.668 129.2727 1297.4176)" class="st32" width="0.9" height="10.7"/>
<path class="st33" d="M1564.2,559.6c0.7,0.7,4.6-2.5,8.7-7l-1.3-1.2L1564.2,559.6z"/>
<path class="st19" d="M1518.6,503.9l45.8,41.1l-6.3,7c0,0-11.1-1.2-22.9-11.9S1516.6,506.1,1518.6,503.9z"/>
<path class="st34" d="M1521,516.8c2.5-1.2,4.8-2.8,6.6-4.9l-9-8C1517.7,504.9,1518.6,510.3,1521,516.8z"/>
<polygon class="st33" points="1562.5,565.7 1560.1,562.2 1542.2,556.2 1541.4,560.2 "/>
<path class="st35" d="M1538.7,521.9c-2.8,3.2-2.6,8.1,0.6,10.9s8.1,2.6,10.9-0.6l0,0L1538.7,521.9z"/>
<path class="st33" d="M1553.8,535.4l-10,11.1c3.5,2.1,7.2,3.7,11.1,4.8l7.4-8.2L1553.8,535.4z"/>
<path class="st36" d="M1539.3,522.4c-2.5,2.8-2.3,7.2,0.5,9.7l0,0l4.6-5.1L1539.3,522.4z"/>
<path class="st37" d="M1539.8,532.2c2.8,2.6,7.2,2.3,9.8-0.5l0,0l-5.1-4.6L1539.8,532.2z"/>
<path class="st35" d="M1530.4,514.4c-2.1,1.8-2.3,5-0.5,7.1c1.8,2.1,5,2.3,7.1,0.5c0.3-0.3,0.6-0.6,0.8-0.9L1530.4,514.4z"/>
<path class="st36" d="M1531,515c-1.5,1.7-1.4,4.2,0.3,5.7l0,0l2.7-3L1531,515z"/>
<path class="st37" d="M1531.3,520.8c1.7,1.5,4.2,1.4,5.7-0.3l0,0l-3-2.7L1531.3,520.8z"/>
<rect x="1558.1" y="547.8" transform="matrix(0.668 -0.7442 0.7442 0.668 109.6977 1345.6177)" class="st34" width="9.5" height="4.2"/>
<polygon class="st19" points="1564.2,559.7 1571.6,551.4 1567.5,547.8 1561.2,554.8 "/>
<path class="st19" d="M1551.4,542.9c0.7,0.6,0.8,1.7,0.1,2.4s-1.7,0.8-2.4,0.1c-0.7-0.6-0.8-1.7-0.1-2.4
	C1549.6,542.3,1550.7,542.2,1551.4,542.9L1551.4,542.9z"/>
<path class="st19" d="M1557.7,542.3c1.1,1,1.1,2.6,0.2,3.6c-1,1.1-2.6,1.1-3.6,0.2c-1.1-1-1.1-2.6-0.2-3.6l0,0
	C1555,541.5,1556.6,541.4,1557.7,542.3L1557.7,542.3z"/>
<polygon class="st38" points="1577.5,530.6 1567,536.4 1556.6,526.3 1573.1,521.7 "/>
<path class="st32" d="M1579,543.2c0.7,0.7-2,4.9-6,9.4l-1.3-1.2L1579,543.2z"/>
<path class="st38" d="M1518.6,503.9l45.8,41.1l6.3-7c0,0-2.4-10.9-14.3-21.5C1544.5,505.9,1520.6,501.7,1518.6,503.9z"/>
<path class="st39" d="M1531.7,504.8c-0.9,2.6-2.3,5.1-4.2,7.1l-9-8C1519.5,502.9,1525,503.2,1531.7,504.8z"/>
<polygon class="st32" points="1584.8,540.9 1581.1,538.9 1573.1,521.7 1577,520.5 "/>
<path class="st35" d="M1538.7,521.9c2.8-3.2,7.7-3.4,10.9-0.6s3.4,7.7,0.6,10.9L1538.7,521.9z"/>
<path class="st32" d="M1553.8,535.4l10-11.1c2.5,3.2,4.5,6.7,6,10.5l-7.4,8.3L1553.8,535.4z"/>
<path class="st37" d="M1539.3,522.4c2.5-2.8,6.9-3.1,9.7-0.5l0,0l-4.6,5.1L1539.3,522.4z"/>
<path class="st40" d="M1549.1,521.9c2.8,2.5,3.1,6.9,0.5,9.8l0,0l-5.1-4.6L1549.1,521.9z"/>
<path class="st35" d="M1530.4,514.4c1.6-2.3,4.7-2.8,7-1.3c2.3,1.5,2.8,4.7,1.3,7c-0.2,0.3-0.5,0.7-0.8,0.9L1530.4,514.4z"/>
<path class="st37" d="M1531,515c1.5-1.7,4.1-1.8,5.7-0.3l0,0l-2.7,3L1531,515z"/>
<path class="st40" d="M1536.8,514.7c1.7,1.5,1.8,4.1,0.3,5.7l0,0l-3-2.7L1536.8,514.7z"/>
<rect x="1564.4" y="540.8" transform="matrix(0.668 -0.7442 0.7442 0.668 116.9642 1348.0063)" class="st39" width="9.5" height="4.2"/>
<polygon class="st38" points="1579,543.2 1571.6,551.4 1567.5,547.8 1573.8,540.7 "/>
<path class="st34" d="M1514.9,497.3c1,0.9,1.1,2.4,0.2,3.4s-2.4,1.1-3.4,0.2s-1.1-2.4-0.2-3.4l0,0
	C1512.4,496.6,1513.9,496.5,1514.9,497.3z"/>
<path class="st19" d="M1513.3,498.5c0.4,0.3,0.4,0.9,0.1,1.3s-0.9,0.4-1.3,0.1s-0.4-0.9-0.1-1.3S1512.9,498.1,1513.3,498.5z"/>
<path class="st19" d="M1533.8,516.8c0.5,0.5,0.6,1.3,0.1,1.8s-1.3,0.6-1.8,0.1s-0.6-1.3-0.1-1.8S1533.3,516.4,1533.8,516.8z"/>
<path class="st19" d="M1544.1,525.5c0.8,0.8,0.8,2.2,0,3.1c-0.8,0.8-2,0.8-2.9,0.2c-0.9-0.7-1.1-2.1-0.3-3c0.7-0.9,2.1-1.1,3-0.3
	C1543.9,525.4,1544,525.5,1544.1,525.5z"/>
<path class="st37" d="M329.6,587l-5.9,5.9c-0.5,0.5-0.5,1.4,0,1.9l0,0l7.8-7.9C331,586.5,330.2,586.5,329.6,587z"/>
<path class="st36" d="M323.8,594.8c0.5,0.5,1.4,0.5,1.9,0l0,0l5.9-5.9c0.5-0.5,0.5-1.4,0-1.9l0,0L323.8,594.8z"/>
<path class="st36" d="M304.8,568.2l2.5,2.5l0.7,0.7l2.5-2.5l-0.7-0.7C308.5,566.8,306.2,566.8,304.8,568.2L304.8,568.2z"/>
<path class="st37" d="M304.9,573.3l0.8,0.7l2.5-2.5l-0.7-0.7l-2.5-2.5C303.4,569.6,303.4,571.9,304.9,573.3
	C304.8,573.3,304.8,573.3,304.9,573.3z"/>
<path class="st38" d="M305.7,573.9c-1,1-1,2.6,0,3.6l4.5,4.4l4.2-4.2l-3.1-3.1l-3.1-3.1L305.7,573.9z"/>
<path class="st19" d="M310.5,569c1-1,2.6-1,3.6,0l0,0l4.5,4.5l-4.2,4.2l-3.1-3.1l-3.1-3.1L310.5,569z"/>
<path class="st19" d="M325.3,582c1.3-1.3,1.3-3.5,0-4.8l-6-5.9l-5.6,5.7l4.2,4.2l4.2,4.1L325.3,582z"/>
<path class="st38" d="M318.8,588.5c-1.3,1.3-3.4,1.3-4.8,0l0,0l-6-5.9l5.6-5.7l4.2,4.2l4.2,4.1L318.8,588.5z"/>
<path class="st41" d="M314.4,577.7l-1.7-1.7c-1.6,1.8-3.8,2.7-6.2,2.6c-1.3,0-2.3,1-2.4,2.2c1.2,0.1,2.3,0.1,2.3,0.1
	C309.5,581.1,312.4,579.9,314.4,577.7z"/>
<path class="st32" d="M314.4,577.7c-2,2.2-4.9,3.4-7.9,3.3c0,0-1.1,0-2.3-0.1c0,0,0,0,0,0.1c0,0.6,0.2,1.3,0.7,1.7
	c0.4,0.4,1,0.7,1.6,0.7c3.6,0.1,7.2-1.3,9.6-4L314.4,577.7z"/>
<path class="st32" d="M314.4,577.7l-1.7-1.7c1.8-1.6,2.7-3.9,2.5-6.2c0-1.3,1-2.3,2.2-2.4c0.1,1.2,0.1,2.3,0.1,2.3
	C317.8,572.8,316.6,575.7,314.4,577.7z"/>
<path class="st33" d="M314.4,577.7c2.2-2,3.4-4.9,3.2-7.9c0,0,0-1.1-0.1-2.3h0.1c1.3,0,2.4,1,2.4,2.3l0,0c0.2,3.6-1.3,7.2-3.9,9.7
	L314.4,577.7z"/>
<rect x="323.8" y="583" transform="matrix(0.7041 -0.7101 0.7101 0.7041 -319.9144 404.7707)" class="st33" width="3.8" height="6.6"/>
<rect x="321.1" y="585.7" transform="matrix(0.7041 -0.7101 0.7101 0.7041 -322.6413 403.6752)" class="st32" width="3.8" height="6.6"/>
<path class="st36" d="M330.4,599.4l5.9-5.9c0.5-0.5,0.5-1.4,0-1.9l0,0l-7.8,7.9C329,600,329.9,600,330.4,599.4z"/>
<path class="st37" d="M336.2,591.6c-0.5-0.5-1.4-0.5-1.9,0l0,0l-5.9,5.9c-0.5,0.5-0.5,1.4,0,1.9l0,0L336.2,591.6z"/>
<path class="st37" d="M355.2,618.2l-2.5-2.5L352,615l-2.5,2.5l0.7,0.7C351.6,619.6,353.8,619.6,355.2,618.2L355.2,618.2z"/>
<path class="st36" d="M355.2,613.1l-0.7-0.7l-2.5,2.5l0.7,0.7l2.5,2.5C356.6,616.8,356.6,614.5,355.2,613.1z"/>
<path class="st19" d="M354.4,612.5c1-1,1-2.6,0-3.6l-4.5-4.4l-4.2,4.2l3.1,3.1l3.1,3.1L354.4,612.5z"/>
<path class="st38" d="M349.5,617.4c-1,1-2.6,1-3.6,0l0,0l-4.5-4.4l4.2-4.2l3.1,3.1l3.1,3.1L349.5,617.4z"/>
<path class="st38" d="M334.8,604.4c-1.3,1.3-1.3,3.4,0,4.8l0,0l6,5.9l5.6-5.7l-4.2-4.2l-4.2-4.1L334.8,604.4z"/>
<path class="st19" d="M341.3,597.9c1.3-1.3,3.4-1.3,4.8,0l0,0l6,5.9l-5.6,5.7l-4.2-4.2l-4.2-4.2L341.3,597.9z"/>
<path class="st33" d="M345.6,608.7l1.7,1.7c1.6-1.8,3.9-2.7,6.2-2.6c1.3,0,2.3-1,2.4-2.2c-1.2-0.1-2.4-0.1-2.4-0.1
	C350.6,605.3,347.7,606.5,345.6,608.7z"/>
<path class="st32" d="M345.6,608.7c2-2.2,4.9-3.4,7.9-3.3c0,0,1.1,0,2.4,0.1v-0.1c0-1.3-1-2.4-2.3-2.4l0,0c-3.6-0.1-7.2,1.3-9.6,4
	L345.6,608.7z"/>
<path class="st32" d="M345.6,608.7l1.7,1.7c-1.7,1.6-2.7,3.9-2.5,6.2c0,1.3-1,2.3-2.2,2.4c-0.1-1.2-0.1-2.3-0.1-2.3
	C342.3,613.6,343.5,610.7,345.6,608.7z"/>
<path class="st41" d="M345.6,608.7c-2.2,2-3.4,4.9-3.2,7.9c0,0,0,1.1,0.1,2.3h-0.1c-0.6,0-1.3-0.2-1.7-0.7c-0.4-0.4-0.7-1-0.7-1.6
	c-0.2-3.6,1.3-7.2,3.9-9.7L345.6,608.7z"/>
<rect x="332.5" y="596.8" transform="matrix(0.7041 -0.7101 0.7101 0.7041 -327.1915 415.0385)" class="st32" width="3.8" height="6.6"/>
<rect x="335.1" y="594.2" transform="matrix(0.7041 -0.7101 0.7101 0.7041 -324.5359 416.105)" class="st33" width="3.8" height="6.6"/>
<rect x="329.5" y="589.9" transform="matrix(0.7041 -0.7101 0.7101 0.7041 -322.1917 410.4473)" class="st19" width="3.8" height="3.8"/>
<rect x="326.8" y="592.6" transform="matrix(0.7041 -0.7101 0.7101 0.7041 -324.9184 409.3577)" class="st38" width="3.8" height="3.8"/>
<path class="st19" d="M293.8,613.7l19.9-20c0.6-0.6,1.5-0.6,2.1,0l13.9,13.8c0.6,0.6,0.6,1.5,0,2.1l-19.9,20c-0.6,0.6-1.5,0.6-2.1,0
	l-13.9-13.8C293.3,615.2,293.3,614.3,293.8,613.7z"/>
<rect x="311.6" y="595.9" transform="matrix(0.7041 -0.7101 0.7101 0.7041 -332.2025 400.7202)" class="st36" width="6.2" height="6.2"/>
<rect x="316.5" y="600.6" transform="matrix(0.7041 -0.7101 0.7101 0.7041 -334.1297 405.5941)" class="st36" width="6.2" height="6.2"/>
<rect x="321.3" y="605.4" transform="matrix(0.7041 -0.7101 0.7101 0.7041 -336.1299 410.4409)" class="st36" width="6.2" height="6.2"/>
<rect x="306.5" y="601" transform="matrix(0.7041 -0.7101 0.7101 0.7041 -337.3844 398.5979)" class="st36" width="6.2" height="6.2"/>
<rect x="311.3" y="605.8" transform="matrix(0.7041 -0.7101 0.7101 0.7041 -339.3787 403.4446)" class="st36" width="6.2" height="6.2"/>
<rect x="316.1" y="610.7" transform="matrix(0.7041 -0.7101 0.7101 0.7041 -341.383 408.2957)" class="st36" width="6.2" height="6.2"/>
<rect x="301.3" y="606.3" transform="matrix(0.7041 -0.7101 0.7101 0.7041 -342.6334 396.4484)" class="st36" width="6.2" height="6.2"/>
<rect x="306.1" y="611.1" transform="matrix(0.7041 -0.7101 0.7101 0.7041 -344.6277 401.2892)" class="st36" width="6.2" height="6.2"/>
<rect x="311" y="615.8" transform="matrix(0.7041 -0.7101 0.7101 0.7041 -346.5608 406.1692)" class="st36" width="6.2" height="6.2"/>
<rect x="296.1" y="611.5" transform="matrix(0.7041 -0.7101 0.7101 0.7041 -347.9113 394.3641)" class="st36" width="6.2" height="6.2"/>
<rect x="301" y="616.4" transform="matrix(0.7041 -0.7101 0.7101 0.7041 -349.9098 399.2151)" class="st36" width="6.2" height="6.2"/>
<rect x="305.8" y="621.1" transform="matrix(0.7041 -0.7101 0.7101 0.7041 -351.8329 404.085)" class="st36" width="6.2" height="6.2"/>
<rect x="316.8" y="592.4" transform="matrix(0.7041 -0.7101 0.7101 0.7041 -326.562 402.7697)" class="st41" width="6.5" height="1.7"/>
<rect x="326.9" y="602.3" transform="matrix(0.7041 -0.7101 0.7101 0.7041 -330.6314 412.9276)" class="st41" width="6.5" height="1.7"/>
<path class="st19" d="M330.3,576.9l19.9-20c0.6-0.6,1.5-0.6,2.1,0l13.9,13.8c0.6,0.6,0.6,1.5,0,2.1l-19.9,20c-0.6,0.6-1.5,0.6-2.1,0
	L330.3,579C329.7,578.4,329.7,577.5,330.3,576.9z"/>
<rect x="342.2" y="584.4" transform="matrix(0.7041 -0.7101 0.7101 0.7041 -314.9704 419.0619)" class="st36" width="6.2" height="6.2"/>
<rect x="337.4" y="579.5" transform="matrix(0.7041 -0.7101 0.7101 0.7041 -312.9761 414.2151)" class="st36" width="6.2" height="6.2"/>
<rect x="332.6" y="574.7" transform="matrix(0.7041 -0.7101 0.7101 0.7041 -310.9718 409.37)" class="st36" width="6.2" height="6.2"/>
<rect x="347.5" y="579.1" transform="matrix(0.7041 -0.7101 0.7101 0.7041 -309.7215 421.2113)" class="st36" width="6.2" height="6.2"/>
<rect x="342.6" y="574.3" transform="matrix(0.7041 -0.7101 0.7101 0.7041 -307.723 416.3664)" class="st36" width="6.2" height="6.2"/>
<rect x="337.8" y="569.5" transform="matrix(0.7041 -0.7101 0.7101 0.7041 -305.7287 411.5195)" class="st36" width="6.2" height="6.2"/>
<rect x="352.6" y="573.9" transform="matrix(0.7041 -0.7101 0.7101 0.7041 -304.4494 423.2957)" class="st36" width="6.2" height="6.2"/>
<rect x="347.8" y="569" transform="matrix(0.7041 -0.7101 0.7101 0.7041 -302.445 418.4446)" class="st36" width="6.2" height="6.2"/>
<rect x="343" y="564.3" transform="matrix(0.7041 -0.7101 0.7101 0.7041 -300.5468 413.6418)" class="st36" width="6.2" height="6.2"/>
<rect x="357.8" y="568.6" transform="matrix(0.7041 -0.7101 0.7101 0.7041 -299.2006 425.4367)" class="st36" width="6.2" height="6.2"/>
<rect x="352.9" y="563.9" transform="matrix(0.7041 -0.7101 0.7101 0.7041 -297.2673 420.5711)" class="st36" width="6.2" height="6.2"/>
<rect x="348.1" y="559.1" transform="matrix(0.7041 -0.7101 0.7101 0.7041 -295.2689 415.7201)" class="st36" width="6.2" height="6.2"/>
<rect x="336.8" y="592.4" transform="matrix(0.7041 -0.7101 0.7101 0.7041 -320.6151 417.0022)" class="st32" width="6.5" height="1.7"/>
<rect x="326.7" y="582.4" transform="matrix(0.7041 -0.7101 0.7101 0.7041 -316.5398 406.8526)" class="st32" width="6.5" height="1.7"/>
<g>
	<path class="st42" d="M693,33.3L693,33.3c-6.4,34.3-39.4,56.9-73.6,50.5s-56.9-39.4-50.5-73.6c0.7-3.6,1.6-7,2.9-10.3H541
		c-0.4,1.6-0.8,3.3-1.1,4.9c-9.4,50.2,23.8,98.6,74,107.9c50.2,9.4,98.6-23.8,107.9-74c2.5-13.3,2-26.5-1-38.8h-30.7
		C694,10.2,695.2,21.7,693,33.3z"/>
	<path class="st43" d="M619.4,83.8c34.3,6.4,67.3-16.2,73.6-50.5l0,0c2.2-11.6,1-23.1-2.8-33.4H571.7c-1.2,3.3-2.2,6.7-2.9,10.3
		C562.5,44.5,585.1,77.4,619.4,83.8z"/>
	<path class="st44" d="M771.5,42.5L771.5,42.5c0.2,0,0.4-0.1,0.4-0.3c0.3-2.3,0.6-4.7,0.9-7.1c0-0.2-0.1-0.4-0.3-0.4
		s-0.4,0.1-0.4,0.3c-0.2,2.3-0.5,4.7-0.8,7C771.1,42.2,771.3,42.4,771.5,42.5z"/>
	<path class="st44" d="M493.7,58.6C493.8,58.6,493.8,58.6,493.7,58.6c0.3-0.1,0.4-0.3,0.4-0.5c-0.6-2.3-1.2-4.6-1.6-6.9
		c0-0.2-0.2-0.3-0.4-0.3c-0.2,0-0.3,0.2-0.3,0.4c0.5,2.3,1,4.6,1.7,6.9C493.4,58.5,493.6,58.6,493.7,58.6z"/>
	<path class="st44" d="M615.2,162.5c-2.3-0.3-4.7-0.6-7-1c-0.2,0-0.4,0.1-0.4,0.3s0.1,0.4,0.3,0.4c2.3,0.4,4.7,0.7,7,1l0,0
		c0.2,0,0.3-0.1,0.4-0.3C615.5,162.7,615.3,162.5,615.2,162.5z"/>
	<path class="st44" d="M629.3,163.3c-2.3,0-4.7-0.1-7.1-0.3c-0.2,0-0.4,0.1-0.4,0.3s0.1,0.4,0.3,0.4c2.4,0.1,4.8,0.2,7.1,0.3l0,0
		c0.2,0,0.4-0.2,0.4-0.4C629.6,163.5,629.5,163.3,629.3,163.3z"/>
	<path class="st44" d="M772.2,6.4c-0.2,0-0.3,0.2-0.3,0.4c0.2,2.3,0.4,4.7,0.6,7.1c0,0.2,0.2,0.3,0.4,0.3l0,0c0.2,0,0.4-0.2,0.3-0.4
		c-0.1-2.4-0.3-4.7-0.6-7.1C772.6,6.5,772.4,6.3,772.2,6.4z"/>
	<path class="st44" d="M587.5,156.5c-2.2-0.7-4.5-1.5-6.7-2.3c-0.2-0.1-0.4,0-0.5,0.2s0,0.4,0.2,0.5c2.2,0.8,4.5,1.6,6.7,2.3h0.1
		c0.2,0,0.3-0.1,0.3-0.3C587.8,156.8,587.7,156.6,587.5,156.5z"/>
	<path class="st44" d="M772.8,28.3C772.9,28.3,772.9,28.3,772.8,28.3c0.2,0,0.4-0.2,0.4-0.3c0.1-2.1,0.1-4.3,0.1-6.5v-0.7
		c0-0.2-0.2-0.4-0.4-0.4l0,0c-0.2,0-0.4,0.2-0.4,0.4v0.7c0,2.1,0,4.3-0.1,6.4C772.5,28.2,772.6,28.3,772.8,28.3z"/>
	<path class="st44" d="M503.7,85c0.1,0,0.1,0,0.2,0c0.2-0.1,0.3-0.3,0.2-0.5c-1-2.1-2-4.3-3-6.4c-0.1-0.2-0.3-0.3-0.5-0.2
		c-0.2,0.1-0.3,0.3-0.2,0.5c0.9,2.2,1.9,4.3,3,6.4C503.4,85,503.6,85,503.7,85z"/>
	<path class="st44" d="M510.6,97.4c0.1,0,0.1,0,0.2-0.1c0.2-0.1,0.2-0.3,0.1-0.5c-1.2-2-2.5-4-3.6-6.1c-0.1-0.2-0.3-0.2-0.5-0.1
		s-0.2,0.3-0.1,0.5c1.2,2.1,2.4,4.1,3.6,6.1C510.4,97.4,510.5,97.4,510.6,97.4z"/>
	<path class="st44" d="M498,72h0.1c0.2-0.1,0.3-0.3,0.2-0.5c-0.8-2.2-1.6-4.4-2.3-6.7c-0.1-0.2-0.3-0.3-0.5-0.2
		c-0.2,0.1-0.3,0.3-0.2,0.5c0.7,2.2,1.5,4.5,2.3,6.7C497.8,72,497.9,72,498,72z"/>
	<path class="st44" d="M518.7,109c0.1,0,0.2,0,0.2-0.1c0.2-0.1,0.2-0.4,0.1-0.5c-1.4-1.9-2.9-3.8-4.2-5.7c-0.1-0.2-0.3-0.2-0.5-0.1
		s-0.2,0.3-0.1,0.5c1.3,1.9,2.8,3.9,4.2,5.7C518.5,109,518.6,109,518.7,109z"/>
	<path class="st44" d="M528,119.8c0.1,0,0.2,0,0.2-0.1c0.1-0.1,0.2-0.4,0-0.5c-1.6-1.7-3.2-3.5-4.7-5.3c-0.1-0.2-0.4-0.2-0.5,0
		c-0.2,0.1-0.2,0.4,0,0.5c1.5,1.8,3.1,3.6,4.8,5.3C527.8,119.8,527.9,119.8,528,119.8z"/>
	<path class="st44" d="M574.3,151.5c-2.2-0.9-4.3-1.9-6.4-3c-0.2-0.1-0.4,0-0.5,0.2s0,0.4,0.2,0.5c2.1,1,4.3,2.1,6.4,3h0.1
		c0.1,0,0.3-0.1,0.3-0.2C574.6,151.8,574.5,151.6,574.3,151.5z"/>
	<path class="st44" d="M561.6,145.2c-2.1-1.2-4.1-2.4-6.1-3.6c-0.2-0.1-0.4-0.1-0.5,0.1c-0.1,0.2-0.1,0.4,0.1,0.5
		c2,1.3,4.1,2.5,6.1,3.6c0.1,0,0.1,0,0.2,0c0.1,0,0.2-0.1,0.3-0.2C561.9,145.5,561.8,145.3,561.6,145.2z"/>
	<path class="st44" d="M538.2,129.6c0.1,0,0.2,0,0.3-0.1c0.1-0.2,0.1-0.4,0-0.5c-1.8-1.5-3.5-3.1-5.2-4.8c-0.1-0.1-0.4-0.1-0.5,0
		s-0.1,0.4,0,0.5c1.7,1.6,3.5,3.2,5.3,4.8C538.1,129.6,538.1,129.6,538.2,129.6z"/>
	<path class="st44" d="M601.2,160.2c-2.3-0.5-4.6-1.1-6.9-1.7c-0.2-0.1-0.4,0.1-0.4,0.3c-0.1,0.2,0.1,0.4,0.3,0.4
		c2.3,0.6,4.6,1.2,6.9,1.7h0.1c0.2,0,0.3-0.1,0.4-0.3C601.5,160.4,601.4,160.2,601.2,160.2z"/>
	<path class="st44" d="M731.8,121.7c-0.1-0.1-0.4-0.1-0.5,0c-1.7,1.7-3.4,3.3-5.1,4.9c-0.1,0.1-0.2,0.4,0,0.5
		c0.1,0.1,0.2,0.1,0.3,0.1s0.2,0,0.2-0.1c1.7-1.6,3.5-3.2,5.2-4.9C731.9,122.1,731.9,121.9,731.8,121.7z"/>
	<path class="st44" d="M721.3,131.3c-0.1-0.2-0.4-0.2-0.5-0.1c-1.8,1.5-3.7,2.9-5.6,4.3c-0.2,0.1-0.2,0.3-0.1,0.5
		c0.1,0.1,0.2,0.1,0.3,0.1s0.2,0,0.2-0.1c1.9-1.4,3.8-2.9,5.6-4.4C721.4,131.7,721.4,131.4,721.3,131.3z"/>
	<path class="st44" d="M759.8,81.8c0.1,0,0.3-0.1,0.3-0.2c1-2.1,1.9-4.3,2.8-6.5c0.1-0.2,0-0.4-0.2-0.5s-0.4,0-0.5,0.2
		c-0.9,2.2-1.8,4.4-2.8,6.5c-0.1,0.2,0,0.4,0.2,0.5C759.7,81.8,759.8,81.8,759.8,81.8z"/>
	<path class="st44" d="M736.7,117.1c1.6-1.8,3.1-3.6,4.6-5.4c0.1-0.2,0.1-0.4-0.1-0.5c-0.2-0.1-0.4-0.1-0.5,0.1
		c-1.5,1.8-3,3.6-4.6,5.4c-0.1,0.1-0.1,0.4,0,0.5s0.2,0.1,0.2,0.1C736.5,117.2,736.6,117.2,736.7,117.1z"/>
	<path class="st44" d="M753.2,94.4c0.1,0,0.2-0.1,0.3-0.2c1.2-2,2.4-4.1,3.5-6.2c0.1-0.2,0-0.4-0.2-0.5s-0.4,0-0.5,0.2
		c-1.1,2.1-2.3,4.2-3.5,6.2c-0.1,0.2,0,0.4,0.1,0.5C753.1,94.4,753.2,94.4,753.2,94.4z"/>
	<path class="st44" d="M709.9,139.7c-0.1-0.2-0.3-0.2-0.5-0.1c-2,1.3-4,2.6-6,3.8c-0.2,0.1-0.2,0.3-0.1,0.5c0.1,0.1,0.2,0.2,0.3,0.2
		s0.1,0,0.2-0.1c2-1.2,4-2.5,6-3.8C710,140.1,710,139.9,709.9,139.7z"/>
	<path class="st44" d="M745.7,106.1c1.4-1.9,2.8-3.9,4.1-5.8c0.1-0.2,0.1-0.4-0.1-0.5c-0.2-0.1-0.4-0.1-0.5,0.1
		c-1.3,2-2.7,3.9-4.1,5.8c-0.1,0.2-0.1,0.4,0.1,0.5c0.1,0,0.1,0.1,0.2,0.1C745.5,106.2,745.6,106.2,745.7,106.1z"/>
	<path class="st44" d="M691.1,150.7c0.1,0,0.1,0,0.2,0c2.1-1,4.3-2.1,6.4-3.2c0.2-0.1,0.2-0.3,0.2-0.5c-0.1-0.2-0.3-0.2-0.5-0.2
		c-2.1,1.1-4.2,2.2-6.3,3.2c-0.2,0.1-0.3,0.3-0.2,0.5C690.8,150.6,690.9,150.7,691.1,150.7z"/>
	<path class="st44" d="M664.4,160.1L664.4,160.1c2.4-0.6,4.7-1.2,6.9-1.9c0.2-0.1,0.3-0.3,0.2-0.5s-0.3-0.3-0.5-0.2
		c-2.2,0.7-4.5,1.3-6.8,1.8c-0.2,0-0.3,0.2-0.3,0.4C664.1,160,664.2,160.1,664.4,160.1z"/>
	<path class="st44" d="M657.4,160.9c-2.3,0.4-4.6,0.8-7,1.1c-0.2,0-0.3,0.2-0.3,0.4s0.2,0.3,0.4,0.3c0,0,0,0,0.1,0
		c2.3-0.3,4.7-0.7,7-1.1c0.2,0,0.3-0.2,0.3-0.4C657.8,161,657.6,160.8,657.4,160.9z"/>
	<path class="st44" d="M769.5,54.8c0.5-2.3,1-4.6,1.5-7c0-0.2-0.1-0.4-0.3-0.4s-0.4,0.1-0.4,0.3c-0.4,2.3-0.9,4.6-1.5,6.9
		c0,0.2,0.1,0.4,0.3,0.4h0.1C769.3,55.1,769.4,54.9,769.5,54.8z"/>
	<path class="st44" d="M643.4,162.8c-2.3,0.2-4.7,0.4-7.1,0.4c-0.2,0-0.4,0.2-0.3,0.4c0,0.2,0.2,0.3,0.4,0.3l0,0
		c2.4-0.1,4.7-0.2,7.1-0.4c0.2,0,0.3-0.2,0.3-0.4C643.8,163,643.6,162.8,643.4,162.8z"/>
	<path class="st44" d="M765.1,68.7c0.2,0,0.3-0.1,0.3-0.2c0.8-2.2,1.5-4.5,2.2-6.8c0.1-0.2-0.1-0.4-0.2-0.4
		c-0.2-0.1-0.4,0.1-0.4,0.2c-0.7,2.3-1.4,4.5-2.1,6.7C764.8,68.4,764.9,68.6,765.1,68.7L765.1,68.7z"/>
	<path class="st44" d="M678,156.1L678,156.1c2.3-0.8,4.6-1.6,6.7-2.5c0.2-0.1,0.3-0.3,0.2-0.5s-0.3-0.3-0.5-0.2
		c-2.2,0.9-4.4,1.7-6.6,2.5c-0.2,0.1-0.3,0.3-0.2,0.5C677.7,156,677.8,156.1,678,156.1z"/>
	<path class="st44" d="M543.9,133.5c-0.2-0.1-0.4-0.1-0.5,0.1c-0.1,0.2-0.1,0.4,0.1,0.5c1.9,1.5,3.8,2.9,5.7,4.2
		c0.1,0,0.1,0.1,0.2,0.1c0.1,0,0.2-0.1,0.3-0.2c0.1-0.2,0.1-0.4-0.1-0.5C547.7,136.3,545.8,134.9,543.9,133.5z"/>
	<path class="st44" d="M489.6,8.7c-0.2,0-0.4,0.1-0.4,0.3c-0.2,2.4-0.4,4.7-0.5,7.1c0,0.2,0.1,0.4,0.3,0.4l0,0
		c0.2,0,0.4-0.2,0.4-0.3c0.1-2.3,0.3-4.7,0.5-7.1C489.9,8.8,489.8,8.7,489.6,8.7z"/>
	<path class="st44" d="M489.4,37.4c0.3,2.3,0.6,4.7,1,7c0,0.2,0.2,0.3,0.4,0.3c0,0,0,0,0.1,0c0.2,0,0.3-0.2,0.3-0.4
		c-0.4-2.3-0.7-4.7-1-7c0-0.2-0.2-0.3-0.4-0.3S489.4,37.2,489.4,37.4z"/>
	<path class="st44" d="M490,1.9c0,0.2,0.1,0.4,0.3,0.4c0,0,0,0,0.1,0c0.2,0,0.3-0.1,0.4-0.3c0.1-0.7,0.2-1.4,0.3-2.2h-0.7
		C490.2,0.5,490.1,1.2,490,1.9z"/>
	<path class="st44" d="M771.3,0.1L771.3,0.1c0.2,0,0.3-0.1,0.3-0.2H771C771.1,0,771.2,0.1,771.3,0.1z"/>
	<path class="st44" d="M488.6,23.2c0,2.4,0.1,4.7,0.2,7.1c0,0.2,0.2,0.3,0.4,0.3l0,0c0.2,0,0.4-0.2,0.3-0.4
		c-0.1-2.3-0.2-4.7-0.2-7.1c0-0.2-0.2-0.3-0.4-0.4C488.8,22.8,488.6,23,488.6,23.2z"/>
	<path class="st44" d="M438.6,17.4c0,1.5-0.1,3-0.1,4.5c0,0.9,0,1.7,0,2.6c0,0.2,0.2,0.4,0.4,0.4l0,0c0.2,0,0.4-0.2,0.4-0.4
		c0-0.9,0-1.7,0-2.6c0-1.5,0-3,0.1-4.5c0-0.2-0.2-0.4-0.4-0.4C438.8,17.1,438.6,17.2,438.6,17.4z"/>
	<path class="st44" d="M650,213.2c2.3-0.2,4.7-0.5,7-0.8c0.2,0,0.3-0.2,0.3-0.4s-0.2-0.3-0.4-0.3c-2.3,0.3-4.7,0.6-7,0.8
		c-0.2,0-0.3,0.2-0.3,0.4C649.6,213.1,649.7,213.2,650,213.2C649.9,213.2,649.9,213.2,650,213.2z"/>
	<path class="st44" d="M670.9,210c0.2,0,0.3-0.2,0.3-0.4s-0.2-0.3-0.4-0.3c-2.3,0.5-4.6,0.9-6.9,1.3c-0.2,0-0.3,0.2-0.3,0.4
		s0.2,0.3,0.4,0.3c0,0,0,0,0.1,0C666.3,210.9,668.6,210.5,670.9,210z"/>
	<path class="st44" d="M441,52.7c0,0.2,0.2,0.3,0.4,0.3c0,0,0,0,0.1,0c0.2,0,0.3-0.2,0.3-0.4c-0.4-2.3-0.7-4.7-1-7
		c0-0.2-0.2-0.3-0.4-0.3c-0.2,0-0.3,0.2-0.3,0.4C440.3,48,440.6,50.4,441,52.7z"/>
	<path class="st44" d="M439.1,31.2c-0.2,0-0.4,0.2-0.3,0.4c0.1,2.3,0.3,4.7,0.5,7.1c0,0.2,0.2,0.3,0.4,0.3l0,0
		c0.2,0,0.3-0.2,0.3-0.4c-0.2-2.3-0.4-4.7-0.5-7C439.5,31.3,439.3,31.2,439.1,31.2z"/>
	<path class="st44" d="M450.5,86.6c-0.1-0.2-0.3-0.3-0.5-0.2c-0.2,0.1-0.3,0.3-0.2,0.5c0.8,2.2,1.6,4.4,2.5,6.6
		c0.1,0.1,0.2,0.2,0.3,0.2h0.1c0.2-0.1,0.3-0.3,0.2-0.5C452.2,91,451.3,88.8,450.5,86.6z"/>
	<path class="st44" d="M635.8,214.1L635.8,214.1c2.4-0.1,4.7-0.2,7.1-0.3c0.2,0,0.4-0.2,0.3-0.4c0-0.2-0.2-0.4-0.4-0.3
		c-2.3,0.1-4.7,0.2-7,0.3c-0.2,0-0.4,0.2-0.4,0.4C635.5,213.9,635.6,214.1,635.8,214.1z"/>
	<path class="st44" d="M439.8,3c-0.2,0-0.4,0.1-0.4,0.3c-0.2,2.3-0.4,4.7-0.6,7.1c0,0.2,0.1,0.4,0.3,0.4l0,0c0.2,0,0.3-0.1,0.4-0.3
		c0.1-2.3,0.3-4.7,0.6-7C440.2,3.2,440,3,439.8,3z"/>
	<path class="st44" d="M614.7,212.7c-2.3-0.2-4.7-0.4-7-0.7c-0.2,0-0.4,0.1-0.4,0.3s0.1,0.4,0.3,0.4c2.3,0.3,4.7,0.5,7,0.7l0,0
		c0.2,0,0.3-0.1,0.4-0.3C615,212.9,614.9,212.7,614.7,212.7z"/>
	<path class="st44" d="M628.8,213.4c-2.3,0-4.7-0.1-7-0.2c-0.2,0-0.4,0.1-0.4,0.3s0.1,0.4,0.3,0.4c2.4,0.1,4.7,0.2,7.1,0.2l0,0
		c0.2,0,0.4-0.2,0.4-0.4C629.1,213.6,629,213.4,628.8,213.4z"/>
	<path class="st44" d="M443,59.5c0-0.2-0.2-0.3-0.4-0.3c-0.2,0-0.3,0.2-0.3,0.4c0.5,2.3,1,4.6,1.5,6.9c0,0.2,0.2,0.3,0.4,0.3h0.1
		c0.2,0,0.3-0.2,0.3-0.4C444,64.1,443.4,61.8,443,59.5z"/>
	<path class="st44" d="M447.9,80.4h0.1c0.2-0.1,0.3-0.3,0.2-0.5c-0.7-2.2-1.4-4.5-2-6.7c-0.1-0.2-0.3-0.3-0.4-0.3
		c-0.2,0.1-0.3,0.3-0.3,0.4c0.6,2.3,1.3,4.5,2,6.8C447.6,80.3,447.8,80.4,447.9,80.4z"/>
	<path class="st44" d="M458.5,106.5c0.1,0,0.1,0,0.2,0c0.2-0.1,0.3-0.3,0.2-0.5c-1-2.1-2-4.2-3-6.4c-0.1-0.2-0.3-0.3-0.5-0.2
		c-0.2,0.1-0.3,0.3-0.2,0.5c1,2.1,2,4.3,3,6.4C458.2,106.5,458.3,106.5,458.5,106.5z"/>
	<path class="st44" d="M822,37.3c-0.2,2.3-0.4,4.7-0.7,7c0,0.2,0.1,0.4,0.3,0.4l0,0c0.2,0,0.3-0.1,0.4-0.3c0.3-2.3,0.5-4.7,0.7-7
		c0-0.2-0.1-0.4-0.3-0.4S822,37.1,822,37.3z"/>
	<path class="st44" d="M723.8,189.8c-0.1-0.2-0.3-0.2-0.5-0.1c-2,1.1-4.1,2.2-6.2,3.3c-0.2,0.1-0.3,0.3-0.2,0.5
		c0.1,0.1,0.2,0.2,0.3,0.2s0.1,0,0.2,0c2.1-1.1,4.2-2.2,6.3-3.3C723.9,190.2,723.9,190,723.8,189.8z"/>
	<path class="st44" d="M747.5,174.3c-0.1-0.2-0.3-0.2-0.5-0.1c-1.9,1.4-3.8,2.8-5.7,4.2c-0.2,0.1-0.2,0.3-0.1,0.5
		c0.1,0.1,0.2,0.2,0.3,0.2s0.1,0,0.2-0.1c1.9-1.4,3.8-2.8,5.7-4.2C747.6,174.7,747.6,174.5,747.5,174.3z"/>
	<path class="st44" d="M735.9,182.5c-0.1-0.2-0.3-0.2-0.5-0.1c-2,1.3-4,2.5-6,3.7c-0.2,0.1-0.2,0.3-0.1,0.5c0.1,0.1,0.2,0.2,0.3,0.2
		s0.1,0,0.2-0.1c2-1.2,4-2.5,6-3.8C736,182.9,736,182.7,735.9,182.5z"/>
	<path class="st44" d="M684.8,206.1c-0.1-0.2-0.3-0.3-0.4-0.2c-2.2,0.7-4.5,1.3-6.8,1.8c-0.2,0-0.3,0.2-0.3,0.4s0.2,0.3,0.4,0.3h0.1
		c2.3-0.6,4.6-1.2,6.8-1.9C684.8,206.5,684.9,206.3,684.8,206.1z"/>
	<path class="st44" d="M821.6,2.1c0,0.2,0.2,0.3,0.4,0.3l0,0c0.2,0,0.3-0.2,0.3-0.4c-0.1-0.7-0.2-1.5-0.2-2.2h-0.7
		C821.5,0.6,821.5,1.4,821.6,2.1z"/>
	<path class="st44" d="M823,22.9c-0.2,0-0.4,0.2-0.4,0.4c0,2.3-0.1,4.7-0.2,7c0,0.2,0.1,0.4,0.3,0.4l0,0c0.2,0,0.4-0.2,0.4-0.3
		c0.1-2.3,0.2-4.7,0.2-7.1C823.3,23,823.2,22.9,823,22.9L823,22.9z"/>
	<path class="st44" d="M822.5,8.8c-0.2,0-0.4,0.2-0.3,0.4c0.2,2.3,0.3,4.7,0.3,7c0,0.2,0.2,0.4,0.4,0.4l0,0c0.2,0,0.4-0.2,0.4-0.4
		c-0.1-2.3-0.2-4.7-0.3-7.1C822.9,8.9,822.7,8.8,822.5,8.8z"/>
	<path class="st44" d="M711.2,196.2c-0.1-0.2-0.3-0.3-0.5-0.2c-2.1,1-4.3,1.9-6.5,2.8c-0.2,0.1-0.3,0.3-0.2,0.5
		c0.1,0.1,0.2,0.2,0.3,0.2h0.1c2.2-0.9,4.3-1.9,6.5-2.8C711.2,196.6,711.3,196.3,711.2,196.2z"/>
	<path class="st44" d="M698.2,201.6c-0.1-0.2-0.3-0.3-0.5-0.2c-2.2,0.8-4.4,1.6-6.6,2.3c-0.2,0.1-0.3,0.3-0.2,0.5s0.2,0.2,0.3,0.2
		h0.1c2.2-0.7,4.5-1.5,6.7-2.3C698.2,202,698.3,201.8,698.2,201.6z"/>
	<path class="st44" d="M812.6,83.9c-0.2-0.1-0.4,0-0.5,0.2c-0.8,2.2-1.6,4.4-2.4,6.6c-0.1,0.2,0,0.4,0.2,0.5h0.1
		c0.1,0,0.3-0.1,0.3-0.2c0.8-2.2,1.7-4.4,2.4-6.7C812.9,84.1,812.8,83.9,812.6,83.9z"/>
	<path class="st44" d="M768.1,155.6c-1.6,1.7-3.3,3.3-5,5c-0.1,0.1-0.2,0.4,0,0.5c0.1,0.1,0.2,0.1,0.3,0.1s0.2,0,0.2-0.1
		c1.7-1.6,3.4-3.3,5-5c0.1-0.1,0.1-0.4,0-0.5S768.2,155.5,768.1,155.6z"/>
	<path class="st44" d="M481.1,142.2c0.1,0,0.2,0,0.2-0.1c0.2-0.1,0.2-0.4,0.1-0.5c-1.5-1.8-2.9-3.7-4.3-5.6
		c-0.1-0.2-0.3-0.2-0.5-0.1c-0.2,0.1-0.2,0.3-0.1,0.5c1.4,1.9,2.9,3.8,4.3,5.6C480.9,142.2,481,142.2,481.1,142.2z"/>
	<path class="st44" d="M801.6,109.9c-0.2-0.1-0.4,0-0.5,0.2c-1.1,2.1-2.2,4.2-3.4,6.2c-0.1,0.2,0,0.4,0.1,0.5c0.1,0,0.1,0,0.2,0
		c0.1,0,0.2-0.1,0.3-0.2c1.2-2.1,2.3-4.2,3.4-6.2C801.8,110.2,801.8,109.9,801.6,109.9z"/>
	<path class="st44" d="M534.6,187.5c-2-1.2-4.1-2.4-6-3.7c-0.2-0.1-0.4-0.1-0.5,0.1c-0.1,0.2-0.1,0.4,0.1,0.5c2,1.3,4,2.5,6.1,3.7
		c0.1,0,0.1,0,0.2,0c0.1,0,0.2-0.1,0.3-0.2C534.8,187.8,534.8,187.6,534.6,187.5z"/>
	<path class="st44" d="M547.1,194.1c-2.1-1-4.2-2.1-6.3-3.2c-0.2-0.1-0.4,0-0.5,0.1c-0.1,0.2,0,0.4,0.1,0.5c2.1,1.1,4.2,2.2,6.3,3.2
		c0.1,0,0.1,0,0.2,0c0.1,0,0.3-0.1,0.3-0.2C547.3,194.4,547.3,194.2,547.1,194.1z"/>
	<path class="st44" d="M794.6,122.2c-0.2-0.1-0.4-0.1-0.5,0.1c-1.2,2-2.5,4-3.8,5.9c-0.1,0.2-0.1,0.4,0.1,0.5c0.1,0,0.1,0.1,0.2,0.1
		c0.1,0,0.2-0.1,0.3-0.2c1.3-2,2.6-4,3.8-6C794.9,122.5,794.8,122.3,794.6,122.2z"/>
	<path class="st44" d="M758.4,165.4c-0.1-0.1-0.4-0.2-0.5,0c-1.7,1.5-3.6,3.1-5.4,4.6c-0.2,0.1-0.2,0.4-0.1,0.5
		c0.1,0.1,0.2,0.1,0.3,0.1s0.2,0,0.2-0.1c1.8-1.5,3.6-3,5.4-4.6C758.5,165.7,758.5,165.5,758.4,165.4z"/>
	<path class="st44" d="M516.9,175.8c-0.2-0.1-0.4-0.1-0.5,0.1c-0.1,0.2-0.1,0.4,0.1,0.5c1.9,1.4,3.8,2.8,5.8,4.1
		c0.1,0,0.1,0.1,0.2,0.1c0.1,0,0.2-0.1,0.3-0.2c0.1-0.2,0.1-0.4-0.1-0.5C520.7,178.6,518.8,177.2,516.9,175.8z"/>
	<path class="st44" d="M500.4,162.9c0.1,0,0.2,0,0.3-0.1c0.1-0.1,0.1-0.4,0-0.5c-1.7-1.6-3.4-3.2-5.1-4.9c-0.1-0.1-0.4-0.1-0.5,0
		s-0.1,0.4,0,0.5c1.7,1.7,3.4,3.3,5.1,4.9C500.2,162.9,500.3,162.9,500.4,162.9z"/>
	<path class="st44" d="M807.6,97.1c-0.2-0.1-0.4,0-0.5,0.2c-0.9,2.2-1.9,4.3-2.9,6.4c-0.1,0.2,0,0.4,0.2,0.5c0.1,0,0.1,0,0.2,0
		c0.1,0,0.3-0.1,0.3-0.2c1-2.1,2-4.3,2.9-6.5C807.9,97.4,807.8,97.1,807.6,97.1z"/>
	<path class="st44" d="M560,199.8c-2.2-0.9-4.4-1.8-6.5-2.7c-0.2-0.1-0.4,0-0.5,0.2s0,0.4,0.2,0.5c2.1,0.9,4.3,1.9,6.5,2.7h0.1
		c0.1,0,0.3-0.1,0.3-0.2C560.3,200.1,560.2,199.9,560,199.8z"/>
	<path class="st44" d="M505.9,167c-0.2-0.1-0.4-0.1-0.5,0s-0.1,0.4,0,0.5c1.8,1.5,3.6,3.1,5.5,4.5c0.1,0.1,0.1,0.1,0.2,0.1
		s0.2,0,0.3-0.1c0.1-0.2,0.1-0.4-0.1-0.5C509.5,170.1,507.7,168.6,505.9,167z"/>
	<path class="st44" d="M490.4,152.9c0.1,0,0.2,0,0.2-0.1c0.1-0.1,0.2-0.4,0-0.5c-1.6-1.7-3.2-3.5-4.7-5.3c-0.1-0.2-0.4-0.2-0.5,0
		c-0.2,0.1-0.2,0.4,0,0.5c1.5,1.8,3.1,3.6,4.7,5.3C490.2,152.9,490.3,152.9,490.4,152.9z"/>
	<path class="st44" d="M820.7,51c-0.2,0-0.4,0.1-0.4,0.3c-0.3,1.8-0.6,3.7-0.9,5.5c-0.4,2.3-0.9,4.6-1.4,6.9c0,0.2,0.1,0.4,0.3,0.4
		h0.1c0.2,0,0.3-0.1,0.4-0.3c0.5-2.3,1-4.6,1.4-6.9c0.3-1.8,0.7-3.7,0.9-5.5C821,51.2,820.9,51.1,820.7,51z"/>
	<path class="st44" d="M586.9,208.3c-2.3-0.5-4.6-1.1-6.8-1.7c-0.2-0.1-0.4,0.1-0.4,0.3c-0.1,0.2,0.1,0.4,0.3,0.4
		c2.3,0.6,4.6,1.2,6.9,1.7h0.1c0.2,0,0.3-0.1,0.4-0.3C587.2,208.5,587.1,208.3,586.9,208.3z"/>
	<path class="st44" d="M469.1,124.5c-0.1-0.2-0.3-0.2-0.5-0.1s-0.2,0.3-0.1,0.5c1.3,2,2.6,4,3.9,5.9c0.1,0.1,0.2,0.2,0.3,0.2
		c0.1,0,0.1,0,0.2-0.1c0.2-0.1,0.2-0.3,0.1-0.5C471.7,128.4,470.4,126.4,469.1,124.5z"/>
	<path class="st44" d="M600.7,211c-1.6-0.3-3.3-0.5-4.9-0.8c-0.7-0.1-1.4-0.3-2.1-0.4c-0.2,0-0.4,0.1-0.4,0.3s0.1,0.4,0.3,0.4
		c0.7,0.1,1.4,0.3,2.1,0.4c1.6,0.3,3.3,0.6,4.9,0.8c0,0,0,0,0.1,0c0.2,0,0.3-0.1,0.4-0.3C601,211.2,600.9,211,600.7,211z"/>
	<path class="st44" d="M816.7,70.3c-0.2-0.1-0.4,0.1-0.4,0.3c-0.6,2.3-1.2,4.5-1.9,6.8c-0.1,0.2,0.1,0.4,0.2,0.5h0.1
		c0.2,0,0.3-0.1,0.3-0.3c0.7-2.2,1.3-4.5,1.9-6.8C817,70.6,816.9,70.4,816.7,70.3z"/>
	<path class="st44" d="M777.6,145.2c-1.5,1.8-3.1,3.6-4.6,5.3c-0.1,0.1-0.1,0.4,0,0.5s0.2,0.1,0.2,0.1c0.1,0,0.2,0,0.3-0.1
		c1.6-1.7,3.2-3.5,4.7-5.3c0.1-0.2,0.1-0.4,0-0.5C777.9,145,777.7,145,777.6,145.2z"/>
	<path class="st44" d="M462,112.3c-0.1-0.2-0.3-0.2-0.5-0.1s-0.2,0.3-0.1,0.5c1.1,2.1,2.3,4.2,3.5,6.2c0.1,0.1,0.2,0.2,0.3,0.2
		c0.1,0,0.1,0,0.2,0c0.2-0.1,0.2-0.3,0.1-0.5C464.3,116.4,463.1,114.4,462,112.3z"/>
	<path class="st44" d="M573.3,204.5c-2.2-0.7-4.5-1.5-6.7-2.2c-0.2-0.1-0.4,0-0.5,0.2s0,0.4,0.2,0.5c2.2,0.8,4.5,1.5,6.7,2.2h0.1
		c0.2,0,0.3-0.1,0.3-0.3C573.6,204.8,573.5,204.6,573.3,204.5z"/>
	<path class="st44" d="M786.3,134c-1.4,1.9-2.8,3.8-4.2,5.6c-0.1,0.2-0.1,0.4,0.1,0.5c0.1,0.1,0.1,0.1,0.2,0.1c0.1,0,0.2,0,0.3-0.1
		c1.4-1.9,2.9-3.8,4.3-5.7c0.1-0.2,0.1-0.4-0.1-0.5C786.6,133.8,786.4,133.9,786.3,134z"/>
	<path class="st44" d="M847.5,125.8c-0.2-0.1-0.4,0-0.5,0.2c-1,2.1-2.1,4.3-3.2,6.4c-0.1,0.2,0,0.4,0.2,0.5c0.1,0,0.1,0,0.2,0
		c0.1,0,0.3-0.1,0.3-0.2c1.1-2.1,2.2-4.3,3.2-6.4C847.7,126.1,847.7,125.9,847.5,125.8z"/>
	<path class="st44" d="M840.9,138.5c-0.2-0.1-0.4,0-0.5,0.1c-1.2,2.1-2.4,4.2-3.6,6.2c-0.1,0.2,0,0.4,0.1,0.5c0.1,0,0.1,0.1,0.2,0.1
		c0.1,0,0.2-0.1,0.3-0.2c1.2-2,2.4-4.1,3.6-6.2C841.2,138.8,841.1,138.6,840.9,138.5z"/>
	<path class="st44" d="M786.2,204.6c-1.8,1.5-3.7,3.1-5.5,4.5c-0.2,0.1-0.2,0.4-0.1,0.5c0.1,0.1,0.2,0.1,0.3,0.1s0.2,0,0.2-0.1
		c1.9-1.5,3.7-3,5.5-4.6c0.2-0.1,0.2-0.4,0-0.5C786.6,204.4,786.4,204.4,786.2,204.6z"/>
	<path class="st44" d="M853.3,112.7c-0.2-0.1-0.4,0-0.5,0.2c-0.9,2.2-1.8,4.4-2.8,6.6c-0.1,0.2,0,0.4,0.2,0.5h0.1
		c0.1,0,0.3-0.1,0.3-0.2c1-2.2,1.9-4.4,2.8-6.6C853.5,113,853.5,112.8,853.3,112.7z"/>
	<path class="st44" d="M825,162.7c-1.4,1.9-2.8,3.8-4.3,5.7c-0.1,0.2-0.1,0.4,0.1,0.5c0.1,0.1,0.1,0.1,0.2,0.1c0.1,0,0.2,0,0.3-0.1
		c1.5-1.9,2.9-3.8,4.3-5.7c0.1-0.2,0.1-0.4-0.1-0.5C825.4,162.5,825.2,162.6,825,162.7z"/>
	<path class="st44" d="M858.3,99.3c-0.2-0.1-0.4,0-0.5,0.2c-0.8,2.2-1.6,4.5-2.4,6.7c-0.1,0.2,0,0.4,0.2,0.5h0.1
		c0.1,0,0.3-0.1,0.3-0.2c0.8-2.2,1.6-4.5,2.4-6.7C858.6,99.6,858.5,99.4,858.3,99.3z"/>
	<path class="st44" d="M796.8,195c-1.7,1.6-3.5,3.3-5.2,4.9c-0.1,0.1-0.2,0.4,0,0.5c0.1,0.1,0.2,0.1,0.3,0.1s0.2,0,0.2-0.1
		c1.8-1.6,3.5-3.2,5.3-4.9c0.1-0.1,0.1-0.4,0-0.5C797.2,194.9,797,194.9,796.8,195z"/>
	<path class="st44" d="M806.9,184.8c-1.6,1.7-3.3,3.5-4.9,5.2c-0.1,0.1-0.1,0.4,0,0.5s0.2,0.1,0.3,0.1s0.2,0,0.3-0.1
		c1.7-1.7,3.3-3.4,5-5.2c0.1-0.1,0.1-0.4,0-0.5C807.2,184.7,807,184.7,806.9,184.8z"/>
	<path class="st44" d="M816.3,174c-1.5,1.8-3.1,3.7-4.6,5.5c-0.1,0.2-0.1,0.4,0,0.5s0.2,0.1,0.2,0.1c0.1,0,0.2,0,0.3-0.1
		c1.6-1.8,3.1-3.6,4.6-5.5c0.1-0.2,0.1-0.4,0-0.5C816.6,173.9,816.4,173.9,816.3,174z"/>
	<path class="st44" d="M775.1,213.5c-1.9,1.4-3.8,2.8-5.8,4.2c-0.2,0.1-0.2,0.3-0.1,0.5c0.1,0.1,0.2,0.2,0.3,0.2s0.1,0,0.2-0.1
		c1.9-1.4,3.9-2.8,5.8-4.2c0.2-0.1,0.2-0.3,0.1-0.5C775.5,213.4,775.2,213.3,775.1,213.5z"/>
	<path class="st44" d="M763.4,221.7c-2,1.3-4,2.6-6,3.9c-0.2,0.1-0.2,0.3-0.1,0.5c0.1,0.1,0.2,0.2,0.3,0.2s0.1,0,0.2-0.1
		c2-1.3,4.1-2.6,6-3.9c0.2-0.1,0.2-0.3,0.1-0.5C763.8,221.6,763.6,221.6,763.4,221.7z"/>
	<path class="st44" d="M833.6,150.8c-0.2-0.1-0.4-0.1-0.5,0.1c-1.3,2-2.6,4-3.9,6c-0.1,0.2-0.1,0.4,0.1,0.5c0.1,0,0.1,0.1,0.2,0.1
		c0.1,0,0.2-0.1,0.3-0.2c1.3-2,2.7-4,4-6C833.8,151.1,833.8,150.9,833.6,150.8z"/>
	<path class="st44" d="M685.2,255.4c-2.3,0.5-4.6,1-7,1.5c-0.2,0-0.3,0.2-0.3,0.4c0,0.2,0.2,0.3,0.4,0.3c0,0,0,0,0.1,0
		c2.3-0.5,4.7-1,7-1.5c0.2,0,0.3-0.2,0.3-0.4C685.6,255.5,685.4,255.4,685.2,255.4z"/>
	<path class="st44" d="M422.7,140.9c-0.1-0.2-0.3-0.2-0.5-0.1c-0.2,0.1-0.2,0.3-0.1,0.5c1.2,2.1,2.4,4.1,3.6,6.2
		c0.1,0.1,0.2,0.2,0.3,0.2c0.1,0,0.1,0,0.2-0.1c0.2-0.1,0.2-0.3,0.1-0.5C425.1,145,423.9,143,422.7,140.9z"/>
	<path class="st44" d="M430.1,153.1c-0.1-0.2-0.3-0.2-0.5-0.1c-0.2,0.1-0.2,0.3-0.1,0.5c1.3,2,2.7,4,4,5.9c0.1,0.1,0.2,0.2,0.3,0.2
		c0.1,0,0.1,0,0.2-0.1c0.2-0.1,0.2-0.3,0.1-0.5C432.8,157.1,431.5,155.1,430.1,153.1z"/>
	<path class="st44" d="M416,128.3c-0.1-0.2-0.3-0.3-0.5-0.2s-0.3,0.3-0.2,0.5c1.1,2.1,2.2,4.3,3.3,6.4c0.1,0.1,0.2,0.2,0.3,0.2
		c0.1,0,0.1,0,0.2,0c0.2-0.1,0.2-0.3,0.1-0.5C418.1,132.6,417,130.4,416,128.3z"/>
	<path class="st44" d="M438.3,164.8c-0.1-0.2-0.3-0.2-0.5-0.1c-0.2,0.1-0.2,0.3-0.1,0.5c1.4,1.9,2.9,3.8,4.4,5.7
		c0.1,0.1,0.2,0.1,0.3,0.1c0.1,0,0.2,0,0.2-0.1c0.2-0.1,0.2-0.4,0.1-0.5C441.2,168.6,439.7,166.7,438.3,164.8z"/>
	<path class="st44" d="M477.5,206.2c-0.2-0.1-0.4-0.1-0.5,0c-0.1,0.2-0.1,0.4,0,0.5c1.8,1.5,3.7,3,5.6,4.5c0.1,0.1,0.1,0.1,0.2,0.1
		s0.2,0,0.3-0.1c0.1-0.2,0.1-0.4-0.1-0.5C481.2,209.3,479.3,207.7,477.5,206.2z"/>
	<path class="st44" d="M410,115.4c-0.1-0.2-0.3-0.3-0.5-0.2c-0.2,0.1-0.3,0.3-0.2,0.5c0.9,2.2,1.9,4.4,2.9,6.5
		c0.1,0.1,0.2,0.2,0.3,0.2c0.1,0,0.1,0,0.2,0c0.2-0.1,0.3-0.3,0.2-0.5C411.9,119.7,410.9,117.5,410,115.4z"/>
	<path class="st44" d="M447.2,176c-0.1-0.2-0.4-0.2-0.5,0c-0.2,0.1-0.2,0.4,0,0.5c1.5,1.8,3.1,3.6,4.7,5.4c0.1,0.1,0.2,0.1,0.3,0.1
		c0.1,0,0.2,0,0.2-0.1c0.1-0.1,0.2-0.4,0-0.5C450.2,179.6,448.7,177.8,447.2,176z"/>
	<path class="st44" d="M488.7,215c-0.2-0.1-0.4-0.1-0.5,0.1s-0.1,0.4,0.1,0.5c1.9,1.4,3.9,2.8,5.8,4.2c0.1,0,0.1,0.1,0.2,0.1
		s0.2-0.1,0.3-0.2c0.1-0.2,0.1-0.4-0.1-0.5C492.6,217.8,490.6,216.4,488.7,215z"/>
	<path class="st44" d="M456.7,186.7c-0.1-0.1-0.4-0.2-0.5,0c-0.1,0.1-0.2,0.4,0,0.5c1.6,1.7,3.3,3.5,5,5.1c0.1,0.1,0.2,0.1,0.3,0.1
		s0.2,0,0.3-0.1c0.1-0.1,0.1-0.4,0-0.5C460,190.1,458.3,188.4,456.7,186.7z"/>
	<path class="st44" d="M466.8,196.8c-0.1-0.1-0.4-0.1-0.5,0s-0.1,0.4,0,0.5c1.7,1.6,3.5,3.3,5.3,4.8c0.1,0.1,0.2,0.1,0.2,0.1
		c0.1,0,0.2,0,0.3-0.1c0.1-0.1,0.1-0.4,0-0.5C470.3,200,468.5,198.4,466.8,196.8z"/>
	<path class="st44" d="M391.8,46.3c-0.2,0-0.3,0.2-0.3,0.4c0.2,2.4,0.5,4.7,0.8,7.1c0,0.2,0.2,0.3,0.4,0.3l0,0
		c0.2,0,0.3-0.2,0.3-0.4c-0.3-2.3-0.6-4.7-0.8-7.1C392.2,46.4,392,46.3,391.8,46.3z"/>
	<path class="st44" d="M390.8,11.4c0.2,0,0.4-0.2,0.4-0.3c0.1-2.4,0.3-4.8,0.4-7.1c0-0.2-0.1-0.4-0.3-0.4c-0.2,0-0.4,0.1-0.4,0.3
		c-0.2,2.4-0.3,4.8-0.4,7.1C390.5,11.2,390.6,11.4,390.8,11.4L390.8,11.4z"/>
	<path class="st44" d="M751.3,229.2c-2,1.2-4.1,2.4-6.2,3.5c-0.2,0.1-0.2,0.3-0.1,0.5c0.1,0.1,0.2,0.2,0.3,0.2s0.1,0,0.2,0
		c2.1-1.1,4.2-2.3,6.2-3.5c0.2-0.1,0.2-0.3,0.1-0.5C751.7,229.2,751.4,229.1,751.3,229.2z"/>
	<path class="st44" d="M404.8,102.1c-0.1-0.2-0.3-0.3-0.5-0.2c-0.2,0.1-0.3,0.3-0.2,0.5c0.8,2.2,1.6,4.5,2.5,6.7
		c0.1,0.1,0.2,0.2,0.3,0.2h0.1c0.2-0.1,0.3-0.3,0.2-0.5C406.5,106.5,405.6,104.3,404.8,102.1z"/>
	<path class="st44" d="M390.6,25.7c0.2,0,0.4-0.2,0.4-0.4c0-1.1,0-2.3,0-3.4c0-1.2,0-2.5,0-3.7c0-0.2-0.2-0.4-0.4-0.4
		c-0.2,0-0.4,0.2-0.4,0.4c0,1.2,0,2.5,0,3.7c0,1.1,0,2.3,0,3.4C390.2,25.5,390.4,25.7,390.6,25.7L390.6,25.7z"/>
	<path class="st44" d="M393.7,60.4c-0.2,0-0.3,0.2-0.3,0.4c0.4,2.3,0.8,4.7,1.3,7c0,0.2,0.2,0.3,0.4,0.3c0,0,0,0,0.1,0
		c0.2,0,0.3-0.2,0.3-0.4c-0.5-2.3-0.9-4.7-1.3-7C394.1,60.5,393.9,60.4,393.7,60.4z"/>
	<path class="st44" d="M400.4,88.5c-0.1-0.2-0.3-0.3-0.4-0.2c-0.2,0.1-0.3,0.3-0.2,0.4c0.7,2.3,1.4,4.6,2.1,6.8
		c0,0.2,0.2,0.3,0.3,0.3h0.1c0.2-0.1,0.3-0.3,0.2-0.5C401.8,93.1,401.1,90.8,400.4,88.5z"/>
	<path class="st44" d="M396.9,74.7c0-0.2-0.2-0.3-0.4-0.3c-0.2,0-0.3,0.2-0.3,0.4c0.5,2.3,1.1,4.6,1.7,6.9c0,0.2,0.2,0.3,0.4,0.3
		h0.1c0.2-0.1,0.3-0.2,0.3-0.4C398,79.3,397.4,77,396.9,74.7z"/>
	<path class="st44" d="M391.6,39.5c-0.2-2.4-0.3-4.8-0.4-7.1c0-0.2-0.2-0.3-0.4-0.3c-0.2,0-0.4,0.2-0.3,0.4c0.1,2.4,0.2,4.8,0.4,7.1
		c0,0.2,0.2,0.3,0.4,0.3l0,0C391.5,39.9,391.6,39.7,391.6,39.5z"/>
	<path class="st44" d="M506.6,227c-2-1.2-4.1-2.5-6.1-3.8c-0.2-0.1-0.4-0.1-0.5,0.1c-0.1,0.2-0.1,0.4,0.1,0.5c2,1.3,4,2.6,6.1,3.8
		c0.1,0,0.1,0.1,0.2,0.1s0.2-0.1,0.3-0.2C506.8,227.3,506.8,227.1,506.6,227z"/>
	<path class="st44" d="M657.2,260.2c-2.3,0.3-4.7,0.5-7.1,0.7c-0.2,0-0.3,0.2-0.3,0.4c0,0.2,0.2,0.3,0.4,0.3l0,0
		c2.4-0.2,4.8-0.4,7.1-0.7c0.2,0,0.3-0.2,0.3-0.4C657.6,260.4,657.4,260.2,657.2,260.2z"/>
	<path class="st44" d="M643,261.4c-2.4,0.1-4.8,0.2-7.1,0.3c-0.2,0-0.4,0.2-0.4,0.4c0,0.2,0.2,0.4,0.4,0.4l0,0
		c2.4,0,4.8-0.1,7.1-0.3c0.2,0,0.4-0.2,0.3-0.4C643.4,261.5,643.2,261.4,643,261.4z"/>
	<path class="st44" d="M628.7,261.7c-2.4,0-4.8-0.1-7.1-0.2c-0.2,0-0.4,0.1-0.4,0.3c0,0.2,0.1,0.4,0.3,0.4c2.4,0.1,4.8,0.2,7.2,0.2
		l0,0c0.2,0,0.4-0.2,0.4-0.4C629.1,261.8,628.9,261.7,628.7,261.7z"/>
	<path class="st44" d="M862.5,85.7c-0.2-0.1-0.4,0.1-0.4,0.3c-0.6,2.3-1.3,4.6-2,6.8c-0.1,0.2,0,0.4,0.2,0.5h0.1
		c0.2,0,0.3-0.1,0.3-0.3c0.7-2.3,1.4-4.6,2-6.9C862.8,85.9,862.7,85.7,862.5,85.7z"/>
	<path class="st44" d="M725.8,242c-2.2,0.9-4.4,1.9-6.6,2.7c-0.2,0.1-0.3,0.3-0.2,0.5c0.1,0.1,0.2,0.2,0.3,0.2h0.1
		c2.2-0.9,4.4-1.8,6.6-2.7c0.2-0.1,0.3-0.3,0.2-0.5C726.2,242.1,726,242,725.8,242z"/>
	<path class="st44" d="M712.5,247.3c-2.2,0.8-4.5,1.6-6.7,2.3c-0.2,0.1-0.3,0.3-0.2,0.5s0.2,0.2,0.3,0.2h0.1
		c2.3-0.7,4.5-1.5,6.8-2.3c0.2-0.1,0.3-0.3,0.2-0.5C712.9,247.3,712.7,247.2,712.5,247.3z"/>
	<path class="st44" d="M699,251.8c-2.3,0.7-4.6,1.3-6.9,1.9c-0.2,0.1-0.3,0.2-0.3,0.4s0.2,0.3,0.4,0.3h0.1c2.3-0.6,4.6-1.3,6.9-1.9
		c0.2-0.1,0.3-0.3,0.2-0.5C699.4,251.8,699.2,251.7,699,251.8z"/>
	<path class="st44" d="M671.3,258.3c-2.3,0.4-4.7,0.8-7,1.1c-0.2,0-0.3,0.2-0.3,0.4c0,0.2,0.2,0.3,0.4,0.3c0,0,0,0,0.1,0
		c2.3-0.3,4.7-0.7,7.1-1.1c0.2,0,0.3-0.2,0.3-0.4C671.7,258.3,671.5,258.2,671.3,258.3z"/>
	<path class="st44" d="M614.5,261.1c-2.4-0.2-4.8-0.4-7.1-0.6c-0.2,0-0.4,0.1-0.4,0.3c0,0.2,0.1,0.4,0.3,0.4
		c2.4,0.2,4.8,0.4,7.1,0.6l0,0c0.2,0,0.3-0.1,0.4-0.3C614.8,261.3,614.7,261.1,614.5,261.1z"/>
	<path class="st44" d="M545,245.7c-2.2-0.8-4.4-1.7-6.6-2.6c-0.2-0.1-0.4,0-0.5,0.2s0,0.4,0.2,0.5c2.2,0.9,4.4,1.8,6.6,2.7h0.1
		c0.1,0,0.3-0.1,0.3-0.2C545.3,246,545.2,245.8,545,245.7z"/>
	<path class="st44" d="M531.9,240.3c-2.2-1-4.3-2-6.5-3c-0.2-0.1-0.4,0-0.5,0.2s0,0.4,0.2,0.5c2.1,1,4.3,2.1,6.5,3h0.1
		c0.1,0,0.3-0.1,0.3-0.2C532.1,240.6,532,240.3,531.9,240.3z"/>
	<path class="st44" d="M519,234c-2.1-1.1-4.2-2.2-6.3-3.4c-0.2-0.1-0.4,0-0.5,0.1c-0.1,0.2,0,0.4,0.1,0.5c2.1,1.2,4.2,2.3,6.3,3.4
		c0.1,0,0.1,0,0.2,0c0.1,0,0.3-0.1,0.3-0.2C519.3,234.3,519.2,234.1,519,234z"/>
	<path class="st44" d="M558.5,250.4c-2.3-0.7-4.5-1.5-6.8-2.2c-0.2-0.1-0.4,0-0.5,0.2s0,0.4,0.2,0.5c2.2,0.8,4.5,1.5,6.8,2.3h0.1
		c0.2,0,0.3-0.1,0.3-0.3C558.8,250.7,558.7,250.5,558.5,250.4z"/>
	<path class="st44" d="M572.2,254.3c-0.9-0.2-1.9-0.5-2.8-0.7c-1.4-0.4-2.7-0.7-4.1-1.1c-0.2-0.1-0.4,0.1-0.4,0.2
		c-0.1,0.2,0.1,0.4,0.2,0.4c1.4,0.4,2.7,0.8,4.1,1.1c0.9,0.3,1.9,0.5,2.8,0.7h0.1c0.2,0,0.3-0.1,0.4-0.3
		C572.5,254.6,572.4,254.4,572.2,254.3z"/>
	<path class="st44" d="M600.3,259.7c-2.3-0.3-4.7-0.6-7.1-1c-0.2,0-0.4,0.1-0.4,0.3s0.1,0.4,0.3,0.4c2.4,0.4,4.7,0.7,7.1,1l0,0
		c0.2,0,0.3-0.1,0.4-0.3C600.6,259.9,600.5,259.7,600.3,259.7z"/>
	<path class="st44" d="M586.2,257.4c-2.3-0.4-4.7-0.9-7-1.4c-0.2,0-0.4,0.1-0.4,0.3c0,0.2,0.1,0.4,0.3,0.4c2.3,0.5,4.7,1,7,1.4
		c0,0,0,0,0.1,0c0.2,0,0.3-0.1,0.4-0.3C586.5,257.6,586.4,257.5,586.2,257.4z"/>
	<path class="st44" d="M738.7,236c-2.1,1.1-4.3,2.1-6.4,3.1c-0.2,0.1-0.3,0.3-0.2,0.5c0.1,0.1,0.2,0.2,0.3,0.2s0.1,0,0.2,0
		c2.1-1,4.3-2.1,6.4-3.1c0.2-0.1,0.3-0.3,0.2-0.5C739.1,236,738.9,235.9,738.7,236z"/>
	<path class="st44" d="M871.1,15c-0.2,0-0.4,0.2-0.4,0.4c0.1,2.1,0.1,4.2,0.1,6.2v0.9c0,0.2,0.2,0.4,0.4,0.4l0,0
		c0.2,0,0.4-0.2,0.4-0.4v-0.9c0-2.1,0-4.2-0.1-6.2C871.5,15.1,871.3,15,871.1,15z"/>
	<path class="st44" d="M870.8,8.6L870.8,8.6c0.2,0,0.4-0.2,0.4-0.4c-0.1-2.4-0.3-4.8-0.5-7.1c0-0.2-0.2-0.3-0.4-0.3S870,1,870,1.2
		c0.2,2.4,0.4,4.7,0.5,7.1C870.5,8.4,870.6,8.6,870.8,8.6z"/>
	<path class="st44" d="M865.9,71.8c-0.2,0-0.4,0.1-0.4,0.3c-0.5,2.3-1,4.7-1.6,7c0,0.2,0.1,0.4,0.3,0.4h0.1c0.2,0,0.3-0.1,0.4-0.3
		c0.6-2.3,1.1-4.6,1.6-7C866.2,72,866.1,71.8,865.9,71.8z"/>
	<path class="st44" d="M871.1,29.3c-0.2,0-0.4,0.2-0.4,0.4c-0.1,2.4-0.2,4.8-0.3,7.1c0,0.2,0.1,0.4,0.3,0.4l0,0
		c0.2,0,0.3-0.1,0.4-0.3c0.2-2.4,0.3-4.8,0.3-7.2C871.4,29.4,871.3,29.3,871.1,29.3z"/>
	<path class="st44" d="M868.4,57.7c-0.2,0-0.4,0.1-0.4,0.3c-0.4,2.3-0.8,4.7-1.2,7c0,0.2,0.1,0.4,0.3,0.4c0,0,0,0,0.1,0
		c0.2,0,0.3-0.1,0.4-0.3c0.4-2.3,0.8-4.7,1.2-7.1C868.8,57.9,868.6,57.8,868.4,57.7z"/>
	<path class="st44" d="M870.2,43.5c-0.2,0-0.4,0.1-0.4,0.3c-0.2,2.4-0.5,4.7-0.8,7.1c0,0.2,0.1,0.4,0.3,0.4l0,0
		c0.2,0,0.3-0.1,0.4-0.3c0.3-2.4,0.6-4.7,0.8-7.1C870.5,43.7,870.4,43.6,870.2,43.5z"/>
	<path class="st0" d="M821.4-0.1h0.7"/>
</g>
</svg>
