<svg id="圖層_1" data-name="圖層 1" xmlns="http://www.w3.org/2000/svg" viewBox="0 0 113.77 167.92"><title>astronaut-thanks</title><path d="M89.62,106.34c0,6.06-6,11-13.29,10.94l-36.22-.13c-7.32,0-13.24-5-13.22-11l.18-52.35c0-6.06,6-11,13.29-10.93L76.58,43c7.32,0,13.24,5,13.22,11Z" style="fill:#b1b3b4"/><path d="M66.8,61.79l7,14.21,23-11.25a30.12,30.12,0,0,0,13.82-40.27L96.36,31.54A14.18,14.18,0,0,1,90,50.46Z" style="fill:#fff"/><path d="M110.6,24.51A7.95,7.95,0,1,1,99.94,20.8,8,8,0,0,1,110.6,24.51Z" style="fill:#fff"/><path d="M94.62,32.74c.2.83,1.3,1.26,2.46,1L112,30c1.15-.29,1.93-1.18,1.72-2h0c-.2-.81-1.3-1.25-2.45-1L96.34,30.74c-1.15.29-1.92,1.19-1.72,2Z" style="fill:#00a0e9"/><path d="M29.1,37.5a3.44,3.44,0,0,1-3.45,3.43h0a3.43,3.43,0,0,1-3.43-3.45l0-5.83a3.44,3.44,0,0,1,3.45-3.43h0a3.45,3.45,0,0,1,3.43,3.46Z" style="fill:#d9dadb"/><path d="M92.83,37.72a3.45,3.45,0,0,1-3.46,3.43h0a3.44,3.44,0,0,1-3.43-3.45l0-5.83a3.45,3.45,0,0,1,3.45-3.43h0a3.44,3.44,0,0,1,3.43,3.45Z" style="fill:#d9dadb"/><path d="M90.28,32.94A32.84,32.84,0,1,1,57.56,0,32.83,32.83,0,0,1,90.28,32.94Z" style="fill:#fff"/><rect x="28.69" y="57.19" width="58.25" height="48.72" transform="translate(-23.94 139.09) rotate(-89.8)" style="fill:#fff"/><path d="M52.26,158.32a9.53,9.53,0,0,1-9.57,9.5h0a9.53,9.53,0,0,1-9.5-9.56l.18-53.49a9.54,9.54,0,0,1,9.57-9.5h0a9.54,9.54,0,0,1,9.5,9.57Z" style="fill:#fff"/><path d="M81.91,158.42a9.53,9.53,0,0,1-9.56,9.5h0a9.52,9.52,0,0,1-9.5-9.56L63,104.87a9.53,9.53,0,0,1,9.56-9.5h0a9.53,9.53,0,0,1,9.5,9.57Z" style="fill:#fff"/><path d="M54.37,153.23c0-1-1.12-1.79-2.51-1.79l-18-.06c-1.38,0-2.51.79-2.51,1.77h0c0,1,1.12,1.8,2.5,1.8l18,.06c1.39,0,2.52-.79,2.52-1.78Z" style="fill:#00a0e9"/><path d="M83.85,153.33c0-1-1.12-1.79-2.51-1.79l-18-.06c-1.38,0-2.51.79-2.51,1.77h0c0,1,1.12,1.79,2.5,1.8l18,.06c1.39,0,2.52-.79,2.52-1.78Z" style="fill:#00a0e9"/><path d="M47,61.79,40,76,17,64.75A30.11,30.11,0,0,1,3.19,24.48L17.4,31.54a14.19,14.19,0,0,0,6.41,18.92Z" style="fill:#fff"/><path d="M3.16,24.51A8,8,0,1,0,13.83,20.8,8,8,0,0,0,3.16,24.51Z" style="fill:#fff"/><path d="M19.15,32.74c-.21.83-1.31,1.26-2.46,1L1.76,30C.6,29.73-.17,28.84,0,28H0a1.93,1.93,0,0,1,2.46-1l14.93,3.69c1.16.29,1.93,1.19,1.73,2Z" style="fill:#00a0e9"/><path d="M87.1,34.32c0,12.28-13.35,22.2-29.73,22.15S27.75,46.4,27.79,34.11,41.14,11.9,57.52,12,87.14,22,87.1,34.32Z" style="fill:#c6c7c8"/><path d="M85.51,34.31c0,11.25-12.63,20.32-28.13,20.27s-28-9.21-28-20.46S42,13.79,57.52,13.85,85.55,23.06,85.51,34.31Z" style="fill:#29334f"/><path d="M55.47,31.37c0,3.49-3.87,6.3-8.63,6.28s-8.6-2.85-8.58-6.34S42.13,25,46.88,25,55.48,27.88,55.47,31.37Z" style="fill:#fff;opacity:0.6000000000000001"/><path d="M57.51,42.89c0,1.49-1.65,2.69-3.68,2.69s-3.67-1.22-3.66-2.71,1.65-2.69,3.68-2.68S57.52,41.41,57.51,42.89Z" style="fill:#fff;opacity:0.6000000000000001"/><rect x="33.38" y="101.58" width="48.72" height="2.62" style="fill:#fff"/><rect x="43.42" y="67.19" width="28.63" height="28.73" rx="2.27" ry="2.27" style="fill:#d9dadb"/><path d="M62.85,73.76a3.15,3.15,0,1,1-3.15-3.15A3.15,3.15,0,0,1,62.85,73.76Z" style="fill:#d89829"/><path d="M53.08,73.76A3.09,3.09,0,1,1,50,70.67,3.09,3.09,0,0,1,53.08,73.76Z" style="fill:#d89829"/><rect x="65.31" y="81.85" width="3.56" height="10.71" style="fill:#b1b3b4"/><rect x="46.89" y="81.85" width="16.26" height="10.71" style="fill:#b1b3b4"/></svg>