<?xml version="1.0" encoding="utf-8"?>
<!-- Generator: Adobe Illustrator 22.1.0, SVG Export Plug-In . SVG Version: 6.00 Build 0)  -->
<svg version="1.1" id="圖層_1" xmlns="http://www.w3.org/2000/svg" xmlns:xlink="http://www.w3.org/1999/xlink" x="0px" y="0px"
	 viewBox="0 0 1920 1496.7" style="enable-background:new 0 0 1920 1496.7;" xml:space="preserve">
<style type="text/css">
	.st0{fill:#5E3698;}
	.st1{fill:#8470AF;}
	.st2{fill:#1A6562;}
</style>
<title>ta0523</title>
<path class="st0" d="M309.8,440.4l-1.8-3.8c-0.3-0.6-1-0.8-1.6-0.6l-7.8,3.7l-3.7-7.8c-0.3-0.6-1-0.8-1.6-0.6l-3.8,1.8
	c-0.6,0.3-0.8,1-0.6,1.6c0,0,0,0,0,0l3.7,7.8l-7.8,3.7c-0.6,0.3-0.8,1-0.6,1.6l1.8,3.8c0.3,0.6,1,0.8,1.6,0.6c0,0,0,0,0,0l7.8-3.7
	l3.7,7.8c0.3,0.6,1,0.8,1.6,0.6l3.8-1.8c0.6-0.3,0.8-1,0.6-1.6l-3.7-7.8l7.8-3.7C309.9,441.6,310.1,440.9,309.8,440.4z"/>
<path class="st0" d="M102.6,1008.4l-1.8-3.8c-0.3-0.6-1-0.8-1.6-0.6l-7.8,3.7l-3.7-7.8c-0.3-0.6-1-0.8-1.6-0.6l-3.8,1.8
	c-0.6,0.3-0.8,1-0.6,1.6l3.7,7.8l-7.8,3.7c-0.6,0.3-0.8,1-0.6,1.6l1.8,3.8c0.3,0.6,1,0.8,1.6,0.6l7.8-3.7l3.7,7.8
	c0.3,0.6,1,0.8,1.6,0.6c0,0,0,0,0,0l3.8-1.8c0.6-0.3,0.8-1,0.6-1.6l-3.7-7.8l7.8-3.7C102.6,1009.7,102.9,1009,102.6,1008.4z"/>
<path class="st0" d="M1386.6,1031.8l-1.8-3.8c-0.3-0.6-1-0.8-1.6-0.6l-7.8,3.7l-3.7-7.8c-0.3-0.6-1-0.8-1.6-0.6c0,0,0,0,0,0
	l-3.8,1.8c-0.6,0.3-0.8,1-0.6,1.6c0,0,0,0,0,0l3.7,7.8l-7.8,3.7c-0.6,0.3-0.8,1-0.6,1.6l1.8,3.8c0.3,0.6,1,0.8,1.6,0.6l7.8-3.7
	l3.7,7.8c0.3,0.6,1,0.8,1.6,0.6l3.8-1.8c0.6-0.3,0.8-1,0.6-1.6l-3.7-7.8l7.8-3.7C1386.6,1033.1,1386.8,1032.4,1386.6,1031.8z"/>
<path class="st0" d="M1406.4,765.5l-1.8-3.8c-0.3-0.6-1-0.8-1.6-0.6l-7.8,3.7l-3.7-7.8c-0.3-0.6-1-0.8-1.6-0.6l-3.8,1.8
	c-0.6,0.3-0.8,1-0.6,1.6l3.7,7.8l-7.8,3.7c-0.6,0.3-0.8,1-0.6,1.6l1.8,3.8c0.3,0.6,1,0.8,1.6,0.6l7.8-3.7l3.7,7.8
	c0.3,0.6,1,0.8,1.6,0.6c0,0,0,0,0,0l3.8-1.8c0.6-0.3,0.8-1,0.6-1.6l-3.7-7.8l7.8-3.7C1406.4,766.8,1406.7,766.1,1406.4,765.5z"/>
<path class="st0" d="M895.2,568.6l-1.8-3.8c-0.3-0.6-1-0.8-1.6-0.6l-7.8,3.7l-3.7-7.8c-0.3-0.6-1-0.8-1.6-0.6l-3.8,1.8
	c-0.6,0.3-0.8,1-0.6,1.6l3.7,7.8l-7.8,3.7c-0.6,0.3-0.8,1-0.6,1.6l1.8,3.8c0.3,0.6,1,0.8,1.6,0.6l7.8-3.7l3.7,7.8
	c0.3,0.6,1,0.8,1.6,0.6l3.8-1.8c0.6-0.3,0.8-1,0.6-1.6l-3.7-7.8l7.8-3.7C895.3,570,895.5,569.3,895.2,568.6
	C895.2,568.7,895.2,568.6,895.2,568.6z"/>
<path class="st0" d="M513.8,1283.8l-1.8-3.8c-0.3-0.6-1-0.8-1.6-0.6l-7.8,3.7l-3.7-7.8c-0.3-0.6-1-0.8-1.6-0.6l-3.8,1.8
	c-0.6,0.3-0.8,1-0.6,1.6l3.7,7.8l-7.8,3.7c-0.6,0.3-0.8,1-0.6,1.6l1.8,3.8c0.3,0.6,1,0.8,1.6,0.6l7.8-3.7l3.7,7.8
	c0.3,0.6,1,0.8,1.6,0.6l3.8-1.8c0.6-0.3,0.8-1,0.6-1.6l-3.7-7.8l7.8-3.7C513.8,1285.1,514.1,1284.4,513.8,1283.8
	C513.8,1283.8,513.8,1283.8,513.8,1283.8z"/>
<path class="st0" d="M861.7,1384.2l-1.8-3.8c-0.3-0.6-1-0.8-1.6-0.6l-7.8,3.7l-3.7-7.8c-0.3-0.6-1-0.8-1.6-0.6l-3.8,1.8
	c-0.6,0.3-0.8,1-0.6,1.6l3.7,7.8l-7.8,3.7c-0.6,0.3-0.8,1-0.6,1.6l1.8,3.8c0.3,0.6,1,0.8,1.6,0.6l7.8-3.7l3.7,7.8
	c0.3,0.6,1,0.8,1.6,0.6l3.8-1.8c0.6-0.3,0.8-1,0.6-1.6c0,0,0,0,0,0l-3.7-7.8l7.8-3.7C861.7,1385.5,862,1384.8,861.7,1384.2z"/>
<path class="st0" d="M1478.4,1255.7l-1.8-3.8c-0.3-0.6-1-0.8-1.6-0.6l-7.8,3.7l-3.7-7.8c-0.3-0.6-1-0.8-1.6-0.6l-3.8,1.8
	c-0.6,0.3-0.8,1-0.6,1.6l3.7,7.8l-7.8,3.7c-0.6,0.3-0.8,1-0.6,1.6l1.8,3.8c0.3,0.6,1,0.8,1.6,0.6l7.8-3.7l3.7,7.8
	c0.3,0.6,1,0.8,1.6,0.6c0,0,0,0,0,0l3.8-1.8c0.6-0.3,0.8-1,0.6-1.6l-3.7-7.8l7.8-3.7C1478.5,1257,1478.7,1256.2,1478.4,1255.7z"/>
<path class="st0" d="M1277.9,1356.8l3.7-2c0.6-0.3,0.8-1,0.5-1.6l-4.1-7.6l7.6-4.1c0.6-0.3,0.8-1,0.5-1.6l-2-3.7
	c-0.3-0.6-1-0.8-1.6-0.5l-7.6,4.1l-4.1-7.6c-0.3-0.6-1-0.8-1.6-0.5l-3.7,2c-0.6,0.3-0.8,1-0.5,1.6l4.1,7.6l-7.6,4.1
	c-0.6,0.3-0.8,1-0.5,1.6l2,3.7c0.3,0.6,1,0.8,1.6,0.5l7.6-4.1l4.1,7.6C1276.6,1356.8,1277.3,1357.1,1277.9,1356.8
	C1277.9,1356.8,1277.9,1356.8,1277.9,1356.8z"/>
<path class="st0" d="M1851.3,1357.7l-1.8-3.8c-0.3-0.6-1-0.8-1.6-0.6c0,0,0,0,0,0l-7.8,3.7l-3.7-7.8c-0.3-0.6-1-0.8-1.6-0.6
	l-3.8,1.8c-0.6,0.3-0.8,1-0.6,1.6l3.7,7.8l-7.8,3.7c-0.6,0.3-0.8,1-0.6,1.6l1.8,3.8c0.3,0.6,1,0.8,1.6,0.6l7.8-3.7l3.7,7.8
	c0.3,0.6,1,0.8,1.6,0.6l3.8-1.8c0.6-0.3,0.8-1,0.6-1.6l-3.7-7.8l7.8-3.7C1851.3,1359,1851.6,1358.3,1851.3,1357.7z"/>
<path class="st0" d="M1759.7,1109l-1.8-3.8c-0.3-0.6-1-0.8-1.6-0.6l-7.8,3.7l-3.7-7.8c-0.3-0.6-1-0.8-1.6-0.6l-3.8,1.8
	c-0.6,0.3-0.8,1-0.6,1.6l3.7,7.8l-7.8,3.7c-0.6,0.3-0.8,1-0.6,1.6l1.8,3.8c0.3,0.6,1,0.8,1.6,0.6l7.8-3.7l3.7,7.8
	c0.3,0.6,1,0.8,1.6,0.6l3.8-1.8c0.6-0.3,0.8-1,0.6-1.6l-3.7-7.8l7.8-3.7C1759.8,1110.3,1760,1109.6,1759.7,1109z"/>
<path class="st0" d="M1695.3,521.8l4.1,0.7c0.6,0.1,1.3-0.4,1.4-1l1.3-8.5l8.5,1.3c0.6,0.1,1.2-0.3,1.3-1c0,0,0,0,0,0l0.7-4.1
	c0.1-0.6-0.3-1.3-1-1.4c0,0,0,0,0,0l-8.5-1.3l1.3-8.5c0.1-0.7-0.4-1.3-1-1.4l-4.1-0.6c-0.6-0.1-1.3,0.3-1.4,1c0,0,0,0,0,0l-1.3,8.5
	l-8.5-1.3c-0.6-0.1-1.3,0.3-1.4,1c0,0,0,0,0,0l-0.6,4.1c-0.1,0.6,0.3,1.3,1,1.4c0,0,0,0,0,0l8.5,1.3l-1.3,8.5
	C1694.2,521,1694.6,521.6,1695.3,521.8z"/>
<path class="st0" d="M1738.8,84.9l3.9,1.5c0.6,0.2,1.3-0.1,1.5-0.7l3.2-8l8,3.2c0.6,0.2,1.3-0.1,1.5-0.7l1.5-3.9
	c0.2-0.6-0.1-1.3-0.7-1.6l-8-3.2l3.2-8c0.2-0.6-0.1-1.3-0.7-1.5l-3.9-1.5c-0.6-0.2-1.3,0.1-1.6,0.7l-3.2,8l-8-3.2
	c-0.6-0.2-1.3,0-1.5,0.7c0,0,0,0,0,0l-1.5,3.9c-0.2,0.6,0.1,1.3,0.7,1.6l8,3.2l-3.2,8C1737.8,84,1738.1,84.7,1738.8,84.9
	C1738.7,84.9,1738.8,84.9,1738.8,84.9z"/>
<path class="st0" d="M272.6,1138.6l-0.8-1.6c-0.1-0.3-0.4-0.4-0.7-0.3c0,0,0,0,0,0l-3.4,1.6l-1.6-3.4c-0.1-0.3-0.4-0.4-0.7-0.2
	l-1.6,0.8c-0.3,0.1-0.4,0.4-0.3,0.7c0,0,0,0,0,0l1.6,3.4l-3.4,1.6c-0.3,0.1-0.4,0.4-0.3,0.7c0,0,0,0,0,0l0.8,1.6
	c0.1,0.3,0.4,0.4,0.7,0.2l3.4-1.6l1.6,3.4c0.1,0.3,0.4,0.4,0.7,0.3c0,0,0,0,0,0l1.6-0.8c0.3-0.1,0.4-0.4,0.3-0.7c0,0,0,0,0,0
	l-1.6-3.4l3.4-1.6C272.6,1139.2,272.7,1138.9,272.6,1138.6z"/>
<path class="st0" d="M271.1,105.1l-3-2.8c-0.5-0.4-1.2-0.4-1.7,0.1l-5.8,6.3l-6.3-5.8c-0.5-0.4-1.2-0.4-1.7,0.1l-2.8,3
	c-0.4,0.5-0.4,1.2,0.1,1.7l6.3,5.8l-5.8,6.3c-0.4,0.5-0.4,1.2,0.1,1.7l3.1,2.8c0.5,0.4,1.2,0.4,1.7-0.1l5.8-6.3l6.3,5.8
	c0.5,0.4,1.2,0.4,1.7-0.1l2.8-3c0.4-0.5,0.4-1.2-0.1-1.7l-6.3-5.8l5.8-6.3C271.6,106.3,271.6,105.6,271.1,105.1z"/>
<path class="st0" d="M105.1,21.1l-2.2-0.9c-0.4-0.1-0.7,0-0.9,0.4l-2,4.6l-4.6-1.9c-0.3-0.1-0.7,0-0.9,0.4c0,0,0,0,0,0l-0.9,2.2
	c-0.1,0.4,0,0.7,0.4,0.9l4.6,1.9l-1.9,4.6c-0.1,0.3,0,0.7,0.4,0.9c0,0,0,0,0,0l2.2,0.9c0.3,0.1,0.7,0,0.9-0.4c0,0,0,0,0,0l1.9-4.6
	l4.6,1.9c0.3,0.1,0.7,0,0.9-0.4c0,0,0,0,0,0l0.9-2.2c0.1-0.4,0-0.7-0.4-0.9l-4.6-1.9l1.9-4.6C105.5,21.7,105.4,21.3,105.1,21.1z"/>
<path class="st0" d="M498.6,47.7l-0.9-4c-0.2-0.6-0.8-1-1.4-0.9l-8.4,2l-2-8.4c-0.2-0.6-0.8-1-1.4-0.9l-4,0.9
	c-0.6,0.2-1,0.8-0.9,1.4l2,8.4l-8.4,2c-0.6,0.2-1,0.8-0.9,1.4l1,4c0.1,0.6,0.8,1,1.4,0.9c0,0,0,0,0,0l8.4-2l2,8.4
	c0.2,0.6,0.8,1,1.4,0.9l4-1c0.6-0.1,1-0.8,0.9-1.4l-2-8.4l8.4-2C498.3,48.9,498.7,48.3,498.6,47.7z"/>
<path class="st0" d="M71.6,721.8l-2.2-1.7c-0.3-0.3-0.8-0.2-1,0.1c0,0,0,0,0,0l-3.2,4.5l-4.5-3.6c-0.3-0.3-0.8-0.2-1,0.1
	c0,0,0,0,0,0l-1.6,2.2c-0.2,0.4-0.2,0.8,0.2,1.1l4.5,3.6l-3.2,4.5c-0.2,0.4-0.2,0.8,0.2,1.1l2.2,1.7c0.3,0.3,0.8,0.2,1-0.1
	c0,0,0,0,0,0l3.2-4.5l4.5,3.6c0.3,0.3,0.8,0.2,1-0.1c0,0,0,0,0,0l1.6-2.2c0.3-0.4,0.2-0.9-0.2-1.1l-4.5-3.6l3.2-4.5
	C72,722.6,71.9,722.1,71.6,721.8z"/>
<path class="st0" d="M212,1279.9l-2.2-0.9c-0.4-0.1-0.7,0-0.9,0.4l-1.9,4.6l-4.6-1.9c-0.4-0.1-0.7,0-0.9,0.4l-0.9,2.2
	c-0.1,0.4,0,0.8,0.4,0.9l4.6,1.9l-1.9,4.6c-0.1,0.3,0,0.7,0.4,0.9l2.2,0.9c0.3,0.1,0.7,0,0.9-0.4c0,0,0,0,0,0l1.9-4.6l4.6,1.9
	c0.3,0.1,0.7,0,0.9-0.4l0.9-2.2c0.1-0.3,0-0.7-0.3-0.9c0,0,0,0,0,0l-4.6-1.9l1.9-4.6C212.5,1280.5,212.3,1280.1,212,1279.9
	C212,1279.9,212,1279.9,212,1279.9z"/>
<path class="st0" d="M191.8,1070.9l-2.2-0.9c-0.4-0.1-0.7,0-0.9,0.4l-1.9,4.6l-4.6-1.9c-0.3-0.1-0.7,0-0.9,0.4c0,0,0,0,0,0l-0.9,2.2
	c-0.1,0.4,0,0.7,0.4,0.9l4.6,1.9l-1.9,4.6c-0.1,0.3,0,0.7,0.3,0.9c0,0,0,0,0,0l2.2,0.9c0.3,0.1,0.7,0,0.9-0.4c0,0,0,0,0,0l1.9-4.6
	l4.6,1.9c0.3,0.1,0.7,0,0.9-0.4c0,0,0,0,0,0l0.9-2.2c0.1-0.4,0-0.7-0.4-0.9l-4.6-1.9l1.9-4.6C192.4,1071.4,192.2,1071,191.8,1070.9
	C191.8,1070.9,191.8,1070.9,191.8,1070.9z"/>
<path class="st0" d="M945.9,421.5l-2.2-0.9c-0.4-0.1-0.7,0-0.9,0.4l-1.9,4.6l-4.6-1.9c-0.3-0.1-0.7,0-0.9,0.4l-0.9,2.2
	c-0.1,0.3,0,0.7,0.4,0.9c0,0,0,0,0,0l4.6,1.9l-1.9,4.6c-0.1,0.3,0,0.7,0.4,0.9c0,0,0,0,0,0l2.2,0.9c0.4,0.1,0.7,0,0.9-0.4l1.9-4.6
	l4.6,1.9c0.3,0.1,0.7,0,0.9-0.4c0,0,0,0,0,0l0.9-2.2c0.1-0.4,0-0.7-0.4-0.9l-4.6-1.9l1.9-4.6C946.4,422,946.2,421.6,945.9,421.5
	C945.9,421.5,945.9,421.5,945.9,421.5z"/>
<path class="st0" d="M734.4,982.6l-2.2-0.9c-0.3-0.1-0.7,0-0.9,0.3c0,0,0,0,0,0l-1.9,4.6l-4.6-1.9c-0.4-0.1-0.7,0-0.9,0.4l-0.9,2.2
	c-0.1,0.3,0,0.7,0.4,0.9l4.6,1.9l-1.9,4.6c-0.1,0.4,0,0.7,0.4,0.9l2.2,0.9c0.3,0.1,0.7,0,0.9-0.4c0,0,0,0,0,0l1.9-4.6l4.6,1.9
	c0.3,0.1,0.7,0,0.9-0.4l0.9-2.2c0.1-0.3,0-0.7-0.4-0.9l-4.6-2l1.9-4.6C734.9,983.1,734.7,982.7,734.4,982.6z"/>
<path class="st0" d="M1800.8,915.9l-2.2-0.9c-0.3-0.1-0.7,0-0.9,0.4l-1.9,4.6l-4.6-1.9c-0.3-0.1-0.7,0-0.9,0.4l-0.9,2.2
	c-0.1,0.3,0,0.7,0.4,0.9c0,0,0,0,0,0l4.6,1.9l-1.9,4.6c-0.1,0.3,0,0.7,0.4,0.9l2.2,0.9c0.3,0.1,0.7,0,0.9-0.4l1.9-4.6l4.6,1.9
	c0.3,0.1,0.7,0,0.9-0.3c0,0,0,0,0,0l0.9-2.2c0.1-0.3,0-0.7-0.3-0.9c0,0,0,0,0,0l-4.6-1.9l1.9-4.6
	C1801.3,916.5,1801.2,916.1,1800.8,915.9C1800.8,915.9,1800.8,915.9,1800.8,915.9z"/>
<path class="st0" d="M1680.6,823.6l1.4-1.9c0.2-0.3,0.2-0.7-0.1-0.9c0,0,0,0,0,0l-4-3l3-4c0.2-0.3,0.2-0.7-0.1-0.9c0,0,0,0,0,0
	l-1.9-1.4c-0.3-0.2-0.7-0.2-1,0.1c0,0,0,0,0,0l-3,4l-4-3c-0.3-0.2-0.7-0.2-1,0.1c0,0,0,0,0,0l-1.4,1.9c-0.2,0.3-0.2,0.7,0.1,1
	c0,0,0,0,0,0l4,3l-3,4c-0.2,0.3-0.2,0.7,0.1,1c0,0,0,0,0,0l1.9,1.4c0.3,0.2,0.7,0.2,1-0.1c0,0,0,0,0-0.1l3-4l4,3
	C1679.9,824,1680.4,823.9,1680.6,823.6C1680.6,823.6,1680.6,823.6,1680.6,823.6z"/>
<path class="st0" d="M1080,953.8l1.4-1.9c0.2-0.3,0.2-0.7-0.1-1c0,0,0,0-0.1,0l-4-3l3-4c0.2-0.3,0.2-0.7-0.1-0.9c0,0,0,0-0.1-0.1
	l-1.9-1.4c-0.3-0.2-0.7-0.2-0.9,0.1c0,0,0,0-0.1,0.1l-3,4l-4-3c-0.3-0.2-0.7-0.2-0.9,0.1c0,0,0,0-0.1,0.1l-1.4,1.9
	c-0.2,0.3-0.2,0.7,0.1,1c0,0,0,0,0,0l4,3l-3,4c-0.2,0.3-0.2,0.7,0.1,1c0,0,0,0,0,0l1.9,1.4c0.3,0.2,0.7,0.2,1-0.1c0,0,0,0,0,0l3-4
	l4,3C1079.2,954.1,1079.7,954.1,1080,953.8C1080,953.8,1080,953.8,1080,953.8z"/>
<path class="st0" d="M1348,555.3l1.4-1.9c0.2-0.3,0.2-0.7-0.1-1c0,0,0,0,0,0l-4-3l3-4c0.2-0.3,0.2-0.7-0.1-1c0,0,0,0,0,0l-1.9-1.4
	c-0.3-0.2-0.7-0.2-1,0.1c0,0,0,0,0,0l-3,4l-3.9-3c-0.3-0.2-0.7-0.2-1,0.1c0,0,0,0,0,0l-1.4,1.9c-0.2,0.3-0.2,0.7,0.1,1
	c0,0,0,0,0.1,0l4,3l-3,4c-0.2,0.3-0.2,0.7,0.1,1c0,0,0,0,0,0l1.9,1.4c0.3,0.2,0.7,0.2,0.9-0.1c0,0,0,0,0,0l3-4l4,3
	C1347.3,555.7,1347.7,555.7,1348,555.3C1348,555.4,1348,555.4,1348,555.3z"/>
<path class="st0" d="M1837.7,575.3l2.9-1.1c0.5-0.2,0.7-0.7,0.5-1.2l-2.3-6l6-2.3c0.5-0.2,0.7-0.7,0.5-1.1c0,0,0,0,0,0l-1.1-2.9
	c-0.2-0.5-0.7-0.7-1.2-0.5l-6,2.3l-2.3-6c-0.2-0.5-0.7-0.7-1.1-0.5c0,0,0,0,0,0l-2.9,1.1c-0.5,0.2-0.7,0.7-0.5,1.1c0,0,0,0,0,0
	l2.3,6l-6,2.3c-0.5,0.2-0.7,0.7-0.5,1.2l1.1,2.9c0.2,0.5,0.7,0.7,1.1,0.5l6-2.3l2.3,6C1836.8,575.2,1837.3,575.5,1837.7,575.3z"/>
<path class="st0" d="M1847.8,332.9l1.9-0.7c0.3-0.1,0.4-0.4,0.3-0.7l-1.5-3.9l3.9-1.5c0.3-0.1,0.4-0.4,0.3-0.7l-0.7-1.9
	c-0.1-0.3-0.4-0.4-0.7-0.3l-3.9,1.5l-1.5-3.9c-0.1-0.3-0.4-0.4-0.7-0.3c0,0,0,0,0,0l-1.9,0.7c-0.3,0.1-0.4,0.4-0.3,0.7c0,0,0,0,0,0
	l1.5,3.9l-3.9,1.5c-0.3,0.1-0.4,0.4-0.3,0.7c0,0,0,0,0,0l0.7,1.9c0.1,0.3,0.4,0.4,0.7,0.3l3.9-1.5l1.5,3.9
	C1847.2,332.9,1847.5,333.1,1847.8,332.9z"/>
<path class="st0" d="M1525.8,150.8l2.7-1.6c0.4-0.3,0.5-0.8,0.3-1.2l-3.3-5.5l5.5-3.3c0.4-0.3,0.5-0.8,0.3-1.2l-1.6-2.6
	c-0.3-0.4-0.8-0.6-1.2-0.3c0,0,0,0,0,0l-5.5,3.3l-3.3-5.5c-0.3-0.4-0.8-0.6-1.2-0.3l-2.7,1.6c-0.4,0.3-0.6,0.8-0.3,1.2l3.3,5.5
	l-5.5,3.3c-0.4,0.3-0.6,0.8-0.3,1.2c0,0,0,0,0,0l1.6,2.7c0.3,0.4,0.8,0.5,1.2,0.3l5.5-3.3l3.3,5.5
	C1524.9,150.9,1525.4,151,1525.8,150.8z"/>
<path class="st0" d="M1177,66.6l-1.2-2.1c-0.2-0.3-0.6-0.4-0.9-0.2l-4.3,2.5l-2.5-4.3c-0.2-0.3-0.6-0.4-0.9-0.2l-2.1,1.2
	c-0.3,0.2-0.4,0.6-0.3,0.9c0,0,0,0,0,0l2.5,4.3l-4.3,2.5c-0.3,0.2-0.4,0.6-0.2,0.9l1.2,2.1c0.2,0.3,0.6,0.4,0.9,0.3c0,0,0,0,0,0
	l4.3-2.5l2.5,4.3c0.2,0.3,0.6,0.4,0.9,0.3c0,0,0,0,0,0l2.1-1.2c0.3-0.2,0.4-0.6,0.2-0.9l-2.5-4.2l4.3-2.5
	C1177.1,67.3,1177.2,66.9,1177,66.6C1177,66.6,1177,66.6,1177,66.6z"/>
<g id="bg-point-pu">
	<circle class="st1" cx="291.4" cy="930.5" r="4.8"/>
	<circle class="st1" cx="1045.5" cy="281.1" r="4.8"/>
	<circle class="st1" cx="834" cy="842.2" r="4.8"/>
	<circle class="st1" cx="261.1" cy="562.8" r="4.8"/>
	<circle class="st1" cx="478.9" cy="158.8" r="4.8"/>
	<circle class="st1" cx="559.7" cy="230.3" r="4.8"/>
	<circle class="st1" cx="689" cy="412.6" r="4.8"/>
	<circle class="st1" cx="581.2" cy="417.5" r="4.8"/>
	<circle class="st1" cx="692.7" cy="93.3" r="4.8"/>
	<circle class="st1" cx="1408.7" cy="58.8" r="4.8"/>
	<circle class="st1" cx="1713" cy="195.7" r="4.8"/>
	<circle class="st1" cx="1768" cy="270.9" r="4.8"/>
	<circle class="st1" cx="1850.9" cy="223" r="4.8"/>
	<circle class="st1" cx="1563.2" cy="716.5" r="4.8"/>
	<circle class="st1" cx="1715" cy="876.1" r="4.8"/>
	<circle class="st1" cx="962.5" cy="846.7" r="4.8"/>
	<circle class="st1" cx="1114.3" cy="1006.3" r="4.8"/>
	<circle class="st1" cx="1230.5" cy="448.3" r="4.8"/>
	<circle class="st1" cx="1382.3" cy="607.9" r="4.8"/>
	<circle class="st1" cx="1511.2" cy="1149.2" r="4.8"/>
</g>
<g id="bg-point-green">
	<circle class="st2" cx="1774.8" cy="1016.8" r="4.8"/>
	<circle class="st2" cx="1853.1" cy="655.3" r="4.8"/>
	<circle class="st2" cx="1683.5" cy="228.9" r="4.8"/>
	<circle class="st2" cx="1595" cy="290.5" r="4.8"/>
	<circle class="st2" cx="1478.7" cy="139" r="4.8"/>
	<circle class="st2" cx="771.6" cy="21.8" r="4.8"/>
	<circle class="st2" cx="453.4" cy="122.4" r="4.8"/>
	<circle class="st2" cx="390.1" cy="190.7" r="4.8"/>
	<circle class="st2" cx="730.6" cy="327.9" r="4.8"/>
	<circle class="st2" cx="313.3" cy="133.6" r="4.8"/>
	<circle class="st2" cx="541.9" cy="657.1" r="4.8"/>
	<circle class="st2" cx="372.6" cy="798.1" r="4.8"/>
	<circle class="st2" cx="538" cy="1092.6" r="4.8"/>
</g>
</svg>
