<svg xmlns="http://www.w3.org/2000/svg" viewBox="0 0 1172.14 607.99"><title>2019preview-2</title><g style="isolation:isolate"><g id="item-layer2"><path d="M1203.69,243.49c-.51,4.22-5,7.14-10.13,6.53l-25.19-3c-5.09-.61-8.81-4.52-8.3-8.74l4.36-36.4c.51-4.22,5-7.14,10.13-6.53l25.19,3c5.09.61,8.81,4.52,8.3,8.74Z" transform="translate(-49.87)" style="fill:#b1b3b4"/><path d="M1191.24,212.21l6-9.33,15.1,9.7a21.09,21.09,0,0,1,6.35,29.13l-9.32-6.07a9.93,9.93,0,0,0-2.92-13.68Z" transform="translate(-49.87)" style="fill:#fff"/><path d="M1218.69,241.69a5.57,5.57,0,1,0-7.72,1.71A5.59,5.59,0,0,0,1218.69,241.69Z" transform="translate(-49.87)" style="fill:#fff"/><path d="M1208.24,234.67c.2-.56,1-.77,1.79-.48l10.08,3.78c.78.29,1.25,1,1,1.53h0a1.35,1.35,0,0,1-1.79.48l-10.09-3.78c-.78-.29-1.24-1-1-1.53Z" transform="translate(-49.87)" style="fill:#00a0e9"/><path d="M1167.16,190.71a2.41,2.41,0,0,1-2.68,2.1h0a2.41,2.41,0,0,1-2.1-2.68l.48-4a2.42,2.42,0,0,1,2.68-2.11h0a2.42,2.42,0,0,1,2.11,2.69Z" transform="translate(-49.87)" style="fill:#d9dadb"/><path d="M1211.47,196a2.42,2.42,0,0,1-2.68,2.11h0a2.42,2.42,0,0,1-2.11-2.68l.49-4.06a2.41,2.41,0,0,1,2.68-2.1h0A2.42,2.42,0,0,1,1212,192Z" transform="translate(-49.87)" style="fill:#d9dadb"/><path d="M1210.09,192.49A23,23,0,1,1,1190,166.92,23,23,0,0,1,1210.09,192.49Z" transform="translate(-49.87)" style="fill:#fff"/><rect x="1163.17" y="206.61" width="40.79" height="34.12" transform="translate(770.65 1372.17) rotate(-83.16)" style="fill:#fff"/><path d="M1173.48,276.62a6.67,6.67,0,0,1-7.42,5.84h0a6.68,6.68,0,0,1-5.83-7.42l4.45-37.19a6.69,6.69,0,0,1,7.43-5.84h0a6.67,6.67,0,0,1,5.83,7.42Z" transform="translate(-49.87)" style="fill:#fff"/><path d="M1194.1,279.1a6.67,6.67,0,0,1-7.42,5.83h0a6.67,6.67,0,0,1-5.83-7.42l4.46-37.19a6.67,6.67,0,0,1,7.42-5.84h0a6.68,6.68,0,0,1,5.83,7.43Z" transform="translate(-49.87)" style="fill:#fff"/><path d="M1175.37,273.25c.08-.68-.64-1.33-1.6-1.45l-12.5-1.5c-1-.11-1.81.35-1.89,1h0c-.09.69.63,1.34,1.6,1.45l12.49,1.5c1,.11,1.82-.35,1.9-1Z" transform="translate(-49.87)" style="fill:#00a0e9"/><path d="M1195.86,275.71c.09-.68-.63-1.33-1.6-1.45l-12.49-1.5c-1-.11-1.82.35-1.9,1h0c-.08.69.64,1.34,1.6,1.46l12.5,1.5c1,.11,1.81-.35,1.89-1Z" transform="translate(-49.87)" style="fill:#00a0e9"/><path d="M1177.44,210.6l-3.68-10.45-16.92,6A21.08,21.08,0,0,0,1144,233l10.46-3.76a9.92,9.92,0,0,1,6-12.64Z" transform="translate(-49.87)" style="fill:#fff"/><path d="M1144,233a5.57,5.57,0,1,1,7.12,3.44A5.6,5.6,0,0,1,1144,233Z" transform="translate(-49.87)" style="fill:#fff"/><path d="M1155.74,228.55c-.08-.59-.81-1-1.63-.87L1143.42,229c-.83.11-1.44.67-1.36,1.25h0c.07.59.8,1,1.63.87l10.69-1.36c.82-.1,1.43-.66,1.36-1.25Z" transform="translate(-49.87)" style="fill:#00a0e9"/><path d="M1207.77,193.19c-1,8.54-11.09,14.36-22.48,13s-19.79-9.4-18.76-17.95,11.08-14.36,22.47-13S1208.79,184.64,1207.77,193.19Z" transform="translate(-49.87)" style="fill:#c6c7c8"/><path d="M1206.66,193.05c-.93,7.82-10.43,13.12-21.21,11.82s-18.76-8.67-17.82-16.5,10.44-13.11,21.22-11.82S1207.6,185.23,1206.66,193.05Z" transform="translate(-49.87)" style="fill:#29334f"/><path d="M1186,188.57c-.29,2.43-3.2,4.07-6.51,3.68s-5.75-2.69-5.46-5.11,3.21-4.07,6.51-3.67S1186.29,186.15,1186,188.57Z" transform="translate(-49.87)" style="fill:#fff;opacity:0.6000000000000001"/><path d="M1186.49,196.76c-.13,1-1.37,1.73-2.78,1.56s-2.45-1.14-2.33-2.17,1.37-1.74,2.78-1.57S1186.61,195.72,1186.49,196.76Z" transform="translate(-49.87)" style="fill:#fff;opacity:0.6000000000000001"/><rect x="1180.87" y="221.45" width="1.84" height="34.12" transform="translate(758.31 1384.78) rotate(-83.36)" style="fill:#fff"/><rect x="1173.46" y="213.64" width="20.12" height="20.05" rx="1.59" ry="1.59" transform="translate(774.58 1373.37) rotate(-83.36)" style="fill:#d9dadb"/><path d="M1187.7,218.66a2.2,2.2,0,1,1-1.93-2.45A2.2,2.2,0,0,1,1187.7,218.66Z" transform="translate(-49.87)" style="fill:#d89829"/><path d="M1180.9,217.87a2.15,2.15,0,1,1-1.89-2.4A2.15,2.15,0,0,1,1180.9,217.87Z" transform="translate(-49.87)" style="fill:#d89829"/><rect x="1185.81" y="227.11" width="7.5" height="2.49" transform="translate(775.27 1383.52) rotate(-83.36)" style="fill:#b1b3b4"/><rect x="1177.42" y="221.68" width="7.5" height="11.39" transform="translate(768.82 1374.32) rotate(-83.36)" style="fill:#b1b3b4"/><path d="M272.45,181c6.18,0,7.11-1.75,7.87-10.72a19.17,19.17,0,0,0,5.54,2.16c-1.17,10.78-3.33,13.92-13.35,13.92H251.89c-10.08,0-13.23-1.86-13.23-9.79V148.48h5.6v8.8H272.8v-14H236V138H278.4v27.39h-5.6v-2.8H244.26v14c0,3.61,1.16,4.37,7.45,4.37Z" transform="translate(-49.87)" style="fill:#cec0ff"/><path d="M331.7,162.76a35,35,0,0,1-6.17,11.94,127.07,127.07,0,0,1,17,8.51L338.4,188a112,112,0,0,0-17.12-9.08c-5.95,4.77-14.1,7.51-25.06,9.2a24.72,24.72,0,0,0-3.38-5.42c9.62-1.11,16.9-3,22.26-6.47-5.3-2.15-10.72-4.07-15.62-5.65,1.58-2.21,3.38-4.89,5.07-7.8h-12v-5.13h14.92a76.84,76.84,0,0,0,4.37-9.67l6.17,1.16a92.18,92.18,0,0,1-3.84,8.51h12.41c.35-1.69.64-3.61.87-5.54l6.58.53c-.29,1.75-.58,3.44-.93,5h10v5.13Zm-32.33-9.56h-5.48V141H315c-.76-1.75-1.69-3.85-2.45-5.48l6-1.46c1.1,2.16,2.5,4.9,3.38,6.94h19.75V153.2H335.9V146H299.37Zm12,9.56c-1.11,1.92-2.15,3.72-3.2,5.36,3.78,1.28,7.74,2.68,11.59,4.19a24.87,24.87,0,0,0,5.48-9.55Z" transform="translate(-49.87)" style="fill:#cec0ff"/><path d="M378.66,181.57h22.08v4.9H351.57v-4.9H373V173H357.28v-4.72H373v-7.92H359.9v-4.72a68.49,68.49,0,0,1-7.58,4.66,20.21,20.21,0,0,0-3.37-4.43,70,70,0,0,0,20.56-14.68h-9.26v-5.07h18.59c5.18,7.75,14.91,15.32,24.35,19.05a25.79,25.79,0,0,0-3.67,4.9,58,58,0,0,1-7.52-4.26v4.55H378.66v7.92h15.85V173H378.66Zm-18.64-26h31.63a72.12,72.12,0,0,1-15.73-14.39A84.36,84.36,0,0,1,360,155.59Z" transform="translate(-49.87)" style="fill:#cec0ff"/><path d="M426.61,164.62c-2.16.64-4.26,1.22-6.35,1.81v15.14c0,2.8-.65,4.2-2.28,5s-4.31,1-8.27,1a18.1,18.1,0,0,0-1.63-4.9c2.56.06,5.07.06,5.77.06s1.1-.29,1.1-1.16V168l-6.29,1.69-1.46-5.19c2.22-.52,4.84-1.16,7.75-1.86V150.93H407.9v-5H415V134.56h5.31v11.36H426v5h-5.76v10.25c1.86-.52,3.78-1.05,5.65-1.51Zm22.14-3.44c1.28,12.41,3.84,21,6.58,21,1,0,1.46-2.92,1.63-9.38a14.2,14.2,0,0,0,4.37,2.85c-.76,9.38-2.51,11.77-6.58,11.77-6.18,0-9.67-11.25-11.25-26.28H433.42v18.65l9.09-3.56a26.49,26.49,0,0,0,.93,4.66c-12.35,5.19-14.27,6.12-15.44,7.23a19.35,19.35,0,0,0-2-5.07,3.82,3.82,0,0,0,2.33-3.67V140.09h.05c9.09-1.16,19.4-3,25.7-5l3.73,4.37a92.3,92.3,0,0,1-10,2.33c0,5.13.18,10,.53,14.51h11.25v4.89ZM443,156.29c-.35-4.31-.59-8.92-.7-13.52-3,.53-6,.93-8.92,1.34v12.18Z" transform="translate(-49.87)" style="fill:#cec0ff"/><path d="M480.9,161.94a69.75,69.75,0,0,1-4.78,15c1.11.64,2.34,1.63,4.26,2.74,4,2.45,9.38,2.8,16.2,2.8a233,233,0,0,0,23.36-1.28,21.07,21.07,0,0,0-1.63,5.53c-4.49.29-15.15.64-22,.64-7.63,0-12.64-.64-16.89-3.09C477.12,183,475,181,473.74,181s-3.32,3.73-4.9,7.29l-3.67-5a27.69,27.69,0,0,1,5.89-6,55,55,0,0,0,3.84-11.31h-7.51c1.45-3.44,3.14-8.15,4.66-12.7h-5.89v-4.95h12.53c-1.22,4.19-2.92,9-4.31,13h3.26l.82-.23Zm-8.68-16.08c-.7-2.51-2.15-6.64-3-9.73l4.72-1.46c1.11,3,2.45,6.94,3.21,9.44Zm17.71,4.31h-8.79v-4.08H497v-3.67H484.69v-4H497v-4h5.3v4h12.53v4H502.28v3.67h16.2v4.08h-9.2l2,.53c-1,1.8-2,3.67-2.86,5.06h9.32v4h-15.5v3.27h13.35V167H502.28v3.61H518v4.08H502.28V180H497v-5.36h-15.2v-4.08H497V167H484.22v-3.9H497v-3.27h-14.8v-4h8a23,23,0,0,0-2.22-5.12Zm13.64,5.13c.7-1.46,1.57-3.56,2.21-5.13H493a18.4,18.4,0,0,1,2.27,5.13l-2,.46h11.83Z" transform="translate(-49.87)" style="fill:#cec0ff"/><path d="M570.56,137.88v49.7h-5.7v-3.85H536.07v3.85H530.6v-49.7Zm-34.49,5.3v8.27h28.79v-8.27Zm0,13.4V165h28.79v-8.39Zm28.79,21.85V170.1H536.07v8.33Z" transform="translate(-49.87)" style="fill:#cec0ff"/><path d="M634.07,143.53s0,1.86-.06,2.56c-.82,26.28-1.52,35.31-3.85,38.22a6.46,6.46,0,0,1-5.07,2.74,62.15,62.15,0,0,1-8.79,0,12.7,12.7,0,0,0-1.75-5.24c3.73.29,7.11.35,8.56.35a2.62,2.62,0,0,0,2.45-1c1.86-1.93,2.62-10.72,3.38-32.69H615.19a58.79,58.79,0,0,1-5.3,9.79,28.86,28.86,0,0,0-4.26-3V182H589.84v4.43h-5V143.82h6.53a69.23,69.23,0,0,0,2-9.44l5.88,1c-1,2.92-2.1,6-3,8.45h9.32v11c3.85-5,6.94-12.76,8.68-20.45l5.25,1.22c-.7,2.69-1.46,5.37-2.39,7.93Zm-44.23,5v11.07h10.84V148.54Zm10.84,28.67V164.33H589.84v12.88Zm19.4-4.55a95.9,95.9,0,0,0-8.5-13.46l4.25-2.39a104.49,104.49,0,0,1,8.8,13Z" transform="translate(-49.87)" style="fill:#cec0ff"/><path d="M658.77,165.55l1.28,4.78c-6.12,2.91-12.65,5.94-17.72,8.21l-2.15-5.41c2.1-.76,4.78-1.81,7.75-3V153.32h-6.64v-5.13h6.64V135.26H653v12.93h5.88v5.13H653V168Zm26.51,16.37c3.2,0,3.78-1.45,4.25-7.8a15.7,15.7,0,0,0,4.78,2c-.76,8-2.39,10.66-8.69,10.66h-13.4c-7.16,0-9.2-1.81-9.2-8.8V161.12l-4,1.75L657,158l6.06-2.57V140h5.13v13.29l6.52-2.74v-16h5.07v13.86l7.81-3.32,4,1.34-.24.88c-.46,8.09-1.34,18.76-2.79,25.4l-4.43-1.22a181.29,181.29,0,0,0,1.81-20.22L679.74,154v20.91h-5.07V156.11l-6.52,2.8V178c0,3.26.64,3.9,4.36,3.9Z" transform="translate(-49.87)" style="fill:#cec0ff"/><path d="M762.64,148a50,50,0,0,1-8.79,14.68c1.63,11.77,4.07,19.81,6.29,19.81.87,0,1.4-3,1.63-9.56a12.22,12.22,0,0,0,4.08,3c-.76,9.21-2.28,11.77-6.41,11.77-4.9,0-8.16-8.45-10.14-20.51a42,42,0,0,1-4.54,3.44,26.43,26.43,0,0,0-2.86-2.91h-18V154.37h18.7V165.9a29.63,29.63,0,0,0,5.83-4.6c-.59-5.19-1-10.9-1.29-16.72H721.8v3.2H745v3.79H721.8V152c0,9.9-.82,25.63-6,36.12a17.67,17.67,0,0,0-4.25-2.85c4.83-9.91,5.3-23.89,5.3-33.27V140.21H747c-.06-1.92-.12-3.79-.12-5.65h5.25c0,1.86,0,3.73,0,5.65h5.37c-1.52-1.23-3.73-2.68-5.37-3.79l3.15-2.33a69.41,69.41,0,0,1,6.41,4.2l-2.33,1.92h5.19v4.37h-12.3c.18,3.9.41,7.75.82,11.36a39,39,0,0,0,4.66-9.15Zm-43,36.47a104.68,104.68,0,0,0,2.73-12l3.56,1.28c-.58,3.49-1.63,8.8-2.51,12.23Zm19.63-.88c1.52,0,1.86-.81,2-6.46a11.62,11.62,0,0,0,3.85,1.69c-.47,6.81-1.64,8.56-5.42,8.56h-6.76c-4.66,0-5.77-1.22-5.77-5.36v-9.79h4.37V182c0,1.4.29,1.63,2,1.63Zm-.93-25.4h-9.91v5.65h9.91Zm-1.92,20.22a98,98,0,0,0-4.84-8.62l3.5-1.64a77.19,77.19,0,0,1,5,8.34Zm9.9-6.64c1.92,3.67,4.37,8.68,5.48,11.59l-3.91,1.81a126.28,126.28,0,0,0-5.24-12Z" transform="translate(-49.87)" style="fill:#cec0ff"/><path d="M786.82,148.6H771.09v-4.37h15.73Zm-1.52,36.12h-8.39v2.56h-4V167.71H785.3ZM773.07,152h12.29v4.25H773.07Zm0,7.74h12.29V164H773.07Zm5.24-15.67a35,35,0,0,0-3-7.86l3.9-1.46a36.43,36.43,0,0,1,3.21,7.69ZM776.91,172v8.51h4.31V172Zm31.7-8.21a41.7,41.7,0,0,1-4.55,6.06v12.52c0,2.33-.46,3.67-2,4.49s-3.9.87-7.34.87a14.8,14.8,0,0,0-1.57-4.48c2.39.11,4.77,0,5.41,0s1-.23,1-1v-7.86a64.42,64.42,0,0,1-11.25,8.33,34,34,0,0,0-2.27-4.25,53,53,0,0,0,13.22-9.62c-4.31.53-8.5,1-12.06,1.34l-.4-4.25,2.15-.17V141h4.31a54.89,54.89,0,0,0,1.58-6.53l5.3.87c-.76,1.87-1.58,3.91-2.27,5.66h6.17v22.08l.53-.82Zm-9-18.53H793.4v4.08h6.18Zm0,8H793.4v4h6.18Zm-6.18,12.12,6.18-.52v-3.68H793.4Zm30.18-13.46h-3v29.89c0,2.74-.58,4.08-2.21,4.89s-4.26,1-8,1a29.44,29.44,0,0,0-1.75-4.83c2.62.12,5.18.12,6,.12s1.11-.3,1.11-1.23V151.86H805.52v-5h10.14v-12h4.89v12h3Zm-13.17,18.88a66.34,66.34,0,0,0-4.08-13.58l4-1.1a59,59,0,0,1,4.37,13.28Z" transform="translate(-49.87)" style="fill:#cec0ff"/><path d="M836.51,150.29a52.56,52.56,0,0,1-5,4.72,28.37,28.37,0,0,0-3.44-4.31,49.49,49.49,0,0,0,13.69-16.38l4.78,1.63a64.47,64.47,0,0,1-4.89,7.93v24h-5.19Zm-7.69,33a62.59,62.59,0,0,0,5.71-12.52l4.78,2a107.55,107.55,0,0,1-5.42,13ZM862.9,182c3,0,3.5-.81,3.85-6.58a13,13,0,0,0,5,2c-.7,7.69-2.33,9.56-8.39,9.56h-12.7c-7.46,0-9.38-1.52-9.38-6.82v-9.5h5.42V180c0,1.69.7,2,4.31,2Zm-9-37.75a41.2,41.2,0,0,1-5.83,7.4,25,25,0,0,0-4-3.38,32.29,32.29,0,0,0,8.86-13.69l4.95,1.22c-.46,1.34-.93,2.56-1.51,3.85h20.1l.81-.18,3.79.93c-1.46,3.44-3.2,7.46-4.6,10l-4.6-1c.69-1.34,1.57-3.27,2.33-5.13Zm3.85,7.75A38.7,38.7,0,0,1,849.62,164a37.21,37.21,0,0,0-4-3.21,26.62,26.62,0,0,0,7.22-10.19Zm.17,26.45c-1.34-2.8-4.78-7.05-7.81-10.08l4.2-2.27a46.59,46.59,0,0,1,8.16,9.73Zm8.57-10.78h-5.19V146.09h5.19Zm6.87-17.13a50.12,50.12,0,0,1,7.11,11.19L876,164.1A60.72,60.72,0,0,0,869,152.56Zm1.46,19.11a54.12,54.12,0,0,1,6.35,13.17l-5.19,2c-.81-3.56-3.38-9.15-5.94-13.34Z" transform="translate(-49.87)" style="fill:#cec0ff"/><path d="M938.47,143.53s0,1.86-.06,2.56c-.82,26.28-1.52,35.31-3.85,38.22a6.46,6.46,0,0,1-5.07,2.74,62.15,62.15,0,0,1-8.79,0,12.7,12.7,0,0,0-1.75-5.24c3.73.29,7.11.35,8.56.35a2.62,2.62,0,0,0,2.45-1c1.86-1.93,2.62-10.72,3.38-32.69H919.59a58.79,58.79,0,0,1-5.3,9.79,28.86,28.86,0,0,0-4.26-3V182H894.24v4.43h-5V143.82h6.53a69.23,69.23,0,0,0,2-9.44l5.88,1c-1,2.92-2.1,6-3,8.45H910v11c3.85-5,6.94-12.76,8.68-20.45L924,135.6c-.7,2.69-1.46,5.37-2.39,7.93Zm-44.23,5v11.07h10.84V148.54Zm10.84,28.67V164.33H894.24v12.88Zm19.4-4.55A95.9,95.9,0,0,0,916,159.2l4.25-2.39a104.49,104.49,0,0,1,8.8,13Z" transform="translate(-49.87)" style="fill:#cec0ff"/><path d="M983.21,149.53c-.24.35-.47.7-.76,1.11A59.18,59.18,0,0,0,998.65,161a21,21,0,0,0-2.1,5.07,85.77,85.77,0,0,1-7.57-4.6v3.49H971.15v-3.14a62.08,62.08,0,0,1-7,4.66,28.73,28.73,0,0,0-1.87-3.32l-5,2.15v16.2c0,2.79-.58,4.31-2.16,5.13s-4,1.16-7.69,1.1a18.1,18.1,0,0,0-1.51-5.24c2.27.06,4.49.06,5.13.06s1-.24,1-1v-14c-1.87.82-3.73,1.58-5.36,2.28l-1.46-5.36c2-.64,4.31-1.52,6.82-2.51v-11h-6.47v-5H952V134.61h5.24v11.25h4.84v5h-4.84v8.91l4-1.57.64,3.26c6.53-3.2,13.17-8.27,17.07-14Zm-14.86-5.13h-6.06v-4.72h6.06v-4.89h4.95v4.89H979v4.72H973.3v5.65h-4.95ZM967,168.87h26.51v18.94h-5.19v-2H972v2h-5Zm5,4.49v7.87h16.37v-7.87Zm15.62-12.93a65.14,65.14,0,0,1-7.87-6.41,65.5,65.5,0,0,1-6.82,6.41Zm-1.23-16h-5.71v-4.72h5.71v-4.89h5v4.89h6.23v4.72h-6.23v5.65h-5Z" transform="translate(-49.87)" style="fill:#cec0ff"/><path d="M1032.73,165.09c4.89,7.45,14.1,14,24.12,16.72a20.45,20.45,0,0,0-3.5,4.54,46.46,46.46,0,0,1-20.62-14.21V188h-5.66V172.37a46.31,46.31,0,0,1-20.62,14,26.71,26.71,0,0,0-3.55-4.54c10.07-2.74,19.28-9.27,24.17-16.78V151.28h-22.25v-4.9h22.25V142c-5.82.4-11.71.64-17.12.75a17.56,17.56,0,0,0-1.17-4.6c13.46-.41,29.66-1.51,39.39-3.44l2.38,4.66a178.28,178.28,0,0,1-17.82,2.22v4.83H1055v4.9h-22.31Zm-28,3.32c3.21-.76,7.52-1.81,12.06-3v-4.66h-10.25v-4.26h10.25v-3.67h4.9V164.1l2.27-.65.58,3.91c-6.47,2-13.28,4-18.53,5.48Zm38.46-15.62v3.67h10.54v4.26h-10.54v3c0,1.63.23,2.15,1.39,2.15h6.35a21.08,21.08,0,0,0,4-.35c.11,1.4.23,3.15.4,4.31a16.45,16.45,0,0,1-4.25.41h-6.93c-5.07,0-6.18-1.86-6.18-6.52v-11Z" transform="translate(-49.87)" style="fill:#cec0ff"/><path d="M508,10.58h13.65L527,43.2c1,7,2.08,14.19,3.07,21.33h.37c1.35-7.14,2.8-14.37,4.24-21.33l7.78-32.62h11.38l7.78,32.62c1.44,6.87,2.8,14.1,4.25,21.33h.45c1-7.23,2-14.37,3-21.33l5.24-32.62h12.75L574.87,77.46H558.24l-7.5-33.08c-1.08-5.24-2.08-10.4-2.89-15.46h-.36c-.91,5.06-1.81,10.22-2.89,15.46l-7.33,33.08H520.91Z" transform="translate(-49.87)" style="fill:#fff"/><path d="M593.05,52.24c0-16.45,11.48-26.66,23.59-26.66,13.92,0,21.15,10.21,21.15,24.22a24.86,24.86,0,0,1-.63,6.06H606c1.09,8.31,6.51,12.65,14,12.65A20.84,20.84,0,0,0,631.37,65l4.52,8.13a32,32,0,0,1-17.71,5.6C604.08,78.72,593.05,68.87,593.05,52.24Zm33.35-5.15c0-6.87-3.07-11.21-9.58-11.21-5.33,0-10,3.8-11,11.21Z" transform="translate(-49.87)" style="fill:#fff"/><path d="M660.57,72.13h-.27l-1.18,5.33H648.73V5.33h13.19V23.5l-.27,8.13c4-3.61,9-6.05,14-6.05,12.48,0,20,10.21,20,25.67,0,17.44-10.4,27.47-21.51,27.47C669.61,78.72,664.73,76.37,660.57,72.13ZM682,51.52c0-9.67-3.07-15-10-15-3.44,0-6.51,1.72-10,5.25V64a14,14,0,0,0,9.22,3.8C677.29,67.79,682,62.55,682,51.52Z" transform="translate(-49.87)" style="fill:#fff"/><path d="M784.22,9.85V30.91H773.1V19.7H716V30.91H705.4V9.85h33.72a43.65,43.65,0,0,0-2.53-5.78L747.43,1a88.27,88.27,0,0,1,4.25,8.86Zm-32.9,37.33h32.9V57.39h-32.9v15.1c0,6.05-1.45,8.77-5.79,10.48s-10.3,1.9-18.34,1.9c-.64-3.25-2.9-8-4.61-10.85,5.78.28,12.83.28,14.64.28,2-.09,2.62-.55,2.62-2.08V57.39h-34V47.18h34V37H719.41v-10h50.35V37H751.32Z" transform="translate(-49.87)" style="fill:#fff"/><path d="M873.53,10.39V32.27H862.32V20.34H808V32.27H797.42V10.39H830a57.11,57.11,0,0,0-3.16-7.14L838.19,0a65.2,65.2,0,0,1,5,10.39Zm-32.9,25h27V85.23h-11V81.8h-42.3v3.43H803.75V35.34h26.12V23.77h10.76Zm-26.3,9.85v8.5h15.54v-8.5Zm0,26.76h15.54V62.73H814.33Zm26.3-26.76v8.5h16v-8.5Zm16,26.76V62.73h-16V72Z" transform="translate(-49.87)" style="fill:#fff"/><path d="M911,48.54c-2.44.9-4.88,1.89-7.41,2.71V73.12c0,5-.81,7.59-3.52,9.4-2.72,1.63-6.6,2.08-12.2,2a40.1,40.1,0,0,0-2.81-10c3.17.18,6.15.18,7.23.18s1.45-.36,1.45-1.54V54.77c-2.53.91-5,1.72-7.32,2.53L883.84,47c2.8-.72,6.14-1.72,9.85-2.89V27.93H885.1V18h8.59V.9h9.85V18h6.15v9.94h-6.15V40.85l5.7-1.89Zm37.6,6.77a57.09,57.09,0,0,0,19.8,16.27A46,46,0,0,0,961,80,67.08,67.08,0,0,1,942.5,62.27V85.41H931.92V63.27c-5,7.23-11.21,13.47-18.35,17.35a45.26,45.26,0,0,0-6.87-8.13,49.43,49.43,0,0,0,19.71-17.18H912V45.73h20V36.79H942.5v8.94H966v9.58ZM936.17,16.63c-.72,12.74-3.89,20-21.15,23.68A25.7,25.7,0,0,0,909.78,32c14.28-2.26,16.09-6.42,16.63-15.37ZM921.8,23.5h-9.94V5.06h53.41V23H954.79V14.19h-33ZM959.85,29a28,28,0,0,0,5.6-.63c.28,2.44.55,6.6.82,9-1.45.54-3.89.54-6.24.54h-8c-9.31,0-11.48-3-11.48-11.93v-9.4H950V26c0,2.17.27,3,1.81,3Z" transform="translate(-49.87)" style="fill:#fff"/><path d="M1004.87,69c-5.87,5.61-14.73,11.48-21.78,15.19A76.76,76.76,0,0,0,975,76.92c7.14-3,15.28-7.51,20.07-12Zm18.26-7V74.39c0,4.88-1,7.5-4.88,9s-8.86,1.63-15.37,1.63a39.54,39.54,0,0,0-3.7-9.85c4.7.18,10.12.27,11.66.18s1.89-.36,1.89-1.36V62.64c-23.41,1.62-27.38,2.16-30.37,3.16a77.23,77.23,0,0,0-2.53-8.68c3.44-.45,7-1.62,12.21-3.7,2.07-.82,6.05-2.35,10.84-4.52-10.21.72-12.47,1.08-13.92,1.62a83.48,83.48,0,0,0-2.71-8.58A20.32,20.32,0,0,0,993,39.32a130.47,130.47,0,0,0,13.47-7.78H986v9.77H975.77V22.6h34.79V17.17h-32.8V8h32.8V.9H1022V8h32.72v9.22H1022V22.6h34.8V41.31h-10.66V31.54H1017l2,1.72a120.07,120.07,0,0,1-15.82,9l14.83-.54a140.47,140.47,0,0,0,13.37-7.87l7.41,6.24A232.64,232.64,0,0,1,1007,55.41l28.11-1.54c-1.81-1.72-3.62-3.35-5.24-4.79l7.59-4.7c6.15,5.24,14.28,12.74,18.26,17.8l-8.14,5.34a64,64,0,0,0-5.78-6.78Zm12,2.44c6.87,3.62,16.72,9.4,22,13.47l-8.86,6.06c-4.51-4-14.09-10.22-21.33-14.28Z" transform="translate(-49.87)" style="fill:#fff"/><path d="M1094.9,50.34s-.09,2.44-.18,3.71c-1.09,17-2.26,24.13-4.61,26.75-1.63,2.08-3.43,2.8-6.06,3.17a64.51,64.51,0,0,1-9.58.09,23.2,23.2,0,0,0-2.53-8.77,70.22,70.22,0,0,0,7.78.36,3.17,3.17,0,0,0,2.8-.9c1.17-1.36,2.08-5.7,2.8-16.09H1077v.09h-9.21c1.17-4.07,2.34-9.4,3.34-14.46h-6.78V35H1098v9.31h-17.8c-.45,2.08-.82,4.07-1.27,6.05ZM1096.08,30h-27.57V4.25h27.57Zm-8-18.26H1076.1V22.41H1088Zm49,30.37a27.43,27.43,0,0,0,6.33-.63c.18,2.62.36,5.24.72,7.59a23.07,23.07,0,0,1-6.6.72H1128c-7.5,0-9.13-3.52-9.22-10.57l-6.33.54-.9-7.05,7.23-.63V26.75h-8.58V41.58c0,12.92-1.36,31.72-8.77,43.74a40.93,40.93,0,0,0-8-5.6c6.69-11,7.33-26.75,7.33-38.23V18.26h17.53V.9h10.21V5.78h17.27v8.5h-17.27v4h13.11l1.44-.27,6.6,1.44c-1,6-2.26,12.93-3.52,17.36l-7.77-2c.36-2.08.81-5.06,1.17-8h-11.84v4.52l8.5-.81.81,7-9.31.81v.55c0,2.25.18,3.25,2.08,3.25Zm-13.56,10.66c-.54,14.83-2.53,26-12.65,32.81a21.66,21.66,0,0,0-5.7-7c8-5.33,9.13-13.92,9.49-25.76Zm16.63,21.61a2.09,2.09,0,0,0,1.45-.37,3.73,3.73,0,0,0,.81-1.8c.09-1.36.27-4.52.27-8.32a21.68,21.68,0,0,0,7.23,4.07,69.2,69.2,0,0,1-1.08,10.48,8.28,8.28,0,0,1-3,4.07,10,10,0,0,1-5,1.27H1136a8.54,8.54,0,0,1-6-2.08c-1.45-1.63-1.81-3.08-1.81-8.23V52.69h8.77V72.58a2.1,2.1,0,0,0,.36,1.26,1.68,1.68,0,0,0,1.36.55Z" transform="translate(-49.87)" style="fill:#fff"/><path d="M152.36,69.78C170.52,53.51,181.28,41,181.28,30.64c0-6.78-3.71-10.84-10-10.84-4.88,0-8.95,3.16-12.29,6.86l-7.24-7.23c6.15-6.5,12.12-10.12,21.24-10.12,12.66,0,21.06,8.14,21.06,20.61C194,42,184,55.05,171.79,67c3.34-.37,7.77-.73,10.85-.73h14.55V77.46H152.36Z" transform="translate(-49.87)" style="fill:#18cec3"/><path d="M205.69,43.75c0-23.14,9-34.44,22.68-34.44S251,20.7,251,43.75s-9,35-22.6,35S205.69,66.8,205.69,43.75Zm32.72,0c0-18.71-4.34-24.14-10-24.14S218.25,25,218.25,43.75s4.34,24.58,10.12,24.58S238.41,62.55,238.41,43.75Z" transform="translate(-49.87)" style="fill:#18cec3"/><path d="M262.36,66.7h14.37V24.41H264.62V16.18c6.69-1.27,11.3-3,15.55-5.6H290V66.7h12.56V77.46H262.36Z" transform="translate(-49.87)" style="fill:#18cec3"/><path d="M312.44,60.83c0-8.59,5.24-14.1,11.48-17.44v-.46c-5.15-3.7-8.86-8.76-8.86-15.9,0-10.76,8.5-17.63,20.16-17.63,11.84,0,19.43,7.14,19.43,17.81,0,6.59-4.16,12.11-8.59,15.27v.45c6.15,3.35,11.21,8.77,11.21,17.9,0,10.12-8.95,17.9-22.51,17.9C322,78.73,312.44,71.31,312.44,60.83Zm32.45-.45c0-7-6.15-9.85-14.83-13.38a16.08,16.08,0,0,0-6.14,12.38c0,6.06,5,9.95,11.21,9.95C340.73,69.33,344.89,66.16,344.89,60.38ZM343.8,28c0-5.42-3.25-9.31-8.86-9.31-4.52,0-8.13,3-8.13,8.32,0,6.32,5.15,9.4,12.2,12.2A16,16,0,0,0,343.8,28Z" transform="translate(-49.87)" style="fill:#18cec3"/><path d="M388.24,74.32c-5.31,1.34-11,2.63-15.56,3.66l-1.08-5.67c1.7-.26,3.66-.67,5.87-1.13v-12H373V53.72h4.43V42.59h-4.94V37h15.81v5.56h-5.25V53.72h4v5.46h-4V69.94l4.53-1Zm12.05-18.13C400.29,66.7,399,76,389.22,82a18.61,18.61,0,0,0-3.76-4.43c7.72-4.68,9.21-11.58,9.42-19.57l-2.37,1.14a90.92,90.92,0,0,0-5.66-12l4.48-1.75c1.18,2.06,2.42,4.42,3.55,6.59V33.84h5.41Zm19.88,18.44v5.66H398.69V74.63h9.12v-14H402V55.21h5.77V42.54h-6.39V37h17.87v5.56h-5.61V55.21h5v5.46h-5v14Z" transform="translate(-49.87)" style="fill:#18cec3"/><path d="M440.62,68H424.29V61.86h16.33Zm-1.13-20.8H425.32V41.26h14.17Zm17.1,8.24c2.16,9.83,6.64,17.51,15.45,20.8A22.09,22.09,0,0,0,468,81.68c-6.6-2.93-10.77-7.93-13.55-14.62-2.16,5.51-6.54,11.07-15,15.14a25,25,0,0,0-4.63-5c13.8-6.33,15.24-16.38,15.24-23V49.39h6.6v6Zm-9-7.37A48.13,48.13,0,0,1,442,58.77a44.08,44.08,0,0,0-6.13-3.56c4.28-4.79,7.31-13,8.81-21.32L451.43,35c-.51,2.37-1.08,4.69-1.75,7h15.51l1.18-.36,4.48,2.62a85.34,85.34,0,0,1-5.35,14.94,45.84,45.84,0,0,0-5.26-2.53,65.1,65.1,0,0,0,3-8.6Z" transform="translate(-49.87)" style="fill:#18cec3"/><path d="M900.57,342.79l-19.11-1.59A185.75,185.75,0,0,1,898,351.72l-5.86,5.72a161.65,161.65,0,0,0-17.62-12.11l4-4.38-20.13-1.67,5.3,5.15a127.43,127.43,0,0,1-21.83,9,49.43,49.43,0,0,0-4-6.4c6.15-1.75,14.27-5,19.08-7.9l-18.5-1.54.62-7.46,6.1.51,1.75-35.06a119.66,119.66,0,0,0,13.36-3.95l2.91,6.86c-2.93.78-6.18,1.33-9.3,1.89l-.3,6.12,7.72.64-.54,6.58-7.53-.63-.28,5.85,7.53.62-.55,6.57-7.32-.6-.27,5.71,35.38,2.93c.28-1.75.5-3.51.79-5.46l-6.84-.57.55-6.64,7.12.59c.22-1.89.45-3.85.68-5.81l-6.84-.57.55-6.64,7,.59c.16-2,.32-3.87.55-5.83l-7.8-.64.58-6.92,15.18,1.26c-1,12.07-2.6,27.15-4,37.27l5.9.49Zm-30.5-24.71c-.84,4.36-2.3,8.75-4.43,11.44a35.6,35.6,0,0,0-4.82-3.61c1.9-2.37,2.73-5.78,3.3-9.35Zm3.47-2.38-10.23-.84,1.86-22.5,6.85.56-.38,4.61,10.64.88-.55,6.65-10.64-.89-.42,4.95,7.53.63v.13l2.57.21-1.42,17.15c-.23,2.78-.87,3.89-2.77,4.61s-4.47.45-7.8.18a21.58,21.58,0,0,0-1.35-5.1,31,31,0,0,0,4.33.43c.61.05.83-.07.88-.68Z" transform="translate(-49.87)" style="fill:#cacaca"/><path d="M718.41,335.9a47.78,47.78,0,0,1-10.07,13.61,44.36,44.36,0,0,0-6.46-4.83,31.47,31.47,0,0,0,9-11Zm17.41-2.72H702.43v-7.07h6.12V300.88h-5.31v-7.07h5.31V286.6h7.27v7.21h8.44V286.6h7.41v7.21h4.62v7.07h-4.62v25.23h4.15Zm-20-32.3v3.95h8.44v-3.95Zm0,14.42h8.44V311h-8.44Zm0,10.81h8.44v-4.62h-8.44Zm47.95,14.21c0,4-.75,6.13-3.13,7.42s-5.85,1.49-10.88,1.43a29.24,29.24,0,0,0-2.31-7.69c2.92.21,6.19.14,7.14.14s1.36-.34,1.36-1.43v-13.4H745.61c-.75,8-2.45,16.53-6.12,22.65a23.26,23.26,0,0,0-6.39-4.56c.2-.41.47-.75.68-1.15l-5.65,3.19a67.88,67.88,0,0,0-7.27-10.27l6.12-3.33a73.73,73.73,0,0,1,7.34,9.25c3.95-8.5,4.29-20,4.29-28.84v-25h25.16ZM756,319.58v-8.36h-9.79v2.51c0,1.77,0,3.75-.07,5.85Zm-9.79-23.46v8H756v-8Z" transform="translate(-49.87)" style="fill:#cacaca"/><path d="M793,303.74a77.74,77.74,0,0,1-5.65,8.36v37.13h-7.75V321a74.74,74.74,0,0,1-6.19,5.58,55.09,55.09,0,0,0-3.74-8.37c5.92-4.21,12.51-10.88,16.32-17.47Zm-1.09-14.69a69.56,69.56,0,0,1-17.62,17,47,47,0,0,0-4-6.87c5.38-3.19,11.22-8.77,14-13.26Zm33.39,30.46h8.3v7.35h-8.3v14c0,4-.75,6-3.6,7.14s-6.74,1.29-12,1.22a31.7,31.7,0,0,0-2.52-7.54c3.4.2,7.28.2,8.36.13s1.43-.27,1.43-1.16v-13.8H789.82v-7.35H817v-3.87h8.3Zm8.57-25.9V301H815.66v5.51h15.16v7.34H792.54v-7.34h14.82V301H790.23v-7.41h17.13v-7.48h8.3v7.48Zm-33.39,34A110.55,110.55,0,0,1,809,338.69l-7.14,4a94.21,94.21,0,0,0-8.1-11.62Z" transform="translate(-49.87)" style="fill:#cacaca"/><path d="M905.67,353.92A71.6,71.6,0,0,0,914.16,340l6.72,4a127.27,127.27,0,0,1-8.16,14.5Zm14.2-35.28c-1.84,1.32-3.66,2.57-5.4,3.7a46.64,46.64,0,0,0-3.94-7.15,54.76,54.76,0,0,0,18.21-16.11l6.74,3.36a64.47,64.47,0,0,1-6.63,8.06l-4,28.35-7.68-1.09Zm25.18,38.52c3.23.45,4-.34,5.2-6.68a24.21,24.21,0,0,0,6.94,3.86c-2.34,9.29-4.89,11.26-12.56,10.18l-13-1.84c-9.56-1.35-11.74-3.93-10.72-11.13l1.43-10.1,8.15,1.15-1.4,9.9c-.31,2.15.34,2.45,4.24,3Zm.74-33.9a45.39,45.39,0,0,1-11.57,12.38,59.58,59.58,0,0,0-5.26-5.55,31.35,31.35,0,0,0,9.92-9.93Zm-3.39-9.54a43,43,0,0,1-7.38,7.06,48.29,48.29,0,0,0-5.15-5.88,34.55,34.55,0,0,0,11.83-13.71l7.08,2.85c-.57,1.16-1.21,2.31-1.86,3.45l21.08,3,1.17,0,5.55,2a112.92,112.92,0,0,1-7,11.44l-6.6-2.38c.87-1.32,1.86-3,2.87-4.74Zm-2.11,39.74c-1-3.37-4-8.81-6.86-12.71l6.61-2.57c2.92,3.64,6.17,8.84,7.39,12.38Zm13.13-10.78-7.61-1.07,3.55-25.12,7.61,1.07Zm9.36,2.77c2.34,5.27,4.68,12.06,5,16.57l-8,2c-.28-4.29-2.24-11.3-4.42-16.76Zm1.71-21.81a64.52,64.52,0,0,1,6.3,13.74L963.55,340a76.17,76.17,0,0,0-5.89-14.22Z" transform="translate(-49.87)" style="fill:#cacaca"/><path d="M1037.06,363.16l-7.67-1.08-1,6.66c-.57,4-1.75,6.08-4.75,6.89s-6.92.39-12.58-.41a29.37,29.37,0,0,0-1.69-7.93c3.67.73,8,1.27,9.2,1.44s1.67-.11,1.83-1.25l.92-6.53-31.71-4.49-2.18,15.42-8-1.12,2.18-15.42L974,354.25l1-7.4,7.68,1.08,3.5-24.71,19.59,2.77.63-4.44L982,318.08l1-7.34,57.57,8.14-1,7.34-25-3.54-.63,4.44,20.07,2.84-3.5,24.71,7.68,1.09Zm-46.35-14.11,11.64,1.65.78-5.45-11.65-1.65Zm2.47-17.5-.74,5.25,11.65,1.65.74-5.26Zm29.24,22,.77-5.46-12.05-1.7-.77,5.45Zm-9.58-19.21-.74,5.25,12.05,1.7.75-5.25Z" transform="translate(-49.87)" style="fill:#cacaca"/><path d="M1062.88,344.29c2,2.89,6.74,10.63,7.85,12.51l-5.5,5.88c-.71-2.29-2.21-5.74-3.67-9l-4,28-7.68-1.09,3.76-26.6c-3,5.63-6.33,10.79-9.75,14.08a40.59,40.59,0,0,0-2.7-8.08c5.13-4.7,10.33-13.3,13.61-21l-8.68-1.23,1.06-7.54,9.63,1.36,2-13.8,7.67,1.09-2,13.8,8.42,1.19-1.07,7.54-8.42-1.19Zm45.44-15.83-8.24,58.25-8.08-1.15.49-3.43-15.82-2.24-.55,3.84-7.67-1.09,8.29-58.65Zm-14.8,46.4,1.22-8.62L1078.91,364l-1.22,8.62Zm-12.37-26.68-1.21,8.55,15.82,2.23,1.21-8.55Zm2.2-15.56-1.18,8.35,15.82,2.24,1.18-8.35Z" transform="translate(-49.87)" style="fill:#cacaca"/><path d="M1152.4,333c-.39.35-.8.78-1.19,1.13,5.43,6.26,15.82,12.47,26.23,16.07a27.52,27.52,0,0,0-5.92,5.42c-1.3-.53-2.65-1.2-4-1.8l-2.46,17.37-46.8-6.62,2.4-17c-1.48.27-3,.55-4.35.69a43.47,43.47,0,0,0-3.44-6.8c12.8-1.15,25.58-5,32.81-12Zm-30.68,34.33,39.59,5.59-3.22,22.76-8.21-1.16.23-1.61-23.5-3.33-.26,1.82-7.88-1.11Zm43.5-14.73a74.62,74.62,0,0,1-8.58-5.41l-.25,1.76-23.63-3.35.19-1.34a84.25,84.25,0,0,1-8.67,2.55Zm-34.89,8.73A26.85,26.85,0,0,0,1129,354l5.39-.75-7.61-1.08-1.19,8.48Zm20.52,26.32.38-2.69-23.5-3.32-.38,2.69Zm-22-14-.38,2.69,23.5,3.33.38-2.7ZM1140,354l-5.25-.75a30.92,30.92,0,0,1,1.69,7.52l-4.51.74,6.87,1Zm11.46-11.09a67.59,67.59,0,0,1-5-5.18c-2,1.24-4.12,2.44-6.34,3.57Zm-5,12-1.2,8.49,6.26.88-3.88-1.72a51.66,51.66,0,0,0,3.66-7Zm13.33,1.89-7-1,5.07,2c-1.73,2.5-3.38,4.95-4.72,6.68l5.45.77Z" transform="translate(-49.87)" style="fill:#cacaca"/><path d="M421.35,350.47l-27.12,1,.43,11.76-8.36.3-.43-11.75-26.3,1-.26-7.27,26.3-1-.11-2.92-5.91.22-.78-21.34L377.16,322a60.5,60.5,0,0,0-5.81-4.42l-3.54,5.51a55.77,55.77,0,0,0-10.74-5.19l4-5.59a66.33,66.33,0,0,1,10.16,4.26,45.57,45.57,0,0,0,12.58-16.93l7.76,2a50.44,50.44,0,0,1-2.53,5.12l6.8-.24c-.61-1.55-1.35-3.15-2-4.42l7.67-2.39a71,71,0,0,1,3.23,6.48l12.37-.45.22,6-13.59.5.12,3.33,10.94-.4.18,5-10.94.4.11,3,10.94-.4.18,4.9-10.94.4.13,3.6,14.68-.54.23,6.32-31.94,1.17,0,1.16,6.32-.23.16,4.21,27.11-1Zm-44.1-22.34c-3.63,4.89-7.86,10.09-11.91,14.93l-5.86-5.84a165.2,165.2,0,0,0,13.29-14.3Zm-5-16.35a50.89,50.89,0,0,0-10.61-5.47l4-5.66a54.83,54.83,0,0,1,10.72,4.85Zm23.78.83-9.52.34.13,3.33,9.51-.34Zm.3,8.29-9.51.35.11,3,9.51-.35Zm.29,7.88-9.51.35.13,3.6,9.51-.35Z" transform="translate(-49.87)" style="fill:#cacaca"/><path d="M459.36,321.86a39.69,39.69,0,0,1-2.24,3.68L486,324.49l1,28.07c.12,3.19-.44,4.78-2.44,5.94s-4.65,1.26-8.18,1.38a24.58,24.58,0,0,0-2.4-6,44,44,0,0,0,4.49-.17c.68,0,.94-.23.92-.91l-.1-2.65-7.61.28.31,8.49-7.27.27-.32-8.5-8.56.31a24.18,24.18,0,0,1-4.31,10.57,37.22,37.22,0,0,0-6.83-4.37c4.1-5.26,4.25-12.34,4-18.05l-.13-3.6c-1.26,1.07-2.51,2.06-3.7,3a68.28,68.28,0,0,0-4.45-6.1l1.06,28.89-7.81.28L432.51,328a58,58,0,0,1-3.55,5.24,65.42,65.42,0,0,0-4.26-8.56c5.06-6.58,9.6-16.61,12.09-26.64l7.55,1.9a123.88,123.88,0,0,1-4.54,13.37l.67,18.48a38.72,38.72,0,0,0,10.13-9.62l-7.68.28-.27-7.48,11.69-.43-.16-4.21-9.65.35-.27-7.4,9.65-.36-.19-5.23,7.75-.28.19,5.23,8.22-.3-.19-5.23,7.75-.29.19,5.24,8.29-.31.27,7.41-8.29.3.15,4.22,9.93-.37.27,7.48Zm-2.9,13.71,7.41-.27-.13-3.53-7.4.27Zm7.77,9.38-.15-3.87-7.47.27a35.88,35.88,0,0,1-.06,3.88Zm-2.15-30.68,8.23-.3-.16-4.21-8.22.3Zm16.55,17-7.62.28.13,3.54,7.62-.28Zm.48,13.19-.14-3.88-7.61.28.14,3.87Z" transform="translate(-49.87)" style="fill:#cacaca"/><path d="M552.75,305.58,554,339.49l-8.49.31-.13-3.4L530,337l.78,21.21-8.56.31-.78-21.2-15.29.56.14,3.73-8.16.3-1.25-34.25,23.44-.86L519.9,295l8.57-.32.43,11.76Zm-31.59,23.75-.53-14.61-15.29.55.53,14.62Zm23.92-.88-.53-14.61-15.36.56.53,14.61Z" transform="translate(-49.87)" style="fill:#cacaca"/><path d="M565,345.41a6.23,6.23,0,1,1,6.43,6.3A6.25,6.25,0,0,1,565,345.41Z" transform="translate(-49.87)" style="fill:#cacaca"/><path d="M587.12,344.6a6.23,6.23,0,1,1,6.43,6.3A6.25,6.25,0,0,1,587.12,344.6Z" transform="translate(-49.87)" style="fill:#cacaca"/><path d="M609.21,343.8a6.23,6.23,0,1,1,6.42,6.29A6.25,6.25,0,0,1,609.21,343.8Z" transform="translate(-49.87)" style="fill:#cacaca"/><path d="M239.4,367.82c-6.72,2.65-14,5.29-19.76,7.41L217.27,368c2.19-.63,4.68-1.49,7.5-2.47l-2-15.72-5.81.74-.91-7.15,5.8-.74L220,328.08l-6.48.83-.93-7.28L233.27,319l.93,7.28-6.88.89,1.87,14.57,5.26-.68.92,7.15-5.26.68L231.92,363l5.76-2.11Zm12.73-25.77c1.77,13.76,1.65,26.19-10.15,35.72a24,24,0,0,0-5.67-5.16c9.33-7.44,10.13-16.73,9.05-27.22l-2.91,1.88A121.84,121.84,0,0,0,233,332.44l5.57-3.05c1.9,2.5,3.92,5.4,5.76,8l-3-23.74,7.08-.91Zm29.14,20.81,1,7.42-28.12,3.61-1-7.42,11.94-1.53-2.34-18.28-7.56,1-.92-7.15,7.56-1-2.13-16.59L251.32,324l-.93-7.29,23.41-3,.93,7.29-7.35.94,2.13,16.59,6.54-.84.92,7.15-6.55.84L272.77,364Z" transform="translate(-49.87)" style="fill:#cacaca"/><path d="M302,323.66,283.4,326l-1-7.75L301,315.9Zm5,27.06-21.39,2.74-1-8,21.39-2.75Zm5.75-27.27a64,64,0,0,1-5.55,15,58.93,58.93,0,0,0-8.62-3.62c4.79-7,7.38-18.3,8-29.41l9.09.35c-.28,3.18-.63,6.32-1.12,9.4l20.3-2.61,1.49-.67,6.31,2.69A111.69,111.69,0,0,1,338,335a58.92,58.92,0,0,0-7.3-2.43,85.88,85.88,0,0,0,2.53-11.77Zm13,8.13c4.49,12.52,11.65,21.82,23.74,24.65a29.47,29.47,0,0,0-4.42,7.84c-9.12-2.74-15.43-8.58-20.19-16.88-1.91,7.58-6.71,15.6-17.15,22.36a33.1,33.1,0,0,0-6.92-5.83c17-10.62,17.21-24,16.09-32.72l-.79-6.2,8.63-1.11.82,6.41Z" transform="translate(-49.87)" style="fill:#cacaca"/><path d="M57.6,400.22c11.07-14.63,17.2-25.46,15.71-33.07-1-5-4.3-7.47-9-6.56-3.61.71-6.15,3.63-8.09,6.85l-6.38-4.3c3.6-5.69,7.48-9.22,14.23-10.54,9.34-1.82,16.72,3,18.52,12.18,1.74,9-3.79,20-11.08,30.57,2.42-.74,5.64-1.65,7.91-2.09l10.74-2.1,1.62,8.27L58.7,405.9Z" transform="translate(-49.87)" style="fill:#cacaca"/><path d="M93.22,373.31c-3.33-17.08,1.71-26.73,11.79-28.7s18.33,5.16,21.65,22.18S125,393.92,115,395.87,96.55,390.33,93.22,373.31Zm24.17-4.71c-2.7-13.82-6.69-17.2-10.89-16.38s-6.7,5.47-4,19.28,6.75,17.53,11,16.7S120.1,382.48,117.39,368.6Z" transform="translate(-49.87)" style="fill:#cacaca"/><path d="M138.38,382.1,149,380l-6.1-31.23L134,350.53l-1.19-6.07a32.59,32.59,0,0,0,10.67-6.38l7.28-1.42,8.09,41.45,9.28-1.81,1.55,7.94L139.93,390Z" transform="translate(-49.87)" style="fill:#cacaca"/><path d="M180.33,371.21a11.52,11.52,0,0,0,8.48,1.94c5.54-1.08,9.33-6.18,7.3-18.68a13.94,13.94,0,0,1-9.09,7.39c-8.2,1.6-15.13-2.31-17.18-12.79-2-10.14,3.86-17.87,12.33-19.52,9.35-1.82,19.19,3.88,22.54,21,3.65,18.69-3.92,28.55-13.73,30.46a18.89,18.89,0,0,1-14.65-3Zm14.31-23.59c-2.63-8.83-6.68-11.51-10.89-10.69-3.67.72-6.09,4.31-4.9,10.38,1.13,5.81,4.4,8,8.68,7.18C190.2,354,193,351.9,194.64,347.62Z" transform="translate(-49.87)" style="fill:#cacaca"/><ellipse cx="603.74" cy="601.28" rx="45.93" ry="6.7" style="opacity:0.8"/><polygon points="534.27 559.29 574.87 544.91 572.42 493.38 520.73 526.54 534.27 559.29" style="fill:#fff"/><rect x="650.68" y="319.06" width="3.38" height="38.16" transform="translate(-51.98 4.11) rotate(-0.36)" style="fill:#a73935"/><path d="M614.46,593.27c0,3.58,17.74,6.37,39.58,6.23l0-6.48Z" transform="translate(-49.87)" style="fill:#ef4f4d"/><path d="M652.37,338.15l1.4,220.28-33.85.22s-23.39-32.32-23.75-89.36S641.7,338.22,652.37,338.15Z" transform="translate(-49.87)" style="fill:#fff"/><path d="M623.66,375.5a71.27,71.27,0,0,0,29,5.78l-.28-43.13C647.52,338.19,635.41,353.48,623.66,375.5Z" transform="translate(-49.87)" style="fill:#f8ab1f"/><polygon points="544.47 603.27 547.91 588.64 520.73 526.54 508.35 534.11 544.47 603.27" style="fill:#ef4f4d"/><path d="M653,434.69a27.65,27.65,0,1,0,.35,55.3Z" transform="translate(-49.87)" style="opacity:0.2;mix-blend-mode:multiply"/><path d="M653.45,507.28l-53.36.34A162.84,162.84,0,0,0,614,548.48l39.7-.25Z" transform="translate(-49.87)" style="fill:#ef4f4d"/><path d="M653,437.61a24.73,24.73,0,0,0-24.57,24.89l24.73-.16Z" transform="translate(-49.87)" style="fill:#57a6ff"/><path d="M628.43,462.5a24.73,24.73,0,0,0,24.89,24.57l-.16-24.73Z" transform="translate(-49.87)" style="fill:#3469d3"/><path d="M652.73,394.65a17.75,17.75,0,1,0,.23,35.5Z" transform="translate(-49.87)" style="opacity:0.2;mix-blend-mode:multiply"/><path d="M652.75,397.78a14.62,14.62,0,0,0-14.53,14.71l14.62-.1Z" transform="translate(-49.87)" style="fill:#57a6ff"/><path d="M638.22,412.49A14.62,14.62,0,0,0,652.94,427l-.1-14.63Z" transform="translate(-49.87)" style="fill:#3469d3"/><rect x="619.97" y="558.54" width="33.85" height="14.95" transform="translate(-53.46 4.06) rotate(-0.36)" style="fill:#f8ab1f"/><polygon points="564.4 593.34 604.13 593.08 604 573.38 570.15 573.59 564.4 593.34" style="fill:#fff"/><path d="M628,518.9a6.15,6.15,0,1,1-6.19-6.11A6.15,6.15,0,0,1,628,518.9Z" transform="translate(-49.87)" style="fill:#fff"/><path d="M644.57,534.17a9.23,9.23,0,1,1-9.29-9.17A9.23,9.23,0,0,1,644.57,534.17Z" transform="translate(-49.87)" style="fill:#fff"/><polygon points="673.55 558.4 632.76 544.54 634.56 492.98 686.66 525.49 673.55 558.4" style="fill:#c5c5c5"/><path d="M693.53,592.77c0,3.58-17.66,6.59-39.49,6.73l0-6.48Z" transform="translate(-49.87)" style="fill:#a73935"/><path d="M652.37,338.15l1.4,220.28,33.86-.21s23-32.62,22.61-89.65S663,338.09,652.37,338.15Z" transform="translate(-49.87)" style="fill:#c5c5c5"/><path d="M681.55,375.13a71.26,71.26,0,0,1-28.9,6.15l-.28-43.13C657.21,338.12,669.52,353.26,681.55,375.13Z" transform="translate(-49.87)" style="fill:#ff6a1d"/><polygon points="663.9 602.5 660.28 587.92 686.66 525.49 699.14 532.89 663.9 602.5" style="fill:#a73935"/><path d="M653,434.69a27.65,27.65,0,0,1,.35,55.3Z" transform="translate(-49.87)" style="opacity:0.2;mix-blend-mode:multiply"/><path d="M653.45,507.28l53.35-.34a162.86,162.86,0,0,1-13.39,41l-39.7.25Z" transform="translate(-49.87)" style="fill:#a73935"/><path d="M653,437.61a24.74,24.74,0,0,1,24.89,24.58l-24.73.15Z" transform="translate(-49.87)" style="fill:#3469d3"/><path d="M677.89,462.19a24.71,24.71,0,0,1-24.57,24.88l-.16-24.73Z" transform="translate(-49.87)" style="fill:#2a508c"/><path d="M652.73,394.65a17.75,17.75,0,1,1,.23,35.5Z" transform="translate(-49.87)" style="opacity:0.2;mix-blend-mode:multiply"/><path d="M652.75,397.78a14.61,14.61,0,0,1,14.71,14.52l-14.62.09Z" transform="translate(-49.87)" style="fill:#3469d3"/><path d="M667.46,412.3A14.61,14.61,0,0,1,652.94,427l-.1-14.63Z" transform="translate(-49.87)" style="fill:#2a508c"/><rect x="653.82" y="558.32" width="33.85" height="14.95" transform="translate(-53.48 4.31) rotate(-0.37)" style="fill:#ff6a1d"/><polygon points="643.85 592.83 604.13 593.08 604 573.38 637.85 573.16 643.85 592.83" style="fill:#c5c5c5"/><path d="M660.77,312.67a8.57,8.57,0,1,1-8.62-8.51A8.56,8.56,0,0,1,660.77,312.67Z" transform="translate(-49.87)" style="fill:#f8ab1f"/><path d="M653.89,311.19a3.34,3.34,0,1,1-3.36-3.32A3.33,3.33,0,0,1,653.89,311.19Z" transform="translate(-49.87)" style="fill:#fff"/><path d="M654.52,409.57A4.51,4.51,0,1,1,650,405.1,4.52,4.52,0,0,1,654.52,409.57Z" transform="translate(-49.87)" style="fill:#fff"/><path d="M656.21,457.68a7.72,7.72,0,1,1-7.77-7.67A7.73,7.73,0,0,1,656.21,457.68Z" transform="translate(-49.87)" style="fill:#fff"/></g></g></svg>