<svg xmlns="http://www.w3.org/2000/svg" xmlns:xlink="http://www.w3.org/1999/xlink" viewBox="0 0 106.75 102.4"><defs><linearGradient id="未命名漸層_11" x1="42.25" y1="58.17" x2="75.11" y2="58.17" gradientUnits="userSpaceOnUse"><stop offset="0" stop-color="#fff"/><stop offset="0.14" stop-color="#fff" stop-opacity="0.86"/><stop offset="0.56" stop-color="#fff" stop-opacity="0.46"/><stop offset="0.86" stop-color="#fff" stop-opacity="0.2"/><stop offset="1" stop-color="#fff" stop-opacity="0.1"/></linearGradient><linearGradient id="未命名漸層_10" x1="83.49" y1="67.27" x2="101.49" y2="84.52" xlink:href="#未命名漸層_11"/><linearGradient id="未命名漸層_9" x1="89.85" y1="87.06" x2="102.37" y2="99.06" gradientUnits="userSpaceOnUse"><stop offset="0" stop-color="#fff"/><stop offset="0.14" stop-color="#fff" stop-opacity="0.87"/><stop offset="0.74" stop-color="#fff" stop-opacity="0.32"/><stop offset="1" stop-color="#fff" stop-opacity="0.1"/></linearGradient></defs><title>ffff</title><g style="isolation:isolate"><g id="item-layer2"><path d="M71.45,72.56,42.93,47.16a2,2,0,0,1-.18-2.83l.33-.37a2,2,0,0,1,2.82-.18L74.43,69.19A2,2,0,0,1,74.61,72l-.33.38A2,2,0,0,1,71.45,72.56Z" style="opacity:0.7000000000000001;fill:url(#未命名漸層_11)"/><path d="M102.38,87.52,73.86,62.12a2,2,0,0,1-.18-2.82l.33-.38a2,2,0,0,1,2.82-.17l28.53,25.4a2,2,0,0,1,.18,2.82l-.33.38A2,2,0,0,1,102.38,87.52Z" style="opacity:0.7000000000000001;fill:url(#未命名漸層_10)"/><path d="M102,101.33l-18.78-17a2,2,0,0,1-.17-2.83l.33-.37a2,2,0,0,1,2.82-.18L105,98a2,2,0,0,1,.17,2.82l-.33.38A2,2,0,0,1,102,101.33Z" style="opacity:0.7000000000000001;fill:url(#未命名漸層_9)"/><polygon points="40.71 62.85 45.37 51.75 34.26 42.58 31.4 59.49 40.71 62.85" style="fill:#fff"/><rect x="7.35" y="1.87" width="0.95" height="10.66" transform="translate(-2.76 8.21) rotate(-48.09)" style="fill:#a73935"/><path d="M53.43,63c.74.66,4.65-2.47,8.72-7l-1.34-1.21Z" style="fill:#ef4f4d"/><path d="M7.83,7.2,53.62,48.3l-6.32,7S36.23,54.1,24.37,43.45,5.84,9.42,7.83,7.2Z" style="fill:#fff"/><path d="M10.15,20.15a20,20,0,0,0,6.64-4.9l-9-8C6.92,8.21,7.81,13.58,10.15,20.15Z" style="fill:#f8ab1f"/><polygon points="51.72 69 49.34 65.55 31.4 59.49 30.64 63.47 51.72 69" style="fill:#ef4f4d"/><path d="M27.89,25.21a7.73,7.73,0,0,0,11.5,10.32Z" style="opacity:0.2;mix-blend-mode:multiply"/><path d="M43,38.75,33,49.84a44.81,44.81,0,0,0,11.06,4.8l7.41-8.25Z" style="fill:#ef4f4d"/><path d="M28.5,25.75A6.91,6.91,0,0,0,29,35.51l4.61-5.14Z" style="fill:#57a6ff"/><path d="M29,35.51A6.9,6.9,0,0,0,38.78,35l-5.14-4.61Z" style="fill:#3469d3"/><path d="M19.57,17.74A5,5,0,1,0,27,24.36Z" style="opacity:0.2;mix-blend-mode:multiply"/><path d="M20.22,18.32a4.08,4.08,0,0,0,.31,5.77l2.73-3Z" style="fill:#57a6ff"/><path d="M20.53,24.09a4.08,4.08,0,0,0,5.77-.31l-3-2.73Z" style="fill:#3469d3"/><rect x="47.28" y="51.12" width="9.46" height="4.17" transform="translate(-22.33 56.37) rotate(-48.09)" style="fill:#f8ab1f"/><polygon points="53.41 63.02 60.82 54.76 56.72 51.08 50.41 58.12 53.41 63.02" style="fill:#fff"/><path d="M40.61,46.19a1.72,1.72,0,1,1-2.43.13A1.73,1.73,0,0,1,40.61,46.19Z" style="fill:#fff"/><path d="M46.87,45.64a2.58,2.58,0,1,1-3.64.2A2.58,2.58,0,0,1,46.87,45.64Z" style="fill:#fff"/><polygon points="66.69 33.9 56.17 39.72 45.85 29.66 62.36 25 66.69 33.9" style="fill:#c5c5c5"/><path d="M68.18,46.53c.75.67-2,4.89-6,9.43l-1.34-1.21Z" style="fill:#a73935"/><path d="M7.83,7.2,53.62,48.3l6.31-7S57.51,30.38,45.65,19.74,9.82,5,7.83,7.2Z" style="fill:#c5c5c5"/><path d="M21,8.11a19.81,19.81,0,0,1-4.16,7.14l-9-8C8.73,6.19,14.17,6.49,21,8.11Z" style="fill:#ff6a1d"/><polygon points="74 44.18 70.31 42.18 62.36 25 66.23 23.81 74 44.18" style="fill:#a73935"/><path d="M27.89,25.21a7.73,7.73,0,1,1,11.5,10.32Z" style="opacity:0.2;mix-blend-mode:multiply"/><path d="M43,38.75l10-11.09a45.22,45.22,0,0,1,6,10.48l-7.4,8.25Z" style="fill:#a73935"/><path d="M28.5,25.75a6.92,6.92,0,0,1,9.76-.52l-4.62,5.14Z" style="fill:#3469d3"/><path d="M38.26,25.23A6.9,6.9,0,0,1,38.78,35l-5.14-4.61Z" style="fill:#2a508c"/><path d="M19.57,17.74A5,5,0,0,1,27,24.36Z" style="opacity:0.2;mix-blend-mode:multiply"/><path d="M20.22,18.32A4.08,4.08,0,0,1,26,18l-2.73,3Z" style="fill:#3469d3"/><path d="M26,18a4.08,4.08,0,0,1,.31,5.77l-3-2.73Z" style="fill:#2a508c"/><rect x="53.6" y="44.08" width="9.46" height="4.17" transform="translate(-14.99 58.74) rotate(-48.09)" style="fill:#ff6a1d"/><polygon points="68.23 46.5 60.82 54.76 56.72 51.08 63.04 44.05 68.23 46.5" style="fill:#c5c5c5"/><path d="M4.14.67A2.39,2.39,0,1,1,.76.86,2.4,2.4,0,0,1,4.14.67Z" style="fill:#f8ab1f"/><path d="M2.54,1.82A.93.93,0,1,1,1.29,3.21.93.93,0,1,1,2.54,1.82Z" style="fill:#fff"/><path d="M23,20.17a1.26,1.26,0,1,1-1.77.1A1.26,1.26,0,0,1,23,20.17Z" style="fill:#fff"/><path d="M33.25,28.86a2.16,2.16,0,1,1-2.88,3.21,2.16,2.16,0,0,1,2.88-3.21Z" style="fill:#fff"/></g></g></svg>