<svg id="圖層_1" data-name="圖層 1" xmlns="http://www.w3.org/2000/svg" viewBox="0 0 35 24"><defs><style>.cls-1{fill:#937bd6;}.cls-2{opacity:0.2;}.cls-3{fill:none;}</style></defs><title>rock</title><path class="cls-1" d="M27.22,13.33S20.89,13,19.56,15s1.66,7.33,1.66,7.33a15.85,15.85,0,0,0,5,.33c3.3-.48,7.67-2.66,7.34-4S27.22,13.33,27.22,13.33Z"/><path class="cls-2" d="M21.56,19.31l-.34,3a15.59,15.59,0,0,0,5,.35c3.3-.48,7.67-2.66,7.34-4-.14-.52-3.43.23-6-.25C25.24,18,21.56,19.31,21.56,19.31Z"/><path class="cls-1" d="M9.48,20.56s1.14-.31,1.29-.11,1.05,1,.63,1.31-1.66,1.5-2,1.26-1.22-.67-1.12-1A11,11,0,0,1,9.48,20.56Z"/><path class="cls-1" d="M19.14,8.51s-.2.53-.36.56-.94.27-1,0-.32-.94-.05-1.06.8-.4.93-.3A3.53,3.53,0,0,1,19.14,8.51Z"/><path class="cls-1" d="M4.43,14.71s-.19.42-.33.45-.84.23-.87.05-.27-.74,0-.84S3.91,14,4,14.1A2.83,2.83,0,0,1,4.43,14.71Z"/><path class="cls-1" d="M12.29,8.11s-.13.29-.24.31-.6.16-.62,0-.19-.51,0-.58.52-.23.6-.18S12.29,8.11,12.29,8.11Z"/><rect id="_切片_" data-name="&lt;切片&gt;" class="cls-3" x="2" y="2" width="33" height="22"/></svg>