<svg xmlns="http://www.w3.org/2000/svg" xmlns:xlink="http://www.w3.org/1999/xlink" viewBox="0 0 187.04 153.91"><defs><linearGradient id="未命名漸層_15" x1="48.48" y1="31.35" x2="138.49" y2="122.36" gradientUnits="userSpaceOnUse"><stop offset="0" stop-color="#fff"/><stop offset="1" stop-color="#562d9f"/></linearGradient><linearGradient id="linear-gradient" x1="-1210.45" y1="-610.31" x2="-1234.95" y2="-552.69" gradientTransform="translate(259.15 1376.85) rotate(55.91)" gradientUnits="userSpaceOnUse"><stop offset="0" stop-color="#edf1e2"/><stop offset="1" stop-color="#6a3983"/></linearGradient><linearGradient id="linear-gradient-2" x1="-833.54" y1="-807.58" x2="-858.03" y2="-749.96" gradientTransform="matrix(0.75, 0.67, -0.58, 0.64, 239.16, 1112.34)" xlink:href="#linear-gradient"/><linearGradient id="linear-gradient-3" x1="688.18" y1="1339.19" x2="621.13" y2="1297.27" gradientTransform="matrix(0.53, -0.6, 0.75, 0.67, -1260.01, -375.44)" gradientUnits="userSpaceOnUse"><stop offset="0" stop-color="#3b2757"/><stop offset="1" stop-color="#7c5890"/></linearGradient><linearGradient id="linear-gradient-4" x1="108.89" y1="141.6" x2="41.84" y2="99.68" gradientTransform="matrix(1, 0, 0, 1, 0, 0)" xlink:href="#linear-gradient-3"/><linearGradient id="linear-gradient-5" x1="-525.3" y1="-374.66" x2="-592.35" y2="-416.58" gradientTransform="matrix(0.85, 0.53, -0.53, 0.85, 334.38, 759.08)" xlink:href="#linear-gradient-3"/><linearGradient id="linear-gradient-6" x1="113.61" y1="134.05" x2="46.56" y2="92.13" gradientTransform="matrix(1, 0, 0, 1, 0, 0)" xlink:href="#linear-gradient-3"/><linearGradient id="linear-gradient-7" x1="52.5" y1="52.68" x2="45.57" y2="110.09" gradientUnits="userSpaceOnUse"><stop offset="0" stop-color="#fff"/><stop offset="1" stop-color="#6a3983"/></linearGradient><linearGradient id="linear-gradient-8" x1="-125.45" y1="-126.15" x2="-192.5" y2="-168.07" gradientTransform="translate(194.34 302.05) rotate(13.67)" xlink:href="#linear-gradient-3"/><linearGradient id="linear-gradient-9" x1="-1149.14" y1="2484.7" x2="-1123.55" y2="2456.44" gradientTransform="matrix(-0.63, -0.97, 0.84, -0.55, -2670.82, 375.47)" gradientUnits="userSpaceOnUse"><stop offset="0" stop-color="#3b2757"/><stop offset="1" stop-color="#6a3983"/></linearGradient><linearGradient id="linear-gradient-10" x1="-1142.3" y1="2490.9" x2="-1116.71" y2="2462.64" xlink:href="#linear-gradient-9"/><linearGradient id="linear-gradient-11" x1="-1153.25" y1="2480.99" x2="-1127.65" y2="2452.73" xlink:href="#linear-gradient-9"/><linearGradient id="linear-gradient-12" x1="-1147.79" y1="2485.93" x2="-1122.2" y2="2457.66" xlink:href="#linear-gradient-9"/><linearGradient id="linear-gradient-13" x1="76.34" y1="56.57" x2="141.45" y2="34.8" gradientUnits="userSpaceOnUse"><stop offset="0" stop-color="#ac90a2"/><stop offset="1" stop-color="#562e88"/></linearGradient><linearGradient id="linear-gradient-14" x1="-181.66" y1="-82.59" x2="-155.4" y2="-65.09" gradientTransform="matrix(0.98, 0.19, -0.19, 0.98, 163.22, 244.64)" xlink:href="#linear-gradient-7"/><linearGradient id="linear-gradient-15" x1="113.8" y1="6.86" x2="180.37" y2="51.24" gradientTransform="translate(141.21 -117.68) rotate(80.75)" xlink:href="#linear-gradient-7"/><linearGradient id="linear-gradient-16" x1="120.14" y1="1.57" x2="172.63" y2="61.96" gradientUnits="userSpaceOnUse"><stop offset="0" stop-color="#fff"/><stop offset="0.9" stop-color="#542670"/></linearGradient><linearGradient id="linear-gradient-17" x1="-33.63" y1="-94.77" x2="383.3" y2="189.37" gradientTransform="translate(78.77 103.95) rotate(5.03)" xlink:href="#linear-gradient-3"/><linearGradient id="linear-gradient-18" x1="11.9" y1="-59.92" x2="268.79" y2="115.15" gradientTransform="translate(78.77 103.95) rotate(5.03)" xlink:href="#linear-gradient-3"/><linearGradient id="linear-gradient-19" x1="5.77" y1="-46.15" x2="210.94" y2="93.69" gradientTransform="translate(78.77 103.95) rotate(5.03)" xlink:href="#linear-gradient-3"/><linearGradient id="linear-gradient-20" x1="13.4" y1="-54.87" x2="193.15" y2="67.64" gradientTransform="translate(78.77 103.95) rotate(5.03)" xlink:href="#linear-gradient-3"/><linearGradient id="linear-gradient-21" x1="22.98" y1="-38.57" x2="207.67" y2="87.3" gradientTransform="translate(78.77 103.95) rotate(5.03)" xlink:href="#linear-gradient-3"/><linearGradient id="linear-gradient-22" x1="36.25" y1="-63" x2="178.56" y2="33.99" gradientTransform="translate(78.77 103.95) rotate(5.03)" xlink:href="#linear-gradient-3"/><linearGradient id="linear-gradient-23" x1="7.9" y1="-21.61" x2="395.64" y2="242.65" xlink:href="#linear-gradient-7"/><linearGradient id="linear-gradient-24" x1="66.29" y1="52.55" x2="111.72" y2="46.48" gradientTransform="matrix(1, 0, 0, 1, 0, 0)" xlink:href="#linear-gradient"/><linearGradient id="linear-gradient-25" x1="37.25" y1="53.03" x2="110.1" y2="18.28" gradientTransform="matrix(1, 0, 0, 1, 0, 0)" xlink:href="#linear-gradient"/><linearGradient id="linear-gradient-26" x1="34.79" y1="9.81" x2="269.87" y2="170.02" xlink:href="#linear-gradient-7"/><linearGradient id="linear-gradient-27" x1="40.29" y1="32.92" x2="275.12" y2="192.96" xlink:href="#linear-gradient-7"/><linearGradient id="linear-gradient-28" x1="86.88" y1="68.2" x2="132.12" y2="105.52" xlink:href="#linear-gradient-7"/><linearGradient id="linear-gradient-29" x1="117.82" y1="80.39" x2="91" y2="63.91" gradientTransform="matrix(1, 0, 0, 1, 0, 0)" xlink:href="#linear-gradient-3"/><linearGradient id="linear-gradient-30" x1="71.06" y1="87.36" x2="116.31" y2="124.69" xlink:href="#linear-gradient-7"/><linearGradient id="linear-gradient-31" x1="102.99" y1="73.75" x2="190.17" y2="133.17" xlink:href="#linear-gradient-7"/><linearGradient id="linear-gradient-32" x1="25.28" y1="27.12" x2="426.78" y2="300.74" xlink:href="#linear-gradient-7"/><linearGradient id="linear-gradient-33" x1="41.62" y1="34.92" x2="271.72" y2="191.74" xlink:href="#linear-gradient-7"/><linearGradient id="linear-gradient-34" x1="-839.11" y1="2253.62" x2="-609.02" y2="2410.42" gradientTransform="translate(-2402.31 97.61) rotate(-106.83)" xlink:href="#linear-gradient"/><linearGradient id="linear-gradient-35" x1="-2866.98" y1="2029.57" x2="-2648.15" y2="2178.71" gradientTransform="matrix(-0.61, -0.13, 0.2, -0.98, -2065.01, 1719.81)" xlink:href="#linear-gradient-7"/><linearGradient id="linear-gradient-36" x1="-2880.7" y1="3157.18" x2="-2661.87" y2="3306.31" gradientTransform="matrix(-0.61, -0.13, 0.1, -0.49, -1966.91, 1253.82)" xlink:href="#linear-gradient-7"/><linearGradient id="linear-gradient-37" x1="53.71" y1="-6.46" x2="386.68" y2="220.46" xlink:href="#linear-gradient-7"/><linearGradient id="linear-gradient-38" x1="113.43" y1="87.54" x2="86.61" y2="71.06" gradientTransform="matrix(1, 0, 0, 1, 0, 0)" xlink:href="#linear-gradient-3"/><linearGradient id="linear-gradient-39" x1="-3264.98" y1="2660.06" x2="-3046.14" y2="2809.2" gradientTransform="matrix(-0.62, 0.01, 0, -0.5, -1882.08, 1420.42)" xlink:href="#linear-gradient-7"/><linearGradient id="linear-gradient-40" x1="77.26" y1="79.85" x2="122.51" y2="117.18" xlink:href="#linear-gradient-7"/><linearGradient id="linear-gradient-41" x1="44.37" y1="53.77" x2="67.19" y2="98.99" gradientTransform="matrix(1, 0, 0, 1, 0, 0)" xlink:href="#linear-gradient"/><linearGradient id="linear-gradient-42" x1="90.57" y1="117.21" x2="143.02" y2="91.23" xlink:href="#linear-gradient-7"/><linearGradient id="linear-gradient-43" x1="72.84" y1="139.09" x2="101.76" y2="124.77" xlink:href="#linear-gradient-7"/><linearGradient id="linear-gradient-44" x1="-555.21" y1="2365.44" x2="-519.38" y2="2347.69" gradientTransform="matrix(-0.11, -0.9, 0.94, -0.22, -2148.55, 106.27)" xlink:href="#linear-gradient-7"/><linearGradient id="linear-gradient-45" x1="265.94" y1="1216.63" x2="486.15" y2="1366.7" gradientTransform="matrix(0.69, -0.72, 0.72, 0.69, -1045.27, -544.2)" xlink:href="#linear-gradient-7"/><linearGradient id="linear-gradient-46" x1="127.17" y1="267.11" x2="307.73" y2="390.16" gradientTransform="translate(-167.41 -174.24) rotate(-9.22)" xlink:href="#linear-gradient-7"/><linearGradient id="linear-gradient-47" x1="167.97" y1="60.14" x2="181.17" y2="68.94" xlink:href="#linear-gradient-7"/><linearGradient id="linear-gradient-48" x1="178.16" y1="76.89" x2="182.28" y2="79.64" xlink:href="#linear-gradient-7"/><linearGradient id="linear-gradient-49" x1="183.97" y1="66.69" x2="186.49" y2="68.37" xlink:href="#linear-gradient-7"/><linearGradient id="linear-gradient-50" x1="167.74" y1="74.95" x2="170.26" y2="76.63" xlink:href="#linear-gradient-7"/><linearGradient id="linear-gradient-51" x1="165.39" y1="46.07" x2="167.92" y2="47.75" xlink:href="#linear-gradient-7"/><linearGradient id="linear-gradient-52" x1="-713.66" y1="-531.21" x2="-482.71" y2="-470.44" gradientTransform="matrix(0.7, 0.54, -0.61, 0.79, 216.49, 810.09)" gradientUnits="userSpaceOnUse"><stop offset="0" stop-color="#fff"/><stop offset="1" stop-color="#562d83"/></linearGradient></defs><title>deco-planet2</title><g id="_1-kv-planet" data-name="1-kv-planet"><path d="M156.08,79.75A59.73,59.73,0,1,1,96.34,20a58.94,58.94,0,0,1,13.89,1.63,59.72,59.72,0,0,1,45.85,58.11Z" style="fill:url(#未命名漸層_15)"/><path d="M54.26,65.25c-1.18,2-2.82,3.12-3.67,2.61s-.57-2.51.61-4.46,2.82-3.12,3.67-2.61S55.44,63.3,54.26,65.25Z" style="fill:#fff;opacity:0.81"/><path d="M61.9,38.8c-1.89,1.28-3.87,1.65-4.42.84s.52-2.52,2.41-3.8,3.87-1.65,4.43-.83S63.79,37.52,61.9,38.8Z" style="fill:url(#linear-gradient)"/><path d="M62.63,46.46c-.85.95-1.92,1.37-2.4.94s-.17-1.53.68-2.48,1.92-1.37,2.39-.94S63.47,45.51,62.63,46.46Z" style="fill:url(#linear-gradient-2)"/><path d="M61.06,112.07c3.72,3.33,5.46,7.45,3.88,9.21s-5.86.49-9.58-2.84-5.45-7.44-3.88-9.2S57.35,108.75,61.06,112.07Z" style="fill:url(#linear-gradient-3)"/><path d="M84.92,123.38c0,1.38-2.32,2.51-5.18,2.51s-5.18-1.13-5.18-2.51,2.32-2.52,5.18-2.52S84.92,122,84.92,123.38Z" style="fill:url(#linear-gradient-4)"/><path d="M71.38,129.08c-.53.85-2.24.74-3.82-.25s-2.44-2.47-1.91-3.31,2.23-.74,3.82.25S71.91,128.24,71.38,129.08Z" style="fill:url(#linear-gradient-5)"/><path d="M85.7,114.74c0,1-1.33,1.88-3,1.88s-3-.84-3-1.88,1.33-1.88,3-1.88S85.7,113.7,85.7,114.74Z" style="fill:url(#linear-gradient-6)"/><path d="M55.36,52.34c-2,3.34-4.85,5.35-6.28,4.47s-1-4.3,1-7.64,4.82-5.35,6.28-4.47a.06.06,0,0,1,0,0C57.82,45.68,57.34,49.05,55.36,52.34Z" style="fill:url(#linear-gradient-7)"/><path d="M74.45,118.59c-.23,1-2,1.36-4,.89s-3.36-1.65-3.12-2.62,2-1.37,4-.89S74.69,117.62,74.45,118.59Z" style="fill:url(#linear-gradient-8)"/><path d="M127.23,121.09c4.34-2.84,8.56-4.06,9.44-2.71s-1.92,4.73-6.25,7.57-8.56,4.06-9.44,2.71S122.9,123.93,127.23,121.09Z" style="fill:url(#linear-gradient-9)"/><path d="M128.42,112.05c2.75-1.8,5.38-2.64,5.87-1.89s-1.33,2.83-4.08,4.63-5.37,2.65-5.87,1.89S125.67,113.86,128.42,112.05Z" style="fill:url(#linear-gradient-10)"/><path d="M114.57,125.05c1.78-1.17,3.66-1.43,4.22-.59s-.45,2.46-2.23,3.62-3.66,1.43-4.21.59S112.8,126.21,114.57,125.05Z" style="fill:url(#linear-gradient-11)"/><path d="M114.1,116.66c1.94-1.27,4-1.55,4.61-.63s-.48,2.7-2.42,4-4,1.55-4.61.63S112.16,117.94,114.1,116.66Z" style="fill:url(#linear-gradient-12)"/><path d="M150.5,54.52A28.94,28.94,0,0,1,135,58.92c-15.3,0-27.73-11.53-27.73-25.75a24,24,0,0,1,2.94-11.53A59.71,59.71,0,0,1,150.5,54.52Z" style="opacity:0.25;fill:url(#linear-gradient-13)"/><path d="M18.91,139.24A9.54,9.54,0,1,1,11.37,128,9.55,9.55,0,0,1,18.91,139.24Z" style="fill:url(#linear-gradient-14)"/><circle cx="139.81" cy="24.2" r="24.2" transform="translate(93.45 158.3) rotate(-80.75)" style="fill:url(#linear-gradient-15)"/><path d="M145.87.8c11.81,10.56,7.51,35.56-12.94,35.56-8.6,0-14.33-4.44-17.23-10.36A24.19,24.19,0,1,0,145.87.8Z" style="fill:url(#linear-gradient-16)"/><path d="M127.22,15.8c-1.92,3.61-5,5.75-6.76,4.79s-1.72-4.67.2-8.28,4.94-5.76,6.75-4.79S129.14,12.19,127.22,15.8Z" style="fill:#fff;opacity:0.81"/><path d="M133.8,9.16c-.82.84-1.91,1.11-2.44.6s-.28-1.61.54-2.45,1.91-1.12,2.44-.61S134.62,8.31,133.8,9.16Z" style="fill:#fff;opacity:0.81"/><path d="M125.79,26.13c-.07,2-1,3.66-2,3.63S122,28,122.08,26s1-3.67,2-3.63S125.87,24.08,125.79,26.13Z" style="fill:#fff;opacity:0.81"/><path d="M145.77,79.63c-.49,5.51-2.37,9.84-4.21,9.68S138.62,84.55,139.1,79s2.37-9.85,4.21-9.69S146.25,74.11,145.77,79.63Z" style="fill:url(#linear-gradient-17)"/><path d="M152.82,90.3c-.3,3.34-1.52,6-2.73,5.86s-2-2.9-1.65-6.24,1.51-6,2.72-5.86S153.11,87,152.82,90.3Z" style="fill:url(#linear-gradient-18)"/><path d="M130.37,94.11c-.22,2.59.45,4.77,1.51,4.86S134,97,134.2,94.45s-.44-4.77-1.5-4.87S130.6,91.52,130.37,94.11Z" style="fill:url(#linear-gradient-19)"/><path d="M137.07,82c-.19,2.19-1.17,3.89-2.18,3.8s-1.68-1.93-1.49-4.12,1.17-3.89,2.18-3.8S137.26,79.79,137.07,82Z" style="fill:url(#linear-gradient-20)"/><path d="M146.3,99.92c-.2,2.25-1.21,4-2.25,3.9s-1.74-2-1.54-4.23,1.21-4,2.25-3.9S146.49,97.68,146.3,99.92Z" style="fill:url(#linear-gradient-21)"/><path d="M152.45,69.34c-.14,1.57-1,2.77-2,2.68s-1.61-1.42-1.47-3,1-2.77,2-2.68S152.59,67.78,152.45,69.34Z" style="fill:url(#linear-gradient-22)"/><ellipse cx="96.15" cy="38.54" rx="6.8" ry="2.83" style="fill:url(#linear-gradient-23)"/><path d="M108.81,47.62c0,1.5-2.53,2.71-5.65,2.71s-5.65-1.21-5.65-2.71,2.53-2.7,5.65-2.7S108.81,46.13,108.81,47.62Z" style="fill:url(#linear-gradient-24)"/><path d="M87.72,31c.34,1.59-3,3.66-7.36,4.61s-8.26.44-8.6-1.15,2.95-3.66,7.35-4.61S87.37,29.44,87.72,31Z" style="fill:url(#linear-gradient-25)"/><path d="M92.48,46.27c0,.75-1.87,1.35-4.18,1.35s-4.19-.6-4.19-1.35S86,44.92,88.3,44.92,92.48,45.53,92.48,46.27Z" style="fill:url(#linear-gradient-26)"/><path d="M97.66,69.35c0,1.38-1.75,2.51-3.92,2.51s-3.93-1.13-3.93-2.51,1.76-2.52,3.93-2.52S97.66,68,97.66,69.35Z" style="fill:url(#linear-gradient-27)"/><path d="M111.51,85.51c0,1-1.63,1.76-3.65,1.76s-3.65-.79-3.65-1.76,1.63-1.76,3.65-1.76S111.51,84.54,111.51,85.51Z" style="fill:url(#linear-gradient-28)"/><ellipse cx="104.21" cy="72.03" rx="2.72" ry="1.31" style="fill:url(#linear-gradient-29)"/><path d="M93.74,103.83c0,.72-1.22,1.3-2.72,1.3s-2.72-.58-2.72-1.3,1.21-1.31,2.72-1.31S93.74,103.1,93.74,103.83Z" style="fill:url(#linear-gradient-30)"/><path d="M124,88c-.78,1.29-1.91,2-2.52,1.65a.48.48,0,0,1-.11-.08c-.48-.51-.34-1.74.39-2.92s1.91-2,2.52-1.65S124.71,86.66,124,88Z" style="fill:url(#linear-gradient-31)"/><ellipse cx="79.74" cy="64.23" rx="6.91" ry="3.56" style="fill:url(#linear-gradient-32)"/><path d="M76.79,56.19c0,1.13-1.77,2-4,2s-4-.91-4-2,1.77-2,4-2S76.79,55.07,76.79,56.19Z" style="fill:url(#linear-gradient-33)"/><path d="M49.76,75.54c1.08-.32,2.46,1.11,3.1,3.2s.27,4.06-.81,4.38S49.59,82,49,79.92,48.68,75.87,49.76,75.54Z" style="fill:url(#linear-gradient-34)"/><path d="M77.78,74.17a2.38,2.38,0,1,1,1.9,2.38A2.18,2.18,0,0,1,77.78,74.17Z" style="fill:url(#linear-gradient-35)"/><path d="M89.9,61.26c.11-.53,1.23-.74,2.49-.47s2.2.9,2.09,1.43-1.22.73-2.49.47S89.79,61.78,89.9,61.26Z" style="fill:url(#linear-gradient-36)"/><path d="M104.63,24.43v.05l0,.22c-.33,1.21-2.81,2.09-5.8,2-3.17-.07-5.71-1.23-5.71-2.51v0c0-1.34,2.67-2.34,5.83-2.24S104.63,23.12,104.63,24.43Z" style="fill:url(#linear-gradient-37)"/><path d="M95.33,77.88c0-.54,1-1,2.33-1s2.34.41,2.34,1-1,1-2.33,1S95.33,78.41,95.33,77.88Z" style="fill:url(#linear-gradient-38)"/><path d="M113.23,62.82c0-.53,1-1,2.33-1s2.34.42,2.35,1-1,1-2.33,1S113.23,63.36,113.23,62.82Z" style="fill:url(#linear-gradient-39)"/><path d="M103,97.67c0,1.1-1.83,2-4.08,2s-4.08-.89-4.08-2,1.82-2,4.08-2S103,96.58,103,97.67Z" style="fill:url(#linear-gradient-40)"/><path d="M66.37,89.42c2.59,3.18,3.41,6.8,1.84,8.07s-4.94-.27-7.53-3.46-3.41-6.8-1.84-8.08S63.78,86.23,66.37,89.42Z" style="fill:url(#linear-gradient-41)"/><path d="M115.73,100.67c3.54-2.08,7.24-2.36,8.27-.62s-1,4.84-4.54,6.93-7.24,2.36-8.27.62S112.2,102.76,115.73,100.67Z" style="opacity:0.7000000000000001;fill:url(#linear-gradient-42)"/><path d="M92.2,131.85v0c-.06,1.38-2.08,2.42-4.55,2.33s-4.34-1.23-4.34-2.58v-.05c0-1.38,2.07-2.44,4.51-2.36S92.2,130.47,92.2,131.85Z" style="opacity:0.7000000000000001;fill:url(#linear-gradient-43)"/><path d="M130.39,69.61c-1.6-1.87-2-4.11-1-5s3.2-.11,4.8,1.75,2.05,4.11,1,5S132,71.48,130.39,69.61Z" style="opacity:0.7000000000000001;fill:url(#linear-gradient-44)"/><path d="M77.41,92.54c1.87,1.8,2.65,4,1.72,5s-3.19.28-5.07-1.52-2.65-4-1.72-5S75.53,90.73,77.41,92.54Z" style="fill:url(#linear-gradient-45)"/><path d="M48.16,89.75c.31,1.94-.41,3.68-1.63,3.87s-2.45-1.21-2.77-3.15.42-3.68,1.63-3.87S47.84,87.81,48.16,89.75Z" style="fill:url(#linear-gradient-46)"/><path d="M177.92,63.58a4.8,4.8,0,1,1-4.79-4.8A4.79,4.79,0,0,1,177.92,63.58Z" style="fill:url(#linear-gradient-47)"/><path d="M181.27,78a1.5,1.5,0,1,1-1.5-1.5A1.5,1.5,0,0,1,181.27,78Z" style="fill:url(#linear-gradient-48)"/><path d="M185.87,67.35a.92.92,0,1,1-.91-.92A.91.91,0,0,1,185.87,67.35Z" style="fill:url(#linear-gradient-49)"/><path d="M169.64,75.6a.92.92,0,1,1-.91-.91A.92.92,0,0,1,169.64,75.6Z" style="fill:url(#linear-gradient-50)"/><path d="M167.3,46.72a.92.92,0,1,1-.92-.91A.92.92,0,0,1,167.3,46.72Z" style="fill:url(#linear-gradient-51)"/><path d="M165.35,125.3c-5.4-5.11-10.59-9.81-17.31-15.61l-.73,1.22c6.66,5.76,11.72,10.33,17.08,15.4,23.06,21.83,21.41,25.48,21.14,25.83a1.65,1.65,0,0,1-1.23.36c-9.4,0-50.1-25.78-94.69-60C37.05,52.23,4,19.52,7.16,15.36A1.66,1.66,0,0,1,8.4,15C14.13,15,30,23.57,52.82,38.84l1-1C30.48,22.17,14.47,13.6,8.4,13.6a2.77,2.77,0,0,0-2.35.91C1.12,20.94,45,60.08,88.76,93.65c45.53,34.91,85.71,60.26,95.54,60.26a2.8,2.8,0,0,0,2.35-.92C188.87,150.09,181.71,140.77,165.35,125.3Z" style="fill:url(#linear-gradient-52)"/></g></svg>