<?xml version="1.0" encoding="utf-8"?>
<!-- Generator: Adobe Illustrator 22.1.0, SVG Export Plug-In . SVG Version: 6.00 Build 0)  -->
<svg version="1.1" id="star" xmlns="http://www.w3.org/2000/svg" xmlns:xlink="http://www.w3.org/1999/xlink" x="0px" y="0px"
	 width="613.1px" height="600.1px" viewBox="0 0 613.1 600.1" style="enable-background:new 0 0 613.1 600.1;" xml:space="preserve"
	>
<style type="text/css">
	.st0{fill:#FFFFFF;}
</style>
<title>star1</title>
<path class="st0" d="M478.1,473.6c0,0.5-0.4,0.9-0.9,0.9s-0.9-0.4-0.9-0.9c0-0.5,0.4-0.9,0.9-0.9c0,0,0,0,0,0
	C477.7,472.7,478.1,473.1,478.1,473.6z"/>
<path class="st0" d="M414.7,461.9c0,0.5-0.4,0.9-0.9,0.9s-0.9-0.4-0.9-0.9s0.4-0.9,0.9-0.9l0,0C414.3,461,414.7,461.4,414.7,461.9z"
	/>
<path class="st0" d="M16.4,79.3c0,0.7-0.6,1.3-1.3,1.3c-0.7,0-1.3-0.6-1.3-1.3c0-0.7,0.6-1.3,1.3-1.3C15.9,78,16.4,78.6,16.4,79.3
	C16.4,79.3,16.4,79.3,16.4,79.3z"/>
<path class="st0" d="M242.7,146.1c0,0.6-0.5,1.1-1.1,1.1c-0.6,0-1.1-0.5-1.1-1.1c0-0.6,0.5-1.1,1.1-1.1l0,0
	C242.2,145,242.7,145.5,242.7,146.1z"/>
<path class="st0" d="M185.8,232.8c0,0.5-0.4,0.9-0.9,0.9s-0.9-0.4-0.9-0.9c0-0.5,0.4-0.9,0.9-0.9c0,0,0,0,0,0
	C185.3,231.8,185.8,232.2,185.8,232.8C185.8,232.7,185.8,232.7,185.8,232.8z"/>
<path class="st0" d="M74.7,396.6c0.1,0.5-0.3,0.9-0.8,1s-0.9-0.3-1-0.8c0-0.1,0-0.1,0-0.2c0.1-0.5,0.5-0.9,1-0.8
	C74.3,395.8,74.7,396.2,74.7,396.6z"/>
<path class="st0" d="M137.6,492.9c0.1,0.5-0.3,0.9-0.8,1s-0.9-0.3-1-0.8c0-0.1,0-0.1,0-0.2c0.1-0.5,0.5-0.9,1-0.8
	C137.2,492.1,137.6,492.4,137.6,492.9z"/>
<path class="st0" d="M264.5,287.2c-0.1,0.5-0.5,0.9-1,0.8c-0.4,0-0.8-0.4-0.8-0.8c-0.1-0.5,0.3-0.9,0.8-1s0.9,0.3,1,0.8
	C264.5,287,264.5,287.1,264.5,287.2z"/>
<path class="st0" d="M291.9,214c0.1,0.5-0.3,0.9-0.8,1c-0.5,0.1-0.9-0.3-1-0.8c0-0.1,0-0.1,0-0.2c0.1-0.5,0.5-0.9,1-0.8
	C291.5,213.2,291.8,213.6,291.9,214z"/>
<path class="st0" d="M261.2,225.6c0.1,0.5-0.3,0.9-0.8,1c-0.5,0.1-0.9-0.3-1-0.8c0-0.1,0-0.1,0-0.2c0.1-0.5,0.5-0.9,1-0.8
	C260.8,224.8,261.1,225.2,261.2,225.6z"/>
<path class="st0" d="M240.7,500.9c0.1,0.5-0.3,0.9-0.8,1s-0.9-0.3-1-0.8c0-0.1,0-0.1,0-0.2c0.1-0.5,0.5-0.9,1-0.8
	C240.3,500.1,240.7,500.5,240.7,500.9z"/>
<path class="st0" d="M381.9,503.3c0,0.5-0.4,0.9-0.9,0.9s-0.9-0.4-0.9-0.9c0-0.5,0.4-0.9,0.9-0.9
	C381.5,502.3,381.9,502.7,381.9,503.3C381.9,503.2,381.9,503.3,381.9,503.3z"/>
<path class="st0" d="M415.7,413.1c0,0.5-0.4,0.9-0.9,0.9s-0.9-0.4-0.9-0.9c0-0.5,0.4-0.9,0.9-0.9c0,0,0,0,0,0
	C415.3,412.2,415.7,412.6,415.7,413.1z"/>
<path class="st0" d="M119.6,160.4c0,0.8-0.7,1.5-1.5,1.5s-1.5-0.7-1.5-1.5c0-0.8,0.7-1.5,1.5-1.5c0,0,0,0,0,0
	C118.9,158.9,119.6,159.6,119.6,160.4z"/>
<path class="st0" d="M121.3,1.8c0,1-0.8,1.8-1.8,1.8c-1,0-1.8-0.8-1.8-1.8s0.8-1.8,1.8-1.8c0,0,0,0,0,0C120.5,0,121.3,0.8,121.3,1.8
	z"/>
<path class="st0" d="M376.7,200.4c0,0.6-0.5,1-1,1c-0.6,0-1-0.5-1-1c0-0.6,0.5-1,1-1l0,0C376.2,199.3,376.7,199.8,376.7,200.4z"/>
<path class="st0" d="M375.2,304c0,0.4-0.3,0.7-0.7,0.7s-0.7-0.3-0.7-0.7s0.3-0.7,0.7-0.7S375.2,303.6,375.2,304L375.2,304z"/>
<path class="st0" d="M31.3,204c0,0.8-0.6,1.4-1.4,1.4c-0.8,0-1.4-0.6-1.4-1.4c0-0.8,0.6-1.4,1.4-1.4c0,0,0,0,0,0
	C30.6,202.6,31.3,203.2,31.3,204z"/>
<path class="st0" d="M269.8,370.4c0,0.4-0.3,0.7-0.7,0.7s-0.7-0.3-0.7-0.7s0.3-0.7,0.7-0.7l0,0C269.5,369.7,269.8,370,269.8,370.4z"
	/>
<path class="st0" d="M277.7,421.3c0,0.5-0.4,0.8-0.8,0.8c-0.5,0-0.8-0.4-0.8-0.8c0-0.5,0.4-0.8,0.8-0.8l0,0
	C277.3,420.5,277.7,420.8,277.7,421.3z"/>
<path class="st0" d="M335,349c0,0.4-0.3,0.8-0.8,0.8c-0.4,0-0.8-0.3-0.8-0.8s0.3-0.8,0.8-0.8c0,0,0,0,0,0
	C334.7,348.2,335,348.6,335,349z"/>
<path class="st0" d="M2.8,391.5c0,0.8-0.6,1.4-1.4,1.4S0,392.3,0,391.5s0.6-1.4,1.4-1.4c0,0,0,0,0,0C2.2,390.1,2.8,390.8,2.8,391.5z
	"/>
<path class="st0" d="M50.7,490.8c0,0.8-0.6,1.4-1.4,1.4s-1.4-0.6-1.4-1.4s0.6-1.4,1.4-1.4l0,0C50.1,489.4,50.7,490.1,50.7,490.8z"/>
<path class="st0" d="M162.3,458.9c0,0.8-0.6,1.4-1.4,1.4s-1.4-0.6-1.4-1.4s0.6-1.4,1.4-1.4l0,0C161.7,457.5,162.3,458.1,162.3,458.9
	z"/>
<path class="st0" d="M348.5,421.8c0,0.7-0.6,1.3-1.3,1.3c-0.7,0-1.3-0.6-1.3-1.3c0-0.7,0.6-1.3,1.3-1.3l0,0
	C347.9,420.5,348.5,421.1,348.5,421.8z"/>
<path class="st0" d="M436,587.9c0,0.5-0.4,0.9-0.9,0.9s-0.9-0.4-0.9-0.9c0-0.5,0.4-0.9,0.9-0.9h0C435.6,587,436,587.4,436,587.9
	C436,587.9,436,587.9,436,587.9z"/>
<path class="st0" d="M322,565c0,0.6-0.5,1.1-1.1,1.1c-0.6,0-1.1-0.5-1.1-1.1s0.5-1.1,1.1-1.1l0,0C321.5,563.9,322,564.4,322,565z"/>
<path class="st0" d="M288.7,599.2c0,0.5-0.4,0.9-0.9,0.9s-0.9-0.4-0.9-0.9c0-0.5,0.4-0.9,0.9-0.9c0,0,0,0,0,0
	C288.3,598.3,288.7,598.7,288.7,599.2L288.7,599.2z"/>
<path class="st0" d="M322.5,509c0,0.5-0.4,0.9-0.9,0.9s-0.9-0.4-0.9-0.9c0-0.5,0.4-0.9,0.9-0.9C322.1,508.1,322.5,508.5,322.5,509
	C322.5,509,322.5,509,322.5,509z"/>
<path class="st0" d="M258.7,537.3c0,0.6-0.5,1.1-1.1,1.1c-0.6,0-1.1-0.5-1.1-1.1c0-0.6,0.5-1.1,1.1-1.1l0,0
	C258.2,536.2,258.7,536.7,258.7,537.3z"/>
<path class="st0" d="M613.1,373.4c0,0.5-0.4,0.9-0.9,0.9c-0.5,0-0.9-0.4-0.9-0.9c0-0.5,0.4-0.9,0.9-0.9l0,0
	C612.7,372.5,613.1,372.9,613.1,373.4C613.1,373.4,613.1,373.4,613.1,373.4z"/>
<path class="st0" d="M574.9,434.1c0,0.5-0.4,0.9-0.9,0.9c-0.5,0-0.9-0.4-0.9-0.9c0-0.5,0.4-0.9,0.9-0.9l0,0
	C574.5,433.2,574.9,433.6,574.9,434.1C574.9,434.1,574.9,434.1,574.9,434.1z"/>
<path class="st0" d="M443,85c0,0.5-0.4,0.9-0.9,0.9c-0.5,0-0.9-0.4-0.9-0.9c0-0.5,0.4-0.9,0.9-0.9l0,0C442.6,84.1,443,84.5,443,85
	C443,85,443,85,443,85z"/>
<path class="st0" d="M52,126c0,0.5-0.4,0.9-0.9,0.9c-0.5,0-0.9-0.4-0.9-0.9c0-0.5,0.4-0.9,0.9-0.9l0,0C51.6,125.1,52,125.5,52,126
	C52,126,52,126,52,126z"/>
<path class="st0" d="M108,108c0,0.5-0.4,0.9-0.9,0.9c-0.5,0-0.9-0.4-0.9-0.9c0-0.5,0.4-0.9,0.9-0.9l0,0
	C107.6,107.1,108,107.5,108,108C108,108,108,108,108,108z"/>
<path class="st0" d="M100.8,258c0,0.5-0.4,0.9-0.9,0.9c-0.5,0-0.9-0.4-0.9-0.9c0-0.5,0.4-0.9,0.9-0.9l0,0
	C100.4,257.1,100.8,257.5,100.8,258C100.8,258,100.8,258,100.8,258z"/>
<path class="st0" d="M579.8,103c0,0.5-0.4,0.9-0.9,0.9c-0.5,0-0.9-0.4-0.9-0.9c0-0.5,0.4-0.9,0.9-0.9l0,0
	C579.4,102.1,579.8,102.5,579.8,103C579.8,103,579.8,103,579.8,103z"/>
<path class="st0" d="M638,182.5c0,0.3-0.3,0.6-0.6,0.6s-0.6-0.3-0.6-0.6c0-0.3,0.3-0.6,0.6-0.6l0,0C637.8,181.9,638,182.1,638,182.5
	C638,182.5,638,182.5,638,182.5z"/>
<path class="st0" d="M660.6,316.6c0,0.3-0.3,0.6-0.6,0.6c-0.3,0-0.6-0.3-0.6-0.6c0-0.3,0.3-0.6,0.6-0.6l0,0
	C660.3,316,660.6,316.2,660.6,316.6C660.6,316.6,660.6,316.6,660.6,316.6z"/>
<path class="st0" d="M651.1,505.5c0,0.3-0.3,0.6-0.6,0.6c-0.3,0-0.6-0.3-0.6-0.6c0-0.3,0.3-0.6,0.6-0.6l0,0
	C650.8,504.9,651.1,505.2,651.1,505.5C651.1,505.5,651.1,505.5,651.1,505.5z"/>
<path class="st0" d="M632.9,53.1c0,0.5-0.4,0.9-0.9,0.9c-0.5,0-0.9-0.4-0.9-0.9c0-0.5,0.4-0.9,0.9-0.9l0,0
	C632.5,52.2,632.9,52.6,632.9,53.1C632.9,53.1,632.9,53.1,632.9,53.1z"/>
<path class="st0" d="M571.9,56.1c0,0.5-0.4,0.9-0.9,0.9c-0.5,0-0.9-0.4-0.9-0.9c0-0.5,0.4-0.9,0.9-0.9l0,0
	C571.5,55.2,571.9,55.6,571.9,56.1C571.9,56.1,571.9,56.1,571.9,56.1z"/>
<path class="st0" d="M620.8,118.1c0,0.4-0.4,0.8-0.8,0.8s-0.8-0.4-0.8-0.8c0-0.4,0.4-0.8,0.8-0.8l0,0
	C620.4,117.3,620.8,117.6,620.8,118.1C620.8,118.1,620.8,118.1,620.8,118.1z"/>
<path class="st0" d="M523.3,363.9c0,0.4-0.4,0.8-0.8,0.8c-0.4,0-0.8-0.4-0.8-0.8s0.4-0.8,0.8-0.8l0,0
	C522.9,363.1,523.3,363.5,523.3,363.9z"/>
<path class="st0" d="M550.7,313c-0.1,0.5-0.5,0.9-1,0.8c-0.4,0-0.8-0.4-0.8-0.8c-0.1-0.5,0.3-0.9,0.8-1s0.9,0.3,1,0.8
	C550.7,312.9,550.7,312.9,550.7,313z"/>
<path class="st0" d="M485.4,339.7c0,0.5-0.4,0.9-0.9,0.9s-0.9-0.4-0.9-0.9s0.4-0.9,0.9-0.9l0,0C484.9,338.8,485.4,339.2,485.4,339.7
	z"/>
</svg>
