<?xml version="1.0" encoding="utf-8"?>
<!-- Generator: Adobe Illustrator 22.1.0, SVG Export Plug-In . SVG Version: 6.00 Build 0)  -->
<svg version="1.1" id="star" xmlns="http://www.w3.org/2000/svg" xmlns:xlink="http://www.w3.org/1999/xlink" x="0px" y="0px"
	 width="980.6px" height="611.3px" viewBox="0 0 980.6 611.3" style="enable-background:new 0 0 980.6 611.3;" xml:space="preserve"
	>
<style type="text/css">
	.st0{fill:#FFFFFF;}
</style>
<title>star2</title>
<path class="st0" d="M387.6,93.8c0,1,0.8,1.8,1.8,1.8c1,0,1.8-0.8,1.8-1.8c0-1-0.8-1.8-1.8-1.8l0,0C388.5,92,387.6,92.8,387.6,93.8z
	"/>
<path class="st0" d="M721.7,0.9c0,0.5,0.4,0.9,0.9,0.9c0.5,0,0.9-0.4,0.9-0.9S723.1,0,722.6,0c0,0,0,0,0,0
	C722.1,0,721.7,0.4,721.7,0.9C721.7,0.9,721.7,0.9,721.7,0.9z"/>
<path class="st0" d="M562.9,319.5c0,0.5,0.4,0.9,0.9,0.9c0.5,0,0.9-0.4,0.9-0.9c0-0.5-0.4-0.9-0.9-0.9c0,0,0,0,0,0
	C563.3,318.6,562.9,319,562.9,319.5C562.9,319.5,562.9,319.5,562.9,319.5z"/>
<path class="st0" d="M500,415.8c0,0.5,0.4,0.9,0.9,0.9s0.9-0.4,0.9-0.9c0-0.5-0.4-0.9-0.9-0.9c0,0,0,0,0,0
	C500.4,414.9,500,415.3,500,415.8z"/>
<path class="st0" d="M425,397.1c-0.1,0.5,0.3,0.9,0.8,1s0.9-0.3,1-0.8c0-0.1,0-0.1,0-0.2c-0.1-0.5-0.5-0.9-1-0.8
	C425.4,396.4,425,396.7,425,397.1z"/>
<path class="st0" d="M291.7,479.9c-0.1,0.5,0.3,0.9,0.8,1s0.9-0.3,1-0.8c0-0.1,0-0.1,0-0.2c-0.1-0.5-0.5-0.9-1-0.8
	C292.1,479.2,291.8,479.5,291.7,479.9z"/>
<path class="st0" d="M258,389.8c0,0.5,0.4,0.9,0.9,0.9s0.9-0.4,0.9-0.9c0-0.5-0.4-0.9-0.9-0.9C258.4,388.9,258,389.3,258,389.8
	C258,389.8,258,389.8,258,389.8z"/>
<path class="st0" d="M481.8,119.5c0,1,0.8,1.8,1.8,1.8c1,0,1.8-0.8,1.8-1.8c0-1-0.8-1.8-1.8-1.8l0,0
	C482.6,117.7,481.8,118.5,481.8,119.5z"/>
<path class="st0" d="M675.2,309.3c0,1,0.8,1.8,1.8,1.8s1.8-0.8,1.8-1.8s-0.8-1.8-1.8-1.8l0,0C676,307.5,675.2,308.3,675.2,309.3z"/>
<path class="st0" d="M252,123.6c0.7,0.7,1.9,0.7,2.6,0c0.7-0.7,0.7-1.9,0-2.6c-0.7-0.7-1.9-0.7-2.6,0
	C251.3,121.8,251.3,122.9,252,123.6C252,123.6,252,123.6,252,123.6z"/>
<path class="st0" d="M375.6,184.9c0.6,0.6,1.5,0.6,2,0c0.6-0.6,0.6-1.5,0-2s-1.5-0.6-2,0c0,0,0,0,0,0
	C375.1,183.5,375.1,184.4,375.6,184.9z"/>
<path class="st0" d="M761.1,168.2c0,0.8,0.6,1.4,1.4,1.4s1.4-0.6,1.4-1.4s-0.6-1.4-1.4-1.4C761.8,166.7,761.1,167.4,761.1,168.2
	C761.1,168.2,761.1,168.2,761.1,168.2z"/>
<path class="st0" d="M401.2,258.6c0,1,0.8,1.8,1.8,1.8s1.8-0.8,1.8-1.8s-0.8-1.8-1.8-1.8l0,0C402,256.8,401.2,257.6,401.2,258.6z"/>
<path class="st0" d="M387.9,325.7c0,1,0.8,1.8,1.8,1.8s1.8-0.8,1.8-1.8s-0.8-1.8-1.8-1.8l0,0C388.7,323.9,387.9,324.7,387.9,325.7z"
	/>
<path class="st0" d="M334.8,270.4c-0.2,1,0.4,1.9,1.4,2.1c1,0.2,1.9-0.4,2.1-1.4c0.2-1-0.4-1.9-1.4-2.1c-0.2,0-0.5,0-0.7,0
	C335.5,269.1,335,269.7,334.8,270.4z"/>
<path class="st0" d="M232.1,581.6c-0.4,0.6-0.3,1.4,0.2,1.8c0.6,0.4,1.4,0.3,1.8-0.2c0.4-0.6,0.3-1.4-0.2-1.8
	C233.3,581,232.5,581.1,232.1,581.6z"/>
<path class="st0" d="M186.6,607.3c-0.5,0.7-0.4,1.6,0.3,2.1s1.6,0.4,2.1-0.3c0.5-0.7,0.4-1.6-0.3-2.1
	C188,606.5,187.1,606.7,186.6,607.3C186.6,607.3,186.6,607.3,186.6,607.3z"/>
<path class="st0" d="M548.6,364.4c-0.8-0.3-1.8,0.1-2.1,0.9c-0.3,0.8,0.1,1.8,0.9,2.1s1.8-0.1,2.1-0.9c0,0,0,0,0,0
	C549.9,365.7,549.5,364.8,548.6,364.4z"/>
<path class="st0" d="M584.6,415.6c0,1,0.8,1.8,1.8,1.8s1.8-0.8,1.8-1.8s-0.8-1.8-1.8-1.8l0,0C585.4,413.8,584.6,414.6,584.6,415.6z"
	/>
<path class="st0" d="M684.6,398.4c-0.8,0.6-1.1,1.7-0.5,2.5c0.6,0.8,1.7,1.1,2.5,0.5c0.8-0.6,1.1-1.7,0.5-2.5c0,0,0,0,0,0
	C686.5,398.1,685.4,397.8,684.6,398.4z"/>
<path class="st0" d="M687.5,348.3c-0.4,0.3-0.5,0.8-0.3,1.2c0,0,0,0,0,0c0.3,0.4,0.8,0.5,1.3,0.3c0.4-0.3,0.5-0.8,0.3-1.3
	C688.5,348.1,688,348,687.5,348.3C687.5,348.3,687.5,348.3,687.5,348.3z"/>
<path class="st0" d="M739,364.8c-0.8,0.6-1.1,1.7-0.5,2.5c0.6,0.8,1.7,1.1,2.5,0.5c0.8-0.6,1.1-1.7,0.5-2.5
	C741,364.5,739.8,364.3,739,364.8C739,364.8,739,364.8,739,364.8z"/>
<path class="st0" d="M790.5,220.5c-0.2-0.5-0.7-0.7-1.2-0.5c-0.5,0.2-0.7,0.7-0.5,1.2c0.2,0.5,0.7,0.7,1.2,0.5
	C790.5,221.5,790.7,221,790.5,220.5C790.5,220.5,790.5,220.5,790.5,220.5z"/>
<path class="st0" d="M741.8,280.6c0-1-0.9-1.8-1.9-1.7s-1.8,0.9-1.7,1.9c0,1,0.9,1.8,1.9,1.7C741.1,282.4,741.9,281.6,741.8,280.6
	C741.9,280.6,741.9,280.6,741.8,280.6z"/>
<path class="st0" d="M320.5,402.6c0,1,0.8,1.8,1.8,1.8s1.8-0.8,1.8-1.8s-0.8-1.8-1.8-1.8l0,0C321.3,400.8,320.5,401.6,320.5,402.6z"
	/>
<path class="st0" d="M186.8,171.8c-0.5,0.1-0.8,0.6-0.7,1.1c0.1,0.5,0.6,0.8,1.1,0.7c0.5-0.1,0.8-0.6,0.7-1.1c0,0,0,0,0,0
	C187.7,172,187.2,171.7,186.8,171.8z"/>
<path class="st0" d="M206.8,214.4c-0.5,0.1-0.8,0.6-0.7,1.1c0.1,0.5,0.6,0.8,1.1,0.7c0.5-0.1,0.8-0.6,0.7-1.1c0,0,0,0,0,0
	C207.7,214.6,207.2,214.3,206.8,214.4z"/>
<path class="st0" d="M177.9,231.3c-0.5,0.1-0.8,0.6-0.7,1.1c0.1,0.5,0.6,0.8,1.1,0.7c0.5-0.1,0.8-0.6,0.7-1.1c0,0,0,0,0,0
	C178.9,231.5,178.4,231.2,177.9,231.3z"/>
<path class="st0" d="M39,177.3c-0.2-0.5-0.7-0.7-1.2-0.4c0,0,0,0,0,0c-0.5,0.2-0.7,0.7-0.6,1.2c0.2,0.5,0.7,0.7,1.2,0.6
	c0.1,0,0.1,0,0.2-0.1C39,178.3,39.2,177.7,39,177.3C39,177.3,39,177.3,39,177.3z"/>
<path class="st0" d="M1.7,205.8c-0.2-0.5-0.7-0.7-1.2-0.5c-0.5,0.2-0.7,0.7-0.5,1.2s0.7,0.7,1.2,0.5c0,0,0,0,0,0
	C1.7,206.8,1.9,206.3,1.7,205.8z"/>
<path class="st0" d="M754.9,68.2c-0.6-0.4-1.5-0.2-1.9,0.4c-0.4,0.6-0.2,1.5,0.4,1.9s1.5,0.2,1.9-0.4c0,0,0,0,0,0
	C755.7,69.5,755.5,68.6,754.9,68.2z"/>
<path class="st0" d="M272.9,191.8c-1.9-0.9-3.3,1.4-1.7,2.7l0,0C273.1,195.4,274.5,193.2,272.9,191.8z"/>
<path class="st0" d="M802.2,492.8c0.7,0.7,1.9,0.7,2.6,0c0.7-0.7,0.7-1.9,0-2.6c-0.7-0.7-1.9-0.7-2.6,0
	C801.5,490.9,801.5,492.1,802.2,492.8C802.2,492.8,802.2,492.8,802.2,492.8z"/>
<path class="st0" d="M736.9,541c-0.5,0.1-0.8,0.6-0.7,1.1c0.1,0.5,0.6,0.8,1.1,0.7c0.5-0.1,0.8-0.6,0.7-1.1c0,0,0,0,0,0
	C737.9,541.2,737.4,540.9,736.9,541C736.9,541,736.9,541,736.9,541z"/>
<path class="st0" d="M756.9,583.5c-0.5,0.1-0.8,0.6-0.7,1.1c0.1,0.5,0.6,0.8,1.1,0.7c0.5-0.1,0.8-0.6,0.7-1.1c0,0,0,0,0,0
	C757.9,583.7,757.4,583.4,756.9,583.5C756.9,583.5,756.9,583.5,756.9,583.5z"/>
<path class="st0" d="M728.1,600.5c-0.5,0.1-0.8,0.6-0.7,1.1s0.6,0.8,1.1,0.7c0.5-0.1,0.8-0.6,0.7-1.1
	C729.1,600.7,728.6,600.4,728.1,600.5z"/>
<path class="st0" d="M933.8,548.3c-0.2-0.5-0.7-0.7-1.2-0.4c-0.5,0.2-0.7,0.7-0.4,1.2c0.2,0.5,0.7,0.7,1.2,0.4c0,0,0,0,0,0
	C933.8,549.3,934,548.7,933.8,548.3C933.8,548.3,933.8,548.3,933.8,548.3z"/>
<path class="st0" d="M911.1,523.7c-0.2-0.4-0.8-0.6-1.2-0.4s-0.6,0.8-0.4,1.2c0.2,0.4,0.7,0.6,1.2,0.4
	C911.1,524.7,911.3,524.2,911.1,523.7z"/>
<path class="st0" d="M589.2,546.4c-0.2-0.5-0.7-0.6-1.2-0.4c-0.5,0.2-0.6,0.7-0.4,1.2c0.2,0.4,0.7,0.6,1.2,0.4
	C589.2,547.4,589.4,546.9,589.2,546.4C589.2,546.4,589.2,546.4,589.2,546.4z"/>
<path class="st0" d="M551.9,575c-0.2-0.5-0.7-0.6-1.2-0.4c-0.5,0.2-0.6,0.7-0.4,1.2c0.2,0.4,0.7,0.6,1.2,0.4
	C551.9,576,552.1,575.5,551.9,575C551.9,575,551.9,575,551.9,575z"/>
<path class="st0" d="M822.6,559.5c-1.2-0.6-2.2,0.9-1.1,1.8l0,0C822.7,561.8,823.6,560.4,822.6,559.5z"/>
<path class="st0" d="M970.2,331.7c-0.5,0.9-0.2,2,0.7,2.5c0.9,0.5,2,0.2,2.5-0.7c0.5-0.9,0.2-2-0.7-2.5
	C971.8,330.5,970.7,330.9,970.2,331.7C970.2,331.7,970.2,331.7,970.2,331.7z"/>
<path class="st0" d="M913.2,281.9c-0.2-0.4-0.8-0.6-1.2-0.4c-0.4,0.2-0.6,0.8-0.4,1.2c0.2,0.4,0.8,0.6,1.2,0.4c0,0,0,0,0,0
	C913.2,282.9,913.4,282.3,913.2,281.9z"/>
<path class="st0" d="M877.6,312.6c-0.2-0.4-0.8-0.6-1.2-0.4c0,0,0,0,0,0c-0.4,0.2-0.6,0.8-0.4,1.2c0.2,0.4,0.8,0.6,1.2,0.4
	C877.7,313.6,877.8,313.1,877.6,312.6C877.6,312.6,877.6,312.6,877.6,312.6z"/>
<path class="st0" d="M853.5,289.4c-0.2-0.4-0.8-0.6-1.2-0.4c-0.4,0.2-0.6,0.8-0.4,1.2c0.2,0.4,0.8,0.6,1.2,0.4
	C853.6,290.4,853.7,289.9,853.5,289.4z"/>
<path class="st0" d="M152.6,269.3c-0.2-0.4-0.8-0.6-1.2-0.4c-0.4,0.2-0.6,0.8-0.4,1.2c0.2,0.4,0.8,0.6,1.2,0.4c0,0,0,0,0,0
	C152.6,270.2,152.8,269.7,152.6,269.3z"/>
<path class="st0" d="M117,300c-0.2-0.4-0.8-0.6-1.2-0.4c0,0,0,0,0,0c-0.4,0.2-0.6,0.8-0.4,1.2c0.2,0.4,0.8,0.6,1.2,0.4
	C117.1,301,117.2,300.4,117,300C117,300,117,300,117,300z"/>
<path class="st0" d="M92.9,276.8c-0.2-0.4-0.8-0.6-1.2-0.4c-0.4,0.2-0.6,0.8-0.4,1.2c0.2,0.4,0.8,0.6,1.2,0.4
	C93,277.8,93.1,277.2,92.9,276.8z"/>
<path class="st0" d="M177.3,375.7c0.2-0.5,0-1-0.4-1.2c-0.5-0.2-1,0-1.2,0.4c-0.2,0.5,0,1,0.4,1.2c0,0,0,0,0,0
	C176.5,376.3,177.1,376.1,177.3,375.7z"/>
<path class="st0" d="M131.5,365c0.2-0.4,0-1-0.4-1.2c0,0,0,0,0,0c-0.5-0.2-1,0-1.2,0.4c-0.2,0.5,0,1,0.4,1.2
	C130.8,365.6,131.3,365.5,131.5,365C131.5,365,131.5,365,131.5,365z"/>
<path class="st0" d="M136.1,331.9c0.2-0.5,0-1-0.4-1.2c-0.5-0.2-1,0-1.2,0.4c-0.2,0.5,0,1,0.4,1.2
	C135.4,332.5,135.9,332.3,136.1,331.9z"/>
<path class="st0" d="M79.8,371.4c0.1-0.5-0.3-0.9-0.8-1c0,0,0,0,0,0c-0.5,0-0.9,0.3-1,0.8c0,0.5,0.3,0.9,0.8,1
	C79.3,372.3,79.7,371.9,79.8,371.4C79.8,371.4,79.8,371.4,79.8,371.4z"/>
<path class="st0" d="M59.7,461.2c0.4-0.2,0.6-0.8,0.3-1.2c0,0,0,0,0,0c-0.3-0.4-0.8-0.6-1.2-0.3c-0.4,0.3-0.6,0.8-0.3,1.2
	C58.7,461.3,59.2,461.5,59.7,461.2C59.7,461.2,59.7,461.2,59.7,461.2z"/>
<path class="st0" d="M77.8,408.6c0.4-0.3,0.6-0.8,0.3-1.2c-0.3-0.4-0.8-0.6-1.2-0.3c-0.4,0.3-0.6,0.8-0.3,1.2
	C76.8,408.7,77.4,408.8,77.8,408.6z"/>
<path class="st0" d="M576.9,205.1c-0.2-0.4-0.8-0.6-1.2-0.4c-0.4,0.2-0.6,0.8-0.4,1.2c0.2,0.4,0.8,0.6,1.2,0.4c0,0,0,0,0,0
	C577,206,577.2,205.5,576.9,205.1z"/>
<path class="st0" d="M556.4,245.8c-0.2-0.4-0.8-0.6-1.2-0.4c0,0,0,0,0,0c-0.4,0.2-0.6,0.8-0.4,1.2c0.2,0.4,0.8,0.6,1.2,0.4
	C556.4,246.8,556.6,246.2,556.4,245.8C556.4,245.8,556.4,245.8,556.4,245.8z"/>
<path class="st0" d="M517.3,212.6c-0.2-0.4-0.8-0.6-1.2-0.4c-0.4,0.2-0.6,0.8-0.4,1.2c0.2,0.4,0.8,0.6,1.2,0.4
	C517.3,213.6,517.5,213,517.3,212.6z"/>
<path class="st0" d="M939,188c0.2-0.5,0-1-0.5-1.2c-0.5-0.2-1,0-1.2,0.5c-0.2,0.5,0,1,0.5,1.2c0,0,0,0,0,0
	C938.3,188.7,938.8,188.5,939,188z"/>
<path class="st0" d="M875.1,139.4c0.2-0.4,0-1-0.4-1.2c0,0,0,0,0,0c-0.5-0.2-1,0-1.2,0.5c-0.2,0.5,0,1,0.5,1.2
	C874.4,140.1,874.9,139.9,875.1,139.4C875.1,139.4,875.1,139.4,875.1,139.4z"/>
<path class="st0" d="M878.5,106.1c0.2-0.5,0-1-0.5-1.2c-0.5-0.2-1,0-1.2,0.5c-0.2,0.5,0,1,0.5,1.2
	C877.7,106.8,878.3,106.6,878.5,106.1z"/>
<path class="st0" d="M910,370.7c0.3-1.9-2.1-2.6-2.9-0.9l0,0C906.9,371.7,909.2,372.5,910,370.7z"/>
<path class="st0" d="M765.9,35c-0.8-0.5-2-0.3-2.5,0.6s-0.3,2,0.6,2.5c0.8,0.5,2,0.3,2.5-0.5C767,36.7,766.7,35.5,765.9,35
	C765.9,35,765.9,35,765.9,35z"/>
<path class="st0" d="M217.3,549.6c-0.3-0.4-0.9-0.4-1.3,0c0,0,0,0,0,0c-0.4,0.3-0.5,0.9-0.1,1.3s0.9,0.5,1.3,0.1
	c0,0,0.1-0.1,0.1-0.1C217.6,550.5,217.6,549.9,217.3,549.6C217.3,549.6,217.3,549.6,217.3,549.6z"/>
<path class="st0" d="M227.9,465.4c-0.4,0.2-0.6,0.8-0.4,1.2c0.2,0.4,0.8,0.6,1.2,0.4c0.4-0.2,0.6-0.8,0.4-1.2c0,0,0,0,0,0
	C228.9,465.3,228.3,465.2,227.9,465.4z"/>
<path class="st0" d="M130.4,504c-0.4,0.2-0.6,0.8-0.3,1.2c0.2,0.4,0.8,0.6,1.2,0.3s0.6-0.8,0.3-1.2
	C131.3,503.9,130.8,503.8,130.4,504L130.4,504z"/>
<path class="st0" d="M120.2,539.5c-0.4,0.2-0.6,0.8-0.3,1.2c0.2,0.4,0.8,0.6,1.2,0.3c0.4-0.2,0.6-0.8,0.3-1.2
	C121.2,539.4,120.7,539.2,120.2,539.5C120.2,539.5,120.2,539.5,120.2,539.5z"/>
<path class="st0" d="M247.1,526.2c-0.9,0.5-1.2,1.6-0.7,2.5c0.5,0.9,1.6,1.2,2.5,0.7c0.9-0.5,1.2-1.6,0.7-2.5
	C249,526.1,247.9,525.8,247.1,526.2z"/>
</svg>
