<svg xmlns="http://www.w3.org/2000/svg" xmlns:xlink="http://www.w3.org/1999/xlink" viewBox="0 0 555.87 471.22"><defs><linearGradient id="未命名漸層_57" x1="274.84" y1="-80.62" x2="287.53" y2="647.94" gradientUnits="userSpaceOnUse"><stop offset="0" stop-color="#89ffff"/><stop offset="0.53" stop-color="#54c0ff"/></linearGradient><linearGradient id="未命名漸層_57-2" x1="274.84" y1="-49.8" x2="287.53" y2="678.76" xlink:href="#未命名漸層_57"/><linearGradient id="linear-gradient" x1="128.41" y1="499.94" x2="89.38" y2="39.55" gradientUnits="userSpaceOnUse"><stop offset="0" stop-color="#4a9a3b"/><stop offset="1" stop-color="#95ea42"/></linearGradient><linearGradient id="linear-gradient-2" x1="447.67" y1="448.45" x2="414" y2="51.27" xlink:href="#linear-gradient"/><linearGradient id="linear-gradient-3" x1="212.82" y1="37.74" x2="212.24" y2="159.44" gradientUnits="userSpaceOnUse"><stop offset="0" stop-color="#9ff2ff"/><stop offset="1" stop-color="#b3ffff"/></linearGradient><linearGradient id="linear-gradient-4" x1="297.38" y1="199.18" x2="296.45" y2="395.91" gradientTransform="matrix(0.35, -0.94, 0.94, 0.35, -66.6, 421.77)" xlink:href="#linear-gradient-3"/><linearGradient id="linear-gradient-5" x1="156.58" y1="170.79" x2="155.58" y2="381.48" gradientTransform="translate(355.22 106.84) rotate(72.47)" xlink:href="#linear-gradient-3"/><linearGradient id="linear-gradient-6" x1="230.22" y1="37.82" x2="229.65" y2="159.52" xlink:href="#linear-gradient-3"/><linearGradient id="linear-gradient-7" x1="333.88" y1="326.15" x2="332.77" y2="562.82" gradientTransform="translate(169.92 -96.89) rotate(21.77)" xlink:href="#linear-gradient-3"/><linearGradient id="linear-gradient-8" x1="200.91" y1="87.1" x2="200.02" y2="276.82" gradientTransform="matrix(0.87, 0.06, -0.05, 0.8, 32.11, 18.7)" xlink:href="#linear-gradient-3"/><linearGradient id="linear-gradient-9" x1="259.88" y1="228.68" x2="258.98" y2="418.4" gradientTransform="matrix(0.21, 1.17, -0.73, 0.13, 398.2, -77.21)" xlink:href="#linear-gradient-3"/><linearGradient id="linear-gradient-10" x1="282.38" y1="66.63" x2="281.48" y2="257.94" gradientTransform="matrix(0.53, 2.96, -1.22, 0.22, 372.28, -588.76)" xlink:href="#linear-gradient-3"/><linearGradient id="linear-gradient-11" x1="346.26" y1="38.37" x2="345.68" y2="160.06" xlink:href="#linear-gradient-3"/><linearGradient id="linear-gradient-12" x1="167.76" y1="113.05" x2="167.19" y2="234.74" gradientTransform="translate(109.82 -64.29) rotate(32.09)" xlink:href="#linear-gradient-3"/><linearGradient id="linear-gradient-13" x1="362.52" y1="38.45" x2="361.95" y2="160.14" xlink:href="#linear-gradient-3"/><linearGradient id="linear-gradient-14" x1="232.9" y1="9.74" x2="232.05" y2="189.79" xlink:href="#linear-gradient-3"/><linearGradient id="linear-gradient-15" x1="278.58" y1="277.27" x2="277.33" y2="542.1" gradientTransform="translate(98.85 -50.29) rotate(12.51)" xlink:href="#linear-gradient-3"/><linearGradient id="linear-gradient-16" x1="306.63" y1="237.48" x2="305.64" y2="449.42" xlink:href="#linear-gradient-3"/><linearGradient id="linear-gradient-17" x1="283.49" y1="38.07" x2="282.91" y2="159.77" xlink:href="#linear-gradient-3"/><linearGradient id="linear-gradient-18" x1="275.51" y1="182.33" x2="274.29" y2="441.78" gradientTransform="translate(-109.22 190.18) rotate(-30.19)" xlink:href="#linear-gradient-3"/><linearGradient id="linear-gradient-19" x1="174.42" y1="-151" x2="172.46" y2="263.84" xlink:href="#linear-gradient-3"/><linearGradient id="linear-gradient-20" x1="319.08" y1="-443.82" x2="314.49" y2="528.88" gradientTransform="translate(239.28 -154.79) rotate(44.22)" xlink:href="#linear-gradient-3"/><linearGradient id="linear-gradient-21" x1="198.22" y1="-971.52" x2="189.75" y2="822.33" gradientTransform="translate(113.83 -60.03) rotate(24.69)" xlink:href="#linear-gradient-3"/><linearGradient id="linear-gradient-22" x1="229.18" y1="37.82" x2="228.6" y2="159.51" xlink:href="#linear-gradient-3"/><linearGradient id="linear-gradient-23" x1="244.83" y1="292.35" x2="244.15" y2="437.35" xlink:href="#linear-gradient-3"/><linearGradient id="linear-gradient-24" x1="237.86" y1="292.87" x2="237.17" y2="437.86" xlink:href="#linear-gradient-3"/><linearGradient id="linear-gradient-25" x1="214.23" y1="313.59" x2="213.55" y2="458.58" gradientTransform="matrix(0.73, 1.07, -0.81, 0.55, 356.92, -44.75)" xlink:href="#linear-gradient-3"/><linearGradient id="linear-gradient-26" x1="222.7" y1="292.97" x2="222.01" y2="437.97" gradientTransform="matrix(1.17, 0.32, -0.19, 0.71, 50.39, 68.39)" xlink:href="#linear-gradient-3"/><linearGradient id="linear-gradient-27" x1="204.16" y1="317.83" x2="203.5" y2="458.41" gradientTransform="matrix(-0.08, 1, -1.28, -0.1, 698.93, 214.41)" xlink:href="#linear-gradient-3"/><linearGradient id="linear-gradient-28" x1="237.06" y1="70.79" x2="236.35" y2="221.86" gradientTransform="matrix(-1.31, -0.19, 0.21, -1.39, 519.79, 401.54)" xlink:href="#linear-gradient-3"/><linearGradient id="linear-gradient-29" x1="129.34" y1="-39.96" x2="128.54" y2="130.03" gradientTransform="matrix(-1.24, -0.96, 0.86, -1.11, 492.95, 496.82)" xlink:href="#linear-gradient-3"/><linearGradient id="linear-gradient-30" x1="288.09" y1="-158.27" x2="285.99" y2="285.93" xlink:href="#linear-gradient-3"/><linearGradient id="linear-gradient-31" x1="176.43" y1="113.95" x2="166" y2="53.26" gradientUnits="userSpaceOnUse"><stop offset="0" stop-color="#2a7a25"/><stop offset="1" stop-color="#95ea42"/></linearGradient><linearGradient id="linear-gradient-32" x1="191.87" y1="77.67" x2="179.53" y2="23.42" xlink:href="#linear-gradient"/><linearGradient id="linear-gradient-33" x1="379.35" y1="97.73" x2="371.6" y2="63.66" xlink:href="#linear-gradient"/><linearGradient id="linear-gradient-34" x1="372.12" y1="240.26" x2="224.92" y2="-406.71" xlink:href="#linear-gradient"/><linearGradient id="linear-gradient-35" x1="388.43" y1="161.25" x2="384.7" y2="952.66" xlink:href="#linear-gradient-3"/></defs><title>planet</title><g id="_1-kv-planet" data-name="1-kv-planet"><path d="M414.39,76.53c-40.47-23.3-89.49-36.95-142.33-36.95-77.95,0-147.62,29.69-193.73,76.29l-5,5.59a200.35,200.35,0,0,0-34.27,38.63l-.78.88v.27C21.61,186.59,12.23,215,12.23,244.94c0,107.31,120.11,194.3,268.28,194.3s268.28-87,268.28-194.3C548.79,173,494.72,110.1,414.39,76.53Z" style="fill:url(#未命名漸層_57)"/><path d="M414.39,107.35C373.92,84.05,324.9,70.4,272.06,70.4c-77.95,0-147.62,29.69-193.73,76.29l-5,5.59a200.35,200.35,0,0,0-34.27,38.63l-.78.88v.27c-16.73,25.35-26.11,53.73-26.11,83.7,0,107.31,120.11,194.3,268.28,194.3s268.28-87,268.28-194.3C548.79,203.77,494.72,140.92,414.39,107.35Z" style="fill:url(#未命名漸層_57-2)"/><polygon points="140.87 74.75 125.88 49.01 121.58 53.27 123.96 45.71 109.66 21.17 110.89 27.77 112.79 29.59 111.1 29.1 117.53 63.49 127.98 68.46 118.43 68.38 120.99 82.14 140.87 74.75" style="fill:#009734"/><polygon points="433.16 82.24 443.59 54.33 437.57 53.71 444.92 50.76 454.86 24.16 450.53 29.29 450.32 31.91 449.64 30.29 427.09 57.05 429.87 68.28 423.88 60.84 414.86 71.53 433.16 82.24" style="fill:#009734"/><polygon points="482.05 117.81 496.98 92.02 491.14 90.41 498.88 88.72 513.11 64.14 507.99 68.47 507.35 71.03 506.94 69.32 480.26 91.95 481.13 103.48 476.47 95.16 465.78 104.2 482.05 117.81" style="fill:#009734"/><polygon points="177.56 57.46 163.41 29.85 158.71 34.05 161.6 26.32 148.12 0 149.03 6.93 150.9 8.93 149.17 8.32 153.92 44.44 164.5 50.19 154.59 49.57 156.47 64.02 177.56 57.46" style="fill:#11d14c"/><polygon points="131.09 78.27 106.98 49.39 102.54 55.61 103.9 45.7 80.92 18.17 83.84 26.13 86.59 28 84.39 27.74 99.65 69.19 113.71 73.16 101.81 75.07 107.9 91.66 131.09 78.27" style="fill:#11d14c"/><polygon points="420.2 77.38 427.89 40.56 420.26 40.94 428.88 35.85 436.22 0.75 431.79 7.98 432.03 11.3 430.87 9.41 407.82 47.09 413.43 60.58 404.55 52.44 395.31 67.5 420.2 77.38" style="fill:#11d14c"/><polygon points="499.51 122.96 514.55 101.79 508.26 99.41 517 98.34 535.28 72.61 529.16 76.88 528.19 79.64 527.91 77.7 496.06 99.99 495.83 112.84 491.53 103.15 478.78 112.05 497.62 126.76 499.51 122.96" style="fill:#11d14c"/><path d="M330.46,70.12l51-9.64s-3.79-7.37-6.62-10.06S337.69,39.49,311,36.74c-36-3.7-70.58-5.62-77.55-2.94-5.7,2.2-10.11,6.55-14.74,10.53,8,1.15,15.64,2,23.63,3.13-.8,9-4.3,26.61-4.3,26.61l29.29-7.13,53.83,16.27Z" style="fill:#fff"/><path d="M152.57,295.91c-9.16-41-12.38-94.91-12.11-124a421.79,421.79,0,0,1,3.06-49l2-16.22,22.56,5,24.51-3.55,10.91-9.67L189.12,74.6l5.2-24.76-6.81-5.09L119.85,78.62S68.76,109.27,57,123c-6.4,7.44-11.77,18-15.35,26.11a203.61,203.61,0,0,0-15.88,23.06l-.75,1v.3C9,201,0,231.9,0,264.54c0,99.13,82.77,182.34,194.52,205.32l.12,0,6.09,1.33-2.08-6.93C190.67,436.6,160.5,331.43,152.57,295.91Z" style="fill:url(#linear-gradient)"/><path d="M514.37,149.19c-5.89-8.68-13.93-19.88-20.24-26.2-10.07-10.09-38.95-28.16-38.95-28.16L407.63,65.41l-16-.58L365.71,84.64l14.56,10.57L348.7,107l-44.82-3.59-9.38,5.89,39,51.92,7,7.95L401,272.09l27.9,78.32L432.52,386s7.11,23.08,13,43c6.1-.81,11.41-.88,17.08-1.32,56.86-38.76,93.28-97.53,93.28-163.16C555.87,222,540.62,182.37,514.37,149.19Z" style="fill:url(#linear-gradient-2)"/><path d="M212.16,76.19a15.58,15.58,0,0,1-7.64,1.63c-4.53-.21-8.47-2.79-8.42-7.69a14.5,14.5,0,0,1,3.38-8.65,32.37,32.37,0,0,1,7.06-6.24c5.11-3.55,11.33-6.65,17.35-5.06a8,8,0,0,1,3.2,1.56c2.48,2.13,2.73,6.06,1.4,9C225.71,67,218.21,73.26,212.16,76.19Z" style="opacity:0.67;fill:url(#linear-gradient-3)"/><path d="M282.46,236.68a25.15,25.15,0,0,1-1.88,12.5c-2.91,6.72-9.05,11.22-16.44,8.34a23.34,23.34,0,0,1-11.16-10,52.08,52.08,0,0,1-5.4-14.24c-2.46-9.75-3.6-20.93,2.22-29.13a13,13,0,0,1,4.2-3.94c4.64-2.54,10.72-.68,14.48,3C276.33,211,281.49,225.87,282.46,236.68Z" style="opacity:0.67;fill:url(#linear-gradient-4)"/><path d="M175.29,325.84a25.16,25.16,0,0,1-6.25-11c-1.87-7.08.17-14.42,7.76-16.72a23.38,23.38,0,0,1,15,1A52.45,52.45,0,0,1,204.83,307c8,6.15,18.7,12.08,19.19,22.13.1,1.93-.8,8.65-1.56,10.43-2.07,4.87-14.57,6.34-19.82,5.74C191.67,344,182.74,333.74,175.29,325.84Z" style="opacity:0.67;fill:url(#linear-gradient-5)"/><path d="M233.4,78.32a6.33,6.33,0,0,0,1.16-1.73,7.64,7.64,0,0,0,.77-4.57,4.94,4.94,0,0,0-2.66-3.67,5,5,0,0,0-4.95.69A8,8,0,0,0,225,73.37a6.18,6.18,0,0,0-.25,2.45c.36,2.59,3.27,4.34,5.85,3.92A5.2,5.2,0,0,0,233.4,78.32Z" style="opacity:0.67;fill:url(#linear-gradient-6)"/><path d="M335.54,405.27a12.52,12.52,0,0,0,3.33-2.27,14.93,14.93,0,0,0,4.69-7.71A9,9,0,0,0,332,384.42a15.43,15.43,0,0,0-8.12,5.83,12,12,0,0,0-2.2,4.25c-1.24,4.93,2.76,10.2,7.74,11.29A10,10,0,0,0,335.54,405.27Z" style="opacity:0.67;fill:url(#linear-gradient-7)"/><path d="M203.11,151.74a8.2,8.2,0,0,0,1.41-2.08,10.83,10.83,0,0,0,1.24-5.68,6.23,6.23,0,0,0-2.61-4.79,5,5,0,0,0-5.48.49,10.28,10.28,0,0,0-3.41,5.23,8.77,8.77,0,0,0-.47,3.05,5.69,5.69,0,0,0,6.08,5.35A5.51,5.51,0,0,0,203.11,151.74Z" style="opacity:0.67;fill:url(#linear-gradient-8)"/><path d="M241.6,268.63a7.5,7.5,0,0,0,2.26,1.34,7,7,0,0,0,5.38.19,6,6,0,0,0,3.46-4.64A9.19,9.19,0,0,0,245,255.27a5.53,5.53,0,0,0-2.83.15c-2.85,1-4.06,5.66-2.89,9.35A8.65,8.65,0,0,0,241.6,268.63Z" style="opacity:0.67;fill:url(#linear-gradient-9)"/><path d="M366.27,288.63a16.3,16.3,0,0,0,4.05,3.71c3.15,2.05,6.46,2.83,9.22,1.29s4.91-5.62,5.2-11.16a34.51,34.51,0,0,0-4.62-18.14c-2.92-4.86-1.83-7.11-5.34-8.26-1.66-.54-8.07-1.23-9.58-.59-7.63,3.2-6.07,13.63-3.53,23.08A29.48,29.48,0,0,0,366.27,288.63Z" style="opacity:0.67;fill:url(#linear-gradient-10)"/><path d="M335.51,93.48c2.8,1.87,6.57,1.74,9.69.48s5.72-3.51,8.21-5.77c2.26-2.06,4.53-4.24,5.86-7s1.56-6.25-.21-8.76a8.52,8.52,0,0,0-7-3.24,19.19,19.19,0,0,0-7.68,1.93c-4.52,2-9,4.74-11.29,9.09S331.41,90.76,335.51,93.48Z" style="opacity:0.67;fill:url(#linear-gradient-11)"/><path d="M153.51,161.59c1.39,3.07,4.64,5,8,5.55s6.71.07,10-.53c3-.54,6.09-1.18,8.68-2.81s4.64-4.46,4.48-7.52a8.53,8.53,0,0,0-4.18-6.45,19.19,19.19,0,0,0-7.53-2.44c-4.87-.75-10.13-.75-14.4,1.7S151.49,157.1,153.51,161.59Z" style="opacity:0.67;fill:url(#linear-gradient-12)"/><path d="M366.94,92.87a4,4,0,0,0-2.75-2.33c-1.86-.49-3.67,1-4.92,2.3-2.41,2.47-3.11,6,1.36,6A7.26,7.26,0,0,0,366.45,96,3.24,3.24,0,0,0,366.94,92.87Z" style="opacity:0.67;fill:url(#linear-gradient-13)"/><path d="M264.21,117.35a17.28,17.28,0,0,1-5.48,5.61s-8.1,4.76-14,6.78-15.42,6.61-31,6.06-15-12.84-15-12.84a20.07,20.07,0,0,1,10.62-16.67c8.19-4.19,18.14-2.18,27.09-4.28a35.61,35.61,0,0,0,7.09-2.52,35.85,35.85,0,0,1,5.91-2.55,13.6,13.6,0,0,1,14.23,5.18A14.34,14.34,0,0,1,264.21,117.35Z" style="opacity:0.67;fill:url(#linear-gradient-14)"/><path d="M345.75,451c-3.83,2.56-8.78,4.15-14.32,5.12,0,0-20.06,2.59-34.16,2.45s-37.42,1.47-73-7.24S200,427.74,200,427.69c3.62-12.18,16.42-18.83,27.63-20.55,16.12-2.47,22.83.54,39.14.73s35.6.49,51.07,5.54c11.16,3.65,23.78,5.82,31.27,15.85C354.93,437,353.42,445.88,345.75,451Z" style="opacity:0.67;fill:url(#linear-gradient-15)"/><path d="M344.83,363.69a13.1,13.1,0,0,1-2.64,5.4c-5.93,7.63-15.93,11.36-24.37,14.49-6.38,2.36-17.47,2.75-34.44,2.1S267,370.62,267,370.62c.33-8.06,8.75-13.83,15.44-17.52,8.9-4.92,15.83-4.59,25.57-7.05a36.56,36.56,0,0,0,7.7-3,38.09,38.09,0,0,1,6.42-3c5.64-1.65,12.08.94,15.47,6.07C341.39,351.88,346.12,357.45,344.83,363.69Z" style="opacity:0.67;fill:url(#linear-gradient-16)"/><path d="M280.15,75.7c-5.36-2-12.45-4.17-16.57,1.09-2.6,3.31-.33,7.8,1.3,11.12,2.24,4.55,5.5,8.51,8.76,12.37a24.49,24.49,0,0,0,6.31,5.88c5.71,3.24,9.5-.76,14-3.88,2.24-1.55,4.25-3.43,6.45-5A8.42,8.42,0,0,0,304,92.62c.61-2.43-.92-3.58-2.75-5.1A67.51,67.51,0,0,0,281.7,76.28Z" style="opacity:0.67;fill:url(#linear-gradient-17)"/><path d="M251.65,283.2c-10.22,1.81-23.38,4.82-25,16.84-1.05,7.59,6.61,12.57,12.2,16.29,7.68,5.11,16.44,8.34,25.07,11.43,12.94,4.62,31.86,17,40.92.39,2.61-4.81,4.2-10.33,8-14.26,1.63-1.67,3.6-3,5.25-4.64,6.83-6.83,0-17.19-6-22.14-4.16-3.46-9.79-4.53-15.19-4.86-14.3-.9-28-2.05-42.27.43C253.67,282.84,252.67,283,251.65,283.2Z" style="opacity:0.67;fill:url(#linear-gradient-18)"/><path d="M192.26,123s8.62,12.11-4.78,16.33c-6.55,2.06-22.09,1.72-29.38-2.76-7.62-4.68-6.86-13.57-6.86-13.57a8.05,8.05,0,0,1,3.55-5.68c3.65-2.34,8.4-1.32,12.74-1.06,4.19.24,8.4-.33,12.59,0s8.56,1.77,11.09,5.12A10.59,10.59,0,0,1,192.26,123Z" style="opacity:0.67;fill:url(#linear-gradient-19)"/><path d="M355.44,235.66s-6.52,33.89-34.67,20.54c-13.75-6.52-27.48-26.09-31.53-44.92-4.23-19.7,3-32.52,3-32.52,4.27-3.45,8.38-11.13,13.51-10.29,9.67,1.61,15.44,10.64,21.87,17.73,6.2,6.84,13.79,12.33,19.83,19.32s10.57,16.16,9,25.76A29.25,29.25,0,0,1,355.44,235.66Z" style="opacity:0.67;fill:url(#linear-gradient-20)"/><path d="M234,232.45s3.48,52.93-28.88,59.32C189.34,294.9,166,288,161.34,263.29c-4.86-25.85-10.88-45.8-8.84-63.2s27-24.76,35.64-23.81c19.67,2.16,48.9,32.52,47.09,48.54C234.94,227.44,234.54,230,234,232.45Z" style="opacity:0.67;fill:url(#linear-gradient-21)"/><path d="M242.44,94.75c3.47-2.31,6.76-7.89,1.69-10.71a6.72,6.72,0,0,0-4.2-.55c-2.63.38-5.14,1.55-7.8,1.62-3.09.09-6-1.31-9-2-8.28-2-10.73,4.91-11.84,11.76a5.69,5.69,0,0,0,.23,3.68c.77,1.38,2.5,1.86,4.07,2.1A38.37,38.37,0,0,0,242.44,94.75Z" style="opacity:0.67;fill:url(#linear-gradient-22)"/><path d="M248.63,340.6a7.43,7.43,0,0,0,1.37-2.05,9,9,0,0,0,.92-5.45,5.91,5.91,0,0,0-3.17-4.38,6,6,0,0,0-5.89.83,9.52,9.52,0,0,0-3.3,5.16,7.23,7.23,0,0,0-.28,2.92c.41,3.09,3.89,5.17,7,4.66A6.2,6.2,0,0,0,248.63,340.6Z" style="opacity:0.67;fill:url(#linear-gradient-23)"/><path d="M253.65,360.7c4.14-2.75,8.06-9.4,2-12.76a8,8,0,0,0-5-.65c-3.14.44-6.13,1.84-9.3,1.93-3.68.1-7.15-1.56-10.73-2.42-9.86-2.37-12.77,5.85-14.09,14-.24,1.47-.46,3.08.27,4.38.92,1.65,3,2.21,4.84,2.5A45.65,45.65,0,0,0,253.65,360.7Z" style="opacity:0.67;fill:url(#linear-gradient-24)"/><path d="M221.6,388.49a7.8,7.8,0,0,0,2.67.33,7.1,7.1,0,0,0,5.1-2,6.19,6.19,0,0,0,1.24-5.82,9.73,9.73,0,0,0-5-5.83,9.44,9.44,0,0,0-6.6-.66,5.55,5.55,0,0,0-2.58,1.3c-2.2,2.16-1.36,7,1.29,10A9.12,9.12,0,0,0,221.6,388.49Z" style="opacity:0.67;fill:url(#linear-gradient-25)"/><path d="M250.09,382.94a6.13,6.13,0,0,0,2-1,4.51,4.51,0,0,0,2.13-3.58,5.26,5.26,0,0,0-2.88-4.12,11.35,11.35,0,0,0-7.06-1.29,7.78,7.78,0,0,0-4.86,2.63,3.46,3.46,0,0,0-.9,2c-.1,2.33,3.57,4.92,7.27,5.53A9.71,9.71,0,0,0,250.09,382.94Z" style="opacity:0.67;fill:url(#linear-gradient-26)"/><path d="M189.54,393.76c3.19,4.41,11.39,9,16.2,3.34a6.47,6.47,0,0,0,1.24-4.92c-.32-3.18-4.22-33.25-14.58-35.42-1.87-.39-3.91-.77-5.65-.18-2.18.74-3.07,2.74-3.6,4.57C180,372,182.37,383.84,189.54,393.76Z" style="opacity:0.67;fill:url(#linear-gradient-27)"/><path d="M214,152.22c-6.24,2.61-12.82,12.92-4.8,14.95,2.25.56,34.71,14.2,41.29,15,14,1.72,17.15-9.32,20.51-19.32.6-1.81,1.21-3.79.44-5.59-1-2.26-3.71-3.39-6.23-4.14C250.29,148.68,228.05,146.35,214,152.22Z" style="opacity:0.67;fill:url(#linear-gradient-28)"/><path d="M346.62,306.71c-7.56-1.44-18.75,4.09-16.13,13.5,1.59,5.68,15.73,22.11,22,26.79,13.36,9.95,38.78,10.34,46.88,3.48,1.47-1.24,3-2.63,3.08-4.68.09-2.59-2.17-5.25-4.37-7.44C385,325.42,363.6,310,346.62,306.71Z" style="opacity:0.67;fill:url(#linear-gradient-29)"/><path d="M298.44,123s9.05,17,8.37,20.92c-1.1,6.42-11.12,8.46-17.26,7.89-9.59-.89-17.64-10-20-13-5.5-7.16-1.73-15.78-1.73-15.78.1-.29.21-.57.32-.85a16.33,16.33,0,0,1,2.6-5c2.4-2.8,6.32-3.65,9.94-4.35,2.38-.46,4.86-.91,7.21-.32,2.62.66,4.76,2.55,6.53,4.6A32.56,32.56,0,0,1,298.44,123Z" style="opacity:0.67;fill:url(#linear-gradient-30)"/><polygon points="238.03 74.07 242.33 47.47 246.74 57.88 267.81 54.91 317.16 65.99 321.15 83.21 267.32 66.94 238.03 74.07" style="fill:#e5e5e5"/><polygon points="317.16 65.99 330.62 54.91 330.46 70.12 321.15 83.21 317.16 65.99" style="fill:#d8d8d8"/><polygon points="330.62 54.91 376.92 52.95 381.44 60.48 330.46 70.12 330.62 54.91" style="fill:#e5e5e5"/><polygon points="145.49 106.74 145.49 97.56 168.05 103.5 189.41 98.83 198.6 90.4 203.47 98.51 192.56 108.18 168.05 111.73 145.49 106.74" style="fill:url(#linear-gradient-31)"/><polygon points="187.51 44.75 181.38 70.16 189.12 74.6 194.32 49.84 187.51 44.75" style="fill:url(#linear-gradient-32)"/><polygon points="380.27 95.21 388.02 88.95 375.2 77.38 365.71 84.64 380.27 95.21" style="fill:url(#linear-gradient-33)"/><path d="M303.88,103.44l-9.38,5.89s79.06,109.93,99.15,158.61C410.89,309.71,445.51,429,445.51,429l17.08-1.32S440,345.49,404.53,261.43C377.9,198.27,303.88,103.44,303.88,103.44Z" style="fill:url(#linear-gradient-34)"/><path d="M165.71,60.92a122.67,122.67,0,0,0-28.2,13.72,27.94,27.94,0,0,0-6.67,5.61c-2.93,3.7-3.34,9.21,2.45,8.85a68.3,68.3,0,0,0,34.63-12c3-2.08,6-4.61,7.06-8.09s-.57-8-4.13-8.8A9.85,9.85,0,0,0,165.71,60.92Z" style="fill:#c4ff66;opacity:0.2"/><path d="M98.16,115.86a160,160,0,0,0-39.69,25.08,43.81,43.81,0,0,0-9.39,10.25c-4.12,6.75-4.7,16.82,3.46,16.17,17.37-1.37,34.43-9.06,48.73-22,4.21-3.8,8.4-8.42,9.93-14.77s-.8-14.65-5.81-16.08C103,113.88,100.49,114.84,98.16,115.86Z" style="fill:#c4ff66;opacity:0.2"/><path d="M179.65,87.17c1.35-2,2.08-4.68.77-6.66-3.18-4.76-11.11-.46-12.35,3.88a4.48,4.48,0,0,0,.51,3.91c1,1.35,2.87,1.73,4.56,1.83a8.07,8.07,0,0,0,3.81-.51A6.91,6.91,0,0,0,179.65,87.17Z" style="fill:#c4ff66;opacity:0.2"/><path d="M156.47,92.81c5.24,1.2,8.74-6.32,3.09-6.61a4.62,4.62,0,0,0-3.29,1.7A5.28,5.28,0,0,0,154.83,90a2.22,2.22,0,0,0,.51,2.35A2.82,2.82,0,0,0,156.47,92.81Z" style="fill:#c4ff66;opacity:0.2"/><path d="M105.49,177.47c2.4-3.83,3.7-9.18,1.36-13.05-5.63-9.35-19.69-.91-21.89,7.6a9.58,9.58,0,0,0,.92,7.67c1.8,2.65,5.09,3.38,8.08,3.57a12.88,12.88,0,0,0,6.75-1A12.76,12.76,0,0,0,105.49,177.47Z" style="fill:#c4ff66;opacity:0.2"/><path d="M64.4,188.52c9.3,2.35,15.49-12.39,5.48-13-2.25-.13-4.23,1.57-5.82,3.33a10.63,10.63,0,0,0-2.56,4.05,4.68,4.68,0,0,0,.9,4.6A4.47,4.47,0,0,0,64.4,188.52Z" style="fill:#c4ff66;opacity:0.2"/><path d="M423.44,99.28c2.85-.14,5.33-.83,6.84-2.39,9.2-9.51-26.53-34.28-33.71-19.67a8.7,8.7,0,0,0-.65,4.79c.64,5.86,5,10.88,10.25,13.54A41.12,41.12,0,0,0,423.44,99.28Z" style="fill:#c4ff66;opacity:0.2"/><path d="M410.5,150.66c4.05-.17,7.59-1.09,9.75-3.16,13.12-12.59-37.85-45.39-48.08-26a10.7,10.7,0,0,0-.93,6.33c.92,7.77,7.11,14.41,14.62,17.94C390.78,148,401.82,151,410.5,150.66Z" style="fill:#c4ff66;opacity:0.2"/><path d="M465.48,139.71c3.8-.18,7.13-1.11,9.15-3.21,12.32-12.78-35.53-46.06-45.14-26.43a11.67,11.67,0,0,0-.88,6.43c.87,7.89,6.68,14.62,13.73,18.2C447,137.05,457.33,140.09,465.48,139.71Z" style="fill:#c4ff66;opacity:0.2"/><path d="M396.17,105.9a4.76,4.76,0,0,0,1.45-1.15c1.55-1.77,1.93-4.68.38-6.45a5.21,5.21,0,0,0-3-1.58c-1.83-.34-4,.15-5,1.74a4.47,4.47,0,0,0-.59,2.59,5.79,5.79,0,0,0,2.09,4.29A4.45,4.45,0,0,0,396.17,105.9Z" style="fill:#c4ff66;opacity:0.2"/><path d="M409.21,379.18c5.22,13.56,14.08,51.64-15.65,54.77s-37-18.78-32.34-30.78S387.65,323.12,409.21,379.18Z" style="fill:url(#linear-gradient-35)"/></g></svg>