<svg xmlns="http://www.w3.org/2000/svg" xmlns:xlink="http://www.w3.org/1999/xlink" viewBox="0 0 237.74 275.42"><defs><linearGradient id="linear-gradient" x1="-147.08" y1="-1343.54" x2="-104.52" y2="-1325.3" gradientTransform="matrix(0.8, 0.6, -0.6, 0.8, -548.55, 1204.12)" gradientUnits="userSpaceOnUse"><stop offset="0" stop-color="#39b8b8"/><stop offset="1" stop-color="#56519f"/></linearGradient><linearGradient id="linear-gradient-2" x1="-3811.28" y1="-1343.41" x2="-3773.55" y2="-1327.23" gradientTransform="matrix(-0.8, -0.6, -0.6, 0.8, -3631.35, -1105.9)" xlink:href="#linear-gradient"/><linearGradient id="未命名漸層_12" x1="-117.09" y1="-1386.71" x2="-57.9" y2="-1345.21" gradientTransform="matrix(0.8, 0.6, -0.6, 0.8, -548.55, 1204.12)" gradientUnits="userSpaceOnUse"><stop offset="0" stop-color="#d6d6ff"/><stop offset="1" stop-color="#fff"/></linearGradient><linearGradient id="linear-gradient-3" x1="-152.23" y1="-1345.83" x2="-38.55" y2="-1307.93" xlink:href="#linear-gradient"/><linearGradient id="linear-gradient-4" x1="-167.93" y1="-1350.81" x2="-60.73" y2="-1315.08" gradientTransform="matrix(0.8, 0.6, -0.6, 0.8, -548.55, 1204.12)" gradientUnits="userSpaceOnUse"><stop offset="0" stop-color="#39b8b8"/><stop offset="1" stop-color="#22457e"/></linearGradient><linearGradient id="linear-gradient-5" x1="-108.75" y1="-1428.48" x2="-72.18" y2="-1412.8" xlink:href="#linear-gradient"/><linearGradient id="linear-gradient-6" x1="-112.64" y1="-1401.04" x2="-66.82" y2="-1372.97" gradientTransform="matrix(-0.25, 0.97, -0.97, -0.25, -1159.62, -216.03)" xlink:href="#linear-gradient"/><linearGradient id="linear-gradient-7" x1="-75.74" y1="-1377.7" x2="-114.89" y2="-1403.32" gradientTransform="matrix(0.71, 0.71, -0.71, 0.71, -707.39, 1084)" gradientUnits="userSpaceOnUse"><stop offset="0" stop-color="#3b2757"/><stop offset="1" stop-color="#7c5890"/></linearGradient><linearGradient id="linear-gradient-8" x1="-84.84" y1="-1383.66" x2="-123.99" y2="-1409.27" gradientTransform="matrix(0.8, 0.6, -0.6, 0.8, -548.55, 1204.12)" xlink:href="#linear-gradient-7"/><linearGradient id="linear-gradient-9" x1="-103.74" y1="-1338.85" x2="-52.25" y2="-1321.68" xlink:href="#linear-gradient"/><linearGradient id="linear-gradient-10" x1="-113.15" y1="-1342.08" x2="-61.65" y2="-1324.91" xlink:href="#linear-gradient"/></defs><title>MD2019-素材</title><g id="_1-kv-planet" data-name="1-kv-planet"><path d="M151,158a9.41,9.41,0,1,0-1.89-13.18A9.41,9.41,0,0,0,151,158Z" style="fill:#ebf0f1;opacity:0.5"/><path d="M70.27,133.21A9.42,9.42,0,1,0,68.38,120,9.42,9.42,0,0,0,70.27,133.21Z" style="fill:#ebf0f1;opacity:0.5"/><path d="M126.24,115.89a5.7,5.7,0,1,0-1.14-8A5.71,5.71,0,0,0,126.24,115.89Z" style="fill:#ebf0f1;opacity:0.5"/><path d="M150.72,212.12A14.37,14.37,0,1,0,147.83,192,14.35,14.35,0,0,0,150.72,212.12Z" style="fill:#ebf0f1;opacity:0.5"/><path d="M165.27,110.75a3.41,3.41,0,1,1-.68-4.78A3.42,3.42,0,0,1,165.27,110.75Z" style="fill:#ebf0f1;opacity:0.5"/><path d="M168.81,41.58S138,36.23,130.06,73.45a1.94,1.94,0,0,0,3.07,1.92,31.36,31.36,0,0,1,11.37-6.16A25,25,0,0,1,156.69,69Z" style="fill:url(#linear-gradient)"/><path d="M215.77,76.78s13.79,28-19.69,46.13a1.94,1.94,0,0,1-2.71-2.4,31.32,31.32,0,0,0,2.72-12.64A25,25,0,0,0,192.9,96.1Z" style="fill:url(#linear-gradient-2)"/><path d="M211.89,83.05C234.72,52.59,240.64,4.67,236,1.18c-4.27-3.2-49,15.65-71.81,46.11-4.13,5.52-10.83,21.9-11.31,31.87l31.62,23.7C193.62,99.62,207.76,88.56,211.89,83.05Z" style="fill:url(#未命名漸層_12)"/><path d="M154.77,68.82a48.48,48.48,0,0,0-1.91,10.34l31.62,23.7a50.24,50.24,0,0,0,9.34-4.78Z" style="fill:url(#linear-gradient-3)"/><path d="M165.57,76.91c-.87,2.68-2.92,9-3,9.51l12.85,9.63c2.62-1.86,4.43-3.87,7.54-6.13Z" style="fill:url(#linear-gradient-4)"/><path d="M235.94,23.37c2.79-12.21,1.76-22.45.7-23.25s-10.81,1.63-21.78,7.45Z" style="fill:url(#linear-gradient-5)"/><circle cx="209.83" cy="36.26" r="13.8" transform="translate(95.84 216.11) rotate(-67.44)" style="fill:url(#linear-gradient-6)"/><circle cx="209.83" cy="36.26" r="9.91" transform="translate(-3.03 30.3) rotate(-8.2)" style="fill:url(#linear-gradient-7)"/><path d="M215.75,32.59a7.9,7.9,0,0,1,3.39,7.06A9.91,9.91,0,1,0,202.54,43C199.57,36,208.17,26.91,215.75,32.59Z" style="fill:url(#linear-gradient-8)"/><path d="M162.43,99.07l-.05,0a3.64,3.64,0,0,1-.92-4.82l14.67-24,11.11-10.78a3.87,3.87,0,0,1,5-.32l.05,0a3.87,3.87,0,0,1,1.07,4.95L185.76,78,167.33,98.58A3.65,3.65,0,0,1,162.43,99.07Z" style="fill:url(#linear-gradient-9)"/><path d="M193.37,64.13a3.87,3.87,0,0,0-1.07-4.95l-.05,0h0L162.34,99l0,0,.05,0a3.65,3.65,0,0,0,4.9-.49L185.76,78Z" style="fill:url(#linear-gradient-10)"/><path d="M192.1,93.26c-2.65-.42-9.13-6.67-9.13-6.67,22.66-4.39,39-32.65,39.87-32s-5.09,18-14.71,27.47C200.66,89.37,194.72,93.67,192.1,93.26Z" style="fill:#ddd;opacity:0.75"/><path d="M211.26,41.79a3.56,3.56,0,1,1-.71-5A3.56,3.56,0,0,1,211.26,41.79Z" style="fill:#ffe6f7;opacity:0.4"/><path d="M216.67,38.56a1.68,1.68,0,1,1-.34-2.35A1.67,1.67,0,0,1,216.67,38.56Z" style="fill:#ffe6f7;opacity:0.4"/><path d="M163.65,43.83s-10.88-.4-18.7,6.1c-7.61,6.33-10.76,16.42-10.76,16.42a79.78,79.78,0,0,1,13.28-13.84A46.41,46.41,0,0,1,163.65,43.83Z" style="fill:#ffe6f7;opacity:0.4"/><path d="M178.37,74.71c-1.91,2.54-3.86,4.29-4.38,3.9s.62-2.75,2.52-5.29,3.86-4.29,4.38-3.91S180.27,72.17,178.37,74.71Z" style="fill:#ffe6f7;opacity:0.4"/><path d="M184.7,66.25c-.81,1.09-1.79,1.73-2.19,1.43s0-1.42.76-2.5,1.8-1.73,2.19-1.43S185.52,65.16,184.7,66.25Z" style="fill:#ffe6f7;opacity:0.4"/><path d="M236.65,10.64s-.84,10.48-1.86,10.47-17.94-13-17.94-13,13.91,8.71,15.75,8.3S236.65,10.64,236.65,10.64Z" style="fill:#ffe6f7;opacity:0.4"/><path d="M154.58,112.23a4.5,4.5,0,0,0-.45-.31h0a5.52,5.52,0,1,0-7.09-1,8.23,8.23,0,0,0-4.15,3,8.34,8.34,0,0,0-1.59,6.24,11.16,11.16,0,0,0-9.14,4.46,11.5,11.5,0,0,0-1.5,2.74,8.88,8.88,0,0,0-14.92-1.06,8.84,8.84,0,0,0-1.41,2.83l-.44-.37a10.25,10.25,0,0,0-16.16,10.44A13.84,13.84,0,0,0,80,142.7c-11.94-12-40.07-12.36-49.36,13.06a42.22,42.22,0,1,0,34.06,76.33c0,.37,0,.74,0,1.11a42.22,42.22,0,1,0,65.42-35.27A14.39,14.39,0,0,0,137.38,176a11.16,11.16,0,0,0,2.56-19.31,9.39,9.39,0,0,0-.86-.59,8.37,8.37,0,1,0-13.48-.2,10,10,0,0,0,.77.93,10.9,10.9,0,0,0-2.08,2.1,11.25,11.25,0,0,0-1.42,2.55,16.64,16.64,0,0,0-6.69-6.25l.44-.51a8.91,8.91,0,0,0-.77-11.55l.07-.09a10,10,0,0,0,1.86-4.2A8.87,8.87,0,0,0,130,137a8.53,8.53,0,0,0,.82-1.33,11.17,11.17,0,0,0,20.64-8.53,8.36,8.36,0,0,0,3.17-14.86Z" style="fill:#ebf0f1;opacity:0.5"/></g></svg>