<svg xmlns="http://www.w3.org/2000/svg" viewBox="0 0 50.77 24.95"><title>deco-sub-title</title><g id="title"><circle cx="25.34" cy="12.48" r="12.47" style="fill:#9195be"/><path d="M50.07,13.83s0,0,0,0a3,3,0,0,0,.33-.49.91.91,0,0,1,.07-.14,3.12,3.12,0,0,0,.15-.39s0-.1,0-.15a2.51,2.51,0,0,0,.07-.55,3.11,3.11,0,0,0-.1-.61l-.06-.17a3.55,3.55,0,0,0-.21-.44l-.08-.14a4,4,0,0,0-.42-.52l-.11-.1a5.63,5.63,0,0,0-.45-.38l-.2-.15a5.69,5.69,0,0,0-.52-.33l-.18-.12c-.24-.13-.49-.25-.75-.37l-.31-.14-.54-.23-.39-.14c-.18-.07-.37-.14-.57-.2l-.74-.23-.48-.14-.6-.16-.35-.09q-1.18-.29-2.4-.51h0c-1.74-.32-3.45-.55-4.9-.7l-.32,0a13.17,13.17,0,0,1,.94,2c1.48.17,2.78.37,4,.59l.69.14.4.08.67.15.3.07q1.16.28,2.07.57l.16.06.49.17.23.08.41.16.22.09.35.16.19.09.31.15.16.1L48,11l.19.13.13.11.15.12.09.1.11.13.07.09a.83.83,0,0,1,.07.13l0,.07a.58.58,0,0,1,0,.18.91.91,0,0,1-.09.34.41.41,0,0,1,0,.09,2,2,0,0,1-.24.31s0,0-.05.05a3,3,0,0,1-.45.36l-.15.1a4.7,4.7,0,0,1-.5.29l-.16.09q-.34.18-.78.36l-.24.1-.73.28-.3.11-1.08.34-.31.09-1,.26-.44.11L41,15.69l-.3.06c-.41.09-.82.17-1.25.24l-.57.1-1.36.22-.35.06a91.6,91.6,0,0,1-11.74.87,91.66,91.66,0,0,1-11.84-.56h0c-.76-.09-1.5-.2-2.22-.31l-.88-.14-.65-.12c-.52-.09-1-.19-1.51-.3-5.12-1.13-6.49-2.51-6.49-3.08a.68.68,0,0,1,0-.19l0-.06L2,12.34l.06-.09.11-.12a.52.52,0,0,1,.1-.11l.13-.12s.09-.09.15-.13l.14-.1.21-.15,0,0c.23-.14.49-.29.79-.44l0,0,.43-.2.13-.06c.15-.07.31-.14.48-.2L5,10.5l.55-.2.16-.06L6.3,10l.08,0C7.13,9.77,8,9.54,9,9.31l.11,0,.83-.18c1.09-.23,2.29-.45,3.64-.64a12.88,12.88,0,0,1,.88-2l-.27,0C12.7,6.7,11,7,9.26,7.35h0c-.8.17-1.59.36-2.37.58L6.55,8,6,8.2l-.45.14-.74.26-.57.21L3.81,9l-.53.24L3,9.36c-.26.12-.5.26-.73.39l-.17.11c-.18.12-.35.23-.51.35a1.56,1.56,0,0,0-.2.16,4.21,4.21,0,0,0-.44.39l-.11.1a3.88,3.88,0,0,0-.4.53l-.08.14A2.44,2.44,0,0,0,.14,12l-.06.17a2.49,2.49,0,0,0-.08.61c0,2.07,2.7,3.71,7.94,4.87l.35.08h.09L9.9,18l1,.15.56.09c.44.07.88.13,1.34.18l.2,0,1.55.18h0a95.36,95.36,0,0,0,9.54.47h1.41a98.28,98.28,0,0,0,10.88-.77h0c1.41-.18,2.79-.39,4.1-.65h.1c.87-.17,1.71-.36,2.51-.55h0l1.07-.29.18-.05,1-.31,0,0c.34-.11.67-.23,1-.35l.14-.06.74-.3.2-.1q.38-.17.72-.36l.06,0c.24-.13.47-.27.68-.41l.14-.11a5.3,5.3,0,0,0,.45-.34.86.86,0,0,0,.14-.13A4.16,4.16,0,0,0,50.07,13.83Z" style="fill:#0b147b"/></g></svg>