<svg xmlns="http://www.w3.org/2000/svg" xmlns:xlink="http://www.w3.org/1999/xlink" viewBox="0 0 234.98 264.84"><defs><linearGradient id="linear-gradient" x1="-2229.74" y1="920.87" x2="-2201.95" y2="920.87" gradientTransform="matrix(-0.07, 1, -1, -0.07, 835.95, 2402.18)" gradientUnits="userSpaceOnUse"><stop offset="0" stop-color="#31577c"/><stop offset="1" stop-color="#381b6b"/></linearGradient><linearGradient id="linear-gradient-2" x1="-675.21" y1="-14.94" x2="-647.42" y2="-14.94" gradientTransform="translate(638.66 481.82) rotate(25.57)" xlink:href="#linear-gradient"/><linearGradient id="linear-gradient-3" x1="-1856.24" y1="348.08" x2="-1817.34" y2="348.08" gradientTransform="matrix(0.34, 0.94, -0.94, 0.34, 1041.97, 1722.47)" gradientUnits="userSpaceOnUse"><stop offset="0" stop-color="#fff"/><stop offset="1" stop-color="#7ec5ff"/></linearGradient><linearGradient id="linear-gradient-4" x1="-2227.64" y1="933.6" x2="-2198.1" y2="933.6" gradientTransform="matrix(-0.07, 1, -1, -0.07, 835.95, 2402.18)" xlink:href="#linear-gradient-3"/><linearGradient id="linear-gradient-5" x1="580.9" y1="573.11" x2="621.49" y2="336.89" gradientTransform="translate(-535.32 -136.51) rotate(-20.23)" gradientUnits="userSpaceOnUse"><stop offset="0" stop-color="#def9ff"/><stop offset="1" stop-color="#6aa6c0"/></linearGradient><linearGradient id="linear-gradient-6" x1="592.85" y1="401.92" x2="452.85" y2="581.15" gradientTransform="translate(-535.32 -136.51) rotate(-20.23)" xlink:href="#linear-gradient-3"/><linearGradient id="linear-gradient-7" x1="499.02" y1="363.51" x2="624.54" y2="447.2" gradientTransform="translate(-535.32 -136.51) rotate(-20.23)" xlink:href="#linear-gradient-3"/><linearGradient id="linear-gradient-8" x1="504.6" y1="370.18" x2="569.24" y2="422.4" gradientTransform="translate(-535.32 -136.51) rotate(-20.23)" xlink:href="#linear-gradient"/><linearGradient id="linear-gradient-9" x1="770.28" y1="764.17" x2="798.21" y2="764.17" gradientTransform="matrix(0.85, -0.53, 0.53, 0.85, -881.78, -122.85)" xlink:href="#linear-gradient"/><linearGradient id="linear-gradient-10" x1="565.62" y1="461.34" x2="604.53" y2="461.34" gradientTransform="translate(-535.32 -136.51) rotate(-20.23)" xlink:href="#linear-gradient-3"/><linearGradient id="linear-gradient-11" x1="740.1" y1="722.35" x2="769.78" y2="722.35" gradientTransform="translate(-817.2 -131.26) rotate(-29.7)" xlink:href="#linear-gradient-3"/><linearGradient id="linear-gradient-12" x1="-581.94" y1="-104.05" x2="-559.7" y2="-107.76" gradientTransform="matrix(0.89, 0.45, -0.45, 0.89, 684.65, 480.33)" xlink:href="#linear-gradient-3"/><linearGradient id="linear-gradient-13" x1="-584.04" y1="-108.63" x2="-577.62" y2="-92.89" gradientTransform="matrix(0.89, 0.45, -0.45, 0.89, 684.65, 480.33)" xlink:href="#linear-gradient"/><linearGradient id="linear-gradient-14" x1="424.67" y1="444.52" x2="448.76" y2="466.16" gradientTransform="translate(-535.32 -136.51) rotate(-20.23)" xlink:href="#linear-gradient-3"/><linearGradient id="linear-gradient-15" x1="-1824.87" y1="406.64" x2="-1818.45" y2="422.37" gradientTransform="matrix(-0.94, 0.33, 0.33, 0.94, -1812.78, 349.16)" xlink:href="#linear-gradient"/><linearGradient id="linear-gradient-16" x1="456.92" y1="479.97" x2="473.58" y2="517.51" gradientTransform="translate(-535.32 -136.51) rotate(-20.23)" xlink:href="#linear-gradient-3"/><linearGradient id="linear-gradient-17" x1="537.24" y1="631.75" x2="544.2" y2="675.65" gradientTransform="translate(-743.06 -141.22) rotate(-27.11)" xlink:href="#linear-gradient-3"/><linearGradient id="linear-gradient-18" x1="-1719.41" y1="343.56" x2="-1693.37" y2="343.56" gradientTransform="translate(1050.23 1589.52) rotate(64.78)" xlink:href="#linear-gradient-3"/><linearGradient id="linear-gradient-19" x1="-1706.39" y1="336.79" x2="-1692.2" y2="336.79" gradientTransform="translate(1050.23 1589.52) rotate(64.78)" xlink:href="#linear-gradient"/><linearGradient id="linear-gradient-20" x1="-1413.33" y1="2971.71" x2="-1385.54" y2="2971.71" gradientTransform="matrix(0.57, 0.82, 0.82, -0.57, -1527.91, 3056.33)" xlink:href="#linear-gradient"/><linearGradient id="linear-gradient-21" x1="494.44" y1="526.22" x2="540.32" y2="555.93" gradientTransform="translate(-535.32 -136.51) rotate(-20.23)" xlink:href="#linear-gradient-3"/><linearGradient id="linear-gradient-22" x1="466.71" y1="557.72" x2="513.85" y2="594.07" gradientTransform="translate(-535.32 -136.51) rotate(-20.23)" xlink:href="#linear-gradient-3"/><linearGradient id="linear-gradient-23" x1="453.23" y1="576.07" x2="488.51" y2="598.65" gradientTransform="translate(-535.32 -136.51) rotate(-20.23)" xlink:href="#linear-gradient-3"/><linearGradient id="linear-gradient-24" x1="464" y1="569.28" x2="484.89" y2="590.73" gradientTransform="translate(-535.32 -136.51) rotate(-20.23)" xlink:href="#linear-gradient"/><linearGradient id="linear-gradient-25" x1="519.44" y1="441.47" x2="536.4" y2="514.1" gradientTransform="translate(-535.32 -136.51) rotate(-20.23)" xlink:href="#linear-gradient"/><linearGradient id="linear-gradient-26" x1="70.31" y1="106.18" x2="70.6" y2="83.6" gradientTransform="translate(139.96 47.22) rotate(3.29)" xlink:href="#linear-gradient"/></defs><title>astronaut</title><g id="deco"><path d="M69.44,141.89A13.9,13.9,0,1,1,84.26,129,13.9,13.9,0,0,1,69.44,141.89Z" style="fill:url(#linear-gradient)"/><path d="M61.08,188.91a13.9,13.9,0,1,1-6.54-18.53A13.91,13.91,0,0,1,61.08,188.91Z" style="fill:url(#linear-gradient-2)"/><path d="M63.14,114.41S93.42,80.1,107.62,94.07s-23.33,42.3-23.33,42.3-1.88-6-8.52-12.85A43.52,43.52,0,0,0,63.14,114.41Z" style="fill:url(#linear-gradient-3)"/><path d="M61.36,115.57A39,39,0,0,0,63,130.51c3.28,9.61,7.06,12.61,7.06,12.61s-21.7,6.07-25.79-4.6C39.83,126.89,61.36,115.57,61.36,115.57Z" style="fill:url(#linear-gradient-4)"/><path d="M196.63,42.08c-7.39-3-26.43,5.31-31.53,11.5,6.13,13.66,17.57,45.15,12.33,81a87.15,87.15,0,0,1-7.51,24.34c10.61,3.79,29.91,7.41,37.51,3.1,7.11-4,14.42-36,11.21-64.29S208.64,46.93,196.63,42.08Z" style="fill:url(#linear-gradient-5)"/><path d="M165.1,53.58c-2.08-4.63-3.55-7.22-3.55-7.22L96.23,87s10.56,21,.15,44.49c-8.48,19.13-24.13,19.58-26.23,27.27-6.24,22.79,51.2,36.19,70.79,31.67,9-2.09,21.07-14.77,29-31.52a87.15,87.15,0,0,0,7.51-24.34C182.67,98.73,171.23,67.24,165.1,53.58Z" style="fill:url(#linear-gradient-6)"/><path d="M157.19,26.24c-.43-.9-.85-1.8-1.37-2.67-.2-.41-.44-.8-.68-1.2-.53-.91-1.1-1.8-1.71-2.69a.19.19,0,0,0-.09-.11c-.72-1-1.48-2.05-2.27-3s-1.57-1.78-2.37-2.64a47.57,47.57,0,0,0-6.13-5.3c-.91-.63-1.82-1.25-2.75-1.83S137.91,5.67,137,5.16a1.65,1.65,0,0,1-.35-.16,24.5,24.5,0,0,0-3.37-1.56c-.1,0-.17-.08-.29-.13-1-.38-2.11-.76-3.2-1.13s-2-.61-3.08-.89l-.83-.17a36.9,36.9,0,0,0-7-1c-1.32-.1-2.64-.12-4-.09-1,0-1.91.1-2.86.18l-.73,0,0,0a45.24,45.24,0,0,0-33,19.36c-.13.19,13.17,64.75,13.5,65l0,0,.69.42,1.83,1.06c.64.29,1.25.65,1.89.94s1.28.59,1.9.84,1.3.53,2,.77a17,17,0,0,0,2,.67c.61.2,1.2.37,1.79.54.75.2,1.49.37,2.28.56s1.35.27,2.07.39a38.49,38.49,0,0,0,4.33.52c.64,0,1.33.09,2,.1s1.42,0,2.13,0c1.24,0,2.51-.11,3.76-.23a44.86,44.86,0,0,0,4.87-.78,20.48,20.48,0,0,0,2.08-.48c1.45-.39,2.88-.82,4.27-1.34a45.7,45.7,0,0,0,27.13-58.7A37.75,37.75,0,0,0,157.19,26.24Z" style="fill:url(#linear-gradient-7)"/><path d="M141.39,48.91c.41,12.36-2.83,21.07-5.34,23-3.89,3-9,6.34-29,10.68a96.7,96.7,0,0,1-15.24,2l0,0c-.33-.21-.69-.42-1-.64-.58-.41-1.15-.77-1.74-1.18A43.31,43.31,0,0,1,78.61,72.24c-.89-1.27-1.71-2.6-2.48-4-.54-1-1-1.93-1.5-2.93-.12-.24-.25-.46-.36-.7l.07.06c-.48-1-1-2.07-1.41-3.18a45.66,45.66,0,0,1,5.34-41.92C83,18,90.35,16.22,101.2,15.35c12.94-1.06,23.93,1,29.65,3.41a13,13,0,0,1,3.53,2.12C137.12,23.63,140.88,32.78,141.39,48.91Z" style="fill:url(#linear-gradient-8)"/><path d="M88,39.05C87,46.7,83,52.48,79.14,52S73,44.8,74.08,37.14s5-13.43,8.85-12.9S89,31.39,88,39.05Z" style="fill:#fff;opacity:0.67"/><path d="M95.34,23c-.91,2-2.67,3.22-3.93,2.66s-1.57-2.67-.67-4.7,2.67-3.23,3.93-2.66S96.24,20.93,95.34,23Z" style="fill:#fff;opacity:0.67"/><path d="M92.22,58.29c1.2,3.68.68,7.14-1.16,7.74s-4.31-1.88-5.51-5.55-.68-7.14,1.16-7.74S91,54.62,92.22,58.29Z" style="fill:#fff;opacity:0.67"/><path d="M199.4,105.25a14,14,0,1,1-19.23-4.49A14,14,0,0,1,199.4,105.25Z" style="fill:url(#linear-gradient-9)"/><path d="M173.92,120.33S139.43,90.25,153.33,76s42.43,23.08,42.43,23.08-6,1.91-12.8,8.6A43.36,43.36,0,0,0,173.92,120.33Z" style="fill:url(#linear-gradient-10)"/><path d="M182.15,127.12a39.34,39.34,0,0,0,11.58-9.71c6.21-8.1,6.61-12.93,6.61-12.93s17.16,14.77,10.52,24.13C203.61,138.82,182.15,127.12,182.15,127.12Z" style="fill:url(#linear-gradient-11)"/><path d="M214.46,123.91a8.7,8.7,0,0,0,6.61.62c3.41-1.06,6-5.94,8.22-4.79s6.6,5.53,5.52,8.32c-2,5.23-8.23,5.82-8.23,5.82s4.45.26,4.69,3.22-6.51,3.67-12.94.42-8.24-5.9-8.24-5.9Z" style="fill:url(#linear-gradient-12)"/><path d="M211.79,133a2.33,2.33,0,0,1-3.13,1h0a2.33,2.33,0,0,1-1-3.13l3.91-7.75a2.33,2.33,0,0,1,3.13-1h0a2.32,2.32,0,0,1,1,3.12Z" style="fill:url(#linear-gradient-13)"/><path d="M41.36,133.91a8.71,8.71,0,0,1-6.64-.24c-3.24-1.5-5.13-6.67-7.53-5.83s-7.26,4.62-6.56,7.53c1.31,5.45,7.4,6.85,7.4,6.85s-4.44-.33-5.07,2.58,6,4.48,12.77,2.11,9-4.78,9-4.78Z" style="fill:url(#linear-gradient-14)"/><path d="M42.82,143.23a2.32,2.32,0,0,0,3,1.43h0a2.33,2.33,0,0,0,1.43-3l-2.87-8.2a2.34,2.34,0,0,0-3-1.43h0A2.34,2.34,0,0,0,40,135Z" style="fill:url(#linear-gradient-15)"/><path d="M96.09,155.32c-8-13.6-50.69,12-50.69,12s-1.41,6,4,15.2,10.88,11.16,10.88,11.16S103.86,168.44,96.09,155.32Z" style="fill:url(#linear-gradient-16)"/><path d="M21.58,195C16,182.37,35.81,172.66,35.81,172.66s-1.05,6,3,15.29S48.71,200,48.71,200,27.05,207.43,21.58,195Z" style="fill:url(#linear-gradient-17)"/><path d="M20,190.86l-2.6.22s-3.86-4.58-9-6.08A26.22,26.22,0,0,0,0,183.75l8.7,18.46a5.62,5.62,0,0,0,7.49,2.69l5.86-2.76,2.18-2.27Z" style="fill:url(#linear-gradient-18)"/><path d="M24.53,202.26a2.19,2.19,0,0,1-2.92-1l-4.17-8.87a2.18,2.18,0,0,1,1-2.91h0a2.2,2.2,0,0,1,2.92,1l4.18,8.87a2.19,2.19,0,0,1-1,2.91Z" style="fill:url(#linear-gradient-19)"/><path d="M130.69,227.81a13.9,13.9,0,1,0-19.33-3.55A13.9,13.9,0,0,0,130.69,227.81Z" style="fill:url(#linear-gradient-20)"/><path d="M143.31,166.12c14.54,6.2-5.22,51.83-5.22,51.83s-5.73,2.18-15.58-1.93S110,206.7,110,206.7,129.28,160.15,143.31,166.12Z" style="fill:url(#linear-gradient-21)"/><path d="M109.62,242.82c12.4,6.07,22.9-13.32,22.9-13.32s-6,.81-15.16-3.61-11.64-10.38-11.64-10.38S97.42,236.85,109.62,242.82Z" style="fill:url(#linear-gradient-22)"/><path d="M113.69,244.57l-.32,2.59s4.42,4.05,5.71,9.19a26.53,26.53,0,0,1,.91,8.49L101.9,255.4a5.63,5.63,0,0,1-2.39-7.6l3-5.74,2.37-2.09Z" style="fill:url(#linear-gradient-23)"/><path d="M102.48,239.58a2.2,2.2,0,0,0,.93,2.95l8.7,4.53a2.18,2.18,0,0,0,3-.92h0a2.2,2.2,0,0,0-.93-3l-8.69-4.53a2.19,2.19,0,0,0-3,.93Z" style="fill:url(#linear-gradient-24)"/><path d="M104.94,102.94c-1.41,1.8.14,8-2,18.5-1.75,8.51-6.46,14.71-6,15.91s5.75,4.27,13,6.56c9.28,2.91,20.58,2.85,23.08,1.48s8.38-11.6,9.33-20.81c1.2-11.65-1.95-25.71-4.21-26.52s-8.2,1.94-18.91,3.38C109.63,102.72,106,101.63,104.94,102.94Z" style="fill:url(#linear-gradient-25)"/><path d="M208.77,143.27c-.17,2.88-2,5.12-4,5s-3.58-2.55-3.41-5.43,2-5.12,4-5S208.93,140.39,208.77,143.27Z" style="fill:url(#linear-gradient-26)"/><path d="M137.27,108.86c-.16,2.88-2,5.12-4,5s-3.58-2.55-3.41-5.43,2-5.11,4-5S137.44,106,137.27,108.86Z" style="fill:#fff"/><path d="M134.43,111.39c28.07,6,21.36,50.31,29.82,71,5.62,13.74,23.46,22.53,37.64,18.46,27.87-8,35.34-50.77,4.39-59.9-2.8-.82-3.55,3.63-.79,4.45,17,5,19.82,22.18,13,36.73-8.62,18.3-34.1,18.57-47,2.22-13.33-16.85-.07-69.62-36.22-77.37-2.85-.62-3.62,3.84-.79,4.44Z" style="fill:#fff"/></g></svg>