<svg xmlns="http://www.w3.org/2000/svg" xmlns:xlink="http://www.w3.org/1999/xlink" viewBox="0 0 635.51 376.22"><defs><linearGradient id="未命名漸層_18" x1="127.8" y1="1.62" x2="105.23" y2="29.15" gradientUnits="userSpaceOnUse"><stop offset="0" stop-color="#ee8c2d"/><stop offset="1" stop-color="#e9c650"/></linearGradient><linearGradient id="linear-gradient" x1="569.67" y1="136.8" x2="589.32" y2="156.67" gradientUnits="userSpaceOnUse"><stop offset="0" stop-color="#ff73a7"/><stop offset="1" stop-color="#e01e43"/></linearGradient><linearGradient id="未命名漸層_81" x1="129.83" y1="286.7" x2="143.34" y2="300.36" gradientUnits="userSpaceOnUse"><stop offset="0" stop-color="#ff3ea7"/><stop offset="1" stop-color="#e07d98"/></linearGradient><linearGradient id="未命名漸層_81-2" x1="129.96" y1="293.32" x2="142.79" y2="293.32" xlink:href="#未命名漸層_81"/><linearGradient id="未命名漸層_61" x1="244.19" y1="342.82" x2="193.97" y2="371.81" gradientUnits="userSpaceOnUse"><stop offset="0" stop-color="#ff68a7"/><stop offset="1" stop-color="#e07d43"/></linearGradient><linearGradient id="未命名漸層_89" x1="250.56" y1="81.6" x2="272.03" y2="118.79" gradientUnits="userSpaceOnUse"><stop offset="0" stop-color="#ff91de"/><stop offset="1" stop-color="#b471e9"/></linearGradient><linearGradient id="未命名漸層_78" x1="118.5" y1="170.15" x2="-17.73" y2="91.5" gradientUnits="userSpaceOnUse"><stop offset="0" stop-color="#00735f"/><stop offset="0.56" stop-color="#15a0aa"/><stop offset="1" stop-color="#01baee"/></linearGradient><linearGradient id="未命名漸層_81-3" x1="51.9" y1="336.69" x2="71.33" y2="356.33" xlink:href="#未命名漸層_81"/><linearGradient id="未命名漸層_81-4" x1="52.09" y1="346.2" x2="70.54" y2="346.2" xlink:href="#未命名漸層_81"/><linearGradient id="linear-gradient-2" x1="622.13" y1="216.13" x2="636.21" y2="230.37" xlink:href="#linear-gradient"/><linearGradient id="linear-gradient-3" x1="573.68" y1="70.49" x2="584.08" y2="81" xlink:href="#linear-gradient"/></defs><title>footer-planet</title><g id="bg"><path d="M131.79,14.7v.07a14.1,14.1,0,0,1-.27,2.69,1.22,1.22,0,0,1,0,.17c-.07.38-.16.75-.26,1.12s-.21.68-.34,1a14.21,14.21,0,0,1-1.29,2.66l0,0c-.23.37-.47.73-.73,1.08h0a14.54,14.54,0,0,1-4.21,3.79A14.35,14.35,0,0,1,121,28.89a13.23,13.23,0,0,1-1.57.33,13.5,13.5,0,0,1-2.31.19h-.14a14.41,14.41,0,0,1-6.47-1.58,14.69,14.69,0,0,1-5.59-4.93s0-.06-.06-.09a13.84,13.84,0,0,1-.79-1.34A13.63,13.63,0,0,1,103,18.79c0-.05,0-.1,0-.15a14.79,14.79,0,0,1-.43-2.24,13.73,13.73,0,0,1-.1-1.7,12.85,12.85,0,0,1,.1-1.63,14.59,14.59,0,0,1,5.59-10A13.77,13.77,0,0,1,109.7,2c.22-.12.44-.25.66-.36l.14-.07A15.1,15.1,0,0,1,112.25.8a15.33,15.33,0,0,1,3.2-.71,14.7,14.7,0,0,1,8.69,1.72,12.08,12.08,0,0,1,1.56,1,14,14,0,0,1,3.42,3.48c.23.3.43.63.64,1a14.81,14.81,0,0,1,2,7.46Z" style="fill:url(#未命名漸層_18)"/><path d="M588.52,146.43a9.33,9.33,0,0,1-9.33,9.33,9.74,9.74,0,0,1-2.24-.27,9.31,9.31,0,0,1-4.75-2.88,8.12,8.12,0,0,1-.64-.81,3.62,3.62,0,0,1-.22-.32l-.12-.19c-.08-.13-.15-.26-.22-.39a8.15,8.15,0,0,1-.67-1.54,9.18,9.18,0,0,1-.45-2.24c0-.23,0-.46,0-.69A9.33,9.33,0,0,1,579,137.1h.44a9,9,0,0,1,2.4.38,4.51,4.51,0,0,1,.52.17A9.32,9.32,0,0,1,588.52,146.43Z" style="fill:url(#linear-gradient)"/><path d="M142.79,293.32a6.41,6.41,0,0,1-11.22,4.25,4.71,4.71,0,0,1-.44-.56,1.7,1.7,0,0,1-.15-.22l-.09-.13-.15-.26a6.66,6.66,0,0,1-.46-1.06,6.56,6.56,0,0,1-.31-1.55c0-.15,0-.31,0-.47a6.4,6.4,0,0,1,6.29-6.41h.3a6.06,6.06,0,0,1,1.66.26,2.42,2.42,0,0,1,.35.12A6.4,6.4,0,0,1,142.79,293.32Z" style="fill:url(#未命名漸層_81)"/><path d="M138.56,287.29l-.2-.07-.14-.05h0l-.16-.05-.1,0-.11,0-.23-.05h0l-.19,0h-.07l-.17,0H137l-.17,0h-.62a6.4,6.4,0,0,0-6.29,6.41c0,.16,0,.32,0,.47a6.56,6.56,0,0,0,.31,1.55,6.66,6.66,0,0,0,.46,1.06l.15.26.09.13h0l.06.09.09.12a4.71,4.71,0,0,0,.44.56,6.41,6.41,0,1,0,7-10.28Z" style="opacity:0.1;fill:url(#未命名漸層_81-2)"/><path d="M239.23,356.86a19.36,19.36,0,0,1-19.36,19.36,19.44,19.44,0,0,1-14.49-6.53A16.72,16.72,0,0,1,204,368c-.15-.22-.31-.44-.45-.67s-.18-.26-.26-.4-.31-.53-.45-.8a17.49,17.49,0,0,1-1.39-3.19,18.88,18.88,0,0,1-.92-4.66,13.56,13.56,0,0,1-.06-1.43,19.36,19.36,0,0,1,19-19.35h.91a18.59,18.59,0,0,1,5,.79c.36.11.72.22,1.07.35A19.37,19.37,0,0,1,239.23,356.86Z" style="fill:url(#未命名漸層_61)"/><path d="M282.76,100.19a21.48,21.48,0,0,1-37.54,14.24,20.24,20.24,0,0,1-1.48-1.87l-.51-.74c-.1-.15-.19-.29-.28-.45s-.34-.58-.5-.88A20.74,20.74,0,0,1,240.9,107a21.54,21.54,0,0,1-1-5.17q-.06-.8-.06-1.59a21.47,21.47,0,0,1,21.07-21.46h1a21,21,0,0,1,5.53.88c.4.12.8.24,1.18.39A21.46,21.46,0,0,1,282.76,100.19Z" style="fill:url(#未命名漸層_89)"/><path d="M105,132a52.52,52.52,0,0,1-91.82,34.83,47.86,47.86,0,0,1-3.63-4.57c-.41-.6-.83-1.2-1.23-1.81-.24-.36-.47-.71-.69-1.09-.42-.7-.84-1.43-1.23-2.16a50.33,50.33,0,0,1-3.78-8.66,52.35,52.35,0,0,1-2.5-12.65C0,134.65,0,133.34,0,132A52.49,52.49,0,0,1,51.52,79.57c.33,0,.67,0,1,0,.5,0,1,0,1.48,0a50.75,50.75,0,0,1,13.53,2.14c1,.29,2,.6,2.9,1A52.53,52.53,0,0,1,105,132Z" style="fill:url(#未命名漸層_78)"/><path d="M70.54,346.2a9.22,9.22,0,0,1-9.23,9.22,8.84,8.84,0,0,1-2.2-.27,9.17,9.17,0,0,1-4.7-2.84,8.3,8.3,0,0,1-.64-.8l-.22-.32-.12-.19-.21-.38a8.78,8.78,0,0,1-1.1-3.74c0-.23,0-.45,0-.68a9.21,9.21,0,0,1,9-9.22h.43a8.91,8.91,0,0,1,2.38.38l.51.17A9.24,9.24,0,0,1,70.54,346.2Z" style="fill:url(#未命名漸層_81-3)"/><path d="M64.46,337.53l-.29-.1-.2-.06h0l-.24-.07-.14,0-.16,0-.32-.07H63l-.28,0-.11,0-.23,0h-.12L62,337h-.11l-.35,0h-.43a9.21,9.21,0,0,0-9,9.22c0,.23,0,.45,0,.68a8.78,8.78,0,0,0,1.1,3.74l.21.38.12.19h0l.09.13.12.18a8.3,8.3,0,0,0,.64.8,9.17,9.17,0,0,0,4.7,2.84,8.84,8.84,0,0,0,2.2.27,9.22,9.22,0,0,0,3.15-17.89Z" style="opacity:0.1;fill:url(#未命名漸層_81-4)"/><path d="M634,227.4a7.2,7.2,0,0,1-6.72,2,6.53,6.53,0,0,1-3.37-2,6.36,6.36,0,0,1-.46-.57l-.15-.23-.09-.14-.15-.27a6.67,6.67,0,0,1-.48-1.09,6.4,6.4,0,0,1-.31-1.59,4,4,0,0,1,0-.49,6.61,6.61,0,0,1,6.48-6.61h.32a6,6,0,0,1,1.7.27l.36.12C635,218.14,637.13,222.89,634,227.4Z" style="fill:url(#linear-gradient-2)"/><path d="M631.15,216.76l-.21-.08-.13,0h0l-.18,0-.1,0-.11,0-.23-.05h0l-.2,0h-.07l-.17,0h-.09l-.17,0h-.64a6.61,6.61,0,0,0-6.48,6.61,4,4,0,0,0,0,.49,6.4,6.4,0,0,0,.31,1.59,6.67,6.67,0,0,0,.48,1.09l.15.27.09.14h0l.07.09.08.13a6.36,6.36,0,0,0,.46.57,6.53,6.53,0,0,0,3.37,2,7.19,7.19,0,0,0,6.73-2h0C637.13,222.89,635,218.14,631.15,216.76Z" style="fill:#fff;opacity:0.1"/><path d="M583.66,75.58a4.94,4.94,0,0,1-4.94,4.94,4.6,4.6,0,0,1-1.18-.15,4.93,4.93,0,0,1-2.86-2,1,1,0,0,1-.11-.17.36.36,0,0,1-.07-.1,1.28,1.28,0,0,1-.11-.2,4,4,0,0,1-.36-.82,5,5,0,0,1-.23-1.19c0-.12,0-.24,0-.36a4.92,4.92,0,0,1,4.85-4.93h.23a4.82,4.82,0,0,1,1.27.2l.27.09A4.94,4.94,0,0,1,583.66,75.58Z" style="fill:url(#linear-gradient-3)"/><path d="M580.4,70.94l-.15-.06-.11,0h0l-.13,0-.07,0-.09,0-.17,0h0l-.15,0h-.85a4.92,4.92,0,0,0-4.85,4.93c0,.12,0,.24,0,.36a5,5,0,0,0,.23,1.19,4,4,0,0,0,.36.82,1.28,1.28,0,0,0,.11.2.36.36,0,0,0,.07.1h0l0,.07.06.09a4.93,4.93,0,0,0,2.86,2,4.6,4.6,0,0,0,1.18.15,4.94,4.94,0,0,0,1.68-9.58Z" style="fill:#fff;opacity:0.1"/></g></svg>