<svg id="star" xmlns="http://www.w3.org/2000/svg" viewBox="0 0 1247.38 571.77"><title>footer-star</title><path d="M479.51,307a.91.91,0,1,1-1.81,0,.91.91,0,0,1,1.81,0Z" style="fill:#fff"/><path d="M417,299.43a1.81,1.81,0,1,1-1.81-1.81A1.81,1.81,0,0,1,417,299.43Z" style="fill:#fff"/><path d="M263,260.56a1.81,1.81,0,1,1-1.81-1.81A1.81,1.81,0,0,1,263,260.56Z" style="fill:#fff"/><path d="M282.87,64a1.81,1.81,0,1,1-1.81-1.81A1.81,1.81,0,0,1,282.87,64Z" style="fill:#fff"/><path d="M189.48,180.24a.91.91,0,1,1-.9-.9A.9.9,0,0,1,189.48,180.24Z" style="fill:#fff"/><path d="M76.14,230.06a.91.91,0,1,1-.9-.9A.9.9,0,0,1,76.14,230.06Z" style="fill:#fff"/><path d="M139.06,326.34a.91.91,0,1,1-.9-.9A.9.9,0,0,1,139.06,326.34Z" style="fill:#fff"/><path d="M298.63,88a.91.91,0,0,1-1.81,0,.91.91,0,1,1,1.81,0Z" style="fill:#fff"/><path d="M328.27,128.84a.91.91,0,1,1-1.81,0,.91.91,0,0,1,1.81,0Z" style="fill:#fff"/><path d="M297.58,140.4a.91.91,0,1,1-1.81,0,.91.91,0,0,1,1.81,0Z" style="fill:#fff"/><path d="M66.4,76.48a.91.91,0,1,1-.9-.9A.9.9,0,0,1,66.4,76.48Z" style="fill:#fff"/><path d="M96,117.35a.91.91,0,1,1-.91-.91A.9.9,0,0,1,96,117.35Z" style="fill:#fff"/><path d="M65.35,128.91a.91.91,0,1,1-.91-.91A.9.9,0,0,1,65.35,128.91Z" style="fill:#fff"/><path d="M119.7,92.91a.9.9,0,1,1,0-1.28A.9.9,0,0,1,119.7,92.91Z" style="fill:#fff"/><path d="M112.12,159.72a.91.91,0,1,1,0-1.28A.9.9,0,0,1,112.12,159.72Z" style="fill:#fff"/><path d="M81.88,147a.9.9,0,0,1-1.28,0,.89.89,0,0,1,0-1.27A.91.91,0,1,1,81.88,147Z" style="fill:#fff"/><path d="M76.16,472.54a.91.91,0,1,1-1.81,0,.91.91,0,0,1,1.81,0Z" style="fill:#fff"/><path d="M217.33,474.92a.91.91,0,0,1-1.81,0,.91.91,0,1,1,1.81,0Z" style="fill:#fff"/><path d="M417.14,246.57a.91.91,0,1,1-1.81,0,.91.91,0,0,1,1.81,0Z" style="fill:#fff"/><path d="M306.54,221.37a1.81,1.81,0,1,1-1.81-1.81A1.81,1.81,0,0,1,306.54,221.37Z" style="fill:#fff"/><path d="M183.47,68.63a1.81,1.81,0,1,1-1.81-1.81A1.81,1.81,0,0,1,183.47,68.63Z" style="fill:#fff"/><path d="M42.76,404.09A1.81,1.81,0,1,1,44.5,406,1.81,1.81,0,0,1,42.76,404.09Z" style="fill:#fff"/><path d="M28,379.48a.91.91,0,1,1,.87.94A.91.91,0,0,1,28,379.48Z" style="fill:#fff"/><path d="M168.35,396.38a1.81,1.81,0,1,1,1.74,1.88A1.81,1.81,0,0,1,168.35,396.38Z" style="fill:#fff"/><path d="M108.33,434.7a1.81,1.81,0,1,1,1.74,1.88A1.8,1.8,0,0,1,108.33,434.7Z" style="fill:#fff"/><path d="M432.3,188.91a1.81,1.81,0,1,1-1.81-1.81A1.81,1.81,0,0,1,432.3,188.91Z" style="fill:#fff"/><path d="M414.06,108.81a1.44,1.44,0,1,1-1.44-1.44A1.45,1.45,0,0,1,414.06,108.81Z" style="fill:#fff"/><path d="M35,151.47A1.44,1.44,0,1,1,33.56,150,1.43,1.43,0,0,1,35,151.47Z" style="fill:#fff"/><path d="M3.62,50.64a1.81,1.81,0,1,1-1.81-1.81A1.81,1.81,0,0,1,3.62,50.64Z" style="fill:#fff"/><path d="M16.93,117.74a1.81,1.81,0,1,1-1.81-1.81A1.81,1.81,0,0,1,16.93,117.74Z" style="fill:#fff"/><path d="M251,175a2.91,2.91,0,1,1-2.91-2.9A2.91,2.91,0,0,1,251,175Z" style="fill:#fff"/><path d="M5.07,224.62a1.81,1.81,0,1,1-1.81-1.81A1.81,1.81,0,0,1,5.07,224.62Z" style="fill:#fff"/><path d="M54.38,326.16a1.81,1.81,0,1,1-1.81-1.81A1.81,1.81,0,0,1,54.38,326.16Z" style="fill:#fff"/><path d="M166.08,294.24a1.81,1.81,0,1,1-1.81-1.8A1.81,1.81,0,0,1,166.08,294.24Z" style="fill:#fff"/><path d="M266.27,215.67a1.81,1.81,0,1,1-1.81-1.81A1.81,1.81,0,0,1,266.27,215.67Z" style="fill:#fff"/><path d="M271.42,559.59a.91.91,0,0,1-1.81,0,.91.91,0,1,1,1.81,0Z" style="fill:#fff"/><path d="M157.79,533.55a1.81,1.81,0,1,1-1.81-1.81A1.81,1.81,0,0,1,157.79,533.55Z" style="fill:#fff"/><path d="M124.11,570.86a.91.91,0,1,1-1.81,0,.91.91,0,0,1,1.81,0Z" style="fill:#fff"/><path d="M157.89,480.7a.91.91,0,0,1-1.81,0,.91.91,0,1,1,1.81,0Z" style="fill:#fff"/><path d="M95.4,493.55a1.81,1.81,0,1,1-1.81-1.81A1.81,1.81,0,0,1,95.4,493.55Z" style="fill:#fff"/><path d="M614.53,206.91a.91.91,0,0,1-1.81,0,.91.91,0,1,1,1.81,0Z" style="fill:#fff"/><path d="M552.05,199.29a1.81,1.81,0,1,1-1.8-1.81A1.81,1.81,0,0,1,552.05,199.29Z" style="fill:#fff"/><path d="M518.38,236.6a.91.91,0,1,1-1.81,0,.91.91,0,0,1,1.81,0Z" style="fill:#fff"/><path d="M552.16,146.44a.91.91,0,1,1-.91-.91A.9.9,0,0,1,552.16,146.44Z" style="fill:#fff"/><path d="M489.67,159.3a1.81,1.81,0,1,1-1.81-1.81A1.81,1.81,0,0,1,489.67,159.3Z" style="fill:#fff"/><path d="M600.4,179.81a.91.91,0,1,1-.9-.9A.9.9,0,0,1,600.4,179.81Z" style="fill:#fff"/><path d="M615.57,122.15a1.81,1.81,0,1,1-1.81-1.81A1.81,1.81,0,0,1,615.57,122.15Z" style="fill:#fff"/><path d="M585.84,83.26a1.44,1.44,0,1,1-1.44-1.44A1.44,1.44,0,0,1,585.84,83.26Z" style="fill:#fff"/><path d="M797.8,140.14a.91.91,0,1,1-1.81,0,.91.91,0,0,1,1.81,0Z" style="fill:#fff"/><path d="M735.32,132.53a1.81,1.81,0,1,1-1.81-1.81A1.81,1.81,0,0,1,735.32,132.53Z" style="fill:#fff"/><path d="M701.65,169.84a.91.91,0,1,1-1.81,0,.91.91,0,0,1,1.81,0Z" style="fill:#fff"/><path d="M1247.38,90.49a.91.91,0,0,1-1.81,0,.91.91,0,1,1,1.81,0Z" style="fill:#fff"/><path d="M1184.91,82.87a1.82,1.82,0,1,1-1.81-1.81A1.82,1.82,0,0,1,1184.91,82.87Z" style="fill:#fff"/><path d="M1151.23,120.19a.91.91,0,1,1-.91-.91A.9.9,0,0,1,1151.23,120.19Z" style="fill:#fff"/><path d="M735.43,79.68a.91.91,0,1,1-.91-.91A.9.9,0,0,1,735.43,79.68Z" style="fill:#fff"/><path d="M672.94,92.53a1.81,1.81,0,1,1-1.81-1.81A1.81,1.81,0,0,1,672.94,92.53Z" style="fill:#fff"/><path d="M1011.59,49a.91.91,0,0,1,1.8.19.91.91,0,1,1-1.8-.19Z" style="fill:#fff"/><path d="M1073,63a1.81,1.81,0,1,1,1.62,2A1.82,1.82,0,0,1,1073,63Z" style="fill:#fff"/><path d="M1067.43,115.53a.9.9,0,1,1,.81,1A.91.91,0,0,1,1067.43,115.53Z" style="fill:#fff"/><path d="M1022.86,77.38a.91.91,0,1,1,.81,1A.91.91,0,0,1,1022.86,77.38Z" style="fill:#fff"/><path d="M782.72,57.46a.9.9,0,0,1,1.23.35.9.9,0,0,1-1.58.88A.89.89,0,0,1,782.72,57.46Z" style="fill:#fff"/><path d="M765.93,83a.9.9,0,1,1-.35,1.23A.9.9,0,0,1,765.93,83Z" style="fill:#fff"/><path d="M1001.87,133.19a1.81,1.81,0,1,1,1.61,2A1.81,1.81,0,0,1,1001.87,133.19Z" style="fill:#fff"/><path d="M1027.45,174.92a1.44,1.44,0,1,1,1.29,1.58A1.44,1.44,0,0,1,1027.45,174.92Z" style="fill:#fff"/><path d="M822.44,96.61a.9.9,0,1,1,.81,1A.91.91,0,0,1,822.44,96.61Z" style="fill:#fff"/><path d="M825.32,22.33a.91.91,0,1,1-.9-.9A.9.9,0,0,1,825.32,22.33Z" style="fill:#fff"/><path d="M872.61.11a.91.91,0,0,1,.89,1.59.93.93,0,0,1-1.24-.35A.93.93,0,0,1,872.61.11Z" style="fill:#fff"/><path d="M855.83,25.65a.9.9,0,0,1,1.23.35.91.91,0,0,1-.35,1.23.9.9,0,1,1-.88-1.58Z" style="fill:#fff"/><path d="M912.34,39.27a.9.9,0,1,1,1.8.18.9.9,0,1,1-1.8-.18Z" style="fill:#fff"/><path d="M448.11,120.19a.91.91,0,0,1-1.81,0,.91.91,0,1,1,1.81,0Z" style="fill:#fff"/><path d="M463.28,62.52a1.81,1.81,0,1,1-1.81-1.81A1.81,1.81,0,0,1,463.28,62.52Z" style="fill:#fff"/><path d="M433.54,23.63a1.44,1.44,0,1,1-1.44-1.44A1.43,1.43,0,0,1,433.54,23.63Z" style="fill:#fff"/><path d="M645.51,80.52a.91.91,0,1,1-.91-.91A.9.9,0,0,1,645.51,80.52Z" style="fill:#fff"/><path d="M583,72.9a1.81,1.81,0,1,1-1.81-1.81A1.81,1.81,0,0,1,583,72.9Z" style="fill:#fff"/><path d="M549.35,110.22a.91.91,0,0,1-1.81,0,.91.91,0,1,1,1.81,0Z" style="fill:#fff"/><path d="M583.13,20.05a.91.91,0,1,1-.9-.9A.9.9,0,0,1,583.13,20.05Z" style="fill:#fff"/><path d="M520.64,32.91a1.81,1.81,0,1,1-1.81-1.81A1.81,1.81,0,0,1,520.64,32.91Z" style="fill:#fff"/><path d="M670.15,37a.91.91,0,1,1,.8,1A.91.91,0,0,1,670.15,37Z" style="fill:#fff"/><path d="M883.81,110.59a1.81,1.81,0,1,1,1.61,2A1.81,1.81,0,0,1,883.81,110.59Z" style="fill:#fff"/><path d="M921.13,76.92a.91.91,0,1,1,.81,1A.91.91,0,0,1,921.13,76.92Z" style="fill:#fff"/><path d="M878.29,163.15a.9.9,0,0,1,1-.81.91.91,0,1,1-.19,1.8A.89.89,0,0,1,878.29,163.15Z" style="fill:#fff"/><path d="M591.42,297.94a.91.91,0,1,1,.82-1A.9.9,0,0,1,591.42,297.94Z" style="fill:#fff"/><path d="M715,285a1.81,1.81,0,1,1,1.64-2A1.81,1.81,0,0,1,715,285Z" style="fill:#fff"/><path d="M767.68,280.31a.91.91,0,0,1-.16-1.81.91.91,0,0,1,.16,1.81Z" style="fill:#fff"/><path d="M767.17,311a.9.9,0,0,1-1.49,1,.9.9,0,1,1,1.49-1Z" style="fill:#fff"/><path d="M637,318.5a.91.91,0,0,1,0,1.81.92.92,0,0,1-.9-.92A.9.9,0,0,1,637,318.5Z" style="fill:#fff"/><path d="M668.48,346.61a1.81,1.81,0,1,1-1.83,1.79A1.81,1.81,0,0,1,668.48,346.61Z" style="fill:#fff"/><path d="M615.63,345.91a.9.9,0,0,1,.89.92.89.89,0,0,1-.91.89.91.91,0,1,1,0-1.81Z" style="fill:#fff"/><path d="M941.77,156.77a1.81,1.81,0,1,1,1.61,2A1.81,1.81,0,0,1,941.77,156.77Z" style="fill:#fff"/></svg>