<svg xmlns="http://www.w3.org/2000/svg" viewBox="0 0 589.38 448.11"><title>footer-shine</title><g id="bg"><path d="M12.58,4.75s.68,7,3.51,9.79c2.44,2.44,9.06,2.78,9.06,2.78s-6,.36-9.07,2.79-3.5,9.79-3.5,9.79-.35-6.83-3.15-9.79C7.28,17.84,0,17.32,0,17.32s7.25-.55,9.43-2.84C12.27,11.49,12.58,4.75,12.58,4.75Z" style="fill:#ffe6f7"/><path d="M77,428.55s.54,5.42,2.73,7.62c1.9,1.9,7,2.16,7,2.16s-4.66.28-7,2.16S77,448.11,77,448.11s-.27-5.31-2.45-7.62c-1.67-1.76-7.33-2.16-7.33-2.16s5.64-.43,7.33-2.21C76.73,433.79,77,428.55,77,428.55Z" style="fill:#ffe6f7"/><path d="M22.47,312.94s.54,5.42,2.73,7.62c1.9,1.89,7.05,2.16,7.05,2.16s-4.66.28-7,2.16-2.73,7.62-2.73,7.62-.27-5.31-2.45-7.62c-1.67-1.76-7.33-2.16-7.33-2.16s5.64-.43,7.33-2.21C22.23,318.18,22.47,312.94,22.47,312.94Z" style="fill:#ffe6f7"/><path d="M299.68,146.51s.5,5.06,2.55,7.11c1.77,1.78,6.59,2,6.59,2s-4.36.26-6.59,2-2.55,7.12-2.55,7.12-.25-5-2.29-7.12c-1.56-1.65-6.85-2-6.85-2s5.27-.41,6.85-2.07C299.46,151.4,299.68,146.51,299.68,146.51Z" style="fill:#ffe6f7"/><path d="M125.92,113.87s.51,5.14,2.59,7.22c1.79,1.8,6.68,2,6.68,2s-4.42.26-6.69,2-2.58,7.22-2.58,7.22-.26-5-2.32-7.22c-1.59-1.67-6.95-2-6.95-2s5.34-.41,6.95-2.1C125.69,118.84,125.92,113.87,125.92,113.87Z" style="fill:#ffe6f7"/><path d="M582.32,127.79s-1.94,5.09-1,8c.85,2.54,5.35,5.07,5.35,5.07s-4.3-1.82-7.28-1.2-5.83,5.61-5.83,5.61,2.12-4.88,1.2-7.91c-.71-2.32-5.6-5.2-5.6-5.2s5.24,2.12,7.54,1.28C579.77,132.37,582.32,127.79,582.32,127.79Z" style="fill:#ffe6f7"/><path d="M585,0s-1.93,5.09-.94,8c.85,2.55,5.34,5.08,5.34,5.08s-4.29-1.83-7.27-1.2-5.83,5.6-5.83,5.6,2.12-4.87,1.19-7.91c-.71-2.32-5.6-5.2-5.6-5.2s5.25,2.12,7.55,1.28C582.44,4.59,585,0,585,0Z" style="fill:#ffe6f7"/></g></svg>