<svg xmlns="http://www.w3.org/2000/svg" viewBox="0 0 1920 800"><title>cover</title><g id="bg"><path d="M247.88,528.68c-74.27-147-11.11-210.93,12.6-233.06S383.46,192,528.05,188.87c88-1.92,142.59,25.88,176.9,58-33.07-35.33-91-73.15-188.12-71C372.24,179,271.11,261.16,247.41,283.28s-83.75,88.49-9.48,235.45c5.84,11.55,11.85,23.49,18,33.7,1.17,1.94,5.82,6,5.82,6s.16-3.87-3.07-9.77C257,545.54,251.42,535.68,247.88,528.68Z" style="fill:#dcdcdc"/><path d="M171.05,548c38.16-22.9,85.12,8.08,85.12,8.08s1.46.78,3.76,2.29a1.72,1.72,0,0,0,1.6.3c.07,0,.22-.08.24-.16a.62.62,0,0,0-.31-.56c-1.51-1.18-3.14-2.09-4.39-2.95a59.92,59.92,0,0,0-5.33-3.35s-49.06-33.8-87.22-10.9c-33.74,20.24-39.34,80.55-9.28,107C130.27,619.47,139.08,567.13,171.05,548Z" style="fill:#dcdcdc"/><path d="M0,0V800H1920V0ZM40.53,446.13c-43-17.83-43.34-85.56-6.65-107.58s83.24,3.39,83.24,3.39,32.06,23.77,32.09,53.22C152.08,469.17,83.51,464,40.53,446.13Zm695.6,97.47c-57.67,79.8-211,123.25-264.67,121.67-43.86-1.29-121.94-.49-189.54-80.08a42.8,42.8,0,0,1,2.52,14.38c3,77-70.87,75.23-115.57,56.7s-42.52-92.68-4.36-115.57,87.22,10.9,87.22,10.9a71.47,71.47,0,0,1,10,6.86,376.25,376.25,0,0,1-23.39-40.14c-74.26-147-14.22-213.32,9.48-235.44S372.7,178.58,517.28,175.42s202.43,82.27,220.43,116.15C797.76,404.55,793.81,463.8,736.13,543.6ZM1802.08,660.86c-38.08-4.43-58.86-56-34.75-81.76s72.27-16.59,72.27-16.59,29.28,7.08,35.94,30.41C1883.05,649.8,1840.16,665.28,1802.08,660.86Z" style="fill:#fff"/></g></svg>