<svg xmlns="http://www.w3.org/2000/svg" xmlns:xlink="http://www.w3.org/1999/xlink" viewBox="0 0 241.46 243.91"><defs><linearGradient id="未命名漸層_42" x1="-8.33" y1="35.1" x2="263.99" y2="217.26" gradientUnits="userSpaceOnUse"><stop offset="0" stop-color="#59d977"/><stop offset="0.27" stop-color="#22a7bc"/><stop offset="1" stop-color="#0080e4"/></linearGradient><linearGradient id="linear-gradient" x1="55.38" y1="36.09" x2="291.04" y2="150.47" gradientUnits="userSpaceOnUse"><stop offset="0" stop-color="#598b63"/><stop offset="1" stop-color="#0052bb"/></linearGradient><linearGradient id="linear-gradient-2" x1="4.92" y1="50.4" x2="153.8" y2="144.95" xlink:href="#linear-gradient"/><linearGradient id="linear-gradient-3" x1="-28.06" y1="78.94" x2="161.69" y2="199.44" xlink:href="#linear-gradient"/><linearGradient id="linear-gradient-4" x1="-51.8" y1="116.32" x2="137.95" y2="236.82" xlink:href="#linear-gradient"/></defs><title>planet</title><g id="bg"><path d="M239.19,144.57A120.65,120.65,0,0,1,97.57,239.88c-3.67-.74-7.25-1.61-10.79-2.62a120.66,120.66,0,0,1-84.51-139,118.19,118.19,0,0,1,10.1-30,120.69,120.69,0,0,1,226.82,76.3Z" style="fill:url(#未命名漸層_42)"/><path d="M58.38,39.75c2.42.68,4.84,1.71,7.19,2.52a39.74,39.74,0,0,0,8.6,1.91,11.47,11.47,0,0,0,5.59-.44c3.32-1.35,5-5,7.33-7.7,4.13-4.76,10.63-6.71,16.86-7.64s12.67-1.1,18.59-3.29c2.76-1,5.56-2.68,6.63-5.42.42-1.1.54-2.3.88-3.42,1.25-4.12,12.63-7.08,10.24-11a5.6,5.6,0,0,0-2.5-2C132.22.56,125.84.08,119.64,0,86.32-.35,55.79,9.21,35.39,36.82c-1.54,2.08-3,4.35-3.3,6.93-.85,8.46,7.13,5.12,10.71,1.69,2.27-2.19,4.41-4.71,7.37-5.81A13,13,0,0,1,58.38,39.75Z" style="fill:#fff"/><path d="M112.26,229a37.37,37.37,0,0,0-10,.35,6.34,6.34,0,0,0-4.12,2.39c-1.11,1.75-.56,4.18.74,5.8,5,6.15,15.11,6.33,22.23,6.37,13.86.06,27.83-1.84,40.83-6.68,4.71-1.75,40-19.93,32.89-26.53-1.41-1.32-3.6-1.33-5.48-.89-6.64,1.58-11.6,7.73-18.35,8.75-7.45,1.14-14.34-4.3-21.85-4.95a17.61,17.61,0,0,0-11.44,3c-4.61,3.18-7.62,8.5-12.67,10.92C121.07,229.44,116.68,229.23,112.26,229Z" style="fill:#fff"/><path d="M232.35,111.57a28.33,28.33,0,0,1-19.55,20.75c-2.3.59-4.68,1-6.52,2.43-3.08,2.39-3.49,6.79-3.63,10.65-.18,3.58-.32,7.25.6,10.69.5,2.07,1.38,4.09,1.74,6.2,1.06,6.66-3.39,12.81-7.62,18.09a6.33,6.33,0,0,1-2.89,2.52c-2.06.79-4.41-.64-5.55-2.52s-1.47-4.18-2-6.34c-2.71-11.56-11.52-20.56-20-28.92-2-2-4.31-4.17-7.2-4.4-2.71-.23-5.7,1.28-8-.14s-2.16-5-2.39-7.81c-.6-7-5.74-12.94-6.29-20-.64-7.71,4.64-14.92,11.29-18.86s14.46-5.33,22.09-6.66l15.56-2.62c2.38-.41,4.86-.87,6.7-2.48A8.3,8.3,0,0,0,201.28,77c1.88-15.79-27.41-15.65-34.34-6.52-2.21,2.85-2.9,6.57-4.46,9.78s-4.82,6.29-8.35,5.6c-2.2-.46-3.86-2.2-5.69-3.44-5.05-3.4-7.62,2-12.4,2.57a6.85,6.85,0,0,1-6.66-3.81,11.57,11.57,0,0,1-.64-7.94c.64-2.67,2-5.19,2.07-7.9s-1.56-5.88-4.32-6a7.15,7.15,0,0,1-3,4.82c-1.93-1.7-5.09-.87-7.07.78s-3.44,3.91-5.6,5.37-5.51,1.75-6.93-.41a4.88,4.88,0,0,1-.64-3.12c.41-5,5-8.36,7.85-12.44,3.9-5.56,5.14-13.13,10.6-17.12,5.14-3.77,11.8-2.9,17.77-3.13,7.34-.27,8.63-2.43,13.95-6.79A154.12,154.12,0,0,1,174,13.09a120.73,120.73,0,0,1,56.7,58.44,43.53,43.53,0,0,1-3.4,8.13,41.59,41.59,0,0,0-3.17,5.6,10.84,10.84,0,0,0,1.1,9.55c1.79,2.75,4.87,4.64,6.43,7.57C233.09,105.14,233,108.49,232.35,111.57Z" style="fill:url(#linear-gradient)"/><path d="M67.09,62.19,68.31,62a22.74,22.74,0,0,1,7.84.48c1.73.41,3.65,1.3,4,3,.45,2.22-1.87,3.87-3.24,5.66-3,3.93-1.69,9.74-3.87,14.17-2.67,5.42-8.77,6-12.69,9.85-3.6,3.57-3.39,8.89-5.84,13-2.65,4.42-5.9,5.12-8.74,1.13-3.61-5.07-4-9-1.37-14.57C46,91.39,47.2,87.58,46.25,84s-3.77-6.24-4.83-9.71c-3.65-12.08,9.37-11.54,17.15-11C61.44,63.44,64.25,62.64,67.09,62.19Z" style="fill:url(#linear-gradient-2)"/><path d="M47.49,166.29c-2.07-1.29-4.14-2.53-6.25-3.81a26.83,26.83,0,0,0-7.8-3.63c-4.91-1.15-10.1.6-15.06-.23A30.87,30.87,0,0,1,10,155.45c-2-1-4.09-2.06-6-3.21a119.93,119.93,0,0,1-1.74-54,118.19,118.19,0,0,1,10.1-30c1.33-.59,2.75-1.1,4.13-1.56,3.85-1.33,8.45-3.9,12.67-3.44,8.4,1,3.26,10,1.28,14.74-1.23,3-2.52,6.19-2.11,9.45s2.39,6,3.54,9c2.75,7.58,0,17,4.82,23.46,1.83,2.48,4.54,4.13,6.52,6.43s3.3,5.83,1.6,8.4c-2.48-3.26-7.34-4-11.2-2.53s-6.75,4.69-8.9,8.17c-1.47,2.3-2.57,5.47-.88,7.58a8.48,8.48,0,0,0,2.44,1.74A80,80,0,0,1,47.49,166.29Z" style="fill:url(#linear-gradient-3)"/><path d="M88.3,197.18c-1.15,6.06,1.65,12.26,1,18.41s-4.73,12-3.4,18c.23,1.24.74,2.43.87,3.67a120.14,120.14,0,0,1-62.66-43.52v-.09c.14-3.54,1.47-7.21.27-10.56-1-2.57-3.39-4.68-3.39-7.44,0-3.07,3.26-5.28,6.29-5.42s6,1.2,8.77,2.35a79.07,79.07,0,0,0,20.24,5.18,13.13,13.13,0,0,0,4.68-.09c4.73-1.15,7-6.38,10.61-9.59a14,14,0,0,1,23.13,12.67C93.81,186.58,89.35,191.35,88.3,197.18Z" style="fill:url(#linear-gradient-4)"/><path d="M93.65,170.48c-3.38,11.85-12.7,19.58-20.82,17.27s-12-13.8-8.58-25.65S77,142.51,85.07,144.82,97,158.62,93.65,170.48Z" style="fill:#fff;opacity:0.28"/><path d="M230.66,71.53A120.85,120.85,0,0,0,143.89,3c-4-.79-8.08-1.37-12.09-1.75A56.87,56.87,0,0,0,119.64,0C87.58-.34,58.1,8.51,37.74,33.78A120.29,120.29,0,0,0,12.37,68.27a118.19,118.19,0,0,0-10.1,30,120.79,120.79,0,0,0,84.51,139c3.54,1,7.12,1.88,10.79,2.62,1.73.33,3.47.63,5.2.89,5.33,3,12.73,3.11,18.3,3.14,13.86.06,27.83-1.84,40.83-6.68C165.16,236,183,227,191.38,219.3A120.78,120.78,0,0,0,230.66,71.53Z" style="fill:#fff;opacity:0.1"/></g></svg>