<svg xmlns="http://www.w3.org/2000/svg" xmlns:xlink="http://www.w3.org/1999/xlink" viewBox="0 0 183.22 183.19"><defs><linearGradient id="linear-gradient" x1="-1.83" y1="-2.88" x2="191.08" y2="192.18" gradientUnits="userSpaceOnUse"><stop offset="0" stop-color="#ff73a7"/><stop offset="1" stop-color="#e01e43"/></linearGradient><linearGradient id="linear-gradient-2" x1="49.08" y1="185.49" x2="157.59" y2="41.99" gradientUnits="userSpaceOnUse"><stop offset="0" stop-color="#a23157"/><stop offset="1" stop-color="#bd174d"/></linearGradient><linearGradient id="linear-gradient-3" x1="121.72" y1="-49.36" x2="-7.05" y2="125" gradientUnits="userSpaceOnUse"><stop offset="0" stop-color="#ff367e"/><stop offset="1" stop-color="#b21a59"/></linearGradient><linearGradient id="linear-gradient-4" x1="153.36" y1="-21.5" x2="23.34" y2="156.68" gradientUnits="userSpaceOnUse"><stop offset="0" stop-color="#dd3663"/><stop offset="1" stop-color="#b21a59"/></linearGradient></defs><title>planet</title><g id="bg"><path d="M183.22,91.57A91.61,91.61,0,0,1,23,152.33a82.88,82.88,0,0,1-6.32-8c-.73-1-1.46-2.08-2.16-3.16-.42-.61-.81-1.23-1.19-1.88-.73-1.24-1.47-2.51-2.16-3.78A90,90,0,0,1,.27,98.35C.08,96.12,0,93.85,0,91.57A91.56,91.56,0,0,1,89.88,0c.58,0,1.15,0,1.73,0,.89,0,1.74,0,2.58.08a88.49,88.49,0,0,1,23.62,3.73c1.69.5,3.39,1,5,1.66A91.62,91.62,0,0,1,183.22,91.57Z" style="fill:url(#linear-gradient)"/><path d="M69.69,180.53A91.26,91.26,0,0,1,23,152.33,92.14,92.14,0,0,0,146.36,60.87c-.16-2.62-.39-5.16-.77-7.71a96.8,96.8,0,0,1,5.58,27.51A95.87,95.87,0,0,1,69.69,180.53Z" style="opacity:0.68;fill:url(#linear-gradient-2)"/><path d="M53.78,85.18C42.11,102.32,22,114.53,13.64,118a27.8,27.8,0,0,1-9,2.43A90.9,90.9,0,0,1,.27,98.35a3.61,3.61,0,0,0,1.16.39C17.49,101.05,52,73,60.68,41c1.61-5.85.11-10.59-2.58-13.06A10.8,10.8,0,0,0,50.74,25c-13.66.49-23.12,16.11-26.51,27.32a20.6,20.6,0,0,0-1.12,9c.47,3,2.32,5.94,5.17,6.9A5.8,5.8,0,0,0,33.9,67,11.35,11.35,0,0,1,21.42,71a7.35,7.35,0,0,1-3.12-2,9.62,9.62,0,0,1-2.08-6C15.64,53,21.28,43.66,27.47,35.67A49,49,0,0,1,50.47,19c4.75-1.73,10.36-2,14.75.5,3.59,2.08,5.9,6,6.74,10.1S74.16,55.13,53.78,85.18Z" style="opacity:0.68;fill:url(#linear-gradient-3)"/><path d="M128,38.1A106.37,106.37,0,0,1,21.61,144.47c-1.65,0-3.27,0-4.89-.12-1.19-1.65-2.31-3.31-3.35-5A102.16,102.16,0,0,0,101.55,38.1a100.62,100.62,0,0,0-7.36-38,89.59,89.59,0,0,1,28.67,5.39A105.27,105.27,0,0,1,128,38.1Z" style="opacity:0.68;fill:url(#linear-gradient-4)"/><path d="M27.12,75.61c-22.33-4-17.49,29.07-14.28,41.3A67.15,67.15,0,0,0,33,150.22c3.61,3.17,7.65,6,12.27,7.33s9.9.94,13.8-1.87c6.26-4.52,7.12-13.48,6.32-21.16a84.15,84.15,0,0,0-23-49.39C38.15,80.75,33.12,76.68,27.12,75.61Z" style="fill:#fff;opacity:0.15"/><path d="M52.23,84.31c2.47,4.5,6.64,8.75,11.77,8.74,3.79,0,7.27-2.43,9.4-5.57s3.09-6.91,3.74-10.65C79,66.28,78.48,55,73.53,45.47c-2.82-5.41-8.78-12.23-15.46-9.58C52.79,38,48.6,45.14,48,50.47,46.7,62,46.7,74.17,52.23,84.31Z" style="fill:#fff;opacity:0.18"/><path d="M127.15,15c15.92,5.68,33.59,26.12,39.33,35.12,12.94,20.3,15.32,47.1,7.37,69.83-12,34.21-42.08,56.07-78,58.34A100.6,100.6,0,0,1,71.77,177c-6.39-1.14-18.28-2.91-22.58-8.07a57.23,57.23,0,0,0,42-7.57c3.24-2.06,6.37-4.56,8.08-8,2.68-5.38,1.3-12-1.67-17.25s-7.33-9.51-11.06-14.23-7-10.25-7-16.27a10.38,10.38,0,0,1,.63-3.83,9.89,9.89,0,0,1,3.26-4.05c3.67-2.83,8.53-3.78,13.15-3.41a42.41,42.41,0,0,1,13.3,3.82c10.3,4.5,19.88,10.56,30.38,14.58,4.58,1.75,10,3,14.16.34,3.49-2.26,4.89-6.77,4.88-10.93,0-15.5-13.32-30.23-25.64-37.91-7.67-4.79-15.9-8.68-23.34-13.86-4.33-3-19.69-13.78-14.71-20.41a6.6,6.6,0,0,1,4.15-2.16c9-1.81,17.82,2.63,26.44,5.66,2.47.86,5.86,1.28,7.1-1a4.81,4.81,0,0,0,.41-2.47C133.51,24.43,130.27,19.56,127.15,15Z" style="fill:#7f134d;opacity:0.37"/><path d="M141.71,91.19c1.56-4.56-4.27-12.91-8.21-16.49s-13.94-11.06-19.59-9.13c-9.3,3.17-3,14.09,1.51,18.26,4.66,4.35,12.85,10.38,19.71,10.48C139.1,94.37,141.06,93.11,141.71,91.19Z" style="fill:#7f134d;opacity:0.37"/><path d="M122.86,5.47c-1-.36-1.93-.68-2.91-1-.64-.21-1.28-.4-1.92-.6l-.22-.07-.18-.05c-.79-.23-1.59-.46-2.39-.67l-1.43-.37-1.56-.39c-1.07-.24-2.14-.47-3.22-.68l-.59-.1c-.92-.17-1.84-.33-2.77-.47l-1-.14-2.37-.3L101.1.51c-.78-.08-1.56-.14-2.34-.2L97.62.23C96.49.16,95.34.1,94.19.08,93.35,0,92.5,0,91.61,0,91,0,90.46,0,89.88,0A91.56,91.56,0,0,0,0,91.57c0,2.28.08,4.55.27,6.78a90,90,0,0,0,10.94,37.18c.69,1.27,1.43,2.54,2.16,3.78.38.65.77,1.27,1.19,1.88l0,.07c.29.45.58.89.88,1.33l1.23,1.76a82.88,82.88,0,0,0,6.32,8A91.61,91.61,0,1,0,122.86,5.47Z" style="fill:#fff;opacity:0.1"/></g></svg>