<svg xmlns="http://www.w3.org/2000/svg" viewBox="0 0 862.99 367.49"><title>quote-bgcircle</title><g id="bg"><path d="M555.38,203.67c0,88.72-71.39,161.68-181.63,163.78-93.91,1.79-173.23-73-173.23-161.68S276.67,45.14,370.6,45.14,555.38,115,555.38,203.67Z" style="fill:#d8d8d8;opacity:0.33"/><path d="M863,116.14c0,48.54-35.27,88.47-89.74,89.62-46.4,1-85.59-39.93-85.59-88.47s37.63-87.89,84-87.89S863,67.6,863,116.14Z" style="fill:#d8d8d8;opacity:0.33"/><path d="M141.73,68.16c0,38.14-28.51,69.51-72.54,70.41C31.68,139.34,0,107.2,0,69.06S30.41,0,67.93,0,141.73,30,141.73,68.16Z" style="fill:#d8d8d8;opacity:0.33"/></g></svg>