<svg xmlns="http://www.w3.org/2000/svg" viewBox="0 0 173.71 173.68"><title>rocket</title><g id="_1-kv-planet" data-name="1-kv-planet"><path d="M151,56.23a9.42,9.42,0,1,0-1.89-13.18A9.41,9.41,0,0,0,151,56.23Z" style="fill:#ebf0f1;opacity:0.5"/><path d="M70.27,31.47a9.41,9.41,0,1,0-1.89-13.18A9.41,9.41,0,0,0,70.27,31.47Z" style="fill:#ebf0f1;opacity:0.5"/><path d="M126.24,14.15a5.7,5.7,0,1,0-1.14-8A5.71,5.71,0,0,0,126.24,14.15Z" style="fill:#ebf0f1;opacity:0.5"/><path d="M150.72,110.38a14.37,14.37,0,1,0-2.89-20.11A14.36,14.36,0,0,0,150.72,110.38Z" style="fill:#ebf0f1;opacity:0.5"/><path d="M165.27,9a3.41,3.41,0,1,1-.68-4.78A3.41,3.41,0,0,1,165.27,9Z" style="fill:#ebf0f1;opacity:0.5"/><path d="M154.58,10.49l-.45-.3,0,0a5.52,5.52,0,1,0-7.4-8,5.55,5.55,0,0,0,.31,7,8.17,8.17,0,0,0-4.15,2.95,8.33,8.33,0,0,0-1.59,6.24,11.16,11.16,0,0,0-9.14,4.46,11.5,11.5,0,0,0-1.5,2.74,8.88,8.88,0,0,0-16.33,1.77l-.44-.37A10.25,10.25,0,0,0,97.71,37.46,13.84,13.84,0,0,0,80,41C68.07,29,39.94,28.61,30.65,54a42.22,42.22,0,1,0,34.06,76.33c0,.37,0,.73,0,1.1A42.22,42.22,0,1,0,130.1,96.19a14.26,14.26,0,0,0,7-5,14.42,14.42,0,0,0,.3-16.87A11.17,11.17,0,0,0,139.94,55c-.28-.21-.57-.4-.86-.58a8.37,8.37,0,1,0-13.48-.2,11.51,11.51,0,0,0,.77.93,10.9,10.9,0,0,0-2.08,2.1,11.25,11.25,0,0,0-1.42,2.55,17.15,17.15,0,0,0-4.34-4.8,19.12,19.12,0,0,0-2.35-1.46c.15-.16.3-.33.44-.51a8.89,8.89,0,0,0-.77-11.54l.07-.09a10.07,10.07,0,0,0,1.86-4.2,8.88,8.88,0,0,0,12.17-2,8.53,8.53,0,0,0,.82-1.33,11.17,11.17,0,0,0,20.64-8.53,8.37,8.37,0,0,0,3.17-14.87Z" style="fill:#ebf0f1;opacity:0.5"/></g></svg>