<?xml version="1.0" encoding="utf-8"?>
<!-- Generator: Adobe Illustrator 15.0.0, SVG Export Plug-In  -->
<!DOCTYPE svg PUBLIC "-//W3C//DTD SVG 1.1//EN" "http://www.w3.org/Graphics/SVG/1.1/DTD/svg11.dtd" [
	<!ENTITY ns_flows "http://ns.adobe.com/Flows/1.0/">
]>
<svg version="1.1"
	 xmlns="http://www.w3.org/2000/svg" xmlns:xlink="http://www.w3.org/1999/xlink" xmlns:a="http://ns.adobe.com/AdobeSVGViewerExtensions/3.0/"
	 x="0px" y="0px" width="500px" height="152px" viewBox="96.725 173.5 500 152"
	 overflow="visible" enable-background="new 96.725 173.5 500 152" xml:space="preserve">
<defs>
</defs>
<g>
	<defs>
		<rect id="SVGID_1_" x="96.725" y="173.5" width="500" height="100.726"/>
	</defs>
	<clipPath id="SVGID_2_">
		<use xlink:href="#SVGID_1_"  overflow="visible"/>
	</clipPath>
	<g id="Black_Hole_1_" clip-path="url(#SVGID_2_)">
		<path opacity="0.9" fill="#112842" d="M690.8,324.081c0,178.983-154.64,324.076-345.4,324.076S0,503.064,0,324.081
			C0,145.094,154.639,0,345.399,0S690.8,145.094,690.8,324.081z"/>
		<path opacity="0.7" fill="#173756" d="M632.07,324.081c0,148.547-128.346,268.973-286.671,268.973S58.728,472.628,58.728,324.081
			c0-148.554,128.346-268.977,286.671-268.977S632.07,175.527,632.07,324.081z"/>
		<ellipse opacity="0.9" fill="#1B3C5E" cx="345.401" cy="324.081" rx="230.226" ry="216.013"/>
		<path fill="#1C406B" d="M511.785,324.081c0,86.216-74.494,156.108-166.386,156.108c-91.891,0-166.383-69.892-166.383-156.108
			c0-86.222,74.493-156.117,166.383-156.117C437.291,167.964,511.785,237.859,511.785,324.081z"/>
		<path fill="#1F457C" d="M451.056,324.081c0,54.748-47.304,99.13-105.656,99.13s-105.657-44.383-105.657-99.13
			c0-54.755,47.305-99.138,105.657-99.138S451.056,269.326,451.056,324.081z"/>
	</g>
</g>
<path fill="#00A199" d="M96.725,271.739v27.997h0v1.129c47.847,14.526,141.688,24.4,249.633,24.4
	c108.505,0,202.751-9.977,250.366-24.627v-0.902v-10.187v-17.81H96.725z"/>
<polygon fill="#006D65" points="596.602,257.484 576.55,251.949 543.156,230.507 527.26,236.652 522.399,253.395 506.875,258.65 
	489.71,271.665 596.602,271.665 "/>
<polygon fill="#00A199" points="505.158,271.933 515.137,259.673 529.104,256.714 539.629,249.583 553.354,219.191 561.048,219.191 
	577.193,238.578 581.273,247.79 593.307,247.79 596.725,257.484 596.725,271.933 "/>
<path fill="#00A199" d="M537.874,254.819c-1.381,0-2.5,0.848-2.5,1.895h5C540.374,255.667,539.254,254.819,537.874,254.819z"/>
<path fill="#006D65" d="M536.158,264.092c-1.621,0-2.937,1.389-2.937,3.102h5.873C539.095,265.481,537.779,264.092,536.158,264.092z
	"/>
<path fill="#005B52" d="M564.645,263.994c-1.621,0-2.937,1.562-2.937,3.49h5.873C567.581,265.556,566.267,263.994,564.645,263.994z"
	/>
<path fill="#005B52" d="M589.523,270.641c-1.119,0-2.026,1.157-2.026,2.583h4.053C591.55,271.798,590.643,270.641,589.523,270.641z"
	/>
<path fill="#005B52" d="M584.561,260.632c-1.621,0-2.937,1.389-2.937,3.102h5.873C587.497,262.021,586.182,260.632,584.561,260.632z
	"/>
<path fill="#006D65" d="M546.652,255.347c-1.622,0-2.937,2.167-2.937,4.841h5.873C549.589,257.514,548.273,255.347,546.652,255.347z
	"/>
<path fill="#006D65" d="M525.232,260.143c-1.186,0-2.146,1.584-2.146,3.539h4.293C527.379,261.728,526.418,260.143,525.232,260.143z
	"/>
<path fill="#006D65" d="M555.836,236.284c-1.621,0-2.937,2.167-2.937,4.841h5.873C558.772,238.452,557.457,236.284,555.836,236.284z
	"/>
<path fill="#005B52" d="M570.159,250.329c-1.622,0-2.937,2.167-2.937,4.841h5.872C573.095,252.496,571.78,250.329,570.159,250.329z"
	/>
<polygon opacity="0.15" fill="#231815" points="514.868,273.86 521.64,268.003 543.279,260.606 552.961,255.571 558.863,226.963 
	562.843,221.347 577.193,238.578 581.273,247.79 593.307,247.79 596.725,257.484 596.725,284.153 567.545,280.765 559.746,279.86 
	540.721,277.651 519.757,275.217 "/>
<polygon fill="#006D65" points="97.89,256.02 115.643,249.884 145.208,226.115 159.282,232.927 163.586,251.487 177.33,257.312 
	192.527,271.739 97.89,271.739 "/>
<polygon fill="#00A199" points="186.656,272.26 176.084,264.962 165.983,250.054 157.993,249.88 154.177,255.476 149.768,255.476 
	136.474,239.708 126.451,235.942 112.337,219.31 106.47,219.31 99.461,235.136 96.725,237.482 96.725,272.26 "/>
<path fill="#006D65" d="M161.23,268.98c1.621,0,2.936,1.389,2.936,3.102h-5.873C158.294,270.369,159.609,268.98,161.23,268.98z"/>
<path fill="#005B52" d="M121.143,263.217c1.621,0,2.936,1.563,2.936,3.49h-5.873C118.206,264.78,119.521,263.217,121.143,263.217z"
	/>
<path fill="#005B52" d="M107.219,271.643c1.119,0,2.026,1.156,2.026,2.583h-4.053C105.192,272.799,106.1,271.643,107.219,271.643z"
	/>
<path fill="#005B52" d="M106.309,259.207c1.622,0,2.937,1.389,2.937,3.102h-5.873C103.373,260.595,104.688,259.207,106.309,259.207z
	"/>
<path fill="#006D65" d="M144.596,262.482c1.621,0,2.936,2.167,2.936,4.841h-5.873C141.66,264.649,142.975,262.482,144.596,262.482z"
	/>
<path fill="#006D65" d="M166.904,259.619c1.185,0,2.146,1.584,2.146,3.539h-4.293C164.758,261.204,165.719,259.619,166.904,259.619z
	"/>
<path fill="#006D65" d="M131.403,247.214c1.622,0,2.936,2.167,2.936,4.841h-5.873C128.467,249.381,129.782,247.214,131.403,247.214z
	"/>
<path fill="#005B52" d="M113.044,243.495c1.622,0,2.936,2.167,2.936,4.841h-5.873C110.107,245.662,111.422,243.495,113.044,243.495z
	"/>
<polygon opacity="0.15" fill="#231815" points="184.608,274.865 157.487,263.489 153.244,268.348 148.538,267.877 142.257,259.192 
	135.234,257.953 120.282,245.513 115.371,237.278 105.676,227.993 102.721,227.993 99.461,235.136 96.725,237.482 96.725,281.81 
	168.279,276.949 "/>
<rect x="254.88" y="217.646" fill="#2A2761" width="1.42" height="6.274"/>
<rect x="250.596" y="229.708" fill="#3A3A77" width="9.987" height="15.405"/>
<path fill="#FFAF3B" d="M261.478,226.663h-11.777c-1.681,0-3.044,1.363-3.044,3.044h17.866
	C264.522,228.026,263.159,226.663,261.478,226.663z"/>
<path fill="#FF771B" d="M246.657,229.708c0,1.682,1.363,3.044,3.044,3.044h11.777c1.681,0,3.044-1.362,3.044-3.044H246.657z"/>
<path fill="#FFAF3B" d="M261.478,235.636h-11.777c-1.681,0-3.044,1.363-3.044,3.044h17.866
	C264.522,236.999,263.159,235.636,261.478,235.636z"/>
<path fill="#FF771B" d="M246.657,238.68c0,1.681,1.363,3.044,3.044,3.044h11.777c1.681,0,3.044-1.363,3.044-3.044H246.657z"/>
<path fill="#57A6FF" d="M260.583,226.663c0-2.758-2.235-4.994-4.993-4.994v4.994H260.583z"/>
<path fill="#3469D3" d="M255.59,221.669c-2.758,0-4.994,2.236-4.994,4.994h4.994V221.669z"/>
<circle fill="#FFAF3B" cx="255.59" cy="216.329" r="2.716"/>
<circle fill="#FFFFFF" cx="256.3" cy="215.507" r="0.935"/>
<path fill="#AAAAAA" d="M240.357,272.576h-13.066c0-15.629,12.67-28.299,28.299-28.299v0.002
	C247.177,244.28,240.358,256.948,240.357,272.576z"/>
<path fill="#FFFFFF" d="M255.59,244.28v-0.002c15.628,0,28.298,12.67,28.298,28.299h-13.066
	C270.822,256.948,264.002,244.28,255.59,244.28z"/>
<path fill="#C5C5C5" d="M240.357,272.576c0.001-15.628,6.82-28.296,15.232-28.296v28.296H240.357z"/>
<path fill="#E0E0E0" d="M255.59,244.28c8.412,0,15.232,12.668,15.232,28.296H255.59V244.28z"/>
<path fill="#EF4F4D" d="M224.405,272.576h62.37c2.007,0,3.636,1.627,3.636,3.635H220.77
	C220.77,274.204,222.397,272.576,224.405,272.576z"/>
<rect x="263.337" y="267.838" fill="#FFFFFF" width="4.617" height="2.548"/>
<rect x="259.463" y="267.838" fill="#FFFFFF" width="2.309" height="2.548"/>
<circle fill="#57A6FF" cx="259.903" cy="263.783" r="1.87"/>
<circle fill="#57A6FF" cx="259.903" cy="258.427" r="1.87"/>
<circle fill="#57A6FF" cx="259.903" cy="253.071" r="1.87"/>
<rect x="229.918" y="232.186" fill="#EF4F4D" width="6.396" height="4.72"/>
<rect x="229.918" y="237.981" fill="#EF4F4D" width="6.396" height="4.721"/>
<rect x="229.918" y="243.778" fill="#EF4F4D" width="6.396" height="4.721"/>
<rect x="229.918" y="249.575" fill="#EF4F4D" width="6.396" height="4.72"/>
<rect x="229.918" y="255.371" fill="#EF4F4D" width="6.396" height="4.72"/>
<rect x="229.918" y="261.167" fill="#EF4F4D" width="6.396" height="4.721"/>
<rect x="229.918" y="266.963" fill="#EF4F4D" width="6.396" height="4.721"/>
<rect x="195.363" y="227.658" fill="#FFFFFF" width="36.688" height="48.554"/>
<path fill="#A73935" d="M192.975,225.494c0-1.195,0.969-2.164,2.164-2.164h37.136c1.195,0,2.165,0.969,2.165,2.164l0,0
	c0,1.196-0.969,2.164-2.165,2.164h-37.136C193.943,227.658,192.975,226.689,192.975,225.494L192.975,225.494z"/>
<path fill="#EF4F4D" d="M195.139,223.33h37.135c1.196,0,2.166,0.969,2.166,2.164h-41.465
	C192.974,224.298,193.943,223.33,195.139,223.33z"/>
<rect x="209.343" y="232.186" fill="#3469D3" width="18.663" height="28.478"/>
<polygon fill="#57A6FF" points="228.006,260.663 209.343,232.186 228.006,232.186 "/>
<path fill="#FFFFFF" d="M223.255,246.54c0,0.786,0.637,1.422,1.422,1.422l0,0c0.786,0,1.422-0.637,1.422-1.422v-11.604
	c0-0.786-0.637-1.423-1.422-1.423l0,0c-0.786,0-1.422,0.637-1.422,1.423V246.54z"/>
<circle fill="#FFFFFF" cx="224.678" cy="250.469" r="1.422"/>
<path fill="#FFFFFF" d="M249.569,265.956c0,0.884,0.716,1.6,1.6,1.6l0,0c0.884,0,1.6-0.716,1.6-1.6v-11.814
	c0-0.883-0.716-1.6-1.6-1.6l0,0c-0.884,0-1.6,0.716-1.6,1.6V265.956z"/>
<path fill="#FFAF3B" d="M299.897,276.211h-22.353c0-6.173,5.003-11.176,11.177-11.176
	C294.893,265.035,299.897,270.039,299.897,276.211z"/>
<path fill="#FF771B" d="M277.544,276.211c0-6.173,5.003-11.176,11.176-11.176v11.176H277.544z"/>
<circle fill="#FFFFFF" cx="291.571" cy="269.774" r="2.438"/>
<path fill="#AAAAAA" d="M476.44,275.729h12.532c0-14.99-12.151-27.141-27.141-27.141v0.002
	C469.899,248.589,476.439,260.74,476.44,275.729z"/>
<path fill="#FFFFFF" d="M461.832,248.589v-0.002c-14.99,0-27.142,12.151-27.142,27.141h12.531
	C447.222,260.74,453.763,248.589,461.832,248.589z"/>
<path fill="#C5C5C5" d="M476.44,275.729c-0.001-14.989-6.541-27.139-14.608-27.139v27.139H476.44z"/>
<path fill="#E0E0E0" d="M461.832,248.589c-8.069,0-14.61,12.15-14.61,27.139h14.61V248.589z"/>
<path fill="#3469D3" d="M491.741,275.729h-59.819c-1.926,0-3.487,1.561-3.487,3.487h66.793
	C495.228,277.29,493.666,275.729,491.741,275.729z"/>
<circle fill="#FFFFFF" cx="481.676" cy="268.323" r="2.821"/>
<circle fill="#FFFFFF" cx="479.978" cy="262.298" r="1.699"/>
<polygon fill="#C5C5C5" points="475.568,239.387 476.341,239.086 469.544,221.612 463.002,221.612 463.002,222.441 468.979,222.441 
	"/>
<rect x="461.831" y="223.299" fill="#A73935" width="0.688" height="5.914"/>
<path fill="#A73935" d="M461.831,237.931h14.86c1.075,0,1.946,0.872,1.946,1.946h-16.807V237.931z"/>
<path fill="#7F2D2D" d="M461.831,239.877h16.807c0,1.075-0.871,1.946-1.946,1.946l-14.859,0L461.831,239.877z"/>
<path fill="#A73935" d="M461.831,219.685c1.293,0,2.342,1.049,2.342,2.343c0,1.293-1.049,2.342-2.342,2.342V219.685z"/>
<path fill="#C5C5C5" d="M461.831,227.354c2.052,0,3.715,1.664,3.715,3.715h-3.715V227.354z"/>
<polygon fill="#C5C5C5" points="469.262,249.622 461.832,249.622 461.832,241.823 476.691,241.823 "/>
<polygon fill="#C5C5C5" points="465.546,232.935 461.831,232.935 461.831,237.931 470.234,237.931 "/>
<rect x="461.831" y="231.07" fill="#A73935" width="3.715" height="1.865"/>
<polygon fill="#FFFFFF" points="448.095,239.387 447.322,239.087 454.117,221.613 460.66,221.613 460.66,222.441 454.684,222.442 
	"/>
<rect x="461.143" y="223.299" fill="#EF4F4D" width="0.688" height="5.914"/>
<path fill="#EF4F4D" d="M461.831,237.931l-14.86,0c-1.075,0-1.946,0.871-1.946,1.946l16.807,0V237.931z"/>
<path fill="#A73935" d="M461.831,239.877l-16.807,0c0,1.075,0.871,1.946,1.946,1.946h14.861L461.831,239.877z"/>
<path fill="#EF4F4D" d="M461.831,219.685c-1.294,0-2.343,1.049-2.343,2.343c0,1.293,1.049,2.342,2.343,2.342V219.685z"/>
<path fill="#FFFFFF" d="M461.831,227.354c-2.053,0-3.715,1.664-3.715,3.715h3.715V227.354z"/>
<polygon fill="#FFFFFF" points="454.401,249.622 461.832,249.622 461.832,241.823 446.971,241.823 "/>
<polygon fill="#FFFFFF" points="458.116,232.935 461.831,232.935 461.831,237.931 453.428,237.931 "/>
<rect x="458.116" y="231.07" fill="#EF4F4D" width="3.715" height="1.865"/>
<circle fill="#FFFFFF" cx="461.413" cy="221.445" r="1.042"/>
<path opacity="0.2" fill="#FFFFFF" d="M456.649,218.308c2.95-2.517,7.115-2.671,10.244-0.379c0.313,0.229,0.277,0.746,0.037,1.005
	c-0.287,0.308-0.692,0.266-1.006,0.037c-2.449-1.794-5.924-1.666-8.233,0.306c-0.294,0.251-0.696,0.323-1.005,0.037
	C456.428,219.073,456.354,218.56,456.649,218.308L456.649,218.308z"/>
<path opacity="0.2" fill="#FFFFFF" d="M454.816,216.384c1.903-1.672,4.252-2.647,6.788-2.761c2.521-0.114,4.976,0.741,6.975,2.251
	c0.31,0.234,0.28,0.743,0.037,1.005c-0.284,0.305-0.696,0.271-1.005,0.037c-3.483-2.63-8.474-2.446-11.753,0.435
	c-0.29,0.256-0.699,0.321-1.005,0.038C454.592,217.146,454.525,216.641,454.816,216.384L454.816,216.384z"/>
<rect x="449.973" y="271.185" fill="#F8AB1F" width="4.429" height="2.444"/>
<rect x="455.901" y="271.185" fill="#F8AB1F" width="2.215" height="2.444"/>
<circle fill="#EF4F4D" cx="457.695" cy="267.295" r="1.793"/>
<circle fill="#EF4F4D" cx="457.695" cy="262.158" r="1.793"/>
<circle fill="#EF4F4D" cx="457.695" cy="257.021" r="1.793"/>
<path fill="#006D65" d="M184.942,290.058c1.621,0,2.936,1.084,2.936,2.421h-5.873C182.006,291.142,183.321,290.058,184.942,290.058z
	"/>
<path fill="#006D65" d="M218.666,293.951c1.622,0,2.936,1.083,2.936,2.421h-5.873C215.729,295.034,217.044,293.951,218.666,293.951z
	"/>
<path fill="#006D65" d="M227.188,291.269c1.622,0,2.937,1.083,2.937,2.421h-5.873C224.251,292.353,225.566,291.269,227.188,291.269z
	"/>
<path fill="#006D65" d="M270.684,290.533c1.622,0,2.937,1.083,2.937,2.421h-5.873C267.748,291.617,269.062,290.533,270.684,290.533z
	"/>
<path fill="#006D65" d="M395.935,294.426c1.621,0,2.937,1.083,2.937,2.42h-5.873C392.998,295.509,394.312,294.426,395.935,294.426z"
	/>
<path fill="#006D65" d="M404.457,291.744c1.621,0,2.937,1.083,2.937,2.421h-5.873C401.521,292.827,402.835,291.744,404.457,291.744z
	"/>
<path fill="#006D65" d="M437.224,290.533c1.621,0,2.936,1.083,2.936,2.421h-5.872C434.287,291.617,435.602,290.533,437.224,290.533z
	"/>
<path fill="#006D65" d="M479.469,291.744c1.621,0,2.937,1.083,2.937,2.421h-5.873C476.532,292.827,477.848,291.744,479.469,291.744z
	"/>
<path fill="#006D65" d="M291.807,302.014c1.622,0,2.937,1.083,2.937,2.42h-5.873C288.871,303.097,290.186,302.014,291.807,302.014z"
	/>
<path opacity="0.2" fill="#FFFFFF" d="M367.554,197.503l-9.773,14.024c2.559,2.364,5.761,4.096,9.414,4.88
	c3.651,0.784,7.283,0.519,10.587-0.587l-3.158-16.8l-3.594-0.481l0,0L367.554,197.503z"/>
<rect x="361.082" y="193.853" transform="matrix(0.3743 0.9273 -0.9273 0.3743 407.4012 -212.6048)" fill="#3ABA77" width="0.342" height="3.503"/>
<circle fill="#3ABA77" cx="359.592" cy="196.256" r="0.839"/>
<circle fill="#FFFFFF" cx="359.448" cy="196.094" r="0.399"/>
<rect x="373.644" y="185.663" transform="matrix(-0.978 -0.2086 0.2086 -0.978 700.3922 447.429)" fill="#3ABA77" width="0.3" height="2.225"/>
<path fill="#57A6FF" d="M373.236,189.416l-7.906-1.697c-0.735-0.158-1.46,0.311-1.617,1.046l9.237,1.983L373.236,189.416z"/>
<path fill="#3469D3" d="M372.95,190.748l-9.237-1.983c-0.158,0.735,0.311,1.459,1.046,1.618l7.906,1.697L372.95,190.748z"/>
<path fill="#3ABA77" d="M373.569,187.866c-3.343-0.718-6.203-0.605-6.387,0.25l6.054,1.3L373.569,187.866z"/>
<path fill="#57A6FF" d="M361.291,193.208c-0.579,2.698,3.716,5.908,9.593,7.17l1.049-4.886L361.291,193.208z"/>
<polygon fill="#3ABA77" points="357.196,192.329 371.933,195.492 372.665,192.08 364.759,190.382 "/>
<circle fill="#3ABA77" cx="374.179" cy="185.024" r="0.839"/>
<circle fill="#FFFFFF" cx="374.035" cy="184.863" r="0.399"/>
<circle fill="#FFFFFF" cx="367.672" cy="192.829" r="0.77"/>
<circle fill="#FFFFFF" cx="370.657" cy="193.47" r="0.771"/>
<path fill="#FFFFFF" d="M367.408,199.341c1.068,0.416,2.236,0.771,3.476,1.036l0.375-1.748
	C369.744,198.305,368.298,198.614,367.408,199.341z"/>
<rect x="381.454" y="198.226" transform="matrix(-0.7213 0.6927 -0.6927 -0.7213 795.3953 79.8826)" fill="#009695" width="0.341" height="3.503"/>
<path fill="#3469D3" d="M373.236,189.416l7.906,1.697c0.735,0.158,1.204,0.882,1.046,1.618l-9.238-1.983L373.236,189.416z"/>
<path fill="#275596" d="M372.95,190.748l9.238,1.983c-0.157,0.735-0.882,1.204-1.617,1.046l-7.906-1.697L372.95,190.748z"/>
<path fill="#009695" d="M373.569,187.866c3.343,0.718,5.904,1.993,5.721,2.849l-6.054-1.299L373.569,187.866z"/>
<path fill="#3469D3" d="M382.573,197.776c-0.579,2.698-5.813,3.863-11.689,2.602l1.049-4.886L382.573,197.776z"/>
<polygon fill="#009695" points="386.668,198.655 371.933,195.492 372.665,192.08 380.571,193.777 "/>
<circle fill="#009695" cx="382.871" cy="201.253" r="0.839"/>
<circle fill="#FFFFFF" cx="383.07" cy="201.165" r="0.399"/>
<circle fill="#D0D5D8" cx="379.895" cy="195.453" r="0.771"/>
<circle fill="#D0D5D8" cx="376.91" cy="194.812" r="0.771"/>
<circle fill="#D0D5D8" cx="373.925" cy="194.172" r="0.77"/>
<path fill="#D0D5D8" d="M374.478,200.859c-1.145-0.059-2.354-0.215-3.594-0.481l0.375-1.748
	C372.773,198.955,373.965,199.831,374.478,200.859z"/>
<polygon opacity="0.2" points="372.57,192.476 363.874,190.609 364.759,190.382 372.655,192.078 "/>
<polygon opacity="0.2" points="372.57,192.476 381.266,194.343 380.554,193.772 372.655,192.078 "/>
<path fill="#FFFFFF" d="M379.468,192.146c-0.044,0.205-0.246,0.335-0.451,0.291l-12.292-2.638c-0.204-0.044-0.335-0.246-0.291-0.451
	l0,0c0.044-0.205,0.246-0.335,0.45-0.291l12.292,2.639C379.381,191.74,379.512,191.941,379.468,192.146L379.468,192.146z"/>
<path opacity="0.2" d="M361.291,193.208c-0.054,0.251-0.065,0.506-0.037,0.763l10.521,2.259l0.158-0.737L361.291,193.208z"/>
<path opacity="0.2" d="M382.573,197.776c-0.054,0.25-0.148,0.488-0.279,0.711l-10.52-2.258l0.158-0.737L382.573,197.776z"/>
<circle fill="#FFFFFF" cx="364.687" cy="192.189" r="0.771"/>
</svg>
