<?xml version="1.0" encoding="utf-8"?>
<!-- Generator: Adobe Illustrator 15.0.0, SVG Export Plug-In  -->
<!DOCTYPE svg PUBLIC "-//W3C//DTD SVG 1.1//EN" "http://www.w3.org/Graphics/SVG/1.1/DTD/svg11.dtd" [
	<!ENTITY ns_flows "http://ns.adobe.com/Flows/1.0/">
]>
<svg version="1.1"
	 xmlns="http://www.w3.org/2000/svg" xmlns:xlink="http://www.w3.org/1999/xlink" xmlns:a="http://ns.adobe.com/AdobeSVGViewerExtensions/3.0/"
	 x="0px" y="0px" width="200px" height="38px" viewBox="0 0 200 38" overflow="visible" enable-background="new 0 0 200 38"
	 xml:space="preserve">
<defs>
</defs>
<path fill="#FFFFFF" d="M183.1,30.1v-1.5h0.8c0.4,0,0.8,0.1,1.1,0.4c0.4,0.3,0.6,0.7,0.6,1.3v7.1H184v-7.1v-0.1l0,0v0l0,0
	c0,0,0,0-0.1,0c0,0-0.1,0-0.1,0H183.1z"/>
<path fill="#FFFFFF" d="M186.7,30.1v-1.5h12.5c0.3,0,0.6,0.2,0.7,0.5c0.1,0.3,0.1,0.6-0.2,0.8l-7.2,7.3l-0.5,0.5l-1.1-1.1l0.5-0.5
	l5.9-6H186.7z"/>
<path fill="#FFFFFF" d="M11.2,26l11.2-12.2v23.1h-2.4V20.1l-8.7,9.5l-8.7-9.5v16.8H0V13.8L11.2,26z"/>
<path fill="#FFFFFF" d="M40.7,21c-1.9-1.9-4.1-2.8-6.8-2.8c-2.6,0-4.9,0.9-6.8,2.8c-1.9,1.9-2.8,4.1-2.8,6.8c0,2.6,0.9,4.9,2.8,6.8
	c1.9,1.9,4.2,2.8,6.8,2.8c2.7,0,4.9-0.9,6.8-2.8c1.9-1.9,2.8-4.2,2.8-6.8C43.6,25.2,42.6,22.9,40.7,21z M39,32.9
	c-1.4,1.4-3.1,2.1-5.1,2.1c-2,0-3.7-0.7-5.1-2.1c-1.4-1.4-2.1-3.1-2.1-5.1s0.7-3.7,2.1-5.1c1.4-1.4,3.1-2.1,5.1-2.1
	c2,0,3.7,0.7,5.1,2.1c1.4,1.4,2.1,3.1,2.1,5.1C41.1,29.8,40.4,31.5,39,32.9z"/>
<path fill="#FFFFFF" d="M82,31.2l2.1,1.2c-0.8,1.5-2,2.7-3.5,3.7c-1.5,0.9-3.2,1.4-5,1.4c-2.6,0-4.9-0.9-6.8-2.8
	c-1.9-1.9-2.8-4.2-2.8-6.8c0-2.7,0.9-4.9,2.8-6.8s4.2-2.8,6.8-2.8c1.7,0,3.2,0.4,4.7,1.2c1.5,0.8,2.6,1.9,3.4,3.2L71.4,33.6
	c1.2,0.9,2.7,1.4,4.3,1.4c1.4,0,2.6-0.3,3.7-1C80.5,33.3,81.4,32.4,82,31.2z M69.8,31.8l10.6-9.4c-1.3-1.2-2.9-1.7-4.7-1.7
	c-2,0-3.7,0.7-5.1,2.1c-1.4,1.4-2.1,3.1-2.1,5.1C68.6,29.3,69,30.6,69.8,31.8z"/>
<path fill="#FFFFFF" d="M154,31.2l2.1,1.2c-0.8,1.5-2,2.7-3.5,3.7c-1.5,0.9-3.2,1.4-5,1.4c-2.6,0-4.9-0.9-6.8-2.8
	c-1.9-1.9-2.8-4.2-2.8-6.8c0-2.7,0.9-4.9,2.8-6.8c1.9-1.9,4.2-2.8,6.8-2.8c1.7,0,3.2,0.4,4.7,1.2c1.5,0.8,2.6,1.9,3.4,3.2
	l-12.4,10.9c1.2,0.9,2.7,1.4,4.3,1.4c1.4,0,2.6-0.3,3.7-1C152.5,33.3,153.4,32.4,154,31.2z M141.7,31.8l10.6-9.4
	c-1.3-1.2-2.9-1.7-4.7-1.7c-2,0-3.7,0.7-5.1,2.1c-1.4,1.4-2.1,3.1-2.1,5.1C140.5,29.3,140.9,30.6,141.7,31.8z"/>
<polygon fill="#FFFFFF" points="136.5,13.8 131.1,29.9 125.7,14.1 120.4,29.9 115,13.8 112.4,13.8 120.4,37.5 125.7,21.7 
	131.1,37.5 139.1,13.8 "/>
<path fill="#FFFFFF" d="M96.1,18.7c-0.8-0.3-1.6-0.5-2.6-0.5c-2,0-3.8,0.7-5.2,2.1c-1.4,1.4-2.1,3.1-2.1,5.2v11.4h2.4V25.5
	c0-1.4,0.5-2.5,1.4-3.4c0.9-0.9,2.1-1.4,3.4-1.4c0.6,0,1.1,0.1,1.6,0.3L96.1,18.7z"/>
<path fill="#FFFFFF" d="M110.2,20.3c-1.4-1.4-3.1-2.1-5.2-2.1c0,0,0,0,0,0h0h0h0c0,0,0,0,0,0c-2,0-3.8,0.7-5.2,2.1
	c-1.4,1.4-2.1,3.1-2.1,5.2v11.4h2.4V25.5c0-1.4,0.5-2.5,1.4-3.4s2.1-1.4,3.4-1.4h0c1.3,0,2.5,0.5,3.4,1.4s1.4,2.1,1.4,3.4v11.4h2.4
	V25.5C112.3,23.4,111.6,21.7,110.2,20.3z"/>
<path fill="#FFFFFF" d="M158.3,13.8v14.1c0-0.6,0.1-1.3,0.2-1.9c-0.1,0.6-0.2,1.2-0.2,1.9c0,2.6,0.9,4.9,2.8,6.8
	c1.9,1.9,4.1,2.8,6.8,2.8c2.6,0,4.9-0.9,6.8-2.8c1.9-1.9,2.8-4.2,2.8-6.8c0-2.7-1-4.9-2.8-6.8c-1.9-1.9-4.2-2.8-6.8-2.8
	c-2.7,0-4.9,0.9-6.8,2.8c-0.1,0.1-0.1,0.2-0.2,0.3c0,0-0.1,0.1-0.1,0.1v-7.7H158.3z M160.7,27.8c0-2,0.7-3.7,2.1-5.1
	c1.4-1.4,3.1-2.1,5.1-2.1c2,0,3.7,0.7,5.1,2.1c1.4,1.4,2.1,3.1,2.1,5.1s-0.7,3.7-2.1,5.1c-1.4,1.4-3.1,2.1-5.1,2.1
	c-2,0-3.7-0.7-5.1-2.1C161.4,31.5,160.7,29.8,160.7,27.8z M158.9,24.5c0-0.1,0-0.1,0.1-0.2C158.9,24.3,158.9,24.4,158.9,24.5z"/>
<path fill="#FFFFFF" d="M65.9,8.4C65.9,7.9,66,7.4,66,6.8v0c0-3.1-1.3-5.8-3.1-6.8c-1.8,1.1-3.1,3.7-3.1,6.8v0c0,0.6,0,1.1,0.1,1.6
	c-0.8,0.7-1.3,1.7-1.3,2.8c0,0.7,0.2,1.3,0.5,1.9c0.4-0.6,1.1-1.1,2-1.3c0.2,0.3,0.4,0.6,0.6,0.8h1.2H64c0.2-0.3,0.4-0.5,0.6-0.8
	c0.8,0.3,1.5,0.8,2,1.3c0.3-0.6,0.5-1.2,0.5-1.9C67.1,10.1,66.6,9.1,65.9,8.4z M62.9,6.3c-1,0-1.8-0.8-1.8-1.8s0.8-1.8,1.8-1.8
	c1,0,1.8,0.8,1.8,1.8S63.8,6.3,62.9,6.3z"/>
<path fill="#FFFFFF" d="M61.7,8.1v13.3c0,0-0.1-0.1-0.1-0.1c-0.1-0.1-0.1-0.2-0.2-0.3c-1.9-1.9-4.1-2.8-6.8-2.8
	c-2.6,0-4.9,0.9-6.8,2.8c-1.9,1.9-2.8,4.1-2.8,6.8c0,2.6,0.9,4.9,2.8,6.8c1.9,1.9,4.2,2.8,6.8,2.8c2.7,0,4.9-0.9,6.8-2.8
	c1.9-1.9,2.8-4.2,2.8-6.8c0-0.3,0-0.5,0-0.5V8.1H61.7z M47.3,27.8c0-2,0.7-3.7,2.1-5.1c1.4-1.4,3.1-2.1,5.1-2.1c2,0,3.7,0.7,5.1,2.1
	c0.2,0.2,0.4,0.5,0.6,0.7c-1,0.1-1.8,0.7-2.2,1.5c-0.5-0.3-1-0.4-1.6-0.4c-1.6,0-3,1.3-3,3c0,0.3,0,0.6,0.1,0.9
	c-0.8,0.3-1.4,1-1.4,1.9c0,0,0,0.1,0,0.1c-1.4,0.2-2.4,1.4-2.4,2.8c0,0,0,0.1,0,0.1c-0.1-0.1-0.2-0.2-0.4-0.3
	C48,31.6,47.3,29.9,47.3,27.8z"/>
<polygon fill="#FFFFFF" points="180.7,30.1 179.7,30.1 180.2,27.1 182,27.1 "/>
<circle fill="#FFFFFF" cx="50.6" cy="31.7" r="2.8"/>
<circle fill="#FFFFFF" cx="52.1" cy="28.9" r="2"/>
<circle fill="#FFFFFF" cx="58.6" cy="24.4" r="2.6"/>
<circle fill="#FFFFFF" cx="55.4" cy="27" r="3"/>
</svg>
