<?xml version="1.0" encoding="utf-8"?>
<!-- Generator: Adobe Illustrator 15.0.0, SVG Export Plug-In  -->
<!DOCTYPE svg PUBLIC "-//W3C//DTD SVG 1.1//EN" "http://www.w3.org/Graphics/SVG/1.1/DTD/svg11.dtd" [
	<!ENTITY ns_flows "http://ns.adobe.com/Flows/1.0/">
]>
<svg version="1.1"
	 xmlns="http://www.w3.org/2000/svg" xmlns:xlink="http://www.w3.org/1999/xlink" xmlns:a="http://ns.adobe.com/AdobeSVGViewerExtensions/3.0/"
	 x="0px" y="0px" width="100px" height="89px" viewBox="0 0 100 89" overflow="visible" enable-background="new 0 0 100 89"
	 xml:space="preserve">
<defs>
</defs>
<path opacity="0.2" fill="#FFFFFF" enable-background="new    " d="M84.094,68.696v-34.6C84.094,15.264,68.831,0,50,0
	c-18.83,0-34.095,15.264-34.095,34.097v34.6H84.094z"/>
<path fill="#A8FF73" d="M69.983,69.181c0,11.034-8.946,19.979-19.983,19.979l0,0c-11.036,0-19.981-8.942-19.981-19.979V34.702
	c0-11.036,8.945-19.982,19.981-19.982l0,0c11.037,0,19.983,8.946,19.983,19.982V69.181z"/>
<path fill="#231815" d="M49.887,53.764c-1.84-0.011-6.417-0.199-9.164-1.7c-1.775-0.97-2.43-3.189-1.464-4.969
	c0.969-1.773,3.191-2.428,4.965-1.46c0.469,0.253,2.477,0.782,5.711,0.805c3.217,0.022,5.275-0.495,5.721-0.732
	c1.732-1.04,3.977-0.474,5.012,1.264c1.041,1.731,0.469,3.981-1.265,5.022C56.679,53.627,51.841,53.776,49.887,53.764"/>
<path fill="#FF7373" d="M42.075,52.656c2.715,0.96,6.25,1.097,7.81,1.106c1.595,0.007,5.105-0.087,7.825-1.01
	c-0.812-2.074-3.987-3.641-7.796-3.662C46.109,49.069,42.914,50.593,42.075,52.656"/>
<circle fill="#FFFFFF" cx="50" cy="32.184" r="9.999"/>
<circle fill="#231815" cx="53.49" cy="32.184" r="6.51"/>
<polygon fill="#FF8787" points="77.521,69.795 21.622,69.795 25.26,57.07 73.881,57.07 "/>
<path fill="#87B1FF" d="M95.414,77.368c0,6.552-6.135,11.864-13.704,11.864H18.292c-7.568,0-13.705-5.312-13.705-11.864l0,0
	c0-6.551,6.136-11.865,13.705-11.865H81.71C89.276,65.506,95.414,70.817,95.414,77.368L95.414,77.368z"/>
<path fill="#5D5DB3" d="M100,77.372c0,3.855-3.129,6.986-6.989,6.986H6.987C3.128,84.358,0,81.23,0,77.372l0,0
	c0-3.859,3.128-6.99,6.987-6.99h86.023C96.871,70.386,100,73.513,100,77.372L100,77.372z"/>
<circle fill="#FFFFFF" cx="14.853" cy="77.369" r="2.417"/>
<circle fill="#FFFFFF" cx="28.552" cy="77.369" r="2.417"/>
<circle fill="#FFFFFF" cx="42.253" cy="77.369" r="2.417"/>
<circle fill="#FFFFFF" cx="55.953" cy="77.369" r="2.417"/>
<circle fill="#FFFFFF" cx="69.653" cy="77.369" r="2.417"/>
<circle fill="#FFFFFF" cx="83.354" cy="77.369" r="2.417"/>
</svg>
