<?xml version="1.0" encoding="utf-8"?>
<!-- Generator: Adobe Illustrator 15.0.0, SVG Export Plug-In  -->
<!DOCTYPE svg PUBLIC "-//W3C//DTD SVG 1.1//EN" "http://www.w3.org/Graphics/SVG/1.1/DTD/svg11.dtd" [
	<!ENTITY ns_flows "http://ns.adobe.com/Flows/1.0/">
]>
<svg version="1.1"
	 xmlns="http://www.w3.org/2000/svg" xmlns:xlink="http://www.w3.org/1999/xlink" xmlns:a="http://ns.adobe.com/AdobeSVGViewerExtensions/3.0/"
	 x="0px" y="0px" width="100px" height="89px" viewBox="-0.259 0.085 100 89"
	 overflow="visible" enable-background="new -0.259 0.085 100 89" xml:space="preserve">
<defs>
</defs>
<polygon fill="#148C66" points="51.544,51.497 49.999,51.497 48.453,51.497 48.25,57.215 49.999,57.215 51.748,57.215 "/>
<polygon fill="#148C66" points="45.237,84.768 43.486,84.768 43.486,72.062 47.161,72.062 "/>
<path fill="#177A57" d="M46.612,86.241c0-2.162-1.752-3.916-3.915-3.916v3.916H46.612z"/>
<path fill="#39BD7A" d="M42.697,82.325c-2.163,0-3.917,1.754-3.917,3.916h3.917V82.325z"/>
<path fill="#39BD7A" d="M49.999,56.052c-5.257,0-9.52,6.185-9.52,11.443s4.263,7.597,9.52,7.597V56.052z"/>
<path fill="#39BD7A" d="M38.343,71.917c-0.126,0-0.255-0.007-0.391-0.02c-0.353-0.033-0.612-0.346-0.58-0.697
	c0.034-0.353,0.35-0.611,0.697-0.58c1.421,0.142,1.816-0.861,1.914-1.291l-3.494-6.773c-0.079-0.155-0.094-0.337-0.037-0.502
	c0.058-0.165,0.181-0.3,0.339-0.373l9.168-4.196c0.323-0.148,0.704-0.005,0.85,0.316c0.148,0.322,0.005,0.702-0.315,0.851
	l-8.56,3.916l3.286,6.365c0.058,0.111,0.079,0.237,0.067,0.363C41.185,70.237,40.435,71.917,38.343,71.917z"/>
<polygon fill="#177A57" points="54.759,84.768 56.51,84.768 56.51,72.062 52.837,72.062 "/>
<path fill="#39BD7A" d="M53.384,86.241c0-2.162,1.754-3.916,3.916-3.916v3.916H53.384z"/>
<path fill="#148C66" d="M57.3,82.325c2.162,0,3.918,1.754,3.918,3.916H57.3V82.325z"/>
<path fill="#148C66" d="M49.999,56.052c5.257,0,9.521,6.185,9.521,11.443s-4.264,7.597-9.521,7.597V56.052z"/>
<path fill="#148C66" d="M61.655,71.917c0.126,0,0.255-0.007,0.391-0.02c0.353-0.033,0.611-0.346,0.579-0.697
	c-0.033-0.353-0.353-0.611-0.699-0.58c-1.421,0.142-1.814-0.861-1.912-1.291l3.494-6.773c0.08-0.155,0.094-0.337,0.035-0.502
	c-0.057-0.165-0.179-0.3-0.338-0.373l-9.17-4.196c-0.322-0.148-0.701-0.005-0.85,0.316c-0.147,0.322-0.005,0.702,0.316,0.851
	l8.559,3.916l-3.282,6.365c-0.06,0.111-0.083,0.237-0.069,0.363C58.812,70.237,59.563,71.917,61.655,71.917z"/>
<circle opacity="0.3" fill="#FFFFFF" cx="47.16" cy="62.078" r="1.693"/>
<circle opacity="0.3" fill="#FFFFFF" cx="46.158" cy="68.244" r="2.672"/>
<path fill="#39BD7A" d="M49.999,11.804c-9.298,0-17.097,4.667-17.097,11.866s4.048,17.548,5.999,22.109
	c1.951,4.561,5.549,6.646,11.099,6.646s9.148-2.086,11.099-6.646c1.949-4.562,6-14.91,6-22.109S59.297,11.804,49.999,11.804z"/>
<path fill="#292D36" d="M40.55,27.318c-1.575-1.159-5.708-2.441-7.567-1.87c0.403,5.092,2.379,11.26,4.123,15.875
	c3.587-0.2,9.646-1.189,9.646-5.479C46.751,32.002,44.274,30.053,40.55,27.318z"/>
<path fill="#292D36" d="M59.445,27.318c1.579-1.159,5.709-2.441,7.568-1.87c-0.401,5.092-2.377,11.26-4.124,15.875
	c-3.585-0.2-9.643-1.189-9.643-5.479C53.247,32.002,55.722,30.053,59.445,27.318z"/>
<path fill="#292D36" d="M49.999,49.064c-2.141,0-3.639-1.155-4.344-1.842c-0.298-0.29-0.303-0.767-0.014-1.064
	c0.292-0.298,0.769-0.302,1.063-0.012c0.542,0.527,1.689,1.414,3.295,1.414c2.005,0,2.979-1.029,3.231-1.345
	c0.26-0.325,0.732-0.378,1.057-0.12c0.324,0.261,0.379,0.731,0.119,1.059C53.452,48.35,51.804,49.064,49.999,49.064z"/>
<circle fill="#FFFFFF" cx="39.031" cy="31.241" r="2.612"/>
<circle fill="#FFFFFF" cx="42.468" cy="35.897" r="1.018"/>
<circle fill="#FFFFFF" cx="61.232" cy="31.241" r="1.744"/>
<path opacity="0.2" fill="#FFFFFF" d="M84.092,68.694V34.094C84.092,15.264,68.83,0,49.999,0c-18.83,0-34.093,15.264-34.093,34.094
	v34.601H84.092z"/>
<polygon fill="#FF8787" points="77.521,69.796 21.622,69.796 25.258,57.068 73.882,57.068 "/>
<path fill="#59DFFF" d="M95.411,77.368c0,6.551-6.134,11.864-13.702,11.864H18.291c-7.567,0-13.706-5.313-13.706-11.864l0,0
	c0-6.553,6.139-11.864,13.706-11.864h63.418C89.277,65.504,95.411,70.815,95.411,77.368L95.411,77.368z"/>
<path fill="#388D96" d="M100,77.371c0,3.857-3.129,6.986-6.989,6.986H6.986C3.126,84.357,0,81.229,0,77.371l0,0
	c0-3.859,3.126-6.989,6.986-6.989h86.025C96.872,70.382,100,73.512,100,77.371L100,77.371z"/>
<circle fill="#FFFFFF" cx="14.851" cy="77.368" r="2.419"/>
<circle fill="#FFFFFF" cx="28.552" cy="77.368" r="2.418"/>
<circle fill="#FFFFFF" cx="42.252" cy="77.368" r="2.418"/>
<path fill="#FFFFFF" d="M58.371,77.368c0,1.334-1.082,2.418-2.418,2.418c-1.339,0-2.42-1.084-2.42-2.418
	c0-1.337,1.081-2.419,2.42-2.419C57.289,74.949,58.371,76.031,58.371,77.368z"/>
<circle fill="#FFFFFF" cx="69.653" cy="77.368" r="2.419"/>
<circle fill="#FFFFFF" cx="83.354" cy="77.368" r="2.418"/>
</svg>
