<?xml version="1.0" encoding="utf-8"?>
<!-- Generator: Adobe Illustrator 15.0.0, SVG Export Plug-In  -->
<!DOCTYPE svg PUBLIC "-//W3C//DTD SVG 1.1//EN" "http://www.w3.org/Graphics/SVG/1.1/DTD/svg11.dtd" [
	<!ENTITY ns_flows "http://ns.adobe.com/Flows/1.0/">
]>
<svg version="1.1"
	 xmlns="http://www.w3.org/2000/svg" xmlns:xlink="http://www.w3.org/1999/xlink" xmlns:a="http://ns.adobe.com/AdobeSVGViewerExtensions/3.0/"
	 x="0px" y="0px" width="100px" height="89px" viewBox="0 0 100 89" overflow="visible" enable-background="new 0 0 100 89"
	 xml:space="preserve">
<defs>
</defs>
<path opacity="0.2" fill="#FFFFFF" d="M84.095,68.694V34.094C84.095,15.264,68.832,0,50,0C31.17,0,15.905,15.264,15.905,34.094
	v34.601H84.095z"/>
<path fill="#FF8A73" d="M69.982,69.178c0,11.036-8.945,19.979-19.982,19.979l0,0c-11.035,0-19.979-8.943-19.979-19.979V34.7
	c0-11.035,8.944-19.982,19.979-19.982l0,0c11.037,0,19.982,8.947,19.982,19.982V69.178z"/>
<path fill="#231815" d="M49.887,53.764c-1.839-0.012-6.417-0.201-9.165-1.702c-1.776-0.968-2.429-3.188-1.465-4.967
	c0.97-1.775,3.193-2.428,4.965-1.461c0.468,0.254,2.479,0.785,5.712,0.807c3.217,0.022,5.273-0.496,5.719-0.732
	c1.734-1.041,3.977-0.474,5.014,1.262c1.041,1.735,0.469,3.983-1.266,5.025C56.679,53.627,51.84,53.775,49.887,53.764"/>
<path fill="#59DFFF" d="M42.077,52.655c2.716,0.96,6.25,1.097,7.81,1.108c1.595,0.007,5.106-0.088,7.825-1.01
	c-0.812-2.074-3.988-3.641-7.795-3.662C46.111,49.068,42.915,50.592,42.077,52.655"/>
<circle fill="#FFFFFF" cx="50.002" cy="32.182" r="9.999"/>
<circle fill="#231815" cx="50.001" cy="35.672" r="6.509"/>
<path fill="#FF8A73" d="M39.047,22.022c-3.811,0.932-7.656-1.403-8.586-5.216c-0.173-0.704-0.199-1.402-0.159-2.089
	c-1.859,1.463-2.806,3.914-2.208,6.362c0.816,3.34,4.186,5.386,7.524,4.57c2.115-0.517,3.702-2.058,4.385-3.966
	C39.69,21.81,39.384,21.939,39.047,22.022z"/>
<path fill="#FF8A73" d="M69.701,14.718c0.039,0.687,0.014,1.385-0.159,2.089c-0.931,3.812-4.775,6.147-8.587,5.216
	c-0.336-0.083-0.642-0.213-0.953-0.338c0.681,1.908,2.268,3.449,4.383,3.966c3.339,0.815,6.709-1.23,7.524-4.57
	C72.505,18.632,71.56,16.181,69.701,14.718z"/>
<polygon fill="#5D5DB3" points="77.521,69.796 21.624,69.796 25.259,57.068 73.883,57.068 "/>
<path fill="#A0ED6E" d="M95.413,77.368c0,6.551-6.135,11.864-13.703,11.864H18.292c-7.567,0-13.705-5.313-13.705-11.864l0,0
	c0-6.553,6.137-11.864,13.705-11.864h63.417C89.278,65.504,95.413,70.815,95.413,77.368L95.413,77.368z"/>
<path fill="#7EB25B" d="M100,77.371c0,3.857-3.127,6.986-6.988,6.986H6.986C3.127,84.357,0,81.229,0,77.371l0,0
	c0-3.859,3.127-6.989,6.986-6.989h86.025C96.873,70.382,100,73.512,100,77.371L100,77.371z"/>
<circle fill="#FFFFFF" cx="14.852" cy="77.368" r="2.418"/>
<circle fill="#FFFFFF" cx="28.552" cy="77.368" r="2.418"/>
<circle fill="#FFFFFF" cx="42.253" cy="77.368" r="2.418"/>
<circle fill="#FFFFFF" cx="55.954" cy="77.368" r="2.419"/>
<circle fill="#FFFFFF" cx="69.654" cy="77.368" r="2.419"/>
<circle fill="#FFFFFF" cx="83.356" cy="77.368" r="2.417"/>
</svg>
