<svg xmlns="http://www.w3.org/2000/svg" viewBox="0 0 359.96 365.79"><title>ta0523</title><g style="isolation:isolate"><g id="bg-"><circle cx="80.92" cy="284.78" r="80.29" style="fill:#39155b"/><g style="opacity:0.7000000000000001"><path d="M353.93,184.06a123,123,0,1,1-80.3-154.24,123,123,0,0,1,80.3,154.24" style="fill:#7f60a6"/><path d="M342.38,84.58a122.78,122.78,0,0,1-228.52,66.18A122.87,122.87,0,1,0,342.38,84.58" style="fill:#6f5599"/><path d="M355.46,163.42a96.5,96.5,0,0,0,3.84-9.6A122.87,122.87,0,0,0,291.11,37c-36.36-4-73.74,16.81-91.05,53.89-21.41,45.88-4,99.3,38.93,119.34s95.06-.93,116.47-46.81" style="fill:#b8a3e4"/><path d="M357.85,127.09c-1,2.68-2,5.34-3.2,8-21.42,45.88-73.57,66.83-116.48,46.81-25.24-11.78-41.57-35.16-46.46-61.72-4.61,37.4,13.3,74.2,47.28,90.06,42.91,20,95.06-.93,116.47-46.81a99.93,99.93,0,0,0,3.85-9.59,123.36,123.36,0,0,0-1.46-26.74" style="fill:#a693d8"/><path d="M270.37,67.45a23.31,23.31,0,1,1-15.22-29.24,23.31,23.31,0,0,1,15.22,29.24" style="fill:#7f60a6"/><path d="M230.67,139.54a23.31,23.31,0,1,1-15.22-29.24,23.31,23.31,0,0,1,15.22,29.24" style="fill:#7f60a6"/><path d="M220.88,85.57a17.41,17.41,0,1,1-11.37-21.85,17.4,17.4,0,0,1,11.37,21.85" style="fill:#b8a3e4"/><path d="M289.09,131.82A13.9,13.9,0,1,1,280,114.39a13.9,13.9,0,0,1,9.08,17.43" style="fill:#7f60a6"/><path d="M173.08,148.52a20.49,20.49,0,1,1-13.38-25.71,20.48,20.48,0,0,1,13.38,25.71" style="fill:#b8a3e4"/><path d="M199.46,237.5a14.37,14.37,0,1,1-9.39-18,14.36,14.36,0,0,1,9.39,18" style="fill:#7f60a6"/><path d="M262.33,246.33a17.67,17.67,0,1,1-11.53-22.16,17.68,17.68,0,0,1,11.53,22.16" style="fill:#7f60a6"/><path d="M169.61,91.41a10.33,10.33,0,1,1-6.75-13,10.34,10.34,0,0,1,6.75,13" style="fill:#b8a3e4"/><path d="M218.08,190.12a10.33,10.33,0,1,1-6.74-13,10.32,10.32,0,0,1,6.74,13" style="fill:#a693d8"/><path d="M321.66,210.08a13.9,13.9,0,1,1-9.08-17.44,13.9,13.9,0,0,1,9.08,17.44" style="fill:#7f60a6"/></g><rect x="125.78" y="90.15" width="11.29" height="1.1" transform="translate(18.14 203.25) rotate(-79.43)" style="fill:#3aba77"/><path d="M132.21,94.42a2.7,2.7,0,1,1-3.82,0A2.71,2.71,0,0,1,132.21,94.42Z" style="fill:#3aba77"/><path d="M130.52,95.54a1.28,1.28,0,1,1-1.82,0A1.29,1.29,0,0,1,130.52,95.54Z" style="fill:#fff"/><rect x="128.8" y="37.73" width="0.97" height="7.17" transform="translate(8.77 103.76) rotate(-45.12)" style="fill:#3aba77"/><path d="M135.48,47.42l-18.36,18.5a4.39,4.39,0,0,0,0,6.21l21.45-21.62Z" style="fill:#fbff48"/><path d="M138.59,50.51,117.14,72.13a4.39,4.39,0,0,0,6.21,0l18.36-18.5Z" style="fill:#d3ce29"/><path d="M131.85,43.82c-7.76,7.83-12.43,15.78-10.43,17.77l14.06-14.17Z" style="fill:#3aba77"/><path d="M125,86.43c6.31,6.26,22.49.19,36.14-13.56L149.69,61.53Z" style="fill:#fbff48"/><polygon points="115.48 96.01 149.69 61.53 141.71 53.61 123.35 72.11 115.48 96.01" style="fill:#3aba77"/><path d="M127.1,35.31a2.7,2.7,0,1,1-3.82,0A2.7,2.7,0,0,1,127.1,35.31Z" style="fill:#3aba77"/><path d="M125.41,36.43a1.28,1.28,0,1,1-1.81,1.82,1.28,1.28,0,0,1,1.81-1.82Z" style="fill:#fff"/><path d="M136.81,66.7a2.48,2.48,0,1,1-3.51,0A2.48,2.48,0,0,1,136.81,66.7Z" style="fill:#fff"/><path d="M143.74,59.71a2.49,2.49,0,1,1-3.51,0A2.48,2.48,0,0,1,143.74,59.71Z" style="fill:#fff"/><path d="M152.27,80.5a73,73,0,0,0,8.86-7.63L157,68.81C153.52,72.36,151.84,76.82,152.27,80.5Z" style="fill:#fff"/><rect x="173.08" y="42.48" width="11.29" height="1.1" transform="translate(-4.94 35.25) rotate(-11.11)" style="fill:#009695"/><path d="M135.48,47.42l18.35-18.5a4.39,4.39,0,0,1,6.21,0L138.59,50.51Z" style="fill:#eaea34"/><path d="M138.59,50.51,160,28.9a4.38,4.38,0,0,1,0,6.2L141.71,53.61Z" style="fill:#d3ce29"/><path d="M131.85,43.82c7.76-7.82,15.68-12.55,17.68-10.56L135.48,47.42Z" style="fill:#009695"/><path d="M174.4,36.63c6.31,6.26.37,22.49-13.27,36.24L149.69,61.53Z" style="fill:#eaea34"/><polygon points="183.91 27.05 149.69 61.53 141.71 53.61 160.06 35.1 183.91 27.05" style="fill:#009695"/><path d="M182.45,43.79a2.7,2.7,0,1,0,0-3.83A2.7,2.7,0,0,0,182.45,43.79Z" style="fill:#009695"/><path d="M183.55,42.09a1.29,1.29,0,1,0,0-1.82A1.28,1.28,0,0,0,183.55,42.09Z" style="fill:#fff"/><path d="M161.69,41.62a2.49,2.49,0,1,0,0-3.51A2.48,2.48,0,0,0,161.69,41.62Z" style="fill:#d0d5d8"/><path d="M154.76,48.6a2.48,2.48,0,1,0,0-3.51A2.48,2.48,0,0,0,154.76,48.6Z" style="fill:#d0d5d8"/><path d="M147.83,55.59a2.48,2.48,0,1,0,0-3.51A2.48,2.48,0,0,0,147.83,55.59Z" style="fill:#d0d5d8"/><path d="M168.68,64a74.12,74.12,0,0,1-7.55,8.91L157,68.81C160.55,65.27,165,63.56,168.68,64Z" style="fill:#d0d5d8"/><polygon points="142.62 54.55 122.43 74.9 123.35 72.11 141.69 53.63 142.62 54.55" style="opacity:0.2;mix-blend-mode:multiply"/><polygon points="142.62 54.55 162.81 34.2 160.02 35.15 141.69 53.63 142.62 54.55" style="opacity:0.2;mix-blend-mode:multiply"/><path d="M153.72,35.26a1.23,1.23,0,0,1,0,1.73L125.19,65.76a1.22,1.22,0,0,1-1.73,0h0a1.22,1.22,0,0,1,0-1.73L152,35.27a1.23,1.23,0,0,1,1.73,0Z" style="fill:#fff"/><path d="M125,86.43a8.11,8.11,0,0,0,2,1.43l24.43-24.62-1.73-1.71Z" style="opacity:0.2;mix-blend-mode:multiply"/><path d="M174.4,36.63a7.91,7.91,0,0,1,1.44,2L151.42,63.24l-1.73-1.71Z" style="opacity:0.2;mix-blend-mode:multiply"/><path d="M129.88,73.68a2.49,2.49,0,1,1-3.51,0A2.48,2.48,0,0,1,129.88,73.68Z" style="fill:#fff"/><path d="M124.37,15.85a1,1,0,0,0,.79.55l7,.74-1.09,10.24,8.41-14.54a1,1,0,0,0-.76-1.5l-7-.75L132.81.36,124.4,14.9A1,1,0,0,0,124.37,15.85Z" style="fill:#c3c3c3"/><path d="M98.13,42.68a1.29,1.29,0,0,0,.73-1l1.25-8.93,13.06,1.83L94.9,23.21a1.29,1.29,0,0,0-2,.92L91.7,33.05,78.64,31.23,96.91,42.61A1.32,1.32,0,0,0,98.13,42.68Z" style="fill:#c3c3c3"/></g></g></svg>