<svg xmlns="http://www.w3.org/2000/svg" xmlns:xlink="http://www.w3.org/1999/xlink" viewBox="0 0 498.4 161.43"><defs><linearGradient id="linear-gradient" x1="228.63" y1="1.86" x2="232.62" y2="231.07" gradientUnits="userSpaceOnUse"><stop offset="0" stop-color="#89ffff"/><stop offset="0.89" stop-color="#54c0ff"/></linearGradient><linearGradient id="linear-gradient-2" x1="86.58" y1="168.47" x2="76.32" y2="47.5" gradientUnits="userSpaceOnUse"><stop offset="0" stop-color="#4a9a3b"/><stop offset="1" stop-color="#95ea42"/></linearGradient><linearGradient id="linear-gradient-3" x1="375.05" y1="176.48" x2="365.22" y2="60.54" xlink:href="#linear-gradient-2"/><linearGradient id="linear-gradient-4" x1="175.94" y1="37.74" x2="175.37" y2="159.44" gradientUnits="userSpaceOnUse"><stop offset="0" stop-color="#9ff2ff"/><stop offset="1" stop-color="#b3ffff"/></linearGradient><linearGradient id="linear-gradient-5" x1="193.34" y1="37.82" x2="192.77" y2="159.52" xlink:href="#linear-gradient-4"/><linearGradient id="linear-gradient-6" x1="309.38" y1="38.37" x2="308.81" y2="160.06" xlink:href="#linear-gradient-4"/><linearGradient id="linear-gradient-7" x1="325.64" y1="38.45" x2="325.07" y2="160.14" xlink:href="#linear-gradient-4"/><linearGradient id="linear-gradient-8" x1="195.89" y1="37.84" x2="195.32" y2="159.53" xlink:href="#linear-gradient-4"/><linearGradient id="linear-gradient-9" x1="246.61" y1="38.07" x2="246.04" y2="159.77" xlink:href="#linear-gradient-4"/><linearGradient id="linear-gradient-10" x1="135.28" y1="37.55" x2="134.71" y2="159.24" xlink:href="#linear-gradient-4"/><linearGradient id="linear-gradient-11" x1="192.3" y1="37.82" x2="191.73" y2="159.51" xlink:href="#linear-gradient-4"/><linearGradient id="linear-gradient-12" x1="246.64" y1="38.07" x2="246.07" y2="159.77" xlink:href="#linear-gradient-4"/><linearGradient id="linear-gradient-13" x1="139.55" y1="113.95" x2="129.12" y2="53.26" gradientUnits="userSpaceOnUse"><stop offset="0" stop-color="#2a7a25"/><stop offset="1" stop-color="#95ea42"/></linearGradient><linearGradient id="linear-gradient-14" x1="154.99" y1="77.67" x2="142.65" y2="23.42" xlink:href="#linear-gradient-2"/><linearGradient id="linear-gradient-15" x1="342.48" y1="97.73" x2="334.73" y2="63.66" xlink:href="#linear-gradient-2"/><linearGradient id="linear-gradient-16" x1="283.31" y1="128.52" x2="255.49" y2="6.27" xlink:href="#linear-gradient-2"/></defs><title>MD2019-素材</title><g id="_1-kv-planet" data-name="1-kv-planet"><path d="M428.92,115.87l32.43,45.54L1.45,161l40-45.1c46.12-46.6,115.79-76.29,193.74-76.29S382.81,69.27,428.92,115.87Z" style="fill:url(#linear-gradient)"/><polygon points="104 74.75 89 49.01 84.71 53.27 87.08 45.71 72.78 21.17 74.01 27.77 75.91 29.59 74.22 29.1 80.65 63.49 91.1 68.46 81.56 68.38 84.12 82.14 104 74.75" style="fill:#009734"/><polygon points="396.29 82.24 406.71 54.33 400.69 53.71 408.05 50.76 417.98 24.16 413.65 29.29 413.45 31.91 412.76 30.29 390.21 57.05 392.99 68.28 387.01 60.84 377.98 71.53 396.29 82.24" style="fill:#009734"/><polygon points="445.18 117.81 460.1 92.02 454.26 90.41 462.01 88.72 476.23 64.14 471.11 68.47 470.47 71.03 470.06 69.32 443.38 91.95 444.25 103.48 439.59 95.16 428.91 104.2 445.18 117.81" style="fill:#009734"/><polygon points="140.68 57.46 126.54 29.85 121.84 34.05 124.73 26.32 111.25 0 112.15 6.93 114.02 8.93 112.3 8.32 117.04 44.44 127.63 50.19 117.71 49.57 119.6 64.02 140.68 57.46" style="fill:#11d14c"/><polygon points="94.21 78.27 70.11 49.39 65.67 55.61 67.02 45.7 44.04 18.17 46.97 26.13 49.72 28 47.51 27.74 62.77 69.19 76.83 73.16 64.94 75.07 71.03 91.66 94.21 78.27" style="fill:#11d14c"/><polygon points="383.32 77.38 391.02 40.56 383.39 40.94 392 35.85 399.34 0.75 394.91 7.98 395.15 11.3 393.99 9.41 370.94 47.09 376.55 60.58 367.67 52.44 358.44 67.5 383.32 77.38" style="fill:#11d14c"/><polygon points="462.64 122.96 477.67 101.79 471.38 99.41 480.13 98.34 498.4 72.61 492.28 76.88 491.31 79.64 491.04 77.7 459.18 99.99 458.95 112.84 454.65 103.15 441.9 112.05 460.74 126.76 462.64 122.96" style="fill:#11d14c"/><path d="M293.58,70.12l51-9.64s-3.79-7.37-6.62-10.06-37.12-10.93-63.83-13.68c-36-3.7-70.58-5.62-77.55-2.94-5.7,2.2-10.11,6.55-14.74,10.53,8,1.15,15.64,2,23.63,3.13-.79,9-4.3,26.61-4.3,26.61l29.3-7.13,53.83,16.27Z" style="fill:#fff"/><path d="M166.59,98.51l-10.9,9.67-24.52,3.55-22.56-5-2,16.22-2.77,38.11L0,161s8.32-24.32,20.1-38S83,78.62,83,78.62l67.67-33.87,6.8,5.09-5.2,24.76Z" style="fill:url(#linear-gradient-2)"/><path d="M457.26,123c11.32,11.35,28.25,38.44,28.25,38.44l-188.89-.18-39-51.92,9.38-5.89L311.82,107l31.57-11.82L328.84,84.64l25.88-19.81,16,.58L418.3,94.83S447.18,112.9,457.26,123Z" style="fill:url(#linear-gradient-3)"/><path d="M175.29,76.19a15.6,15.6,0,0,1-7.65,1.63c-4.52-.21-8.47-2.79-8.41-7.69a14.43,14.43,0,0,1,3.37-8.65,32.42,32.42,0,0,1,7.07-6.24c5.11-3.55,11.33-6.65,17.34-5.06a8,8,0,0,1,3.2,1.56c2.48,2.13,2.74,6.06,1.4,9C188.83,67,181.34,73.26,175.29,76.19Z" style="opacity:0.67;fill:url(#linear-gradient-4)"/><path d="M196.53,78.32a6.52,6.52,0,0,0,1.15-1.73,7.56,7.56,0,0,0,.77-4.57,4.94,4.94,0,0,0-2.66-3.67,5,5,0,0,0-4.95.69,8,8,0,0,0-2.76,4.33,6.18,6.18,0,0,0-.24,2.45c.35,2.59,3.27,4.34,5.85,3.92A5.27,5.27,0,0,0,196.53,78.32Z" style="opacity:0.67;fill:url(#linear-gradient-5)"/><path d="M298.63,93.48c2.8,1.87,6.57,1.74,9.69.48s5.72-3.51,8.21-5.77c2.26-2.06,4.53-4.24,5.87-7s1.55-6.25-.21-8.76a8.52,8.52,0,0,0-7-3.24,19.19,19.19,0,0,0-7.68,1.93c-4.52,2-9,4.74-11.3,9.09S294.53,90.76,298.63,93.48Z" style="opacity:0.67;fill:url(#linear-gradient-6)"/><path d="M330.06,92.87a4,4,0,0,0-2.75-2.33c-1.85-.49-3.67,1-4.92,2.3-2.41,2.47-3.11,6,1.36,6A7.24,7.24,0,0,0,329.57,96,3.24,3.24,0,0,0,330.06,92.87Z" style="opacity:0.67;fill:url(#linear-gradient-7)"/><path d="M227.34,117.35a17.41,17.41,0,0,1-5.49,5.61h-60a20.09,20.09,0,0,1,10.62-16.67c8.2-4.19,18.14-2.18,27.1-4.28a35.75,35.75,0,0,0,7.08-2.52,36.22,36.22,0,0,1,5.91-2.55,13.59,13.59,0,0,1,14.23,5.18A14.36,14.36,0,0,1,227.34,117.35Z" style="opacity:0.67;fill:url(#linear-gradient-8)"/><path d="M243.27,75.7c-5.36-2-12.45-4.17-16.57,1.09-2.59,3.31-.33,7.8,1.3,11.12,2.24,4.55,5.51,8.51,8.76,12.37a24.81,24.81,0,0,0,6.31,5.88c5.71,3.24,9.5-.76,14-3.88,2.25-1.55,4.25-3.43,6.46-5a8.45,8.45,0,0,0,3.55-4.63c.61-2.43-.91-3.58-2.75-5.1a67.46,67.46,0,0,0-19.53-11.24Z" style="opacity:0.67;fill:url(#linear-gradient-9)"/><path d="M155.39,123h-41a8.07,8.07,0,0,1,3.54-5.68c3.66-2.34,8.4-1.32,12.74-1.06,4.19.24,8.41-.33,12.59,0s8.56,1.77,11.1,5.12A12.35,12.35,0,0,1,155.39,123Z" style="opacity:0.67;fill:url(#linear-gradient-10)"/><path d="M205.56,94.75c3.48-2.31,6.77-7.89,1.69-10.71a6.68,6.68,0,0,0-4.19-.55c-2.64.38-5.15,1.55-7.81,1.62-3.09.09-6-1.31-9-2-8.28-2-10.72,4.91-11.83,11.76a5.69,5.69,0,0,0,.22,3.68c.78,1.38,2.51,1.86,4.07,2.1A38.37,38.37,0,0,0,205.56,94.75Z" style="opacity:0.67;fill:url(#linear-gradient-11)"/><path d="M261.56,123H230.93l.33-.85a16.52,16.52,0,0,1,2.59-5c2.41-2.8,6.32-3.65,9.94-4.35,2.39-.46,4.86-.91,7.21-.32a13.29,13.29,0,0,1,6.53,4.6A32.05,32.05,0,0,1,261.56,123Z" style="opacity:0.67;fill:url(#linear-gradient-12)"/><polygon points="201.15 74.07 205.45 47.47 209.86 57.88 230.93 54.91 280.28 65.99 284.28 83.21 230.45 66.94 201.15 74.07" style="fill:#e5e5e5"/><polygon points="280.28 65.99 293.74 54.91 293.58 70.12 284.28 83.21 280.28 65.99" style="fill:#d8d8d8"/><polygon points="293.74 54.91 340.05 52.95 344.56 60.48 293.58 70.12 293.74 54.91" style="fill:#e5e5e5"/><polygon points="108.61 106.74 108.61 97.56 131.17 103.5 152.53 98.83 161.72 90.4 166.59 98.51 155.69 108.18 131.17 111.73 108.61 106.74" style="fill:url(#linear-gradient-13)"/><polygon points="150.63 44.75 144.51 70.16 152.24 74.6 157.44 49.84 150.63 44.75" style="fill:url(#linear-gradient-14)"/><polygon points="343.39 95.21 351.14 88.95 338.32 77.38 328.84 84.64 343.39 95.21" style="fill:url(#linear-gradient-15)"/><polygon points="267 103.44 257.62 109.33 296.78 161.28 312.08 161.28 267 103.44" style="fill:url(#linear-gradient-16)"/><path d="M128.83,60.92a122.87,122.87,0,0,0-28.2,13.72A27.89,27.89,0,0,0,94,80.25C91,84,90.62,89.46,96.42,89.1a68.3,68.3,0,0,0,34.62-12c3-2.08,6-4.61,7.06-8.09s-.57-8-4.13-8.8A9.85,9.85,0,0,0,128.83,60.92Z" style="fill:#c4ff66;opacity:0.2"/><path d="M142.77,87.17c1.36-2,2.09-4.68.77-6.66-3.17-4.76-11.11-.46-12.35,3.88a4.48,4.48,0,0,0,.52,3.91c1,1.35,2.87,1.73,4.56,1.83a8,8,0,0,0,3.8-.51A6.91,6.91,0,0,0,142.77,87.17Z" style="fill:#c4ff66;opacity:0.2"/><path d="M119.59,92.81c5.25,1.2,8.74-6.32,3.09-6.61a4.6,4.6,0,0,0-3.28,1.7A5.3,5.3,0,0,0,118,90a2.24,2.24,0,0,0,.51,2.35A2.82,2.82,0,0,0,119.59,92.81Z" style="fill:#c4ff66;opacity:0.2"/><path d="M386.57,99.28c2.84-.14,5.32-.83,6.83-2.39,9.2-9.51-26.53-34.28-33.71-19.67A8.7,8.7,0,0,0,359,82c.65,5.86,5,10.88,10.25,13.54A41.13,41.13,0,0,0,386.57,99.28Z" style="fill:#c4ff66;opacity:0.2"/><path d="M359.3,105.9a4.84,4.84,0,0,0,1.44-1.15c1.56-1.77,1.93-4.68.38-6.45a5.21,5.21,0,0,0-3-1.58c-1.83-.34-4,.15-5,1.74a4.47,4.47,0,0,0-.59,2.59,5.82,5.82,0,0,0,2.09,4.29A4.47,4.47,0,0,0,359.3,105.9Z" style="fill:#c4ff66;opacity:0.2"/></g></svg>