<?xml version="1.0" encoding="utf-8"?>
<!-- Generator: Adobe Illustrator 22.1.0, SVG Export Plug-In . SVG Version: 6.00 Build 0)  -->
<svg version="1.1" id="圖層_1" xmlns="http://www.w3.org/2000/svg" xmlns:xlink="http://www.w3.org/1999/xlink" x="0px" y="0px"
	 viewBox="0 0 56.1 50.1" style="enable-background:new 0 0 56.1 50.1;" xml:space="preserve">
<path style="opacity:0.2;fill:#FFFFFF;enable-background:new    ;" d="M47.2,38.5V19.1C47.2,8.5,38.6,0,28,0S8.9,8.6,8.9,19.1v19.4
	H47.2z"/>
<path style="fill:#A8FF73;" d="M39.2,38.8C39.2,45,34.2,50,28,50l0,0c-6.2,0-11.2-5-11.2-11.2V19.5c0-6.2,5-11.2,11.2-11.2l0,0l0,0
	c6.2,0,11.2,5,11.2,11.2l0,0V38.8z"/>
<path style="fill:#FFFFFF;" d="M28.1,11.6c4.4,0,7.9,3.5,7.9,7.9s-3.5,7.9-7.9,7.9s-7.9-3.5-7.9-7.9l0,0
	C20.2,15.2,23.7,11.6,28.1,11.6z"/>
<path style="fill:#231815;" d="M30.9,14.4c2.8,0,5.2,2.3,5.2,5.2s-2.3,5.1-5.2,5.1c-2.8,0-5.1-2.3-5.1-5.1l0,0
	C25.7,16.7,28,14.4,30.9,14.4L30.9,14.4z"/>
<polygon style="fill:#FF8787;" points="43.5,39.1 12.1,39.2 14.2,32 41.4,32 "/>
<path style="fill:#87B1FF;" d="M53.5,43.4c0,3.7-3.4,6.7-7.7,6.7H10.3c-4.2,0-7.7-3-7.7-6.6l0,0c0-3.7,3.4-6.7,7.7-6.7h35.6
	C50.1,36.7,53.5,39.7,53.5,43.4L53.5,43.4z"/>
<path style="fill:#5D5DB3;" d="M56.1,43.4c0,2.2-1.7,3.9-3.9,3.9l0,0H3.9c-2.2,0-3.9-1.8-3.9-3.9l0,0c0-2.2,1.7-3.9,3.9-3.9h48.2
	C54.3,39.5,56.1,41.2,56.1,43.4L56.1,43.4L56.1,43.4z"/>
<path style="fill:#FFFFFF;" d="M8.3,42.1c0.8,0,1.4,0.6,1.4,1.4c0,0.8-0.6,1.4-1.4,1.4c-0.8,0-1.4-0.6-1.4-1.4l0,0
	C7,42.7,7.6,42.1,8.3,42.1z"/>
<path style="fill:#FFFFFF;" d="M16,42.1c0.8,0,1.4,0.6,1.4,1.3c0,0.8-0.6,1.4-1.3,1.4c-0.8,0-1.4-0.6-1.4-1.3l0,0
	C14.7,42.7,15.3,42.1,16,42.1z"/>
<path style="fill:#FFFFFF;" d="M23.7,42c0.7,0,1.4,0.6,1.4,1.3l0,0c-0.1,0.7-0.7,1.3-1.5,1.2c-0.7-0.1-1.2-0.6-1.2-1.2
	C22.3,42.6,22.9,42,23.7,42L23.7,42z"/>
<path style="fill:#FFFFFF;" d="M31.4,42c0.8,0,1.4,0.6,1.4,1.3c0,0.8-0.6,1.4-1.3,1.4c-0.8,0-1.4-0.6-1.4-1.3l0,0
	C30,42.6,30.6,42,31.4,42z"/>
<path style="fill:#FFFFFF;" d="M39.1,42c0.8,0,1.4,0.6,1.4,1.3s-0.6,1.4-1.3,1.4s-1.4-0.6-1.4-1.3l0,0C37.7,42.6,38.3,42,39.1,42z"
	/>
<path style="fill:#FFFFFF;" d="M46.8,42c0.8,0,1.4,0.6,1.4,1.4s-0.6,1.4-1.4,1.4s-1.4-0.6-1.4-1.4S46,42,46.8,42L46.8,42z"/>
</svg>
