<svg xmlns="http://www.w3.org/2000/svg" xmlns:xlink="http://www.w3.org/1999/xlink" viewBox="0 0 47.8 47.8"><defs><linearGradient id="未命名漸層_18" x1="41.33" y1="2.64" x2="4.63" y2="47.38" gradientUnits="userSpaceOnUse"><stop offset="0" stop-color="#ee8c2d"/><stop offset="1" stop-color="#e9c650"/></linearGradient><linearGradient id="未命名漸層_18-2" x1="24.04" y1="23.78" x2="0.79" y2="43.15" xlink:href="#未命名漸層_18"/><linearGradient id="未命名漸層_18-3" x1="18.16" y1="26.38" x2="-0.58" y2="34.06" xlink:href="#未命名漸層_18"/></defs><title>deco-planet4</title><g id="_1-kv-planet" data-name="1-kv-planet"><path d="M47.8,23.9V24a21.81,21.81,0,0,1-.43,4.37c0,.09,0,.18,0,.28-.12.61-.26,1.22-.43,1.81s-.34,1.11-.54,1.65a24.42,24.42,0,0,1-2.11,4.33.08.08,0,0,0,0,0c-.38.6-.77,1.19-1.2,1.75h0a23.69,23.69,0,0,1-6.86,6.17A23.88,23.88,0,0,1,23.9,47.8h-.23a23.58,23.58,0,0,1-10.52-2.56,23.87,23.87,0,0,1-9.09-8A.55.55,0,0,1,4,37.07a22.78,22.78,0,0,1-3-6.53,1.13,1.13,0,0,1-.08-.24A24.17,24.17,0,0,1,0,23.9a21.3,21.3,0,0,1,.16-2.65A23.72,23.72,0,0,1,9.26,5,21.63,21.63,0,0,1,11.9,3.21c.35-.19.72-.39,1.08-.57a1.51,1.51,0,0,1,.22-.11A21.68,21.68,0,0,1,16,1.31,23.65,23.65,0,0,1,21.24.15,23.32,23.32,0,0,1,23.9,0,23.69,23.69,0,0,1,35.38,2.94a22.11,22.11,0,0,1,2.53,1.61,23.13,23.13,0,0,1,5.56,5.65c.36.5.7,1,1,1.57A23.78,23.78,0,0,1,47.8,23.9Z" style="fill:url(#未命名漸層_18)"/><path d="M46.35,32.12a24.42,24.42,0,0,1-2.11,4.33.08.08,0,0,0,0,0c-.38.6-.77,1.19-1.2,1.75h0a23.69,23.69,0,0,1-6.86,6.17A23.88,23.88,0,0,1,23.9,47.8h-.23a23.58,23.58,0,0,1-10.52-2.56,23.87,23.87,0,0,1-9.09-8A.55.55,0,0,1,4,37.07a22.78,22.78,0,0,1-3-6.53,1.13,1.13,0,0,1-.08-.24A24.17,24.17,0,0,1,0,23.9a21.3,21.3,0,0,1,.16-2.65A23.72,23.72,0,0,1,9.26,5,21.63,21.63,0,0,1,11.9,3.21c.35-.19.72-.39,1.08-.57a1.51,1.51,0,0,1,.22-.11A26.63,26.63,0,0,0,12,6.17a14.76,14.76,0,0,0,.75,10.38,24.21,24.21,0,0,0,3.51,5.37,16.5,16.5,0,0,0,5,3.84c3.44,1.79,8,2.83,14.56,3.39a25.23,25.23,0,0,1,5.45,1.05A44.74,44.74,0,0,1,46.35,32.12Z" style="opacity:0.85;fill:url(#未命名漸層_18-2)"/><path d="M27.65,47.5a23.24,23.24,0,0,1-3.75.3h-.23a23.58,23.58,0,0,1-10.52-2.56,23.87,23.87,0,0,1-9.09-8A.55.55,0,0,1,4,37.07a22.78,22.78,0,0,1-3-6.53,1.13,1.13,0,0,1-.08-.24A24.17,24.17,0,0,1,0,23.9a21.3,21.3,0,0,1,.16-2.65A23.72,23.72,0,0,1,9.26,5a28.68,28.68,0,0,0-3.71,15.6c.75,10.65,6.2,12.16,14.36,17.15A18.55,18.55,0,0,1,27.65,47.5Z" style="opacity:0.85;fill:url(#未命名漸層_18-3)"/></g></svg>