<svg xmlns="http://www.w3.org/2000/svg" xmlns:xlink="http://www.w3.org/1999/xlink" viewBox="0 0 84.18 84.25"><defs><linearGradient id="linear-gradient" x1="13.8" y1="13.54" x2="81.99" y2="82.5" gradientUnits="userSpaceOnUse"><stop offset="0" stop-color="#f5ef64"/><stop offset="1" stop-color="#0063ed"/></linearGradient><linearGradient id="linear-gradient-2" x1="13.78" y1="13.56" x2="81.98" y2="82.52" gradientUnits="userSpaceOnUse"><stop offset="0" stop-color="#d1d94f"/><stop offset="1" stop-color="#0052bb"/></linearGradient><linearGradient id="linear-gradient-3" x1="112" y1="-4.3" x2="-4.37" y2="76.67" xlink:href="#linear-gradient-2"/><linearGradient id="linear-gradient-4" x1="46.24" y1="59.18" x2="18.94" y2="49.8" gradientUnits="userSpaceOnUse"><stop offset="0" stop-color="#819d4b"/><stop offset="1" stop-color="#0052bb"/></linearGradient><linearGradient id="linear-gradient-5" x1="55.24" y1="115.14" x2="72.25" y2="33.76" gradientUnits="userSpaceOnUse"><stop offset="0" stop-color="#3f7cff"/><stop offset="1" stop-color="#003c88"/></linearGradient><linearGradient id="linear-gradient-6" x1="24.46" y1="29.4" x2="86.96" y2="13.25" xlink:href="#linear-gradient-2"/><linearGradient id="linear-gradient-7" x1="8.31" y1="31.4" x2="66.61" y2="40.8" xlink:href="#linear-gradient-2"/><linearGradient id="linear-gradient-8" x1="-3.85" y1="27.71" x2="30.9" y2="74.46" gradientUnits="userSpaceOnUse"><stop offset="0" stop-color="#debe36"/><stop offset="1" stop-color="#0052bb"/></linearGradient><linearGradient id="linear-gradient-9" x1="69.7" y1="2.44" x2="47.2" y2="23.55" xlink:href="#linear-gradient-2"/><linearGradient id="linear-gradient-10" x1="-25.96" y1="68.01" x2="44.32" y2="68.01" xlink:href="#linear-gradient-4"/><linearGradient id="linear-gradient-11" x1="23.33" y1="74.85" x2="46.26" y2="74.85" gradientUnits="userSpaceOnUse"><stop offset="0" stop-color="#3f6b72"/><stop offset="1" stop-color="#003c88"/></linearGradient><linearGradient id="linear-gradient-12" x1="71.57" y1="53.45" x2="75.11" y2="39.62" xlink:href="#linear-gradient-11"/><linearGradient id="linear-gradient-13" x1="50.13" y1="3.73" x2="30" y2="37.58" gradientUnits="userSpaceOnUse"><stop offset="0" stop-color="#debe36"/><stop offset="1" stop-color="#5e9177"/></linearGradient><linearGradient id="linear-gradient-14" x1="21.06" y1="-0.75" x2="13.16" y2="49.51" xlink:href="#linear-gradient-13"/><linearGradient id="linear-gradient-15" x1="23.91" y1="10.25" x2="49.59" y2="10.25" xlink:href="#linear-gradient-13"/></defs><title>deco-planet</title><g id="_1-kv-planet" data-name="1-kv-planet"><path d="M84.18,42.16A42.09,42.09,0,1,1,78.48,21,42.08,42.08,0,0,1,84.18,42.16Z" style="fill:url(#linear-gradient)"/><path d="M65.41,30.63c-1.57,9.5-2,19.64-8,27.6C51.85,65.52,41.62,67.85,33,65.32A68.26,68.26,0,0,1,18.15,58.5c-.9-.52-12.46-6.23-16.76-5.63a42.09,42.09,0,1,0,71.83-39C68.94,17.55,66.65,23.13,65.41,30.63Z" style="fill:url(#linear-gradient-2)"/><path d="M29.2,58.94a37.55,37.55,0,0,0,12,0c6.52-1.07,12-6,14.89-12,4.86-9.86.57-22.91,9.5-30.79-3.51,3.1-6,5.53-7,10.26s-2.37,9.37-5,13.35S46.73,47,42,47.62c-5.16.73-10.09-1.49-15-2.59-3.76-.83-10.69-1.62-11.71,3.69-.4,2,.91,4,2.49,5.36A24,24,0,0,0,29.2,58.94Z" style="opacity:0.62;fill:url(#linear-gradient-3)"/><path d="M26.77,48.25a12.28,12.28,0,0,0-4.46-1,6,6,0,0,0-2.78.49c-2.7,1.38-.7,5,1,6.38a12.37,12.37,0,0,0,5.94,2.14c1.79.25,4.77.14,5.3-2,.46-1.85-1-3.9-2.52-4.8A19.18,19.18,0,0,0,26.77,48.25Z" style="opacity:0.48;fill:url(#linear-gradient-4)"/><path d="M74.7,35.33c-3.3,0-5.64,2.87-6.75,6.07-1.23,3.53-2.12,7.16-3.45,10.65-2.26,6-5.82,10.74-11.72,13.43,1.2-.55,2.79-.53,4.07-1.07a20.38,20.38,0,0,0,3.64-2.15c2.41-1.69,3.91-3.85,5.71-6.13a7.87,7.87,0,0,1,3.64-2.93,3.34,3.34,0,0,1,4,1.53,4.21,4.21,0,0,1,.26,1.49c.11,4.13-2,7.88-4.91,10.71-3.26,3.21-7.42,5.31-11.5,7.37a42.07,42.07,0,0,0,12.47-5.79,25,25,0,0,0,7.38-7.28c3.63-5.87,5.86-15,3.14-21.68A6.58,6.58,0,0,0,74.7,35.33Z" style="opacity:0.48;fill:url(#linear-gradient-5)"/><path d="M68.23,9.11c-.46.34-.9.7-1.33,1.07a33.11,33.11,0,0,0-2.78,2.65,23.54,23.54,0,0,0-5.22,9.08c-1.68,5.59-3.17,13.84-10.12,15-4.48.72-9.77-2.27-9.1-7.31A11.9,11.9,0,0,1,42.37,24c1.29-1.65,2.76-3.15,3.88-4.91,1.29-2,2.09-4.26,3.47-6.19a16.69,16.69,0,0,1,7.71-5.63c.78-.3,1.56-.56,2.36-.79,1.11-.34,2.23-.61,3.36-.85.2.1.39.23.58.35-.88.32-1.77.65-2.65,1a33.07,33.07,0,0,0-5.82,3.09l-.89.62c-3.66,2.76-6.58,6.85-7,11.44A6.47,6.47,0,0,0,48,25.89a3.34,3.34,0,0,0,3.11,1.79c2.6-.28,3.75-3.5,4.74-5.5A53.48,53.48,0,0,1,60,14.57a18.32,18.32,0,0,1,7.51-6Z" style="fill:url(#linear-gradient-6)"/><path d="M27,37.18a1.52,1.52,0,0,1-1.05.49,11.43,11.43,0,0,0-2,.16c-1.35.46-1.65,2.4-.88,3.6a6,6,0,0,0,3.57,2.17,51.25,51.25,0,0,0,6,1.19,26.18,26.18,0,0,0,7.79.4c3.74-.56,7.06-2.71,10-5.16a35.38,35.38,0,0,1-9.49,3.54c-2.44.53-5.08.78-7.34-.26s-3.91-3.77-3-6.09a2.63,2.63,0,0,1,.9-1.22c1.17-.84,2.83-.25,4,.6s2.06,1.89,3.21,2.7a9.17,9.17,0,0,0,11-.68c-.94.84-4.75.34-5.86.06a12.52,12.52,0,0,1-4.89-3c-3.37-3.11-5.89-7.31-10-9.56-1.64-.91-4.08-1.89-6-1.44a3.07,3.07,0,0,0-2.3,4.17,9.43,9.43,0,0,0,2.8,3.55l2.24,2C26.45,35.05,27.56,36.41,27,37.18Z" style="fill:url(#linear-gradient-7)"/><path d="M16,55.88c-2.09-2-4.94-2-7.5-3-1.58-.59-3.15-1.21-4.75-1.83v0l-3-1.15A42.06,42.06,0,0,1,3.57,25.13a2.75,2.75,0,0,1,1-.23,3.24,3.24,0,0,1,2.79,1.93,4.15,4.15,0,0,1,.47,1.33,16.54,16.54,0,0,1-.38,5A6.2,6.2,0,0,0,8.32,38a11.31,11.31,0,0,1,1.4,1.61A4.69,4.69,0,0,1,10,40.8c.23,1.8.16,3.64.53,5.41a6.16,6.16,0,0,0,2.92,4.41A7,7,0,0,1,9.4,47.31C8.69,46.23,8.07,45,7.29,44c-1-1.34-1.91-1-2.1.74,0,.2,0,.41-.06.61a7,7,0,0,0,3.49,6.08,24,24,0,0,0,2.8,1.19A13.36,13.36,0,0,1,16,55.88Z" style="opacity:0.62;fill:url(#linear-gradient-8)"/><path d="M65.36,7a8.37,8.37,0,0,0-2.63.78,21.19,21.19,0,0,0-2.45,1.3,27.32,27.32,0,0,0-5.73,4,9.13,9.13,0,0,0-2.89,6.23A1.87,1.87,0,0,0,52,20.62a1.49,1.49,0,0,0,1.91.09A4.56,4.56,0,0,0,55.2,19C57.13,15.5,59.47,12,63,9.91c.62-.35,1.25-.67,1.89-1a13.3,13.3,0,0,0,1.73-1l.08,0Z" style="opacity:0.62;fill:url(#linear-gradient-9)"/><path d="M48,76.85a7.88,7.88,0,0,1-3.63,2.23c-6.53,2.18-13.65-.94-17.72-6.16-3.45-4.42-6.48-9-11.49-11.89a14.61,14.61,0,0,0-9.39-2c-.25,0-.5.09-.75.14a4.84,4.84,0,0,0-1.24.44,16.2,16.2,0,0,1-.86-2,.94.94,0,0,1,.17-.31,2.92,2.92,0,0,1,1.79-.93A13.27,13.27,0,0,1,9,56.57c2.34.3,4.62,1.8,6.57,3.06,4.26,2.74,8.09,6.19,12.71,8.35a25.52,25.52,0,0,0,12.26,2.36,20.29,20.29,0,0,1,4.67-.09,4.68,4.68,0,0,1,3.67,2.56A4.19,4.19,0,0,1,48,76.85Z" style="opacity:0.48;fill:url(#linear-gradient-10)"/><path d="M43,72.18c-2.19-.67-12-1-8.65,3.77.84,1.19,2.74,1.36,4.06,1.71a8.15,8.15,0,0,0,5.09-.41c1.61-.73,2.75-2.66,1.19-4.16A4.2,4.2,0,0,0,43,72.18Z" style="opacity:0.48;fill:url(#linear-gradient-11)"/><path d="M73,51.07a3.7,3.7,0,0,0,3-1.41,8.81,8.81,0,0,0,1.49-3.06c.72-2.31,1.12-4.91,0-7.07s-3.67-1.59-5.22-.36c-1.78,1.4-2.62,4.57-2.66,6.73a6.55,6.55,0,0,0,.69,3.3A3.48,3.48,0,0,0,73,51.07Z" style="opacity:0.48;fill:url(#linear-gradient-12)"/><path d="M43.17,14.79a3.26,3.26,0,0,0-2.93.7,9.27,9.27,0,0,0-3,4.85A17.39,17.39,0,0,0,37.43,31c-.31-3.72,2.19-5.82,4.37-8.4,1.27-1.5,3.06-3.49,2.88-5.6a2.58,2.58,0,0,0-1.32-2.1Z" style="opacity:0.62;fill:url(#linear-gradient-13)"/><path d="M27.5,2.6a22.61,22.61,0,0,0-5.31,5.47,21,21,0,0,0-1.84,3.26,25,25,0,0,0-2.14,10.85,15.68,15.68,0,0,0,.2,2.26C19,28.18,20.57,32,19.89,35.65c-.83,4.44-6.1,6-8.26,1.54a19.5,19.5,0,0,1-1.75-8.07,30.12,30.12,0,0,1,.9-8.09A31.65,31.65,0,0,1,17.45,8,42,42,0,0,1,27.5,2.6Z" style="opacity:0.62;fill:url(#linear-gradient-14)"/><path d="M80.28,24.41A41.34,41.34,0,0,0,66.9,10.18l-1.2-.75c-.27-.16-.55-.33-.85-.49-.69-.41-1.4-.78-2.12-1.13-.54-.27-1.08-.54-1.65-.78s-.85-.38-1.29-.53A40.64,40.64,0,0,0,46.37,3.59c-.64,0-1.27,0-1.91,0-.81,0-1.63,0-2.42.09A39.86,39.86,0,0,0,30.53,6a35.32,35.32,0,0,0-3.8,1.58,39.73,39.73,0,0,0-6.38,3.79,42,42,0,0,0-13,15.5,41.08,41.08,0,0,0-4.08,17.9A42.11,42.11,0,0,0,3.73,51v0a41.7,41.7,0,0,0,1.19,5.28c.25.9.55,1.78.89,2.67a41.24,41.24,0,0,0,14.63,19.2A42,42,0,0,1,3.82,59.59a16.2,16.2,0,0,1-.86-2A39.27,39.27,0,0,1,.73,49.89,42.11,42.11,0,0,1,27.5,2.6c.64-.23,1.3-.46,1.95-.67,1-.3,2-.58,3.05-.82A42,42,0,0,1,47.26.32c.78.09,1.55.21,2.33.35a41.58,41.58,0,0,1,13.56,5c.2.1.39.23.58.35.55.32,1.1.67,1.63,1s.87.58,1.28.88.58.41.85.62l.74.58A42.18,42.18,0,0,1,80.28,24.41Z" style="fill:#fff;opacity:0.28"/><path d="M47.26.32A15.31,15.31,0,0,0,42,3.63,9.62,9.62,0,0,0,41,4.76,30.23,30.23,0,0,1,37.4,9c-1.4,1.19-3.51,1.84-5.08.92a3.92,3.92,0,0,1-1.81-3.22,4.21,4.21,0,0,1,0-.71,7.73,7.73,0,0,1,.92-3c.32-.62.71-1.24,1.05-1.88-1,.24-2,.52-3.05.82A23.84,23.84,0,0,1,27.77,5.7c-.34.62-.69,1.22-1,1.84-1.47,2.55-2.91,5.2-2.82,8.19a5.29,5.29,0,0,0,.67,2.54,4.58,4.58,0,0,0,4,1.91,8.83,8.83,0,0,0,4.3-1.42c5.1-3,8.59-8,11.81-12.85a20.84,20.84,0,0,1,1.73-2.32A15,15,0,0,1,49.59.67Z" style="opacity:0.62;fill:url(#linear-gradient-15)"/><path d="M84.18,42.16a42.08,42.08,0,0,1-76.64,24A6.79,6.79,0,0,1,11,67.27l7.08,3.92a5,5,0,0,0,3.19.88c1.88-.39,2.57-2.69,2.71-4.6s.16-4.73,2.76-4.92a5.28,5.28,0,0,1,2.72.67c4.62,2.41,6.64,7.77,9.19,12.32A10.3,10.3,0,0,0,41.2,78.8a8.75,8.75,0,0,0,4.71,1.48,6.23,6.23,0,0,0,4-.7c1.77-1.17,2.19-3.56,2.1-5.69-.26-6.49-3.87-12.3-6.17-18.39C44.55,52.18,44,44.11,49.88,45.1c4.65.78,5.36,7.33,7.66,10.48,1.13,1.55,3.29,2.86,4.9,1.82a3.76,3.76,0,0,0,1.35-1.79c2.3-5.24.51-11.34-2-16.49C59.17,33.58,53,26,57.08,19.66A8.53,8.53,0,0,1,63,16.18a14.77,14.77,0,0,1,4.69.07,23.28,23.28,0,0,1,2.3.44,18.8,18.8,0,0,1,5.63,2.09,17.88,17.88,0,0,1,2.6,2l.29.27A41.75,41.75,0,0,1,84.18,42.16Z" style="fill:#004e8e;opacity:0.31"/></g></svg>