<svg xmlns="http://www.w3.org/2000/svg" xmlns:xlink="http://www.w3.org/1999/xlink" viewBox="0 0 1920 1496.68"><defs><clipPath id="clip-path"><rect x="1627.95" y="1462.83" width="3.29" height="3.12" style="fill:none"/></clipPath><clipPath id="clip-path-2"><rect x="1570.08" y="1373.12" width="120" height="120" style="fill:none"/></clipPath><clipPath id="clip-path-3"><rect x="1579.42" y="1382.47" width="101.31" height="101.31" style="fill:none"/></clipPath></defs><title>ta0523</title><g id="bg-"><g style="opacity:0.25"><path d="M102.41,440.23A92.55,92.55,0,1,1,9.86,347.68a92.54,92.54,0,0,1,92.55,92.55" style="fill:#330666"/></g><path d="M73,440.23A63.15,63.15,0,1,1,9.86,377.09,63.14,63.14,0,0,1,73,440.23" style="fill:#541b86"/><path d="M151.91,440.23a142,142,0,1,1-142-142A142,142,0,0,1,151.91,440.23Z" style="fill:none;stroke:#581f93;stroke-linecap:round;stroke-linejoin:round;stroke-width:0.725px;stroke-dasharray:7.093999862670898,7.093999862670898"/><path d="M201.88,440.23c0,106-86,192-192,192s-192-86-192-192,86-192,192-192S201.88,334.18,201.88,440.23Z" style="fill:none;stroke:#581f93;stroke-linecap:round;stroke-linejoin:round;stroke-width:0.725px;stroke-dasharray:7.065999984741211,7.065999984741211"/><ellipse cx="9.86" cy="440.23" rx="240.25" ry="240.25" transform="translate(-429.86 417.06) rotate(-85.7)" style="fill:none;stroke:#581f93;stroke-linecap:round;stroke-linejoin:round;stroke-width:0.725px;stroke-dasharray:7.14900016784668,7.14900016784668"/><path d="M168.07,646.79a32.57,32.57,0,1,1-32.57-32.57,32.57,32.57,0,0,1,32.57,32.57" style="fill:#390569"/><path d="M1907.64,929.87A25.88,25.88,0,1,1,1881.76,904a25.88,25.88,0,0,1,25.88,25.88" style="fill:#390569"/><g style="opacity:0.41000000000000003"><path d="M1762.63,782.72a71.68,71.68,0,1,1,71.68,71.68A71.68,71.68,0,0,1,1762.63,782.72Z" style="fill:#72edfc;opacity:0.30000000000000004"/><path d="M1767.74,782.72a66.57,66.57,0,1,1,66.57,66.57A66.56,66.56,0,0,1,1767.74,782.72Z" style="fill:#25cfe0"/><path d="M1819.4,812h0a6.49,6.49,0,0,0-6.48-6.49h-6.11a5.69,5.69,0,0,1-5.69-5.69h0a5.69,5.69,0,0,1,5.69-5.69h17.3a5,5,0,0,0,5-5h0a5,5,0,0,0-5-4.95h-38.35a5.54,5.54,0,0,1-5.54-5.54h0a5.54,5.54,0,0,1,5.54-5.54h12.64a5.54,5.54,0,0,0,5.54-5.54h0a5.54,5.54,0,0,0-5.54-5.54H1771a66.72,66.72,0,0,0,7.11,56.42h34.79A6.49,6.49,0,0,0,1819.4,812Z" style="fill:#72edfc"/><path d="M1825.82,753.48h0a6.48,6.48,0,0,0,6.48,6.48h37.76a5,5,0,0,1,5,4.95v1.48a5,5,0,0,1-5,5h-20a5,5,0,0,0-5,4.95h0a4.94,4.94,0,0,0,5,5H1890a5,5,0,0,1,5,5v1.19a5,5,0,0,1-5,5H1869a5.54,5.54,0,0,0-5.55,5.54h0a5.54,5.54,0,0,0,5.55,5.54h28.57a66.72,66.72,0,0,0-7.11-56.42H1832.3A6.48,6.48,0,0,0,1825.82,753.48Z" style="fill:#72edfc"/><g style="opacity:0.30000000000000004"><path d="M1871.17,727.28a73.87,73.87,0,0,1-60.37,116.44c-1.12,0-2.23,0-3.34-.07a66.58,66.58,0,0,0,63.71-116.37Z" style="fill:#3194a3"/></g></g><path d="M309.82,440.36l-1.77-3.76a1.19,1.19,0,0,0-1.58-.57l-7.8,3.66L295,431.9a1.19,1.19,0,0,0-1.58-.57l-3.76,1.77a1.18,1.18,0,0,0-.57,1.58l3.66,7.79L285,446.14a1.19,1.19,0,0,0-.57,1.58l1.77,3.76a1.18,1.18,0,0,0,1.58.57l7.79-3.66,3.67,7.79a1.19,1.19,0,0,0,1.58.57l3.76-1.77a1.19,1.19,0,0,0,.57-1.58l-3.66-7.79,7.79-3.67A1.19,1.19,0,0,0,309.82,440.36Z" style="fill:#5e3698"/><path d="M102.62,1008.43l-1.77-3.76a1.19,1.19,0,0,0-1.58-.57l-7.8,3.67-3.66-7.8a1.19,1.19,0,0,0-1.58-.57l-3.77,1.77a1.2,1.2,0,0,0-.57,1.58l3.67,7.8-7.79,3.66a1.19,1.19,0,0,0-.57,1.58l1.77,3.77a1.2,1.2,0,0,0,1.58.57l7.79-3.67,3.67,7.79a1.18,1.18,0,0,0,1.58.57l3.76-1.77a1.19,1.19,0,0,0,.57-1.58l-3.67-7.79,7.8-3.67A1.19,1.19,0,0,0,102.62,1008.43Z" style="fill:#5e3698"/><path d="M1386.56,1031.77l-1.77-3.77a1.2,1.2,0,0,0-1.58-.57l-7.79,3.67-3.67-7.79a1.18,1.18,0,0,0-1.58-.57l-3.76,1.77a1.18,1.18,0,0,0-.57,1.58l3.66,7.79-7.79,3.67a1.19,1.19,0,0,0-.57,1.58l1.77,3.76a1.19,1.19,0,0,0,1.58.57l7.79-3.67,3.67,7.8a1.19,1.19,0,0,0,1.58.57l3.76-1.77a1.19,1.19,0,0,0,.57-1.58l-3.66-7.8,7.79-3.66A1.19,1.19,0,0,0,1386.56,1031.77Z" style="fill:#5e3698"/><path d="M1406.4,765.45l-1.77-3.76a1.19,1.19,0,0,0-1.58-.57l-7.8,3.67-3.67-7.8a1.19,1.19,0,0,0-1.58-.57l-3.76,1.77a1.19,1.19,0,0,0-.57,1.58l3.67,7.8-7.8,3.66a1.2,1.2,0,0,0-.57,1.58l1.77,3.77a1.2,1.2,0,0,0,1.58.57l7.8-3.67,3.67,7.79a1.18,1.18,0,0,0,1.58.57l3.76-1.77a1.19,1.19,0,0,0,.57-1.58L1398,770.7l7.8-3.67A1.2,1.2,0,0,0,1406.4,765.45Z" style="fill:#5e3698"/><path d="M895.23,568.63l-1.77-3.77a1.19,1.19,0,0,0-1.58-.57L884.09,568l-3.67-7.8a1.19,1.19,0,0,0-1.58-.56l-3.76,1.77a1.19,1.19,0,0,0-.57,1.58l3.66,7.79-7.79,3.67a1.19,1.19,0,0,0-.57,1.58l1.77,3.76a1.19,1.19,0,0,0,1.58.57l7.8-3.67,3.66,7.8a1.2,1.2,0,0,0,1.58.57l3.77-1.77a1.19,1.19,0,0,0,.56-1.58l-3.66-7.8,7.79-3.66A1.19,1.19,0,0,0,895.23,568.63Z" style="fill:#5e3698"/><path d="M513.81,1283.76,512,1280a1.19,1.19,0,0,0-1.58-.57l-7.79,3.67-3.67-7.8a1.2,1.2,0,0,0-1.58-.57l-3.76,1.77a1.19,1.19,0,0,0-.57,1.58l3.67,7.8-7.8,3.66a1.19,1.19,0,0,0-.57,1.58l1.77,3.77a1.19,1.19,0,0,0,1.58.57l7.8-3.67,3.66,7.8a1.19,1.19,0,0,0,1.58.56l3.77-1.77a1.19,1.19,0,0,0,.57-1.58l-3.67-7.79,7.79-3.67A1.19,1.19,0,0,0,513.81,1283.76Z" style="fill:#5e3698"/><path d="M861.68,1384.2l-1.77-3.77a1.19,1.19,0,0,0-1.58-.56l-7.79,3.66-3.67-7.79a1.19,1.19,0,0,0-1.58-.57l-3.76,1.77a1.19,1.19,0,0,0-.57,1.58l3.66,7.79-7.79,3.67a1.19,1.19,0,0,0-.57,1.58l1.77,3.76a1.19,1.19,0,0,0,1.58.57l7.79-3.66,3.67,7.79a1.19,1.19,0,0,0,1.58.57l3.76-1.77a1.18,1.18,0,0,0,.57-1.58l-3.66-7.8,7.79-3.66A1.19,1.19,0,0,0,861.68,1384.2Z" style="fill:#5e3698"/><path d="M1478.45,1255.65l-1.77-3.76a1.19,1.19,0,0,0-1.58-.57l-7.79,3.67-3.67-7.8a1.2,1.2,0,0,0-1.58-.57l-3.76,1.77a1.19,1.19,0,0,0-.57,1.58l3.67,7.8-7.8,3.66a1.19,1.19,0,0,0-.57,1.58l1.77,3.77a1.2,1.2,0,0,0,1.58.57l7.8-3.67,3.66,7.79a1.18,1.18,0,0,0,1.58.57l3.77-1.77a1.2,1.2,0,0,0,.57-1.58l-3.67-7.79,7.79-3.67A1.19,1.19,0,0,0,1478.45,1255.65Z" style="fill:#5e3698"/><path d="M1277.91,1356.75l3.66-2a1.19,1.19,0,0,0,.49-1.61l-4.07-7.59,7.59-4.07a1.19,1.19,0,0,0,.48-1.61l-2-3.66a1.2,1.2,0,0,0-1.61-.49l-7.59,4.08-4.07-7.59a1.19,1.19,0,0,0-1.61-.49l-3.67,2a1.19,1.19,0,0,0-.48,1.61l4.07,7.59-7.59,4.07a1.2,1.2,0,0,0-.49,1.61l2,3.66a1.2,1.2,0,0,0,1.61.49l7.59-4.08,4.07,7.59A1.19,1.19,0,0,0,1277.91,1356.75Z" style="fill:#5e3698"/><path d="M1851.29,1357.74l-1.77-3.76a1.18,1.18,0,0,0-1.58-.57l-7.8,3.66-3.66-7.79a1.19,1.19,0,0,0-1.58-.57l-3.77,1.77a1.19,1.19,0,0,0-.56,1.58l3.66,7.79-7.79,3.67a1.19,1.19,0,0,0-.57,1.58l1.77,3.76a1.19,1.19,0,0,0,1.58.57l7.79-3.66,3.67,7.79a1.19,1.19,0,0,0,1.58.57l3.76-1.77a1.19,1.19,0,0,0,.57-1.58l-3.66-7.79,7.79-3.67A1.19,1.19,0,0,0,1851.29,1357.74Z" style="fill:#5e3698"/><path d="M1759.74,1109l-1.77-3.76a1.19,1.19,0,0,0-1.58-.57l-7.79,3.66-3.67-7.79a1.19,1.19,0,0,0-1.58-.57l-3.76,1.77a1.19,1.19,0,0,0-.57,1.58l3.67,7.79-7.8,3.67a1.19,1.19,0,0,0-.57,1.58l1.77,3.76a1.19,1.19,0,0,0,1.58.57l7.8-3.66,3.66,7.79a1.19,1.19,0,0,0,1.58.57l3.77-1.77a1.2,1.2,0,0,0,.57-1.58l-3.67-7.79,7.79-3.67A1.19,1.19,0,0,0,1759.74,1109Z" style="fill:#5e3698"/><path d="M1695.28,521.75l4.11.65a1.21,1.21,0,0,0,1.36-1l1.34-8.51,8.51,1.34a1.18,1.18,0,0,0,1.35-1l.65-4.1a1.19,1.19,0,0,0-1-1.36l-8.51-1.34,1.35-8.51a1.2,1.2,0,0,0-1-1.36l-4.11-.65a1.19,1.19,0,0,0-1.36,1l-1.34,8.51-8.51-1.34a1.19,1.19,0,0,0-1.36,1l-.64,4.11a1.18,1.18,0,0,0,1,1.36l8.51,1.34-1.34,8.51A1.19,1.19,0,0,0,1695.28,521.75Z" style="fill:#5e3698"/><path d="M1738.76,84.93l3.86,1.54a1.19,1.19,0,0,0,1.54-.67l3.19-8,8,3.19a1.19,1.19,0,0,0,1.54-.66l1.54-3.86a1.2,1.2,0,0,0-.67-1.55l-8-3.19,3.19-8a1.19,1.19,0,0,0-.66-1.54l-3.86-1.54a1.2,1.2,0,0,0-1.55.66l-3.19,8-8-3.18a1.18,1.18,0,0,0-1.54.66l-1.54,3.86a1.21,1.21,0,0,0,.66,1.55l8,3.18-3.18,8A1.18,1.18,0,0,0,1738.76,84.93Z" style="fill:#5e3698"/><path d="M272.61,1138.62l-.76-1.62a.51.51,0,0,0-.68-.25l-3.37,1.59-1.58-3.37a.51.51,0,0,0-.68-.24l-1.62.76a.51.51,0,0,0-.25.68l1.58,3.37-3.36,1.58a.51.51,0,0,0-.25.68l.77,1.63a.51.51,0,0,0,.68.24l3.36-1.58,1.59,3.36a.51.51,0,0,0,.68.25l1.62-.77a.51.51,0,0,0,.25-.68l-1.59-3.36,3.37-1.58A.52.52,0,0,0,272.61,1138.62Z" style="fill:#5e3698"/><path d="M271.09,105.14l-3-2.82a1.2,1.2,0,0,0-1.68.07l-5.84,6.32-6.33-5.84a1.2,1.2,0,0,0-1.68.07l-2.82,3a1.19,1.19,0,0,0,.06,1.68l6.33,5.84-5.84,6.33a1.2,1.2,0,0,0,.07,1.68l3.05,2.82a1.2,1.2,0,0,0,1.68-.07l5.84-6.32,6.33,5.84a1.2,1.2,0,0,0,1.68-.07l2.82-3a1.2,1.2,0,0,0-.07-1.68l-6.32-5.84,5.84-6.33A1.2,1.2,0,0,0,271.09,105.14Z" style="fill:#5e3698"/><path d="M105.05,21.15l-2.2-.93a.7.7,0,0,0-.9.37L100,25.16l-4.57-1.92a.68.68,0,0,0-.89.37l-.93,2.2a.7.7,0,0,0,.37.9l4.57,1.91-1.92,4.57a.68.68,0,0,0,.37.89l2.2.93a.68.68,0,0,0,.89-.37l1.92-4.57L106.62,32a.68.68,0,0,0,.89-.37l.93-2.2a.7.7,0,0,0-.37-.9l-4.57-1.91L105.42,22A.68.68,0,0,0,105.05,21.15Z" style="fill:#5e3698"/><path d="M498.56,47.71l-.94-4.05a1.2,1.2,0,0,0-1.43-.89l-8.39,2-2-8.39a1.19,1.19,0,0,0-1.43-.88l-4.05.94a1.2,1.2,0,0,0-.88,1.43l2,8.39-8.39,2a1.19,1.19,0,0,0-.88,1.43l.95,4.05a1.18,1.18,0,0,0,1.42.88l8.39-2,2,8.39a1.19,1.19,0,0,0,1.43.88l4.05-1a1.19,1.19,0,0,0,.89-1.42l-2-8.39,8.39-2A1.19,1.19,0,0,0,498.56,47.71Z" style="fill:#5e3698"/><path d="M71.57,721.82l-2.17-1.73a.74.74,0,0,0-1.07.12l-3.25,4.5-4.51-3.59a.74.74,0,0,0-1.07.13l-1.57,2.17a.81.81,0,0,0,.18,1.11l4.51,3.59-3.25,4.5a.82.82,0,0,0,.17,1.11l2.18,1.73a.74.74,0,0,0,1.07-.12l3.25-4.5,4.51,3.59a.74.74,0,0,0,1.07-.13l1.56-2.17A.82.82,0,0,0,73,731l-4.51-3.59,3.25-4.5A.82.82,0,0,0,71.57,721.82Z" style="fill:#5e3698"/><path d="M212,1279.91l-2.2-.93a.7.7,0,0,0-.9.37l-1.91,4.57-4.57-1.92a.7.7,0,0,0-.9.37l-.92,2.2a.69.69,0,0,0,.37.9l4.56,1.91-1.91,4.57a.68.68,0,0,0,.36.89l2.21.93a.68.68,0,0,0,.89-.37l1.92-4.56,4.57,1.91a.68.68,0,0,0,.89-.36l.92-2.21a.67.67,0,0,0-.36-.89l-4.57-1.92,1.92-4.57A.68.68,0,0,0,212,1279.91Z" style="fill:#5e3698"/><path d="M191.84,1070.86l-2.2-.93a.7.7,0,0,0-.9.37l-1.91,4.57-4.57-1.92a.68.68,0,0,0-.89.37l-.93,2.2a.7.7,0,0,0,.37.9l4.56,1.91-1.91,4.57a.67.67,0,0,0,.37.89l2.2.93a.68.68,0,0,0,.89-.37l1.92-4.57,4.57,1.92a.68.68,0,0,0,.89-.37l.93-2.2a.7.7,0,0,0-.37-.9l-4.57-1.91,1.92-4.57A.68.68,0,0,0,191.84,1070.86Z" style="fill:#5e3698"/><path d="M945.9,421.48l-2.2-.93a.7.7,0,0,0-.9.37l-1.91,4.56-4.57-1.91a.68.68,0,0,0-.89.36l-.93,2.21a.68.68,0,0,0,.37.89l4.57,1.92-1.92,4.57a.68.68,0,0,0,.37.89l2.2.93a.7.7,0,0,0,.9-.37l1.91-4.57,4.57,1.92a.68.68,0,0,0,.89-.37l.93-2.2a.7.7,0,0,0-.37-.9l-4.57-1.91,1.92-4.57A.68.68,0,0,0,945.9,421.48Z" style="fill:#5e3698"/><path d="M734.39,982.58l-2.21-.92a.67.67,0,0,0-.89.36l-1.92,4.57-4.56-1.92a.7.7,0,0,0-.9.37l-.92,2.2a.69.69,0,0,0,.36.9l4.57,1.91L726,994.62a.7.7,0,0,0,.37.9l2.21.92a.68.68,0,0,0,.89-.37l1.92-4.56,4.56,1.91a.69.69,0,0,0,.9-.36l.92-2.21a.68.68,0,0,0-.36-.89L732.84,988l1.91-4.57A.68.68,0,0,0,734.39,982.58Z" style="fill:#5e3698"/><path d="M1800.78,915.92l-2.2-.92a.69.69,0,0,0-.9.36l-1.91,4.57L1791.2,918a.69.69,0,0,0-.9.36l-.92,2.21a.68.68,0,0,0,.37.89l4.56,1.92L1792.4,928a.69.69,0,0,0,.36.9l2.21.92a.68.68,0,0,0,.89-.36l1.92-4.57,4.57,1.91a.67.67,0,0,0,.89-.36l.92-2.21a.67.67,0,0,0-.36-.89l-4.57-1.92,1.92-4.56A.7.7,0,0,0,1800.78,915.92Z" style="fill:#5e3698"/><path d="M1680.64,823.58l1.44-1.92a.67.67,0,0,0-.13-.95l-4-3,3-4a.67.67,0,0,0-.13-.95l-1.91-1.44a.69.69,0,0,0-1,.13l-3,4-4-3a.69.69,0,0,0-1,.13l-1.44,1.91a.7.7,0,0,0,.14,1l4,3-3,3.95a.69.69,0,0,0,.13,1l1.92,1.44a.68.68,0,0,0,1-.14l3-4,4,3A.67.67,0,0,0,1680.64,823.58Z" style="fill:#5e3698"/><path d="M1080,953.79l1.44-1.92a.68.68,0,0,0-.14-1l-4-3,3-4a.67.67,0,0,0-.13-1l-1.92-1.44a.67.67,0,0,0-1,.13l-3,4-4-3a.67.67,0,0,0-1,.13l-1.44,1.91a.69.69,0,0,0,.13,1l4,3-3,3.95a.69.69,0,0,0,.13,1l1.91,1.44a.7.7,0,0,0,1-.14l3-4,4,3A.68.68,0,0,0,1080,953.79Z" style="fill:#5e3698"/><path d="M1348,555.34l1.44-1.91a.69.69,0,0,0-.13-1l-4-3,3-4a.69.69,0,0,0-.13-1l-1.91-1.44a.7.7,0,0,0-1,.14l-3,4-3.95-3a.7.7,0,0,0-1,.14l-1.44,1.91a.68.68,0,0,0,.14,1l4,3-3,4a.69.69,0,0,0,.13,1l1.92,1.43a.67.67,0,0,0,.95-.13l3-4,4,3A.68.68,0,0,0,1348,555.34Z" style="fill:#5e3698"/><path d="M1837.73,575.3l2.89-1.12a.89.89,0,0,0,.51-1.15l-2.32-6,6-2.32a.88.88,0,0,0,.51-1.14l-1.12-2.9a.89.89,0,0,0-1.15-.5l-6,2.31-2.32-6a.88.88,0,0,0-1.14-.5l-2.89,1.12a.88.88,0,0,0-.51,1.14l2.32,6-6,2.32a.89.89,0,0,0-.51,1.15l1.12,2.89a.89.89,0,0,0,1.14.51l6-2.32,2.31,6A.9.9,0,0,0,1837.73,575.3Z" style="fill:#5e3698"/><path d="M1847.78,332.94l1.86-.72a.58.58,0,0,0,.33-.74l-1.5-3.85,3.86-1.49a.59.59,0,0,0,.33-.74l-.72-1.86a.58.58,0,0,0-.74-.33l-3.86,1.49-1.49-3.85a.57.57,0,0,0-.74-.33l-1.86.72a.57.57,0,0,0-.32.74l1.49,3.85-3.86,1.5a.56.56,0,0,0-.32.73l.72,1.87a.57.57,0,0,0,.73.32l3.86-1.49,1.49,3.86A.58.58,0,0,0,1847.78,332.94Z" style="fill:#5e3698"/><path d="M1525.82,150.76l2.66-1.61a.88.88,0,0,0,.29-1.21l-3.33-5.5,5.5-3.33a.89.89,0,0,0,.29-1.22l-1.61-2.65a.88.88,0,0,0-1.21-.3l-5.5,3.33-3.33-5.49a.89.89,0,0,0-1.22-.3l-2.65,1.61a.89.89,0,0,0-.3,1.22l3.33,5.49-5.49,3.34a.88.88,0,0,0-.3,1.21l1.61,2.66a.89.89,0,0,0,1.22.29l5.49-3.33,3.34,5.5A.88.88,0,0,0,1525.82,150.76Z" style="fill:#5e3698"/><path d="M1177,66.56l-1.2-2.08a.7.7,0,0,0-.93-.25l-4.29,2.48-2.48-4.29a.69.69,0,0,0-.93-.25l-2.07,1.2a.68.68,0,0,0-.25.93l2.47,4.29L1163,71.07a.69.69,0,0,0-.25.93l1.2,2.07a.68.68,0,0,0,.93.25l4.29-2.48,2.48,4.29a.68.68,0,0,0,.93.25l2.07-1.19a.69.69,0,0,0,.25-.94L1172.45,70l4.29-2.47A.7.7,0,0,0,1177,66.56Z" style="fill:#5e3698"/><g style="opacity:0.5"><path d="M154.14,1134.87A20.63,20.63,0,1,1,136,1157.65a20.6,20.6,0,0,1,18.16-22.78" style="fill:#7f60a6"/><path d="M139.7,1143.39A20.59,20.59,0,0,1,165.3,1174a20.6,20.6,0,1,0-25.6-30.57" style="fill:#6f5599"/><path d="M150.88,1136a14.15,14.15,0,0,0-1.73.06,20.59,20.59,0,0,0-13.26,18.38,15.3,15.3,0,0,0,14.41,10.32c8.47.17,15.47-6.13,15.63-14.07s-6.58-14.52-15.05-14.69" style="fill:#b8a3e4"/><path d="M145.16,1138.13c.47,0,1-.06,1.43-.05,8.48.18,15.21,6.76,15,14.7a14,14,0,0,1-6.29,11.31,14.48,14.48,0,0,0,10.58-13.36c.15-7.94-6.58-14.52-15.05-14.69a14.08,14.08,0,0,0-1.73.06,20,20,0,0,0-4,2" style="fill:#a693d8"/></g><path d="M71.16,1292.1A20.63,20.63,0,1,1,53,1314.88a20.61,20.61,0,0,1,18.16-22.78" style="fill:#541949"/><path d="M56.72,1300.62a20.59,20.59,0,0,1,25.61,30.57,20.6,20.6,0,1,0-25.61-30.57" style="fill:#5b1a48"/><path d="M67.9,1293.27a14.22,14.22,0,0,0-1.73.06,20.58,20.58,0,0,0-13.25,18.38A15.28,15.28,0,0,0,67.33,1322c8.47.17,15.46-6.13,15.62-14.07s-6.58-14.52-15-14.69" style="fill:#721c62"/><g style="opacity:0.5"><g style="opacity:0.39999399999999996"><g style="clip-path:url(#clip-path)"><polygon points="1629.6 1462.83 1630.11 1463.86 1631.24 1464.03 1630.42 1464.83 1630.61 1465.96 1629.6 1465.42 1628.58 1465.96 1628.78 1464.83 1627.95 1464.03 1629.09 1463.86 1629.6 1462.83" style="fill:#fff"/></g></g><g style="opacity:0.25"><g style="clip-path:url(#clip-path-2)"><path d="M1690.08,1433.12a60,60,0,1,1-60-60,60,60,0,0,1,60,60" style="fill:#ffaf3c"/></g></g><g style="opacity:0.25"><g style="clip-path:url(#clip-path-3)"><path d="M1680.73,1433.12a50.66,50.66,0,1,1-50.65-50.65,50.66,50.66,0,0,1,50.65,50.65" style="fill:#ffaf3c"/></g></g><path d="M1671,1433.12a40.94,40.94,0,1,1-40.93-40.93,40.94,40.94,0,0,1,40.93,40.93" style="fill:#ec8b2c"/><path d="M1657.39,1402.69a40.88,40.88,0,0,1-65.94,43.9,40.91,40.91,0,1,0,65.94-43.9" style="fill:#dd7d26"/><path d="M1669.44,1426.42a33.62,33.62,0,0,0,.26-3.43,40.91,40.91,0,0,0-33.36-30.27c-11.94,2.38-21.73,12.72-23.51,26.22-2.2,16.72,8.68,31.94,24.31,34s30.09-9.81,32.3-26.52" style="fill:#ffaf3c"/><path d="M1666.56,1414.64c0,.95-.09,1.9-.22,2.86-2.21,16.71-16.67,28.59-32.3,26.52a27.9,27.9,0,0,1-20.93-14.94c2.28,12.34,11.66,22.23,24,23.86,15.63,2.06,30.09-9.81,32.3-26.52a33.6,33.6,0,0,0,.26-3.44,41.16,41.16,0,0,0-3.14-8.34" style="fill:#f29e30"/><path d="M1617.51,1419.48h-14.37a2.16,2.16,0,0,1,0-4.31h14.37a2.16,2.16,0,0,1,0,4.31" style="fill:#ffaf3c"/><path d="M1629.07,1405.47H1614.7a2.16,2.16,0,0,1,0-4.31h14.37a2.16,2.16,0,0,1,0,4.31" style="fill:#ec8b2c"/><path d="M1624.4,1430.79H1610a2.16,2.16,0,0,1,0-4.31h14.37a2.16,2.16,0,0,1,0,4.31" style="fill:#ec8b2c"/><path d="M1650.15,1424.32h-14.36a2.16,2.16,0,0,1,0-4.31h14.36a2.16,2.16,0,1,1,0,4.31" style="fill:#ec8b2c"/><path d="M1665.93,1446.41h-14.36a2.16,2.16,0,1,1,0-4.31h14.36a2.16,2.16,0,0,1,0,4.31" style="fill:#dd7d26"/><path d="M1630.79,1451.08h-14.36a2.16,2.16,0,0,1,0-4.31h14.36a2.16,2.16,0,1,1,0,4.31" style="fill:#f29e30"/><path d="M1610.39,1442.1H1596a2.16,2.16,0,0,1,0-4.31h14.36a2.16,2.16,0,1,1,0,4.31" style="fill:#ffaf3c"/><path d="M1649.47,1465.08H1635.1a2.16,2.16,0,0,1,0-4.31h14.37a2.16,2.16,0,0,1,0,4.31" style="fill:#ec8b2c"/><path d="M1622.89,1464.72h-14.36a2.16,2.16,0,1,1,0-4.31h14.36a2.16,2.16,0,1,1,0,4.31" style="fill:#ec8b2c"/></g></g><g id="bg-point-pu"><circle cx="291.44" cy="930.52" r="4.82" style="fill:#8470af"/><circle cx="1045.5" cy="281.14" r="4.82" style="fill:#8470af"/><circle cx="833.99" cy="842.24" r="4.82" style="fill:#8470af"/><circle cx="261.07" cy="562.78" r="4.82" style="fill:#8470af"/><circle cx="478.89" cy="158.82" r="4.82" style="fill:#8470af"/><circle cx="559.71" cy="230.26" r="4.82" style="fill:#8470af"/><circle cx="689" cy="412.59" r="4.82" style="fill:#8470af"/><circle cx="581.24" cy="417.46" r="4.82" style="fill:#8470af"/><circle cx="692.71" cy="93.3" r="4.82" style="fill:#8470af"/><circle cx="1408.67" cy="58.8" r="4.82" style="fill:#8470af"/><circle cx="1713.02" cy="195.67" r="4.82" style="fill:#8470af"/><circle cx="1768.04" cy="270.87" r="4.82" style="fill:#8470af"/><circle cx="1850.91" cy="223.02" r="4.82" style="fill:#8470af"/><circle cx="1563.17" cy="716.51" r="4.82" style="fill:#8470af"/><circle cx="1714.97" cy="876.12" r="4.82" style="fill:#8470af"/><circle cx="962.55" cy="846.72" r="4.82" style="fill:#8470af"/><circle cx="1114.34" cy="1006.33" r="4.82" style="fill:#8470af"/><circle cx="1230.52" cy="448.28" r="4.82" style="fill:#8470af"/><circle cx="1382.32" cy="607.88" r="4.82" style="fill:#8470af"/><circle cx="1511.19" cy="1149.18" r="4.82" style="fill:#8470af"/></g><g id="bg-point-green"><circle cx="1774.82" cy="1016.77" r="4.82" style="fill:#1a6562"/><circle cx="1853.05" cy="655.35" r="4.82" style="fill:#1a6562"/><circle cx="1683.52" cy="228.86" r="4.82" style="fill:#1a6562"/><circle cx="1594.96" cy="290.46" r="4.82" style="fill:#1a6562"/><circle cx="1478.72" cy="139.01" r="4.82" style="fill:#1a6562"/><circle cx="771.6" cy="21.76" r="4.82" style="fill:#1a6562"/><circle cx="453.43" cy="122.43" r="4.82" style="fill:#1a6562"/><circle cx="390.07" cy="190.74" r="4.82" style="fill:#1a6562"/><circle cx="730.62" cy="327.88" r="4.82" style="fill:#1a6562"/><circle cx="313.3" cy="133.61" r="4.82" style="fill:#1a6562"/><circle cx="541.91" cy="657.13" r="4.82" style="fill:#1a6562"/><circle cx="372.63" cy="798.07" r="4.82" style="fill:#1a6562"/><circle cx="537.95" cy="1092.59" r="4.82" style="fill:#1a6562"/></g></svg>