<svg id="star" xmlns="http://www.w3.org/2000/svg" viewBox="0 0 613.09 600.11"><title>star1</title><path d="M478.06,473.56a.91.91,0,1,1-.9-.9A.9.9,0,0,1,478.06,473.56Z" style="fill:#fff"/><path d="M415.59,465.94a1.81,1.81,0,1,1-1.81-1.81A1.81,1.81,0,0,1,415.59,465.94Z" style="fill:#fff"/><path d="M19.29,81.66a1.81,1.81,0,1,1-1.81-1.82A1.81,1.81,0,0,1,19.29,81.66Z" style="fill:#fff"/><path d="M246.47,149.14a1.81,1.81,0,1,1-1.81-1.81A1.82,1.82,0,0,1,246.47,149.14Z" style="fill:#fff"/><path d="M185.75,232.75a.91.91,0,1,1-.9-.91A.9.9,0,0,1,185.75,232.75Z" style="fill:#fff"/><path d="M74.7,396.58a.91.91,0,1,1-1.81,0,.91.91,0,0,1,1.81,0Z" style="fill:#fff"/><path d="M137.62,492.86a.91.91,0,1,1-1.81,0,.91.91,0,0,1,1.81,0Z" style="fill:#fff"/><path d="M264.51,287.17a.91.91,0,0,1-1.81,0,.91.91,0,1,1,1.81,0Z" style="fill:#fff"/><path d="M291.87,214a.91.91,0,1,1-1.81,0,.91.91,0,0,1,1.81,0Z" style="fill:#fff"/><path d="M261.18,225.58a.91.91,0,1,1-1.81,0,.91.91,0,0,1,1.81,0Z" style="fill:#fff"/><path d="M240.73,500.88a.91.91,0,1,1-1.81,0,.91.91,0,0,1,1.81,0Z" style="fill:#fff"/><path d="M381.91,503.26a.91.91,0,1,1-.91-.91A.9.9,0,0,1,381.91,503.26Z" style="fill:#fff"/><path d="M415.69,413.09a.91.91,0,1,1-.9-.9A.9.9,0,0,1,415.69,413.09Z" style="fill:#fff"/><path d="M121.28,161.8a1.81,1.81,0,1,1-1.81-1.81A1.81,1.81,0,0,1,121.28,161.8Z" style="fill:#fff"/><path d="M121.28,1.81A1.81,1.81,0,1,1,119.47,0,1.81,1.81,0,0,1,121.28,1.81Z" style="fill:#fff"/><path d="M422.87,176.86a1.81,1.81,0,1,1-1.81-1.81A1.81,1.81,0,0,1,422.87,176.86Z" style="fill:#fff"/><path d="M379.94,308a1.44,1.44,0,1,1-1.44-1.44A1.44,1.44,0,0,1,379.94,308Z" style="fill:#fff"/><path d="M31.27,204a1.44,1.44,0,1,1-1.43-1.44A1.44,1.44,0,0,1,31.27,204Z" style="fill:#fff"/><path d="M272.08,373a1.81,1.81,0,1,1-1.81-1.81A1.81,1.81,0,0,1,272.08,373Z" style="fill:#fff"/><path d="M285.38,440.1a1.81,1.81,0,1,1-1.81-1.81A1.81,1.81,0,0,1,285.38,440.1Z" style="fill:#fff"/><path d="M337.92,385.27a2.91,2.91,0,1,1-2.9-2.9A2.9,2.9,0,0,1,337.92,385.27Z" style="fill:#fff"/><path d="M3.62,391.14a1.81,1.81,0,1,1-1.81-1.81A1.81,1.81,0,0,1,3.62,391.14Z" style="fill:#fff"/><path d="M52.94,492.68a1.81,1.81,0,1,1-1.81-1.81A1.81,1.81,0,0,1,52.94,492.68Z" style="fill:#fff"/><path d="M164.63,460.76a1.81,1.81,0,1,1-1.81-1.81A1.81,1.81,0,0,1,164.63,460.76Z" style="fill:#fff"/><path d="M353.2,426a1.81,1.81,0,1,1-1.81-1.81A1.81,1.81,0,0,1,353.2,426Z" style="fill:#fff"/><path d="M436,587.93a.91.91,0,1,1-.91-.91A.9.9,0,0,1,436,587.93Z" style="fill:#fff"/><path d="M322.36,561.89a1.81,1.81,0,1,1-1.81-1.81A1.81,1.81,0,0,1,322.36,561.89Z" style="fill:#fff"/><path d="M288.68,599.2a.91.91,0,1,1-.9-.9A.9.9,0,0,1,288.68,599.2Z" style="fill:#fff"/><path d="M322.47,509a.91.91,0,1,1-.91-.91A.9.9,0,0,1,322.47,509Z" style="fill:#fff"/><path d="M260,521.89a1.81,1.81,0,1,1-1.81-1.81A1.81,1.81,0,0,1,260,521.89Z" style="fill:#fff"/><path d="M613.09,373.43a.91.91,0,1,1-.91-.91A.9.9,0,0,1,613.09,373.43Z" style="fill:#fff"/><path d="M550.61,365.81A1.81,1.81,0,1,1,548.8,364,1.81,1.81,0,0,1,550.61,365.81Z" style="fill:#fff"/><path d="M516.93,403.12a.91.91,0,1,1-.9-.9A.9.9,0,0,1,516.93,403.12Z" style="fill:#fff"/><path d="M550.71,313a.91.91,0,0,1-1.81,0,.91.91,0,1,1,1.81,0Z" style="fill:#fff"/><path d="M488.22,325.82a1.81,1.81,0,1,1-1.81-1.81A1.81,1.81,0,0,1,488.22,325.82Z" style="fill:#fff"/></svg>