<svg id="star" xmlns="http://www.w3.org/2000/svg" viewBox="0 0 980.59 611.32"><title>star2</title><path d="M387.64,93.81A1.81,1.81,0,1,0,389.45,92,1.81,1.81,0,0,0,387.64,93.81Z" style="fill:#fff"/><path d="M721.71.91a.91.91,0,1,0,.91-.91A.9.9,0,0,0,721.71.91Z" style="fill:#fff"/><path d="M562.87,319.47a.91.91,0,1,0,.9-.91A.9.9,0,0,0,562.87,319.47Z" style="fill:#fff"/><path d="M500,415.75a.91.91,0,1,0,.9-.9A.9.9,0,0,0,500,415.75Z" style="fill:#fff"/><path d="M425,397.15a.91.91,0,1,0,1.81,0,.91.91,0,0,0-1.81,0Z" style="fill:#fff"/><path d="M291.74,479.93a.91.91,0,1,0,1.81,0,.91.91,0,0,0-1.81,0Z" style="fill:#fff"/><path d="M258,389.77a.91.91,0,1,0,.91-.91A.9.9,0,0,0,258,389.77Z" style="fill:#fff"/><path d="M481.82,119.5a1.81,1.81,0,1,0,1.81-1.81A1.81,1.81,0,0,0,481.82,119.5Z" style="fill:#fff"/><path d="M675.18,309.3a1.81,1.81,0,1,0,1.81-1.81A1.81,1.81,0,0,0,675.18,309.3Z" style="fill:#fff"/><path d="M252,123.61a1.81,1.81,0,1,0,0-2.56A1.81,1.81,0,0,0,252,123.61Z" style="fill:#fff"/><path d="M375.65,184.92a1.44,1.44,0,1,0,0-2A1.45,1.45,0,0,0,375.65,184.92Z" style="fill:#fff"/><path d="M761.12,168.17a1.44,1.44,0,1,0,1.44-1.44A1.43,1.43,0,0,0,761.12,168.17Z" style="fill:#fff"/><path d="M401.17,258.57a1.81,1.81,0,1,0,1.81-1.81A1.81,1.81,0,0,0,401.17,258.57Z" style="fill:#fff"/><path d="M387.86,325.66a1.81,1.81,0,1,0,1.81-1.81A1.81,1.81,0,0,0,387.86,325.66Z" style="fill:#fff"/><path d="M335.38,270.27a2.91,2.91,0,1,0,2.28-2.28A2.91,2.91,0,0,0,335.38,270.27Z" style="fill:#fff"/><path d="M234.05,583.69a1.81,1.81,0,1,0,2.54-.34A1.82,1.82,0,0,0,234.05,583.69Z" style="fill:#fff"/><path d="M187.59,608.42a1.81,1.81,0,1,0,2.54-.35A1.8,1.8,0,0,0,187.59,608.42Z" style="fill:#fff"/><path d="M553.31,367.44a2.91,2.91,0,1,0,1.61,3.78A2.91,2.91,0,0,0,553.31,367.44Z" style="fill:#fff"/><path d="M584.62,415.56a1.81,1.81,0,1,0,1.81-1.81A1.82,1.82,0,0,0,584.62,415.56Z" style="fill:#fff"/><path d="M684.57,398.39a1.81,1.81,0,1,0,2.51.5A1.81,1.81,0,0,0,684.57,398.39Z" style="fill:#fff"/><path d="M687.52,348.31a.9.9,0,0,0-.25,1.25.91.91,0,1,0,.25-1.25Z" style="fill:#fff"/><path d="M739,364.82a1.81,1.81,0,1,0,2.51.51A1.81,1.81,0,0,0,739,364.82Z" style="fill:#fff"/><path d="M790.46,220.48a.9.9,0,1,0-.46,1.19A.89.89,0,0,0,790.46,220.48Z" style="fill:#fff"/><path d="M741.85,280.6a1.81,1.81,0,1,0-1.75,1.87A1.8,1.8,0,0,0,741.85,280.6Z" style="fill:#fff"/><path d="M320.45,402.63a1.81,1.81,0,1,0,1.81-1.81A1.81,1.81,0,0,0,320.45,402.63Z" style="fill:#fff"/><path d="M186.76,171.84a.91.91,0,1,0,1.08.69A.91.91,0,0,0,186.76,171.84Z" style="fill:#fff"/><path d="M206.76,214.36a.91.91,0,1,0,1.08.68A.91.91,0,0,0,206.76,214.36Z" style="fill:#fff"/><path d="M177.93,231.32A.9.9,0,1,0,179,232,.9.9,0,0,0,177.93,231.32Z" style="fill:#fff"/><path d="M39,177.26a.9.9,0,0,0-1.2-.44.91.91,0,1,0,.77,1.64A.89.89,0,0,0,39,177.26Z" style="fill:#fff"/><path d="M1.73,205.81a.91.91,0,1,0-.44,1.2A.91.91,0,0,0,1.73,205.81Z" style="fill:#fff"/><path d="M754.91,68.24a1.34,1.34,0,1,0,.4,1.85A1.34,1.34,0,0,0,754.91,68.24Z" style="fill:#fff"/><path d="M277.79,194.79c-3.56-1.62-6.21,2.58-3.22,5.09h0C278.13,201.51,280.79,197.3,277.79,194.79Z" style="fill:#fff"/><path d="M802.2,492.78a1.81,1.81,0,1,0,0-2.56A1.81,1.81,0,0,0,802.2,492.78Z" style="fill:#fff"/><path d="M736.92,541a.91.91,0,1,0,1.08.69A.9.9,0,0,0,736.92,541Z" style="fill:#fff"/><path d="M756.92,583.53a.91.91,0,1,0,1.08.68A.9.9,0,0,0,756.92,583.53Z" style="fill:#fff"/><path d="M728.09,600.49a.9.9,0,1,0,1.09.68A.91.91,0,0,0,728.09,600.49Z" style="fill:#fff"/><path d="M589.21,546.43a.9.9,0,1,0-.44,1.2A.9.9,0,0,0,589.21,546.43Z" style="fill:#fff"/><path d="M551.89,575a.9.9,0,1,0-.44,1.2A.9.9,0,0,0,551.89,575Z" style="fill:#fff"/><path d="M828,564c-3.55-1.62-6.2,2.58-3.21,5.09h0C828.3,570.68,831,566.47,828,564Z" style="fill:#fff"/><path d="M977.19,331.74a1.81,1.81,0,1,0,2.46-.71A1.81,1.81,0,0,0,977.19,331.74Z" style="fill:#fff"/><path d="M913.15,281.88a.91.91,0,1,0-.37,1.23A.92.92,0,0,0,913.15,281.88Z" style="fill:#fff"/><path d="M877.59,312.61a.89.89,0,0,0-1.22-.37.9.9,0,1,0,.86,1.59A.89.89,0,0,0,877.59,312.61Z" style="fill:#fff"/><path d="M853.49,289.42a.9.9,0,1,0-1.59.86.92.92,0,0,0,1.23.37A.91.91,0,0,0,853.49,289.42Z" style="fill:#fff"/><path d="M915.59,375.73c.6-3.86-4.16-5.28-5.77-1.72h0C909.21,377.87,914,379.3,915.59,375.73Z" style="fill:#fff"/><path d="M765.89,35a1.81,1.81,0,1,0,.55,2.5A1.81,1.81,0,0,0,765.89,35Z" style="fill:#fff"/><path d="M217.26,549.56a.9.9,0,0,0-1.28,0,.91.91,0,1,0,1.27,1.29A.9.9,0,0,0,217.26,549.56Z" style="fill:#fff"/><path d="M227.91,465.39a.91.91,0,1,0,1.23.36A.91.91,0,0,0,227.91,465.39Z" style="fill:#fff"/><path d="M130.35,504a.9.9,0,0,0,.88,1.58.9.9,0,0,0-.88-1.58Z" style="fill:#fff"/><path d="M120.22,539.49a.9.9,0,1,0,1.23.35A.9.9,0,0,0,120.22,539.49Z" style="fill:#fff"/><path d="M247.05,526.25a1.81,1.81,0,1,0,2.47.71A1.83,1.83,0,0,0,247.05,526.25Z" style="fill:#fff"/></svg>