<?xml version="1.0" encoding="utf-8"?>
<!-- Generator: Adobe Illustrator 22.1.0, SVG Export Plug-In . SVG Version: 6.00 Build 0)  -->
<svg version="1.1" id="圖層_1" xmlns="http://www.w3.org/2000/svg" xmlns:xlink="http://www.w3.org/1999/xlink" x="0px" y="0px"
	 viewBox="0 0 2151.8 1496.7" style="enable-background:new 0 0 2151.8 1496.7;" xml:space="preserve">
<style type="text/css">
	.st0{opacity:0.25;}
	.st1{fill:#330666;}
	.st2{fill:#541B86;}
	.st3{fill:none;stroke:#581F93;stroke-width:0.725;stroke-linecap:round;stroke-linejoin:round;stroke-dasharray:7.094,7.094;}
	.st4{fill:none;stroke:#581F93;stroke-width:0.725;stroke-linecap:round;stroke-linejoin:round;stroke-dasharray:7.066,7.066;}
	.st5{fill:none;stroke:#581F93;stroke-width:0.725;stroke-linecap:round;stroke-linejoin:round;stroke-dasharray:7.149,7.149;}
	.st6{fill:#390569;}
	.st7{opacity:0.41;}
	.st8{opacity:0.3;fill:#72EDFC;enable-background:new    ;}
	.st9{fill:#25CFE0;}
	.st10{fill:#72EDFC;}
	.st11{opacity:0.3;}
	.st12{fill:#3194A3;}
	.st13{opacity:0.5;}
	.st14{opacity:0.4;}
	.st15{clip-path:url(#SVGID_2_);}
	.st16{fill:#FFFFFF;}
	.st17{clip-path:url(#SVGID_4_);}
	.st18{fill:#FFAF3C;}
	.st19{clip-path:url(#SVGID_6_);}
	.st20{fill:#EC8B2C;}
	.st21{fill:#DD7D26;}
	.st22{fill:#F29E30;}
</style>
<title>ta0523</title>
<g class="st0">
	<path class="st1" d="M334.2,440.2c0,51.1-41.4,92.6-92.6,92.5c-51.1,0-92.5-41.4-92.5-92.5c0-51.1,41.4-92.5,92.6-92.5
		C292.8,347.7,334.2,389.1,334.2,440.2C334.2,440.2,334.2,440.2,334.2,440.2"/>
</g>
<path class="st2" d="M304.8,440.2c0,34.9-28.3,63.2-63.1,63.2c-34.9,0-63.2-28.3-63.2-63.1c0-34.9,28.3-63.2,63.1-63.2c0,0,0,0,0,0
	C276.5,377.1,304.8,405.4,304.8,440.2C304.8,440.2,304.8,440.2,304.8,440.2"/>
<path class="st3" d="M383.7,440.2c0,78.4-63.6,142-142,142s-142-63.6-142-142s63.6-142,142-142l0,0
	C320.1,298.2,383.7,361.8,383.7,440.2z"/>
<path class="st4" d="M433.7,440.2c0,106-86,192-192,192s-192-86-192-192s86-192,192-192S433.7,334.2,433.7,440.2z"/>
<ellipse class="st5" cx="241.7" cy="440.2" rx="240.2" ry="240.2"/>
<path class="st6" d="M399.9,646.8c0,18-14.6,32.6-32.6,32.6s-32.6-14.6-32.6-32.6c0-18,14.6-32.6,32.6-32.6S399.9,628.8,399.9,646.8
	L399.9,646.8"/>
<path class="st6" d="M2139.4,929.9c0,14.3-11.6,25.9-25.9,25.9c-14.3,0-25.9-11.6-25.9-25.9c0-14.3,11.6-25.9,25.9-25.9c0,0,0,0,0,0
	C2127.8,904,2139.4,915.6,2139.4,929.9L2139.4,929.9"/>
<g class="st7">
	<path class="st8" d="M1994.4,782.7c0-39.6,32.1-71.7,71.7-71.7c39.6,0,71.7,32.1,71.7,71.7s-32.1,71.7-71.7,71.7
		C2026.5,854.4,1994.4,822.3,1994.4,782.7C1994.4,782.7,1994.4,782.7,1994.4,782.7z"/>
	<path class="st9" d="M1999.5,782.7c0-36.8,29.8-66.6,66.6-66.6s66.6,29.8,66.6,66.6c0,36.8-29.8,66.6-66.6,66.6l0,0
		C2029.3,849.3,1999.5,819.5,1999.5,782.7C1999.5,782.7,1999.5,782.7,1999.5,782.7z"/>
	<path class="st10" d="M2051.2,812L2051.2,812c0-3.6-2.9-6.5-6.5-6.5h-6.1c-3.1,0-5.7-2.5-5.7-5.7l0,0c0-3.1,2.5-5.7,5.7-5.7h17.3
		c2.8,0,5-2.2,5-5l0,0c0-2.7-2.3-5-5-5h-38.3c-3.1,0-5.5-2.5-5.5-5.5l0,0l0,0c0-3.1,2.5-5.5,5.5-5.5l0,0h12.6c3.1,0,5.5-2.5,5.5-5.5
		l0,0l0,0c0-3.1-2.5-5.5-5.5-5.5l0,0h-27.4c-6.2,18.9-3.6,39.6,7.1,56.4h34.8C2048.3,818.4,2051.2,815.6,2051.2,812z"/>
	<path class="st10" d="M2057.6,753.5L2057.6,753.5c0,3.6,2.9,6.5,6.5,6.5h37.8c2.7,0,5,2.2,5,5v1.5c0,2.8-2.2,5-5,5h-20
		c-2.7,0-5,2.2-5,5l0,0c0,2.7,2.2,5,4.9,5c0,0,0.1,0,0.1,0h39.9c2.8,0,5,2.2,5,5v1.2c0,2.8-2.2,5-5,5h-21c-3.1,0-5.5,2.5-5.6,5.5
		c0,0,0,0,0,0l0,0c0,3.1,2.5,5.5,5.5,5.5c0,0,0,0,0,0h28.6c6.2-18.9,3.6-39.6-7.1-56.4h-58.2C2060.6,747.2,2057.7,750,2057.6,753.5z
		"/>
	<g class="st11">
		<path class="st12" d="M2103,727.3c23.5,33.3,15.5,79.4-17.8,102.9c-12.5,8.8-27.3,13.5-42.6,13.5c-1.1,0-2.2,0-3.3-0.1
			c33.7,14.8,72.9-0.4,87.8-34.1C2140.1,779.9,2129.9,745.2,2103,727.3z"/>
	</g>
</g>
<g class="st13">
	<g class="st14">
		<g>
			<defs>
				<rect id="SVGID_1_" x="1859.7" y="1462.8" width="3.3" height="3.1"/>
			</defs>
			<clipPath id="SVGID_2_">
				<use xlink:href="#SVGID_1_"  style="overflow:visible;"/>
			</clipPath>
			<g class="st15">
				<polygon class="st16" points="1861.4,1462.8 1861.9,1463.9 1863,1464 1862.2,1464.8 1862.4,1466 1861.4,1465.4 1860.4,1466 
					1860.6,1464.8 1859.7,1464 1860.9,1463.9 				"/>
			</g>
		</g>
	</g>
	<g class="st0">
		<g>
			<defs>
				<rect id="SVGID_3_" x="1801.9" y="1373.1" width="120" height="120"/>
			</defs>
			<clipPath id="SVGID_4_">
				<use xlink:href="#SVGID_3_"  style="overflow:visible;"/>
			</clipPath>
			<g class="st17">
				<path class="st18" d="M1921.9,1433.1c0,33.1-26.9,60-60,60s-60-26.9-60-60s26.9-60,60-60S1921.9,1400,1921.9,1433.1"/>
			</g>
		</g>
	</g>
	<g class="st0">
		<g>
			<defs>
				<rect id="SVGID_5_" x="1811.2" y="1382.5" width="101.3" height="101.3"/>
			</defs>
			<clipPath id="SVGID_6_">
				<use xlink:href="#SVGID_5_"  style="overflow:visible;"/>
			</clipPath>
			<g class="st19">
				<path class="st18" d="M1912.5,1433.1c0,28-22.7,50.7-50.7,50.7c-28,0-50.7-22.7-50.7-50.7c0-28,22.7-50.7,50.7-50.7c0,0,0,0,0,0
					C1889.8,1382.5,1912.5,1405.1,1912.5,1433.1"/>
			</g>
		</g>
	</g>
	<path class="st20" d="M1902.8,1433.1c0,22.6-18.3,40.9-40.9,40.9s-40.9-18.3-40.9-40.9c0-22.6,18.3-40.9,40.9-40.9c0,0,0,0,0,0
		C1884.5,1392.2,1902.8,1410.5,1902.8,1433.1"/>
	<path class="st21" d="M1889.2,1402.7c7.5,21.3-3.7,44.6-25,52.1c-14.1,4.9-29.8,1.8-40.9-8.2c7.4,21.3,30.7,32.6,52.1,25.2
		s32.6-30.7,25.2-52.1C1898.3,1413.2,1894.3,1407.3,1889.2,1402.7"/>
	<path class="st18" d="M1901.2,1426.4c0.1-1.1,0.2-2.3,0.3-3.4c-4.1-15.9-17.2-27.8-33.4-30.3c-11.9,2.4-21.7,12.7-23.5,26.2
		c-2.2,16.7,8.7,31.9,24.3,34S1899,1443.1,1901.2,1426.4"/>
	<path class="st22" d="M1898.4,1414.6c0,0.9-0.1,1.9-0.2,2.9c-2.2,16.7-16.7,28.6-32.3,26.5c-9-1.3-16.8-6.8-20.9-14.9
		c2.3,12.3,11.7,22.2,24,23.9c15.6,2.1,30.1-9.8,32.3-26.5c0.1-1.1,0.2-2.3,0.3-3.4C1900.7,1420.1,1899.7,1417.3,1898.4,1414.6"/>
	<path class="st18" d="M1849.3,1419.5h-14.4c-1.2-0.1-2.1-1.1-2-2.3c0.1-1.1,0.9-1.9,2-2h14.4c1.2,0.1,2.1,1.1,2,2.3
		C1851.2,1418.5,1850.4,1419.4,1849.3,1419.5"/>
	<path class="st20" d="M1860.9,1405.5h-14.4c-1.2-0.1-2.1-1.1-2-2.3c0.1-1.1,0.9-1.9,2-2h14.4c1.2,0.1,2.1,1.1,2,2.3
		C1862.8,1404.5,1861.9,1405.4,1860.9,1405.5"/>
	<path class="st20" d="M1856.2,1430.8h-14.4c-1.2-0.1-2.1-1.1-2-2.3c0.1-1.1,0.9-1.9,2-2h14.4c1.2,0.1,2.1,1.1,2,2.3
		C1858.1,1429.9,1857.2,1430.7,1856.2,1430.8"/>
	<path class="st20" d="M1881.9,1424.3h-14.4c-1.2-0.1-2.1-1.1-2-2.3c0.1-1.1,0.9-1.9,2-2h14.4c1.2-0.1,2.2,0.8,2.3,2
		c0.1,1.2-0.8,2.2-2,2.3C1882.1,1424.3,1882,1424.3,1881.9,1424.3"/>
	<path class="st21" d="M1897.7,1446.4h-14.4c-1.2,0.1-2.2-0.8-2.3-2c-0.1-1.2,0.8-2.2,2-2.3c0.1,0,0.2,0,0.3,0h14.4
		c1.2,0.1,2.1,1.1,2,2.3C1899.7,1445.5,1898.8,1446.3,1897.7,1446.4"/>
	<path class="st22" d="M1862.6,1451.1h-14.4c-1.2-0.1-2.1-1.1-2-2.3c0.1-1.1,0.9-1.9,2-2h14.4c1.2-0.1,2.2,0.8,2.3,2
		c0.1,1.2-0.8,2.2-2,2.3C1862.8,1451.1,1862.7,1451.1,1862.6,1451.1"/>
	<path class="st18" d="M1842.2,1442.1h-14.4c-1.2-0.1-2.1-1.1-2-2.3c0.1-1.1,0.9-1.9,2-2h14.4c1.2-0.1,2.2,0.8,2.3,2
		c0.1,1.2-0.8,2.2-2,2.3C1842.3,1442.1,1842.3,1442.1,1842.2,1442.1"/>
	<path class="st20" d="M1881.3,1465.1h-14.4c-1.2-0.1-2.1-1.1-2-2.3c0.1-1.1,0.9-1.9,2-2h14.4c1.2,0.1,2.1,1.1,2,2.3
		C1883.2,1464.1,1882.3,1465,1881.3,1465.1"/>
	<path class="st20" d="M1854.7,1464.7h-14.4c-1.2,0.1-2.2-0.8-2.3-2c-0.1-1.2,0.8-2.2,2-2.3c0.1,0,0.2,0,0.3,0h14.4
		c1.2-0.1,2.2,0.8,2.3,2c0.1,1.2-0.8,2.2-2,2.3C1854.9,1464.7,1854.8,1464.7,1854.7,1464.7"/>
</g>
</svg>
