<?xml version="1.0" encoding="utf-8"?>
<!-- Generator: Adobe Illustrator 15.0.0, SVG Export Plug-In  -->
<!DOCTYPE svg PUBLIC "-//W3C//DTD SVG 1.1//EN" "http://www.w3.org/Graphics/SVG/1.1/DTD/svg11.dtd" [
	<!ENTITY ns_flows "http://ns.adobe.com/Flows/1.0/">
]>
<svg version="1.1"
	 xmlns="http://www.w3.org/2000/svg" xmlns:xlink="http://www.w3.org/1999/xlink" xmlns:a="http://ns.adobe.com/AdobeSVGViewerExtensions/3.0/"
	 x="0px" y="0px" width="100px" height="100px" viewBox="-2.5 -1.4 100 100"
	 overflow="visible" enable-background="new -2.5 -1.4 100 100" xml:space="preserve">
<defs>
</defs>
<path display="none" opacity="0.2" fill="#FFFFFF" d="M37.4,45.4L19,89.3c8.4,5,18.1,7.8,28.5,7.8c10.4,0,20.2-2.9,28.5-7.8
	l-18.4-44l-10.1,0.8l0,0L37.4,45.4z"/>
<rect x="58.6" y="72.3" transform="matrix(0.9416 -0.3366 0.3366 0.9416 -22.0147 24.3975)" display="none" fill="#C69B73" width="1.5" height="6.7"/>
<rect x="55.1" y="73.6" transform="matrix(0.9419 -0.3359 0.3359 0.9419 -22.5903 23.2379)" display="none" fill="#AD8463" width="1.5" height="6.7"/>
<rect x="47" y="76.5" transform="matrix(0.9418 -0.3362 0.3362 0.9418 -24.0491 20.7104)" display="none" fill="#C69B73" width="1.5" height="6.7"/>
<rect x="43.6" y="77.7" transform="matrix(0.9416 -0.3366 0.3366 0.9416 -24.6975 19.6504)" display="none" fill="#AD8463" width="1.5" height="6.7"/>
<rect x="60.1" y="77.8" transform="matrix(-0.3361 -0.9418 0.9418 -0.3361 6.6787 161.8591)" display="none" fill="#784F27" width="0.6" height="1.5"/>
<rect x="56.6" y="79" transform="matrix(-0.3361 -0.9418 0.9418 -0.3361 0.8758 160.2453)" display="none" fill="#784F27" width="0.6" height="1.5"/>
<rect x="48.5" y="81.9" transform="matrix(-0.3369 -0.9415 0.9415 -0.3369 -12.5965 156.5318)" display="none" fill="#784F27" width="0.6" height="1.5"/>
<rect x="45.1" y="83.2" transform="matrix(-0.3374 -0.9413 0.9413 -0.3374 -18.3577 154.9581)" display="none" fill="#784F27" width="0.6" height="1.5"/>
<ellipse transform="matrix(0.9419 -0.336 0.336 0.9419 -22.3587 22.8166)" display="none" fill="#F9A0A0" cx="54.7" cy="76" rx="2.4" ry="1.7"/>
<path display="none" fill="#E2C89A" d="M59.9,71.1c0.5,1.5-0.2,3.2-1.8,3.7l-13,4.6c-1.5,0.5-3.2-0.2-3.7-1.8l-2.5-7
	c-0.5-1.5,0.2-3.2,1.8-3.7l13-4.6c1.5-0.5,3.2,0.2,3.7,1.8L59.9,71.1z"/>
<path display="none" fill="#E2C89A" d="M37.2,72c0,1.4-0.5,2.9-1.4,4c-0.9,1.1-2,1.5-2.9,1.3c0-1.4,0.5-2.9,1.4-4
	C35.2,72.1,36.3,71.7,37.2,72z"/>
<path display="none" fill="#C69B73" d="M35.8,76c0.9-1.1,1.4-2.6,1.4-4l-4.3,5.3C33.8,77.5,34.9,77.1,35.8,76z"/>
<path display="none" fill="#C69B73" d="M41.1,70.6c0.9,1.1,2.3,1.9,3.7,2.2c1.4,0.3,2.5-0.1,3-0.9c-0.9-1.1-2.3-1.9-3.7-2.2
	C42.7,69.5,41.6,69.8,41.1,70.6z"/>
<path display="none" fill="#AD8463" d="M44.7,72.8c-1.4-0.3-2.7-1.1-3.7-2.2l6.7,1.4C47.2,72.7,46.1,73.1,44.7,72.8z"/>
<path display="none" fill="#FFFFFF" d="M30.3,69.6c0,0,3.1,2.1,5.3,1.4c2.2-0.6,1.1,2.9,1.1,2.9S30.8,74.9,30.3,69.6z"/>
<path display="none" fill="#FFFFFF" d="M45.3,64.3c0,0-1.1,3.6-3.2,4.5c-2.1,0.9,1.1,2.9,1.1,2.9S48.3,68.6,45.3,64.3z"/>
<path display="none" fill="#E2C89A" d="M45.2,74.7c0.5,1.5-0.2,3.2-1.8,3.7l-3,1.1c-1.5,0.5-3.2-0.2-3.7-1.8L35,72.6
	c-0.5-1.5,0.2-3.2,1.8-3.7l3-1.1c1.5-0.5,3.2,0.2,3.7,1.8L45.2,74.7z"/>
<path display="none" fill="#C69B73" d="M39.7,67.9l-1.5,0.5L41.9,79l1.5-0.5c1.5-0.5,2.3-2.2,1.8-3.7l-1.8-5.1
	C42.8,68.1,41.2,67.3,39.7,67.9z"/>
<path display="none" fill="#FFFFFF" d="M47.7,77.6c0.5,1.5-0.2,3.2-1.8,3.7l-5.8,2.1c-1.5,0.5-3.2-0.2-3.7-1.8l-0.3-0.8
	c-0.5-1.5,0.2-3.2,1.8-3.7l5.8-2.1c1.5-0.5,3.2,0.2,3.7,1.8L47.7,77.6z"/>
<circle display="none" fill="#C69B73" cx="39" cy="80.8" r="1.1"/>
<circle display="none" fill="#C69B73" cx="45.1" cy="78.6" r="1.1"/>
<circle display="none" fill="#58595B" cx="38.4" cy="73.4" r="0.6"/>
<circle display="none" fill="#58595B" cx="41.1" cy="72.5" r="0.6"/>
<path display="none" fill="#F9A0A0" d="M55.7,77.9c0.1,0.2,0,0.3-0.2,0.4l0,0c-0.2,0.1-0.3,0-0.4-0.2l-0.3-0.7
	c-0.1-0.2,0-0.3,0.2-0.4l0,0c0.2-0.1,0.3,0,0.4,0.2L55.7,77.9z"/>
<path display="none" fill="#F9A0A0" d="M54.4,78.1c0.1,0.2,0,0.3-0.2,0.4l0,0c-0.2,0.1-0.3,0-0.4-0.2l-0.2-0.7
	c-0.1-0.2,0-0.3,0.2-0.4l0,0c0.2-0.1,0.3,0,0.4,0.2L54.4,78.1z"/>
<path display="none" fill="#F9A0A0" d="M56.8,77.2c0.1,0.2,0,0.3-0.2,0.4l0,0c-0.2,0.1-0.3,0-0.4-0.2l-0.2-0.7
	c-0.1-0.2,0-0.3,0.2-0.4l0,0c0.2-0.1,0.3,0,0.4,0.2L56.8,77.2z"/>
<path display="none" fill="#E2C89A" d="M57,64.6l-0.2-0.5c0.7-0.3,1.2-0.6,1.3-1.1c0.3-1-0.7-2.2-0.7-2.2l0.4-0.4
	c0,0.1,1.2,1.4,0.8,2.7C58.4,63.8,57.9,64.3,57,64.6z"/>
<path display="none" fill="#C69B73" d="M57.4,60.8l0.4-0.3l-0.1-1.3c0,0-1.2,0-1.6,1.2L57.4,60.8L57.4,60.8z"/>
<path display="none" fill="#8C6D57" d="M50.8,71.7c0.2-2.1,2.4-2.2,3.2-3.3c0.7-1.1,2.6-0.6,3.2,0.3c0.6,0.8,0.7,3.1-1.5,4.7
	C53.5,74.9,50.5,74,50.8,71.7z"/>
<path display="none" fill="#8C6D57" d="M46.9,66.4c-0.1,0.8-0.4,1.7,1.4,1.9c1.8,0.3,3.2-0.9,3.8-2c0.4-0.8-0.1-2.3-0.7-3.2
	l-4.7,1.7C46.9,65.3,47,65.9,46.9,66.4z"/>
<rect x="17.9" y="33.9" transform="matrix(0.5619 0.8272 -0.8272 0.5619 40.1401 1.7407)" display="none" fill="#3ABA77" width="1" height="9.8"/>
<circle display="none" fill="#3ABA77" cx="14.3" cy="41.5" r="2.3"/>
<circle display="none" fill="#FFFFFF" cx="13.8" cy="41.2" r="1.1"/>
<rect x="47" y="4.2" display="none" fill="#3ABA77" width="0.8" height="6.2"/>
<path display="none" fill="#57A6FF" d="M47.5,14.9H24.9c-2.1,0-3.8,1.7-3.8,3.8h26.4V14.9z"/>
<path display="none" fill="#3469D3" d="M47.5,18.7H21.1c0,2.1,1.7,3.8,3.8,3.8h22.6V18.7z"/>
<path display="none" fill="#3ABA77" d="M47.5,10.4c-9.5,0-17.3,2-17.3,4.4h17.3V10.4z"/>
<path display="none" fill="#57A6FF" d="M17.1,32.2c0,7.7,13.6,13.9,30.4,13.9V32.2H17.1z"/>
<polygon display="none" fill="#3ABA77" points="5.4,32.2 47.5,32.2 47.5,22.5 24.9,22.5 "/>
<circle display="none" fill="#3ABA77" cx="47.5" cy="2.3" r="2.3"/>
<circle display="none" fill="#FFFFFF" cx="47" cy="2" r="1.1"/>
<circle display="none" fill="#FFFFFF" cx="34.3" cy="27.4" r="2.1"/>
<circle display="none" fill="#FFFFFF" cx="42.8" cy="27.4" r="2.1"/>
<path display="none" fill="#FFFFFF" d="M37.4,45.4c3.2,0.5,6.5,0.8,10.1,0.8v-5C43.2,41.2,39.4,42.9,37.4,45.4z"/>
<rect x="76.1" y="33.9" transform="matrix(-0.5601 0.8284 -0.8284 -0.5601 151.5432 -2.9385)" display="none" fill="#009695" width="1" height="9.8"/>
<path display="none" fill="#3469D3" d="M47.5,14.9H70c2.1,0,3.8,1.7,3.8,3.8H47.5V14.9z"/>
<path display="none" fill="#275596" d="M47.5,18.7h26.4c0,2.1-1.7,3.8-3.8,3.8H47.5V18.7z"/>
<path display="none" fill="#009695" d="M47.5,10.4c9.5,0,17.3,2,17.3,4.4H47.5V10.4z"/>
<path display="none" fill="#3469D3" d="M77.8,32.2c0,7.7-13.6,13.9-30.4,13.9V32.2H77.8z"/>
<polygon display="none" fill="#009695" points="89.5,32.2 47.5,32.2 47.5,22.5 70,22.5 "/>
<circle display="none" fill="#009695" cx="80.7" cy="41.5" r="2.3"/>
<circle display="none" fill="#FFFFFF" cx="81.2" cy="41.2" r="1.1"/>
<circle display="none" fill="#D0D5D8" cx="69.2" cy="27.4" r="2.1"/>
<circle display="none" fill="#D0D5D8" cx="60.7" cy="27.4" r="2.1"/>
<circle display="none" fill="#D0D5D8" cx="52.2" cy="27.4" r="2.1"/>
<path display="none" fill="#D0D5D8" d="M57.6,45.4c-3.2,0.5-6.5,0.8-10.1,0.8v-5C51.8,41.2,55.6,42.9,57.6,45.4z"/>
<polygon display="none" opacity="0.2" points="47.5,23.6 22.7,23.6 24.9,22.5 47.5,22.5 "/>
<polygon display="none" opacity="0.2" points="47.5,23.6 72.3,23.6 70,22.5 47.5,22.5 "/>
<path display="none" fill="#FFFFFF" d="M66.1,18.7c0,0.6-0.5,1.1-1.1,1.1H30c-0.6,0-1.1-0.5-1.1-1.1l0,0c0-0.6,0.5-1.1,1.1-1.1H65
	C65.6,17.6,66.1,18.1,66.1,18.7L66.1,18.7z"/>
<path display="none" opacity="0.2" d="M17.1,32.2c0,0.7,0.1,1.4,0.3,2.1h30v-2.1H17.1z"/>
<path display="none" opacity="0.2" d="M77.8,32.2c0,0.7-0.1,1.4-0.3,2.1h-30v-2.1H77.8z"/>
<circle display="none" fill="#FFFFFF" cx="25.8" cy="27.4" r="2.1"/>
<path display="none" fill="#148C66" d="M65.4,59.9c-0.1-0.1-0.2-0.2-0.3-0.3l0,0l-0.8-0.8c-0.2-0.2-0.4-0.4-0.6-0.6l-8.8-15.5
	c-0.2-0.2-5.4-3.7-5.4-3.7l-8.8-0.8l-19.7,5.6h-5.4h-2H0.8C0.3,46.6,0,49.4,0,52.2c0,5,0.8,9.7,2.3,14.2h15.4v0h23.8
	c3.5,3.3,8.4,7.8,9.1,8.4c1,0.9,2.3,1.4,3.6,0c1.3-1.4,0.2-2.6,0.2-2.7c0-0.1-0.3-0.4-0.1-0.6c0.2-0.3,0.7,0,0.9,0.2
	c0.3,0.2,2,1.2,3.3-0.2c1.3-1.4,0-3-0.2-3.2c-0.2-0.2-0.5-0.5-0.2-0.9c0.3-0.3,0.9,0.2,1.4,0.6c0.5,0.5,2.1,1.5,3.6,0
	c1.5-1.6-0.5-3.2-0.9-3.6c-0.4-0.4-0.8-0.7-0.4-1c0.3-0.3,0.9,0.3,1.2,0.6c0,0,1.5,1.2,2.9-0.4C67.2,62,66.1,60.6,65.4,59.9z"/>
<path display="none" fill="#E7BE86" d="M75.6,62H71l-5.3-3.2c0,0-7.5-1-10.5-6.7c-2.9-5.7-4.3-8-4.3-8l-11-1.9l-8.9,5.9
	c0,0-4.9,2.9-9.3-0.6c5.1-4.7,15.8-14.3,15.8-14.3h18.7l17.5,7.2h3.3L78.1,62H75.6z"/>
<rect x="65.9" y="45.7" transform="matrix(-8.523900e-04 1 -1 -8.523900e-04 130.1214 -30.4065)" display="none" fill="#FFFFFF" width="28.6" height="8.2"/>
<rect x="73.1" y="52.9" transform="matrix(-8.181770e-04 1 -1 -8.181770e-04 137.2732 -23.2351)" display="none" fill="#A7DAE9" width="14.3" height="8.2"/>
<path display="none" fill="#E7BE86" d="M31.4,55.6c-1.3-0.8-3-0.5-3.8,0.8l-5.9,9c-0.8,1.3-0.5,3,0.8,3.8c1.3,0.8,3,0.5,3.8-0.8
	l5.9-9C33,58.1,32.6,56.4,31.4,55.6z"/>
<path display="none" fill="#E7BE86" d="M49.6,62.7c-1.2-0.8-2.8-0.5-3.6,0.8L43,68c-0.2-0.2-0.4-0.3-0.5-0.5l2.9-4.4
	c0.9-1.3,0.5-3.1-0.8-4c-1.3-0.9-3.1-0.5-4,0.8l-4.3,6.5h-1l3.4-5.2c0.9-1.3,0.5-3.1-0.8-4c-1.3-0.9-3.1-0.5-4,0.8l-5.5,8.4h-0.1
	c0,0,0,0.1-0.1,0.1c0,0,0,0,0,0.1l-0.5,0.8c-0.9,1.3-0.5,3.1,0.8,4c1.3,0.9,3.1,0.5,4-0.8l2-3c0.2-0.2,0.4-0.3,0.6-0.2
	c0.2,0.1,0.4,0.3,0,0.9l-0.7,1c-0.9,1.3-0.5,3.1,0.8,4c1.3,0.9,3.1,0.5,4-0.8l1.3-2l0,0l0,0l0-0.1c0.1-0.1,0.3-0.4,0.6-0.3
	c0.3,0.1,0.2,0.4,0.1,0.5l-1,1.5c-0.8,1.2-0.5,2.8,0.8,3.6c1.2,0.8,2.8,0.5,3.6-0.8l5.6-8.6C51.2,65.1,50.8,63.5,49.6,62.7z"/>
<path display="none" fill="#57A6FF" d="M91.8,52.2c0-6.8-1.5-13.3-4.2-19.1l-5,0l-0.1,33.5l6.9,0C91,62,91.8,57.2,91.8,52.2z"/>
<path display="none" fill="#3469D3" d="M91.8,52.2c0-0.8,0-1.6-0.1-2.4l-9.1,0l0,16.7l6.9,0C91,62,91.8,57.2,91.8,52.2z"/>
<path display="none" fill="#A7DAE9" d="M89.5,41.1c0.3,0,0.6-0.1,0.9-0.2c-0.3-1-0.5-2-0.9-3c-0.8,0-1.5,0.7-1.5,1.5
	C87.9,40.3,88.6,41.1,89.5,41.1z"/>
<circle display="none" opacity="0.3" fill="#FFFFFF" cx="7.3" cy="52.1" r="3.5"/>
<circle display="none" opacity="0.1" fill="#FFFFFF" cx="17.2" cy="59.1" r="3.2"/>
<circle display="none" fill="#39BD7A" cx="45" cy="50.8" r="3.2"/>
<polygon display="none" fill="#F8AB1F" points="18.5,75.7 21.2,77.2 20.7,74.1 22.9,72 19.9,71.5 18.5,68.7 17.1,71.5 14,72 
	16.3,74.1 15.7,77.2 "/>
<polygon display="none" fill="#F8AB1F" points="52.8,27.9 54.6,28.9 54.3,26.8 55.7,25.4 53.7,25.1 52.8,23.2 51.9,25.1 49.8,25.4 
	51.3,26.8 51,28.9 "/>
<polygon display="none" fill="#FFFFFF" points="62.4,15.1 64.5,16.2 64.1,13.9 65.7,12.3 63.4,11.9 62.4,9.8 61.3,11.9 59,12.3 
	60.7,13.9 60.3,16.2 "/>
<polygon display="none" fill="#FFFFFF" points="14,44.5 17.3,46.3 16.7,42.5 19.4,39.9 15.7,39.4 14,36 12.3,39.4 8.6,39.9 
	11.3,42.5 10.7,46.3 "/>
<polygon display="none" fill="#F8AB1F" points="91.5,48.9 95,50.8 91.5,52.7 89.6,56.2 87.6,52.7 84.1,50.8 87.6,48.9 89.6,45.4 "/>
<polygon display="none" fill="#FFFFFF" points="28.9,23.3 32.5,25.3 28.9,27.3 26.9,30.9 25,27.3 21.3,25.3 25,23.3 26.9,19.7 "/>
<polygon display="none" opacity="0.3" fill="#FFFFFF" points="69.4,31.5 71.2,32.5 69.4,33.5 68.4,35.3 67.4,33.5 65.6,32.5 
	67.4,31.5 68.4,29.7 "/>
<polygon display="none" opacity="0.3" fill="#FFFFFF" points="60.6,83.5 62.4,84.5 60.6,85.5 59.6,87.3 58.6,85.5 56.8,84.5 
	58.6,83.5 59.6,81.7 "/>
<polygon display="none" opacity="0.3" fill="#FFFFFF" points="70.9,72 72.7,73 70.9,74 69.9,75.8 68.9,74 67.1,73 68.9,72 
	69.9,70.2 "/>
<polygon display="none" opacity="0.3" fill="#FFFFFF" points="15.9,25.1 17.7,26.1 15.9,27 14.9,28.9 13.9,27 12.1,26.1 13.9,25.1 
	14.9,23.2 "/>
<polygon display="none" opacity="0.3" fill="#FFFFFF" points="41.3,78.7 43.1,79.7 41.3,80.6 40.3,82.5 39.3,80.6 37.5,79.7 
	39.3,78.7 40.3,76.9 "/>
<polygon display="none" opacity="0.3" fill="#FFFFFF" points="35.7,17.2 37.5,18.2 35.7,19.2 34.7,21 33.7,19.2 31.9,18.2 
	33.7,17.2 34.7,15.4 "/>
<polygon fill="#F8AB1F" points="24.9,15.2 27.8,16.7 27.3,13.4 29.7,11.1 26.4,10.6 24.9,7.6 23.4,10.6 20.1,11.1 22.5,13.4 
	21.9,16.7 "/>
<polygon fill="#F8AB1F" points="72.2,20.5 74.5,21.7 74,19.2 75.9,17.4 73.3,17 72.2,14.7 71,17 68.5,17.4 70.3,19.2 69.9,21.7 "/>
<polygon fill="#F8AB1F" points="48.9,5.8 50.6,6.7 50.3,4.8 51.7,3.5 49.8,3.2 48.9,1.5 48.1,3.2 46.2,3.5 47.6,4.8 47.2,6.7 "/>
<polygon fill="#F8AB1F" points="15.3,37.7 16.7,38.4 16.4,36.8 17.6,35.7 16,35.5 15.3,34.1 14.6,35.5 13,35.7 14.2,36.8 13.9,38.4 
	"/>
<polygon fill="#F8AB1F" points="79.7,37.1 81.1,37.8 80.8,36.3 82,35.2 80.4,34.9 79.7,33.5 79,34.9 77.4,35.2 78.5,36.3 78.3,37.8 
	"/>
<rect x="36.5" y="16.6" fill="#EE4F4D" width="1" height="11.4"/>
<rect x="56.2" y="16.6" fill="#A63935" width="1" height="11.4"/>
<path fill="#EE4F4D" d="M40,41.8c0,0.4-0.3,0.8-0.8,0.8H28c-0.4,0-0.8-0.3-0.8-0.8v-8.3c0-0.4,0.4-0.8,0.8-0.8h11.2
	c0.4,0,0.8,0.4,0.8,0.8V41.8z"/>
<path fill="#A63935" d="M66.5,41.8c0,0.4-0.3,0.8-0.8,0.8H54.4c-0.4,0-0.8-0.3-0.8-0.8v-8.3c0-0.4,0.4-0.8,0.8-0.8h11.2
	c0.4,0,0.8,0.4,0.8,0.8V41.8z"/>
<path fill="#EE4F4D" d="M30.6,79v12.5c0,2.3,1.9,4.2,4.2,4.2V79H30.6z"/>
<path fill="#A63935" d="M34.8,79v16.7c2.3,0,4.2-1.9,4.2-4.2V79H34.8z"/>
<path fill="#EE4F4D" d="M54.6,79v12.5c0,2.3,1.9,4.2,4.2,4.2V79H54.6z"/>
<path fill="#A63935" d="M58.8,79v16.7c2.3,0,4.2-1.9,4.2-4.2V79H58.8z"/>
<path fill="#EE4F4D" d="M42.6,79v12.5c0,2.3,1.9,4.2,4.2,4.2V79H42.6z"/>
<path fill="#A63935" d="M46.8,79v16.7c2.3,0,4.2-1.9,4.2-4.2V79H46.8z"/>
<rect x="46.8" y="47.4" fill="#A63935" width="16.2" height="5.5"/>
<rect x="46.8" y="43.3" fill="#2A2761" width="12.3" height="4.1"/>
<rect x="30.6" y="47.4" fill="#EE4F4D" width="16.2" height="5.5"/>
<rect x="46.8" y="52.9" fill="#C4C4C4" width="16.2" height="33.8"/>
<rect x="30.6" y="52.9" fill="#FFFFFF" width="16.2" height="33.8"/>
<rect x="34.5" y="43.3" fill="#3A3A77" width="12.3" height="4.1"/>
<path fill="#C4C4C4" d="M46.8,22.4v16.2v4.7H63v-4.7C63,29.7,55.8,22.4,46.8,22.4z"/>
<path fill="#FFFFFF" d="M30.6,38.6v4.7h16.2v-4.7V22.4C37.9,22.4,30.6,29.7,30.6,38.6z"/>
<circle opacity="0.2" cx="46.8" cy="69.8" r="12.4"/>
<path fill="#A63935" d="M55.9,69.8c0-5-4-9-9-9v9H55.9z"/>
<path fill="#EE4F4D" d="M46.8,60.7c-5,0-9,4-9,9h9V60.7z"/>
<path fill="#A63935" d="M37.8,69.8c0,5,4,9,9,9v-9H37.8z"/>
<path fill="#7F2D2D" d="M46.8,69.8v9c5,0,9-4,9-9H46.8z"/>
<path fill="#FFFFFF" d="M28.1,55.7c-2.1,0.5-4.2-0.7-4.7-2.8c-0.5-2.1,0.7-4.2,2.8-4.7L28.1,55.7z"/>
<path fill="#EE4F4D" d="M26.5,32.3c-0.3-1.1-1.4-1.8-2.6-1.5l0,0c-1.1,0.3-1.8,1.4-1.5,2.6l5.7,22.5c0.3,1.1,1.4,1.8,2.6,1.5l0,0
	c1.1-0.3,1.8-1.4,1.5-2.6L26.5,32.3z"/>
<path fill="#EE4F4D" d="M27.5,24.5c-0.9,0.2-1.4,1.1-1.2,2c0.5,1.8-0.6,3.6-2.4,4c-1.8,0.5-3.6-0.6-4-2.4c-0.2-0.9-1.1-1.4-2-1.2
	c-0.9,0.2-1.4,1.1-1.2,2c0.9,3.5,4.5,5.7,8.1,4.8c3.5-0.9,5.7-4.5,4.8-8.1C29.3,24.8,28.3,24.2,27.5,24.5z"/>
<path fill="#C4C4C4" d="M65.8,56.2c2.1,0,3.9-1.7,3.9-3.9s-1.7-3.9-3.9-3.9V56.2z"/>
<path fill="#A63935" d="M65.6,33c0.2-1.2,1.3-1.9,2.4-1.7l0,0c1.2,0.2,1.9,1.3,1.8,2.4l-3.7,22.9c-0.2,1.2-1.3,1.9-2.4,1.7l0,0
	c-1.1-0.2-1.9-1.3-1.7-2.4L65.6,33z"/>
<path fill="#A63935" d="M73.8,26.9c-0.9-0.1-1.8,0.5-1.9,1.4c-0.3,1.8-2,3-3.8,2.7c-1.8-0.3-3-2-2.7-3.8c0.1-0.9-0.5-1.8-1.4-1.9
	c-0.9-0.1-1.8,0.5-1.9,1.4c-0.6,3.6,1.9,7,5.5,7.6c3.6,0.6,7-1.9,7.6-5.5C75.3,27.9,74.7,27,73.8,26.9z"/>
<path fill="#57A5FF" d="M40.3,30.2c-2.7,0-4.8,2.2-4.8,4.8v8.3h11.3v-4.7v-8.4H40.3z"/>
<path fill="#3469D2" d="M53.4,30.2c2.7,0,4.8,2.2,4.8,4.8v8.3H46.8v-4.7v-8.4H53.4z"/>
<circle fill="#FFFFFF" cx="37" cy="14.7" r="2.6"/>
<circle fill="#C4C4C4" cx="56.7" cy="14.7" r="2.6"/>
<circle fill="#FFFFFF" cx="39.3" cy="34.6" r="1.7"/>
<circle fill="#FFFFFF" cx="45.9" cy="34.7" r="2.9"/>
</svg>
