<svg xmlns="http://www.w3.org/2000/svg" xmlns:xlink="http://www.w3.org/1999/xlink" viewBox="0 0 1920 150"><defs><clipPath id="35d83df9-644d-46c5-a25a-f77be7dcca0a"><rect width="1920" height="147.97" style="fill:none"/></clipPath><linearGradient id="8c7363dc-a31c-4300-80ae-89f949aa5ec8" x1="937.77" y1="-40.64" x2="950.46" y2="687.93" gradientUnits="userSpaceOnUse"><stop offset="0" stop-color="#89ffff"/><stop offset="0.53" stop-color="#54c0ff"/></linearGradient><linearGradient id="a1c61da0-be96-4307-a495-a4407a5f4dbd" x1="937.77" y1="-9.82" x2="950.46" y2="718.75" xlink:href="#8c7363dc-a31c-4300-80ae-89f949aa5ec8"/><linearGradient id="94b8a25b-1361-4164-a319-158c2d5e9736" x1="791.33" y1="539.92" x2="752.31" y2="79.53" gradientUnits="userSpaceOnUse"><stop offset="0" stop-color="#4a9a3b"/><stop offset="1" stop-color="#95ea42"/></linearGradient><linearGradient id="7294cd15-bb21-41d5-a3ee-0b214656b4d9" x1="1110.6" y1="488.44" x2="1076.93" y2="91.26" xlink:href="#94b8a25b-1361-4164-a319-158c2d5e9736"/><linearGradient id="8a13144d-bc93-4c6e-bf0e-8e6dc032840f" x1="875.75" y1="77.73" x2="875.17" y2="199.42" gradientUnits="userSpaceOnUse"><stop offset="0" stop-color="#9ff2ff"/><stop offset="1" stop-color="#b3ffff"/></linearGradient><linearGradient id="54c7b39c-a01e-4a28-a1a4-61f71e3caaab" x1="893.15" y1="77.81" x2="892.57" y2="199.51" xlink:href="#8a13144d-bc93-4c6e-bf0e-8e6dc032840f"/><linearGradient id="59bccf3b-0d50-4b8f-bd96-901f4acd9ac0" x1="1009.19" y1="78.36" x2="1008.61" y2="200.05" xlink:href="#8a13144d-bc93-4c6e-bf0e-8e6dc032840f"/><linearGradient id="1dd21361-aac1-4736-939a-b25a29c511a9" x1="1025.45" y1="78.43" x2="1024.87" y2="200.13" xlink:href="#8a13144d-bc93-4c6e-bf0e-8e6dc032840f"/><linearGradient id="09ed4b02-23b2-4804-8042-1e389e9465e6" x1="895.83" y1="49.73" x2="894.98" y2="229.78" xlink:href="#8a13144d-bc93-4c6e-bf0e-8e6dc032840f"/><linearGradient id="b23b4751-6bda-49cf-827b-e325486d6197" x1="946.42" y1="78.06" x2="945.84" y2="199.76" xlink:href="#8a13144d-bc93-4c6e-bf0e-8e6dc032840f"/><linearGradient id="be2fbb71-a17e-4d05-96e2-2d56ae2848df" x1="892.11" y1="77.81" x2="891.53" y2="199.5" xlink:href="#8a13144d-bc93-4c6e-bf0e-8e6dc032840f"/><linearGradient id="0e2bf680-13a7-40e7-a43e-1d8651195aa6" x1="839.35" y1="153.94" x2="828.92" y2="93.25" gradientUnits="userSpaceOnUse"><stop offset="0" stop-color="#2a7a25"/><stop offset="1" stop-color="#95ea42"/></linearGradient><linearGradient id="b25c6738-bbca-410e-957d-49bd4112ede5" x1="854.8" y1="117.65" x2="842.46" y2="63.41" xlink:href="#94b8a25b-1361-4164-a319-158c2d5e9736"/><linearGradient id="b1693159-3997-4621-b9c1-31d6e616565d" x1="1042.28" y1="137.72" x2="1034.53" y2="103.65" xlink:href="#94b8a25b-1361-4164-a319-158c2d5e9736"/><linearGradient id="9c2882b4-dfdf-469f-9067-cde4607d2226" x1="1035.04" y1="280.25" x2="887.85" y2="-366.73" xlink:href="#94b8a25b-1361-4164-a319-158c2d5e9736"/><linearGradient id="b0ddcff2-f90a-4170-8531-f642af1601e7" x1="1916.95" y1="96.61" x2="1680.32" y2="385.09" gradientUnits="userSpaceOnUse"><stop offset="0" stop-color="#ee8c2d"/><stop offset="1" stop-color="#e9c650"/></linearGradient><linearGradient id="048f054b-2aab-434e-8c6f-856ea349663f" x1="1805.47" y1="232.91" x2="1655.55" y2="357.84" xlink:href="#b0ddcff2-f90a-4170-8531-f642af1601e7"/><linearGradient id="afc30187-74d4-4018-8112-4b3bc0edd988" x1="1767.56" y1="249.68" x2="1646.72" y2="299.19" xlink:href="#b0ddcff2-f90a-4170-8531-f642af1601e7"/><linearGradient id="b8341020-85b4-46a9-acbb-1886fab79ccc" x1="489.15" y1="99.16" x2="479.78" y2="110.58" xlink:href="#b0ddcff2-f90a-4170-8531-f642af1601e7"/><linearGradient id="68780af8-8425-48d3-abe2-da461f23eb07" x1="484.74" y1="104.56" x2="478.8" y2="109.5" xlink:href="#b0ddcff2-f90a-4170-8531-f642af1601e7"/><linearGradient id="4da09505-4d00-4e90-a279-33427cdff489" x1="483.23" y1="105.22" x2="478.45" y2="107.18" xlink:href="#b0ddcff2-f90a-4170-8531-f642af1601e7"/><linearGradient id="eeb792de-c229-4be5-8b3d-e96765b0df08" x1="1352.73" y1="36.66" x2="1372.03" y2="56.17" gradientUnits="userSpaceOnUse"><stop offset="0" stop-color="#ff73a7"/><stop offset="1" stop-color="#e01e2b"/></linearGradient><linearGradient id="10139dd6-1bf6-4259-af13-a0df3cb261bd" x1="1353.72" y1="37.75" x2="1370.75" y2="54.96" gradientUnits="userSpaceOnUse"><stop offset="0" stop-color="#ff73a7"/><stop offset="1" stop-color="#e01e43"/></linearGradient><linearGradient id="13da1141-be31-4475-aad1-7b9011533484" x1="1358.21" y1="54.37" x2="1367.79" y2="41.71" gradientUnits="userSpaceOnUse"><stop offset="0" stop-color="#a23157"/><stop offset="1" stop-color="#bd174d"/></linearGradient><linearGradient id="cde9f98c-a994-4884-8626-f69e65202945" x1="1364.62" y1="33.65" x2="1353.26" y2="49.03" gradientUnits="userSpaceOnUse"><stop offset="0" stop-color="#ff367e"/><stop offset="1" stop-color="#b21a59"/></linearGradient><linearGradient id="47bf2179-0c20-4cb6-ae3e-1eae4dcd3089" x1="1367.42" y1="36.1" x2="1355.94" y2="51.83" gradientUnits="userSpaceOnUse"><stop offset="0" stop-color="#dd3663"/><stop offset="1" stop-color="#b21a59"/></linearGradient><linearGradient id="6c348dbc-ae8e-4b90-a1ca-f449c75d8ccd" x1="1183.95" y1="49.58" x2="1197.21" y2="62.99" gradientUnits="userSpaceOnUse"><stop offset="0" stop-color="#f5ef64"/><stop offset="1" stop-color="#0063ed"/></linearGradient><linearGradient id="e2c4dd12-b6d2-4467-bcf9-5e25d3878c4c" x1="1183.95" y1="49.58" x2="1197.2" y2="62.99" gradientUnits="userSpaceOnUse"><stop offset="0" stop-color="#d1d94f"/><stop offset="1" stop-color="#0052bb"/></linearGradient><linearGradient id="d42c92eb-2406-43de-9662-7872c9c02caf" x1="1203.04" y1="46.11" x2="1180.42" y2="61.85" xlink:href="#e2c4dd12-b6d2-4467-bcf9-5e25d3878c4c"/><linearGradient id="f07900d3-633d-4fca-9679-4a23c5ac6ea8" x1="1190.26" y1="58.45" x2="1184.95" y2="56.63" gradientUnits="userSpaceOnUse"><stop offset="0" stop-color="#819d4b"/><stop offset="1" stop-color="#0052bb"/></linearGradient><linearGradient id="34200052-217b-403e-99c6-e1fe613a2cf2" x1="1192.01" y1="69.33" x2="1195.31" y2="53.51" gradientUnits="userSpaceOnUse"><stop offset="0" stop-color="#3f7cff"/><stop offset="1" stop-color="#003c88"/></linearGradient><linearGradient id="185ea2bb-b4bc-4ec7-a7b4-5458111295ed" x1="1186.02" y1="52.66" x2="1198.17" y2="49.52" xlink:href="#e2c4dd12-b6d2-4467-bcf9-5e25d3878c4c"/><linearGradient id="2be92231-7bcf-4f72-b9b2-a9480b75b580" x1="1182.88" y1="53.05" x2="1194.21" y2="54.88" xlink:href="#e2c4dd12-b6d2-4467-bcf9-5e25d3878c4c"/><linearGradient id="3433e9af-5385-4dc9-9856-f7e2fe743f00" x1="1180.52" y1="52.33" x2="1187.27" y2="61.42" gradientUnits="userSpaceOnUse"><stop offset="0" stop-color="#debe36"/><stop offset="1" stop-color="#0052bb"/></linearGradient><linearGradient id="3948529c-856b-4b7a-bf47-ecb87c1a706d" x1="1194.82" y1="47.42" x2="1190.44" y2="51.53" xlink:href="#e2c4dd12-b6d2-4467-bcf9-5e25d3878c4c"/><linearGradient id="1b86973c-24f0-4152-a2d6-e22a86930bda" x1="1176.22" y1="60.17" x2="1189.88" y2="60.17" xlink:href="#f07900d3-633d-4fca-9679-4a23c5ac6ea8"/><linearGradient id="172f4fe6-ad14-42c8-aea1-f1dc2bad408a" x1="1185.8" y1="61.5" x2="1190.26" y2="61.5" gradientUnits="userSpaceOnUse"><stop offset="0" stop-color="#3f6b72"/><stop offset="1" stop-color="#003c88"/></linearGradient><linearGradient id="5a68c460-c594-4856-9129-15a1017a555d" x1="1195.18" y1="57.34" x2="1195.87" y2="54.65" xlink:href="#172f4fe6-ad14-42c8-aea1-f1dc2bad408a"/><linearGradient id="1a6c5ede-7b17-45f2-bef8-8b31ced62afc" x1="1191.01" y1="47.67" x2="1187.1" y2="54.25" gradientUnits="userSpaceOnUse"><stop offset="0" stop-color="#debe36"/><stop offset="1" stop-color="#5e9177"/></linearGradient><linearGradient id="d2e1f81f-f251-4d72-9be2-183db64e92d6" x1="1185.36" y1="46.8" x2="1183.82" y2="56.57" xlink:href="#1a6c5ede-7b17-45f2-bef8-8b31ced62afc"/><linearGradient id="af3653e7-ddab-4f75-9815-73eeaac5e106" x1="1185.91" y1="48.94" x2="1190.91" y2="48.94" xlink:href="#1a6c5ede-7b17-45f2-bef8-8b31ced62afc"/></defs><title>MD2019-素材0628</title><g id="76e226ec-98d1-4513-ae3d-410ff7869926" data-name="bg"><g style="clip-path:url(#35d83df9-644d-46c5-a25a-f77be7dcca0a)"><path d="M1613.58,68.11a.75.75,0,1,0,.75-.75A.76.76,0,0,0,1613.58,68.11Z" style="fill:#fff"/><path d="M1561.37,148a.76.76,0,1,0,.75-.75A.76.76,0,0,0,1561.37,148Z" style="fill:#fff"/><path d="M1499.17,132.56a.75.75,0,0,0,1.5,0,.75.75,0,1,0-1.5,0Z" style="fill:#fff"/><path d="M1360.59,126.44a.75.75,0,1,0,.75-.76A.76.76,0,0,0,1360.59,126.44Z" style="fill:#fff"/><path d="M1706.77,59.67a1.5,1.5,0,1,0,1.5-1.5A1.5,1.5,0,0,0,1706.77,59.67Z" style="fill:#fff"/><path d="M1306.24,62a1.49,1.49,0,0,0,2.12,0,1.5,1.5,0,1,0-2.12,0Z" style="fill:#fff"/><path d="M1844.57,6.71a1.2,1.2,0,0,0,2.39,0,1.2,1.2,0,1,0-2.39,0Z" style="fill:#fff"/><path d="M1479.42,17.57a1.5,1.5,0,1,0,1.5-1.5A1.51,1.51,0,0,0,1479.42,17.57Z" style="fill:#fff"/><path d="M1468.37,73.25a1.51,1.51,0,1,0,1.51-1.51A1.51,1.51,0,0,0,1468.37,73.25Z" style="fill:#fff"/><path d="M1455,45.59a.62.62,0,0,0,.74.74.61.61,0,0,0,.49-.49.62.62,0,0,0-.74-.74A.61.61,0,0,0,1455,45.59Z" style="fill:#fff"/><path d="M1592.85,20.53a1.08,1.08,0,1,0,.85-.85A1.08,1.08,0,0,0,1592.85,20.53Z" style="fill:#fff"/><path d="M1661.34,8.6a.58.58,0,0,0,1.14.22.58.58,0,0,0-.68-.68A.59.59,0,0,0,1661.34,8.6Z" style="fill:#fff"/><path d="M1683.72,19.22a.5.5,0,0,0,.58.58.49.49,0,0,0,.38-.39.48.48,0,0,0-.57-.57A.49.49,0,0,0,1683.72,19.22Z" style="fill:#fff"/><path d="M1605.65,107.91a2.41,2.41,0,1,0,1.34,3.14A2.4,2.4,0,0,0,1605.65,107.91Z" style="fill:#fff"/><path d="M1631.63,147.84a1.51,1.51,0,1,0,1.5-1.5A1.5,1.5,0,0,0,1631.63,147.84Z" style="fill:#fff"/><path d="M1714.56,133.59a1.5,1.5,0,1,0,2.08.42A1.5,1.5,0,0,0,1714.56,133.59Z" style="fill:#fff"/><path d="M1717,92a.75.75,0,1,0,1,.21A.74.74,0,0,0,1717,92Z" style="fill:#fff"/><path d="M1759.71,105.74a1.5,1.5,0,1,0,2.08.42A1.5,1.5,0,0,0,1759.71,105.74Z" style="fill:#fff"/><path d="M1794.86,13.23a.75.75,0,1,0-.38,1A.75.75,0,0,0,1794.86,13.23Z" style="fill:#fff"/><path d="M1762.09,35.85a1.51,1.51,0,1,0-1.46,1.55A1.5,1.5,0,0,0,1762.09,35.85Z" style="fill:#fff"/><path d="M1412.44,137.1a1.51,1.51,0,1,0,1.5-1.5A1.51,1.51,0,0,0,1412.44,137.1Z" style="fill:#fff"/><path d="M1301.05,123a.75.75,0,1,0,.9.57A.75.75,0,0,0,1301.05,123Z" style="fill:#fff"/><path d="M1885,5.29a.51.51,0,1,0,.22,1,.52.52,0,0,0,.39-.62A.51.51,0,0,0,1885,5.29Z" style="fill:#fff"/><path d="M1898.59,3.45a.52.52,0,0,0-.39.62.52.52,0,1,0,1-.23A.52.52,0,0,0,1898.59,3.45Z" style="fill:#fff"/><path d="M1877.51,15.31a.51.51,0,0,0-.39.61.52.52,0,0,0,.62.39.51.51,0,0,0-.23-1Z" style="fill:#fff"/><path d="M1904.22,36.92a.76.76,0,1,0-.31,1A.76.76,0,0,0,1904.22,36.92Z" style="fill:#fff"/><path d="M1874.72,62.41a.75.75,0,0,0-1.32.72.74.74,0,0,0,1,.3A.75.75,0,0,0,1874.72,62.41Z" style="fill:#fff"/><path d="M1854.72,43.17a.75.75,0,1,0-.3,1A.75.75,0,0,0,1854.72,43.17Z" style="fill:#fff"/><path d="M1906.25,114.79a2.5,2.5,0,0,0-4.79-1.43h0A2.5,2.5,0,0,0,1906.25,114.79Z" style="fill:#fff"/><path d="M1427,22.39a.64.64,0,0,0-.25.89.66.66,0,0,0,.89.26.67.67,0,0,0,.26-.9A.66.66,0,0,0,1427,22.39Z" style="fill:#fff"/><path d="M415,148.33a.69.69,0,1,1-.69-.69A.69.69,0,0,1,415,148.33Z" style="fill:#fff"/><path d="M367.16,142.5a1.39,1.39,0,1,1-1.39-1.38A1.39,1.39,0,0,1,367.16,142.5Z" style="fill:#fff"/><path d="M171.85,56.81a1.39,1.39,0,1,1-1.39-1.39A1.38,1.38,0,0,1,171.85,56.81Z" style="fill:#fff"/><path d="M105.18,32.52a.7.7,0,1,1-.69-.7A.69.69,0,0,1,105.18,32.52Z" style="fill:#fff"/><path d="M106.21,89.4a.69.69,0,1,1-.69-.69A.69.69,0,0,1,106.21,89.4Z" style="fill:#fff"/><path d="M249.73,8.61a.69.69,0,1,1-.69-.69A.69.69,0,0,1,249.73,8.61Z" style="fill:#fff"/><path d="M186.41,18.18a.7.7,0,1,1-.7-.69A.69.69,0,0,1,186.41,18.18Z" style="fill:#fff"/><path d="M162.91,27a.69.69,0,1,1-.69-.69A.69.69,0,0,1,162.91,27Z" style="fill:#fff"/><path d="M367.24,102a.7.7,0,1,1-.7-.69A.7.7,0,0,1,367.24,102Z" style="fill:#fff"/><path d="M50.94,40.31a1.39,1.39,0,1,1-1.38-1.38A1.38,1.38,0,0,1,50.94,40.31Z" style="fill:#fff"/><path d="M292.3,41.06a1.39,1.39,0,1,1-1.39-1.39A1.38,1.38,0,0,1,292.3,41.06Z" style="fill:#fff"/><path d="M339.87,21.6a1.1,1.1,0,1,1-1.1-1.1A1.1,1.1,0,0,1,339.87,21.6Z" style="fill:#fff"/><path d="M68.15,15.37a1.1,1.1,0,1,1-1.1-1.1A1.1,1.1,0,0,1,68.15,15.37Z" style="fill:#fff"/><path d="M271.89,57.8a1.39,1.39,0,1,1-1.38-1.39A1.38,1.38,0,0,1,271.89,57.8Z" style="fill:#fff"/><path d="M267.49,122.72a1.39,1.39,0,1,1-1.39-1.39A1.38,1.38,0,0,1,267.49,122.72Z" style="fill:#fff"/><path d="M307.71,80.75a2.23,2.23,0,1,1-2.23-2.22A2.22,2.22,0,0,1,307.71,80.75Z" style="fill:#fff"/><path d="M51.81,85.24a1.39,1.39,0,1,1-1.39-1.39A1.38,1.38,0,0,1,51.81,85.24Z" style="fill:#fff"/><path d="M175.06,138.53a1.39,1.39,0,1,1-1.39-1.38A1.39,1.39,0,0,1,175.06,138.53Z" style="fill:#fff"/><path d="M319.4,111.89A1.39,1.39,0,1,1,318,110.5,1.38,1.38,0,0,1,319.4,111.89Z" style="fill:#fff"/><path d="M511.14,62.53a.7.7,0,1,1-.7-.7A.7.7,0,0,1,511.14,62.53Z" style="fill:#fff"/><path d="M467.39,52.27A1.39,1.39,0,1,1,466,50.89,1.39,1.39,0,0,1,467.39,52.27Z" style="fill:#fff"/><path d="M444.73,94.41a.69.69,0,1,1-.69-.69A.69.69,0,0,1,444.73,94.41Z" style="fill:#fff"/><path d="M470.59,25.39a.69.69,0,1,1-.69-.69A.69.69,0,0,1,470.59,25.39Z" style="fill:#fff"/><path d="M422.76,35.24a1.39,1.39,0,1,1-1.39-1.39A1.38,1.38,0,0,1,422.76,35.24Z" style="fill:#fff"/><path d="M1077.32,116.52C1036.85,93.22,987.83,79.57,935,79.57c-78,0-147.62,29.68-193.73,76.29l-5,5.58A201,201,0,0,0,702,200.08l-.79.88,0,.27c-16.73,25.35-26.11,53.73-26.11,83.7,0,107.31,120.11,194.3,268.28,194.3s268.28-87,268.28-194.3C1211.72,212.93,1157.65,150.09,1077.32,116.52Z" style="fill:url(#8c7363dc-a31c-4300-80ae-89f949aa5ec8)"/><path d="M1077.32,147.34C1036.85,124,987.83,110.39,935,110.39c-78,0-147.62,29.68-193.73,76.29l-5,5.58A201,201,0,0,0,702,230.9l-.79.88,0,.27c-16.73,25.35-26.11,53.73-26.11,83.7,0,107.31,120.11,194.3,268.28,194.3s268.28-87,268.28-194.3C1211.72,243.75,1157.65,180.91,1077.32,147.34Z" style="fill:url(#a1c61da0-be96-4307-a495-a4407a5f4dbd)"/><polygon points="803.8 114.74 788.8 89 784.51 93.26 786.88 85.7 772.59 61.16 773.81 67.76 775.72 69.58 774.03 69.09 780.46 103.48 790.9 108.44 781.36 108.36 783.92 122.12 803.8 114.74" style="fill:#009734"/><polygon points="1096.09 122.23 1106.52 94.32 1100.49 93.7 1107.85 90.75 1117.79 64.14 1113.46 69.27 1113.25 71.9 1112.57 70.28 1090.02 97.03 1092.79 108.26 1086.81 100.83 1077.78 111.52 1096.09 122.23" style="fill:#009734"/><polygon points="840.49 97.44 826.34 69.84 821.64 74.03 824.53 66.3 811.05 39.99 811.96 46.92 813.83 48.92 812.1 48.31 816.85 84.43 827.43 90.17 817.52 89.55 819.4 104 840.49 97.44" style="fill:#11d14c"/><polygon points="794.02 118.25 769.91 89.38 765.47 95.6 766.83 85.68 743.85 58.16 746.77 66.12 749.52 67.98 747.32 67.72 762.58 109.17 776.64 113.14 764.74 115.06 770.83 131.65 794.02 118.25" style="fill:#11d14c"/><polygon points="1083.13 117.37 1090.82 80.55 1083.19 80.93 1091.81 75.84 1099.15 40.74 1094.72 47.97 1094.96 51.28 1093.8 49.4 1070.75 87.08 1076.35 100.57 1067.47 92.42 1058.24 107.49 1083.13 117.37" style="fill:#11d14c"/><polygon points="1162.44 162.95 1177.48 141.78 1171.19 139.4 1179.93 138.32 1198.21 112.59 1192.09 116.86 1191.12 119.63 1190.84 117.69 1158.98 139.98 1158.76 152.83 1154.46 143.14 1141.71 152.04 1160.54 166.75 1162.44 162.95" style="fill:#11d14c"/><path d="M993.39,110.1l51-9.63s-3.8-7.37-6.63-10.07-37.12-10.93-63.82-13.67c-36-3.71-70.58-5.62-77.55-2.94-5.7,2.2-10.11,6.55-14.74,10.53,8,1.15,15.64,2,23.63,3.13-.8,9-4.3,26.61-4.3,26.61l29.29-7.13,53.83,16.27Z" style="fill:#fff"/><path d="M815.5,335.9c-9.16-41-12.39-94.91-12.11-124a421.79,421.79,0,0,1,3.06-49l2-16.22,22.56,5,24.51-3.54,10.91-9.67-14.35-23.91,5.2-24.77-6.81-5.08L782.78,118.6S731.69,149.25,719.91,163c-6.4,7.44-11.78,18-15.35,26.11a204.4,204.4,0,0,0-15.88,23.05l-.75,1v.29c-16,27.61-25,58.53-25,91.17,0,99.13,82.77,182.33,194.51,205.32l.13,0,6.09,1.32-2.08-6.92C853.6,476.59,823.42,371.42,815.5,335.9Z" style="fill:url(#94b8a25b-1361-4164-a319-158c2d5e9736)"/><path d="M1177.3,189.18c-5.89-8.68-13.93-19.88-20.24-26.2-10.07-10.09-39-28.16-39-28.16l-47.55-29.42-16-.58-25.88,19.81,14.56,10.56L1011.63,147l-44.82-3.59-9.38,5.89,39,51.92,7,7.95,60.45,102.88,27.9,78.33,3.66,35.56s7.11,23.09,13,43.05c6.11-.81,11.42-.88,17.09-1.32,56.85-38.76,93.28-97.53,93.28-163.16C1218.8,262,1203.55,222.36,1177.3,189.18Z" style="fill:url(#7294cd15-bb21-41d5-a3ee-0b214656b4d9)"/><path d="M875.09,116.17a15.48,15.48,0,0,1-7.64,1.64c-4.53-.22-8.47-2.79-8.42-7.69a14.45,14.45,0,0,1,3.38-8.65,32.37,32.37,0,0,1,7.06-6.24c5.11-3.55,11.33-6.65,17.35-5.07A8,8,0,0,1,890,91.73c2.49,2.13,2.74,6.06,1.41,9C888.64,107,881.14,113.25,875.09,116.17Z" style="opacity:0.67;fill:url(#8a13144d-bc93-4c6e-bf0e-8e6dc032840f)"/><path d="M896.33,118.3a6.13,6.13,0,0,0,1.16-1.72,7.65,7.65,0,0,0,.77-4.57,4.63,4.63,0,0,0-7.61-3,8,8,0,0,0-2.77,4.33,6.36,6.36,0,0,0-.24,2.45c.35,2.59,3.27,4.34,5.85,3.91A5.1,5.1,0,0,0,896.33,118.3Z" style="opacity:0.67;fill:url(#54c7b39c-a01e-4a28-a1a4-61f71e3caaab)"/><path d="M998.44,133.47c2.8,1.86,6.56,1.74,9.68.48s5.73-3.51,8.21-5.77c2.27-2.06,4.54-4.24,5.87-7s1.56-6.25-.21-8.75a8.52,8.52,0,0,0-7-3.24,19.19,19.19,0,0,0-7.68,1.93c-4.52,2-9,4.74-11.29,9.09S994.33,130.74,998.44,133.47Z" style="opacity:0.67;fill:url(#59bccf3b-0d50-4b8f-bd96-901f4acd9ac0)"/><path d="M1029.87,132.86a4,4,0,0,0-2.75-2.34c-1.86-.48-3.68,1-4.93,2.31-2.4,2.46-3.1,5.95,1.36,6a7.25,7.25,0,0,0,5.82-2.84A3.23,3.23,0,0,0,1029.87,132.86Z" style="opacity:0.67;fill:url(#1dd21361-aac1-4736-939a-b25a29c511a9)"/><path d="M927.14,157.34a17.38,17.38,0,0,1-5.48,5.61s-8.1,4.76-14,6.78-15.42,6.61-31,6.06S861.6,163,861.6,163a20.1,20.1,0,0,1,10.63-16.67c8.19-4.19,18.14-2.18,27.09-4.28a35.61,35.61,0,0,0,7.09-2.52,36.12,36.12,0,0,1,5.9-2.55,13.58,13.58,0,0,1,14.23,5.18A14.32,14.32,0,0,1,927.14,157.34Z" style="opacity:0.67;fill:url(#09ed4b02-23b2-4804-8042-1e389e9465e6)"/><path d="M943.07,115.69c-5.35-2-12.45-4.17-16.56,1.08-2.6,3.32-.33,7.81,1.3,11.13,2.24,4.55,5.5,8.51,8.76,12.37a24.61,24.61,0,0,0,6.3,5.88c5.71,3.24,9.5-.76,14-3.89,2.24-1.54,4.25-3.42,6.45-5a8.36,8.36,0,0,0,3.56-4.62c.6-2.43-.92-3.59-2.75-5.1a67.51,67.51,0,0,0-19.54-11.24Z" style="opacity:0.67;fill:url(#b23b4751-6bda-49cf-827b-e325486d6197)"/><path d="M905.37,134.74c3.47-2.31,6.76-7.89,1.69-10.71a6.72,6.72,0,0,0-4.2-.55c-2.64.37-5.14,1.55-7.8,1.62-3.09.09-6-1.31-9-2-8.28-2-10.72,4.91-11.83,11.76a5.7,5.7,0,0,0,.23,3.68c.77,1.38,2.5,1.85,4.06,2.1A38.39,38.39,0,0,0,905.37,134.74Z" style="opacity:0.67;fill:url(#be2fbb71-a17e-4d05-96e2-2d56ae2848df)"/><polygon points="900.96 114.06 905.26 87.45 909.67 97.87 930.73 94.9 980.09 105.98 984.08 123.2 930.25 106.93 900.96 114.06" style="fill:#e5e5e5"/><polygon points="980.09 105.98 993.54 94.9 993.39 110.1 984.08 123.2 980.09 105.98" style="fill:#d8d8d8"/><polygon points="993.54 94.9 1039.85 92.94 1044.37 100.47 993.39 110.1 993.54 94.9" style="fill:#e5e5e5"/><polygon points="808.42 146.73 808.42 137.55 830.98 143.49 852.33 138.82 861.53 130.38 866.4 138.5 855.49 148.17 830.98 151.71 808.42 146.73" style="fill:url(#0e2bf680-13a7-40e7-a43e-1d8651195aa6)"/><polygon points="850.44 84.74 844.31 110.15 852.05 114.59 857.25 89.82 850.44 84.74" style="fill:url(#b25c6738-bbca-410e-957d-49bd4112ede5)"/><polygon points="1043.2 135.19 1050.95 128.94 1038.13 117.37 1028.64 124.63 1043.2 135.19" style="fill:url(#b1693159-3997-4621-b9c1-31d6e616565d)"/><path d="M966.81,143.43l-9.38,5.89s79.06,109.93,99.15,158.6C1073.82,349.7,1108.43,469,1108.43,469l17.09-1.32s-22.63-82.21-58.06-166.27C1040.83,238.26,966.81,143.43,966.81,143.43Z" style="fill:url(#9c2882b4-dfdf-469f-9067-cde4607d2226)"/><path d="M828.64,100.9a122.71,122.71,0,0,0-28.2,13.73,27.52,27.52,0,0,0-6.67,5.61c-2.93,3.69-3.34,9.2,2.45,8.85a68.39,68.39,0,0,0,34.63-12c3-2.08,6-4.61,7-8.09s-.56-8-4.12-8.8A10,10,0,0,0,828.64,100.9Z" style="fill:#c4ff66;opacity:0.2"/><path d="M842.58,127.16c1.35-2,2.08-4.68.77-6.66-3.18-4.77-11.12-.46-12.36,3.88a4.52,4.52,0,0,0,.52,3.91c1,1.35,2.87,1.73,4.56,1.82a7.94,7.94,0,0,0,3.81-.5A6.91,6.91,0,0,0,842.58,127.16Z" style="fill:#c4ff66;opacity:0.2"/><path d="M819.4,132.8c5.24,1.19,8.73-6.32,3.09-6.62a4.7,4.7,0,0,0-3.29,1.7,5.39,5.39,0,0,0-1.44,2.07,2.18,2.18,0,0,0,.51,2.34A2.65,2.65,0,0,0,819.4,132.8Z" style="fill:#c4ff66;opacity:0.2"/><path d="M1086.37,139.26c2.84-.13,5.32-.82,6.84-2.38,9.2-9.52-26.54-34.28-33.71-19.67a8.76,8.76,0,0,0-.66,4.78c.65,5.87,5,10.88,10.26,13.55C1072.54,137.28,1080.29,139.55,1086.37,139.26Z" style="fill:#c4ff66;opacity:0.2"/><path d="M1128.4,179.7c3.81-.18,7.13-1.11,9.16-3.21,12.32-12.79-35.54-46.07-45.15-26.43a11.76,11.76,0,0,0-.87,6.43c.86,7.88,6.68,14.62,13.73,18.2C1109.89,177,1120.26,180.08,1128.4,179.7Z" style="fill:#c4ff66;opacity:0.2"/><path d="M1059.1,145.89a4.92,4.92,0,0,0,1.45-1.15c1.55-1.77,1.93-4.69.38-6.45a5.2,5.2,0,0,0-3-1.58c-1.83-.35-4,.15-5,1.73a4.6,4.6,0,0,0-.58,2.6,5.8,5.8,0,0,0,2.09,4.29A4.45,4.45,0,0,0,1059.1,145.89Z" style="fill:#c4ff66;opacity:0.2"/><path d="M1958.68,233.7v.73a144,144,0,0,1-2.76,28.13c-.08.58-.22,1.16-.37,1.81-.72,3.93-1.67,7.85-2.76,11.7-1,3.57-2.18,7.13-3.49,10.62a150.4,150.4,0,0,1-13.59,27.91.58.58,0,0,0-.15.29c-2.39,3.85-4.94,7.63-7.7,11.27h-.15a153.26,153.26,0,0,1-44.19,39.76,149.4,149.4,0,0,1-38.3,16.42,136.57,136.57,0,0,1-16.43,3.49,148.11,148.11,0,0,1-24.21,2h-1.45a152.27,152.27,0,0,1-67.89-16.5,154.27,154.27,0,0,1-58.59-51.75,8,8,0,0,1-.58-.94,148.84,148.84,0,0,1-19.48-42.09,15.24,15.24,0,0,1-.51-1.53,155.19,155.19,0,0,1-4.57-23.55,142.7,142.7,0,0,1-1-17.73,133.3,133.3,0,0,1,1-17.08A153.2,153.2,0,0,1,1710.16,112a144.29,144.29,0,0,1,17.08-11.63c2.26-1.24,4.58-2.54,6.91-3.71.51-.22.95-.51,1.45-.72A145.06,145.06,0,0,1,1753.92,88a154.17,154.17,0,0,1,33.51-7.49,146.76,146.76,0,0,1,17.15-1,152.5,152.5,0,0,1,74,19,133.28,133.28,0,0,1,16.35,10.4,148.13,148.13,0,0,1,35.84,36.41c2.32,3.2,4.5,6.62,6.61,10.11a152.63,152.63,0,0,1,21.3,78.21Z" style="fill:url(#b0ddcff2-f90a-4170-8531-f642af1601e7)"/><path d="M1949.3,286.69a150.4,150.4,0,0,1-13.59,27.91.58.58,0,0,0-.15.29c-2.39,3.85-4.94,7.63-7.7,11.27h-.15a153.26,153.26,0,0,1-44.19,39.76,149.4,149.4,0,0,1-38.3,16.42,136.57,136.57,0,0,1-16.43,3.49,148.11,148.11,0,0,1-24.21,2h-1.45a152.27,152.27,0,0,1-67.89-16.5,154.27,154.27,0,0,1-58.59-51.75,8,8,0,0,1-.58-.94,148.84,148.84,0,0,1-19.48-42.09,15.24,15.24,0,0,1-.51-1.53,155.19,155.19,0,0,1-4.57-23.55,142.7,142.7,0,0,1-1-17.73,133.3,133.3,0,0,1,1-17.08A153.2,153.2,0,0,1,1710.16,112a144.29,144.29,0,0,1,17.08-11.63c2.26-1.24,4.58-2.54,6.91-3.71.51-.22.95-.51,1.45-.72a170.35,170.35,0,0,0-8,23.47c-5.16,20.57-6.47,44.78,4.8,67,6.83,13.52,14,25,22.67,34.6a105.49,105.49,0,0,0,32,24.78c22.17,11.56,51.75,18.25,93.83,21.88a160.55,160.55,0,0,1,35.18,6.76C1925.68,277.38,1939.93,282.11,1949.3,286.69Z" style="opacity:0.85;fill:url(#048f054b-2aab-434e-8c6f-856ea349663f)"/><path d="M1828.79,385.83a148.11,148.11,0,0,1-24.21,2h-1.45a152.27,152.27,0,0,1-67.89-16.5,154.27,154.27,0,0,1-58.59-51.75,8,8,0,0,1-.58-.94,148.84,148.84,0,0,1-19.48-42.09,15.24,15.24,0,0,1-.51-1.53,155.19,155.19,0,0,1-4.57-23.55,142.7,142.7,0,0,1-1-17.73,133.3,133.3,0,0,1,1-17.08A153.2,153.2,0,0,1,1710.16,112c-12.06,22-26.89,58.51-23.91,100.6,4.87,68.69,40,78.43,92.6,110.55C1807.35,340.55,1821.66,366.06,1828.79,385.83Z" style="opacity:0.85;fill:url(#afc30187-74d4-4018-8112-4b3bc0edd988)"/><path d="M490.81,104.59v0a6.73,6.73,0,0,1-.11,1.11s0,0,0,.07a4,4,0,0,1-.11.47,3.45,3.45,0,0,1-.14.42,6.55,6.55,0,0,1-.53,1.1h0a5.09,5.09,0,0,1-.31.45h0a6,6,0,0,1-1.75,1.57,5.54,5.54,0,0,1-1.52.65,4.69,4.69,0,0,1-.65.14,6,6,0,0,1-1,.08h-.06A6.1,6.1,0,0,1,482,110a6.36,6.36,0,0,1-2.32-2.05.05.05,0,0,0,0,0,6.16,6.16,0,0,1-.33-.55,6.06,6.06,0,0,1-.44-1.12s0,0,0-.06a7,7,0,0,1-.18-.93,5.48,5.48,0,0,1,0-.7,5.07,5.07,0,0,1,0-.68,6,6,0,0,1,.81-2.44A6.18,6.18,0,0,1,481,99.76a5.4,5.4,0,0,1,.68-.46l.27-.14.06,0a4.6,4.6,0,0,1,.72-.31,6,6,0,0,1,1.33-.3,5.07,5.07,0,0,1,.68,0,6,6,0,0,1,2.93.75,4.82,4.82,0,0,1,.65.42,5.89,5.89,0,0,1,1.42,1.44c.09.13.18.26.26.4a5.66,5.66,0,0,1,.44.89A6.24,6.24,0,0,1,490.81,104.59Z" style="fill:url(#b8341020-85b4-46a9-acbb-1886fab79ccc)"/><path d="M490.43,106.69a6.55,6.55,0,0,1-.53,1.1h0a5.09,5.09,0,0,1-.31.45h0a6,6,0,0,1-1.75,1.57,5.54,5.54,0,0,1-1.52.65,4.69,4.69,0,0,1-.65.14,6,6,0,0,1-1,.08h-.06A6.1,6.1,0,0,1,482,110a6.36,6.36,0,0,1-2.32-2.05.05.05,0,0,0,0,0,6.16,6.16,0,0,1-.33-.55,6.06,6.06,0,0,1-.44-1.12s0,0,0-.06a7,7,0,0,1-.18-.93,5.48,5.48,0,0,1,0-.7,5.07,5.07,0,0,1,0-.68,6,6,0,0,1,.81-2.44A6.18,6.18,0,0,1,481,99.76a5.4,5.4,0,0,1,.68-.46l.27-.14.06,0a6.3,6.3,0,0,0-.32.93,3.83,3.83,0,0,0,.19,2.65,6.14,6.14,0,0,0,.9,1.37,4.15,4.15,0,0,0,1.27,1,10,10,0,0,0,3.71.87,5.9,5.9,0,0,1,1.4.27A9.45,9.45,0,0,1,490.43,106.69Z" style="opacity:0.85;fill:url(#68780af8-8425-48d3-abe2-da461f23eb07)"/><path d="M485.66,110.61a6,6,0,0,1-1,.08h-.06A6.1,6.1,0,0,1,482,110a6.36,6.36,0,0,1-2.32-2.05.05.05,0,0,0,0,0,6.16,6.16,0,0,1-.33-.55,6.06,6.06,0,0,1-.44-1.12s0,0,0-.06a7,7,0,0,1-.18-.93,5.48,5.48,0,0,1,0-.7,5.07,5.07,0,0,1,0-.68,6,6,0,0,1,.81-2.44A6.18,6.18,0,0,1,481,99.76a7.45,7.45,0,0,0-.95,4c.2,2.72,1.59,3.11,3.67,4.38A4.74,4.74,0,0,1,485.66,110.61Z" style="opacity:0.85;fill:url(#4da09505-4d00-4e90-a279-33427cdff489)"/><path d="M-.14,55.71s208.81-9.59,422.34,6.9,311.2,100.77,708.08,52.81c414.48-50.08,367.38-93.63,789.72-91.8V167.19H-.14Z" style="fill:#dcdcdc"/><path d="M-.14,79.9S208.67,57.3,422.2,73.8s311.2,100.76,708.08,52.81C1544.76,76.53,1497.66,39.9,1920,41.74V178.37H-.14Z" style="fill:#fff"/><path d="M1371.24,46.11a9.16,9.16,0,0,1-16,6.08,7.9,7.9,0,0,1-.63-.8c-.12-.17-.23-.33-.34-.51a9.73,9.73,0,0,1-.87-1.88,9.42,9.42,0,0,1-.44-2.21c0-.22,0-.45,0-.68a9.16,9.16,0,0,1,9.16-9.16h.26a8.75,8.75,0,0,1,2.86.54A9.15,9.15,0,0,1,1371.24,46.11Z" style="opacity:0.2;fill:url(#eeb792de-c229-4be5-8b3d-e96765b0df08)"/><path d="M1370.05,46.08a8.09,8.09,0,0,1-8.08,8.09,7.75,7.75,0,0,1-1.94-.24,8.07,8.07,0,0,1-4.12-2.48,7.48,7.48,0,0,1-.55-.71,2.75,2.75,0,0,1-.19-.28l-.11-.16c-.06-.11-.13-.22-.19-.34a7.54,7.54,0,0,1-.58-1.33,8.33,8.33,0,0,1-.39-2c0-.19,0-.4,0-.6a8.08,8.08,0,0,1,7.93-8.07h.38a7.94,7.94,0,0,1,2.09.33l.44.14A8.09,8.09,0,0,1,1370.05,46.08Z" style="fill:url(#10139dd6-1bf6-4259-af13-a0df3cb261bd)"/><path d="M1360,53.93a8.07,8.07,0,0,1-4.12-2.48,8.14,8.14,0,0,0,10.89-8.08c0-.23,0-.45-.07-.68a8.2,8.2,0,0,1,.49,2.43A8.45,8.45,0,0,1,1360,53.93Z" style="opacity:0.68;fill:url(#13da1141-be31-4475-aad1-7b9011533484)"/><path d="M1358.63,45.52a9.29,9.29,0,0,1-3.55,2.9,2.44,2.44,0,0,1-.79.21,8.33,8.33,0,0,1-.39-2l.11,0c1.41.2,4.46-2.28,5.23-5.1a1.14,1.14,0,0,0-.23-1.16,1,1,0,0,0-.65-.25c-1.21,0-2,1.42-2.34,2.41a1.76,1.76,0,0,0-.1.79.77.77,0,0,0,.46.61.51.51,0,0,0,.49-.11,1,1,0,0,1-1.1.36.69.69,0,0,1-.27-.17.9.9,0,0,1-.19-.53,3.78,3.78,0,0,1,1-2.42,4.26,4.26,0,0,1,2-1.47,1.59,1.59,0,0,1,1.3,0,1.35,1.35,0,0,1,.59.89C1360.31,41,1360.43,42.87,1358.63,45.52Z" style="opacity:0.68;fill:url(#cde9f98c-a994-4884-8626-f69e65202945)"/><path d="M1365.18,41.36a9.39,9.39,0,0,1-9.39,9.39h-.43a4.27,4.27,0,0,1-.3-.44,9,9,0,0,0,7.78-8.94,8.73,8.73,0,0,0-.65-3.35,8.11,8.11,0,0,1,2.53.47A9.19,9.19,0,0,1,1365.18,41.36Z" style="opacity:0.68;fill:url(#47bf2179-0c20-4cb6-ae3e-1eae4dcd3089)"/><path d="M1356.27,44.68c-2-.35-1.54,2.56-1.26,3.64a6,6,0,0,0,1.78,2.94,3,3,0,0,0,1.08.65,1.45,1.45,0,0,0,1.22-.17,2,2,0,0,0,.56-1.87,7.38,7.38,0,0,0-2-4.35A2.55,2.55,0,0,0,1356.27,44.68Z" style="fill:#fff;opacity:0.15"/><path d="M1358.49,45.44a1.28,1.28,0,0,0,1,.77,1,1,0,0,0,.83-.49,2.35,2.35,0,0,0,.33-.94,4.39,4.39,0,0,0-.32-2.77c-.25-.47-.77-1.07-1.36-.84a1.7,1.7,0,0,0-.89,1.29A5,5,0,0,0,1358.49,45.44Z" style="fill:#fff;opacity:0.18"/><path d="M1365.1,39.33a8.8,8.8,0,0,1,3.47,3.1,7.18,7.18,0,0,1,.65,6.16,7.64,7.64,0,0,1-6.88,5.15,8.83,8.83,0,0,1-2.12-.12,3.89,3.89,0,0,1-2-.71,5,5,0,0,0,3.71-.67,1.84,1.84,0,0,0,.71-.7,1.67,1.67,0,0,0-.14-1.53,10.79,10.79,0,0,0-1-1.25,2.43,2.43,0,0,1-.62-1.44A1,1,0,0,1,1361,47a.87.87,0,0,1,.28-.35,1.73,1.73,0,0,1,1.17-.31,4.12,4.12,0,0,1,1.17.34c.91.4,1.75.93,2.68,1.29a1.45,1.45,0,0,0,1.25,0,1.13,1.13,0,0,0,.43-1,4.46,4.46,0,0,0-2.26-3.34c-.68-.43-1.41-.77-2.06-1.23-.38-.26-1.74-1.21-1.3-1.8a.6.6,0,0,1,.37-.19,4.62,4.62,0,0,1,2.33.5c.22.08.52.12.63-.09a.4.4,0,0,0,0-.22A2.58,2.58,0,0,0,1365.1,39.33Z" style="fill:#7f134d;opacity:0.37"/><path d="M1366.39,46.05c.14-.4-.38-1.14-.73-1.46s-1.23-1-1.73-.8c-.82.28-.26,1.24.14,1.61a3.16,3.16,0,0,0,1.74.93C1366.16,46.33,1366.33,46.22,1366.39,46.05Z" style="fill:#7f134d;opacity:0.37"/><path d="M1197.63,55.14a8.19,8.19,0,1,1-1.11-4.11A8.08,8.08,0,0,1,1197.63,55.14Z" style="fill:url(#6c348dbc-ae8e-4b90-a1ca-f449c75d8ccd)"/><path d="M1194,52.9c-.3,1.85-.39,3.82-1.56,5.37a4.44,4.44,0,0,1-4.73,1.38,13.28,13.28,0,0,1-2.89-1.33c-.18-.1-2.43-1.21-3.26-1.09a8.18,8.18,0,1,0,14-7.59A5.21,5.21,0,0,0,1194,52.9Z" style="fill:url(#e2c4dd12-b6d2-4467-bcf9-5e25d3878c4c)"/><path d="M1186.94,58.4a7.07,7.07,0,0,0,2.34,0,4.11,4.11,0,0,0,2.89-2.32c.95-1.92.12-4.46,1.85-6a3.51,3.51,0,0,0-1.37,2,7.18,7.18,0,0,1-1,2.6,3.38,3.38,0,0,1-2.24,1.52,8.16,8.16,0,0,1-2.92-.5c-.73-.16-2.08-.31-2.28.72a1.15,1.15,0,0,0,.49,1A4.53,4.53,0,0,0,1186.94,58.4Z" style="opacity:0.62;fill:url(#d42c92eb-2406-43de-9662-7872c9c02caf)"/><path d="M1186.47,56.33a2.2,2.2,0,0,0-.87-.19,1.26,1.26,0,0,0-.54.09c-.52.27-.13,1,.21,1.24a2.32,2.32,0,0,0,1.15.42c.35,0,.93,0,1-.39a.93.93,0,0,0-.49-.93A3.71,3.71,0,0,0,1186.47,56.33Z" style="opacity:0.48;fill:url(#f07900d3-633d-4fca-9679-4a23c5ac6ea8)"/><path d="M1195.79,53.81a1.53,1.53,0,0,0-1.31,1.19c-.24.68-.42,1.39-.67,2.07a4.43,4.43,0,0,1-2.28,2.61c.23-.11.54-.11.79-.21a3.9,3.9,0,0,0,.71-.42,5.41,5.41,0,0,0,1.1-1.19,1.57,1.57,0,0,1,.71-.57.65.65,0,0,1,.79.3.71.71,0,0,1,0,.29,2.92,2.92,0,0,1-1,2.08,8.9,8.9,0,0,1-2.24,1.43,8.39,8.39,0,0,0,2.43-1.12,5,5,0,0,0,2-5.63A1.29,1.29,0,0,0,1195.79,53.81Z" style="opacity:0.48;fill:url(#34200052-217b-403e-99c6-e1fe613a2cf2)"/><path d="M1194.53,48.72a2.65,2.65,0,0,0-.26.21,6.88,6.88,0,0,0-.54.51,4.59,4.59,0,0,0-1,1.77c-.33,1.08-.62,2.69-2,2.91-.87.14-1.9-.44-1.77-1.42a2.37,2.37,0,0,1,.52-1.08c.25-.32.54-.62.76-1s.4-.83.67-1.2a3.27,3.27,0,0,1,1.5-1.09l.46-.16c.22-.06.43-.12.65-.16l.12.06-.52.2a5.86,5.86,0,0,0-1.13.61.66.66,0,0,0-.17.12,3.22,3.22,0,0,0-1.36,2.22,1.27,1.27,0,0,0,.12.72.67.67,0,0,0,.61.35c.51-.06.73-.68.92-1.07a10,10,0,0,1,.8-1.48,3.43,3.43,0,0,1,1.11-1l.35-.17Z" style="fill:url(#185ea2bb-b4bc-4ec7-a7b4-5458111295ed)"/><path d="M1186.52,54.17a.26.26,0,0,1-.2.1,2.69,2.69,0,0,0-.4,0,.48.48,0,0,0-.17.7,1.15,1.15,0,0,0,.7.42,9,9,0,0,0,1.17.23,4.8,4.8,0,0,0,1.51.08,4.11,4.11,0,0,0,1.94-1,7.24,7.24,0,0,1-1.85.69,2.32,2.32,0,0,1-1.43-.05,1,1,0,0,1-.58-1.19.61.61,0,0,1,.18-.24.7.7,0,0,1,.77.12c.22.16.4.37.63.53a1.79,1.79,0,0,0,2.14-.13c-.18.16-.92.06-1.14,0a2.5,2.5,0,0,1-.94-.59A11.44,11.44,0,0,0,1186.9,52a1.84,1.84,0,0,0-1.16-.28.6.6,0,0,0-.45.81,1.83,1.83,0,0,0,.55.69l.43.4C1186.41,53.76,1186.62,54,1186.52,54.17Z" style="fill:url(#2be92231-7bcf-4f72-b9b2-a9480b75b580)"/><path d="M1184.37,57.81a3.6,3.6,0,0,0-1.45-.58l-.93-.36h0l-.58-.22a8.51,8.51,0,0,1-.14-1.52,8.26,8.26,0,0,1,.69-3.3.65.65,0,0,1,.19,0,.65.65,0,0,1,.55.37.87.87,0,0,1,.08.26,2.89,2.89,0,0,1-.07,1,1.24,1.24,0,0,0,.17.93,2.14,2.14,0,0,1,.28.32.93.93,0,0,1,0,.24c0,.35,0,.71.11,1a1.19,1.19,0,0,0,.57.86,1.35,1.35,0,0,1-.8-.65,6.29,6.29,0,0,0-.41-.64c-.19-.26-.37-.19-.4.15a.37.37,0,0,0,0,.11,1.38,1.38,0,0,0,.67,1.19c.17.09.36.15.55.23A2.5,2.5,0,0,1,1184.37,57.81Z" style="opacity:0.62;fill:url(#3433e9af-5385-4dc9-9856-f7e2fe743f00)"/><path d="M1194,48.31a1.67,1.67,0,0,0-.51.16,3.5,3.5,0,0,0-.47.25,5.21,5.21,0,0,0-1.12.78,1.81,1.81,0,0,0-.56,1.22.36.36,0,0,0,.07.24.29.29,0,0,0,.37,0,1,1,0,0,0,.25-.32,4.42,4.42,0,0,1,1.5-1.78l.37-.18.34-.19h0Z" style="opacity:0.62;fill:url(#3948529c-856b-4b7a-bf47-ecb87c1a706d)"/><path d="M1190.6,61.89a1.59,1.59,0,0,1-.7.43,3.2,3.2,0,0,1-3.44-1.2,8.22,8.22,0,0,0-2.24-2.31,2.79,2.79,0,0,0-1.82-.39l-.15,0a.75.75,0,0,0-.24.08c-.06-.13-.12-.26-.17-.39a.21.21,0,0,1,0-.06.57.57,0,0,1,.34-.18,2.64,2.64,0,0,1,.8,0,3.3,3.3,0,0,1,1.27.6,22.33,22.33,0,0,0,2.47,1.62,4.92,4.92,0,0,0,2.39.46,3.87,3.87,0,0,1,.9,0,.93.93,0,0,1,.72.5A.82.82,0,0,1,1190.6,61.89Z" style="opacity:0.48;fill:url(#1b86973c-24f0-4152-a2d6-e22a86930bda)"/><path d="M1189.62,61c-.43-.13-2.34-.19-1.68.73.16.23.53.27.79.33a1.6,1.6,0,0,0,1-.08c.31-.14.53-.51.23-.8A.82.82,0,0,0,1189.62,61Z" style="opacity:0.48;fill:url(#172f4fe6-ad14-42c8-aea1-f1dc2bad408a)"/><path d="M1195.46,56.88a.75.75,0,0,0,.58-.28,1.81,1.81,0,0,0,.29-.59,1.83,1.83,0,0,0,0-1.38c-.2-.41-.71-.31-1-.07a1.85,1.85,0,0,0-.52,1.31,1.28,1.28,0,0,0,.14.64A.69.69,0,0,0,1195.46,56.88Z" style="opacity:0.48;fill:url(#5a68c460-c594-4856-9129-15a1017a555d)"/><path d="M1189.66,49.82a.63.63,0,0,0-.57.14,1.83,1.83,0,0,0-.59.94,3.4,3.4,0,0,0,0,2.07c-.06-.73.43-1.13.85-1.63.25-.3.6-.68.56-1.09a.48.48,0,0,0-.25-.41Z" style="opacity:0.62;fill:url(#1a6c5ede-7b17-45f2-bef8-8b31ced62afc)"/><path d="M1186.61,47.45a4.55,4.55,0,0,0-1,1.07,3.94,3.94,0,0,0-.36.63,4.88,4.88,0,0,0-.41,2.11,2.18,2.18,0,0,0,0,.44,6.54,6.54,0,0,1,.28,2.18c-.16.86-1.18,1.16-1.6.3a3.73,3.73,0,0,1-.34-1.57,5.91,5.91,0,0,1,.17-1.57,6.09,6.09,0,0,1,1.3-2.54A8.14,8.14,0,0,1,1186.61,47.45Z" style="opacity:0.62;fill:url(#d2e1f81f-f251-4d72-9be2-183db64e92d6)"/><path d="M1196.87,51.69a8,8,0,0,0-2.6-2.76l-.23-.15-.17-.09a3.23,3.23,0,0,0-.41-.22l-.32-.16-.25-.1a7.8,7.8,0,0,0-2.61-.56h-.84a7.57,7.57,0,0,0-2.24.46c-.25.09-.5.19-.74.3a8.64,8.64,0,0,0-1.24.74,8,8,0,0,0-1.86,1.89,7.84,7.84,0,0,0-.66,1.12,8,8,0,0,0-.8,3.48,8.28,8.28,0,0,0,.09,1.23h0a9,9,0,0,0,.23,1,5.34,5.34,0,0,0,.18.52,7.92,7.92,0,0,0,2.84,3.73,8.22,8.22,0,0,1-3.23-3.62c-.06-.13-.12-.26-.17-.39a7.7,7.7,0,0,1-.43-1.49,8.51,8.51,0,0,1-.14-1.52,8.26,8.26,0,0,1,.69-3.3,8.29,8.29,0,0,1,4.65-4.38l.38-.13.59-.16a8.41,8.41,0,0,1,2.87-.15l.46.07a8,8,0,0,1,2.63,1l.12.06.31.2.25.18a.88.88,0,0,1,.17.12l.14.11A8.29,8.29,0,0,1,1196.87,51.69Z" style="fill:#fff;opacity:0.28"/><path d="M1190.45,47a3,3,0,0,0-1,.64,1.45,1.45,0,0,0-.21.22,5.54,5.54,0,0,1-.69.82.9.9,0,0,1-1,.18.76.76,0,0,1-.35-.63v-.13a1.64,1.64,0,0,1,.18-.58c.06-.12.14-.24.2-.37l-.59.16a4.73,4.73,0,0,1-.32.74l-.21.35a3.1,3.1,0,0,0-.54,1.6,1,1,0,0,0,.13.49.86.86,0,0,0,.76.37,1.62,1.62,0,0,0,.84-.28,7.49,7.49,0,0,0,2.29-2.49,3.79,3.79,0,0,1,.34-.45,3.07,3.07,0,0,1,.63-.57Z" style="opacity:0.62;fill:url(#af3653e7-ddab-4f75-9815-73eeaac5e106)"/><path d="M1197.63,55.14a8.18,8.18,0,0,1-14.9,4.67,1.39,1.39,0,0,1,.67.21l1.38.77a1,1,0,0,0,.62.17c.36-.08.49-.53.52-.9s0-.92.54-1a.91.91,0,0,1,.53.13c.9.46,1.29,1.51,1.78,2.39a2,2,0,0,0,.51.63,1.61,1.61,0,0,0,.91.29,1.25,1.25,0,0,0,.77-.13,1.22,1.22,0,0,0,.41-1.11,11.76,11.76,0,0,0-1.2-3.57c-.24-.65-.36-2.22.79-2,.91.16,1,1.43,1.49,2,.22.3.64.56,1,.36a.83.83,0,0,0,.26-.35,3.94,3.94,0,0,0-.39-3.21c-.51-1.08-1.72-2.56-.92-3.78a1.66,1.66,0,0,1,1.15-.68,2.78,2.78,0,0,1,.91,0l.45.08a3.22,3.22,0,0,1,1.6.79s0,0,0,.05A8.08,8.08,0,0,1,1197.63,55.14Z" style="fill:#004e8e;opacity:0.31"/></g></g></svg>