<svg xmlns="http://www.w3.org/2000/svg" viewBox="0 0 74.62 74.77"><title>ta0523</title><g id="bg-"><path d="M72.41,48.41A36.87,36.87,0,1,1,48.33,2.17,36.87,36.87,0,0,1,72.41,48.41" style="fill:#204d7a"/><path d="M72.87,42.23c.44-.95.81-1.92,1.15-2.88a36.85,36.85,0,0,0-20.45-35c-10.9-1.19-22.1,5-27.29,16.16C19.86,34.24,25.08,50.25,38,56.26s28.5-.28,34.92-14" style="fill:#3c8ebc"/><path d="M32.52,18.89a5.22,5.22,0,1,1-3.41-6.55,5.22,5.22,0,0,1,3.41,6.55" style="fill:#3c8ebc"/><path d="M18.19,37.76a6.15,6.15,0,1,1-4-7.71,6.14,6.14,0,0,1,4,7.71" style="fill:#3c8ebc"/><path d="M17.15,20.64a3.1,3.1,0,1,1-2-3.89,3.11,3.11,0,0,1,2,3.89" style="fill:#3c8ebc"/><path d="M31.68,50.23a3.1,3.1,0,1,1-2-3.88,3.09,3.09,0,0,1,2,3.88" style="fill:#3c8ebc"/><path d="M47.36,13.45a7,7,0,1,1-4.57-8.76,7,7,0,0,1,4.57,8.76" style="fill:#1a4063"/><path d="M35.45,35.06a7,7,0,1,1-4.56-8.76,7,7,0,0,1,4.56,8.76" style="fill:#1a4063"/><path d="M53,32.75a4.17,4.17,0,1,1-2.73-5.22A4.16,4.16,0,0,1,53,32.75" style="fill:#1a4063"/><path d="M62.73,56.21A4.17,4.17,0,1,1,60,51a4.16,4.16,0,0,1,2.72,5.22" style="fill:#1a4063"/></g></svg>