<?xml version="1.0" encoding="utf-8"?>
<!-- Generator: Adobe Illustrator 22.1.0, SVG Export Plug-In . SVG Version: 6.00 Build 0)  -->
<svg version="1.1" id="圖層_1" xmlns="http://www.w3.org/2000/svg" xmlns:xlink="http://www.w3.org/1999/xlink" x="0px" y="0px"
	 viewBox="0 0 510 510" style="enable-background:new 0 0 510 510;" xml:space="preserve">
<style type="text/css">
	.st0{fill:none;stroke:#581F93;stroke-width:1.5;stroke-linecap:round;stroke-linejoin:round;stroke-dasharray:7.149,7.149;}
	.st1{fill:#6923A2;}
</style>
<title>ta0523</title>
<g id="bg-">
	<ellipse class="st0" cx="241.6" cy="255.9" rx="240.2" ry="240.2"/>
	<path class="st1" d="M389.9,461.7c0,10.4-8.5,18.9-18.9,18.9c-10.4,0-18.9-8.5-18.9-18.9c0-10.4,8.5-18.9,18.9-18.9c0,0,0,0,0,0
		C381.4,442.8,389.9,451.2,389.9,461.7C389.9,461.7,389.9,461.7,389.9,461.7"/>
	<path class="st1" d="M509.7,242.1c0,14.1-11.4,25.5-25.5,25.5s-25.5-11.4-25.5-25.5c0-14.1,11.4-25.5,25.5-25.5
		S509.7,228,509.7,242.1"/>
	<path class="st1" d="M53.7,384.5c0,8.3-6.7,15-15,15s-15-6.7-15-15s6.7-15,15-15l0,0C46.9,369.5,53.7,376.3,53.7,384.5"/>
	<path class="st1" d="M26.5,101.7c0,4.4-3.6,8-8,8s-8-3.6-8-8s3.6-8,8-8S26.5,97.3,26.5,101.7"/>
</g>
</svg>
