<svg xmlns="http://www.w3.org/2000/svg" viewBox="0 0 137.74 47.02"><title>MD2019-素材</title><g id="title"><circle cx="68.79" cy="24.49" r="22.53" style="fill:#0b147b"/><circle cx="34.24" cy="4.24" r="4.24" style="fill:#9195be"/><circle cx="6.2" cy="38.83" r="6.2" style="fill:#9195be"/><circle cx="130.25" cy="25.43" r="7.49" style="fill:#9195be"/><path d="M40.75,39.38H40c-6.42-.07-14.27-1-15.19-5.12-1.43-6.35,15.18-13,22.24-15.53,0,0-.15.61-.28,1.24-.09.44-.16.91-.19,1.06C32.12,26.27,26.14,31.31,26.71,33.82c.37,1.66,4.05,3.46,13.27,3.56,8.48.1,19.47-1.28,30.91-3.85C95.72,28,111.94,19.25,111,14.91c-.57-2.53-8.18-4.52-23.54-3.07C87.2,11.51,86.08,10,86.08,10c7.59-.78,25.39-1.91,26.83,4.51,1.62,7.23-20.21,16.22-41.58,21C60.1,38,49.28,39.38,40.75,39.38Z" style="fill:#c1c1c1"/></g></svg>