<svg xmlns="http://www.w3.org/2000/svg" xmlns:xlink="http://www.w3.org/1999/xlink" viewBox="0 0 100.74 105.79"><defs><linearGradient id="未命名漸層_100" x1="1477.65" y1="430.34" x2="1515.94" y2="437.86" gradientTransform="matrix(-0.98, -0.19, -0.19, 0.98, 1570.7, -91.08)" gradientUnits="userSpaceOnUse"><stop offset="0" stop-color="#8bfb6d"/><stop offset="1" stop-color="#cffbc7"/></linearGradient><linearGradient id="未命名漸層_100-2" x1="1469.05" y1="469.03" x2="1422.23" y2="488.2" gradientTransform="translate(-1062.6 -927.41) rotate(22.27)" xlink:href="#未命名漸層_100"/><linearGradient id="未命名漸層_100-3" x1="1184.54" y1="448.73" x2="1100.82" y2="485.18" gradientTransform="translate(-978.47 -592.06) rotate(11.12)" xlink:href="#未命名漸層_100"/><radialGradient id="未命名漸層_138" cx="53.17" cy="24.68" r="28.3" gradientUnits="userSpaceOnUse"><stop offset="0.43" stop-color="#fff" stop-opacity="0"/><stop offset="0.72" stop-color="#fff" stop-opacity="0.1"/><stop offset="1" stop-color="#fff" stop-opacity="0.3"/></radialGradient><linearGradient id="未命名漸層_161" x1="1105.55" y1="445.43" x2="1159.03" y2="445.43" gradientTransform="translate(-978.47 -592.06) rotate(11.12)" gradientUnits="userSpaceOnUse"><stop offset="0" stop-color="#fff"/><stop offset="1" stop-color="#c0c7d5"/></linearGradient><linearGradient id="未命名漸層_112" x1="1130.52" y1="418.23" x2="1134.28" y2="437.36" gradientTransform="translate(-978.47 -592.06) rotate(11.12)" gradientUnits="userSpaceOnUse"><stop offset="0" stop-color="#ff7f83"/><stop offset="1" stop-color="#ff2b82"/></linearGradient><linearGradient id="未命名漸層_100-4" x1="74.43" y1="26.2" x2="30.48" y2="26.2" gradientTransform="matrix(1, 0, 0, 1, 0, 0)" xlink:href="#未命名漸層_100"/><linearGradient id="linear-gradient" x1="1110.22" y1="408.01" x2="1118.15" y2="408.01" gradientTransform="translate(-978.47 -592.06) rotate(11.12)" gradientUnits="userSpaceOnUse"><stop offset="0" stop-color="#fff"/><stop offset="1" stop-color="#dee9ec"/></linearGradient><linearGradient id="linear-gradient-2" x1="1122.66" y1="396.62" x2="1139.81" y2="396.62" xlink:href="#linear-gradient"/><linearGradient id="linear-gradient-3" x1="1143.79" y1="408.61" x2="1151.72" y2="408.61" xlink:href="#linear-gradient"/><radialGradient id="radial-gradient" cx="1131.24" cy="396.62" r="5.48" gradientTransform="translate(-978.47 -592.06) rotate(11.12)" gradientUnits="userSpaceOnUse"><stop offset="0" stop-color="#2f2677"/><stop offset="1" stop-color="#222044"/></radialGradient><radialGradient id="radial-gradient-2" cx="1113.83" cy="408.11" r="2.54" xlink:href="#radial-gradient"/><radialGradient id="radial-gradient-3" cx="1147.76" cy="408.61" r="2.54" xlink:href="#radial-gradient"/><linearGradient id="未命名漸層_112-2" x1="17.61" y1="70.68" x2="72.13" y2="70.68" gradientTransform="matrix(1, 0, 0, 1, 0, 0)" xlink:href="#未命名漸層_112"/><linearGradient id="linear-gradient-4" x1="1033.47" y1="452.63" x2="1037.55" y2="452.63" gradientTransform="matrix(0.73, 0.14, -0.19, 0.98, -646.91, -526.91)" xlink:href="#linear-gradient"/><linearGradient id="linear-gradient-5" x1="1109.48" y1="454.23" x2="1113.56" y2="454.23" xlink:href="#linear-gradient"/><linearGradient id="linear-gradient-6" x1="1117.9" y1="455.36" x2="1121.98" y2="455.36" xlink:href="#linear-gradient"/><linearGradient id="linear-gradient-7" x1="1126.11" y1="456.22" x2="1130.2" y2="456.22" xlink:href="#linear-gradient"/><linearGradient id="linear-gradient-8" x1="1133.55" y1="456.3" x2="1137.64" y2="456.3" xlink:href="#linear-gradient"/><linearGradient id="linear-gradient-9" x1="1141.24" y1="456.03" x2="1145.32" y2="456.03" xlink:href="#linear-gradient"/><linearGradient id="linear-gradient-10" x1="1149.1" y1="455.1" x2="1153.18" y2="455.1" xlink:href="#linear-gradient"/><linearGradient id="linear-gradient-11" x1="1106.87" y1="454.12" x2="1110.95" y2="454.12" gradientTransform="matrix(0.78, 0.15, -0.19, 0.98, -710.56, -539.42)" xlink:href="#linear-gradient"/></defs><title>alien</title><g id="bg"><path d="M21.37,47.6a24.74,24.74,0,0,0-4.93-5.94C11.91,37.9,5.75,37,0,35.68A6.14,6.14,0,0,1,3.17,40,3.85,3.85,0,0,1,.5,44.21a6,6,0,0,1,4.86,2.47,6,6,0,0,1,.76,5.4,4.36,4.36,0,0,1,5-.35A4.36,4.36,0,0,1,13,56.31a5.81,5.81,0,0,1,9.87.56,6.17,6.17,0,0,0,.64-4.8A14.94,14.94,0,0,0,21.37,47.6Z" style="fill:url(#未命名漸層_100)"/><path d="M21.37,47.6a24.74,24.74,0,0,0-4.93-5.94C11.91,37.9,5.75,37,0,35.68a77.86,77.86,0,0,1,7.38,2.65A5.12,5.12,0,0,1,10,40.51a1.17,1.17,0,0,1,.14.75c-.1.48-.62.73-1.08.91l-5.2,2q4.06-.76,8.16-1.37a5.64,5.64,0,0,1,2.24,0,2,2,0,0,1,1.54,1.49c.14,1-.73,2-1.51,2.64-1.33,1.08-2.46,2-4,3.06,2.05-.79,5.07-2.62,6.88-2.51.5,0,.75.64.73,1.13-.05,1.45-2.25,3.65-3.06,4.82.77-.9,4.63-3.15,6-2.17,1,.74,1.14,2.37,2.24,3a4.27,4.27,0,0,0,0-3.38A17.43,17.43,0,0,0,21.37,47.6Z" style="fill:#006837"/><path d="M76.34,58.45a24.73,24.73,0,0,1,7.38-2.25c5.86-.64,11.51,2,17,4.06a6.13,6.13,0,0,0-5,1.83,3.86,3.86,0,0,0-.11,5,5.9,5.9,0,0,0-9,3.47,4.25,4.25,0,0,0-8.06-.24,5.81,5.81,0,0,0-8.55-5A6.14,6.14,0,0,1,72.1,61,14.86,14.86,0,0,1,76.34,58.45Z" style="fill:url(#未命名漸層_100-2)"/><path d="M76.34,58.45a24.73,24.73,0,0,1,7.38-2.25c5.86-.64,11.51,2,17,4.06a77.1,77.1,0,0,0-7.61-1.85,5.13,5.13,0,0,0-3.42.36,1.18,1.18,0,0,0-.53.55,1.53,1.53,0,0,0,.4,1.35c1.08,1.52,2.16,3,3.23,4.55-2-1.92-4-3.8-6-5.64a5.73,5.73,0,0,0-1.86-1.26,2,2,0,0,0-2.1.4c-.67.75-.49,2.07-.19,3,.52,1.64,1,3,1.64,4.76-1.28-1.79-2.78-5-4.36-5.89-.43-.24-1,.12-1.23.54-.75,1.24-.13,4.29-.09,5.71-.15-1.18-2.13-5.17-3.8-5.1-1.26.06-2.26,1.35-3.52,1.26a4.25,4.25,0,0,1,1.86-2.83A17.08,17.08,0,0,1,76.34,58.45Z" style="fill:#006837"/><path d="M60.53,101.24a8.57,8.57,0,0,0,1.55,2.26,5.66,5.66,0,0,0,5.4,1.7,4.82,4.82,0,0,0,3.3-3.73,5.41,5.41,0,0,0-1.63-4.76c-.66-.62-1.46-1.07-2.13-1.67-3.43-3.12-2-7.12-1.66-11.11a6.08,6.08,0,0,0-.5-3.3A6.94,6.94,0,0,0,61.73,78c-4.37-2.27-9.17-3.56-13.93-4.82L39.59,71c-5.38-1.44-14.16-3.17-17.46,2.93a19.28,19.28,0,0,0-1.57,6c-.36,2-.94,4.16-2.43,5.59s-4,2.18-5.39,4a4.65,4.65,0,0,0,.67,5.89,5.08,5.08,0,0,0,5.84.81,8.46,8.46,0,0,0,3-3.3c1-1.63,1.73-3.36,2.77-4.93a9.78,9.78,0,0,1,4.14-3.75c2.75-1.16,5.42.22,6.83,2.69,1.76,3.08.58,6.77-.35,9.91a17,17,0,0,0-1.13,4.61,4.77,4.77,0,0,0,3,3.93,5,5,0,0,0,5.87-1.23c.85-.9,1-2.61,1.09-3.85a19.24,19.24,0,0,1,1.2-6.3A8,8,0,0,1,50,89.43a6.92,6.92,0,0,1,8.23,3.62,23.74,23.74,0,0,1,1.33,5.18A13.84,13.84,0,0,0,60.53,101.24Z" style="fill:url(#未命名漸層_100-3)"/><path d="M27.37,38.4c4,2.07,7.84,5.11,12.25,6.21,4.71,1.17,9.55,1.81,14.31,2.75s9.37,2.33,14.12,1.92c1.19-.1,2.37-.23,3.55-.38,6.53-3.55,11.27-9.28,12.66-16.37C87.05,18.34,75.39,4.1,58.22.72S24.87,6.12,22.08,20.31a23.45,23.45,0,0,0,3.77,17.56A5.42,5.42,0,0,1,27.37,38.4Z" style="fill:url(#未命名漸層_138)"/><path d="M27.33,42.29s-11.42,26-8.43,29.37C23.68,77.1,63.69,86.24,69.49,82,73,79.42,71.84,50.5,71.84,50.5a118.26,118.26,0,0,1-22.36-2.4C39.38,46,27.33,42.29,27.33,42.29Z" style="fill:url(#未命名漸層_161)"/><path d="M78.11,49.39a3.09,3.09,0,0,1-3.06,3.24,110.55,110.55,0,0,1-50.95-10,3.1,3.1,0,0,1-1.6-4.16h0a3.16,3.16,0,0,1,4.16-1.4,104.19,104.19,0,0,0,48.13,9.46,3.17,3.17,0,0,1,3.32,2.87Z" style="fill:url(#未命名漸層_112)"/><path d="M69.92,24.51a5.58,5.58,0,0,0-5.6,8.74A12,12,0,0,1,59.24,37a29.89,29.89,0,0,0-4.8-2,24.7,24.7,0,0,1,.19-7.17h.12c5.14,0,12-3.52,12-12a12.05,12.05,0,1,0-14.88,11.7c-.23.91-.48,1.81-.77,2.7-.1.31-.94,2.25-1.54,3.68-.27,0-.55-.1-.83-.13a26.87,26.87,0,0,0-5.45-.24c-.6,0-1.19.11-1.79.2a7.89,7.89,0,0,0-.26-.94,46.8,46.8,0,0,1-1.74-5.33A5.59,5.59,0,1,0,35,28.57a5.61,5.61,0,0,0,2,0c.48.86.53.49.76,1.44A10.67,10.67,0,0,1,38,33.72c0,.13-.05.47-.12.89a22.08,22.08,0,0,0-6.34,3.32,2,2,0,0,0-.77.9c-.2.71.41,1.37,1,1.85a33.37,33.37,0,0,0,16.54,7.25,65.45,65.45,0,0,0,21.81-.47,24,24,0,0,0-5.42-6.78c-.19-.17-.41-.32-.61-.49a11,11,0,0,1,2.8-5,5,5,0,0,0,.88.26,5.58,5.58,0,1,0,2.15-11Z" style="fill:url(#未命名漸層_100-4)"/><path d="M40,23.86a4,4,0,1,1-3.13-4.66A4,4,0,0,1,40,23.86Z" style="fill:url(#linear-gradient)"/><path d="M63.44,16.85A8.58,8.58,0,1,1,56.68,6.78,8.58,8.58,0,0,1,63.44,16.85Z" style="fill:url(#linear-gradient-2)"/><path d="M72.82,30.92a4,4,0,1,1-3.13-4.66A4,4,0,0,1,72.82,30.92Z" style="fill:url(#linear-gradient-3)"/><path d="M60.41,16.26a5.48,5.48,0,1,1-4.32-6.43A5.49,5.49,0,0,1,60.41,16.26Z" style="fill:url(#radial-gradient)"/><path d="M38.23,23.61a2.54,2.54,0,1,1-2-3A2.54,2.54,0,0,1,38.23,23.61Z" style="fill:url(#radial-gradient-2)"/><path d="M71.41,30.64a2.53,2.53,0,1,1-2-3A2.53,2.53,0,0,1,71.41,30.64Z" style="fill:url(#radial-gradient-3)"/><path d="M18.2,67.62a71.51,71.51,0,0,0,23.07,8.81c14.12,2.88,29.3,3.64,29.6,3s1.52-3.79,1.22-5.16-8.35.61-27.78-4S19.87,61.7,19.87,61.7a1.75,1.75,0,0,0-1.82,1.37C17.59,64.59,17.29,67.17,18.2,67.62Z" style="fill:url(#未命名漸層_112-2)"/><path d="M19.47,65.29c-.22,1.11-1.06,1.88-1.88,1.72a1.84,1.84,0,0,1-1.09-2.3c.22-1.11,1.06-1.87,1.88-1.71A1.83,1.83,0,0,1,19.47,65.29Z" style="fill:url(#linear-gradient-4)"/><path d="M26.33,66.75a2.12,2.12,0,0,1-3.51,2.36h0A2.12,2.12,0,0,1,26.33,66.75Z" style="fill:url(#linear-gradient-5)"/><path d="M34.38,69.48a2.12,2.12,0,0,1-3.52,2.36h0A2.12,2.12,0,0,1,34.38,69.48Z" style="fill:url(#linear-gradient-6)"/><path d="M42.27,71.91a2.12,2.12,0,0,1-3.51,2.36h0A2.12,2.12,0,0,1,42.27,71.91Z" style="fill:url(#linear-gradient-7)"/><path d="M49.56,73.43A2.12,2.12,0,0,1,46,75.78h0A2.12,2.12,0,0,1,49.56,73.43Z" style="fill:url(#linear-gradient-8)"/><path d="M57.15,74.64A2.12,2.12,0,0,1,53.63,77h0A2.12,2.12,0,0,1,57.15,74.64Z" style="fill:url(#linear-gradient-9)"/><path d="M65,75.25a2.12,2.12,0,0,1-3.51,2.36h0A2.12,2.12,0,0,1,65,75.25Z" style="fill:url(#linear-gradient-10)"/><path d="M72.58,75.72c.89,2.4-1.53,4.45-2.92,2.48h0C68.78,75.8,71.19,73.75,72.58,75.72Z" style="fill:url(#linear-gradient-11)"/></g></svg>