<svg xmlns="http://www.w3.org/2000/svg" viewBox="0 0 770.62 142.31"><title>logo</title><g id="_1-kv-logo_text" data-name="1-kv-logo text"><path d="M43.31,97.86,86.62,50.41v89.65H77.13V74.91L43.31,111.83,9.5,74.91v65.15H0V50.41Z" style="fill:#fff"/><path d="M131.66,67.6a37.1,37.1,0,0,1,37.26,37.26,36.09,36.09,0,0,1-10.86,26.23,36.87,36.87,0,0,1-52.64,0,36.87,36.87,0,0,1,0-52.62A36.11,36.11,0,0,1,131.66,67.6Zm0,9.48a27.42,27.42,0,0,0-27.79,27.78,27.41,27.41,0,0,0,27.79,27.78,27.69,27.69,0,0,0,27.77-27.78,27.71,27.71,0,0,0-27.77-27.78Z" style="fill:#fff"/><path d="M318.17,117.81l8.29,4.66A36.77,36.77,0,0,1,313,136.7a37.43,37.43,0,0,1-56.59-31.84,35.65,35.65,0,0,1,11-26.39,37.5,37.5,0,0,1,57.63,6.21l-48.14,42.46a28.17,28.17,0,0,0,31.14,1.53A27.4,27.4,0,0,0,318.17,117.81Zm-47.62,2.59,41.24-36.58a27.65,27.65,0,0,0-45.9,21A27.66,27.66,0,0,0,270.55,120.4Z" style="fill:#fff"/><path d="M597.39,117.81l8.27,4.66a36.64,36.64,0,0,1-13.45,14.23,37.44,37.44,0,0,1-56.6-31.84,35.62,35.62,0,0,1,11-26.39A36.07,36.07,0,0,1,572.88,67.6a38,38,0,0,1,31.4,17.08l-48.14,42.46a28.19,28.19,0,0,0,31.15,1.53A27.55,27.55,0,0,0,597.39,117.81Zm-47.63,2.59L591,83.82a27.65,27.65,0,0,0-45.9,21A27.74,27.74,0,0,0,549.76,120.4Z" style="fill:#fff"/><polygon points="529.57 50.41 508.42 112.8 487.71 51.72 467 112.8 445.85 50.41 435.84 50.41 467 142.31 487.71 81.23 508.42 142.31 539.58 50.41 529.57 50.41" style="fill:#fff"/><path d="M372.59,69.43a27.86,27.86,0,0,0-10-1.83,27.7,27.7,0,0,0-28.12,28.12v44.34H344V95.72a17.79,17.79,0,0,1,5.44-13.37,18.3,18.3,0,0,1,13.19-5.27,18.9,18.9,0,0,1,6,1Z" style="fill:#fff"/><path d="M427.28,75.71a27.15,27.15,0,0,0-20-8.11h-.07a27.72,27.72,0,0,0-28.13,28.12v44.34h9.49V95.72A17.79,17.79,0,0,1,394,82.35a18.3,18.3,0,0,1,13.2-5.27h.07a18.32,18.32,0,0,1,13.2,5.27,17.82,17.82,0,0,1,5.44,13.37v44.34h9.48V95.72A27.15,27.15,0,0,0,427.28,75.71Z" style="fill:#fff"/><path d="M614,50.24v54.62a38.62,38.62,0,0,1,.66-7.22,40.39,40.39,0,0,0-.66,7.22,36.1,36.1,0,0,0,10.87,26.23,36.86,36.86,0,0,0,52.63,0,36.87,36.87,0,0,0,0-52.62,37.29,37.29,0,0,0-52.63,0c-.32.32-.53.68-.83,1s-.38.36-.55.55V50.24Zm9.49,54.62a27.78,27.78,0,1,1,55.56,0,27.78,27.78,0,1,1-55.56,0Zm-7.14-13.13c.09-.2.12-.44.2-.65C616.43,91.29,616.4,91.53,616.31,91.73Z" style="fill:#fff"/><path d="M255.42,32.67a42,42,0,0,0,.49-6.23v0c0-12-5-22.32-12.13-26.41-7.09,4.09-12.12,14.38-12.13,26.41v0a42,42,0,0,0,.48,6.23,14.67,14.67,0,0,0-5,10.9,14.32,14.32,0,0,0,2,7.36,15.89,15.89,0,0,1,7.57-5.21A25.52,25.52,0,0,0,239.14,49V80c-.17-.19-.36-.36-.53-.55s-.52-.68-.84-1a37.29,37.29,0,0,0-52.63,0,36.87,36.87,0,0,0,0,52.62,36.86,36.86,0,0,0,52.63,0,36.06,36.06,0,0,0,10.87-26.23V48.7a27,27,0,0,0,2.14-3,15.84,15.84,0,0,1,7.57,5.21,14.23,14.23,0,0,0,2.06-7.36A14.65,14.65,0,0,0,255.42,32.67ZM224.84,93.91a11.51,11.51,0,0,0-17.55,9.81,11.83,11.83,0,0,0,.49,3.34,7.69,7.69,0,0,0-5.4,7.33c0,.12,0,.22,0,.33A10.89,10.89,0,0,0,193,125.5c0,.14,0,.26,0,.4-.47-.42-.94-.82-1.4-1.28a26.82,26.82,0,0,1-8-19.76A27.81,27.81,0,0,1,231,85.2,29.57,29.57,0,0,1,233.45,88,10.12,10.12,0,0,0,224.84,93.91Zm18.94-69.46a6.82,6.82,0,1,1,6.82-6.82A6.82,6.82,0,0,1,243.78,24.45Z" style="fill:#fff"/><path d="M707.86,117.23h-9.51l4.78-16.4h5.55Z" style="fill:#fff"/><path d="M721.51,141.67V112.15h-7v-6a12,12,0,0,0,5.57-1.46,6,6,0,0,0,2.77-3.86h6.77v40.84Z" style="fill:#fff"/><path d="M770.07,122.33a24.22,24.22,0,0,1-1.87,5.78,27.09,27.09,0,0,1-3.38,5.42,21,21,0,0,1-5.13,4.55,26,26,0,0,1-7.15,3.09,35,35,0,0,1-9.39,1.14v-8q7.11,0,11.58-2.4a13.05,13.05,0,0,0,6.21-7.11,14.58,14.58,0,0,1-4.09,2,18.9,18.9,0,0,1-5.24.62,19.75,19.75,0,0,1-5.66-.79,12.65,12.65,0,0,1-4.58-2.42,11.2,11.2,0,0,1-3.06-4.11,14.3,14.3,0,0,1-1.11-5.87,12.7,12.7,0,0,1,5-10.41,16.06,16.06,0,0,1,5.45-2.68,24.56,24.56,0,0,1,6.77-.9,20.54,20.54,0,0,1,6.35,1,13.45,13.45,0,0,1,5.16,3,14.27,14.27,0,0,1,3.45,5.16,19.94,19.94,0,0,1,1.25,7.38A30.37,30.37,0,0,1,770.07,122.33Zm-10-13q-2-1.6-6.07-1.6a10.57,10.57,0,0,0-6.32,1.63,5.26,5.26,0,0,0-2.25,4.5,5.16,5.16,0,0,0,2.16,4.6,10.58,10.58,0,0,0,6,1.46c2.8,0,4.92-.48,6.36-1.46a5.24,5.24,0,0,0,2.15-4.66A5.37,5.37,0,0,0,760.12,109.38Z" style="fill:#fff"/></g></svg>