<svg xmlns="http://www.w3.org/2000/svg" xmlns:xlink="http://www.w3.org/1999/xlink" viewBox="0 0 107.72 123.14"><defs><linearGradient id="linear-gradient" x1="-347.26" y1="-1388.95" x2="-304.71" y2="-1370.71" gradientTransform="matrix(0.8, 0.6, -0.6, 0.8, -545.6, 1360.51)" gradientUnits="userSpaceOnUse"><stop offset="0" stop-color="#39b8b8"/><stop offset="1" stop-color="#56519f"/></linearGradient><linearGradient id="linear-gradient-2" x1="-4077.65" y1="-1388.82" x2="-4039.92" y2="-1372.65" gradientTransform="matrix(-0.8, -0.6, -0.6, 0.8, -4001.77, -1229.3)" xlink:href="#linear-gradient"/><linearGradient id="未命名漸層_12" x1="-317.27" y1="-1432.13" x2="-258.09" y2="-1390.62" gradientTransform="matrix(0.8, 0.6, -0.6, 0.8, -545.6, 1360.51)" gradientUnits="userSpaceOnUse"><stop offset="0" stop-color="#d6d6ff"/><stop offset="1" stop-color="#fff"/></linearGradient><linearGradient id="linear-gradient-3" x1="-352.41" y1="-1391.24" x2="-238.73" y2="-1353.34" xlink:href="#linear-gradient"/><linearGradient id="linear-gradient-4" x1="-368.11" y1="-1396.22" x2="-260.91" y2="-1360.49" gradientTransform="matrix(0.8, 0.6, -0.6, 0.8, -545.6, 1360.51)" gradientUnits="userSpaceOnUse"><stop offset="0" stop-color="#39b8b8"/><stop offset="1" stop-color="#22457e"/></linearGradient><linearGradient id="linear-gradient-5" x1="-308.94" y1="-1473.89" x2="-272.36" y2="-1458.21" xlink:href="#linear-gradient"/><linearGradient id="linear-gradient-6" x1="-312.82" y1="-1446.46" x2="-267" y2="-1418.38" gradientTransform="translate(-1383.05 -33.23) rotate(104.29)" xlink:href="#linear-gradient"/><linearGradient id="linear-gradient-7" x1="-275.92" y1="-1423.11" x2="-315.07" y2="-1448.73" gradientTransform="translate(-728.1 1257.76) rotate(45.05)" gradientUnits="userSpaceOnUse"><stop offset="0" stop-color="#3b2757"/><stop offset="1" stop-color="#7c5890"/></linearGradient><linearGradient id="linear-gradient-8" x1="-285.02" y1="-1429.07" x2="-324.17" y2="-1454.69" gradientTransform="matrix(0.8, 0.6, -0.6, 0.8, -545.6, 1360.51)" xlink:href="#linear-gradient-7"/><linearGradient id="linear-gradient-9" x1="-303.93" y1="-1384.26" x2="-252.43" y2="-1367.1" xlink:href="#linear-gradient"/><linearGradient id="linear-gradient-10" x1="-313.33" y1="-1387.49" x2="-261.84" y2="-1370.32" xlink:href="#linear-gradient"/></defs><title>rocket</title><g id="_1-kv-planet" data-name="1-kv-planet"><path d="M38.79,41.58S8,36.23,0,73.45a1.94,1.94,0,0,0,3.07,1.92,31.36,31.36,0,0,1,11.37-6.16A25,25,0,0,1,26.67,69Z" style="fill:url(#linear-gradient)"/><path d="M85.76,76.78s13.78,28-19.7,46.13a1.94,1.94,0,0,1-2.71-2.4,31.32,31.32,0,0,0,2.72-12.64A25,25,0,0,0,62.88,96.1Z" style="fill:url(#linear-gradient-2)"/><path d="M81.87,83.05C104.7,52.59,110.62,4.67,106,1.18,101.69-2,57,16.83,34.15,47.29,30,52.81,23.32,69.19,22.84,79.16l31.62,23.7C63.6,99.62,77.74,88.56,81.87,83.05Z" style="fill:url(#未命名漸層_12)"/><path d="M24.75,68.82a49.11,49.11,0,0,0-1.91,10.34l31.62,23.7a49.93,49.93,0,0,0,9.34-4.78Z" style="fill:url(#linear-gradient-3)"/><path d="M35.55,76.91c-.87,2.68-2.92,9-3,9.51l12.85,9.63c2.62-1.86,4.43-3.87,7.54-6.13Z" style="fill:url(#linear-gradient-4)"/><path d="M105.92,23.37c2.79-12.21,1.76-22.45.7-23.25S95.81,1.75,84.84,7.57Z" style="fill:url(#linear-gradient-5)"/><circle cx="79.81" cy="36.26" r="13.8" transform="translate(15.71 96.05) rotate(-67.44)" style="fill:url(#linear-gradient-6)"/><circle cx="79.81" cy="36.26" r="9.91" transform="translate(-4.36 11.75) rotate(-8.2)" style="fill:url(#linear-gradient-7)"/><path d="M85.73,32.59a7.88,7.88,0,0,1,3.39,7.06A9.91,9.91,0,1,0,72.52,43C69.55,36,78.16,26.91,85.73,32.59Z" style="fill:url(#linear-gradient-8)"/><path d="M32.41,99.07l0,0a3.65,3.65,0,0,1-.92-4.82l14.67-24L57.22,59.46a3.87,3.87,0,0,1,5-.32l.05,0a3.86,3.86,0,0,1,1.07,4.95L55.74,78,37.31,98.58A3.65,3.65,0,0,1,32.41,99.07Z" style="fill:url(#linear-gradient-9)"/><path d="M63.35,64.13a3.86,3.86,0,0,0-1.07-4.95l-.05,0h0L32.33,99l0,0,0,0a3.65,3.65,0,0,0,4.9-.49L55.74,78Z" style="fill:url(#linear-gradient-10)"/><path d="M62.08,93.26C59.43,92.84,53,86.59,53,86.59c22.65-4.39,39-32.65,39.86-32S87.73,72.57,78.11,82C70.64,89.37,64.7,93.67,62.08,93.26Z" style="fill:#ddd;opacity:0.75"/><path d="M81.25,41.79a3.57,3.57,0,1,1-.72-5A3.57,3.57,0,0,1,81.25,41.79Z" style="fill:#ffe6f7;opacity:0.4"/><path d="M86.65,38.56a1.68,1.68,0,1,1-.34-2.35A1.67,1.67,0,0,1,86.65,38.56Z" style="fill:#ffe6f7;opacity:0.4"/><path d="M33.63,43.83s-10.87-.4-18.69,6.1C7.32,56.26,4.17,66.35,4.17,66.35A79.63,79.63,0,0,1,17.46,52.51,46.42,46.42,0,0,1,33.63,43.83Z" style="fill:#ffe6f7;opacity:0.4"/><path d="M48.35,74.71c-1.9,2.54-3.86,4.29-4.37,3.9s.61-2.75,2.52-5.29,3.86-4.29,4.37-3.91S50.25,72.17,48.35,74.71Z" style="fill:#ffe6f7;opacity:0.4"/><path d="M54.69,66.25c-.82,1.09-1.8,1.73-2.19,1.43s-.06-1.42.75-2.5,1.8-1.73,2.19-1.43S55.5,65.16,54.69,66.25Z" style="fill:#ffe6f7;opacity:0.4"/><path d="M106.63,10.64s-.84,10.48-1.86,10.47-17.94-13-17.94-13,13.91,8.71,15.75,8.3S106.63,10.64,106.63,10.64Z" style="fill:#ffe6f7;opacity:0.4"/></g></svg>