<svg id="圖層_1" data-name="圖層 1" xmlns="http://www.w3.org/2000/svg" viewBox="0 0 137.93 115.45"><defs><style>.cls-1{fill:#7b6ab7;}.cls-2{fill:#937bd6;}.cls-3{fill:#6a5aaf;}.cls-4{opacity:0.2;}.cls-5{fill:none;}</style></defs><title>rock</title><path class="cls-1" d="M61.15,2.76s19.07,2.61,23.6,4.85,30.37,18.23,30.37,18.23l22.56,22.8L114,99.12,59.31,114.57,1.94,82.51l-.22-38A83.38,83.38,0,0,1,5.81,34a73.43,73.43,0,0,1,6.52-8.74Z"/><path class="cls-2" d="M61.15,2.76,18.79,22.52s-7.15,10.81-8.43,13.79S7.62,48.68,7.62,48.68l3.22,15.57L1.94,82.51,48.15,101l24.62,9.74L114,99.12,95.73,57.47,78.16,34.24Z"/><path class="cls-3" d="M27.47,31h0A4.74,4.74,0,0,1,31,25.32c4.58-1.27,5.61,3.88,5.61,3.88Z"/><path class="cls-3" d="M6.43,56.18h0A4.74,4.74,0,0,1,10,50.49c4.58-1.27,5.61,3.88,5.61,3.88Z"/><path class="cls-3" d="M19.23,84h0a4.72,4.72,0,0,1,3.54-5.7c4.59-1.27,5.61,3.88,5.61,3.88Z"/><path class="cls-3" d="M48.85,69.45h0a4.74,4.74,0,0,1,3.55-5.7C57,62.48,58,67.63,58,67.63Z"/><path class="cls-3" d="M71,75.92h0a4.74,4.74,0,0,1,3.55-5.7c4.58-1.27,5.61,3.88,5.61,3.88Z"/><path class="cls-3" d="M34.83,96.23h0a4.74,4.74,0,0,1,3.55-5.7C43,89.26,44,94.41,44,94.41Z"/><path class="cls-3" d="M57,98.28h0a4.73,4.73,0,0,1,3.54-5.7c4.59-1.27,5.61,3.88,5.61,3.88Z"/><path class="cls-3" d="M48.76,36.78h0a4.74,4.74,0,0,1,3.55-5.7C56.89,29.81,57.92,35,57.92,35Z"/><path class="cls-3" d="M28.14,58.14h0a4.74,4.74,0,0,1,3.55-5.69c4.58-1.27,5.61,3.88,5.61,3.88Z"/><path class="cls-3" d="M76.38,21.75h0a4.74,4.74,0,0,1,3.55-5.69c4.58-1.27,5.61,3.88,5.61,3.88Z"/><path class="cls-3" d="M115.66,55.16h0a4.74,4.74,0,0,1,3.55-5.7c4.58-1.27,5.61,3.88,5.61,3.88Z"/><path class="cls-3" d="M100.68,76h0a4.74,4.74,0,0,1,3.55-5.7c4.58-1.27,5.61,3.88,5.61,3.88Z"/><path class="cls-3" d="M86.87,51.91h0A5,5,0,0,1,86.78,45c3.08-3.69,6.63.13,6.63.13Z"/><path class="cls-4" d="M137.68,48.64,95.73,57.47l-3,34.76s-15.61,4.06-18.6,5.21-15.27,7.79-15.27,7.79l.44,9.34L114,99.12Z"/><path class="cls-4" d="M137.68,48.64,92.74,92.23S79.33,95.8,75,97.18s-16.1,8-16.1,8l.44,9.34,13.76-3.7L114,99.12Z"/><path class="cls-4" d="M115.12,25.84s-7.35,2.85-16.61,5.41a104.76,104.76,0,0,1-20.35,3S64.39,49.39,48.39,59.35A265.13,265.13,0,0,1,1.94,82.51l57.37,32.06L114,99.12l23.69-50.48Z"/><polygon class="cls-4" points="105.59 79.56 92.74 92.23 114.19 99.65 105.59 79.56"/><polygon id="_切片_" data-name="&lt;切片&gt;" class="cls-5" points="0 115.5 1.5 2 139 2 137.5 115.5 0 115.5"/></svg>