<svg id="圖層_1" data-name="圖層 1" xmlns="http://www.w3.org/2000/svg" viewBox="0 0 62 61"><defs><style>.cls-1{fill:#937bd6;}.cls-2{opacity:0.2;}.cls-3{fill:none;}</style></defs><title>rock</title><polygon class="cls-1" points="57.69 44.49 60.92 52.73 60.86 57.56 52.86 60.32 43.68 54.81 42.87 46.57 46.57 43.06 57.69 44.49"/><polygon class="cls-2" points="60.92 52.73 60.86 57.56 52.86 60.32 43.68 54.81 45.04 50.57 49.78 49.78 56.74 51.3 60.92 52.73"/><path class="cls-1" d="M27.22,14.33S20.89,14,19.56,16s1.66,7.33,1.66,7.33a15.85,15.85,0,0,0,5,.33c3.3-.48,7.67-2.66,7.34-4S27.22,14.33,27.22,14.33Z"/><path class="cls-2" d="M21.56,20.31l-.34,3a15.59,15.59,0,0,0,5,.35c3.3-.48,7.67-2.66,7.34-4-.14-.52-3.43.23-6-.25C25.24,19,21.56,20.31,21.56,20.31Z"/><path class="cls-1" d="M9.48,21.56s1.14-.31,1.29-.11,1.05,1,.63,1.31-1.66,1.5-2,1.26-1.22-.67-1.12-1A11,11,0,0,1,9.48,21.56Z"/><path class="cls-1" d="M19.14,9.51s-.2.53-.36.56-.94.27-1,0-.32-.94-.05-1.06.8-.4.93-.3A3.53,3.53,0,0,1,19.14,9.51Z"/><path class="cls-1" d="M4.43,15.71s-.19.42-.33.45-.84.23-.87.05-.27-.74,0-.84S3.91,15,4,15.1A2.83,2.83,0,0,1,4.43,15.71Z"/><path class="cls-1" d="M12.29,9.11s-.13.29-.24.31-.6.16-.62,0-.19-.51,0-.58.52-.23.6-.18S12.29,9.11,12.29,9.11Z"/><rect id="_切片_" data-name="&lt;切片&gt;" class="cls-3" x="2" y="3" width="33" height="22"/><rect id="_切片_2" data-name="&lt;切片&gt;" class="cls-3" x="41" y="42" width="21" height="19"/></svg>