<?xml version="1.0" encoding="utf-8"?>
<!-- Generator: Adobe Illustrator 15.0.0, SVG Export Plug-In  -->
<!DOCTYPE svg PUBLIC "-//W3C//DTD SVG 1.1//EN" "http://www.w3.org/Graphics/SVG/1.1/DTD/svg11.dtd" [
	<!ENTITY ns_flows "http://ns.adobe.com/Flows/1.0/">
]>
<svg version="1.1" xmlns="http://www.w3.org/2000/svg" xmlns:xlink="http://www.w3.org/1999/xlink" xmlns:a="http://ns.adobe.com/AdobeSVGViewerExtensions/3.0/" x="0px" y="0px" width="361px" height="231px" viewBox="0 0 361 231" overflow="visible" enable-background="new 0 0 361 231" xml:space="preserve">
    <polygon fill="#FFFFFF" points="53.2,31.1 70.3,80.3 132.6,77.8 92.9,15 " />
    <rect x="297" y="113.3" fill="#A73935" width="46.1" height="4.1" />
    <path fill="#EF4F4D" d="M11.9,67.5c-4.3,0-7.8,21.4-7.8,47.8l7.8,0L11.9,67.5z" />
    <path fill="#FFFFFF" d="M320.1,115.3l-266.3,0l0-40.9c0,0,39.2-28,108.2-28C230.9,46.4,320.1,102.4,320.1,115.3z" />
    <path fill="#F8AB1F" d="M275.1,80.3c-4.6,10.3-7.2,22.2-7.2,35l52.1,0C320.1,109.5,301.7,94.7,275.1,80.3z" />
    <polygon fill="#EF4F4D" points="0,43.1 17.7,47.4 92.9,15 83.9,0 " />
    <path opacity="0.2" d="M203.3,115.3c0-18.5-15-33.4-33.4-33.4c-18.5,0-33.4,15-33.4,33.4H203.3z" />
    <path fill="#EF4F4D" d="M115.6,115.3V50.8c-22.4,4.4-39.1,11.3-49.5,16.5l0,48L115.6,115.3z" />
    <path fill="#57A6FF" d="M199.8,115.3c0-16.5-13.4-29.9-29.9-29.9v29.9H199.8z" />
    <path fill="#3469D3" d="M169.9,85.4c-16.5,0-29.9,13.4-29.9,29.9l29.9,0V85.4z" />
    <path opacity="0.2" d="M251.8,115.3c0-11.9-9.6-21.5-21.5-21.5c-11.8,0-21.5,9.6-21.5,21.5L251.8,115.3z" />
    <path fill="#57A6FF" d="M248,115.3c0-9.8-7.9-17.7-17.7-17.7l0,17.7L248,115.3z" />
    <path fill="#3469D3" d="M230.3,97.7c-9.8,0-17.7,7.9-17.7,17.7l17.7,0L230.3,97.7z" />
    <rect x="35.7" y="74.4" fill="#F8AB1F" width="18.1" height="40.9" />
    <polygon fill="#FFFFFF" points="11.9,67.3 11.9,115.3 35.7,115.3 35.7,74.4 " />
    <path fill="#FFFFFF" d="M101.7,84.5c-4.1,0-7.4-3.3-7.4-7.4c0-4.1,3.3-7.4,7.4-7.4c4.1,0,7.4,3.3,7.4,7.4
	C109.2,81.2,105.8,84.5,101.7,84.5z" />
    <path fill="#FFFFFF" d="M83.1,104.4c-6.2,0-11.2-5-11.2-11.2c0-6.2,5-11.2,11.2-11.2c6.2,0,11.2,5,11.2,11.2
	C94.3,99.4,89.3,104.4,83.1,104.4z" />
    <polygon fill="#C5C5C5" points="53.2,199.5 70.3,150.3 132.6,152.9 92.9,215.6 " />
    <path fill="#A73935" d="M11.9,163.1c-4.3,0-7.8-21.4-7.8-47.8l7.8,0L11.9,163.1z" />
    <path fill="#C5C5C5" d="M320.1,115.3l-266.3,0l0,40.9c0,0,39.2,28,108.2,28C230.9,184.3,320.1,128.2,320.1,115.3z" />
    <path fill="#FF6A1D" d="M275.1,150.3c-4.6-10.3-7.2-22.2-7.2-35l52.1,0C320.1,121.2,301.7,136,275.1,150.3z" />
    <polygon fill="#A73935" points="0,187.5 17.7,183.3 92.9,215.6 83.9,230.7 " />
    <path opacity="0.2" d="M203.3,115.3c0,18.5-15,33.4-33.4,33.4c-18.5,0-33.4-15-33.4-33.4H203.3z" />
    <path fill="#A73935" d="M115.6,115.3l0,64.5c-22.4-4.4-39.1-11.3-49.5-16.5l0-48L115.6,115.3z" />
    <path fill="#3469D3" d="M199.8,115.3c0,16.5-13.4,29.9-29.9,29.9l0-29.9H199.8z" />
    <path fill="#2A508C" d="M169.9,145.2c-16.5,0-29.9-13.4-29.9-29.9l29.9,0L169.9,145.2z" />
    <path opacity="0.2" d="M251.8,115.3c0,11.9-9.6,21.5-21.5,21.5c-11.8,0-21.5-9.6-21.5-21.5L251.8,115.3z" />
    <path fill="#3469D3" d="M248,115.3c0,9.8-7.9,17.7-17.7,17.7v-17.7L248,115.3z" />
    <path fill="#2A508C" d="M230.3,133c-9.8,0-17.7-7.9-17.7-17.7l17.7,0V133z" />
    <rect x="35.7" y="115.3" fill="#FF6A1D" width="18.1" height="40.9" />
    <polygon fill="#C5C5C5" points="11.9,163.4 11.9,115.3 35.7,115.3 35.7,156.3 " />
    <path fill="#F8AB1F" d="M350.8,125.7c-5.7,0-10.4-4.6-10.4-10.4c0-5.7,4.6-10.4,10.3-10.4c5.7,0,10.4,4.6,10.4,10.4
	C361.2,121,356.5,125.7,350.8,125.7z" />
    <path fill="#FFFFFF" d="M352.6,117.4c-2.2,0-4-1.8-4-4c0-2.2,1.8-4,4-4c2.2,0,4,1.8,4,4C356.7,115.6,354.9,117.4,352.6,117.4z" />
    <path fill="#FFFFFF" d="M233.7,117.4c-3,0-5.4-2.4-5.5-5.4c0-3,2.4-5.4,5.4-5.4c3,0,5.4,2.4,5.4,5.4
	C239.1,114.9,236.7,117.4,233.7,117.4z" />
    <path fill="#FFFFFF" d="M175.5,119.1c-5.2,0-9.3-4.2-9.3-9.3c0-5.2,4.2-9.3,9.3-9.3c5.2,0,9.3,4.2,9.3,9.3
	C184.9,114.9,180.7,119.1,175.5,119.1z" />
</svg>