<svg xmlns="http://www.w3.org/2000/svg" viewBox="0 0 80.87 81.85"><title>ta0523</title><g id="bg-"><path d="M40.6,34.48l-6.41,6.46a1.5,1.5,0,0,0,0,2.11l8.52-8.58A1.49,1.49,0,0,0,40.6,34.48Z" style="fill:#3469d3"/><path d="M34.2,43.05a1.49,1.49,0,0,0,2.12,0l6.41-6.46a1.5,1.5,0,0,0,0-2.11Z" style="fill:#57a6ff"/><path d="M13.49,14l2.77,2.75.82.8,2.74-2.77L19,14A3.9,3.9,0,0,0,13.49,14Z" style="fill:#57a6ff"/><path d="M13.52,19.52l.81.8,2.75-2.77-.82-.8L13.49,14A3.91,3.91,0,0,0,13.52,19.52Z" style="fill:#3469d3"/><path d="M14.42,20.23a2.76,2.76,0,0,0,0,3.91L19.34,29l4.6-4.64L20.5,21l-3.42-3.4Z" style="fill:#c5c5c5"/><path d="M19.73,14.88a2.77,2.77,0,0,1,3.91,0l4.9,4.86-4.6,4.64L20.5,21l-3.42-3.4Z" style="fill:#fff"/><path d="M35.8,29.05a3.67,3.67,0,0,0,0-5.21l-6.53-6.48-6.14,6.18,4.59,4.55,4.57,4.53Z" style="fill:#fff"/><path d="M28.73,36.18a3.69,3.69,0,0,1-5.22,0L17,29.73l6.13-6.19,4.59,4.55,4.57,4.53Z" style="fill:#c5c5c5"/><path d="M23.94,24.36l-1.82-1.81a8.46,8.46,0,0,1-6.78,2.83,2.58,2.58,0,0,0-2.61,2.46c1.36.08,2.57.11,2.57.11A11.1,11.1,0,0,0,23.94,24.36Z" style="fill:#7f2d2d"/><path d="M23.94,24.36A11.1,11.1,0,0,1,15.3,28s-1.21,0-2.57-.11v.07a2.58,2.58,0,0,0,2.53,2.61,13.64,13.64,0,0,0,10.5-4.35Z" style="fill:#a73935"/><path d="M23.94,24.36l-1.82-1.81a8.46,8.46,0,0,0,2.77-6.8,2.57,2.57,0,0,1,2.43-2.62c.09,1.36.14,2.56.14,2.56A11.09,11.09,0,0,1,23.94,24.36Z" style="fill:#a73935"/><path d="M23.94,24.36a11.09,11.09,0,0,0,3.52-8.67s-.05-1.2-.14-2.56h.08A2.58,2.58,0,0,1,30,15.63a13.61,13.61,0,0,1-4.26,10.54Z" style="fill:#ef4f4d"/><rect x="34.22" y="30.09" width="4.12" height="7.23" transform="translate(-13.19 35.73) rotate(-45.24)" style="fill:#ef4f4d"/><rect x="31.32" y="33.01" width="4.12" height="7.23" transform="translate(-16.13 34.54) rotate(-45.24)" style="fill:#a73935"/><path d="M41.42,48.1l6.41-6.46a1.51,1.51,0,0,0,0-2.12L39.3,48.11A1.5,1.5,0,0,0,41.42,48.1Z" style="fill:#57a6ff"/><path d="M47.82,39.52a1.5,1.5,0,0,0-2.12,0L39.29,46a1.51,1.51,0,0,0,0,2.12Z" style="fill:#3469d3"/><path d="M68.53,68.57l-2.77-2.74L64.94,65,62.2,67.79l.81.81A3.91,3.91,0,0,0,68.53,68.57Z" style="fill:#3469d3"/><path d="M68.5,63.06l-.81-.81L64.94,65l.82.81,2.77,2.74A3.9,3.9,0,0,0,68.5,63.06Z" style="fill:#57a6ff"/><path d="M67.6,62.35a2.76,2.76,0,0,0,0-3.91l-4.9-4.86-4.6,4.64,3.44,3.41L64.94,65Z" style="fill:#fff"/><path d="M62.29,67.7a2.76,2.76,0,0,1-3.91,0l-4.9-4.86,4.6-4.63,3.44,3.41L64.94,65Z" style="fill:#c5c5c5"/><path d="M46.22,53.52a3.68,3.68,0,0,0,0,5.22l6.53,6.48L58.91,59l-4.59-4.55L49.75,50Z" style="fill:#c5c5c5"/><path d="M53.29,46.39a3.68,3.68,0,0,1,5.22,0L65,52.85,58.91,59l-4.59-4.55L49.75,50Z" style="fill:#fff"/><path d="M58.08,58.22,59.9,60a8.5,8.5,0,0,1,6.78-2.83,2.57,2.57,0,0,0,2.61-2.45c-1.36-.08-2.57-.12-2.57-.12A11.08,11.08,0,0,0,58.08,58.22Z" style="fill:#ef4f4d"/><path d="M58.08,58.22a11.08,11.08,0,0,1,8.64-3.6s1.21,0,2.57.12v-.08a2.56,2.56,0,0,0-2.53-2.6,13.64,13.64,0,0,0-10.5,4.35Z" style="fill:#a73935"/><path d="M58.08,58.22,59.9,60a8.49,8.49,0,0,0-2.77,6.81,2.57,2.57,0,0,1-2.43,2.62c-.09-1.36-.14-2.56-.14-2.56A11.08,11.08,0,0,1,58.08,58.22Z" style="fill:#a73935"/><path d="M58.08,58.22a11.08,11.08,0,0,0-3.52,8.67s0,1.2.14,2.56h-.08a2.54,2.54,0,0,1-1.86-.74A2.5,2.5,0,0,1,52,67a13.62,13.62,0,0,1,4.26-10.54Z" style="fill:#7f2d2d"/><rect x="43.68" y="45.26" width="4.12" height="7.23" transform="translate(-21.17 46.94) rotate(-45.24)" style="fill:#a73935"/><rect x="46.58" y="42.34" width="4.12" height="7.23" transform="translate(-18.24 48.13) rotate(-45.24)" style="fill:#ef4f4d"/><rect x="40.4" y="37.73" width="4.12" height="4.19" transform="translate(-15.72 41.93) rotate(-45.24)" style="fill:#fff"/><rect x="37.5" y="40.66" width="4.12" height="4.19" transform="translate(-18.65 40.74) rotate(-45.24)" style="fill:#c5c5c5"/><rect x="4.07" y="49.06" width="34.05" height="24.63" rx="1.6" ry="1.6" transform="translate(-37.34 33.14) rotate(-45.24)" style="fill:#fff"/><rect x="20.93" y="44.22" width="6.73" height="6.73" transform="translate(-26.6 31.33) rotate(-45.24)" style="fill:#57a6ff"/><rect x="26.21" y="49.46" width="6.73" height="6.73" transform="translate(-28.76 36.63) rotate(-45.24)" style="fill:#57a6ff"/><rect x="31.49" y="54.69" width="6.73" height="6.73" transform="translate(-30.91 41.93) rotate(-45.24)" style="fill:#57a6ff"/><rect x="15.28" y="49.92" width="6.73" height="6.73" transform="translate(-32.32 29) rotate(-45.24)" style="fill:#57a6ff"/><rect x="20.56" y="55.16" width="6.73" height="6.73" transform="translate(-34.48 34.3) rotate(-45.24)" style="fill:#57a6ff"/><rect x="25.84" y="60.39" width="6.73" height="6.73" transform="translate(-36.63 39.6) rotate(-45.24)" style="fill:#57a6ff"/><rect x="9.63" y="55.62" width="6.73" height="6.73" transform="translate(-38.04 26.68) rotate(-45.24)" style="fill:#57a6ff"/><rect x="14.91" y="60.86" width="6.73" height="6.73" transform="translate(-40.2 31.97) rotate(-45.24)" style="fill:#57a6ff"/><rect x="20.19" y="66.09" width="6.73" height="6.73" transform="translate(-42.35 37.27) rotate(-45.24)" style="fill:#57a6ff"/><rect x="3.97" y="61.32" width="6.73" height="6.73" transform="translate(-43.76 24.35) rotate(-45.24)" style="fill:#57a6ff"/><rect x="9.25" y="66.56" width="6.73" height="6.73" transform="translate(-45.92 29.65) rotate(-45.24)" style="fill:#57a6ff"/><rect x="14.54" y="71.79" width="6.73" height="6.73" transform="translate(-48.07 34.95) rotate(-45.24)" style="fill:#57a6ff"/><rect x="26.49" y="40.35" width="7.14" height="1.82" transform="translate(-20.4 33.56) rotate(-45.24)" style="fill:#7f2d2d"/><rect x="37.56" y="51.32" width="7.14" height="1.82" transform="translate(-24.92 44.66) rotate(-45.24)" style="fill:#7f2d2d"/><rect x="43.9" y="8.89" width="34.05" height="24.63" rx="1.6" ry="1.6" transform="translate(2.97 49.53) rotate(-45.24)" style="fill:#fff"/><rect x="54.36" y="31.63" width="6.73" height="6.73" transform="translate(-7.77 51.34) rotate(-45.24)" style="fill:#57a6ff"/><rect x="49.08" y="26.39" width="6.73" height="6.73" transform="translate(-5.61 46.04) rotate(-45.24)" style="fill:#57a6ff"/><rect x="43.8" y="21.16" width="6.73" height="6.73" transform="translate(-3.46 40.74) rotate(-45.24)" style="fill:#57a6ff"/><rect x="60.02" y="25.93" width="6.73" height="6.73" transform="translate(-2.05 53.67) rotate(-45.24)" style="fill:#57a6ff"/><rect x="54.73" y="20.69" width="6.73" height="6.73" transform="translate(0.11 48.37) rotate(-45.24)" style="fill:#57a6ff"/><rect x="49.45" y="15.46" width="6.73" height="6.73" transform="translate(2.26 43.07) rotate(-45.24)" style="fill:#57a6ff"/><rect x="65.67" y="20.23" width="6.73" height="6.73" transform="translate(3.67 56) rotate(-45.24)" style="fill:#57a6ff"/><rect x="60.39" y="14.99" width="6.73" height="6.73" transform="translate(5.83 50.7) rotate(-45.24)" style="fill:#57a6ff"/><rect x="55.11" y="9.76" width="6.73" height="6.73" transform="translate(7.98 45.4) rotate(-45.24)" style="fill:#57a6ff"/><rect x="71.32" y="14.53" width="6.73" height="6.73" transform="translate(9.39 58.33) rotate(-45.24)" style="fill:#57a6ff"/><rect x="66.04" y="9.29" width="6.73" height="6.73" transform="translate(11.55 53.03) rotate(-45.24)" style="fill:#57a6ff"/><rect x="60.76" y="4.06" width="6.73" height="6.73" transform="translate(13.7 47.73) rotate(-45.24)" style="fill:#57a6ff"/><rect x="48.39" y="40.4" width="7.14" height="1.82" transform="translate(-13.96 49.12) rotate(-45.24)" style="fill:#a73935"/><rect x="37.32" y="29.43" width="7.14" height="1.82" transform="translate(-9.45 38.01) rotate(-45.24)" style="fill:#a73935"/></g></svg>