<?xml version="1.0" encoding="utf-8"?>
<!-- Generator: Adobe Illustrator 22.1.0, SVG Export Plug-In . SVG Version: 6.00 Build 0)  -->
<svg version="1.1" id="_0-ta-text" xmlns="http://www.w3.org/2000/svg" xmlns:xlink="http://www.w3.org/1999/xlink" x="0px" y="0px"
	 viewBox="0 0 491.8 257.7" style="enable-background:new 0 0 491.8 257.7;" xml:space="preserve">
<title>ta-txt</title>
<g>
	<path style="fill:#FFFFFF;" d="M445.8,72.4v-3.8h1.9c1,0,1.9,0.3,2.7,1c1,0.8,1.5,2,1.5,3.2v17.8h-3.8v-18l0,0l-0.1-0.1l-0.2-0.1
		L445.8,72.4z"/>
	<path style="fill:#FFFFFF;" d="M454.9,75.5v-0.9c0-3.3,2.6-5.9,5.9-5.9l0,0H484c3.3,0,5.9,2.6,5.9,5.9l0,0v0.9c0,1.5-0.5,2.9-1.6,4
		c1,1.1,1.6,2.5,1.6,4v1.1c0,3.3-2.6,5.9-5.9,5.9l0,0h-23.2c-3.3,0-5.9-2.6-5.9-5.9l0,0v-1.1c0-1.5,0.5-3,1.6-4
		C455.4,78.4,454.8,77,454.9,75.5z M486.2,74.6c0-1.2-1-2.1-2.2-2.2h-23.2c-1.2,0-2.1,1-2.2,2.2v0.9c0,1.2,1,2.2,2.1,2.2l0,0H484
		c1.2,0,2.1-1,2.2-2.2V74.6z M486.2,83.6c0-1.2-1-2.1-2.2-2.2h-23.2c-1.2,0-2.1,1-2.2,2.2v1.1c0,0.6,0.2,1.1,0.6,1.5
		s0.9,0.6,1.5,0.6H484c0.6,0,1.1-0.2,1.5-0.6s0.6-0.9,0.6-1.5v-1.1H486.2z"/>
	<path style="fill:#FFFFFF;" d="M33.2,63.4L60,34.1v55.4h-5.9V49.3L33.2,72.1L12.3,49.3v40.2H6.4V34.1L33.2,63.4z"/>
	<path style="fill:#FFFFFF;" d="M87.8,44.8c12.8-0.1,23.2,10.3,23.2,23S100.7,90.9,88,91c-12.8,0-23.2-10.3-23.2-23
		c0-6.2,2.4-12.1,6.8-16.5C75.8,47.1,81.7,44.7,87.8,44.8z M87.8,50.6c-9.4,0-17.1,7.7-17,17.2c0,9.4,7.7,17.1,17.2,17
		c9.4,0,17.1-7.7,17-17.2c0-4.5-1.8-8.8-5-12C96.7,52.4,92.3,50.5,87.8,50.6z"/>
	<path style="fill:#FFFFFF;" d="M203,75.8l5.1,2.9c-1.9,3.6-4.8,6.7-8.3,8.8c-11,6.6-25.2,3-31.7-8c-2.1-3.5-3.2-7.6-3.3-11.7
		c-0.1-6.2,2.4-12.1,6.8-16.3c9.1-9,23.8-8.8,32.7,0.3c1.1,1.1,2,2.3,2.9,3.6l-29.7,26.2c5.6,4.2,13.2,4.6,19.2,1
		C199.4,80.9,201.6,78.6,203,75.8z M173.6,77.4l25.5-22.6c-7.1-6.2-17.9-5.5-24.1,1.6c-2.8,3.2-4.3,7.2-4.2,11.4
		C170.7,71.2,171.7,74.6,173.6,77.4z"/>
	<path style="fill:#00A199;" d="M375.5,75.8l5.1,2.9c-1.9,3.6-4.8,6.7-8.3,8.8c-11,6.6-25.2,3-31.7-8c-2.1-3.5-3.2-7.6-3.3-11.7
		c-0.1-6.2,2.4-12.1,6.8-16.3c9.1-9,23.8-8.8,32.7,0.3c1.1,1.1,2,2.3,2.9,3.6L350,81.5c5.6,4.2,13.2,4.6,19.2,1
		C371.9,80.9,374.1,78.6,375.5,75.8z M346.1,77.4l25.5-22.6c-7.1-6.2-17.9-5.5-24.1,1.6c-2.8,3.2-4.3,7.2-4.2,11.4
		C343.2,71.2,344.2,74.6,346.1,77.4z"/>
	<polygon style="fill:#00A199;" points="333.6,34.1 320.6,72.7 307.8,35 295,72.7 281.9,34.1 275.7,34.1 295,90.9 307.8,53.2 
		320.6,90.9 339.8,34.1 	"/>
	<path style="fill:#FFFFFF;" d="M236.6,45.9c-2-0.8-4.1-1.1-6.2-1.1c-9.4-0.2-17.2,7.4-17.4,16.8c0,0.2,0,0.4,0,0.5v27.4h5.9V62.1
		c-0.1-3.1,1.1-6.1,3.4-8.3c2.2-2.1,5.1-3.3,8.2-3.3c1.3,0,2.5,0.2,3.7,0.6L236.6,45.9z"/>
	<path style="fill:#FFFFFF;" d="M270.4,49.8c-3.3-3.3-7.7-5.1-12.4-5l0,0c-9.4-0.1-17.2,7.4-17.4,16.8c0,0.2,0,0.4,0,0.5v27.4h5.8
		V62.1c-0.1-3.1,1.1-6.1,3.4-8.3c2.2-2.1,5.1-3.3,8.2-3.3l0,0c3-0.1,6,1.1,8.2,3.3s3.4,5.2,3.3,8.3v27.4h5.9V62.1
		C275.5,57.5,273.7,53,270.4,49.8z"/>
	<path style="fill:#00A199;" d="M385.8,34v33.8c0-1.5,0.1-3,0.4-4.5c-0.3,1.5-0.4,3-0.4,4.5c-0.1,6.1,2.4,11.9,6.7,16.2
		c8.7,9.3,23.2,9.7,32.5,1s9.7-23.2,1-32.5c-0.3-0.4-0.7-0.7-1-1c-9-9-23.5-9-32.5,0c-0.2,0.2-0.3,0.4-0.5,0.6l-0.3,0.3V34H385.8z
		 M391.6,67.8c0-9.5,7.7-17.1,17.2-17.1s17.1,7.7,17.1,17.2S418.2,85,408.7,85c-4.5,0-8.9-1.8-12.1-5S391.5,72.4,391.6,67.8z
		 M387.2,59.7c0-0.1,0.1-0.3,0.1-0.4C387.3,59.4,387.3,59.5,387.2,59.7L387.2,59.7z"/>
	<path style="fill:#00A199;" d="M164.2,23.2c0.2-1.3,0.3-2.6,0.3-3.8l0,0c0-7.4-3.1-13.8-7.5-16.3c-4.4,2.5-7.5,8.9-7.5,16.3l0,0
		c0,1.3,0.1,2.6,0.3,3.8c-1.9,1.7-3.1,4.2-3.1,6.7c0,1.6,0.4,3.2,1.3,4.6c1.2-1.5,2.8-2.6,4.7-3.2c0.4,0.7,0.9,1.4,1.5,2v19.2
		l-0.3-0.3c-0.2-0.2-0.3-0.4-0.5-0.6c-9-9-23.5-9-32.5,0s-9,23.5,0,32.5s23.5,9,32.5,0c4.3-4.3,6.7-10.1,6.8-16.2V33.1
		c0.5-0.6,0.9-1.2,1.3-1.8c1.8,0.6,3.5,1.7,4.7,3.2c0.8-1.4,1.3-3,1.3-4.6C167.3,27.3,166.2,24.9,164.2,23.2z M145.4,61
		c-3.3-2.1-7.7-1-9.8,2.3c-1.1,1.7-1.3,3.9-0.8,5.8c-2,0.6-3.3,2.5-3.3,4.5c0,0.1,0,0.1,0,0.2c-3.3,0.5-5.8,3.3-5.8,6.7
		c0,0.1,0,0.2,0,0.2c-0.3-0.3-0.6-0.5-0.9-0.8c-6.6-6.9-6.3-17.8,0.6-24.4c6.7-6.3,17.1-6.3,23.8,0c0.5,0.5,1,1.1,1.5,1.7
		C148.3,57.5,146.3,58.9,145.4,61z M157.1,18.1c-2.3,0-4.2-1.9-4.2-4.2s1.9-4.2,4.2-4.2s4.2,1.9,4.2,4.2l0,0
		C161.3,16.2,159.4,18.1,157.1,18.1z"/>
	<polygon style="fill:#FFFFFF;" points="439.5,73.2 437,73.2 438.3,66 442.5,66 	"/>
</g>
<g>
	<g>
		
			<text transform="matrix(1 0 0 1 168.49 256.9361)" style="fill:#FFFFFF; font-family:'HelveticaNeue-Bold'; font-size:20px; letter-spacing:2;">2018 7/18</text>
		
			<text transform="matrix(1 0 0 1 282.1631 256.9361)" style="fill:#FFFFFF; font-family:'HelveticaNeue-Bold'; font-size:20px; letter-spacing:4;">-</text>
		
			<text transform="matrix(1 0 0 1 295.1127 256.9361)" style="fill:#FFFFFF; font-family:'HelveticaNeue-Bold'; font-size:20px; letter-spacing:2;">19</text>
		
			<text transform="matrix(1 0 0 1 135.9001 220.096)" style="fill:#FFFFFF; font-family:'NotoSansCJKtc-Medium-B5pc-H'; font-size:20px; letter-spacing:2;">華南銀行國際會議中心</text>
	</g>
	<g>
		
			<text transform="matrix(1 0 0 1 6.5526 152.3661)" style="fill:#937BD6; font-family:'NotoSansCJKtc-Medium-B5pc-H'; font-size:28px;">技術在我們手上</text>
		
			<text transform="matrix(1 0 0 1 254.2726 152.0461)" style="fill:#937BD6; font-family:'NotoSansCJKtc-Medium-B5pc-H'; font-size:28px;">世界就在我們手上</text>
		<path style="fill:#F9B700;" d="M238.5,140.5c-0.1-0.2-0.3-0.4-0.5-0.5l-5.2-1.2l1.9-8.2c0.1-0.4-0.1-0.7-0.4-0.9
			c-0.3-0.2-0.7-0.1-0.9,0.2l-9,12c-0.2,0.2-0.2,0.5-0.1,0.7c0.1,0.2,0.3,0.4,0.5,0.5l5.2,1.2l-1.9,8.2c-0.1,0.4,0.1,0.7,0.4,0.9
			h0.2c0.3,0.1,0.6,0,0.8-0.3l9-12C238.6,141,238.6,140.8,238.5,140.5z"/>
	</g>
</g>
</svg>
