<?xml version="1.0" encoding="utf-8"?>
<!-- Generator: Adobe Illustrator 15.0.0, SVG Export Plug-In  -->
<!DOCTYPE svg PUBLIC "-//W3C//DTD SVG 1.1//EN" "http://www.w3.org/Graphics/SVG/1.1/DTD/svg11.dtd" [
	<!ENTITY ns_flows "http://ns.adobe.com/Flows/1.0/">
]>
<svg version="1.1"
	 xmlns="http://www.w3.org/2000/svg" xmlns:xlink="http://www.w3.org/1999/xlink" xmlns:a="http://ns.adobe.com/AdobeSVGViewerExtensions/3.0/"
	 x="0px" y="0px" width="100px" height="100px" viewBox="-7 -1.4 100 100"
	 overflow="visible" enable-background="new -7 -1.4 100 100" xml:space="preserve">
<defs>
</defs>
<path display="none" opacity="0.2" fill="#FFFFFF" d="M33,45.4l-18.4,44c8.4,5,18.1,7.8,28.5,7.8c10.4,0,20.2-2.9,28.5-7.8l-18.4-44
	L43,46.1l0,0L33,45.4z"/>
<rect x="54.1" y="72.3" transform="matrix(0.9416 -0.3366 0.3366 0.9416 -22.274 22.9022)" display="none" fill="#C69B73" width="1.5" height="6.7"/>
<rect x="50.7" y="73.6" transform="matrix(0.9419 -0.3359 0.3359 0.9419 -22.8484 21.7459)" display="none" fill="#AD8463" width="1.5" height="6.7"/>
<rect x="42.6" y="76.5" transform="matrix(0.9418 -0.3362 0.3362 0.9418 -24.3076 19.217)" display="none" fill="#C69B73" width="1.5" height="6.7"/>
<rect x="39.1" y="77.7" transform="matrix(0.9416 -0.3366 0.3366 0.9416 -24.9568 18.155)" display="none" fill="#AD8463" width="1.5" height="6.7"/>
<rect x="55.7" y="77.8" transform="matrix(-0.3361 -0.9418 0.9418 -0.3361 0.7432 157.6752)" display="none" fill="#784F27" width="0.6" height="1.5"/>
<rect x="52.2" y="79" transform="matrix(-0.3361 -0.9418 0.9418 -0.3361 -5.0597 156.0614)" display="none" fill="#784F27" width="0.6" height="1.5"/>
<rect x="44.1" y="81.9" transform="matrix(-0.3369 -0.9415 0.9415 -0.3369 -18.5355 152.3491)" display="none" fill="#784F27" width="0.6" height="1.5"/>
<rect x="40.6" y="83.2" transform="matrix(-0.3374 -0.9413 0.9413 -0.3374 -24.2992 150.7762)" display="none" fill="#784F27" width="0.6" height="1.5"/>
<ellipse transform="matrix(0.9419 -0.336 0.336 0.9419 -22.617 21.3238)" display="none" fill="#F9A0A0" cx="50.3" cy="76" rx="2.4" ry="1.7"/>
<path display="none" fill="#E2C89A" d="M55.4,71.1c0.5,1.5-0.2,3.2-1.8,3.7l-13,4.6c-1.5,0.5-3.2-0.2-3.7-1.8l-2.5-7
	c-0.5-1.5,0.2-3.2,1.8-3.7l13-4.6c1.5-0.5,3.2,0.2,3.7,1.8L55.4,71.1z"/>
<path display="none" fill="#E2C89A" d="M32.8,72c0,1.4-0.5,2.9-1.4,4c-0.9,1.1-2,1.5-2.9,1.3c0-1.4,0.5-2.9,1.4-4
	C30.8,72.1,31.9,71.7,32.8,72z"/>
<path display="none" fill="#C69B73" d="M31.4,76c0.9-1.1,1.4-2.6,1.4-4l-4.3,5.3C29.4,77.5,30.5,77.1,31.4,76z"/>
<path display="none" fill="#C69B73" d="M36.6,70.6c0.9,1.1,2.3,1.9,3.7,2.2c1.4,0.3,2.5-0.1,3-0.9c-0.9-1.1-2.3-1.9-3.7-2.2
	C38.3,69.5,37.2,69.8,36.6,70.6z"/>
<path display="none" fill="#AD8463" d="M40.3,72.8c-1.4-0.3-2.7-1.1-3.7-2.2l6.7,1.4C42.8,72.7,41.7,73.1,40.3,72.8z"/>
<path display="none" fill="#FFFFFF" d="M25.9,69.6c0,0,3.1,2.1,5.3,1.4c2.2-0.6,1.1,2.9,1.1,2.9S26.3,74.9,25.9,69.6z"/>
<path display="none" fill="#FFFFFF" d="M40.9,64.3c0,0-1.1,3.6-3.2,4.5c-2.1,0.9,1.1,2.9,1.1,2.9S43.8,68.6,40.9,64.3z"/>
<path display="none" fill="#E2C89A" d="M40.7,74.7c0.5,1.5-0.2,3.2-1.8,3.7l-3,1.1c-1.5,0.5-3.2-0.2-3.7-1.8l-1.8-5.1
	c-0.5-1.5,0.2-3.2,1.8-3.7l3-1.1c1.5-0.5,3.2,0.2,3.7,1.8L40.7,74.7z"/>
<path display="none" fill="#C69B73" d="M35.2,67.9l-1.5,0.5L37.4,79l1.5-0.5c1.5-0.5,2.3-2.2,1.8-3.7l-1.8-5.1
	C38.4,68.1,36.7,67.3,35.2,67.9z"/>
<path display="none" fill="#FFFFFF" d="M43.3,77.6c0.5,1.5-0.2,3.2-1.8,3.7l-5.8,2.1c-1.5,0.5-3.2-0.2-3.7-1.8l-0.3-0.8
	c-0.5-1.5,0.2-3.2,1.8-3.7l5.8-2.1c1.5-0.5,3.2,0.2,3.7,1.8L43.3,77.6z"/>
<circle display="none" fill="#C69B73" cx="34.6" cy="80.8" r="1.1"/>
<circle display="none" fill="#C69B73" cx="40.6" cy="78.6" r="1.1"/>
<circle display="none" fill="#58595B" cx="34" cy="73.4" r="0.6"/>
<circle display="none" fill="#58595B" cx="36.6" cy="72.5" r="0.6"/>
<path display="none" fill="#F9A0A0" d="M51.3,77.9c0.1,0.2,0,0.3-0.2,0.4l0,0c-0.2,0.1-0.3,0-0.4-0.2l-0.3-0.7
	c-0.1-0.2,0-0.3,0.2-0.4l0,0c0.2-0.1,0.3,0,0.4,0.2L51.3,77.9z"/>
<path display="none" fill="#F9A0A0" d="M50,78.1c0.1,0.2,0,0.3-0.2,0.4l0,0c-0.2,0.1-0.3,0-0.4-0.2l-0.2-0.7c-0.1-0.2,0-0.3,0.2-0.4
	l0,0c0.2-0.1,0.3,0,0.4,0.2L50,78.1z"/>
<path display="none" fill="#F9A0A0" d="M52.3,77.2c0.1,0.2,0,0.3-0.2,0.4l0,0c-0.2,0.1-0.3,0-0.4-0.2l-0.2-0.7
	c-0.1-0.2,0-0.3,0.2-0.4l0,0c0.2-0.1,0.3,0,0.4,0.2L52.3,77.2z"/>
<path display="none" fill="#E2C89A" d="M52.5,64.6l-0.2-0.5c0.7-0.3,1.2-0.6,1.3-1.1c0.3-1-0.7-2.2-0.7-2.2l0.4-0.4
	c0,0.1,1.2,1.4,0.8,2.7C54,63.8,53.4,64.3,52.5,64.6z"/>
<path display="none" fill="#C69B73" d="M53,60.8l0.4-0.3l-0.1-1.3c0,0-1.2,0-1.6,1.2L53,60.8L53,60.8z"/>
<path display="none" fill="#8C6D57" d="M46.3,71.7c0.2-2.1,2.4-2.2,3.2-3.3c0.7-1.1,2.6-0.6,3.2,0.3c0.6,0.8,0.7,3.1-1.5,4.7
	C49.1,74.9,46.1,74,46.3,71.7z"/>
<path display="none" fill="#8C6D57" d="M42.5,66.4c-0.1,0.8-0.4,1.7,1.4,1.9c1.8,0.3,3.2-0.9,3.8-2c0.4-0.8-0.1-2.3-0.7-3.2
	l-4.7,1.7C42.4,65.3,42.6,65.9,42.5,66.4z"/>
<rect x="13.5" y="33.9" transform="matrix(0.5619 0.8272 -0.8272 0.5619 38.1938 5.4155)" display="none" fill="#3ABA77" width="1" height="9.8"/>
<circle display="none" fill="#3ABA77" cx="9.8" cy="41.5" r="2.3"/>
<circle display="none" fill="#FFFFFF" cx="9.3" cy="41.2" r="1.1"/>
<rect x="42.6" y="4.2" display="none" fill="#3ABA77" width="0.8" height="6.2"/>
<path display="none" fill="#57A6FF" d="M43,14.9H20.5c-2.1,0-3.8,1.7-3.8,3.8H43V14.9z"/>
<path display="none" fill="#3469D3" d="M43,18.7H16.7c0,2.1,1.7,3.8,3.8,3.8H43V18.7z"/>
<path display="none" fill="#3ABA77" d="M43,10.4c-9.5,0-17.3,2-17.3,4.4H43V10.4z"/>
<path display="none" fill="#57A6FF" d="M12.7,32.2c0,7.7,13.6,13.9,30.4,13.9V32.2H12.7z"/>
<polygon display="none" fill="#3ABA77" points="1,32.2 43,32.2 43,22.5 20.5,22.5 "/>
<circle display="none" fill="#3ABA77" cx="43" cy="2.3" r="2.3"/>
<circle display="none" fill="#FFFFFF" cx="42.6" cy="2" r="1.1"/>
<circle display="none" fill="#FFFFFF" cx="29.9" cy="27.4" r="2.1"/>
<circle display="none" fill="#FFFFFF" cx="38.4" cy="27.4" r="2.1"/>
<path display="none" fill="#FFFFFF" d="M33,45.4c3.2,0.5,6.5,0.8,10.1,0.8v-5C38.7,41.2,35,42.9,33,45.4z"/>
<rect x="71.6" y="33.9" transform="matrix(-0.5601 0.8284 -0.8284 -0.5601 144.6125 0.7416)" display="none" fill="#009695" width="1" height="9.8"/>
<path display="none" fill="#3469D3" d="M43,14.9h22.6c2.1,0,3.8,1.7,3.8,3.8H43V14.9z"/>
<path display="none" fill="#275596" d="M43,18.7h26.4c0,2.1-1.7,3.8-3.8,3.8H43V18.7z"/>
<path display="none" fill="#009695" d="M43,10.4c9.5,0,17.3,2,17.3,4.4H43V10.4z"/>
<path display="none" fill="#3469D3" d="M73.4,32.2c0,7.7-13.6,13.9-30.4,13.9V32.2H73.4z"/>
<polygon display="none" fill="#009695" points="85.1,32.2 43,32.2 43,22.5 65.6,22.5 "/>
<circle display="none" fill="#009695" cx="76.3" cy="41.5" r="2.3"/>
<circle display="none" fill="#FFFFFF" cx="76.7" cy="41.2" r="1.1"/>
<circle display="none" fill="#D0D5D8" cx="64.7" cy="27.4" r="2.1"/>
<circle display="none" fill="#D0D5D8" cx="56.2" cy="27.4" r="2.1"/>
<circle display="none" fill="#D0D5D8" cx="47.7" cy="27.4" r="2.1"/>
<path display="none" fill="#D0D5D8" d="M53.1,45.4c-3.2,0.5-6.5,0.8-10.1,0.8v-5C47.4,41.2,51.1,42.9,53.1,45.4z"/>
<polygon display="none" opacity="0.2" points="43,23.6 18.2,23.6 20.5,22.5 43,22.5 "/>
<polygon display="none" opacity="0.2" points="43,23.6 67.8,23.6 65.6,22.5 43,22.5 "/>
<path display="none" fill="#FFFFFF" d="M61.6,18.7c0,0.6-0.5,1.1-1.1,1.1H25.5c-0.6,0-1.1-0.5-1.1-1.1l0,0c0-0.6,0.5-1.1,1.1-1.1
	h35.1C61.2,17.6,61.6,18.1,61.6,18.7L61.6,18.7z"/>
<path display="none" opacity="0.2" d="M12.7,32.2c0,0.7,0.1,1.4,0.3,2.1h30v-2.1H12.7z"/>
<path display="none" opacity="0.2" d="M73.4,32.2c0,0.7-0.1,1.4-0.3,2.1H43v-2.1H73.4z"/>
<circle display="none" fill="#FFFFFF" cx="21.4" cy="27.4" r="2.1"/>
<path fill="#148C66" d="M59.3,58.9c-0.1-0.1-0.2-0.2-0.3-0.3l0,0l-0.7-0.7c-0.2-0.2-0.4-0.4-0.6-0.5l-8-14c-0.2-0.1-4.9-3.4-4.9-3.4
	l-8-0.7l-17.9,5.1H14h-1.8H0.7C0.2,46.8,0,49.3,0,51.9c0,4.5,0.7,8.8,2,12.9h14v0h21.5c3.2,3,7.6,7.1,8.2,7.7c0.9,0.8,2.1,1.3,3.3,0
	c1.2-1.3,0.2-2.4,0.2-2.5c0-0.1-0.3-0.3-0.1-0.6c0.2-0.2,0.6,0,0.8,0.2c0.2,0.2,1.8,1.1,3-0.2c1.2-1.3,0-2.7-0.2-2.9
	c-0.2-0.2-0.5-0.5-0.2-0.8c0.3-0.3,0.8,0.2,1.2,0.6c0.4,0.4,1.9,1.4,3.3,0c1.3-1.4-0.4-2.9-0.8-3.3c-0.4-0.3-0.7-0.6-0.4-0.9
	c0.2-0.3,0.9,0.3,1.1,0.5c0,0,1.3,1.1,2.7-0.3C60.9,60.8,59.9,59.5,59.3,58.9z"/>
<path fill="#E7BE86" d="M68.6,60.8h-4.2l-4.8-2.9c0,0-6.8-0.9-9.5-6.1c-2.7-5.2-3.9-7.3-3.9-7.3l-10-1.7L28,48.1
	c0,0-4.4,2.6-8.4-0.6c4.7-4.3,14.3-13,14.3-13h16.9L66.7,41h3l1.1,19.8H68.6z"/>
<rect x="59.8" y="46" transform="matrix(-8.651454e-04 1 -1 -8.651454e-04 122.4926 -23.0146)" fill="#FFFFFF" width="26" height="7.4"/>
<rect x="66.2" y="52.5" transform="matrix(-8.274753e-04 1 -1 -8.274753e-04 128.9752 -16.514)" fill="#A7DAE9" width="13" height="7.4"/>
<path fill="#E7BE86" d="M28.4,54.9c-1.2-0.8-2.7-0.4-3.5,0.7l-5.3,8.1c-0.8,1.2-0.4,2.7,0.7,3.4c1.2,0.8,2.7,0.4,3.5-0.7l5.3-8.1
	C29.9,57.2,29.6,55.7,28.4,54.9z"/>
<path fill="#E7BE86" d="M45,61.4c-1.1-0.7-2.6-0.4-3.3,0.7L39,66.1c-0.2-0.1-0.3-0.3-0.5-0.4l2.6-4c0.8-1.2,0.4-2.8-0.8-3.6
	c-1.2-0.8-2.8-0.4-3.6,0.8l-3.9,5.9H32l3.1-4.7c0.8-1.2,0.4-2.8-0.8-3.6c-1.2-0.8-2.8-0.4-3.6,0.8l-5,7.6h0c0,0,0,0.1-0.1,0.1
	c0,0,0,0,0,0.1l-0.5,0.7c-0.8,1.2-0.4,2.8,0.8,3.6c1.2,0.8,2.8,0.4,3.6-0.8l1.8-2.7c0.2-0.2,0.4-0.2,0.5-0.2c0.2,0.1,0.3,0.3,0,0.8
	l-0.6,0.9c-0.8,1.2-0.4,2.8,0.8,3.6c1.2,0.8,2.8,0.4,3.6-0.8l1.2-1.8l0,0l0,0l0-0.1c0.1-0.1,0.3-0.4,0.5-0.3
	c0.3,0.1,0.2,0.4,0.1,0.5l-0.9,1.3c-0.7,1.1-0.4,2.6,0.7,3.3c1.1,0.7,2.6,0.4,3.3-0.7l5.1-7.8C46.4,63.6,46.1,62.1,45,61.4z"/>
<path fill="#57A6FF" d="M83.2,51.9c0-6.2-1.4-12.1-3.8-17.4l-4.5,0l0,30.3l6.3,0C82.5,60.8,83.2,56.4,83.2,51.9z"/>
<path fill="#3469D3" d="M83.2,51.9c0-0.7,0-1.5-0.1-2.2l-8.2,0l0,15.2l6.3,0C82.5,60.8,83.2,56.4,83.2,51.9z"/>
<path fill="#A7DAE9" d="M81.1,41.8c0.3,0,0.6-0.1,0.8-0.2c-0.2-0.9-0.5-1.8-0.8-2.7c-0.7,0-1.3,0.6-1.4,1.4
	C79.7,41.1,80.3,41.8,81.1,41.8z"/>
<circle opacity="0.3" fill="#FFFFFF" cx="6.7" cy="51.8" r="3.2"/>
<circle opacity="0.1" fill="#FFFFFF" cx="15.6" cy="58.2" r="2.9"/>
<circle fill="#39BD7A" cx="40.8" cy="50.6" r="2.9"/>
<polygon fill="#F8AB1F" points="16.8,73.2 19.2,74.5 18.8,71.7 20.8,69.8 18,69.4 16.8,66.9 15.5,69.4 12.7,69.8 14.7,71.7 
	14.3,74.5 "/>
<polygon fill="#F8AB1F" points="47.8,29.8 49.5,30.7 49.2,28.9 50.5,27.6 48.7,27.3 47.8,25.6 47,27.3 45.2,27.6 46.5,28.9 
	46.2,30.7 "/>
<polygon fill="#FFFFFF" points="56.5,18.3 58.4,19.2 58.1,17.2 59.6,15.7 57.5,15.4 56.5,13.4 55.6,15.4 53.5,15.7 55,17.2 
	54.7,19.2 "/>
<polygon fill="#FFFFFF" points="12.7,44.9 15.7,46.5 15.1,43.1 17.6,40.7 14.2,40.2 12.7,37.2 11.2,40.2 7.8,40.7 10.2,43.1 
	9.7,46.5 "/>
<polygon fill="#F8AB1F" points="82.9,48.8 86.1,50.6 82.9,52.3 81.2,55.5 79.4,52.3 76.3,50.6 79.4,48.8 81.2,45.7 "/>
<polygon fill="#FFFFFF" points="26.2,25.7 29.5,27.5 26.2,29.3 24.4,32.5 22.6,29.3 19.3,27.5 22.6,25.7 24.4,22.4 "/>
<polygon opacity="0.3" fill="#FFFFFF" points="62.9,33.1 64.5,34 62.9,34.9 62,36.6 61.1,34.9 59.4,34 61.1,33.1 62,31.5 "/>
<polygon opacity="0.3" fill="#FFFFFF" points="54.9,80.2 56.5,81.1 54.9,82 54,83.7 53.1,82 51.5,81.1 53.1,80.2 54,78.6 "/>
<polygon opacity="0.3" fill="#FFFFFF" points="64.3,69.8 65.9,70.7 64.3,71.6 63.4,73.2 62.5,71.6 60.8,70.7 62.5,69.8 63.4,68.1 
	"/>
<polygon opacity="0.3" fill="#FFFFFF" points="14.4,27.3 16,28.2 14.4,29.1 13.5,30.7 12.6,29.1 11,28.2 12.6,27.3 13.5,25.6 "/>
<polygon opacity="0.3" fill="#FFFFFF" points="37.4,75.9 39.1,76.7 37.4,77.6 36.5,79.3 35.6,77.6 34,76.7 35.6,75.9 36.5,74.2 "/>
<polygon opacity="0.3" fill="#FFFFFF" points="32.3,20.1 34,21 32.3,21.9 31.4,23.6 30.5,21.9 28.9,21 30.5,20.1 31.4,18.5 "/>
<polygon display="none" fill="#F8AB1F" points="20.4,15.2 23.4,16.7 22.8,13.4 25.2,11.1 21.9,10.6 20.4,7.6 18.9,10.6 15.6,11.1 
	18,13.4 17.5,16.7 "/>
<polygon display="none" fill="#F8AB1F" points="67.7,20.5 70,21.7 69.6,19.2 71.4,17.4 68.9,17 67.7,14.7 66.6,17 64,17.4 
	65.9,19.2 65.5,21.7 "/>
<polygon display="none" fill="#F8AB1F" points="44.5,5.8 46.2,6.7 45.9,4.8 47.2,3.5 45.3,3.2 44.5,1.5 43.6,3.2 41.7,3.5 43.1,4.8 
	42.8,6.7 "/>
<polygon display="none" fill="#F8AB1F" points="10.9,37.7 12.3,38.4 12,36.8 13.1,35.7 11.6,35.5 10.9,34.1 10.1,35.5 8.6,35.7 
	9.7,36.8 9.4,38.4 "/>
<polygon display="none" fill="#F8AB1F" points="75.2,37.1 76.7,37.8 76.4,36.3 77.5,35.2 75.9,34.9 75.2,33.5 74.5,34.9 72.9,35.2 
	74.1,36.3 73.8,37.8 "/>
<rect x="32" y="16.6" display="none" fill="#EE4F4D" width="1" height="11.4"/>
<rect x="51.7" y="16.6" display="none" fill="#A63935" width="1" height="11.4"/>
<path display="none" fill="#EE4F4D" d="M35.5,41.8c0,0.4-0.3,0.8-0.8,0.8H23.5c-0.4,0-0.8-0.3-0.8-0.8v-8.3c0-0.4,0.4-0.8,0.8-0.8
	h11.2c0.4,0,0.8,0.4,0.8,0.8V41.8z"/>
<path display="none" fill="#A63935" d="M62,41.8c0,0.4-0.3,0.8-0.8,0.8H50c-0.4,0-0.8-0.3-0.8-0.8v-8.3c0-0.4,0.4-0.8,0.8-0.8h11.2
	c0.4,0,0.8,0.4,0.8,0.8V41.8z"/>
<path display="none" fill="#EE4F4D" d="M26.2,79v12.5c0,2.3,1.9,4.2,4.2,4.2V79H26.2z"/>
<path display="none" fill="#A63935" d="M30.4,79v16.7c2.3,0,4.2-1.9,4.2-4.2V79H30.4z"/>
<path display="none" fill="#EE4F4D" d="M50.1,79v12.5c0,2.3,1.9,4.2,4.2,4.2V79H50.1z"/>
<path display="none" fill="#A63935" d="M54.4,79v16.7c2.3,0,4.2-1.9,4.2-4.2V79H54.4z"/>
<path display="none" fill="#EE4F4D" d="M38.2,79v12.5c0,2.3,1.9,4.2,4.2,4.2V79H38.2z"/>
<path display="none" fill="#A63935" d="M42.4,79v16.7c2.3,0,4.2-1.9,4.2-4.2V79H42.4z"/>
<rect x="42.4" y="47.4" display="none" fill="#A63935" width="16.2" height="5.5"/>
<rect x="42.4" y="43.3" display="none" fill="#2A2761" width="12.3" height="4.1"/>
<rect x="26.2" y="47.4" display="none" fill="#EE4F4D" width="16.2" height="5.5"/>
<rect x="42.4" y="52.9" display="none" fill="#C4C4C4" width="16.2" height="33.8"/>
<rect x="26.2" y="52.9" display="none" fill="#FFFFFF" width="16.2" height="33.8"/>
<rect x="30.1" y="43.3" display="none" fill="#3A3A77" width="12.3" height="4.1"/>
<path display="none" fill="#C4C4C4" d="M42.4,22.4v16.2v4.7h16.2v-4.7C58.6,29.7,51.3,22.4,42.4,22.4z"/>
<path display="none" fill="#FFFFFF" d="M26.2,38.6v4.7h16.2v-4.7V22.4C33.4,22.4,26.2,29.7,26.2,38.6z"/>
<circle display="none" opacity="0.2" cx="42.4" cy="69.8" r="12.4"/>
<path display="none" fill="#A63935" d="M51.4,69.8c0-5-4-9-9-9v9H51.4z"/>
<path display="none" fill="#EE4F4D" d="M42.4,60.7c-5,0-9,4-9,9h9V60.7z"/>
<path display="none" fill="#A63935" d="M33.3,69.8c0,5,4,9,9,9v-9H33.3z"/>
<path display="none" fill="#7F2D2D" d="M42.4,69.8v9c5,0,9-4,9-9H42.4z"/>
<path display="none" fill="#FFFFFF" d="M23.7,55.7c-2.1,0.5-4.2-0.7-4.7-2.8c-0.5-2.1,0.7-4.2,2.8-4.7L23.7,55.7z"/>
<path display="none" fill="#EE4F4D" d="M22.1,32.3c-0.3-1.1-1.4-1.8-2.6-1.5l0,0c-1.1,0.3-1.8,1.4-1.5,2.6l5.7,22.5
	c0.3,1.1,1.4,1.8,2.6,1.5l0,0c1.1-0.3,1.8-1.4,1.5-2.6L22.1,32.3z"/>
<path display="none" fill="#EE4F4D" d="M23,24.5c-0.9,0.2-1.4,1.1-1.2,2c0.5,1.8-0.6,3.6-2.4,4c-1.8,0.5-3.6-0.6-4-2.4
	c-0.2-0.9-1.1-1.4-2-1.2c-0.9,0.2-1.4,1.1-1.2,2c0.9,3.5,4.5,5.7,8.1,4.8c3.5-0.9,5.7-4.5,4.8-8.1C24.8,24.8,23.9,24.2,23,24.5z"/>
<path display="none" fill="#C4C4C4" d="M61.4,56.2c2.1,0,3.9-1.7,3.9-3.9s-1.7-3.9-3.9-3.9V56.2z"/>
<path display="none" fill="#A63935" d="M61.2,33c0.2-1.2,1.3-1.9,2.4-1.7l0,0c1.2,0.2,1.9,1.3,1.8,2.4l-3.7,22.9
	c-0.2,1.2-1.3,1.9-2.4,1.7l0,0c-1.1-0.2-1.9-1.3-1.7-2.4L61.2,33z"/>
<path display="none" fill="#A63935" d="M69.4,26.9c-0.9-0.1-1.8,0.5-1.9,1.4c-0.3,1.8-2,3-3.8,2.7c-1.8-0.3-3-2-2.7-3.8
	c0.1-0.9-0.5-1.8-1.4-1.9c-0.9-0.1-1.8,0.5-1.9,1.4c-0.6,3.6,1.9,7,5.5,7.6c3.6,0.6,7-1.9,7.6-5.5C70.9,27.9,70.3,27,69.4,26.9z"/>
<path display="none" fill="#57A5FF" d="M35.8,30.2c-2.7,0-4.8,2.2-4.8,4.8v8.3h11.3v-4.7v-8.4H35.8z"/>
<path display="none" fill="#3469D2" d="M48.9,30.2c2.7,0,4.8,2.2,4.8,4.8v8.3H42.4v-4.7v-8.4H48.9z"/>
<circle display="none" fill="#FFFFFF" cx="32.5" cy="14.7" r="2.6"/>
<circle display="none" fill="#C4C4C4" cx="52.2" cy="14.7" r="2.6"/>
<circle display="none" fill="#FFFFFF" cx="34.9" cy="34.6" r="1.7"/>
<circle display="none" fill="#FFFFFF" cx="41.5" cy="34.7" r="2.9"/>
</svg>
